<svg width="357" height="348" viewBox="0 0 357 348" fill="none" xmlns="http://www.w3.org/2000/svg">
<g clip-path="url(#clip0)">
<path d="M178.489 311.22C256.078 311.22 318.977 274.904 318.977 230.106C318.977 185.308 256.078 148.992 178.489 148.992C100.9 148.992 38.001 185.308 38.001 230.106C38.001 274.904 100.9 311.22 178.489 311.22Z" fill="#F5F5F5"/>
<path d="M287.317 244.705L250.443 223.433C250.285 223.379 250.147 223.277 250.049 223.14C249.951 223.004 249.899 222.841 249.899 222.673C249.899 222.505 249.951 222.342 250.049 222.206C250.147 222.069 250.285 221.967 250.443 221.913L274.147 208.25C274.555 208.044 275.005 207.936 275.463 207.936C275.92 207.936 276.371 208.044 276.778 208.25L313.646 229.523C313.805 229.576 313.943 229.679 314.041 229.815C314.138 229.951 314.191 230.115 314.191 230.282C314.191 230.45 314.138 230.613 314.041 230.75C313.943 230.886 313.805 230.988 313.646 231.042L289.943 244.711C289.535 244.916 289.085 245.022 288.629 245.021C288.173 245.02 287.724 244.911 287.317 244.705V244.705Z" fill="#E0E0E0"/>
<path d="M127.636 285.177C161.85 285.177 189.587 269.163 189.587 249.409C189.587 229.655 161.85 213.641 127.636 213.641C93.4214 213.641 65.6851 229.655 65.6851 249.409C65.6851 269.163 93.4214 285.177 127.636 285.177Z" fill="#E0E0E0"/>
<path d="M186.117 265.467C208.401 265.467 226.467 255.037 226.467 242.17C226.467 229.304 208.401 218.874 186.117 218.874C163.832 218.874 145.766 229.304 145.766 242.17C145.766 255.037 163.832 265.467 186.117 265.467Z" fill="#E0E0E0"/>
<path d="M66.0373 219.093L66.5357 211.192C66.5357 211.192 66.0677 201.097 56.0636 191.786C49.9859 186.127 44.9595 189.172 43.7014 192.254C42.4433 195.335 43.4887 200.009 49.3963 204.379C58.6467 211.216 66.4141 222.041 67.423 229.717L66.0373 219.093Z" fill="#37474F"/>
<path d="M65.7277 216.863C65.6458 216.871 65.5637 216.85 65.4951 216.805C65.4265 216.759 65.3756 216.692 65.3509 216.613C60.7986 201.54 47.7253 192.497 47.5612 192.406C47.5232 192.379 47.4912 192.344 47.4671 192.304C47.443 192.264 47.4273 192.22 47.4211 192.174C47.4148 192.128 47.4181 192.081 47.4307 192.036C47.4433 191.991 47.4649 191.949 47.4943 191.913C47.5463 191.836 47.6264 191.783 47.7175 191.765C47.8085 191.747 47.903 191.765 47.9806 191.816C48.1143 191.907 61.4185 201.085 66.0437 216.401C66.0688 216.489 66.0588 216.584 66.0158 216.666C65.9728 216.747 65.9001 216.809 65.8128 216.838L65.7277 216.863Z" fill="white"/>
<path d="M66.4388 219.354C66.3804 218.491 66.0602 217.667 65.5211 216.99C64.5486 215.866 62.8468 215.501 62.0263 214.255C61.7011 213.635 61.4405 212.984 61.2484 212.31C60.6394 210.86 59.5037 209.694 58.0697 209.047C56.6348 208.422 55.0537 208.211 53.5053 208.439C52.3323 208.585 51.1957 208.943 50.0227 209.107C46.1755 209.66 42.6139 206.129 38.7849 208.5C36.4875 209.934 36.6455 212.438 37.9218 214.535C38.5895 215.602 39.4272 216.552 40.4016 217.349C41.4348 218.224 42.5227 218.753 42.6321 220.272C42.7051 221.378 42.3586 222.478 42.3708 223.591C42.4145 224.503 42.6543 225.396 43.0738 226.208C43.4933 227.019 44.0827 227.731 44.8019 228.295C46.2544 229.411 47.9638 230.145 49.7735 230.428C51.1046 230.683 52.6362 230.884 53.3716 232.021C53.6787 232.642 53.884 233.309 53.9793 233.996C54.2984 235.095 54.8476 236.114 55.5906 236.985C56.3335 237.856 57.2532 238.558 58.2885 239.047C60.3776 240.006 62.6939 240.36 64.9741 240.068C66.9383 239.933 68.8214 239.232 70.3954 238.05C72.9967 235.923 71.5016 231.905 69.7877 229.669C69.0401 228.684 68.1163 227.845 67.4295 226.818C66.0559 224.782 66.2808 223.019 66.4084 220.692C66.4553 220.248 66.4655 219.8 66.4388 219.354Z" fill="#455A64"/>
<path d="M68.4688 234.33C68.4099 234.342 68.3488 234.334 68.2942 234.309C68.2397 234.284 68.1944 234.243 68.1649 234.19C58.8598 217.44 43.9328 212.76 43.7808 212.711C43.708 212.689 43.6468 212.639 43.6105 212.572C43.5741 212.505 43.5655 212.426 43.5863 212.353C43.6101 212.28 43.6614 212.218 43.7294 212.182C43.7974 212.146 43.8769 212.137 43.951 212.158C44.1029 212.207 59.2488 216.96 68.6694 233.911C68.6877 233.944 68.6995 233.98 68.7039 234.017C68.7083 234.054 68.7054 234.092 68.6952 234.128C68.6851 234.164 68.6679 234.198 68.6447 234.227C68.6215 234.257 68.5927 234.281 68.56 234.3C68.5328 234.318 68.5014 234.328 68.4688 234.33V234.33Z" fill="white"/>
<path d="M59.5956 222.813H59.5287C55.4384 222.643 49.2512 224.284 49.1965 224.302C49.1598 224.313 49.1212 224.316 49.0832 224.311C49.0451 224.307 49.0084 224.294 48.9754 224.275C48.9423 224.256 48.9136 224.23 48.891 224.199C48.8684 224.168 48.8524 224.133 48.844 224.095C48.8339 224.059 48.831 224.021 48.8356 223.983C48.8403 223.946 48.8522 223.91 48.8709 223.877C48.8895 223.844 48.9145 223.816 48.9443 223.792C48.9741 223.769 49.0082 223.752 49.0446 223.743C49.2998 223.676 55.3837 222.059 59.5591 222.235C59.6349 222.23 59.7098 222.254 59.7674 222.304C59.8249 222.354 59.8604 222.424 59.8661 222.5C59.8717 222.575 59.847 222.65 59.7974 222.708C59.7479 222.766 59.6774 222.801 59.6017 222.807L59.5956 222.813Z" fill="white"/>
<path d="M56.6113 220.035C56.536 220.042 56.4608 220.021 56.401 219.974C56.3412 219.928 56.3012 219.861 56.2892 219.786C56.0516 217.718 56.1069 215.627 56.4533 213.575C56.468 213.5 56.5114 213.435 56.574 213.393C56.6367 213.351 56.7134 213.335 56.7876 213.35C56.8248 213.356 56.8603 213.37 56.8921 213.391C56.9239 213.411 56.9514 213.437 56.9728 213.469C56.9943 213.5 57.0094 213.535 57.0173 213.572C57.0251 213.609 57.0255 213.647 57.0185 213.684C56.6893 215.677 56.6382 217.706 56.8666 219.713C56.8751 219.79 56.8531 219.866 56.8053 219.927C56.7575 219.987 56.6878 220.026 56.6113 220.035V220.035Z" fill="white"/>
<path opacity="0.3" d="M306.554 102.296L194.17 37.416C192.48 36.4436 191.131 37.2337 191.131 39.1846V128.188C191.186 129.248 191.49 130.281 192.018 131.203C192.546 132.125 193.283 132.909 194.17 133.494L306.554 198.374C308.244 199.346 309.593 198.556 309.593 196.605V107.602C309.538 106.542 309.234 105.509 308.706 104.587C308.178 103.665 307.441 102.881 306.554 102.296V102.296Z" fill="#AD667E"/>
<path opacity="0.5" d="M306.554 102.296L194.17 37.416C192.48 36.4436 191.131 37.2337 191.131 39.1846V128.188C191.186 129.248 191.49 130.281 192.018 131.203C192.546 132.125 193.283 132.909 194.17 133.494L306.554 198.374C308.244 199.346 309.593 198.556 309.593 196.605V107.602C309.538 106.542 309.234 105.509 308.706 104.587C308.178 103.665 307.441 102.881 306.554 102.296V102.296Z" fill="white"/>
<path opacity="0.3" d="M307.15 181.618V170.216L299.741 165.961V174.519L297.291 173.072V158.814L292.35 155.963V161.664L289.883 160.236V171.638L284.929 168.818V160.236L282.462 158.814V155.963L279.988 154.535V151.684L277.52 150.262V153.113L275.053 151.684V154.535L272.585 153.113V155.963L267.644 153.113V144.561L260.241 140.307V154.535L257.786 153.113V144.561L252.845 141.705V150.262L250.377 148.834V145.983L245.442 143.133V137.432L240.501 134.582V137.432L238.021 135.998V144.567L235.553 143.139V131.743L233.086 130.315V127.464L230.612 126.042V123.192L228.144 121.764V124.614L225.677 123.192V126.042L223.209 124.614V138.854L220.742 137.432V131.743L213.418 127.489V130.388L208.392 127.489V121.788L205.918 120.366V117.515L203.45 116.087V113.236L200.983 111.814V114.659L198.515 113.236V116.087L196.048 114.659V120.366L191.106 117.509V128.224C191.162 129.285 191.466 130.318 191.993 131.239C192.521 132.161 193.258 132.946 194.145 133.53L306.554 198.374C308.244 199.346 309.593 198.556 309.593 196.605V183.046L307.15 181.618Z" fill="#AD667E"/>
<g opacity="0.3">
<path opacity="0.3" d="M192.802 37.6123C193.179 37.6311 193.546 37.7461 193.866 37.9465L306.25 102.821C307.047 103.352 307.711 104.06 308.189 104.89C308.668 105.719 308.949 106.648 309.009 107.604V196.607C309.009 197.081 308.9 198.181 307.921 198.181C307.544 198.162 307.178 198.047 306.858 197.847L194.474 132.961C193.675 132.431 193.011 131.723 192.532 130.893C192.053 130.063 191.773 129.134 191.714 128.177V39.1864C191.714 38.7123 191.824 37.6123 192.802 37.6123ZM192.802 37.0045C191.799 37.0045 191.106 37.8007 191.106 39.1864V128.189C191.162 129.25 191.466 130.283 191.993 131.205C192.521 132.126 193.258 132.911 194.145 133.495L306.554 198.376C306.967 198.629 307.438 198.771 307.921 198.789C308.924 198.789 309.617 197.993 309.617 196.607V107.604C309.562 106.543 309.258 105.511 308.73 104.589C308.202 103.667 307.465 102.883 306.578 102.298L194.17 37.4178C193.757 37.1644 193.286 37.022 192.802 37.0045Z" fill="#AD667E"/>
</g>
<path opacity="0.5" d="M223.531 83.4552L272.257 111.589C275.168 113.267 277.52 117.345 277.52 120.706V134.205C277.52 137.56 275.168 138.921 272.257 137.244L223.531 109.11C220.626 107.432 218.268 103.354 218.268 99.9929V86.4941C218.28 83.121 220.626 81.7778 223.531 83.4552Z" fill="white"/>
<g opacity="0.5">
<path opacity="0.5" d="M274.609 138.271C273.722 138.239 272.858 137.975 272.105 137.505L223.38 109.377C220.395 107.651 217.964 103.445 217.964 99.9929V86.4941C217.964 84.7559 218.572 83.4552 219.66 82.8474C220.748 82.2397 222.182 82.3491 223.684 83.2182L272.409 111.346C275.399 113.072 277.824 117.278 277.824 120.73V134.229C277.824 135.967 277.217 137.268 276.135 137.876C275.67 138.139 275.144 138.276 274.609 138.271V138.271ZM221.186 83.0359C220.759 83.0297 220.339 83.1389 219.97 83.3519C219.077 83.8685 218.578 84.9808 218.578 86.4941V99.9929C218.578 103.251 220.87 107.219 223.69 108.848L272.415 136.982C273.722 137.736 274.938 137.864 275.837 137.347C276.737 136.83 277.223 135.712 277.223 134.205V120.706C277.223 117.448 274.931 113.479 272.111 111.851L223.38 83.7287C222.721 83.3107 221.965 83.0718 221.186 83.0359V83.0359Z" fill="#AD667E"/>
</g>
<g opacity="0.5">
<path opacity="0.5" d="M231.293 94.5107C231.794 94.8067 232.247 95.1777 232.636 95.6108C233.034 96.0546 233.386 96.5371 233.687 97.0512C233.972 97.5336 234.204 98.045 234.38 98.5767C234.533 99.0052 234.623 99.4535 234.648 99.9078C234.652 99.9488 234.647 99.9902 234.633 100.029C234.62 100.068 234.598 100.103 234.569 100.133C234.546 100.153 234.517 100.165 234.487 100.165C234.456 100.165 234.427 100.153 234.405 100.133L232.909 99.2757C232.814 99.2157 232.728 99.1419 232.654 99.0569C232.581 98.9515 232.514 98.8419 232.454 98.7287C232.454 98.6801 232.399 98.601 232.35 98.4916C232.289 98.3608 232.218 98.2348 232.138 98.1148C232.036 97.964 231.922 97.8218 231.797 97.6894C231.649 97.5361 231.479 97.4051 231.293 97.3004C231.16 97.2256 231.022 97.1606 230.879 97.1059C230.767 97.0618 230.647 97.0411 230.527 97.0451C230.478 97.0471 230.43 97.0594 230.386 97.0815C230.342 97.1035 230.303 97.1346 230.272 97.1728C230.198 97.286 230.163 97.4208 230.174 97.5557C230.175 97.7277 230.213 97.8975 230.284 98.0541C230.38 98.2485 230.503 98.4285 230.648 98.5889C230.861 98.8294 231.089 99.0568 231.329 99.2696L232.375 100.212C232.771 100.563 233.139 100.945 233.475 101.354C233.781 101.729 234.044 102.136 234.259 102.57C234.467 102.991 234.624 103.436 234.727 103.895C234.833 104.394 234.884 104.904 234.879 105.414C234.899 105.91 234.809 106.404 234.617 106.861C234.47 107.197 234.21 107.472 233.882 107.639C233.531 107.794 233.139 107.834 232.764 107.754C232.267 107.655 231.792 107.47 231.36 107.207C230.834 106.903 230.356 106.522 229.943 106.077C229.526 105.626 229.157 105.133 228.843 104.606C228.545 104.105 228.303 103.573 228.12 103.02C227.955 102.546 227.863 102.05 227.847 101.549C227.843 101.507 227.847 101.466 227.86 101.426C227.872 101.386 227.893 101.349 227.92 101.318C227.942 101.297 227.971 101.286 228.002 101.286C228.032 101.286 228.061 101.297 228.084 101.318L229.579 102.181C229.675 102.232 229.76 102.302 229.828 102.388C229.898 102.476 229.959 102.572 230.01 102.673L230.15 102.983C230.221 103.142 230.302 103.297 230.393 103.445C230.504 103.631 230.634 103.804 230.782 103.962C230.95 104.142 231.145 104.296 231.36 104.417C231.664 104.615 232.009 104.744 232.368 104.794C232.636 104.819 232.77 104.655 232.77 104.302C232.768 104.118 232.718 103.938 232.624 103.779C232.5 103.56 232.351 103.356 232.18 103.172C231.98 102.959 231.73 102.716 231.42 102.442C231.11 102.169 230.752 101.834 230.332 101.464C229.601 100.83 229.014 100.047 228.612 99.1663C228.24 98.3076 228.056 97.3792 228.072 96.4434C228.062 95.996 228.136 95.5507 228.29 95.1306C228.414 94.7915 228.639 94.4987 228.935 94.2919C229.238 94.0987 229.598 94.0131 229.956 94.0488C230.43 94.101 230.887 94.2588 231.293 94.5107V94.5107Z" fill="#AD667E"/>
<path opacity="0.5" d="M242.646 101.245C242.744 101.307 242.82 101.399 242.865 101.506C242.923 101.628 242.954 101.76 242.956 101.895V103.785C242.96 103.836 242.955 103.887 242.939 103.935C242.923 103.983 242.898 104.027 242.865 104.065C242.834 104.092 242.795 104.107 242.755 104.107C242.715 104.107 242.676 104.092 242.646 104.065L240.64 102.904V111.905C240.645 111.957 240.639 112.008 240.624 112.057C240.608 112.107 240.583 112.152 240.549 112.191C240.518 112.217 240.48 112.231 240.439 112.231C240.399 112.231 240.361 112.217 240.33 112.191L238.841 111.328C238.743 111.265 238.667 111.174 238.622 111.067C238.564 110.945 238.533 110.812 238.531 110.678V101.676L236.525 100.516C236.427 100.453 236.351 100.362 236.307 100.254C236.248 100.133 236.217 100 236.215 99.8653V98.0055C236.211 97.9551 236.216 97.9043 236.232 97.8562C236.248 97.8082 236.273 97.7638 236.307 97.7259C236.337 97.699 236.376 97.6841 236.416 97.6841C236.456 97.6841 236.495 97.699 236.525 97.7259L242.646 101.245Z" fill="#AD667E"/>
<path opacity="0.5" d="M248.256 104.478C248.409 104.572 248.53 104.709 248.602 104.873C248.674 105.027 248.729 105.188 248.766 105.353L251.252 117.849C251.276 117.943 251.29 118.039 251.295 118.135C251.298 118.176 251.294 118.218 251.281 118.258C251.269 118.297 251.249 118.334 251.222 118.366C251.197 118.387 251.166 118.399 251.134 118.399C251.101 118.399 251.07 118.387 251.046 118.366L249.611 117.533C249.47 117.461 249.356 117.343 249.289 117.199C249.229 117.087 249.188 116.966 249.168 116.84L248.845 115.199L245.807 113.449L245.491 114.719C245.474 114.805 245.431 114.883 245.369 114.944C245.308 115.005 245.199 114.993 245.047 114.902L243.619 114.118C243.537 114.065 243.473 113.989 243.436 113.899C243.389 113.802 243.364 113.696 243.363 113.589C243.368 113.508 243.385 113.428 243.412 113.352L245.898 103.731C245.924 103.62 245.981 103.519 246.062 103.439C246.141 103.354 246.256 103.36 246.408 103.439L248.256 104.478ZM246.433 111.085L248.256 112.148L247.332 107.432L246.433 111.085Z" fill="#AD667E"/>
<path opacity="0.5" d="M256.473 109.255C256.961 109.539 257.413 109.882 257.816 110.276C258.211 110.668 258.551 111.112 258.825 111.595C259.111 112.104 259.326 112.65 259.463 113.218C259.618 113.844 259.694 114.488 259.688 115.133C259.724 115.811 259.604 116.489 259.336 117.114C259.244 117.312 259.104 117.483 258.929 117.613C258.754 117.742 258.549 117.826 258.333 117.855L259.743 122.851C259.765 122.92 259.778 122.992 259.779 123.064C259.784 123.105 259.779 123.146 259.767 123.184C259.754 123.223 259.734 123.259 259.706 123.289C259.681 123.311 259.649 123.323 259.615 123.323C259.582 123.323 259.549 123.311 259.524 123.289L257.974 122.396C257.832 122.318 257.719 122.197 257.652 122.049C257.59 121.92 257.54 121.786 257.5 121.648L256.236 117.157L255.185 116.549V120.305C255.189 120.355 255.184 120.406 255.168 120.454C255.152 120.502 255.127 120.546 255.093 120.584C255.063 120.611 255.024 120.626 254.984 120.626C254.944 120.626 254.905 120.611 254.875 120.584L253.386 119.721C253.288 119.655 253.212 119.562 253.167 119.454C253.108 119.335 253.077 119.204 253.076 119.071V107.736C253.071 107.686 253.077 107.635 253.093 107.587C253.108 107.539 253.134 107.494 253.167 107.456C253.197 107.431 253.236 107.417 253.276 107.417C253.316 107.417 253.355 107.431 253.386 107.456L256.473 109.255ZM255.185 113.832L256.473 114.573C256.586 114.655 256.714 114.713 256.85 114.744C256.986 114.774 257.126 114.776 257.263 114.75C257.476 114.683 257.579 114.403 257.579 113.911C257.602 113.483 257.491 113.058 257.263 112.695C257.061 112.392 256.79 112.14 256.473 111.96L255.185 111.212V113.832Z" fill="#AD667E"/>
<path opacity="0.5" d="M267.644 115.674C267.739 115.741 267.813 115.833 267.857 115.941C267.917 116.06 267.95 116.191 267.954 116.324V118.19C267.957 118.241 267.95 118.291 267.934 118.34C267.917 118.388 267.891 118.432 267.857 118.469C267.827 118.495 267.789 118.508 267.75 118.508C267.711 118.508 267.673 118.495 267.644 118.469L265.638 117.315V126.316C265.642 126.366 265.637 126.417 265.621 126.465C265.605 126.513 265.58 126.557 265.547 126.595C265.517 126.622 265.478 126.637 265.438 126.637C265.397 126.637 265.358 126.622 265.328 126.595L263.863 125.763C263.768 125.696 263.695 125.603 263.651 125.495C263.592 125.376 263.561 125.245 263.559 125.112V116.105L261.554 114.95C261.457 114.884 261.381 114.791 261.335 114.683C261.276 114.564 261.245 114.433 261.244 114.3V112.44C261.239 112.389 261.245 112.337 261.26 112.288C261.276 112.239 261.301 112.194 261.335 112.155C261.366 112.129 261.404 112.115 261.444 112.115C261.484 112.115 261.523 112.129 261.554 112.155L267.644 115.674Z" fill="#AD667E"/>
</g>
<path opacity="0.3" d="M202.223 47.4626C203.3 48.1668 204.197 49.1147 204.84 50.2297C205.483 51.3448 205.854 52.5955 205.924 53.8807C205.924 56.2389 204.265 57.1992 202.223 56.014C201.144 55.3126 200.247 54.3661 199.603 53.2518C198.96 52.1375 198.589 50.8869 198.521 49.602C198.521 47.262 200.175 46.2835 202.223 47.4626Z" fill="#AD667E"/>
<path d="M204.362 52.2823C204.362 51.8639 204.275 51.45 204.107 51.0667V51.0667C203.955 50.6629 203.684 50.3151 203.329 50.07C202.794 49.7539 202.35 50.3921 202.277 51.1458C202.217 50.3131 201.779 49.1583 201.244 48.8423C201.125 48.7602 200.981 48.723 200.838 48.7375C200.694 48.752 200.56 48.8171 200.46 48.9213V48.9213C200.267 49.1844 200.172 49.5071 200.193 49.8329C200.193 51.1093 200.952 52.2641 201.591 53.4796L202.271 54.756L202.952 54.2758C203.59 53.8078 204.362 53.5586 204.362 52.2823Z" fill="#FAFAFA"/>
<path opacity="0.3" d="M213.333 53.8807C214.416 54.5799 215.319 55.5251 215.967 56.6394C216.616 57.7537 216.992 59.0056 217.064 60.2928C217.064 62.6571 215.405 63.6113 213.363 62.4322C212.285 61.7287 211.388 60.7809 210.745 59.6658C210.102 58.5506 209.73 57.2995 209.662 56.014C209.631 53.6559 211.284 52.6956 213.333 53.8807Z" fill="#AD667E"/>
<path d="M215.424 58.7126C215.418 58.2941 215.329 57.881 215.162 57.497V57.497C215.009 57.0907 214.736 56.7409 214.378 56.4942C213.85 56.1842 213.4 56.8224 213.333 57.576C213.266 56.7434 212.829 55.5825 212.3 55.2726C212.181 55.1888 212.035 55.1507 211.89 55.1652C211.745 55.1797 211.61 55.2458 211.51 55.3516V55.3516C211.315 55.6142 211.221 55.9373 211.242 56.2632C211.242 57.5396 212.002 58.6943 212.64 59.9099L213.315 61.1862L214.026 60.6939C214.634 60.2381 215.418 59.9828 215.424 58.7126Z" fill="#FAFAFA"/>
<path opacity="0.3" d="M224.443 60.2928C225.52 60.9966 226.417 61.9445 227.06 63.0595C227.703 64.1746 228.075 65.4256 228.144 66.7109C228.144 69.0752 226.485 70.0294 224.443 68.8503C223.362 68.153 222.461 67.2106 221.812 66.0997C221.164 64.9887 220.786 63.7405 220.711 62.4565C220.711 60.0679 222.394 59.1137 224.443 60.2928Z" fill="#AD667E"/>
<path d="M226.534 65.1246C226.529 64.706 226.44 64.2927 226.272 63.9091V63.9091C226.117 63.5058 225.844 63.1585 225.488 62.9123C224.953 62.5963 224.51 63.2344 224.443 63.9881C224.376 63.1554 223.938 62.0007 223.404 61.6846C223.285 61.6025 223.141 61.5654 222.997 61.5798C222.853 61.5943 222.72 61.6595 222.62 61.7636C222.424 62.0259 222.327 62.3487 222.346 62.6753C222.346 63.9516 223.106 65.1064 223.75 66.322L224.425 67.5983L225.105 67.1182C225.756 66.6502 226.528 66.401 226.534 65.1246Z" fill="#FAFAFA"/>
<path d="M235.298 67.4099L287.093 97.3126C287.843 97.7833 288.473 98.4242 288.93 99.1834C289.387 99.9425 289.659 100.799 289.724 101.682C289.724 103.257 288.545 103.852 287.093 103.014L235.298 73.1108C234.547 72.6401 233.917 71.9992 233.46 71.24C233.003 70.4808 232.731 69.6247 232.666 68.7409C232.684 67.1667 233.863 66.5711 235.298 67.4099Z" fill="#FAFAFA"/>
<path opacity="0.5" d="M234.143 69.5736C234.175 70.0157 234.31 70.4441 234.538 70.8242C234.767 71.2042 235.081 71.5254 235.456 71.7616L287.488 101.841C288.211 102.26 288.801 101.962 288.801 101.172C288.768 100.731 288.632 100.304 288.404 99.9248C288.176 99.5458 287.862 99.2257 287.488 98.9901L235.456 68.9111C234.733 68.4917 234.143 68.7895 234.143 69.5736Z" fill="#AD667E"/>
<g opacity="0.3">
<path opacity="0.3" d="M292.429 102.138C292.415 102.078 292.415 102.016 292.429 101.956C292.428 101.933 292.433 101.91 292.443 101.89C292.454 101.87 292.47 101.852 292.49 101.84L293.663 101.129L293.772 101.069C293.795 101.057 293.82 101.052 293.845 101.052C293.87 101.052 293.895 101.057 293.918 101.069L294.58 101.452C294.628 101.481 294.665 101.526 294.684 101.579C294.713 101.638 294.73 101.702 294.732 101.768V107.207C294.734 107.232 294.731 107.256 294.723 107.279C294.714 107.302 294.701 107.323 294.684 107.341C294.684 107.371 294.623 107.371 294.58 107.341L293.863 106.928C293.817 106.896 293.781 106.852 293.76 106.8C293.734 106.742 293.72 106.681 293.717 106.618V102.934L293.067 103.317C293.039 103.342 293.002 103.342 292.958 103.317C292.913 103.281 292.879 103.233 292.86 103.178L292.429 102.138Z" fill="#AD667E"/>
<path opacity="0.3" d="M297.376 103.007C297.647 103.165 297.886 103.371 298.081 103.615C298.28 103.851 298.446 104.113 298.574 104.393C298.703 104.682 298.8 104.983 298.865 105.293C298.925 105.601 298.962 105.914 298.975 106.229C298.975 106.472 298.975 106.727 298.975 106.994C298.975 107.262 298.975 107.499 298.975 107.73C298.966 108 298.929 108.269 298.865 108.532C298.816 108.742 298.716 108.936 298.574 109.097C298.444 109.23 298.267 109.306 298.081 109.31C297.83 109.3 297.587 109.223 297.376 109.085C297.107 108.926 296.868 108.72 296.671 108.477C296.476 108.24 296.313 107.979 296.185 107.7C296.051 107.413 295.953 107.111 295.893 106.8C295.828 106.492 295.79 106.179 295.778 105.864C295.778 105.633 295.778 105.384 295.778 105.116C295.778 104.849 295.778 104.6 295.778 104.363C295.786 104.092 295.824 103.823 295.893 103.561C295.939 103.35 296.039 103.154 296.185 102.995C296.313 102.864 296.488 102.787 296.671 102.783C296.923 102.788 297.168 102.866 297.376 103.007V103.007ZM297.984 107.086C297.984 106.612 297.984 106.144 297.984 105.67C297.984 105.524 297.984 105.384 297.948 105.256C297.925 105.132 297.893 105.01 297.85 104.892C297.807 104.782 297.748 104.68 297.674 104.588C297.598 104.493 297.505 104.413 297.401 104.351C297.32 104.296 297.224 104.268 297.127 104.272C297.092 104.275 297.058 104.286 297.028 104.304C296.997 104.322 296.971 104.346 296.951 104.375C296.903 104.451 296.871 104.536 296.854 104.624C296.834 104.745 296.822 104.867 296.817 104.989C296.817 105.445 296.817 105.919 296.817 106.405C296.819 106.541 296.832 106.677 296.854 106.812C296.869 106.938 296.901 107.06 296.951 107.177C296.993 107.289 297.052 107.394 297.127 107.487C297.204 107.581 297.296 107.661 297.401 107.724C297.481 107.779 297.577 107.806 297.674 107.803C297.709 107.8 297.743 107.789 297.774 107.771C297.804 107.753 297.831 107.729 297.85 107.7C297.903 107.625 297.938 107.54 297.954 107.45C297.966 107.329 297.968 107.207 297.96 107.086H297.984Z" fill="#AD667E"/>
<path opacity="0.3" d="M302.986 108.222C302.987 108.373 302.975 108.523 302.949 108.672C302.931 108.802 302.894 108.929 302.84 109.049C302.787 109.162 302.718 109.267 302.633 109.359C302.541 109.454 302.434 109.534 302.317 109.596L301.552 110.046L302.925 110.842C302.971 110.873 303.007 110.918 303.028 110.969C303.057 111.026 303.071 111.088 303.071 111.152V112.045C303.074 112.069 303.071 112.094 303.064 112.117C303.057 112.14 303.045 112.161 303.028 112.179C303.022 112.186 303.014 112.191 303.005 112.195C302.996 112.198 302.986 112.2 302.977 112.2C302.967 112.2 302.958 112.198 302.949 112.195C302.94 112.191 302.932 112.186 302.925 112.179L300.038 110.514C299.99 110.484 299.954 110.439 299.935 110.386C299.905 110.33 299.888 110.267 299.886 110.204V109.474C299.886 109.39 299.898 109.306 299.923 109.225C299.931 109.193 299.947 109.163 299.968 109.136C299.989 109.11 300.015 109.089 300.044 109.073L301.679 108.216C301.791 108.164 301.878 108.07 301.922 107.955C301.954 107.85 301.97 107.742 301.971 107.633C301.971 107.59 301.971 107.535 301.971 107.456C301.958 107.374 301.938 107.292 301.91 107.213C301.872 107.122 301.825 107.034 301.77 106.952C301.704 106.862 301.619 106.788 301.521 106.733C301.487 106.707 301.448 106.688 301.406 106.678C301.364 106.667 301.321 106.665 301.278 106.672C301.218 106.684 301.165 106.716 301.126 106.764C301.092 106.813 301.067 106.869 301.053 106.928C301.053 106.988 301.023 107.031 301.017 107.061C301.011 107.092 300.968 107.165 300.932 107.171C300.884 107.169 300.838 107.154 300.798 107.128L300.123 106.745C300.086 106.717 300.057 106.679 300.038 106.636C300.015 106.591 300.002 106.541 300.002 106.49C300.005 106.27 300.037 106.051 300.099 105.84C300.154 105.661 300.252 105.498 300.385 105.366C300.512 105.247 300.679 105.18 300.853 105.177C301.091 105.181 301.322 105.253 301.521 105.384C301.762 105.526 301.978 105.706 302.159 105.919C302.34 106.133 302.495 106.367 302.621 106.618C302.741 106.873 302.835 107.14 302.901 107.414C302.958 107.679 302.987 107.95 302.986 108.222Z" fill="#AD667E"/>
<path opacity="0.3" d="M304.925 111.589L305.01 111.802C305.041 111.879 305.08 111.952 305.126 112.021C305.169 112.098 305.222 112.17 305.284 112.234C305.345 112.305 305.419 112.365 305.502 112.41C305.567 112.455 305.643 112.482 305.721 112.489C305.78 112.51 305.845 112.51 305.904 112.489C305.963 112.455 306.008 112.401 306.031 112.337C306.069 112.245 306.086 112.145 306.08 112.045C306.08 111.851 306.029 111.661 305.934 111.492C305.843 111.322 305.706 111.181 305.539 111.085C305.495 111.056 305.445 111.037 305.393 111.03H305.265H305.162C305.135 111.04 305.104 111.04 305.077 111.03L304.226 110.538C304.179 110.503 304.141 110.457 304.117 110.404C304.087 110.348 304.075 110.285 304.08 110.222L304.244 107.311C304.242 107.262 304.257 107.215 304.287 107.177C304.294 107.17 304.302 107.165 304.311 107.161C304.319 107.157 304.329 107.155 304.338 107.155C304.348 107.155 304.358 107.157 304.366 107.161C304.375 107.165 304.383 107.17 304.39 107.177L306.73 108.526C306.777 108.557 306.813 108.602 306.833 108.654C306.862 108.71 306.876 108.773 306.876 108.836V109.729C306.879 109.754 306.876 109.778 306.869 109.801C306.862 109.824 306.85 109.845 306.833 109.863C306.827 109.87 306.819 109.875 306.81 109.879C306.801 109.883 306.791 109.885 306.782 109.885C306.772 109.885 306.763 109.883 306.754 109.879C306.745 109.875 306.737 109.87 306.73 109.863L305.138 108.939L305.101 109.669C305.175 109.653 305.252 109.653 305.326 109.669C305.427 109.687 305.524 109.724 305.612 109.778C305.838 109.904 306.043 110.064 306.22 110.252C306.404 110.45 306.564 110.671 306.694 110.909C306.83 111.162 306.934 111.431 307.004 111.711C307.08 112.011 307.119 112.319 307.119 112.629C307.128 112.908 307.085 113.186 306.991 113.449C306.932 113.635 306.812 113.795 306.651 113.905C306.503 114.004 306.323 114.043 306.147 114.014C305.931 113.981 305.724 113.904 305.539 113.789C305.292 113.646 305.067 113.468 304.87 113.261C304.678 113.053 304.513 112.822 304.378 112.574C304.247 112.337 304.143 112.086 304.068 111.826C303.996 111.588 303.958 111.34 303.953 111.091C303.95 111.05 303.961 111.01 303.983 110.975C303.996 110.966 304.012 110.961 304.029 110.961C304.045 110.961 304.061 110.966 304.074 110.975L304.767 111.377C304.822 111.41 304.867 111.456 304.901 111.51C304.91 111.536 304.918 111.563 304.925 111.589V111.589Z" fill="#AD667E"/>
</g>
<path d="M174.976 235.436C174.927 235.333 171.59 229.541 171.59 229.541C171.59 229.541 172.308 229.966 175.662 228.076C176.916 227.312 178.085 226.417 179.151 225.408L181.376 229.693C182.792 231.2 185.764 229.559 189.149 228.252C189.714 228.034 190.292 227.778 190.869 227.517H190.906C192.759 226.909 194.947 227.553 193.41 229.675C191.872 231.796 188.803 233.242 185.964 234.537C182.549 236.129 176.544 238.822 174.976 235.436Z" fill="#B16668"/>
<path d="M199.871 228.344C200.282 228.873 200.544 229.502 200.63 230.167C200.74 230.878 199.64 233.686 196.984 235.916C194.328 238.147 190.596 239.229 188.973 240.171C187.35 241.113 186.001 242.566 184.062 243.611C182.123 244.656 180.148 245.434 177.717 244.632C177.182 244.14 176.398 242.894 176.501 242.73C176.726 242.359 199.871 228.344 199.871 228.344Z" fill="#263238"/>
<path d="M182.081 230.161C183.655 230.732 186.25 229.371 189.149 228.252C191.878 227.195 194.789 225.378 196.88 225.542C198.971 225.706 201.135 227.541 199.311 231.103C198.776 232.136 197.579 234.02 196.43 234.804C193.519 236.792 190.656 237.636 188.724 238.688C186.208 240.055 185.047 241.63 182.646 242.572C179.522 243.787 177.267 243.489 176.489 242.778C175.711 242.067 173.377 235.26 174.793 235.047C174.793 235.047 175.96 237.138 180.652 233.583C182.701 232.027 182.3 230.641 182.081 230.161Z" fill="#AD667E"/>
<path opacity="0.4" d="M182.081 230.161C183.655 230.732 186.25 229.371 189.149 228.252C191.878 227.195 194.789 225.378 196.88 225.542C198.971 225.706 201.135 227.541 199.311 231.103C198.776 232.136 197.579 234.02 196.43 234.804C193.519 236.792 190.656 237.636 188.724 238.688C186.208 240.055 185.047 241.63 182.646 242.572C179.522 243.787 177.267 243.489 176.489 242.778C175.711 242.067 173.377 235.26 174.793 235.047C174.793 235.047 175.96 237.138 180.652 233.583C182.701 232.027 182.3 230.641 182.081 230.161Z" fill="black"/>
<path d="M191.981 231.547C191.981 231.547 190.912 228.702 188.547 228.508C188.33 228.469 188.107 228.493 187.903 228.576C187.698 228.658 187.522 228.797 187.393 228.976C187.393 228.976 189.477 228.745 191.039 232.015C191.039 232.015 191.203 232.209 191.617 232.015C191.756 231.929 192.06 231.784 191.981 231.547Z" fill="#FAFAFA"/>
<path d="M185.612 229.668C185.612 229.668 185.582 229.571 186.068 229.34C186.255 229.243 186.469 229.212 186.676 229.255C186.676 229.255 188.499 229.529 189.575 232.513C189.592 232.641 189.565 232.772 189.497 232.882C189.43 232.993 189.326 233.077 189.204 233.121C189.152 233.156 189.093 233.18 189.03 233.191C188.968 233.203 188.905 233.201 188.843 233.187C188.782 233.173 188.724 233.146 188.673 233.108C188.622 233.071 188.579 233.023 188.548 232.969C188.548 232.969 187.375 229.833 185.612 229.668Z" fill="#FAFAFA"/>
<path d="M183.892 230.203C183.892 230.203 183.934 229.991 184.317 229.899C184.797 229.772 184.955 229.899 184.955 229.899C184.955 229.899 186.414 230.775 187.095 233.333C187.095 233.333 187.253 233.753 186.663 233.941C186.074 234.13 186.055 233.631 186.055 233.631C186.055 233.631 184.967 230.453 183.892 230.203Z" fill="#FAFAFA"/>
<path d="M161.671 193.615C166.382 200.854 180.513 226.307 180.513 226.307C180.513 226.307 177.03 231.583 171.602 231.012L150.938 200.112L161.671 193.615Z" fill="#37474F"/>
<path d="M194.753 246.054C194.048 245.355 190.869 240.147 190.869 240.147C190.869 240.147 193.252 240.937 196.752 239.326C198.533 238.506 199.87 236.123 199.87 236.123L202.526 241.21C203.821 242.827 206.702 241.623 210.178 240.602C210.786 240.432 211.357 240.226 211.953 239.995H211.989C213.892 239.551 216.013 240.365 214.311 242.347C212.609 244.328 209.449 245.531 206.489 246.601C202.964 247.908 197.409 248.68 194.753 246.054Z" fill="#B16668"/>
<path d="M222.2 240.359C222.598 240.971 222.823 241.679 222.85 242.408C222.911 243.179 221.489 246.085 218.444 248.242C215.399 250.4 211.321 251.226 209.497 252.12C207.674 253.013 206.112 254.423 203.942 255.371C201.772 256.32 199.59 257.006 197.056 255.906C196.527 255.335 195.804 253.931 195.913 253.761C196.205 253.299 222.2 240.359 222.2 240.359Z" fill="#263238"/>
<path d="M203.025 240.694C203.27 240.801 203.522 240.894 203.778 240.973C204.034 241.019 204.295 241.019 204.55 240.973C205.166 240.921 205.776 240.815 206.373 240.657C207.85 240.28 209.291 239.758 210.756 239.326C213.794 238.433 217.046 236.743 219.264 237.102C221.483 237.46 223.871 239.533 221.598 243.216C220.727 244.636 219.616 245.894 218.316 246.935C215.174 249.057 211.564 249.506 209.4 250.461C206.592 251.707 205.213 253.287 202.544 254.107C199.098 255.134 196.71 254.618 195.938 253.785C195.506 253.323 195.33 250.497 194.443 248.443C193.689 246.68 193.537 245.404 194.218 245.355C194.408 245.565 194.625 245.749 194.862 245.902C195.13 246.115 195.438 246.272 195.768 246.364C196.228 246.475 196.699 246.534 197.172 246.54C198.013 246.625 198.863 246.572 199.688 246.382C199.92 246.333 200.132 246.214 200.296 246.042C200.472 245.773 200.549 245.45 200.514 245.13C200.514 244.851 200.514 244.565 200.514 244.286C200.506 244.131 200.527 243.977 200.575 243.83C200.658 243.666 200.779 243.524 200.928 243.416C201.403 243.082 201.791 242.638 202.058 242.122C202.202 241.692 202.25 241.235 202.198 240.785C202.189 240.706 202.206 240.627 202.247 240.56C202.332 240.463 202.49 240.499 202.611 240.56C202.733 240.621 202.885 240.633 203.025 240.694Z" fill="#AD667E"/>
<path opacity="0.4" d="M203.025 240.694C203.27 240.801 203.522 240.894 203.778 240.973C204.034 241.019 204.295 241.019 204.55 240.973C205.166 240.921 205.776 240.815 206.373 240.657C207.85 240.28 209.291 239.758 210.756 239.326C213.794 238.433 217.046 236.743 219.264 237.102C221.483 237.46 223.871 239.533 221.598 243.216C220.727 244.636 219.616 245.894 218.316 246.935C215.174 249.057 211.564 249.506 209.4 250.461C206.592 251.707 205.213 253.287 202.544 254.107C199.098 255.134 196.71 254.618 195.938 253.785C195.506 253.323 195.33 250.497 194.443 248.443C193.689 246.68 193.537 245.404 194.218 245.355C194.408 245.565 194.625 245.749 194.862 245.902C195.13 246.115 195.438 246.272 195.768 246.364C196.228 246.475 196.699 246.534 197.172 246.54C198.013 246.625 198.863 246.572 199.688 246.382C199.92 246.333 200.132 246.214 200.296 246.042C200.472 245.773 200.549 245.45 200.514 245.13C200.514 244.851 200.514 244.565 200.514 244.286C200.506 244.131 200.527 243.977 200.575 243.83C200.658 243.666 200.779 243.524 200.928 243.416C201.403 243.082 201.791 242.638 202.058 242.122C202.202 241.692 202.25 241.235 202.198 240.785C202.189 240.706 202.206 240.627 202.247 240.56C202.332 240.463 202.49 240.499 202.611 240.56C202.733 240.621 202.885 240.633 203.025 240.694Z" fill="black"/>
<path d="M213.472 243.1C213.472 243.1 212.585 239.958 210.069 239.527C209.84 239.468 209.599 239.475 209.374 239.546C209.148 239.616 208.947 239.749 208.792 239.928C208.792 239.928 211.047 239.861 212.439 243.489C212.439 243.489 212.591 243.714 213.047 243.544C213.199 243.489 213.545 243.362 213.472 243.1Z" fill="#FAFAFA"/>
<path d="M206.823 240.536C206.823 240.536 206.823 240.432 207.34 240.232C207.549 240.143 207.783 240.128 208.002 240.189C208.002 240.189 209.899 240.639 210.816 243.927C210.821 244.064 210.779 244.199 210.697 244.309C210.616 244.42 210.499 244.499 210.367 244.535C210.307 244.567 210.241 244.587 210.174 244.594C210.106 244.6 210.038 244.593 209.974 244.573C209.909 244.552 209.849 244.519 209.798 244.475C209.746 244.431 209.704 244.377 209.674 244.316C209.674 244.316 208.695 240.858 206.823 240.536Z" fill="#FAFAFA"/>
<path d="M204.939 240.931C204.939 240.931 205.006 240.712 205.42 240.645C205.942 240.554 206.1 240.736 206.1 240.736C206.1 240.736 207.583 241.8 208.088 244.596C208.088 244.596 208.221 245.057 207.571 245.203C206.921 245.349 206.921 244.82 206.921 244.82C206.921 244.82 206.07 241.314 204.939 240.931Z" fill="#FAFAFA"/>
<path d="M184.433 204.014C187.836 210.055 196.284 228.143 200.642 237.12C198.452 239.792 195.336 241.541 191.914 242.019L169.05 210.578L175.857 204.847L184.433 204.014Z" fill="#455A64"/>
<path d="M106.521 197.797C106.521 197.797 134.127 189.464 138.928 188.151C143.73 186.838 152.53 185.076 155.223 186.285C157.915 187.495 159.435 189.616 161.076 192.205C162.777 194.891 164.03 197.341 164.03 197.341C164.03 197.341 145.954 202.282 135.014 202.282C124.074 202.282 106.521 197.797 106.521 197.797Z" fill="#37474F"/>
<path d="M108.455 186.942C106.723 192.855 104.468 203.394 112.436 211.089C115.541 214.091 133.355 223.639 144.295 220.284C156.518 216.534 171.111 209.308 171.111 209.308C171.111 209.308 178.489 209.739 180.89 208.354C183.29 206.968 184.749 204.677 184.433 204.014C180.622 196.113 177.45 192.004 169.202 192.831C159.113 193.84 142.302 196.903 142.302 196.903L108.455 186.942Z" fill="#455A64"/>
<path d="M149.522 144.118C144.295 139.541 136.959 141.626 132.881 145.594C126.633 151.672 122.926 159.391 124.299 163.22C125.898 167.602 149.522 144.118 149.522 144.118Z" fill="#455A64"/>
<path d="M211.272 170.89C211.382 170.131 210.768 169.267 209.528 168.635L195.063 161.239C192.848 160.257 190.359 160.085 188.031 160.752L174.806 165.311C173.651 165.712 173.019 166.271 172.982 166.818C172.952 167.219 172.739 168.775 172.727 169.219C172.715 169.663 173 169.991 173.614 170.301C175.097 171.06 178.422 171.31 181.035 170.86L184.39 170.289C187.004 169.839 190.322 170.088 191.799 170.836C192.695 171.271 193.413 172.003 193.829 172.908L193.051 175.601C192.866 176.09 192.866 176.63 193.051 177.12L192.808 177.971C192.51 178.986 192.413 180.049 194.941 181.168C195.736 181.566 196.619 181.757 197.508 181.722C198.396 181.687 199.261 181.427 200.022 180.967L210.275 174.282C210.472 174.172 210.641 174.021 210.771 173.838C210.902 173.655 210.99 173.445 211.029 173.224C211.078 172.829 211.218 171.279 211.272 170.89Z" fill="#455A64"/>
<path d="M194.497 174.719L194.546 167.705L190.182 166.563L189.787 170.258C190.482 170.353 191.159 170.548 191.799 170.836C192.695 171.271 193.412 172.003 193.829 172.908L193.513 173.996L194.497 174.719Z" fill="#263238"/>
<path d="M210.47 169.261C211.789 170.477 211.886 170.836 211.521 175.625C211.157 180.414 210.069 180.542 208.841 179.721C207.613 178.901 206.781 176.622 205.273 177.551L210.47 169.261Z" fill="#455A64"/>
<path d="M173.87 167.93C175.353 168.69 178.677 168.939 181.291 168.49L184.645 167.918C187.259 167.468 190.577 167.718 192.054 168.465C193.531 169.213 194.485 170.653 194.188 171.668L193.051 175.601C192.753 176.615 192.656 177.679 195.184 178.797C195.979 179.195 196.862 179.386 197.751 179.351C198.639 179.316 199.504 179.056 200.265 178.597L210.519 171.942C211.85 171.079 211.406 169.596 209.528 168.635L195.063 161.239C192.848 160.257 190.359 160.085 188.031 160.752L174.806 165.311C172.8 166.004 172.38 167.177 173.87 167.93Z" fill="#AD667E"/>
<path opacity="0.2" d="M173.87 167.93C175.353 168.69 178.677 168.939 181.291 168.49L184.645 167.918C187.259 167.468 190.577 167.718 192.054 168.465C193.531 169.213 194.485 170.653 194.188 171.668L193.051 175.601C192.753 176.615 192.656 177.679 195.184 178.797C195.979 179.195 196.862 179.386 197.751 179.351C198.639 179.316 199.504 179.056 200.265 178.597L210.519 171.942C211.85 171.079 211.406 169.596 209.528 168.635L195.063 161.239C192.848 160.257 190.359 160.085 188.031 160.752L174.806 165.311C172.8 166.004 172.38 167.177 173.87 167.93Z" fill="black"/>
<path d="M206.009 168.599C205.997 168.519 205.964 168.445 205.914 168.382C205.864 168.319 205.798 168.27 205.724 168.24C205.468 168.121 205.191 168.054 204.91 168.042C204.628 168.031 204.347 168.075 204.083 168.173C203.827 168.277 203.7 168.417 203.687 168.569C203.675 168.72 203.633 169.037 203.627 169.14C203.621 169.243 203.718 169.413 203.912 169.523C204.428 169.762 205.018 169.789 205.553 169.596C205.796 169.498 205.93 169.359 205.948 169.213C205.967 169.067 206.015 168.714 206.009 168.599Z" fill="#263238"/>
<path d="M202.514 170.033C202.505 169.951 202.473 169.872 202.423 169.806C202.373 169.739 202.305 169.688 202.228 169.656C201.973 169.537 201.696 169.47 201.414 169.458C201.133 169.447 200.851 169.491 200.587 169.59C200.344 169.687 200.21 169.827 200.198 169.966C200.186 170.106 200.137 170.459 200.131 170.574C200.141 170.657 200.172 170.736 200.222 170.802C200.273 170.868 200.34 170.92 200.417 170.951C200.933 171.191 201.523 171.217 202.058 171.024C202.301 170.927 202.435 170.787 202.453 170.647C202.471 170.507 202.514 170.149 202.514 170.033Z" fill="#37474F"/>
<path d="M202.727 168.483C202.727 168.35 202.636 168.21 202.442 168.101C201.926 167.861 201.336 167.835 200.801 168.028C200.557 168.125 200.424 168.265 200.406 168.41C200.387 168.556 200.357 168.891 200.345 168.988C200.333 169.085 200.43 169.267 200.63 169.383C200.886 169.502 201.162 169.57 201.444 169.581C201.726 169.593 202.007 169.548 202.271 169.45C202.521 169.353 202.654 169.207 202.666 169.061C202.679 168.915 202.721 168.587 202.727 168.483Z" fill="#263238"/>
<path d="M205.79 170.197C205.79 170.064 205.705 169.924 205.504 169.814C205.251 169.694 204.975 169.625 204.694 169.613C204.414 169.6 204.133 169.644 203.869 169.742C203.626 169.839 203.493 169.979 203.474 170.118C203.456 170.258 203.426 170.598 203.414 170.726C203.402 170.854 203.493 171.006 203.699 171.127C204.216 171.366 204.806 171.39 205.34 171.194C205.583 171.097 205.711 170.957 205.729 170.817C205.748 170.677 205.79 170.301 205.79 170.197Z" fill="#37474F"/>
<path d="M204.082 168.173C203.596 168.368 203.553 168.72 203.973 168.957C204.489 169.197 205.079 169.223 205.614 169.03C206.1 168.83 206.143 168.477 205.723 168.24C205.468 168.121 205.191 168.054 204.909 168.042C204.628 168.031 204.347 168.075 204.082 168.173V168.173Z" fill="#455A64"/>
<path d="M200.587 169.602C200.107 169.796 200.059 170.149 200.478 170.386C200.994 170.626 201.584 170.652 202.119 170.459C202.605 170.258 202.654 169.906 202.228 169.669C201.973 169.549 201.696 169.482 201.415 169.47C201.133 169.459 200.852 169.504 200.587 169.602V169.602Z" fill="#455A64"/>
<path d="M200.8 168.028C200.314 168.228 200.265 168.575 200.691 168.812C200.946 168.932 201.222 169 201.504 169.013C201.786 169.025 202.067 168.982 202.332 168.885C202.812 168.69 202.86 168.338 202.441 168.101C201.925 167.861 201.335 167.835 200.8 168.028V168.028Z" fill="#455A64"/>
<path d="M203.869 169.742C203.383 169.936 203.335 170.289 203.76 170.526C204.276 170.765 204.866 170.791 205.401 170.598C205.881 170.398 205.93 170.051 205.504 169.814C205.25 169.694 204.975 169.625 204.694 169.613C204.413 169.6 204.133 169.644 203.869 169.742V169.742Z" fill="#455A64"/>
<path d="M192.844 162.205L191.307 161.348L189.562 162.059L188.025 161.202L186.274 161.919L186.207 162.57L187.101 163.068L186.068 163.487L185.995 164.138L187.532 164.995L189.277 164.278L190.814 165.135L192.559 164.423L192.632 163.773L191.738 163.275L192.771 162.849L192.844 162.205Z" fill="#37474F"/>
<path d="M191.306 161.348L189.562 162.059L188.024 161.202L186.274 161.919L187.812 162.776L186.067 163.487L187.599 164.344L189.349 163.633L190.881 164.49L192.631 163.773L191.094 162.916L192.844 162.205L191.306 161.348Z" fill="#455A64"/>
<path d="M189.349 163.633L189.277 164.278L187.532 164.995L187.599 164.344L189.349 163.633Z" fill="#263238"/>
<path d="M191.094 162.916L191.738 163.275L192.771 162.849L192.844 162.205L191.094 162.916Z" fill="#263238"/>
<path d="M192.632 163.773L192.559 164.423L190.814 165.135L190.881 164.49L192.632 163.773Z" fill="#263238"/>
<path d="M187.812 162.776L186.274 161.919L186.201 162.6L187.101 163.068L187.812 162.776Z" fill="#263238"/>
<path d="M174.672 160.813C178.318 159.987 180.488 160.625 183.594 160.497C184.597 160.461 185.448 159.92 185.94 160.011C186.882 160.193 186.809 161.172 186.201 161.834C185.594 162.497 184.895 163.123 182.202 163.542C179.905 163.907 179.814 163.646 177.121 164.478L174.173 165.864L173.14 163.329L174.672 160.813Z" fill="#B16668"/>
<path d="M181.206 160.497C179.269 159.665 177.13 159.42 175.055 159.792C172.083 160.497 173.147 163.542 173.147 163.542L181.206 160.497Z" fill="#B16668"/>
<path d="M166.552 145.06L157.739 152.943L146.1 148.858L154.415 137.304L166.552 145.06Z" fill="#B16668"/>
<path d="M175.31 129.92C175.31 129.92 178.264 134.405 177.93 134.849C177.595 135.293 175.413 135.688 175.413 135.688L175.31 129.92Z" fill="#9A4A4D"/>
<path d="M167.099 117.533C173.08 118.791 174.806 121.423 175.371 130.904C175.979 140.836 174.945 143.96 173.645 145.297C172.764 146.196 167.871 146.36 165.403 145.68C162.31 144.829 155.326 142.355 152.032 137.359C148.191 131.482 147.17 123.52 151.297 120.25C157.113 115.674 164.668 117.017 167.099 117.533Z" fill="#B16668"/>
<path d="M165.677 145.765C168.248 146.409 172.186 146.148 173.371 145.503C171.923 145.778 170.43 145.688 169.026 145.242C167.625 144.84 166.295 144.225 165.081 143.419L165.677 145.765Z" fill="#9A4A4D"/>
<path d="M176.696 121.636C174.988 122.754 172.934 123.186 170.916 123.459C171.037 125.07 170.49 126.65 169.955 128.176C169.585 129.233 168.26 132.545 166.917 130.68C165.962 129.33 165.093 128.103 163.209 128.388C160.097 128.85 159.678 132.819 161.635 135.232C163.592 137.645 165.428 136.721 165.428 136.721C165.428 136.721 165.616 140.975 163.294 143.972C162.038 144.578 160.67 144.919 159.277 144.974C157.883 145.03 156.493 144.798 155.193 144.294C152.239 143.248 148.021 139.389 146.501 136.423C142.326 128.248 142.478 120.518 147.826 118.257C148.434 114.397 151.473 112.671 154.901 111.875C159.702 110.769 164.595 113.881 169.25 112.009C170.235 111.614 171.141 111.042 172.143 110.708C172.414 110.585 172.708 110.525 173.005 110.532C173.302 110.54 173.594 110.614 173.857 110.751C174.252 111.09 174.503 111.565 174.562 112.082C174.839 112.996 174.752 113.983 174.319 114.835C175.009 114.48 175.746 114.227 176.507 114.081C176.889 114.012 177.281 114.026 177.657 114.12C178.033 114.214 178.385 114.388 178.689 114.628C179.207 115.14 179.505 115.833 179.522 116.561C179.68 118.591 178.391 120.518 176.696 121.636Z" fill="#263238"/>
<path d="M147.778 119.551L144.198 117.442C144.487 116.987 144.942 116.662 145.466 116.536C145.99 116.41 146.543 116.492 147.007 116.766C147.472 117.04 147.812 117.483 147.956 118.003C148.099 118.522 148.036 119.078 147.778 119.551V119.551Z" fill="#263238"/>
<path d="M149.522 144.118C142.933 142.148 137.506 143.145 128.9 151.344C119.467 160.309 112.526 175.54 110.095 191.968C110.095 191.968 110.417 199.559 119.212 204.61C128.541 209.964 142.958 208.658 148.75 199.018C148.75 199.018 149.965 190.43 153.813 185.835C156.305 182.857 162.066 176.281 166.321 171.583C170.022 167.493 173.888 157.519 168.071 152.821C166.363 151.447 164.686 150.39 162.322 148.834C156.286 149.904 148.44 146.33 149.522 144.118Z" fill="#AD667E"/>
<path opacity="0.75" d="M149.522 144.118C142.933 142.148 137.506 143.145 128.9 151.344C119.467 160.309 112.526 175.54 110.095 191.968C110.095 191.968 110.417 199.559 119.212 204.61C128.541 209.964 142.958 208.658 148.75 199.018C148.75 199.018 149.965 190.43 153.813 185.835C156.305 182.857 162.066 176.281 166.321 171.583C170.022 167.493 173.888 157.519 168.071 152.821C166.363 151.447 164.686 150.39 162.322 148.834C156.286 149.904 148.44 146.33 149.522 144.118Z" fill="white"/>
<path opacity="0.1" d="M166.856 170.963L167.147 170.586L167.275 170.416L167.591 169.966C167.591 169.93 167.646 169.893 167.67 169.851C167.804 169.652 167.937 169.45 168.071 169.243C168.085 169.225 168.095 169.204 168.102 169.182C168.223 168.994 168.339 168.793 168.454 168.575L168.533 168.429C168.636 168.24 168.746 168.046 168.843 167.821C168.866 167.786 168.886 167.749 168.904 167.712C169.285 166.961 169.624 166.19 169.919 165.402V165.359C170.653 163.465 171.034 161.453 171.043 159.421C169.049 162.702 166.487 165.602 163.476 167.985C159.629 171.024 155.107 173.157 151.467 176.433C147.613 179.91 144.562 184.334 141.189 188.267C139.834 189.835 137.846 192.959 135.78 192.795C133.258 192.594 131.313 189.203 130.255 186.905C128.566 183.259 127.308 178.791 125.034 175.461C123.047 172.549 119.874 168.727 116.44 169.754C113.334 176.839 111.2 184.311 110.095 191.968C110.095 191.968 110.417 199.559 119.212 204.61C119.996 205.066 120.808 205.472 121.643 205.825C121.898 205.868 122.154 205.923 122.403 205.983C123.661 206.312 124.834 206.925 126.128 207.199L126.59 207.29L127.113 207.381L127.672 207.466L128.146 207.533L128.754 207.606L129.173 207.643L129.83 207.691H130.225H130.893H131.975H132.401L133.008 207.661L133.489 207.624L134.042 207.576L134.57 207.515L135.075 207.448L135.683 207.351L136.078 207.278C136.339 207.229 136.594 207.181 136.85 207.12L137.014 207.083C141.797 205.959 146.209 203.285 148.786 198.994C148.786 198.994 148.847 198.581 148.975 197.894C149.017 197.693 149.06 197.474 149.109 197.231C149.206 196.757 149.333 196.198 149.485 195.584C150.008 193.412 150.745 191.296 151.685 189.269C152.026 188.556 152.41 187.864 152.834 187.197C153.047 186.869 153.266 186.553 153.497 186.249L153.855 185.835L154.36 185.228C156.7 182.462 161.003 177.545 164.692 173.419L166.351 171.595L166.752 171.121L166.856 170.963Z" fill="#AD667E"/>
<path d="M205.614 180.627C203.578 183.872 203.183 185.908 194.376 186.595C194.376 186.595 177.85 196.964 172.545 198.866C167.239 200.769 165.324 197.784 164.218 192.977C163.112 188.169 160.213 170.033 160.213 170.033C160.213 170.033 157.909 158.844 167.305 152.487C171.286 155.526 173.383 158.631 174.052 163.98C174.836 170.38 175.978 185.41 175.978 185.41C175.978 185.41 189.915 179.332 192.018 177.241C192.636 176.585 193.196 175.875 193.689 175.12C194.576 173.905 195.829 172.58 196.181 170.981C196.734 168.447 197.901 168.799 198.32 170.191C198.81 171.984 198.795 173.877 198.278 175.661C198.278 175.661 202.587 179.047 204.702 177.91L205.273 177.545C205.509 177.379 205.796 177.302 206.083 177.327C206.37 177.353 206.639 177.48 206.841 177.685C206.957 178.269 206.86 178.645 205.614 180.627Z" fill="#B16668"/>
<path d="M166.248 151.46C171.548 153.958 174.149 157.951 174.696 163.992C175.243 170.033 175.978 180.53 175.978 180.53C175.978 180.53 175.65 184.359 170.581 186.139C169.149 186.668 167.613 186.852 166.097 186.677C164.581 186.502 163.127 185.972 161.854 185.13L159.751 171.455C159.751 171.455 156.779 156.662 166.248 151.46Z" fill="#455A64"/>
<path d="M127.757 195.688C119.084 185.076 111.019 172.343 104.346 168.496C92.3359 161.579 67.9397 176.78 65.2716 211.466C62.6034 246.151 88.2152 265.588 112.97 270.924C125.642 273.647 142.295 270.888 148.829 268.627C168.746 261.729 179.899 252.077 184.688 238.737C189.915 224.113 185.958 215.319 179.151 211.575C176.085 209.931 172.56 209.35 169.129 209.922C144.915 213.714 134.473 203.905 127.757 195.688Z" fill="#AD667E"/>
<path opacity="0.2" d="M158.019 264.938L159.113 264.427C160.851 255.918 159.873 247.944 156.165 240.566C152.518 233.364 146.325 226.617 137.154 219.901C123.631 210.037 118.313 200.677 113.195 191.628C111.317 188.309 109.549 185.173 107.397 182.079C102.614 175.175 97.8427 171.547 92.3909 170.671C90.1672 170.335 87.9006 170.414 85.7054 170.902C84.9558 171.389 84.2102 171.921 83.4688 172.501C86.2703 171.524 89.264 171.228 92.2025 171.638C97.3747 172.47 101.927 175.965 106.564 182.639C108.679 185.677 110.448 188.814 112.314 192.108C117.492 201.255 122.853 210.706 136.546 220.673C148.386 229.34 162.918 243.064 158.019 264.938Z" fill="black"/>
<path opacity="0.1" d="M112.97 270.924C125.642 273.647 142.296 270.888 148.829 268.627C168.746 261.729 179.899 252.077 184.688 238.737C184.816 238.378 184.925 238.031 185.041 237.679L184.749 237.564C179.65 235.904 174.168 237.892 169.117 239.685C156.414 244.194 142.059 247.531 129.763 242.019C121.668 238.372 113.323 232.701 109.02 224.94C104.717 217.179 102.729 208.311 99.6052 200.021C98.1952 196.283 96.8824 191.451 93.7098 187.811C90.7378 184.407 86.8176 181.934 82.3018 181.94C78.5943 181.94 75.1665 183.058 71.9696 186.838C68.5174 193.469 66.0316 201.711 65.284 211.502C62.6037 246.158 88.2155 265.588 112.97 270.924Z" fill="black"/>
<path d="M290.271 242.079L307.532 232.112C307.983 231.817 308.358 231.42 308.628 230.953C308.897 230.487 309.053 229.963 309.082 229.425V229.626C309.053 229.088 308.898 228.564 308.628 228.097C308.359 227.631 307.984 227.234 307.532 226.94L272.822 206.883C272.341 206.64 271.811 206.514 271.272 206.514C270.734 206.514 270.203 206.64 269.722 206.883L252.461 216.85C252.01 217.144 251.635 217.539 251.365 218.005C251.096 218.471 250.941 218.993 250.912 219.531V219.336C250.941 219.874 251.096 220.396 251.365 220.862C251.635 221.328 252.01 221.723 252.461 222.017L287.172 242.073C287.652 242.317 288.182 242.444 288.721 242.445C289.259 242.446 289.79 242.321 290.271 242.079Z" fill="#37474F"/>
<path d="M288.728 216.085L307.538 226.94C307.99 227.234 308.365 227.631 308.634 228.097C308.904 228.564 309.059 229.088 309.088 229.626V229.425C309.059 229.963 308.903 230.487 308.634 230.954C308.364 231.42 307.989 231.817 307.538 232.112L290.277 242.079C289.8 242.331 289.267 242.458 288.728 242.45V216.085Z" fill="#263238"/>
<path d="M307.538 228.733L290.277 238.712C289.798 238.958 289.266 239.086 288.728 239.086C288.189 239.086 287.657 238.958 287.178 238.712L252.467 218.656C251.61 218.163 251.61 217.361 252.467 216.869L269.728 206.901C270.209 206.659 270.74 206.532 271.278 206.532C271.817 206.532 272.347 206.659 272.828 206.901L307.538 226.958C308.395 227.438 308.395 228.24 307.538 228.733Z" fill="#455A64"/>
<path d="M307.538 225.457V227.104L289.621 237.436C289.424 237.555 289.205 237.631 288.977 237.661C288.581 237.717 288.178 237.638 287.834 237.436L252.467 217.021V215.313L287.178 235.406C287.658 235.65 288.189 235.777 288.727 235.777C289.266 235.777 289.797 235.65 290.277 235.406L307.538 225.457Z" fill="#AD667E"/>
<path opacity="0.2" d="M307.539 225.457V227.104L289.621 237.436C289.424 237.555 289.205 237.631 288.977 237.661H288.722V235.765C289.263 235.776 289.799 235.648 290.278 235.394L307.539 225.457Z" fill="black"/>
<path d="M290.278 235.418L307.539 225.457C307.99 225.163 308.366 224.766 308.635 224.299C308.905 223.833 309.06 223.309 309.088 222.771V219.58C309.06 219.041 308.905 218.518 308.635 218.051C308.366 217.584 307.99 217.187 307.539 216.893L272.828 196.837C272.348 196.594 271.817 196.468 271.279 196.468C270.74 196.468 270.209 196.594 269.729 196.837L252.468 206.798C252.017 207.093 251.642 207.49 251.373 207.957C251.104 208.423 250.948 208.947 250.918 209.484V212.675C250.947 213.206 251.103 213.722 251.373 214.18C251.642 214.638 252.018 215.024 252.468 215.307L287.178 235.4C287.656 235.649 288.187 235.78 288.726 235.783C289.265 235.787 289.797 235.661 290.278 235.418V235.418Z" fill="#37474F"/>
<path d="M288.728 206.032L307.538 216.893C307.99 217.187 308.366 217.584 308.635 218.05C308.904 218.517 309.06 219.041 309.088 219.579V222.77C309.06 223.308 308.904 223.832 308.635 224.299C308.366 224.766 307.99 225.162 307.538 225.457L290.277 235.418C289.801 235.673 289.267 235.8 288.728 235.789V206.032Z" fill="#263238"/>
<path d="M307.538 218.686L290.277 228.647C289.797 228.89 289.266 229.016 288.728 229.016C288.189 229.016 287.658 228.89 287.178 228.647L252.467 208.591C251.61 208.098 251.61 207.296 252.467 206.767L269.728 196.806C270.209 196.563 270.74 196.437 271.278 196.437C271.817 196.437 272.347 196.563 272.828 196.806L307.538 216.863C308.395 217.385 308.395 218.188 307.538 218.686Z" fill="#455A64"/>
<path d="M283.464 210.754C285.378 211.854 285.378 213.635 283.464 214.735C282.39 215.275 281.204 215.556 280.002 215.556C278.801 215.556 277.615 215.275 276.541 214.735C274.633 213.635 274.633 211.854 276.541 210.754C277.613 210.209 278.799 209.925 280.002 209.925C281.206 209.925 282.392 210.209 283.464 210.754V210.754Z" fill="#AD667E"/>
<path d="M255.281 211.927C255.459 212.043 255.607 212.199 255.713 212.383C255.818 212.567 255.879 212.773 255.889 212.985C255.889 213.374 255.615 213.538 255.281 213.35C255.104 213.235 254.957 213.08 254.851 212.897C254.745 212.714 254.684 212.509 254.673 212.298C254.673 211.903 254.947 211.739 255.281 211.927Z" fill="#AD667E"/>
<path d="M255.281 214.267C255.459 214.383 255.606 214.539 255.712 214.723C255.818 214.907 255.878 215.113 255.889 215.325C255.889 215.714 255.615 215.878 255.281 215.69C255.104 215.575 254.957 215.42 254.851 215.237C254.745 215.054 254.684 214.849 254.673 214.638C254.673 214.243 254.947 214.079 255.281 214.267Z" fill="#AD667E"/>
<path d="M98.5845 111.407V102.29L106.285 101.616C106.395 101.606 106.505 101.629 106.601 101.682C106.899 101.847 113.104 105.414 113.202 105.469C113.274 105.512 113.337 105.57 113.384 105.64C113.431 105.711 113.461 105.79 113.473 105.874C113.485 105.958 113.477 106.043 113.451 106.123C113.425 106.204 113.381 106.277 113.323 106.338L105.161 115.187L98.5845 111.407Z" fill="#AD667E"/>
<path d="M105.161 115.181L113.323 106.332C113.402 106.249 113.454 106.144 113.471 106.031C113.488 105.918 113.471 105.803 113.42 105.7C113.37 105.597 113.29 105.513 113.19 105.457C113.09 105.402 112.975 105.378 112.861 105.39L105.161 106.059V115.181Z" fill="#AD667E"/>
<path d="M98.5845 102.278L105.161 106.065L112.861 105.39C112.952 105.382 113.043 105.394 113.129 105.426C112.521 105.062 106.887 101.828 106.607 101.676C106.508 101.619 106.393 101.596 106.279 101.61L98.5845 102.278Z" fill="#AD667E"/>
<path opacity="0.5" d="M98.5845 102.278L105.161 106.065L112.861 105.39C112.952 105.382 113.043 105.394 113.129 105.426C112.521 105.062 106.887 101.828 106.607 101.676C106.508 101.619 106.393 101.596 106.279 101.61L98.5845 102.278Z" fill="white"/>
<path d="M105.167 95.0152C105.128 94.3519 104.935 93.7068 104.603 93.1316C104.27 92.5564 103.808 92.0671 103.252 91.7028L101.696 90.8093C101.104 90.5068 100.449 90.3491 99.7848 90.3491C99.1202 90.3491 98.4651 90.5068 97.8733 90.8093L74.0119 104.612C73.4559 104.974 72.9933 105.462 72.6616 106.037C72.33 106.611 72.1388 107.256 72.1035 107.918V134.174C72.1378 134.838 72.3286 135.484 72.6603 136.06C72.992 136.635 73.4551 137.124 74.0119 137.487L75.5679 138.386C76.1609 138.684 76.8155 138.84 77.4793 138.84C78.1431 138.84 78.7977 138.684 79.3908 138.386L103.252 124.584C103.81 124.221 104.274 123.733 104.607 123.157C104.939 122.581 105.131 121.935 105.167 121.271V95.0152Z" fill="#AD667E"/>
<path opacity="0.2" d="M72.1035 134.174C72.1378 134.838 72.3286 135.484 72.6603 136.06C72.992 136.635 73.4551 137.124 74.0119 137.487L75.5679 138.386C76.107 138.656 76.6969 138.808 77.299 138.835C77.9012 138.861 78.5021 138.76 79.0626 138.538C78.1631 138.879 77.4824 138.368 77.4824 137.28V111.024C77.5055 110.359 77.6979 109.71 78.0415 109.14L72.6627 106.034C72.3191 106.604 72.1266 107.253 72.1035 107.918V134.174Z" fill="black"/>
<path opacity="0.5" d="M105.1 94.4743C104.881 93.6598 104.14 93.4046 103.277 93.909L79.391 107.718C78.8249 108.066 78.3597 108.556 78.0417 109.14L72.6689 106.04C72.9865 105.457 73.4491 104.965 74.0121 104.612L97.8735 90.8093C98.4666 90.5111 99.1212 90.3558 99.785 90.3558C100.449 90.3558 101.103 90.5111 101.696 90.8093L103.258 91.7089C103.737 92.0203 104.148 92.4262 104.464 92.9017C104.781 93.3772 104.997 93.9123 105.1 94.4743V94.4743Z" fill="white"/>
<path d="M86.1858 109.693L88.3434 108.447V110.039L90.5071 108.794V112.191L92.6647 110.939V107.541L94.8284 106.296V104.703L96.9921 103.451V105.05L99.1497 103.798V107.195L101.313 105.949V110.939L99.1497 112.191V114.683L96.9921 115.935V118.427L94.8284 119.679V122.171L92.6647 123.423L92.6708 125.915L90.5071 127.161V124.669L88.3434 125.915V123.423L86.1858 124.669V122.171L84.0221 123.423V120.925L81.8584 122.171V117.181L84.0221 115.935V112.537L86.1858 111.285V109.693Z" fill="white"/>
</g>
<defs>
<clipPath id="clip0">
<rect width="357" height="357" fill="white" transform="translate(0 -6)"/>
</clipPath>
</defs>
</svg>
