<svg width="629" height="354" viewBox="0 0 629 354" fill="none" xmlns="http://www.w3.org/2000/svg">
<path d="M516.148 155.393H454.016C454.016 155.393 435.909 157.764 443.39 175.466H426.906C424.315 171.871 422.639 167.7 422.023 163.312C421.406 158.924 421.868 154.452 423.368 150.283C428.44 135.727 445.406 132.975 445.406 132.975H511.076C511.076 132.975 527.23 139.657 516.148 155.393Z" fill="#263238" stroke="#263238" stroke-width="1.1326" stroke-linecap="round" stroke-linejoin="round"/>
<path d="M374.718 242.339C381.274 222.051 390.822 206.569 388.438 183.922C387.424 174.349 383.366 165.042 382.998 155.443C382.123 129.17 414.863 129.424 423.004 107.031C430.155 87.364 430.751 79.0206 445.054 78.4246C459.357 77.8287 507.643 72.465 518.966 75.4448C530.289 78.4246 538.645 105.877 548.13 117.758C557.615 129.639 568.989 146.377 561.241 168.478C553.494 190.579 542.779 219.68 541.625 244.723C540.471 269.766 540.433 293.592 540.433 293.592H369.355C369.355 293.592 368.163 262.602 374.718 242.339ZM449.226 172.599H494.532C498.723 172.481 502.703 170.734 505.625 167.728C508.548 164.722 510.183 160.694 510.183 156.502C510.183 152.309 508.548 148.282 505.625 145.276C502.703 142.27 498.723 140.522 494.532 140.404H449.226C445.035 140.522 441.055 142.27 438.132 145.276C435.209 148.282 433.574 152.309 433.574 156.502C433.574 160.694 435.209 164.722 438.132 167.728C441.055 170.734 445.035 172.481 449.226 172.599Z" fill="#AD667E" stroke="#263238" stroke-width="1.1326" stroke-linecap="round" stroke-linejoin="round"/>
<path d="M541.698 107.488C530.666 113.245 514.537 124.517 504.926 144.26C502.028 141.77 498.336 140.399 494.515 140.393H449.21C446.99 140.396 444.796 140.861 442.766 141.758C440.735 142.655 438.914 143.965 437.417 145.604L437.075 145.832C432.003 137.147 424.712 126.026 416.445 117.277C419.33 114.361 421.56 110.864 422.988 107.019C430.139 87.3522 430.735 79.0087 445.038 78.4128C459.341 77.8168 507.627 72.4532 518.95 75.433C527.674 77.728 534.622 94.4657 541.698 107.488Z" fill="#263238" stroke="#263238" stroke-width="1.1326" stroke-linecap="round" stroke-linejoin="round"/>
<path d="M510.404 294.188H385.278C386.178 282.865 388.372 256.148 390.223 240.552C392.607 220.264 393.799 207.165 399.759 201.244C405.718 195.322 443.264 167.236 454.016 166.044C454.016 166.044 485.019 163.66 494.592 165.448C504.166 167.236 523.756 198.226 523.756 203.59C523.756 208.674 509.808 260.84 510.404 294.188Z" fill="#263238" stroke="#263238" stroke-width="1.1326" stroke-linecap="round" stroke-linejoin="round"/>
<path d="M535.067 239.36C536.854 214.317 555.925 156.509 560.097 146.974C561.178 143.947 561.332 140.667 560.541 137.552C564.694 147.377 564.961 158.413 561.289 168.428C553.541 190.479 542.814 219.681 541.622 244.724C540.43 269.767 540.43 293.592 540.43 293.592H535.472C534.952 281.128 533.583 260.066 535.067 239.36Z" fill="#263238" stroke="#263238" stroke-width="1.1326" stroke-linecap="round" stroke-linejoin="round"/>
<path d="M430.749 202.398C437.9 191.074 461.181 196.438 479.63 195.842C498.079 195.246 499.918 200.61 499.918 210.741C499.918 219.351 490.877 276.588 488.164 293.592H412.172C412.172 260.307 423.927 213.201 430.749 202.398Z" fill="#AD667E" stroke="#263238" stroke-width="1.1326" stroke-linecap="round" stroke-linejoin="round"/>
<path d="M455.018 195.119C462.752 195.272 471.197 196.045 478.869 195.867C475.61 206.417 462.866 250.189 461.763 293.592H437.823C439.053 273.786 443.01 230.281 455.018 195.119Z" fill="white" stroke="#263238" stroke-width="1.1326" stroke-linecap="round" stroke-linejoin="round"/>
<path d="M344.727 184.227C344.727 184.227 339.237 186.675 333.746 196.438C328.256 206.202 250.908 250.113 249.678 262.374C248.448 274.636 244.276 276.474 260.151 278.858C276.027 281.242 298.331 264.91 325.2 250.201C352.069 235.493 364.875 236.748 364.875 236.748L344.727 184.227Z" fill="white" stroke="#263238" stroke-width="1.1326" stroke-linecap="round" stroke-linejoin="round"/>
<path d="M265.667 249.098C265.667 249.098 282.76 251.305 288.821 258.469C294.882 265.633 285.537 276.829 279.742 278.947C273.948 281.065 256.297 279.416 251.339 270.071C246.381 260.726 250.236 258.494 256.855 253.587" fill="white"/>
<path d="M265.667 249.098C265.667 249.098 282.76 251.305 288.821 258.469C294.882 265.633 285.537 276.829 279.742 278.947C273.948 281.065 256.297 279.416 251.339 270.071C246.381 260.726 250.236 258.494 256.855 253.587" stroke="#263238" stroke-width="1.1326" stroke-linecap="round" stroke-linejoin="round"/>
<path d="M279.881 264.999C279.881 264.999 286.221 269.805 287.68 271.149C289.138 272.493 291.281 278.351 292.752 279.391C294.222 280.43 299.649 281.343 300.258 282.84C300.867 284.336 295.452 285.997 291.255 285.845C287.058 285.693 283.761 280.773 279.716 278.947C277.095 277.833 274.304 277.173 271.462 276.994C271.462 276.994 267.721 268.752 269.217 265.455C270.714 262.159 276.496 262.602 279.881 264.999Z" fill="white" stroke="#263238" stroke-width="1.1326" stroke-linecap="round" stroke-linejoin="round"/>
<path d="M264.843 256.148C266.181 255.907 267.551 255.907 268.888 256.148C272.136 256.61 275.347 257.296 278.5 258.202C280.059 258.989 282.469 268.892 283.635 273.571C284.802 278.25 289.43 286.682 287.439 287.075C285.448 287.468 280.541 288.571 279.704 285.566C278.347 280.773 275.342 271.859 275.342 271.859C275.342 271.859 277.688 280.443 276.522 282.003C275.355 283.563 256.627 283.169 254.281 282.383C251.935 281.597 246.483 271.466 246.09 266.001C245.798 261.347 258.947 257.277 264.843 256.148Z" fill="white" stroke="#263238" stroke-width="1.1326" stroke-linecap="round" stroke-linejoin="round"/>
<path d="M268.495 282.688L263.689 263.947" stroke="#263238" stroke-width="1.1326" stroke-linecap="round" stroke-linejoin="round"/>
<path d="M258.3 282.396L253.799 264.707" stroke="#263238" stroke-width="1.1326" stroke-linecap="round" stroke-linejoin="round"/>
<path d="M275.38 271.833L272.996 263.351" stroke="#263238" stroke-width="1.1326" stroke-linecap="round" stroke-linejoin="round"/>
<path d="M311.15 209.866C330.043 193.078 351.282 170.368 375.755 162.215C382.074 160.183 387.933 156.93 393 152.642C393 152.642 410.206 140.443 421.098 139.847C433.563 139.15 443.187 152.337 448.994 161.796C474.811 203.983 478.158 252.775 479.147 301.276H364.875C364.875 301.276 371.52 290.993 364.267 261.372C362.899 255.74 361.136 250.21 358.992 244.825C356.874 245.738 354.541 246.714 352.056 247.742C341.684 252.015 317.82 265.493 317.82 265.493L290.976 226.553C290.976 226.553 305.66 214.761 311.15 209.866Z" fill="white" stroke="#263238" stroke-width="1.1326" stroke-linecap="round" stroke-linejoin="round"/>
<path d="M415.393 147.81C418.74 141.838 426.018 135.688 437.418 142.257C452.177 150.752 496.063 238.384 499.081 251.685C502.098 264.986 440.448 273.52 416.267 273.52C401.296 273.492 386.335 272.701 371.444 271.149L366.689 274.116C366.689 274.116 366.689 285.604 362.454 286.796C358.218 287.988 344.917 288.064 340.695 285.591C336.472 283.119 337.664 276.525 337.664 276.525C337.664 276.525 334.646 289.826 329.815 291.031C328.213 291.448 326.535 291.474 324.921 291.107C324.541 291.016 324.19 290.828 323.905 290.561C323.619 290.294 323.408 289.957 323.292 289.584C323.175 289.21 323.158 288.813 323.241 288.431C323.325 288.049 323.506 287.696 323.767 287.405L325.035 285.896L333.391 267.459C333.391 267.459 335.699 257.492 338.717 257.492C341.734 257.492 366.029 257.175 366.029 257.175C366.029 257.175 407.138 252.344 424.674 247.501C442.211 242.657 451.48 235.898 451.48 235.898L417.852 181.045" fill="white"/>
<path d="M372.509 266.051C381.588 264.986 409.382 265.519 445.203 260.701C481.024 255.882 489.583 247.336 482.622 245.206C475.661 243.075 452.19 238.257 450.542 238.257C448.893 238.257 480.479 232.373 480.479 232.373L463.475 178.598C479.959 207.292 497.229 243.519 499.081 251.685C502.111 264.986 440.448 273.52 416.268 273.52C401.296 273.492 386.335 272.701 371.444 271.149L366.689 274.116C366.689 274.116 366.689 285.604 362.454 286.796C361.207 287.111 359.933 287.31 358.65 287.392C356.902 285.91 355.734 283.857 355.353 281.597C354.453 275.891 363.417 267.18 372.509 266.051Z" fill="#AD667E"/>
<path opacity="0.5" d="M372.509 266.051C381.588 264.986 409.382 265.519 445.203 260.701C481.024 255.882 489.583 247.336 482.622 245.206C475.661 243.075 452.19 238.257 450.542 238.257C448.893 238.257 480.479 232.373 480.479 232.373L463.475 178.598C479.959 207.292 497.229 243.519 499.081 251.685C502.111 264.986 440.448 273.52 416.268 273.52C401.296 273.492 386.335 272.701 371.444 271.149L366.689 274.116C366.689 274.116 366.689 285.604 362.454 286.796C361.207 287.111 359.933 287.31 358.65 287.392C356.902 285.91 355.734 283.857 355.353 281.597C354.453 275.891 363.417 267.18 372.509 266.051Z" fill="white"/>
<path d="M415.393 147.81C418.74 141.838 426.018 135.688 437.418 142.257C452.177 150.752 496.063 238.384 499.081 251.685C502.098 264.986 440.448 273.52 416.267 273.52C401.296 273.492 386.335 272.701 371.444 271.149L366.689 274.116C366.689 274.116 366.689 285.604 362.454 286.796C358.218 287.988 344.917 288.064 340.695 285.591C336.472 283.119 337.664 276.525 337.664 276.525C337.664 276.525 334.646 289.826 329.815 291.031C328.213 291.448 326.535 291.474 324.921 291.107C324.541 291.016 324.19 290.828 323.905 290.561C323.619 290.294 323.408 289.957 323.292 289.584C323.175 289.21 323.158 288.813 323.241 288.431C323.325 288.049 323.506 287.696 323.767 287.405L325.035 285.896L333.391 267.459C333.391 267.459 335.699 257.492 338.717 257.492C341.734 257.492 366.029 257.175 366.029 257.175C366.029 257.175 407.138 252.344 424.674 247.501C442.211 242.657 451.48 235.898 451.48 235.898L417.852 181.045" stroke="#263238" stroke-width="1.1326" stroke-linecap="round" stroke-linejoin="round"/>
<path d="M347.212 267.256C347.212 267.256 342.723 280.418 342.723 282.574C342.79 284.068 343.156 285.535 343.801 286.885" stroke="#263238" stroke-width="1.1326" stroke-linecap="round" stroke-linejoin="round"/>
<path d="M354.922 269.285C354.922 269.285 350.623 281.496 350.256 284.006C350.11 284.647 350.133 285.314 350.322 285.943C350.511 286.571 350.859 287.141 351.333 287.595" stroke="#263238" stroke-width="1.1326" stroke-linecap="round" stroke-linejoin="round"/>
<path d="M337.664 276.474L340.568 265.341" stroke="#263238" stroke-width="1.1326" stroke-linecap="round" stroke-linejoin="round"/>
<path d="M366.689 274.052L360.679 276.107C360.679 276.107 357.078 277.907 359.956 280.418" fill="white"/>
<path d="M366.689 274.052L360.679 276.107C360.679 276.107 357.078 277.907 359.956 280.418" stroke="#263238" stroke-width="1.1326" stroke-linecap="round" stroke-linejoin="round"/>
<path d="M413.098 149.37C413.098 149.37 416.318 138.592 429.252 138.237C442.186 137.882 451.48 152.959 457.617 161.936C463.754 170.913 479.87 205.733 481.709 210.044C483.548 214.355 493.907 233.02 493.907 233.02C493.907 233.02 488.531 238.092 475.597 238.092H447.232C447.232 238.092 446.167 237.724 445.444 234.504C445.074 233.091 444.832 231.648 444.722 230.193L412.413 176.696" fill="white"/>
<path d="M413.098 149.37C413.098 149.37 416.318 138.592 429.252 138.237C442.186 137.882 451.48 152.959 457.617 161.936C463.754 170.913 479.87 205.733 481.709 210.044C483.548 214.355 493.907 233.02 493.907 233.02C493.907 233.02 488.531 238.092 475.597 238.092H447.232C447.232 238.092 446.167 237.724 445.444 234.504C445.074 233.091 444.832 231.648 444.722 230.193L412.413 176.696" stroke="#263238" stroke-width="1.1326" stroke-linecap="round" stroke-linejoin="round"/>
<path d="M324.896 274.192L322.334 280.608" stroke="#263238" stroke-width="1.1326" stroke-linecap="round" stroke-linejoin="round"/>
<path d="M322.968 269.703L319.76 277.4" stroke="#263238" stroke-width="1.1326" stroke-linecap="round" stroke-linejoin="round"/>
<path d="M345.044 218.223L358.992 244.812L337.322 225.399" stroke="#263238" stroke-width="1.1326" stroke-linecap="round" stroke-linejoin="round"/>
<path d="M375.755 162.215C382.074 160.183 387.933 156.93 393 152.641C393 152.641 395.84 150.625 399.936 148.203C397.666 159.324 390.73 191.315 385.277 196.73C380.041 201.967 368.946 179.586 364.533 167.008C368.142 165.117 371.894 163.515 375.755 162.215Z" fill="white" stroke="#263238" stroke-width="1.1326" stroke-linecap="round" stroke-linejoin="round"/>
<path d="M341.024 141.483C332.558 141.483 325.694 132.684 325.694 121.829C325.694 110.974 332.558 102.175 341.024 102.175C349.491 102.175 356.354 110.974 356.354 121.829C356.354 132.684 349.491 141.483 341.024 141.483Z" fill="white" stroke="#263238" stroke-width="1.1326" stroke-linecap="round" stroke-linejoin="round"/>
<path d="M392.264 117.429C392.264 117.429 394.471 142.371 393 152.642C391.529 162.912 385.671 195.183 381.271 186.383C376.871 177.583 361.452 148.977 361.452 148.977C361.452 148.977 387.864 129.171 392.264 117.429Z" fill="white"/>
<path d="M392.264 117.429C392.264 117.429 394.471 142.371 393 152.642C392.429 156.699 391.148 164.193 389.563 171.23L371.431 161.289L363.823 153.301L361.503 148.977C361.503 148.977 387.864 129.171 392.264 117.429Z" fill="#AD667E"/>
<path opacity="0.5" d="M392.264 117.429C392.264 117.429 394.471 142.371 393 152.642C392.429 156.699 391.148 164.193 389.563 171.23L371.431 161.289L363.823 153.301L361.503 148.977C361.503 148.977 387.864 129.171 392.264 117.429Z" fill="white"/>
<path d="M392.264 117.429C392.264 117.429 394.471 142.371 393 152.642C391.529 162.912 385.671 195.183 381.271 186.383C376.871 177.583 361.452 148.977 361.452 148.977C361.452 148.977 387.864 129.171 392.264 117.429Z" stroke="#263238" stroke-width="1.1326" stroke-linecap="round" stroke-linejoin="round"/>
<path d="M396.677 113.029C396.677 113.029 401.749 82.2168 397.4 70.4751C393.051 58.7334 376.859 52.8752 357.788 58.7461C338.717 64.6169 327.711 70.4751 324.82 83.6877C321.929 96.9002 332.149 104.965 332.149 104.965C332.149 104.965 340.962 84.4231 351.169 82.2168C361.376 80.0105 370.975 79.2877 369.504 86.6168C368.033 93.9458 367.298 103.494 371.698 107.158C376.098 110.823 376.833 112.294 379.04 118.165C381.246 124.035 387.839 129.906 392.988 123.237C398.136 116.567 396.677 113.029 396.677 113.029Z" fill="#263238" stroke="#263238" stroke-width="1.1326" stroke-linecap="round" stroke-linejoin="round"/>
<path d="M391.542 115.223C391.542 115.223 393 105.688 399.606 109.365C406.212 113.042 396.677 126.965 396.677 126.965C395.614 136.864 391.802 146.268 385.671 154.113C375.4 167.312 357.648 169.1 347.504 160.668C336.092 151.183 330.64 107.856 330.64 107.856C330.64 107.856 326.24 101.985 335.712 87.3143C345.184 72.6435 377.556 72.6435 379.724 78.5144C381.892 84.3852 373.118 96.1142 375.324 100.514C377.53 104.914 384.124 99.7914 385.595 107.856C387.066 115.92 388.6 121.829 391.542 115.223Z" fill="white"/>
<path d="M335.788 87.3521C345.323 72.6814 377.632 72.6814 379.8 78.5522C381.968 84.4231 373.194 96.1521 375.4 100.552C377.606 104.952 384.2 99.8293 385.671 107.894C387.142 115.958 388.6 121.842 391.542 115.223C391.542 115.223 393 105.687 399.606 109.365C406.212 113.042 396.677 126.965 396.677 126.965C395.614 136.864 391.802 146.268 385.671 154.112C382.596 158.175 378.513 161.364 373.828 163.366C369.142 165.367 364.015 166.111 358.954 165.524C363.337 164.86 367.565 163.408 371.431 161.239C381.575 155.355 384.263 144.133 381.055 131.834C377.847 119.534 370.366 89.6092 366.6 86.566C362.834 83.5228 360.26 85.8686 352.196 93.3498C344.131 100.831 339.896 100.298 339.896 100.298L331.641 94.9601C332.797 92.3071 334.184 89.7612 335.788 87.3521Z" fill="#AD667E"/>
<path opacity="0.5" d="M335.788 87.3521C345.323 72.6814 377.632 72.6814 379.8 78.5522C381.968 84.4231 373.194 96.1521 375.4 100.552C377.606 104.952 384.2 99.8293 385.671 107.894C387.142 115.958 388.6 121.842 391.542 115.223C391.542 115.223 393 105.687 399.606 109.365C406.212 113.042 396.677 126.965 396.677 126.965C395.614 136.864 391.802 146.268 385.671 154.112C382.596 158.175 378.513 161.364 373.828 163.366C369.142 165.367 364.015 166.111 358.954 165.524C363.337 164.86 367.565 163.408 371.431 161.239C381.575 155.355 384.263 144.133 381.055 131.834C377.847 119.534 370.366 89.6092 366.6 86.566C362.834 83.5228 360.26 85.8686 352.196 93.3498C344.131 100.831 339.896 100.298 339.896 100.298L331.641 94.9601C332.797 92.3071 334.184 89.7612 335.788 87.3521Z" fill="white"/>
<path d="M391.542 115.223C391.542 115.223 393 105.688 399.606 109.365C406.212 113.042 396.677 126.965 396.677 126.965C395.614 136.864 391.802 146.268 385.671 154.113C375.4 167.312 357.648 169.1 347.504 160.668C336.092 151.183 330.64 107.856 330.64 107.856C330.64 107.856 326.24 101.985 335.712 87.3143C345.184 72.6435 377.556 72.6435 379.724 78.5144C381.892 84.3852 373.118 96.1142 375.324 100.514C377.53 104.914 384.124 99.7914 385.595 107.856C387.066 115.92 388.6 121.829 391.542 115.223Z" stroke="#263238" stroke-width="1.1326" stroke-linecap="round" stroke-linejoin="round"/>
<path d="M363.493 140.608C372.762 138.592 374.778 131.732 374.778 131.732" stroke="#263238" stroke-width="1.1326" stroke-linecap="round" stroke-linejoin="round"/>
<path d="M361.071 121.258C365.509 116.833 369.542 116.427 369.542 116.427" stroke="#263238" stroke-width="1.1326" stroke-linecap="round" stroke-linejoin="round"/>
<path d="M372.357 130.933L378.012 132.151" stroke="#263238" stroke-width="1.1326" stroke-linecap="round" stroke-linejoin="round"/>
<path d="M374.778 131.745C375.672 132.946 376.312 134.316 376.659 135.772C377.005 137.229 377.051 138.74 376.795 140.215C376.046 145.211 370.378 146.441 370.378 146.441C370.378 146.441 369.947 139.809 366.714 140.215C366.714 140.215 373.168 136.576 374.778 131.745Z" stroke="#263238" stroke-width="1.1326" stroke-linecap="round" stroke-linejoin="round"/>
<path d="M375.4 132.036C375.4 132.036 376.275 140.418 370.328 142.624" stroke="#263238" stroke-width="0.566302" stroke-linecap="round" stroke-linejoin="round"/>
<path d="M343.054 109.276C343.054 109.276 349.165 115.388 349.165 122.045C349.165 128.702 343.054 133.152 348.05 134.826C353.045 136.5 354.719 135.371 354.719 135.371" stroke="#263238" stroke-width="1.1326" stroke-linecap="round" stroke-linejoin="round"/>
<path d="M361.198 116.351C361.718 118.405 362.466 117.492 363.493 117.226C364.52 116.96 365.509 117.454 364.989 115.4C364.469 113.346 363.201 111.875 362.162 112.142C361.122 112.408 360.691 114.284 361.198 116.351Z" fill="#263238"/>
<path d="M340.099 119.673C340.619 121.74 341.887 123.198 342.927 122.932C343.966 122.666 344.41 120.789 343.89 118.722C343.37 116.656 342.102 115.21 341.063 115.464C340.023 115.717 339.579 117.619 340.099 119.673Z" fill="#263238"/>
<path d="M369.149 102.619C369.149 102.619 361.452 100.235 354.047 110.328" stroke="#263238" stroke-width="1.1326" stroke-linecap="round" stroke-linejoin="round"/>
<path d="M340.834 107.615C340.834 107.615 335.281 105.396 334.165 110.95" stroke="#263238" stroke-width="1.1326" stroke-linecap="round" stroke-linejoin="round"/>
<path d="M379.8 78.5523C379.8 78.5523 376.136 85.1459 366.6 86.6167C357.065 88.0876 345.323 86.6167 343.117 94.6939C340.911 102.771 330.653 112.294 318.911 107.158C307.169 102.023 305.711 79.2623 313.04 69.7523C320.369 60.2423 329.182 61.6752 337.982 58.0107C346.781 54.3461 346.781 47.7399 359.994 47.7399C373.207 47.7399 388.6 60.2043 379.8 67.546" fill="#263238"/>
<path d="M379.8 78.5523C379.8 78.5523 376.136 85.1459 366.6 86.6167C357.065 88.0876 345.323 86.6167 343.117 94.6939C340.911 102.771 330.653 112.294 318.911 107.158C307.169 102.023 305.711 79.2623 313.04 69.7523C320.369 60.2423 329.182 61.6752 337.982 58.0107C346.781 54.3461 346.781 47.7399 359.994 47.7399C373.207 47.7399 388.6 60.2043 379.8 67.546" stroke="#263238" stroke-width="1.1326" stroke-linecap="round" stroke-linejoin="round"/>
<path d="M395.067 133.875C386.6 133.875 379.737 125.076 379.737 114.221C379.737 103.366 386.6 94.567 395.067 94.567C403.533 94.567 410.397 103.366 410.397 114.221C410.397 125.076 403.533 133.875 395.067 133.875Z" fill="white" stroke="#263238" stroke-width="1.1326" stroke-linecap="round" stroke-linejoin="round"/>
<path d="M397.476 128.499C391.369 128.499 386.419 122.146 386.419 114.31C386.419 106.474 391.369 100.121 397.476 100.121C403.582 100.121 408.533 106.474 408.533 114.31C408.533 122.146 403.582 128.499 397.476 128.499Z" fill="#263238" stroke="#263238" stroke-width="1.1326" stroke-linecap="round" stroke-linejoin="round"/>
<path d="M399.606 112.23C400.299 112.233 400.969 111.984 401.492 111.529C402.015 111.074 402.354 110.445 402.446 109.758C403.201 103.015 403.179 96.2077 402.383 89.4697C402.34 89.095 402.223 88.7326 402.04 88.403C401.856 88.0734 401.61 87.7832 401.314 87.5489C401.019 87.3145 400.68 87.1407 400.317 87.0374C399.954 86.934 399.575 86.9031 399.2 86.9464C398.826 86.9896 398.463 87.1063 398.134 87.2897C397.804 87.4731 397.514 87.7195 397.279 88.0151C397.045 88.3106 396.871 88.6494 396.768 89.0121C396.665 89.3748 396.634 89.7544 396.677 90.129C397.402 96.4 397.432 102.732 396.766 109.01C396.712 109.383 396.733 109.763 396.827 110.128C396.922 110.493 397.087 110.836 397.315 111.137C397.542 111.437 397.827 111.69 398.153 111.88C398.479 112.07 398.839 112.193 399.213 112.243C399.344 112.251 399.476 112.247 399.606 112.23Z" fill="white" stroke="#263238" stroke-width="1.1326" stroke-linecap="round" stroke-linejoin="round"/>
<path d="M341.164 56.4764C340.18 57.0857 339.15 57.6157 338.082 58.0614C332.782 60.2677 327.469 60.5974 322.486 62.6389C322.596 61.9803 322.837 61.3506 323.196 60.7876C330.157 49.7433 350.496 32.359 377.644 45.5716C392.746 52.888 402.028 67.9772 404.564 89.1781C404.707 90.501 404.325 91.8273 403.499 92.871C402.674 93.9146 401.471 94.5921 400.151 94.7574H399.555C398.326 94.7451 397.144 94.2871 396.227 93.4685C395.311 92.6499 394.722 91.5263 394.572 90.3067C393.152 78.0197 388.232 61.84 373.193 54.511C359.119 47.7145 348.226 51.4805 341.164 56.4764Z" fill="white" stroke="#263238" stroke-width="1.1326" stroke-linecap="round" stroke-linejoin="round"/>
<path d="M218.853 288.165H397.007V295.355H218.853V288.165Z" fill="white" stroke="#263238" stroke-width="1.1326" stroke-linecap="round" stroke-linejoin="round"/>
<path d="M168.627 288.165H346.781V295.355H168.627V288.165Z" fill="white" stroke="#263238" stroke-width="1.1326" stroke-linecap="round" stroke-linejoin="round"/>
<path d="M452.748 276.563H426.449C423.547 276.563 420.764 277.716 418.712 279.768C416.659 281.82 415.506 284.604 415.506 287.506V300.655H463.69V287.468C463.68 284.572 462.523 281.799 460.472 279.755C458.421 277.711 455.643 276.563 452.748 276.563Z" fill="#AD667E" stroke="#263238" stroke-width="1.1326" stroke-linecap="round" stroke-linejoin="round"/>
<path d="M451.48 282.079H440.322C437.419 282.079 434.636 283.232 432.584 285.284C430.532 287.336 429.379 290.119 429.379 293.022V306.171H462.359V293.009C462.356 290.12 461.21 287.349 459.172 285.302C457.134 283.254 454.369 282.096 451.48 282.079Z" fill="#263238" stroke="#263238" stroke-width="1.1326" stroke-linecap="round" stroke-linejoin="round"/>
<path d="M451.48 285.515H444.443C441.54 285.515 438.757 286.668 436.705 288.72C434.653 290.772 433.5 293.556 433.5 296.458V301.353H462.41V296.458C462.41 293.558 461.259 290.777 459.21 288.725C457.16 286.673 454.38 285.518 451.48 285.515Z" fill="#AD667E" stroke="#263238" stroke-width="1.1326" stroke-linecap="round" stroke-linejoin="round"/>
<path d="M125.693 141.445H290.229V267.053H125.693V141.445Z" fill="white" stroke="#263238" stroke-width="1.1326" stroke-linecap="round" stroke-linejoin="round"/>
<path d="M118.896 141.445H283.432V267.053H118.896V141.445Z" fill="#263238" stroke="#263238" stroke-width="1.1326" stroke-linecap="round" stroke-linejoin="round"/>
<path d="M179.189 222.66H217.534V295.342H179.189V222.66Z" fill="white" stroke="#263238" stroke-width="1.1326" stroke-linecap="round" stroke-linejoin="round"/>
<path d="M45.7705 292.958H555.659V306.387H45.7705V292.958Z" fill="white" stroke="#263238" stroke-width="1.1326" stroke-linecap="round" stroke-linejoin="round"/>
<path d="M45.7707 292.958H378.988V306.387H45.7707V292.958Z" fill="#263238" stroke="#263238" stroke-width="1.1326" stroke-linecap="round" stroke-linejoin="round"/>
</svg>
