<svg width="408" height="351" viewBox="0 0 408 351" fill="none" xmlns="http://www.w3.org/2000/svg">
<rect width="1440" height="900" transform="translate(-519 -219)" fill="#C74D75"/>
<path d="M201.165 336.22C292.314 336.22 366.206 293.557 366.206 240.93C366.206 188.302 292.314 145.639 201.165 145.639C110.015 145.639 36.1235 188.302 36.1235 240.93C36.1235 293.557 110.015 336.22 201.165 336.22Z" fill="#F5F5F5"/>
<path d="M329.013 258.08L285.695 233.09C285.508 233.027 285.346 232.907 285.232 232.747C285.117 232.586 285.055 232.394 285.055 232.198C285.055 232.001 285.117 231.809 285.232 231.648C285.346 231.488 285.508 231.368 285.695 231.305L313.541 215.254C314.02 215.012 314.549 214.885 315.087 214.885C315.624 214.885 316.153 215.012 316.632 215.254L359.944 240.244C360.13 240.308 360.292 240.428 360.407 240.588C360.522 240.748 360.583 240.94 360.583 241.137C360.583 241.334 360.522 241.526 360.407 241.686C360.292 241.846 360.13 241.966 359.944 242.029L332.098 258.087C331.619 258.328 331.09 258.452 330.555 258.451C330.019 258.45 329.491 258.323 329.013 258.08Z" fill="#E0E0E0"/>
<path d="M141.424 305.625C181.618 305.625 214.202 286.813 214.202 263.606C214.202 240.4 181.618 221.587 141.424 221.587C101.23 221.587 68.646 240.4 68.646 263.606C68.646 286.813 101.23 305.625 141.424 305.625Z" fill="#E0E0E0"/>
<path d="M210.125 282.47C236.305 282.47 257.528 270.217 257.528 255.103C257.528 239.988 236.305 227.735 210.125 227.735C183.945 227.735 162.723 239.988 162.723 255.103C162.723 270.217 183.945 282.47 210.125 282.47Z" fill="#E0E0E0"/>
<path d="M69.0601 227.992L69.6456 218.71C69.6456 218.71 69.0958 206.851 57.3434 195.912C50.2034 189.265 44.2986 192.842 42.8206 196.462C41.3426 200.082 42.5707 205.572 49.5108 210.706C60.3779 218.739 69.5028 231.455 70.688 240.473L69.0601 227.992Z" fill="#37474F"/>
<path d="M68.6962 225.372C68.6001 225.381 68.5036 225.357 68.423 225.304C68.3424 225.25 68.2826 225.171 68.2536 225.079C62.9057 207.372 47.5476 196.747 47.3548 196.64C47.3102 196.609 47.2726 196.568 47.2443 196.521C47.2159 196.475 47.1975 196.422 47.1902 196.368C47.1828 196.314 47.1866 196.259 47.2014 196.206C47.2163 196.153 47.2417 196.104 47.2762 196.062C47.3372 195.972 47.4314 195.909 47.5384 195.887C47.6453 195.866 47.7564 195.888 47.8474 195.948C48.0045 196.055 63.634 206.836 69.0675 224.829C69.097 224.933 69.0853 225.045 69.0347 225.14C68.9842 225.236 68.8988 225.309 68.7962 225.343L68.6962 225.372Z" fill="white"/>
<path d="M69.5316 228.299C69.4629 227.285 69.0868 226.316 68.4534 225.522C67.311 224.201 65.3118 223.772 64.3479 222.309C63.9659 221.58 63.6597 220.815 63.434 220.024C62.7186 218.32 61.3844 216.95 59.6998 216.19C58.0141 215.456 56.1566 215.208 54.3377 215.476C52.9596 215.647 51.6245 216.068 50.2464 216.261C45.7268 216.911 41.5428 212.762 37.0446 215.547C34.3457 217.232 34.5313 220.174 36.0307 222.637C36.8151 223.89 37.7991 225.007 38.9438 225.943C40.1576 226.971 41.4357 227.592 41.5642 229.377C41.6499 230.677 41.2429 231.969 41.2572 233.276C41.3085 234.348 41.5902 235.396 42.083 236.35C42.5759 237.304 43.2683 238.14 44.1132 238.802C45.8195 240.113 47.8277 240.975 49.9537 241.308C51.5174 241.608 53.3166 241.844 54.1806 243.179C54.5414 243.909 54.7825 244.693 54.8946 245.499C55.2694 246.791 55.9146 247.988 56.7874 249.011C57.6602 250.034 58.7406 250.859 59.9568 251.433C62.411 252.56 65.1322 252.975 67.8108 252.632C70.1184 252.475 72.3306 251.651 74.1797 250.262C77.2356 247.763 75.4792 243.043 73.4657 240.416C72.5875 239.259 71.5022 238.274 70.6954 237.067C69.0818 234.675 69.3459 232.605 69.4959 229.87C69.551 229.348 69.5629 228.823 69.5316 228.299Z" fill="#455A64"/>
<path d="M71.9161 245.892C71.8469 245.906 71.7752 245.897 71.7111 245.868C71.647 245.838 71.5938 245.789 71.5591 245.728C60.6278 226.05 43.0919 220.552 42.9134 220.495C42.8279 220.469 42.756 220.41 42.7133 220.331C42.6706 220.252 42.6604 220.16 42.685 220.074C42.7129 219.988 42.7732 219.916 42.8531 219.873C42.933 219.831 43.0263 219.821 43.1134 219.845C43.2919 219.902 61.0847 225.486 72.1517 245.399C72.1733 245.438 72.1871 245.48 72.1923 245.524C72.1976 245.568 72.1941 245.612 72.1822 245.655C72.1702 245.697 72.15 245.737 72.1228 245.771C72.0955 245.806 72.0617 245.835 72.0232 245.856C71.9914 245.878 71.9544 245.89 71.9161 245.892Z" fill="white"/>
<path d="M61.4921 232.362H61.4136C56.6084 232.162 49.3398 234.09 49.2756 234.111C49.2324 234.124 49.1871 234.128 49.1424 234.122C49.0977 234.117 49.0546 234.102 49.0158 234.08C48.977 234.057 48.9432 234.026 48.9167 233.99C48.8901 233.954 48.8713 233.912 48.8615 233.868C48.8496 233.826 48.8462 233.781 48.8516 233.737C48.8571 233.693 48.8711 233.651 48.893 233.612C48.9149 233.574 48.9442 233.54 48.9793 233.513C49.0143 233.486 49.0543 233.466 49.0971 233.454C49.397 233.376 56.5441 231.476 61.4493 231.683C61.5383 231.677 61.6263 231.706 61.6939 231.764C61.7615 231.822 61.8032 231.905 61.8099 231.994C61.8165 232.083 61.7875 232.171 61.7292 232.239C61.671 232.306 61.5883 232.348 61.4993 232.355L61.4921 232.362Z" fill="white"/>
<path d="M57.9863 229.099C57.8979 229.107 57.8096 229.082 57.7393 229.027C57.669 228.973 57.622 228.894 57.6079 228.806C57.3289 226.377 57.3938 223.92 57.8007 221.509C57.818 221.422 57.869 221.345 57.9425 221.296C58.0161 221.246 58.1063 221.228 58.1934 221.245C58.2371 221.252 58.2789 221.269 58.3162 221.293C58.3536 221.317 58.3858 221.348 58.4111 221.384C58.4363 221.421 58.454 221.462 58.4632 221.506C58.4725 221.549 58.473 221.594 58.4647 221.637C58.078 223.979 58.0179 226.362 58.2862 228.72C58.2963 228.81 58.2704 228.9 58.2142 228.971C58.1581 229.042 58.0761 229.088 57.9863 229.099Z" fill="white"/>
<path opacity="0.3" d="M351.612 90.7827L219.586 14.5632C217.601 13.4208 216.016 14.349 216.016 16.6409V121.199C216.081 122.445 216.438 123.659 217.058 124.741C217.678 125.824 218.544 126.746 219.586 127.432L351.612 203.652C353.597 204.794 355.182 203.866 355.182 201.574V97.0159C355.117 95.7699 354.76 94.5565 354.14 93.4738C353.52 92.3911 352.654 91.4692 351.612 90.7827Z" fill="#AD667E"/>
<path opacity="0.5" d="M351.612 90.7827L219.586 14.5632C217.601 13.4208 216.016 14.349 216.016 16.6409V121.199C216.081 122.445 216.438 123.659 217.058 124.741C217.678 125.824 218.544 126.746 219.586 127.432L351.612 203.652C353.597 204.794 355.182 203.866 355.182 201.574V97.0159C355.117 95.7699 354.76 94.5565 354.14 93.4738C353.52 92.3911 352.654 91.4692 351.612 90.7827Z" fill="white"/>
<path opacity="0.3" d="M352.311 183.967V170.572L343.608 165.574V175.627L340.73 173.928V157.178L334.925 153.829V160.526L332.027 158.848V172.243L326.207 168.93V158.848L323.309 157.178V153.829L320.403 152.151V148.802L317.504 147.132V150.48L314.605 148.802V152.151L311.706 150.48V153.829L305.901 150.48V140.434L297.205 135.436V152.151L294.32 150.48V140.434L288.515 137.078V147.132L285.617 145.454V142.105L279.819 138.756V132.059L274.014 128.71V132.059L271.101 130.374V140.441L268.202 138.764V125.376L265.303 123.698V120.349L262.397 118.679V115.33L259.498 113.652V117.001L256.6 115.33V118.679L253.701 117.001V133.73L250.802 132.059V125.376L242.198 120.378V123.784L236.293 120.378V113.681L233.387 112.01V108.661L230.489 106.983V103.635L227.59 101.964V105.305L224.691 103.635V106.983L221.792 105.305V112.01L215.987 108.654V121.242C216.052 122.488 216.409 123.701 217.029 124.784C217.649 125.867 218.515 126.789 219.557 127.475L351.612 203.652C353.597 204.794 355.182 203.866 355.182 201.574V185.645L352.311 183.967Z" fill="#AD667E"/>
<g opacity="0.3">
<path opacity="0.3" d="M217.979 14.793C218.423 14.8151 218.853 14.9503 219.229 15.1857L351.255 91.398C352.191 92.0221 352.971 92.8538 353.533 93.8284C354.095 94.8031 354.425 95.8943 354.496 97.0172V201.575C354.496 202.132 354.368 203.425 353.218 203.425C352.775 203.403 352.345 203.267 351.969 203.032L219.943 126.805C219.005 126.183 218.224 125.352 217.662 124.377C217.099 123.402 216.771 122.31 216.701 121.186V16.6422C216.701 16.0853 216.83 14.793 217.979 14.793ZM217.979 14.079C216.801 14.079 215.987 15.0143 215.987 16.6422V121.2C216.052 122.446 216.409 123.66 217.029 124.743C217.649 125.825 218.515 126.747 219.557 127.434L351.612 203.653C352.096 203.951 352.65 204.118 353.218 204.139C354.396 204.139 355.21 203.203 355.21 201.575V97.0172C355.145 95.7712 354.788 94.5578 354.168 93.4751C353.548 92.3923 352.682 91.4705 351.64 90.784L219.586 14.5645C219.101 14.2669 218.548 14.0996 217.979 14.079Z" fill="#AD667E"/>
</g>
<path opacity="0.5" d="M254.079 68.6487L311.321 101.7C314.741 103.67 317.504 108.461 317.504 112.41V128.268C317.504 132.209 314.741 133.808 311.321 131.838L254.079 98.7866C250.666 96.816 247.896 92.0251 247.896 88.0766V72.2187C247.91 68.256 250.666 66.6781 254.079 68.6487Z" fill="white"/>
<g opacity="0.5">
<path opacity="0.5" d="M314.084 133.044C313.041 133.007 312.027 132.697 311.142 132.145L253.901 99.1008C250.395 97.073 247.539 92.1322 247.539 88.0766V72.2187C247.539 70.1767 248.253 68.6487 249.531 67.9347C250.809 67.2207 252.494 67.3492 254.258 68.3702L311.499 101.414C315.012 103.442 317.861 108.383 317.861 112.438V128.296C317.861 130.338 317.147 131.866 315.876 132.58C315.33 132.89 314.712 133.05 314.084 133.044ZM251.323 68.156C250.822 68.1488 250.329 68.2771 249.895 68.5273C248.846 69.1342 248.26 70.4408 248.26 72.2187V88.0766C248.26 91.9037 250.952 96.5661 254.265 98.4796L311.506 131.531C313.041 132.416 314.469 132.566 315.526 131.959C316.583 131.352 317.154 130.038 317.154 128.268V112.41C317.154 108.583 314.462 103.92 311.149 102.007L253.901 68.97C253.127 68.4789 252.239 68.1983 251.323 68.156Z" fill="#AD667E"/>
</g>
<g opacity="0.5">
<path opacity="0.5" d="M263.197 81.6364C263.786 81.9842 264.318 82.42 264.775 82.9287C265.242 83.45 265.656 84.0169 266.01 84.6209C266.345 85.1876 266.617 85.7884 266.824 86.413C267.004 86.9164 267.109 87.4431 267.138 87.9767C267.143 88.0248 267.137 88.0735 267.121 88.1192C267.105 88.1648 267.079 88.2064 267.045 88.2409C267.019 88.265 266.985 88.2783 266.949 88.2783C266.913 88.2783 266.879 88.265 266.853 88.2409L265.096 87.2341C264.984 87.1636 264.883 87.077 264.796 86.9771C264.71 86.8533 264.632 86.7246 264.561 86.5915C264.561 86.5344 264.496 86.4416 264.439 86.3131C264.368 86.1593 264.284 86.0113 264.189 85.8704C264.07 85.6932 263.936 85.5261 263.79 85.3706C263.615 85.1906 263.416 85.0366 263.197 84.9136C263.041 84.8257 262.879 84.7493 262.712 84.6851C262.58 84.6333 262.439 84.609 262.297 84.6137C262.24 84.616 262.183 84.6305 262.131 84.6564C262.08 84.6823 262.034 84.7188 261.998 84.7637C261.91 84.8967 261.87 85.055 261.883 85.2135C261.884 85.4156 261.928 85.6151 262.012 85.799C262.125 86.0274 262.269 86.2389 262.44 86.4273C262.69 86.7099 262.957 86.9769 263.24 87.227L264.468 88.3337C264.934 88.7458 265.366 89.1947 265.76 89.676C266.12 90.1159 266.429 90.5949 266.681 91.104C266.926 91.5992 267.11 92.1217 267.231 92.6605C267.356 93.2472 267.416 93.8458 267.41 94.4455C267.433 95.0276 267.328 95.6077 267.103 96.1448C266.929 96.5404 266.624 96.8634 266.239 97.0588C265.826 97.2412 265.366 97.2887 264.925 97.1944C264.342 97.0783 263.784 96.8608 263.276 96.5518C262.658 96.1948 262.097 95.7471 261.612 95.2238C261.122 94.6947 260.689 94.1156 260.32 93.4959C259.969 92.9075 259.685 92.2826 259.47 91.6324C259.276 91.0759 259.168 90.4934 259.149 89.9045C259.144 89.8558 259.149 89.8067 259.164 89.7601C259.179 89.7135 259.203 89.6703 259.234 89.6332C259.261 89.6091 259.295 89.5957 259.331 89.5957C259.366 89.5957 259.401 89.6091 259.427 89.6332L261.184 90.647C261.297 90.7065 261.397 90.7893 261.476 90.8898C261.559 90.9941 261.631 91.1065 261.69 91.2254L261.855 91.5895C261.938 91.7766 262.033 91.9579 262.14 92.1322C262.27 92.3506 262.423 92.5541 262.597 92.7391C262.795 92.9509 263.024 93.1315 263.276 93.2746C263.634 93.507 264.038 93.6581 264.461 93.7172C264.775 93.7458 264.932 93.553 264.932 93.1389C264.93 92.9227 264.871 92.7109 264.761 92.5249C264.615 92.2673 264.44 92.0277 264.239 91.8109C264.004 91.561 263.711 91.2754 263.347 90.9541C262.983 90.6328 262.562 90.2401 262.069 89.8045C261.21 89.0602 260.52 88.1398 260.048 87.1056C259.611 86.0969 259.394 85.0062 259.413 83.9069C259.401 83.3813 259.489 82.8581 259.67 82.3646C259.815 81.9663 260.079 81.6222 260.427 81.3793C260.783 81.1523 261.206 81.0518 261.626 81.0937C262.184 81.155 262.721 81.3405 263.197 81.6364Z" fill="#AD667E"/>
<path opacity="0.5" d="M276.534 89.5475C276.65 89.621 276.739 89.7282 276.792 89.8545C276.86 89.9973 276.896 90.1532 276.899 90.3115V92.532C276.904 92.5912 276.897 92.6508 276.879 92.7073C276.861 92.7638 276.831 92.8159 276.792 92.8605C276.756 92.8921 276.71 92.9095 276.663 92.9095C276.616 92.9095 276.57 92.8921 276.534 92.8605L274.178 91.4967V102.071C274.184 102.131 274.177 102.192 274.159 102.25C274.141 102.307 274.111 102.361 274.071 102.407C274.035 102.437 273.99 102.453 273.943 102.453C273.896 102.453 273.85 102.437 273.814 102.407L272.065 101.393C271.95 101.319 271.86 101.212 271.808 101.086C271.739 100.943 271.703 100.787 271.701 100.629V90.0544L269.345 88.6907C269.229 88.6172 269.14 88.51 269.087 88.3837C269.019 88.2409 268.983 88.085 268.98 87.9267V85.7419C268.975 85.6827 268.982 85.6231 269 85.5666C269.018 85.5101 269.048 85.458 269.087 85.4134C269.123 85.3818 269.169 85.3643 269.216 85.3643C269.263 85.3643 269.309 85.3818 269.345 85.4134L276.534 89.5475Z" fill="#AD667E"/>
<path opacity="0.5" d="M283.125 93.346C283.304 93.4557 283.446 93.6176 283.532 93.8101C283.616 93.9906 283.681 94.1798 283.724 94.3741L286.645 109.054C286.673 109.164 286.689 109.276 286.695 109.39C286.699 109.438 286.694 109.487 286.679 109.534C286.664 109.58 286.64 109.624 286.609 109.661C286.58 109.686 286.544 109.7 286.505 109.7C286.467 109.7 286.431 109.686 286.402 109.661L284.717 108.683C284.55 108.598 284.417 108.46 284.338 108.29C284.268 108.159 284.219 108.016 284.196 107.869L283.817 105.941L280.247 103.885L279.876 105.377C279.856 105.477 279.806 105.569 279.733 105.641C279.662 105.712 279.533 105.698 279.355 105.591L277.677 104.67C277.581 104.608 277.506 104.518 277.463 104.413C277.407 104.299 277.378 104.175 277.377 104.049C277.383 103.954 277.402 103.86 277.434 103.77L280.354 92.4677C280.385 92.3377 280.452 92.219 280.547 92.125C280.64 92.0251 280.776 92.0322 280.954 92.125L283.125 93.346ZM280.983 101.107L283.125 102.357L282.039 96.816L280.983 101.107Z" fill="#AD667E"/>
<path opacity="0.5" d="M292.778 98.958C293.352 99.2909 293.882 99.6938 294.356 100.158C294.82 100.617 295.219 101.139 295.541 101.707C295.877 102.305 296.13 102.946 296.291 103.613C296.473 104.349 296.561 105.105 296.555 105.862C296.598 106.66 296.456 107.456 296.141 108.19C296.033 108.422 295.869 108.624 295.663 108.776C295.457 108.928 295.216 109.026 294.963 109.061L296.619 114.93C296.646 115.011 296.66 115.095 296.662 115.18C296.667 115.228 296.662 115.276 296.647 115.321C296.633 115.367 296.608 115.409 296.577 115.444C296.547 115.47 296.509 115.484 296.469 115.484C296.43 115.484 296.392 115.47 296.362 115.444L294.542 114.395C294.374 114.304 294.242 114.161 294.163 113.988C294.091 113.836 294.031 113.678 293.985 113.516L292.5 108.24L291.264 107.526V111.939C291.27 111.998 291.263 112.057 291.245 112.114C291.226 112.17 291.197 112.222 291.157 112.267C291.122 112.299 291.076 112.316 291.029 112.316C290.981 112.316 290.936 112.299 290.9 112.267L289.151 111.253C289.037 111.175 288.947 111.066 288.894 110.939C288.825 110.799 288.788 110.645 288.787 110.489V97.173C288.782 97.1139 288.789 97.0543 288.807 96.9979C288.825 96.9415 288.855 96.8893 288.894 96.8446C288.93 96.8144 288.975 96.7978 289.022 96.7978C289.069 96.7978 289.115 96.8144 289.151 96.8446L292.778 98.958ZM291.264 104.334L292.778 105.206C292.91 105.302 293.061 105.37 293.221 105.406C293.38 105.441 293.546 105.444 293.706 105.413C293.956 105.334 294.078 105.006 294.078 104.427C294.104 103.924 293.974 103.426 293.706 102.999C293.468 102.643 293.15 102.347 292.778 102.135L291.264 101.257V104.334Z" fill="#AD667E"/>
<path opacity="0.5" d="M305.901 106.498C306.013 106.577 306.1 106.686 306.151 106.812C306.222 106.952 306.261 107.105 306.265 107.262V109.454C306.27 109.513 306.262 109.573 306.242 109.63C306.222 109.686 306.191 109.738 306.151 109.782C306.116 109.812 306.072 109.828 306.026 109.828C305.98 109.828 305.936 109.812 305.901 109.782L303.545 108.426V119C303.55 119.059 303.543 119.119 303.525 119.175C303.506 119.232 303.477 119.284 303.438 119.328C303.403 119.36 303.357 119.378 303.309 119.378C303.262 119.378 303.216 119.36 303.181 119.328L301.46 118.35C301.349 118.272 301.262 118.163 301.21 118.036C301.141 117.896 301.104 117.742 301.103 117.586V107.005L298.747 105.648C298.633 105.571 298.543 105.461 298.49 105.334C298.421 105.194 298.384 105.04 298.383 104.884V102.699C298.377 102.639 298.384 102.578 298.402 102.521C298.421 102.463 298.45 102.41 298.49 102.364C298.526 102.334 298.571 102.317 298.618 102.317C298.665 102.317 298.711 102.334 298.747 102.364L305.901 106.498Z" fill="#AD667E"/>
</g>
<path opacity="0.3" d="M229.047 26.3656C230.312 27.1929 231.365 28.3065 232.121 29.6164C232.876 30.9263 233.313 32.3956 233.395 33.9055C233.395 36.6758 231.446 37.8039 229.047 36.4116C227.779 35.5876 226.725 34.4757 225.969 33.1666C225.214 31.8575 224.778 30.3883 224.698 28.8789C224.698 26.13 226.64 24.9805 229.047 26.3656Z" fill="#AD667E"/>
<path d="M231.56 32.0277C231.559 31.5361 231.457 31.0499 231.26 30.5997C231.082 30.1253 230.763 29.7167 230.346 29.4287C229.717 29.0574 229.196 29.8071 229.11 30.6925C229.039 29.7143 228.525 28.3577 227.897 27.9864C227.757 27.89 227.588 27.8463 227.419 27.8633C227.25 27.8803 227.093 27.9569 226.976 28.0792C226.749 28.3883 226.637 28.7674 226.661 29.1502C226.661 30.6496 227.554 32.0062 228.304 33.4342L229.103 34.9336L229.903 34.3696C230.653 33.8198 231.56 33.5271 231.56 32.0277Z" fill="#FAFAFA"/>
<path opacity="0.3" d="M242.098 33.9055C243.371 34.7268 244.431 35.8372 245.193 37.1463C245.955 38.4554 246.397 39.926 246.482 41.4382C246.482 44.2156 244.533 45.3366 242.134 43.9515C240.867 43.1251 239.814 42.0116 239.058 40.7016C238.303 39.3915 237.867 37.9218 237.786 36.4116C237.75 33.6413 239.692 32.5132 242.098 33.9055Z" fill="#AD667E"/>
<path d="M244.555 39.5818C244.547 39.0902 244.443 38.6049 244.248 38.1538C244.068 37.6765 243.746 37.2655 243.326 36.9757C242.705 36.6115 242.177 37.3612 242.098 38.2466C242.02 37.2684 241.506 35.9047 240.885 35.5405C240.744 35.4421 240.574 35.3974 240.403 35.4144C240.233 35.4314 240.074 35.5091 239.956 35.6333C239.728 35.9419 239.617 36.3214 239.642 36.7043C239.642 38.2037 240.535 39.5603 241.284 40.9883L242.077 42.4877L242.912 41.9094C243.626 41.3739 244.547 41.074 244.555 39.5818Z" fill="#FAFAFA"/>
<path opacity="0.3" d="M255.15 41.4382C256.416 42.265 257.47 43.3785 258.225 44.6885C258.981 45.9984 259.417 47.468 259.498 48.978C259.498 51.7555 257.549 52.8764 255.15 51.4913C253.88 50.6721 252.822 49.565 252.06 48.2599C251.298 46.9548 250.855 45.4885 250.766 43.98C250.766 41.174 252.744 40.053 255.15 41.4382Z" fill="#AD667E"/>
<path d="M257.606 47.1145C257.601 46.6227 257.496 46.1371 257.299 45.6865C257.116 45.2127 256.796 44.8048 256.378 44.5155C255.75 44.1442 255.229 44.8939 255.15 45.7793C255.072 44.8011 254.557 43.4445 253.929 43.0732C253.79 42.9768 253.62 42.9332 253.452 42.9502C253.283 42.9672 253.126 43.0437 253.008 43.1661C252.778 43.4742 252.665 43.8534 252.687 44.2371C252.687 45.7365 253.579 47.0931 254.336 48.5211L255.129 50.0205L255.928 49.4564C256.692 48.9066 257.599 48.6139 257.606 47.1145Z" fill="#FAFAFA"/>
<path d="M267.902 49.7991L328.749 84.9279C329.631 85.4809 330.371 86.2338 330.908 87.1257C331.445 88.0175 331.765 89.0233 331.841 90.0616C331.841 91.9108 330.456 92.6105 328.749 91.6252L267.902 56.4964C267.02 55.9434 266.281 55.1905 265.744 54.2986C265.206 53.4068 264.887 52.401 264.811 51.3628C264.832 49.5135 266.217 48.8138 267.902 49.7991Z" fill="#FAFAFA"/>
<path opacity="0.5" d="M266.545 52.341C266.583 52.8603 266.742 53.3636 267.01 53.8101C267.278 54.2566 267.647 54.6339 268.088 54.9114L329.213 90.2472C330.063 90.7399 330.755 90.39 330.755 89.4618C330.717 88.9437 330.557 88.4419 330.289 87.9967C330.021 87.5515 329.653 87.1754 329.213 86.8986L268.088 51.5627C267.238 51.07 266.545 51.4199 266.545 52.341Z" fill="#AD667E"/>
<g opacity="0.3">
<path opacity="0.3" d="M335.018 90.597C335.002 90.5266 335.002 90.4533 335.018 90.3828C335.017 90.3559 335.023 90.3291 335.035 90.3052C335.048 90.2813 335.067 90.2613 335.09 90.2472L336.468 89.4118L336.596 89.3404C336.623 89.3272 336.652 89.3203 336.682 89.3203C336.712 89.3203 336.741 89.3272 336.767 89.3404L337.546 89.7902C337.602 89.8251 337.645 89.8779 337.667 89.9402C337.702 90.009 337.721 90.0845 337.724 90.1615V96.5518C337.727 96.5806 337.723 96.6095 337.713 96.6366C337.703 96.6637 337.687 96.6884 337.667 96.7089C337.667 96.7446 337.596 96.7446 337.546 96.7089L336.703 96.2234C336.649 96.1863 336.607 96.1342 336.582 96.0734C336.552 96.0058 336.535 95.9331 336.532 95.8592V91.5324L335.768 91.9822C335.735 92.0108 335.692 92.0108 335.639 91.9822C335.586 91.9395 335.547 91.8825 335.525 91.818L335.018 90.597Z" fill="#AD667E"/>
<path opacity="0.3" d="M340.83 91.6181C341.148 91.8033 341.428 92.0453 341.658 92.3321C341.892 92.6088 342.087 92.9163 342.237 93.246C342.388 93.5851 342.503 93.9393 342.579 94.3027C342.65 94.6655 342.693 95.0331 342.708 95.4023C342.708 95.6879 342.708 95.9878 342.708 96.3019C342.708 96.6161 342.708 96.8946 342.708 97.1659C342.697 97.4836 342.654 97.7994 342.579 98.1084C342.522 98.3545 342.404 98.5826 342.237 98.7724C342.084 98.928 341.876 99.0176 341.658 99.0223C341.363 99.0109 341.077 98.9196 340.83 98.7581C340.514 98.5709 340.233 98.3292 340.002 98.0441C339.773 97.7654 339.581 97.4582 339.431 97.1302C339.273 96.7936 339.158 96.4386 339.088 96.0735C339.011 95.7114 338.966 95.3436 338.952 94.9739C338.952 94.7026 338.952 94.4098 338.952 94.0957C338.952 93.7815 338.952 93.4888 338.952 93.2103C338.961 92.892 339.007 92.5758 339.088 92.2678C339.141 92.02 339.259 91.7908 339.431 91.6038C339.581 91.4493 339.786 91.3596 340.002 91.3539C340.297 91.3607 340.585 91.4524 340.83 91.6181ZM341.544 96.409C341.544 95.8521 341.544 95.3023 341.544 94.7454C341.544 94.5741 341.544 94.4098 341.501 94.2599C341.475 94.1142 341.437 93.9709 341.387 93.8315C341.336 93.7027 341.266 93.5824 341.18 93.4745C341.09 93.3636 340.981 93.2693 340.859 93.196C340.764 93.1316 340.652 93.0991 340.537 93.1032C340.496 93.1072 340.456 93.1201 340.42 93.1411C340.385 93.1621 340.354 93.1905 340.33 93.2246C340.275 93.3144 340.236 93.4136 340.216 93.5173C340.193 93.6592 340.179 93.8022 340.173 93.9457C340.173 94.4812 340.173 95.0381 340.173 95.6093C340.176 95.7696 340.19 95.9295 340.216 96.0877C340.234 96.2352 340.272 96.3795 340.33 96.5161C340.379 96.6479 340.449 96.7708 340.537 96.8803C340.627 96.9912 340.736 97.0854 340.859 97.1587C340.953 97.2232 341.066 97.2557 341.18 97.2516C341.221 97.248 341.261 97.2353 341.297 97.2143C341.333 97.1933 341.364 97.1646 341.387 97.1302C341.449 97.0429 341.49 96.9429 341.508 96.8374C341.522 96.6951 341.525 96.5518 341.515 96.409H341.544Z" fill="#AD667E"/>
<path opacity="0.3" d="M347.42 97.7442C347.421 97.9212 347.407 98.098 347.377 98.2726C347.356 98.4255 347.313 98.5746 347.249 98.7152C347.187 98.8484 347.105 98.9712 347.006 99.0794C346.898 99.1911 346.772 99.2851 346.635 99.3578L345.735 99.8862L347.349 100.822C347.403 100.859 347.445 100.911 347.47 100.971C347.504 101.038 347.521 101.111 347.52 101.186V102.235C347.523 102.263 347.521 102.292 347.512 102.319C347.504 102.346 347.489 102.371 347.47 102.392C347.462 102.4 347.453 102.407 347.442 102.411C347.432 102.415 347.421 102.418 347.41 102.418C347.398 102.418 347.387 102.415 347.377 102.411C347.366 102.407 347.357 102.4 347.349 102.392L343.957 100.436C343.901 100.401 343.858 100.348 343.836 100.286C343.8 100.22 343.781 100.147 343.779 100.072V99.215C343.778 99.1159 343.793 99.0172 343.822 98.9223C343.832 98.8843 343.85 98.8489 343.874 98.8181C343.899 98.7874 343.93 98.7621 343.964 98.7438L345.885 97.7371C346.017 97.6758 346.119 97.5657 346.171 97.43C346.208 97.3073 346.227 97.1798 346.228 97.0516C346.228 97.0016 346.228 96.9374 346.228 96.8446C346.212 96.7474 346.189 96.6519 346.156 96.559C346.112 96.4516 346.057 96.3488 345.992 96.2519C345.914 96.1467 345.814 96.0591 345.699 95.9949C345.659 95.9642 345.613 95.942 345.564 95.9297C345.515 95.9174 345.464 95.9153 345.414 95.9235C345.344 95.9373 345.281 95.9752 345.235 96.0306C345.196 96.0892 345.167 96.1545 345.15 96.2234C345.15 96.2948 345.114 96.3448 345.107 96.3805C345.1 96.4162 345.05 96.5018 345.007 96.509C344.951 96.507 344.897 96.4897 344.85 96.459L344.057 96.0092C344.013 95.9756 343.979 95.9314 343.957 95.8807C343.93 95.8277 343.915 95.769 343.914 95.7093C343.918 95.4506 343.956 95.1936 344.029 94.9453C344.094 94.7352 344.209 94.5441 344.364 94.3884C344.514 94.2493 344.71 94.1705 344.914 94.1671C345.194 94.1717 345.466 94.2559 345.699 94.4098C345.982 94.5765 346.236 94.7888 346.449 95.0381C346.662 95.2896 346.844 95.5652 346.992 95.8592C347.133 96.159 347.243 96.4724 347.32 96.7946C347.388 97.1066 347.421 97.425 347.42 97.7442Z" fill="#AD667E"/>
<path opacity="0.3" d="M349.698 101.7L349.798 101.95C349.835 102.04 349.88 102.126 349.934 102.207C349.984 102.298 350.047 102.382 350.119 102.457C350.192 102.541 350.279 102.611 350.376 102.664C350.453 102.716 350.541 102.748 350.633 102.756C350.703 102.782 350.778 102.782 350.848 102.756C350.917 102.716 350.97 102.653 350.998 102.578C351.042 102.469 351.062 102.352 351.055 102.235C351.054 102.008 350.995 101.784 350.883 101.585C350.777 101.385 350.616 101.22 350.419 101.107C350.367 101.073 350.309 101.051 350.248 101.043H350.098H349.977C349.944 101.054 349.909 101.054 349.877 101.043L348.877 100.465C348.822 100.424 348.778 100.37 348.748 100.307C348.714 100.242 348.699 100.167 348.706 100.093L348.898 96.6732C348.896 96.6166 348.914 96.561 348.948 96.5161C348.956 96.5081 348.966 96.5018 348.976 96.4975C348.987 96.4931 348.998 96.4909 349.009 96.4909C349.02 96.4909 349.031 96.4931 349.042 96.4975C349.052 96.5018 349.062 96.5081 349.07 96.5161L351.819 98.1012C351.873 98.1379 351.915 98.1901 351.94 98.2511C351.973 98.3176 351.99 98.391 351.99 98.4653V99.5149C351.993 99.5431 351.991 99.5717 351.982 99.5988C351.973 99.6259 351.959 99.6509 351.94 99.672C351.932 99.68 351.923 99.6863 351.912 99.6906C351.902 99.695 351.891 99.6972 351.879 99.6972C351.868 99.6972 351.857 99.695 351.846 99.6906C351.836 99.6863 351.827 99.68 351.819 99.672L349.948 98.5867L349.905 99.4435C349.992 99.4254 350.082 99.4254 350.169 99.4435C350.288 99.4644 350.402 99.5081 350.505 99.572C350.77 99.7196 351.011 99.9075 351.219 100.129C351.436 100.362 351.623 100.621 351.776 100.9C351.936 101.198 352.059 101.514 352.14 101.843C352.229 102.195 352.275 102.557 352.276 102.921C352.286 103.249 352.235 103.575 352.126 103.885C352.056 104.103 351.915 104.291 351.726 104.42C351.552 104.536 351.34 104.582 351.133 104.549C350.88 104.509 350.637 104.419 350.419 104.284C350.129 104.116 349.865 103.907 349.634 103.663C349.408 103.42 349.214 103.148 349.055 102.856C348.901 102.578 348.779 102.284 348.691 101.978C348.607 101.698 348.562 101.407 348.556 101.114C348.553 101.066 348.565 101.019 348.591 100.979C348.607 100.968 348.626 100.962 348.645 100.962C348.664 100.962 348.683 100.968 348.698 100.979L349.512 101.45C349.577 101.489 349.63 101.543 349.669 101.607C349.68 101.638 349.69 101.668 349.698 101.7Z" fill="#AD667E"/>
</g>
<path d="M197.038 247.192C196.98 247.07 193.061 240.266 193.061 240.266C193.061 240.266 193.903 240.766 197.844 238.545C199.317 237.647 200.69 236.596 201.943 235.411L204.556 240.444C206.22 242.215 209.711 240.287 213.688 238.752C214.352 238.495 215.03 238.195 215.709 237.888H215.751C217.929 237.174 220.5 237.931 218.693 240.423C216.887 242.915 213.281 244.614 209.947 246.135C205.934 248.006 198.88 251.169 197.038 247.192Z" fill="#B16668"/>
<path d="M226.283 238.859C226.766 239.481 227.074 240.22 227.176 241.001C227.304 241.837 226.012 245.135 222.892 247.756C219.771 250.376 215.387 251.647 213.481 252.754C211.575 253.86 209.99 255.567 207.712 256.795C205.434 258.023 203.114 258.937 200.258 257.994C199.629 257.416 198.708 255.952 198.83 255.76C199.094 255.324 226.283 238.859 226.283 238.859Z" fill="#263238"/>
<path d="M205.384 240.994C207.233 241.665 210.282 240.066 213.688 238.752C216.894 237.51 220.314 235.375 222.77 235.568C225.226 235.76 227.768 237.917 225.626 242.101C224.998 243.315 223.591 245.528 222.242 246.449C218.822 248.784 215.459 249.776 213.188 251.011C210.232 252.618 208.868 254.467 206.048 255.574C202.378 257.002 199.729 256.652 198.815 255.817C197.901 254.981 195.16 246.984 196.823 246.735C196.823 246.735 198.194 249.191 203.706 245.014C206.112 243.186 205.641 241.558 205.384 240.994Z" fill="#AD667E"/>
<path opacity="0.4" d="M205.384 240.994C207.233 241.665 210.282 240.066 213.688 238.752C216.894 237.51 220.314 235.375 222.77 235.568C225.226 235.76 227.768 237.917 225.626 242.101C224.998 243.315 223.591 245.528 222.242 246.449C218.822 248.784 215.459 249.776 213.188 251.011C210.232 252.618 208.868 254.467 206.048 255.574C202.378 257.002 199.729 256.652 198.815 255.817C197.901 254.981 195.16 246.984 196.823 246.735C196.823 246.735 198.194 249.191 203.706 245.014C206.112 243.186 205.641 241.558 205.384 240.994Z" fill="black"/>
<path d="M217.015 242.622C217.015 242.622 215.759 239.28 212.981 239.052C212.726 239.007 212.464 239.035 212.224 239.132C211.984 239.229 211.776 239.392 211.625 239.602C211.625 239.602 214.074 239.33 215.909 243.172C215.909 243.172 216.101 243.4 216.587 243.172C216.751 243.072 217.108 242.9 217.015 242.622Z" fill="#FAFAFA"/>
<path d="M209.533 240.416C209.533 240.416 209.497 240.301 210.068 240.03C210.287 239.915 210.54 239.88 210.782 239.93C210.782 239.93 212.924 240.251 214.188 243.757C214.208 243.908 214.176 244.061 214.097 244.191C214.017 244.321 213.896 244.42 213.752 244.471C213.691 244.512 213.621 244.541 213.548 244.554C213.475 244.567 213.4 244.566 213.328 244.549C213.256 244.532 213.188 244.501 213.128 244.457C213.069 244.413 213.019 244.357 212.981 244.293C212.981 244.293 211.603 240.608 209.533 240.416Z" fill="#FAFAFA"/>
<path d="M207.512 241.044C207.512 241.044 207.562 240.794 208.012 240.687C208.576 240.537 208.761 240.687 208.761 240.687C208.761 240.687 210.475 241.715 211.274 244.721C211.274 244.721 211.46 245.214 210.768 245.435C210.075 245.656 210.054 245.071 210.054 245.071C210.054 245.071 208.775 241.337 207.512 241.044Z" fill="#FAFAFA"/>
<path d="M181.408 198.061C186.942 206.565 203.542 236.467 203.542 236.467C203.542 236.467 199.451 242.665 193.075 241.994L168.799 205.694L181.408 198.061Z" fill="#37474F"/>
<path d="M220.271 259.665C219.443 258.844 215.708 252.725 215.708 252.725C215.708 252.725 218.507 253.653 222.62 251.761C224.712 250.797 226.283 247.998 226.283 247.998L229.403 253.975C230.924 255.874 234.308 254.46 238.392 253.261C239.106 253.061 239.777 252.818 240.477 252.547H240.52C242.755 252.025 245.247 252.982 243.247 255.31C241.248 257.637 237.535 259.051 234.058 260.308C229.917 261.843 223.391 262.75 220.271 259.665Z" fill="#B16668"/>
<path d="M252.515 252.975C252.983 253.693 253.247 254.525 253.279 255.381C253.35 256.288 251.68 259.701 248.103 262.236C244.525 264.77 239.735 265.741 237.592 266.791C235.45 267.84 233.616 269.497 231.067 270.611C228.518 271.725 225.954 272.531 222.977 271.239C222.356 270.568 221.506 268.919 221.635 268.719C221.977 268.176 252.515 252.975 252.515 252.975Z" fill="#263238"/>
<path d="M229.988 253.368C230.277 253.494 230.573 253.604 230.874 253.696C231.174 253.75 231.481 253.75 231.78 253.696C232.504 253.634 233.22 253.51 233.922 253.325C235.657 252.882 237.35 252.268 239.07 251.761C242.64 250.712 246.46 248.727 249.066 249.148C251.673 249.569 254.479 252.004 251.808 256.331C250.784 257.999 249.48 259.477 247.953 260.7C244.261 263.192 240.02 263.721 237.478 264.842C234.18 266.305 232.559 268.162 229.424 269.126C225.376 270.332 222.57 269.725 221.663 268.747C221.156 268.205 220.949 264.884 219.907 262.471C219.021 260.401 218.843 258.901 219.642 258.844C219.866 259.09 220.12 259.306 220.399 259.487C220.714 259.737 221.076 259.921 221.463 260.029C222.004 260.159 222.557 260.229 223.112 260.236C224.101 260.336 225.1 260.273 226.068 260.051C226.341 259.992 226.59 259.853 226.782 259.651C226.989 259.334 227.08 258.956 227.039 258.58C227.039 258.251 227.039 257.916 227.039 257.587C227.03 257.406 227.054 257.224 227.111 257.052C227.208 256.859 227.35 256.693 227.525 256.566C228.084 256.174 228.539 255.652 228.853 255.046C229.022 254.54 229.078 254.004 229.017 253.475C229.006 253.383 229.026 253.29 229.074 253.211C229.174 253.096 229.36 253.139 229.503 253.211C229.646 253.282 229.824 253.296 229.988 253.368Z" fill="#AD667E"/>
<path opacity="0.4" d="M229.988 253.368C230.277 253.494 230.573 253.604 230.874 253.696C231.174 253.75 231.481 253.75 231.78 253.696C232.504 253.634 233.22 253.51 233.922 253.325C235.657 252.882 237.35 252.268 239.07 251.761C242.64 250.712 246.46 248.727 249.066 249.148C251.673 249.569 254.479 252.004 251.808 256.331C250.784 257.999 249.48 259.477 247.953 260.7C244.261 263.192 240.02 263.721 237.478 264.842C234.18 266.305 232.559 268.162 229.424 269.126C225.376 270.332 222.57 269.725 221.663 268.747C221.156 268.205 220.949 264.884 219.907 262.471C219.021 260.401 218.843 258.901 219.642 258.844C219.866 259.09 220.12 259.306 220.399 259.487C220.714 259.737 221.076 259.921 221.463 260.029C222.004 260.159 222.557 260.229 223.112 260.236C224.101 260.336 225.1 260.273 226.068 260.051C226.341 259.992 226.59 259.853 226.782 259.651C226.989 259.334 227.08 258.956 227.039 258.58C227.039 258.251 227.039 257.916 227.039 257.587C227.03 257.406 227.054 257.224 227.111 257.052C227.208 256.859 227.35 256.693 227.525 256.566C228.084 256.174 228.539 255.652 228.853 255.046C229.022 254.54 229.078 254.004 229.017 253.475C229.006 253.383 229.026 253.29 229.074 253.211C229.174 253.096 229.36 253.139 229.503 253.211C229.646 253.282 229.824 253.296 229.988 253.368Z" fill="black"/>
<path d="M242.262 256.195C242.262 256.195 241.22 252.504 238.264 251.997C237.995 251.928 237.712 251.936 237.447 252.019C237.182 252.102 236.946 252.258 236.765 252.468C236.765 252.468 239.414 252.389 241.049 256.652C241.049 256.652 241.227 256.916 241.763 256.716C241.941 256.652 242.348 256.502 242.262 256.195Z" fill="#FAFAFA"/>
<path d="M234.451 253.182C234.451 253.182 234.451 253.061 235.058 252.825C235.304 252.72 235.579 252.703 235.836 252.775C235.836 252.775 238.064 253.303 239.142 257.166C239.148 257.327 239.098 257.486 239.002 257.615C238.907 257.745 238.77 257.838 238.614 257.88C238.544 257.918 238.467 257.942 238.388 257.949C238.308 257.957 238.228 257.949 238.152 257.925C238.076 257.901 238.006 257.862 237.945 257.81C237.885 257.758 237.835 257.694 237.8 257.623C237.8 257.623 236.65 253.56 234.451 253.182Z" fill="#FAFAFA"/>
<path d="M232.238 253.646C232.238 253.646 232.316 253.389 232.802 253.311C233.416 253.203 233.602 253.418 233.602 253.418C233.602 253.418 235.344 254.667 235.936 257.952C235.936 257.952 236.093 258.494 235.329 258.666C234.565 258.837 234.565 258.216 234.565 258.216C234.565 258.216 233.566 254.096 232.238 253.646Z" fill="#FAFAFA"/>
<path d="M208.148 210.278C212.146 217.375 222.071 238.624 227.19 249.169C224.617 252.308 220.956 254.363 216.937 254.924L190.076 217.989L198.073 211.256L208.148 210.278Z" fill="#455A64"/>
<path d="M116.62 202.974C116.62 202.974 149.05 193.185 154.69 191.642C160.331 190.1 170.669 188.029 173.832 189.45C176.995 190.871 178.78 193.363 180.708 196.405C182.707 199.561 184.178 202.438 184.178 202.438C184.178 202.438 162.944 208.243 150.092 208.243C137.24 208.243 116.62 202.974 116.62 202.974Z" fill="#37474F"/>
<path d="M118.89 190.221C116.855 197.169 114.207 209.549 123.567 218.589C127.216 222.116 148.143 233.333 160.995 229.391C175.354 224.986 192.497 216.497 192.497 216.497C192.497 216.497 201.165 217.004 203.985 215.376C206.805 213.748 208.519 211.056 208.148 210.278C203.671 200.996 199.944 196.169 190.255 197.14C178.402 198.325 158.653 201.924 158.653 201.924L118.89 190.221Z" fill="#455A64"/>
<path d="M167.135 139.913C160.995 134.537 152.377 136.986 147.586 141.648C140.246 148.788 135.891 157.856 137.504 162.354C139.382 167.502 167.135 139.913 167.135 139.913Z" fill="#455A64"/>
<path d="M239.678 171.365C239.806 170.472 239.085 169.458 237.629 168.716L220.635 160.026C218.034 158.874 215.11 158.671 212.374 159.455L196.838 164.81C195.481 165.281 194.739 165.938 194.696 166.581C194.66 167.052 194.41 168.88 194.396 169.401C194.382 169.922 194.717 170.308 195.438 170.672C197.181 171.565 201.086 171.857 204.156 171.329L208.098 170.658C211.168 170.13 215.066 170.422 216.801 171.3C217.854 171.812 218.697 172.672 219.186 173.735L218.272 176.898C218.054 177.473 218.054 178.108 218.272 178.683L217.986 179.683C217.637 180.875 217.522 182.125 220.493 183.438C221.426 183.907 222.464 184.131 223.507 184.089C224.551 184.048 225.568 183.743 226.462 183.203L238.507 175.349C238.737 175.22 238.936 175.042 239.09 174.827C239.243 174.613 239.346 174.366 239.392 174.107C239.449 173.642 239.614 171.822 239.678 171.365Z" fill="#455A64"/>
<path d="M219.971 175.863L220.028 167.623L214.902 166.281L214.438 170.622C215.254 170.734 216.05 170.963 216.801 171.3C217.854 171.812 218.696 172.672 219.186 173.735L218.814 175.013L219.971 175.863Z" fill="#263238"/>
<path d="M238.735 169.451C240.284 170.879 240.399 171.3 239.97 176.927C239.542 182.553 238.264 182.703 236.822 181.739C235.379 180.775 234.401 178.098 232.63 179.19L238.735 169.451Z" fill="#455A64"/>
<path d="M195.738 167.888C197.48 168.78 201.386 169.073 204.456 168.544L208.397 167.873C211.467 167.345 215.366 167.638 217.101 168.516C218.836 169.394 219.957 171.086 219.607 172.279L218.272 176.898C217.922 178.091 217.808 179.34 220.778 180.654C221.712 181.121 222.749 181.345 223.793 181.304C224.836 181.263 225.853 180.958 226.747 180.418L238.792 172.6C240.356 171.586 239.834 169.844 237.628 168.716L220.635 160.026C218.033 158.874 215.109 158.671 212.374 159.455L196.837 164.81C194.481 165.624 193.988 167.002 195.738 167.888Z" fill="#AD667E"/>
<path opacity="0.2" d="M195.738 167.888C197.48 168.78 201.386 169.073 204.456 168.544L208.397 167.873C211.467 167.345 215.366 167.638 217.101 168.516C218.836 169.394 219.957 171.086 219.607 172.279L218.272 176.898C217.922 178.091 217.808 179.34 220.778 180.654C221.712 181.121 222.749 181.345 223.793 181.304C224.836 181.263 225.853 180.958 226.747 180.418L238.792 172.6C240.356 171.586 239.834 169.844 237.628 168.716L220.635 160.026C218.033 158.874 215.109 158.671 212.374 159.455L196.837 164.81C194.481 165.624 193.988 167.002 195.738 167.888Z" fill="black"/>
<path d="M233.494 168.673C233.48 168.58 233.441 168.492 233.383 168.418C233.324 168.344 233.247 168.287 233.159 168.252C232.859 168.112 232.534 168.032 232.203 168.019C231.872 168.005 231.542 168.058 231.231 168.173C230.931 168.295 230.781 168.459 230.767 168.637C230.753 168.816 230.703 169.187 230.696 169.308C230.688 169.43 230.803 169.63 231.031 169.758C231.637 170.04 232.33 170.071 232.959 169.844C233.245 169.73 233.402 169.565 233.423 169.394C233.444 169.223 233.502 168.809 233.494 168.673Z" fill="#263238"/>
<path d="M229.389 170.358C229.378 170.261 229.341 170.168 229.282 170.09C229.223 170.013 229.144 169.952 229.053 169.915C228.753 169.775 228.428 169.696 228.097 169.682C227.766 169.669 227.436 169.721 227.125 169.837C226.84 169.951 226.683 170.115 226.668 170.279C226.654 170.444 226.597 170.858 226.59 170.993C226.601 171.091 226.638 171.183 226.697 171.261C226.756 171.339 226.835 171.399 226.925 171.436C227.532 171.718 228.224 171.749 228.853 171.522C229.139 171.408 229.296 171.243 229.317 171.079C229.339 170.915 229.389 170.494 229.389 170.358Z" fill="#37474F"/>
<path d="M229.639 168.537C229.639 168.38 229.532 168.216 229.303 168.087C228.697 167.806 228.004 167.775 227.376 168.002C227.09 168.116 226.933 168.28 226.911 168.452C226.89 168.623 226.854 169.016 226.84 169.13C226.826 169.244 226.94 169.458 227.176 169.594C227.476 169.734 227.801 169.813 228.132 169.827C228.463 169.84 228.793 169.788 229.103 169.673C229.396 169.558 229.553 169.387 229.568 169.216C229.582 169.044 229.632 168.659 229.639 168.537Z" fill="#263238"/>
<path d="M233.237 170.551C233.237 170.394 233.137 170.229 232.902 170.101C232.603 169.959 232.28 169.879 231.95 169.864C231.62 169.85 231.291 169.901 230.981 170.015C230.695 170.13 230.538 170.294 230.517 170.458C230.496 170.622 230.46 171.022 230.446 171.172C230.431 171.322 230.538 171.5 230.781 171.643C231.388 171.923 232.081 171.951 232.709 171.722C232.995 171.607 233.144 171.443 233.166 171.279C233.187 171.115 233.237 170.672 233.237 170.551Z" fill="#37474F"/>
<path d="M231.231 168.173C230.66 168.402 230.61 168.816 231.103 169.094C231.709 169.376 232.402 169.407 233.03 169.18C233.602 168.944 233.652 168.53 233.159 168.252C232.859 168.112 232.534 168.032 232.203 168.019C231.872 168.005 231.542 168.058 231.231 168.173Z" fill="#455A64"/>
<path d="M227.125 169.851C226.561 170.08 226.504 170.494 226.997 170.772C227.603 171.054 228.296 171.085 228.924 170.858C229.496 170.622 229.553 170.208 229.053 169.93C228.753 169.789 228.428 169.71 228.097 169.697C227.766 169.683 227.436 169.736 227.125 169.851Z" fill="#455A64"/>
<path d="M227.375 168.002C226.804 168.237 226.747 168.644 227.247 168.923C227.546 169.064 227.871 169.145 228.202 169.159C228.533 169.174 228.863 169.123 229.174 169.009C229.738 168.78 229.796 168.366 229.303 168.087C228.697 167.806 228.004 167.775 227.375 168.002Z" fill="#455A64"/>
<path d="M230.981 170.015C230.41 170.244 230.353 170.658 230.853 170.936C231.459 171.218 232.152 171.249 232.78 171.022C233.344 170.786 233.402 170.379 232.902 170.101C232.603 169.959 232.28 169.879 231.95 169.864C231.62 169.85 231.291 169.901 230.981 170.015Z" fill="#455A64"/>
<path d="M218.029 161.162L216.223 160.155L214.174 160.99L212.367 159.984L210.311 160.826L210.232 161.59L211.282 162.176L210.068 162.668L209.982 163.432L211.789 164.439L213.838 163.596L215.644 164.603L217.694 163.768L217.779 163.004L216.73 162.418L217.943 161.919L218.029 161.162Z" fill="#37474F"/>
<path d="M216.223 160.155L214.173 160.99L212.367 159.984L210.311 160.826L212.117 161.833L210.068 162.668L211.867 163.675L213.923 162.84L215.723 163.846L217.779 163.004L215.973 161.997L218.029 161.162L216.223 160.155Z" fill="#455A64"/>
<path d="M213.923 162.84L213.838 163.596L211.789 164.439L211.867 163.675L213.923 162.84Z" fill="#263238"/>
<path d="M215.973 161.997L216.73 162.418L217.943 161.918L218.029 161.162L215.973 161.997Z" fill="#263238"/>
<path d="M217.779 163.004L217.694 163.768L215.645 164.603L215.723 163.846L217.779 163.004Z" fill="#263238"/>
<path d="M212.117 161.833L210.311 160.826L210.225 161.626L211.282 162.176L212.117 161.833Z" fill="#263238"/>
<path d="M196.681 159.527C200.965 158.556 203.514 159.305 207.162 159.155C208.34 159.112 209.34 158.477 209.918 158.584C211.025 158.798 210.939 159.948 210.225 160.726C209.511 161.504 208.69 162.24 205.527 162.732C202.828 163.161 202.721 162.854 199.558 163.832L196.095 165.46L194.881 162.483L196.681 159.527Z" fill="#B16668"/>
<path d="M204.356 159.155C202.08 158.178 199.568 157.89 197.13 158.327C193.639 159.155 194.888 162.732 194.888 162.732L204.356 159.155Z" fill="#B16668"/>
<path d="M187.141 141.02L176.788 150.28L163.115 145.482L172.883 131.909L187.141 141.02Z" fill="#B16668"/>
<path d="M197.43 123.234C197.43 123.234 200.9 128.503 200.508 129.025C200.115 129.546 197.552 130.01 197.552 130.01L197.43 123.234Z" fill="#9A4A4D"/>
<path d="M187.784 108.683C194.81 110.161 196.838 113.252 197.502 124.391C198.216 136.057 197.002 139.727 195.474 141.298C194.439 142.355 188.691 142.548 185.792 141.748C182.158 140.748 173.954 137.842 170.084 131.973C165.572 125.069 164.372 115.716 169.22 111.874C176.053 106.498 184.928 108.076 187.784 108.683Z" fill="#B16668"/>
<path d="M186.113 141.848C189.134 142.605 193.76 142.298 195.153 141.541C193.452 141.864 191.697 141.758 190.047 141.234C188.402 140.761 186.84 140.039 185.414 139.092L186.113 141.848Z" fill="#9A4A4D"/>
<path d="M199.058 113.502C197.052 114.816 194.639 115.323 192.268 115.644C192.411 117.536 191.768 119.393 191.14 121.185C190.704 122.427 189.148 126.318 187.57 124.126C186.449 122.541 185.428 121.099 183.215 121.435C179.559 121.977 179.066 126.64 181.365 129.474C183.664 132.309 185.821 131.224 185.821 131.224C185.821 131.224 186.042 136.222 183.315 139.742C181.839 140.453 180.232 140.854 178.595 140.919C176.958 140.984 175.325 140.712 173.797 140.12C170.327 138.892 165.372 134.358 163.587 130.874C158.682 121.27 158.86 112.188 165.143 109.532C165.857 104.998 169.427 102.971 173.454 102.035C179.095 100.736 184.842 104.392 190.312 102.192C191.468 101.728 192.532 101.057 193.71 100.664C194.028 100.52 194.374 100.449 194.723 100.458C195.072 100.467 195.414 100.554 195.724 100.714C196.187 101.113 196.483 101.671 196.552 102.278C196.877 103.353 196.775 104.511 196.266 105.513C197.077 105.096 197.942 104.798 198.837 104.627C199.285 104.546 199.746 104.562 200.188 104.673C200.63 104.784 201.043 104.987 201.4 105.27C202.008 105.871 202.359 106.685 202.378 107.54C202.564 109.925 201.05 112.188 199.058 113.502Z" fill="#263238"/>
<path d="M165.086 111.053L160.88 108.576C161.22 108.041 161.754 107.659 162.37 107.511C162.986 107.363 163.635 107.459 164.181 107.781C164.727 108.103 165.126 108.624 165.295 109.234C165.464 109.845 165.389 110.497 165.086 111.053Z" fill="#263238"/>
<path d="M167.135 139.913C159.395 137.6 153.019 138.771 142.909 148.402C131.828 158.934 123.674 176.827 120.818 196.126C120.818 196.126 121.196 205.044 131.528 210.977C142.488 217.268 159.424 215.733 166.228 204.409C166.228 204.409 167.656 194.32 172.176 188.922C175.103 185.423 181.872 177.698 186.87 172.179C191.218 167.373 195.759 155.657 188.926 150.137C186.92 148.524 184.949 147.281 182.172 145.454C175.082 146.71 165.864 142.512 167.135 139.913Z" fill="#AD667E"/>
<path opacity="0.75" d="M167.135 139.913C159.395 137.6 153.019 138.771 142.909 148.402C131.828 158.934 123.674 176.827 120.818 196.126C120.818 196.126 121.196 205.044 131.528 210.977C142.488 217.268 159.424 215.733 166.228 204.409C166.228 204.409 167.656 194.32 172.176 188.922C175.103 185.423 181.872 177.698 186.87 172.179C191.218 167.373 195.759 155.657 188.926 150.137C186.92 148.524 184.949 147.281 182.172 145.454C175.082 146.71 165.864 142.512 167.135 139.913Z" fill="white"/>
<path opacity="0.1" d="M187.498 171.45L187.841 171.008L187.991 170.808L188.362 170.279C188.362 170.237 188.427 170.194 188.455 170.144C188.612 169.911 188.769 169.673 188.926 169.43C188.942 169.408 188.955 169.384 188.962 169.358C189.105 169.137 189.24 168.901 189.376 168.644L189.469 168.473C189.59 168.252 189.719 168.023 189.833 167.759C189.86 167.718 189.883 167.675 189.905 167.63C190.352 166.749 190.75 165.843 191.097 164.917V164.867C191.959 162.642 192.407 160.278 192.418 157.892C190.075 161.746 187.065 165.152 183.528 167.952C179.009 171.522 173.697 174.028 169.42 177.876C164.893 181.96 161.309 187.158 157.346 191.778C155.754 193.62 153.419 197.29 150.992 197.097C148.028 196.862 145.744 192.878 144.501 190.179C142.516 185.895 141.038 180.647 138.368 176.734C136.033 173.314 132.306 168.823 128.272 170.03C124.623 178.353 122.116 187.131 120.818 196.126C120.818 196.126 121.196 205.044 131.528 210.977C132.449 211.513 133.403 211.99 134.384 212.405C134.684 212.455 134.984 212.52 135.276 212.591C136.754 212.977 138.132 213.698 139.653 214.019L140.196 214.126L140.81 214.233L141.467 214.333L142.024 214.412L142.738 214.497L143.23 214.54L144.001 214.597H144.466H145.251H146.522H147.022L147.736 214.562L148.3 214.519L148.949 214.462L149.571 214.39L150.163 214.312L150.877 214.198L151.341 214.112C151.648 214.055 151.948 213.998 152.248 213.926L152.441 213.883C158.06 212.563 163.244 209.421 166.271 204.38C166.271 204.38 166.343 203.895 166.492 203.088C166.542 202.852 166.592 202.595 166.65 202.309C166.764 201.753 166.914 201.096 167.092 200.375C167.706 197.822 168.572 195.337 169.677 192.956C170.077 192.118 170.527 191.305 171.026 190.521C171.276 190.136 171.533 189.764 171.805 189.407L172.226 188.922L172.818 188.208C175.567 184.959 180.623 179.183 184.956 174.335L186.906 172.193L187.377 171.636L187.498 171.45Z" fill="#AD667E"/>
<path d="M233.03 182.803C230.638 186.616 230.174 189.008 219.828 189.814C219.828 189.814 200.415 201.995 194.181 204.23C187.948 206.465 185.699 202.959 184.4 197.311C183.1 191.664 179.694 170.358 179.694 170.358C179.694 170.358 176.988 157.213 188.027 149.745C192.703 153.315 195.167 156.963 195.952 163.247C196.873 170.765 198.215 188.422 198.215 188.422C198.215 188.422 214.587 181.282 217.058 178.826C217.785 178.055 218.442 177.221 219.021 176.334C220.064 174.906 221.535 173.35 221.949 171.472C222.599 168.494 223.969 168.909 224.462 170.544C225.037 172.649 225.02 174.873 224.412 176.97C224.412 176.97 229.474 180.947 231.959 179.611L232.63 179.183C232.907 178.987 233.244 178.897 233.581 178.927C233.919 178.957 234.235 179.106 234.472 179.347C234.608 180.033 234.494 180.475 233.03 182.803Z" fill="#B16668"/>
<path d="M186.784 148.538C193.01 151.473 196.066 156.164 196.709 163.261C197.351 170.358 198.215 182.689 198.215 182.689C198.215 182.689 197.83 187.187 191.875 189.279C190.193 189.9 188.388 190.116 186.607 189.91C184.826 189.704 183.118 189.082 181.622 188.094L179.152 172.029C179.152 172.029 175.66 154.65 186.784 148.538Z" fill="#455A64"/>
<path d="M141.567 200.496C131.378 188.03 121.903 173.071 114.064 168.552C99.955 160.426 71.295 178.283 68.1606 219.031C65.0261 259.779 95.1141 282.613 124.195 288.882C139.082 292.081 158.646 288.839 166.321 286.183C189.719 278.079 202.821 266.741 208.447 251.069C214.588 233.89 209.94 223.558 201.943 219.16C198.341 217.229 194.2 216.546 190.169 217.218C161.723 221.673 149.457 210.149 141.567 200.496Z" fill="#AD667E"/>
<path opacity="0.2" d="M177.117 281.849L178.402 281.249C180.444 271.253 179.295 261.886 174.939 253.218C170.655 244.757 163.379 236.831 152.605 228.942C136.719 217.353 130.471 206.358 124.459 195.726C122.253 191.828 120.175 188.144 117.648 184.509C112.029 176.398 106.424 172.136 100.019 171.108C97.4068 170.713 94.744 170.805 92.1651 171.379C91.2845 171.95 90.4087 172.576 89.5376 173.257C92.8288 172.11 96.3457 171.762 99.7978 172.243C105.874 173.221 111.222 177.327 116.67 185.166C119.154 188.736 121.232 192.421 123.424 196.29C129.507 207.036 135.805 218.139 151.891 229.848C165.8 240.03 182.872 256.152 177.117 281.849Z" fill="black"/>
<path opacity="0.1" d="M124.195 288.882C139.082 292.081 158.646 288.839 166.321 286.183C189.719 278.079 202.821 266.741 208.447 251.069C208.597 250.647 208.726 250.24 208.861 249.826L208.519 249.691C202.528 247.741 196.088 250.076 190.155 252.182C175.232 257.48 158.367 261.4 143.923 254.924C134.413 250.64 124.609 243.979 119.554 234.861C114.499 225.743 112.164 215.326 108.494 205.587C106.838 201.196 105.296 195.519 101.569 191.242C98.0771 187.244 93.4718 184.338 88.1668 184.345C83.8114 184.345 79.7844 185.659 76.0288 190.1C71.9732 197.89 69.053 207.572 68.1748 219.074C65.026 259.786 95.114 282.613 124.195 288.882Z" fill="black"/>
<path d="M332.483 254.996L352.761 243.286C353.291 242.94 353.731 242.474 354.048 241.925C354.364 241.377 354.547 240.762 354.582 240.13V240.366C354.547 239.734 354.365 239.118 354.049 238.57C353.732 238.022 353.291 237.556 352.761 237.21L311.984 213.648C311.42 213.363 310.796 213.214 310.164 213.214C309.531 213.214 308.908 213.363 308.343 213.648L288.065 225.357C287.535 225.702 287.094 226.166 286.778 226.714C286.461 227.261 286.279 227.875 286.245 228.506V228.278C286.279 228.909 286.461 229.523 286.778 230.07C287.094 230.617 287.535 231.082 288.065 231.426L328.842 254.988C329.406 255.274 330.029 255.424 330.662 255.425C331.294 255.427 331.918 255.279 332.483 254.996Z" fill="#37474F"/>
<path d="M330.67 224.458L352.768 237.21C353.298 237.556 353.739 238.022 354.056 238.57C354.372 239.118 354.555 239.734 354.589 240.366V240.13C354.554 240.762 354.371 241.377 354.055 241.925C353.739 242.474 353.298 242.94 352.768 243.286L332.491 254.996C331.93 255.291 331.304 255.44 330.67 255.431V224.458Z" fill="#263238"/>
<path d="M352.768 239.316L332.49 251.04C331.927 251.329 331.303 251.479 330.67 251.479C330.037 251.479 329.412 251.329 328.849 251.04L288.072 227.478C287.066 226.9 287.066 225.957 288.072 225.379L308.35 213.669C308.915 213.384 309.538 213.236 310.171 213.236C310.803 213.236 311.427 213.384 311.991 213.669L352.768 237.231C353.775 237.795 353.775 238.738 352.768 239.316Z" fill="#455A64"/>
<path d="M352.768 235.468V237.403L331.719 249.541C331.488 249.68 331.23 249.77 330.962 249.805C330.498 249.871 330.025 249.778 329.62 249.541L288.072 225.557V223.551L328.849 247.156C329.413 247.442 330.037 247.592 330.67 247.592C331.302 247.592 331.926 247.442 332.49 247.156L352.768 235.468Z" fill="#AD667E"/>
<path opacity="0.2" d="M352.768 235.468V237.403L331.719 249.541C331.488 249.68 331.23 249.77 330.962 249.805H330.663V247.577C331.299 247.591 331.928 247.441 332.49 247.142L352.768 235.468Z" fill="black"/>
<path d="M332.491 247.17L352.768 235.468C353.299 235.123 353.74 234.657 354.057 234.108C354.373 233.56 354.555 232.944 354.589 232.312V228.564C354.555 227.931 354.373 227.316 354.057 226.768C353.74 226.219 353.299 225.753 352.768 225.408L311.992 201.846C311.427 201.561 310.803 201.412 310.171 201.412C309.538 201.412 308.915 201.561 308.35 201.846L288.073 213.548C287.543 213.895 287.103 214.361 286.786 214.909C286.47 215.458 286.287 216.072 286.252 216.704V220.453C286.286 221.076 286.469 221.682 286.786 222.22C287.103 222.758 287.544 223.212 288.073 223.544L328.849 247.149C329.411 247.441 330.034 247.596 330.667 247.599C331.3 247.603 331.925 247.456 332.491 247.17Z" fill="#37474F"/>
<path d="M330.67 212.648L352.768 225.407C353.299 225.753 353.74 226.219 354.057 226.767C354.373 227.316 354.555 227.931 354.589 228.563V232.312C354.555 232.944 354.373 233.559 354.057 234.108C353.74 234.656 353.299 235.122 352.768 235.468L332.491 247.17C331.931 247.469 331.304 247.619 330.67 247.606V212.648Z" fill="#263238"/>
<path d="M352.768 227.514L332.49 239.216C331.926 239.501 331.302 239.65 330.67 239.65C330.037 239.65 329.414 239.501 328.849 239.216L288.072 215.654C287.066 215.076 287.066 214.133 288.072 213.512L308.35 201.81C308.915 201.525 309.538 201.376 310.171 201.376C310.803 201.376 311.427 201.525 311.991 201.81L352.768 225.372C353.775 225.986 353.775 226.928 352.768 227.514Z" fill="#455A64"/>
<path d="M324.486 218.196C326.735 219.488 326.735 221.58 324.486 222.873C323.224 223.506 321.832 223.836 320.42 223.836C319.008 223.836 317.616 223.506 316.354 222.873C314.112 221.58 314.112 219.488 316.354 218.196C317.613 217.555 319.007 217.221 320.42 217.221C321.833 217.221 323.227 217.555 324.486 218.196Z" fill="#AD667E"/>
<path d="M291.378 219.574C291.587 219.71 291.761 219.893 291.885 220.109C292.009 220.325 292.08 220.568 292.092 220.816C292.092 221.273 291.771 221.466 291.378 221.245C291.17 221.11 290.997 220.928 290.873 220.713C290.749 220.498 290.677 220.257 290.664 220.01C290.664 219.545 290.985 219.353 291.378 219.574Z" fill="#AD667E"/>
<path d="M291.378 222.323C291.587 222.459 291.76 222.642 291.884 222.858C292.008 223.074 292.08 223.317 292.092 223.565C292.092 224.022 291.771 224.215 291.378 223.994C291.17 223.859 290.997 223.676 290.873 223.462C290.749 223.247 290.677 223.006 290.664 222.758C290.664 222.294 290.985 222.102 291.378 222.323Z" fill="#AD667E"/>
<path d="M107.295 101.486V90.7755L116.341 89.983C116.47 89.9717 116.599 89.999 116.713 90.0615C117.062 90.2543 124.352 94.4455 124.467 94.5098C124.552 94.5599 124.625 94.6287 124.681 94.7112C124.736 94.7936 124.772 94.8874 124.785 94.9857C124.799 95.0839 124.79 95.184 124.76 95.2784C124.729 95.3728 124.678 95.4591 124.609 95.5308L115.02 105.927L107.295 101.486Z" fill="#AD667E"/>
<path d="M115.021 105.919L124.61 95.5237C124.702 95.4264 124.763 95.3031 124.783 95.1704C124.804 95.0376 124.783 94.9018 124.724 94.7812C124.665 94.6606 124.57 94.561 124.453 94.4959C124.335 94.4308 124.201 94.4032 124.067 94.417L115.021 95.2024V105.919Z" fill="#AD667E"/>
<path d="M107.295 90.7613L115.02 95.2095L124.067 94.417C124.173 94.4075 124.281 94.4222 124.381 94.4598C123.667 94.0314 117.048 90.2329 116.72 90.0544C116.603 89.9872 116.468 89.9596 116.334 89.9759L107.295 90.7613Z" fill="#AD667E"/>
<path opacity="0.5" d="M107.295 90.7613L115.02 95.2095L124.067 94.417C124.173 94.4075 124.281 94.4222 124.381 94.4598C123.667 94.0314 117.048 90.2329 116.72 90.0544C116.603 89.9872 116.468 89.9596 116.334 89.9759L107.295 90.7613Z" fill="white"/>
<path d="M115.028 82.229C114.983 81.4498 114.756 80.692 114.365 80.0162C113.975 79.3405 113.431 78.7656 112.779 78.3377L110.951 77.2881C110.256 76.9327 109.486 76.7474 108.705 76.7474C107.924 76.7474 107.155 76.9327 106.46 77.2881L78.428 93.503C77.7748 93.9281 77.2313 94.5015 76.8417 95.1765C76.4521 95.8515 76.2274 96.6089 76.186 97.3872V128.232C76.2263 129.011 76.4505 129.77 76.8401 130.447C77.2298 131.123 77.7739 131.697 78.428 132.123L80.2558 133.18C80.9525 133.53 81.7215 133.713 82.5014 133.713C83.2812 133.713 84.0502 133.53 84.7469 133.18L112.779 116.965C113.434 116.54 113.979 115.965 114.37 115.289C114.761 114.613 114.986 113.854 115.028 113.074V82.229Z" fill="#AD667E"/>
<path opacity="0.2" d="M76.186 128.232C76.2263 129.011 76.4505 129.77 76.8401 130.447C77.2298 131.123 77.7739 131.697 78.428 132.123L80.2558 133.18C80.8892 133.496 81.5822 133.676 82.2896 133.707C82.9969 133.737 83.7029 133.619 84.3613 133.359C83.3046 133.758 82.5049 133.159 82.5049 131.881V101.036C82.5321 100.254 82.7582 99.4922 83.1618 98.8223L76.8429 95.1738C76.4393 95.8437 76.2132 96.6055 76.186 97.3872V128.232Z" fill="black"/>
<path opacity="0.5" d="M114.949 81.5935C114.692 80.6368 113.821 80.3369 112.807 80.9295L84.7469 97.1516C84.0819 97.5607 83.5355 98.1367 83.1619 98.8223L76.8501 95.1809C77.2231 94.4953 77.7666 93.9174 78.428 93.503L106.46 77.2881C107.156 76.9377 107.925 76.7552 108.705 76.7552C109.485 76.7552 110.254 76.9377 110.951 77.2881L112.786 78.3448C113.348 78.7107 113.83 79.1875 114.202 79.7461C114.574 80.3047 114.828 80.9333 114.949 81.5935Z" fill="white"/>
<path d="M92.7292 99.4721L95.2639 98.0084V99.879L97.8057 98.4153V102.407L100.34 100.936V96.9445L102.882 95.4808V93.6101L105.424 92.1393V94.0171L107.959 92.5463V96.5375L110.501 95.0738V100.936L107.959 102.407V105.334L105.424 106.805V109.732L102.882 111.203V114.13L100.34 115.601L100.348 118.529L97.8057 119.992V117.065L95.2639 118.529V115.601L92.7292 117.065V114.13L90.1873 115.601V112.667L87.6455 114.13V108.269L90.1873 106.805V102.814L92.7292 101.343V99.4721Z" fill="white"/>
</svg>
