<svg width="438" height="348" viewBox="0 0 438 348" fill="none" xmlns="http://www.w3.org/2000/svg">
<path d="M372.997 188.977H306.161C306.161 188.977 286.683 191.528 294.731 210.569H276.999C274.212 206.702 272.409 202.215 271.746 197.495C271.083 192.775 271.58 187.965 273.194 183.48C278.65 167.821 296.9 164.861 296.9 164.861H367.541C367.541 164.861 384.919 172.05 372.997 188.977Z" fill="#263238" stroke="#263238" stroke-width="1.1326" stroke-linecap="round" stroke-linejoin="round"/>
<path d="M220.861 282.506C227.913 260.682 238.184 244.027 235.619 219.666C234.528 209.368 230.163 199.356 229.768 189.031C228.827 160.768 264.045 161.041 272.802 136.953C280.495 115.797 281.136 106.822 296.522 106.181C311.908 105.54 363.849 99.7703 376.029 102.976C388.21 106.181 397.199 135.712 407.401 148.492C417.604 161.273 429.839 179.278 421.505 203.052C413.171 226.827 401.645 258.131 400.404 285.07C399.163 312.009 399.122 337.638 399.122 337.638H215.091C215.091 337.638 213.809 304.302 220.861 282.506ZM301.009 207.485H349.745C354.254 207.359 358.535 205.479 361.679 202.246C364.823 199.012 366.582 194.68 366.582 190.169C366.582 185.659 364.823 181.327 361.679 178.093C358.535 174.86 354.254 172.98 349.745 172.853H301.009C296.501 172.98 292.22 174.86 289.076 178.093C285.932 181.327 284.173 185.659 284.173 190.169C284.173 194.68 285.932 199.012 289.076 202.246C292.22 205.479 296.501 207.359 301.009 207.485V207.485Z" fill="#AD667E" stroke="#263238" stroke-width="1.1326" stroke-linecap="round" stroke-linejoin="round"/>
<path d="M400.482 137.445C388.615 143.638 371.265 155.763 360.926 177.001C357.809 174.323 353.837 172.847 349.727 172.841H300.992C298.604 172.844 296.243 173.345 294.06 174.31C291.876 175.275 289.917 176.684 288.307 178.447L287.938 178.692C282.482 169.349 274.639 157.387 265.746 147.975C268.849 144.838 271.249 141.077 272.784 136.94C280.477 115.785 281.118 106.81 296.504 106.168C311.89 105.527 363.831 99.7576 376.012 102.963C385.396 105.432 392.871 123.437 400.482 137.445Z" fill="#263238" stroke="#263238" stroke-width="1.1326" stroke-linecap="round" stroke-linejoin="round"/>
<path d="M366.819 338.28H232.219C233.188 326.1 235.547 297.36 237.539 280.583C240.103 258.759 241.385 244.669 247.796 238.299C254.207 231.929 294.595 201.716 306.162 200.434C306.162 200.434 339.511 197.87 349.81 199.793C360.108 201.716 381.182 235.053 381.182 240.822C381.182 246.292 366.178 302.407 366.819 338.28Z" fill="#263238" stroke="#263238" stroke-width="1.1326" stroke-linecap="round" stroke-linejoin="round"/>
<path d="M393.348 279.301C395.272 252.362 415.786 190.177 420.274 179.92C421.437 176.664 421.603 173.136 420.751 169.785C425.219 180.354 425.507 192.226 421.556 202.999C413.222 226.719 401.682 258.132 400.4 285.071C399.118 312.01 399.118 337.639 399.118 337.639H393.785C393.226 324.231 391.753 301.575 393.348 279.301Z" fill="#263238" stroke="#263238" stroke-width="1.1326" stroke-linecap="round" stroke-linejoin="round"/>
<path d="M281.132 239.54C288.825 227.36 313.868 233.129 333.715 232.488C353.561 231.847 355.539 237.617 355.539 248.515C355.539 257.777 345.813 319.348 342.894 337.639H261.15C261.15 301.834 273.794 251.161 281.132 239.54Z" fill="#AD667E" stroke="#263238" stroke-width="1.1326" stroke-linecap="round" stroke-linejoin="round"/>
<path d="M307.239 231.711C315.56 231.875 324.644 232.707 332.896 232.516C329.391 243.864 315.682 290.949 314.496 337.639H288.743C290.066 316.333 294.322 269.535 307.239 231.711Z" fill="white" stroke="#263238" stroke-width="1.1326" stroke-linecap="round" stroke-linejoin="round"/>
<path d="M211.11 217.265C211.11 217.265 205.204 219.897 199.298 230.4C193.392 240.903 110.188 288.138 108.865 301.328C107.542 314.518 103.054 316.496 120.131 319.06C137.209 321.624 161.201 304.056 190.105 288.233C219.008 272.411 232.784 273.761 232.784 273.761L211.11 217.265Z" fill="white" stroke="#263238" stroke-width="1.1326" stroke-linecap="round" stroke-linejoin="round"/>
<path d="M126.065 287.047C126.065 287.047 144.452 289.42 150.972 297.127C157.491 304.833 147.439 316.877 141.205 319.155C134.972 321.433 115.985 319.66 110.652 309.607C105.318 299.555 109.465 297.154 116.585 291.875" fill="white"/>
<path d="M126.065 287.047C126.065 287.047 144.452 289.42 150.972 297.127C157.491 304.833 147.439 316.877 141.205 319.155C134.972 321.433 115.985 319.66 110.652 309.607C105.318 299.555 109.465 297.154 116.585 291.875" stroke="#263238" stroke-width="1.1326" stroke-linecap="round" stroke-linejoin="round"/>
<path d="M141.356 304.151C141.356 304.151 148.176 309.321 149.744 310.767C151.313 312.212 153.618 318.514 155.2 319.633C156.782 320.751 162.62 321.733 163.275 323.343C163.93 324.952 158.105 326.739 153.591 326.575C149.076 326.412 145.529 321.119 141.178 319.155C138.359 317.957 135.356 317.247 132.299 317.055C132.299 317.055 128.275 308.189 129.884 304.642C131.494 301.096 137.714 301.573 141.356 304.151Z" fill="white" stroke="#263238" stroke-width="1.1326" stroke-linecap="round" stroke-linejoin="round"/>
<path d="M125.179 294.631C126.618 294.372 128.091 294.372 129.53 294.631C133.023 295.127 136.478 295.866 139.869 296.84C141.547 297.686 144.139 308.339 145.393 313.372C146.648 318.405 151.627 327.476 149.485 327.899C147.344 328.321 142.065 329.508 141.165 326.275C139.705 321.12 136.473 311.531 136.473 311.531C136.473 311.531 138.996 320.765 137.741 322.443C136.486 324.12 116.34 323.697 113.817 322.852C111.293 322.006 105.428 311.108 105.005 305.229C104.692 300.223 118.836 295.845 125.179 294.631Z" fill="white" stroke="#263238" stroke-width="1.1326" stroke-linecap="round" stroke-linejoin="round"/>
<path d="M129.107 323.179L123.937 303.019" stroke="#263238" stroke-width="1.1326" stroke-linecap="round" stroke-linejoin="round"/>
<path d="M118.14 322.865L113.298 303.838" stroke="#263238" stroke-width="1.1326" stroke-linecap="round" stroke-linejoin="round"/>
<path d="M136.513 311.503L133.949 302.378" stroke="#263238" stroke-width="1.1326" stroke-linecap="round" stroke-linejoin="round"/>
<path d="M174.992 244.845C195.315 226.785 218.162 202.356 244.487 193.586C251.285 191.4 257.588 187.901 263.038 183.287C263.038 183.287 281.547 170.166 293.264 169.525C306.672 168.774 317.025 182.96 323.272 193.135C351.043 238.516 354.644 291.002 355.708 343.176H232.784C232.784 343.176 239.932 332.113 232.13 300.25C230.658 294.191 228.762 288.243 226.455 282.45C224.177 283.432 221.668 284.483 218.994 285.587C207.837 290.184 182.166 304.683 182.166 304.683L153.29 262.795C153.29 262.795 169.085 250.11 174.992 244.845Z" fill="white" stroke="#263238" stroke-width="1.1326" stroke-linecap="round" stroke-linejoin="round"/>
<path d="M287.126 178.09C290.727 171.666 298.556 165.051 310.819 172.116C326.696 181.255 373.904 275.521 377.15 289.829C380.396 304.138 314.079 313.317 288.067 313.317C271.962 313.288 255.868 312.436 239.85 310.767L234.735 313.959C234.735 313.959 234.735 326.316 230.179 327.599C225.623 328.881 211.315 328.963 206.773 326.303C202.231 323.643 203.513 316.55 203.513 316.55C203.513 316.55 200.267 330.858 195.07 332.154C193.347 332.603 191.541 332.631 189.805 332.236C189.396 332.138 189.019 331.936 188.712 331.648C188.405 331.361 188.177 330.999 188.052 330.597C187.927 330.196 187.909 329.769 187.998 329.358C188.088 328.947 188.283 328.566 188.563 328.253L189.927 326.63L198.916 306.798C198.916 306.798 201.399 296.076 204.645 296.076C207.891 296.076 234.026 295.735 234.026 295.735C234.026 295.735 278.246 290.539 297.111 285.328C315.975 280.118 325.946 272.848 325.946 272.848L289.772 213.841" fill="white"/>
<path d="M240.996 305.283C250.762 304.138 280.661 304.711 319.194 299.527C357.727 294.344 366.934 285.151 359.445 282.859C351.957 280.568 326.709 275.385 324.936 275.385C323.163 275.385 357.14 269.056 357.14 269.056L338.849 211.208C356.581 242.076 375.159 281.045 377.15 289.829C380.41 304.138 314.079 313.317 288.067 313.317C271.962 313.288 255.869 312.436 239.85 310.767L234.735 313.958C234.735 313.958 234.735 326.316 230.179 327.598C228.838 327.937 227.468 328.152 226.087 328.24C224.207 326.645 222.95 324.437 222.541 322.006C221.572 315.868 231.216 306.497 240.996 305.283Z" fill="#AD667E"/>
<path opacity="0.5" d="M240.996 305.283C250.762 304.138 280.661 304.711 319.194 299.527C357.727 294.344 366.934 285.151 359.445 282.859C351.957 280.568 326.709 275.385 324.936 275.385C323.163 275.385 357.14 269.056 357.14 269.056L338.849 211.208C356.581 242.076 375.159 281.045 377.15 289.829C380.41 304.138 314.079 313.317 288.067 313.317C271.962 313.288 255.869 312.436 239.85 310.767L234.735 313.958C234.735 313.958 234.735 326.316 230.179 327.598C228.838 327.937 227.468 328.152 226.087 328.24C224.207 326.645 222.95 324.437 222.541 322.006C221.572 315.868 231.216 306.497 240.996 305.283Z" fill="white"/>
<path d="M287.126 178.09C290.727 171.666 298.556 165.051 310.819 172.116C326.696 181.255 373.904 275.521 377.15 289.829C380.396 304.138 314.079 313.317 288.067 313.317C271.962 313.288 255.868 312.436 239.85 310.767L234.735 313.959C234.735 313.959 234.735 326.316 230.179 327.599C225.623 328.881 211.315 328.963 206.773 326.303C202.231 323.643 203.513 316.55 203.513 316.55C203.513 316.55 200.267 330.858 195.07 332.154C193.347 332.603 191.541 332.631 189.805 332.236C189.396 332.138 189.019 331.936 188.712 331.648C188.405 331.361 188.177 330.999 188.052 330.597C187.927 330.196 187.909 329.769 187.998 329.358C188.088 328.947 188.283 328.566 188.563 328.253L189.927 326.63L198.916 306.798C198.916 306.798 201.399 296.076 204.645 296.076C207.891 296.076 234.026 295.735 234.026 295.735C234.026 295.735 278.246 290.539 297.111 285.328C315.975 280.118 325.946 272.848 325.946 272.848L289.772 213.841" stroke="#263238" stroke-width="1.1326" stroke-linecap="round" stroke-linejoin="round"/>
<path d="M213.784 306.579C213.784 306.579 208.955 320.738 208.955 323.056C209.026 324.664 209.421 326.242 210.115 327.694" stroke="#263238" stroke-width="1.1326" stroke-linecap="round" stroke-linejoin="round"/>
<path d="M222.077 308.762C222.077 308.762 217.453 321.897 217.058 324.598C216.901 325.287 216.926 326.004 217.129 326.68C217.332 327.357 217.707 327.969 218.217 328.458" stroke="#263238" stroke-width="1.1326" stroke-linecap="round" stroke-linejoin="round"/>
<path d="M203.513 316.496L206.637 304.52" stroke="#263238" stroke-width="1.1326" stroke-linecap="round" stroke-linejoin="round"/>
<path d="M234.735 313.89L228.27 316.1C228.27 316.1 224.396 318.037 227.492 320.738" fill="white"/>
<path d="M234.735 313.89L228.27 316.1C228.27 316.1 224.396 318.037 227.492 320.738" stroke="#263238" stroke-width="1.1326" stroke-linecap="round" stroke-linejoin="round"/>
<path d="M284.657 179.768C284.657 179.768 288.122 168.174 302.035 167.792C315.947 167.41 325.946 183.628 332.547 193.285C339.149 202.943 356.485 240.398 358.463 245.036C360.441 249.673 371.585 269.751 371.585 269.751C371.585 269.751 365.802 275.207 351.889 275.207H321.376C321.376 275.207 320.23 274.812 319.453 271.347C319.055 269.828 318.795 268.276 318.675 266.71L283.921 209.162" fill="white"/>
<path d="M284.657 179.768C284.657 179.768 288.122 168.174 302.035 167.792C315.947 167.41 325.946 183.628 332.547 193.285C339.149 202.943 356.485 240.398 358.463 245.036C360.441 249.673 371.585 269.751 371.585 269.751C371.585 269.751 365.802 275.207 351.889 275.207H321.376C321.376 275.207 320.23 274.812 319.453 271.347C319.055 269.828 318.795 268.276 318.675 266.71L283.921 209.162" stroke="#263238" stroke-width="1.1326" stroke-linecap="round" stroke-linejoin="round"/>
<path d="M189.777 314.04L187.022 320.942" stroke="#263238" stroke-width="1.1326" stroke-linecap="round" stroke-linejoin="round"/>
<path d="M187.704 309.212L184.253 317.491" stroke="#263238" stroke-width="1.1326" stroke-linecap="round" stroke-linejoin="round"/>
<path d="M211.451 253.833L226.455 282.436L203.144 261.554" stroke="#263238" stroke-width="1.1326" stroke-linecap="round" stroke-linejoin="round"/>
<path d="M244.488 193.585C251.285 191.4 257.588 187.901 263.038 183.287C263.038 183.287 266.093 181.119 270.499 178.513C268.057 190.476 260.596 224.889 254.731 230.714C249.098 236.347 237.163 212.272 232.416 198.741C236.298 196.708 240.334 194.984 244.488 193.585V193.585Z" fill="white" stroke="#263238" stroke-width="1.1326" stroke-linecap="round" stroke-linejoin="round"/>
<path d="M207.127 171.284C198.02 171.284 190.637 161.818 190.637 150.142C190.637 138.466 198.02 129 207.127 129C216.235 129 223.618 138.466 223.618 150.142C223.618 161.818 216.235 171.284 207.127 171.284Z" fill="white" stroke="#263238" stroke-width="1.1326" stroke-linecap="round" stroke-linejoin="round"/>
<path d="M262.247 145.409C262.247 145.409 264.62 172.239 263.038 183.287C261.455 194.336 255.154 229.049 250.421 219.583C245.688 210.117 229.101 179.345 229.101 179.345C229.101 179.345 257.513 158.04 262.247 145.409Z" fill="white"/>
<path d="M262.247 145.409C262.247 145.409 264.62 172.239 263.038 183.287C262.424 187.652 261.046 195.713 259.341 203.283L239.836 192.59L231.652 183.997L229.156 179.345C229.156 179.345 257.513 158.04 262.247 145.409Z" fill="#AD667E"/>
<path opacity="0.5" d="M262.247 145.409C262.247 145.409 264.62 172.239 263.038 183.287C262.424 187.652 261.046 195.713 259.341 203.283L239.836 192.59L231.652 183.997L229.156 179.345C229.156 179.345 257.513 158.04 262.247 145.409Z" fill="white"/>
<path d="M262.247 145.409C262.247 145.409 264.62 172.239 263.038 183.287C261.455 194.336 255.154 229.049 250.421 219.583C245.688 210.117 229.101 179.345 229.101 179.345C229.101 179.345 257.513 158.04 262.247 145.409Z" stroke="#263238" stroke-width="1.1326" stroke-linecap="round" stroke-linejoin="round"/>
<path d="M266.994 140.676C266.994 140.676 272.45 107.531 267.771 94.8999C263.093 82.2693 245.674 75.9676 225.16 82.2829C204.645 88.5983 192.806 94.8999 189.696 109.113C186.586 123.326 197.58 132.001 197.58 132.001C197.58 132.001 207.06 109.904 218.04 107.531C229.02 105.157 239.345 104.38 237.763 112.264C236.181 120.148 235.39 130.419 240.123 134.36C244.856 138.302 245.647 139.885 248.02 146.2C250.394 152.515 257.487 158.831 263.024 151.656C268.562 144.481 266.994 140.676 266.994 140.676Z" fill="#263238" stroke="#263238" stroke-width="1.1326" stroke-linecap="round" stroke-linejoin="round"/>
<path d="M261.469 143.036C261.469 143.036 263.038 132.778 270.144 136.734C277.25 140.69 266.993 155.666 266.993 155.666C265.85 166.315 261.749 176.431 255.154 184.87C244.105 199.069 225.009 200.992 214.097 191.922C201.821 181.719 195.956 135.111 195.956 135.111C195.956 135.111 191.223 128.796 201.412 113.014C211.601 97.2326 246.424 97.2326 248.757 103.548C251.089 109.863 241.65 122.48 244.023 127.213C246.397 131.946 253.49 126.436 255.072 135.111C256.654 143.786 258.304 150.142 261.469 143.036Z" fill="white"/>
<path d="M201.494 113.055C211.751 97.2735 246.506 97.2735 248.838 103.589C251.171 109.904 241.732 122.521 244.105 127.254C246.479 131.987 253.571 126.477 255.154 135.152C256.736 143.827 258.304 150.156 261.469 143.036C261.469 143.036 263.038 132.778 270.144 136.734C277.25 140.69 266.993 155.666 266.993 155.666C265.85 166.315 261.749 176.431 255.154 184.87C251.846 189.24 247.454 192.671 242.414 194.824C237.374 196.977 231.859 197.777 226.414 197.146C231.129 196.431 235.677 194.869 239.836 192.535C250.748 186.206 253.64 174.135 250.189 160.904C246.738 147.673 238.69 115.483 234.639 112.209C230.588 108.936 227.819 111.459 219.144 119.507C210.469 127.554 205.913 126.981 205.913 126.981L197.034 121.239C198.277 118.385 199.769 115.646 201.494 113.055Z" fill="#AD667E"/>
<path opacity="0.5" d="M201.494 113.055C211.751 97.2735 246.506 97.2735 248.838 103.589C251.171 109.904 241.732 122.521 244.105 127.254C246.479 131.987 253.571 126.477 255.154 135.152C256.736 143.827 258.304 150.156 261.469 143.036C261.469 143.036 263.038 132.778 270.144 136.734C277.25 140.69 266.993 155.666 266.993 155.666C265.85 166.315 261.749 176.431 255.154 184.87C251.846 189.24 247.454 192.671 242.414 194.824C237.374 196.977 231.859 197.777 226.414 197.146C231.129 196.431 235.677 194.869 239.836 192.535C250.748 186.206 253.64 174.135 250.189 160.904C246.738 147.673 238.69 115.483 234.639 112.209C230.588 108.936 227.819 111.459 219.144 119.507C210.469 127.554 205.913 126.981 205.913 126.981L197.034 121.239C198.277 118.385 199.769 115.646 201.494 113.055Z" fill="white"/>
<path d="M261.469 143.036C261.469 143.036 263.038 132.778 270.144 136.734C277.25 140.69 266.993 155.666 266.993 155.666C265.85 166.315 261.749 176.431 255.154 184.87C244.105 199.069 225.009 200.992 214.097 191.922C201.821 181.719 195.956 135.111 195.956 135.111C195.956 135.111 191.223 128.796 201.412 113.014C211.601 97.2326 246.424 97.2326 248.757 103.548C251.089 109.863 241.65 122.48 244.023 127.213C246.397 131.946 253.49 126.436 255.072 135.111C256.654 143.786 258.304 150.142 261.469 143.036Z" stroke="#263238" stroke-width="1.1326" stroke-linecap="round" stroke-linejoin="round"/>
<path d="M231.297 170.343C241.268 168.174 243.437 160.795 243.437 160.795" stroke="#263238" stroke-width="1.1326" stroke-linecap="round" stroke-linejoin="round"/>
<path d="M228.692 149.528C233.466 144.768 237.804 144.331 237.804 144.331" stroke="#263238" stroke-width="1.1326" stroke-linecap="round" stroke-linejoin="round"/>
<path d="M240.832 159.936L246.916 161.245" stroke="#263238" stroke-width="1.1326" stroke-linecap="round" stroke-linejoin="round"/>
<path d="M243.437 160.808C244.399 162.1 245.087 163.574 245.46 165.141C245.832 166.708 245.882 168.334 245.606 169.92C244.801 175.294 238.704 176.617 238.704 176.617C238.704 176.617 238.24 169.484 234.762 169.92C234.762 169.92 241.705 166.005 243.437 160.808Z" stroke="#263238" stroke-width="1.1326" stroke-linecap="round" stroke-linejoin="round"/>
<path d="M244.106 161.122C244.106 161.122 245.047 170.138 238.65 172.512" stroke="#263238" stroke-width="0.566302" stroke-linecap="round" stroke-linejoin="round"/>
<path d="M209.31 136.639C209.31 136.639 215.885 143.213 215.885 150.374C215.885 157.535 209.31 162.323 214.684 164.123C220.058 165.924 221.859 164.71 221.859 164.71" stroke="#263238" stroke-width="1.1326" stroke-linecap="round" stroke-linejoin="round"/>
<path d="M228.829 144.25C229.388 146.459 230.193 145.477 231.298 145.191C232.403 144.904 233.466 145.436 232.907 143.227C232.348 141.017 230.984 139.435 229.865 139.721C228.747 140.008 228.283 142.026 228.829 144.25Z" fill="#263238"/>
<path d="M206.132 147.823C206.691 150.046 208.055 151.615 209.173 151.329C210.292 151.042 210.769 149.023 210.21 146.8C209.651 144.577 208.287 143.022 207.168 143.295C206.05 143.568 205.572 145.614 206.132 147.823Z" fill="#263238"/>
<path d="M237.381 129.478C237.381 129.478 229.102 126.913 221.136 137.771" stroke="#263238" stroke-width="1.1326" stroke-linecap="round" stroke-linejoin="round"/>
<path d="M206.923 134.852C206.923 134.852 200.948 132.465 199.748 138.439" stroke="#263238" stroke-width="1.1326" stroke-linecap="round" stroke-linejoin="round"/>
<path d="M248.839 103.589C248.839 103.589 244.897 110.681 234.639 112.264C224.382 113.846 211.751 112.264 209.378 120.952C207.005 129.641 195.97 139.885 183.339 134.36C170.709 128.836 169.14 104.353 177.024 94.1225C184.908 83.8925 194.388 85.4338 203.854 81.4919C213.32 77.5499 213.32 70.4435 227.533 70.4435C241.746 70.4435 258.305 83.8516 248.839 91.7491" fill="#263238"/>
<path d="M248.839 103.589C248.839 103.589 244.897 110.681 234.639 112.264C224.382 113.846 211.751 112.264 209.378 120.952C207.005 129.641 195.97 139.885 183.339 134.36C170.709 128.836 169.14 104.353 177.024 94.1225C184.908 83.8925 194.388 85.4338 203.854 81.4919C213.32 77.5499 213.32 70.4435 227.533 70.4435C241.746 70.4435 258.305 83.8516 248.839 91.7491" stroke="#263238" stroke-width="1.1326" stroke-linecap="round" stroke-linejoin="round"/>
<path d="M265.261 163.1C256.154 163.1 248.77 153.634 248.77 141.958C248.77 130.282 256.154 120.816 265.261 120.816C274.369 120.816 281.752 130.282 281.752 141.958C281.752 153.634 274.369 163.1 265.261 163.1Z" fill="white" stroke="#263238" stroke-width="1.1326" stroke-linecap="round" stroke-linejoin="round"/>
<path d="M267.853 157.317C261.284 157.317 255.959 150.483 255.959 142.054C255.959 133.624 261.284 126.791 267.853 126.791C274.422 126.791 279.747 133.624 279.747 142.054C279.747 150.483 274.422 157.317 267.853 157.317Z" fill="#263238" stroke="#263238" stroke-width="1.1326" stroke-linecap="round" stroke-linejoin="round"/>
<path d="M270.144 139.816C270.89 139.82 271.611 139.552 272.173 139.062C272.735 138.573 273.1 137.896 273.2 137.157C274.011 129.903 273.988 122.581 273.131 115.333C273.085 114.93 272.959 114.54 272.762 114.185C272.565 113.831 272.3 113.518 271.982 113.266C271.664 113.014 271.299 112.827 270.909 112.716C270.519 112.605 270.111 112.572 269.708 112.618C269.305 112.665 268.915 112.79 268.56 112.988C268.206 113.185 267.894 113.45 267.641 113.768C267.389 114.086 267.202 114.45 267.091 114.841C266.98 115.231 266.947 115.639 266.993 116.042C267.774 122.788 267.806 129.599 267.089 136.352C267.031 136.753 267.054 137.162 267.155 137.555C267.257 137.948 267.435 138.317 267.68 138.64C267.924 138.964 268.231 139.235 268.581 139.44C268.932 139.644 269.319 139.777 269.721 139.83C269.862 139.839 270.004 139.834 270.144 139.816Z" fill="white" stroke="#263238" stroke-width="1.1326" stroke-linecap="round" stroke-linejoin="round"/>
<path d="M207.277 79.8415C206.22 80.497 205.111 81.0671 203.963 81.5465C198.261 83.9199 192.546 84.2745 187.186 86.4706C187.304 85.7621 187.564 85.0847 187.95 84.4791C195.438 72.5987 217.317 53.8982 246.52 68.1111C262.765 75.9814 272.75 92.213 275.478 115.019C275.632 116.442 275.221 117.869 274.333 118.992C273.445 120.114 272.151 120.843 270.731 121.021H270.09C268.768 121.008 267.496 120.515 266.51 119.634C265.524 118.754 264.891 117.545 264.729 116.233C263.201 103.016 257.909 85.6113 241.732 77.7273C226.592 70.4163 214.875 74.4674 207.277 79.8415Z" fill="white" stroke="#263238" stroke-width="1.1326" stroke-linecap="round" stroke-linejoin="round"/>
<path d="M126.8 323.714H318.442V331.448H126.8V323.714Z" fill="white" stroke="#263238" stroke-width="1.1326" stroke-linecap="round" stroke-linejoin="round"/>
<path d="M72.772 323.714H264.414V331.448H72.772V323.714Z" fill="white" stroke="#263238" stroke-width="1.1326" stroke-linecap="round" stroke-linejoin="round"/>
<path d="M378.403 311.233H350.114C346.992 311.233 343.998 312.474 341.791 314.681C339.583 316.889 338.343 319.883 338.343 323.005V337.149H390.175V322.964C390.164 319.849 388.919 316.865 386.713 314.667C384.506 312.468 381.518 311.233 378.403 311.233Z" fill="#AD667E" stroke="#263238" stroke-width="1.1326" stroke-linecap="round" stroke-linejoin="round"/>
<path d="M377.04 317.167H365.036C361.914 317.167 358.92 318.407 356.713 320.615C354.505 322.822 353.265 325.816 353.265 328.938V343.083H388.743V328.924C388.739 325.817 387.507 322.836 385.314 320.634C383.122 318.431 380.147 317.185 377.04 317.167V317.167Z" fill="#263238" stroke="#263238" stroke-width="1.1326" stroke-linecap="round" stroke-linejoin="round"/>
<path d="M377.04 320.863H369.469C366.348 320.863 363.353 322.104 361.146 324.311C358.938 326.519 357.698 329.513 357.698 332.635V337.9H388.797V332.635C388.797 329.515 387.559 326.523 385.354 324.316C383.15 322.109 380.159 320.867 377.04 320.863V320.863Z" fill="#AD667E" stroke="#263238" stroke-width="1.1326" stroke-linecap="round" stroke-linejoin="round"/>
<path d="M26.5875 165.886H203.58V301.004H26.5875V165.886Z" fill="white" stroke="#263238" stroke-width="1.1326" stroke-linecap="round" stroke-linejoin="round"/>
<path d="M19.2758 165.886H196.269V301.004H19.2758V165.886Z" fill="#263238" stroke="#263238" stroke-width="1.1326" stroke-linecap="round" stroke-linejoin="round"/>
<path d="M84.1345 253.25H125.382V331.434H84.1345V253.25Z" fill="white" stroke="#263238" stroke-width="1.1326" stroke-linecap="round" stroke-linejoin="round"/>
<path d="M8 329H434V343H8V329Z" fill="white" stroke="#263238" stroke-width="1.1326" stroke-linecap="round" stroke-linejoin="round"/>
<path d="M8 329H299V343H8V329Z" fill="#263238" stroke="#263238" stroke-width="1.1326" stroke-linecap="round" stroke-linejoin="round"/>
</svg>
