<svg width="455" height="367" viewBox="0 0 455 367" fill="none" xmlns="http://www.w3.org/2000/svg">
<g clip-path="url(#clip0)">
<path d="M237.672 336.872C354.023 336.872 448.344 323.693 448.344 307.436C448.344 291.179 354.023 278 237.672 278C121.321 278 27 291.179 27 307.436C27 323.693 121.321 336.872 237.672 336.872Z" fill="#292D2F"/>
<path opacity="0.5" d="M237.672 336.872C354.023 336.872 448.344 323.693 448.344 307.436C448.344 291.179 354.023 278 237.672 278C121.321 278 27 291.179 27 307.436C27 323.693 121.321 336.872 237.672 336.872Z" fill="#292D2F"/>
<path d="M384.594 30.8664V175.777C384.594 180.514 382.713 185.057 379.364 188.408C376.015 191.758 371.473 193.641 366.736 193.643H111.858C107.121 193.641 102.579 191.758 99.2301 188.408C95.8812 185.057 94 180.514 94 175.777V30.8664C94 30.4398 94 30.0616 94.0563 29.6109C94.3701 25.1031 96.3818 20.882 99.6856 17.7992C102.989 14.7164 107.34 13.0013 111.858 13H366.736C371.26 13.0019 375.614 14.7214 378.919 17.8109C382.223 20.9005 384.232 25.1295 384.538 29.6431C384.578 30.0294 384.594 30.4479 384.594 30.8664Z" fill="white" stroke="#274452" stroke-width="1.10311" stroke-linecap="round" stroke-linejoin="round"/>
<path d="M102.692 36.3067H376.812V170.168C376.812 174.607 375.048 178.865 371.909 182.004C368.77 185.144 364.512 186.907 360.072 186.907H119.44C115 186.907 110.742 185.144 107.603 182.004C104.464 178.865 102.7 174.607 102.7 170.168V36.3067H102.692Z" fill="#274452"/>
<path opacity="0.2" d="M376.82 36.3067V170.168C376.843 174.582 375.112 178.826 372.008 181.965C368.904 185.104 364.68 186.882 360.265 186.907H119.246C114.831 186.882 110.607 185.104 107.503 181.965C104.399 178.826 102.668 174.582 102.692 170.168V36.3067H376.82Z" fill="white"/>
<path d="M384.538 29.6433H94.0566C94.3704 25.1355 96.3821 20.9144 99.6859 17.8316C102.99 14.7488 107.34 13.0337 111.859 13.0324H366.736C371.255 13.0337 375.605 14.7488 378.909 17.8316C382.212 20.9144 384.224 25.1355 384.538 29.6433Z" fill="#314048" stroke="#274452" stroke-width="1.10311" stroke-miterlimit="10"/>
<path d="M129.749 21.3054C129.749 21.931 129.564 22.5425 129.216 23.0626C128.868 23.5827 128.374 23.9881 127.797 24.2275C127.219 24.4669 126.583 24.5295 125.969 24.4075C125.356 24.2854 124.792 23.9842 124.35 23.5419C123.907 23.0995 123.606 22.536 123.484 21.9225C123.362 21.3089 123.425 20.673 123.664 20.095C123.903 19.5171 124.309 19.0231 124.829 18.6756C125.349 18.3281 125.961 18.1426 126.586 18.1426C127.425 18.1426 128.229 18.4758 128.823 19.0689C129.416 19.6621 129.749 20.4666 129.749 21.3054Z" fill="#274452"/>
<path d="M143.124 21.3054C143.124 21.931 142.939 22.5425 142.591 23.0626C142.244 23.5827 141.75 23.9881 141.172 24.2275C140.594 24.4669 139.958 24.5295 139.345 24.4075C138.731 24.2854 138.168 23.9842 137.725 23.5419C137.283 23.0995 136.982 22.536 136.86 21.9225C136.738 21.3089 136.8 20.673 137.04 20.095C137.279 19.5171 137.684 19.0231 138.204 18.6756C138.725 18.3281 139.336 18.1426 139.962 18.1426C140.8 18.1426 141.605 18.4758 142.198 19.0689C142.791 19.6621 143.124 20.4666 143.124 21.3054Z" fill="#274452"/>
<path d="M153.337 24.4682C155.084 24.4682 156.5 23.0522 156.5 21.3054C156.5 19.5586 155.084 18.1426 153.337 18.1426C151.59 18.1426 150.174 19.5586 150.174 21.3054C150.174 23.0522 151.59 24.4682 153.337 24.4682Z" fill="#274452"/>
<path d="M376.812 36.3067V170.168C376.812 174.607 375.048 178.865 371.909 182.004C368.769 185.144 364.512 186.907 360.072 186.907H119.439C115.565 186.907 111.81 185.562 108.816 183.102C105.822 180.642 103.774 177.22 103.022 173.419V173.371C102.817 172.31 102.715 171.232 102.716 170.152V36.3067H376.812Z" stroke="#274452" stroke-width="1.10311" stroke-miterlimit="10"/>
<path d="M376.554 57.006C375.381 56.347 374.132 55.8309 372.836 55.4689L371.331 48.7489H364.941L363.452 55.4689C362.149 55.8245 360.894 56.3408 359.718 57.006L353.948 53.312L349.433 57.8108L353.062 63.5812C352.398 64.7577 351.882 66.012 351.525 67.3154L344.805 68.8043V75.1943L351.525 76.6993C351.877 78.0092 352.394 79.2693 353.062 80.4496L349.368 86.2602L353.891 90.7751L359.694 87.0811C360.868 87.7474 362.119 88.2664 363.42 88.6263L364.917 95.3382H371.283L372.78 88.6263C374.077 88.2628 375.325 87.744 376.498 87.0811L376.796 87.2742V56.8451L376.554 57.006ZM368.152 80.345C366.519 80.345 364.922 79.8605 363.564 78.9528C362.206 78.0452 361.148 76.7551 360.523 75.2458C359.898 73.7366 359.735 72.0759 360.054 70.474C360.374 68.872 361.161 67.4007 362.316 66.2463C363.472 65.0918 364.944 64.306 366.546 63.9883C368.148 63.6706 369.809 63.8353 371.318 64.4615C372.826 65.0877 374.115 66.1473 375.022 67.5062C375.928 68.8652 376.411 70.4624 376.409 72.0959C376.409 73.1798 376.196 74.2532 375.781 75.2545C375.366 76.2559 374.757 77.1656 373.99 77.9317C373.224 78.6978 372.313 79.3053 371.311 79.7194C370.31 80.1334 369.236 80.346 368.152 80.345Z" fill="#274452"/>
<path d="M261.389 63.4845V50.0123L247.224 46.8656C246.46 44.1286 245.38 41.49 244.005 39.0028L245.719 36.3067H178.841L180.491 38.9303C179.1 41.4066 178.019 44.0447 177.272 46.7851L163.1 49.9399V63.4443L177.272 66.6071C178.019 69.368 179.1 72.0274 180.491 74.5263L172.709 86.7671L182.246 96.2959L194.478 88.5055C196.96 89.9015 199.6 90.9957 202.341 91.7649L205.496 105.889H218.936L222.107 91.7327C224.839 90.9599 227.471 89.8658 229.946 88.4733L242.186 96.2637L251.715 86.735L243.981 74.4941C245.352 72.0109 246.432 69.3779 247.2 66.6474L261.389 63.4845ZM212.296 74.1561C208.854 74.1561 205.488 73.1351 202.625 71.2224C199.763 69.3096 197.531 66.5909 196.214 63.41C194.896 60.2292 194.552 56.7291 195.223 53.3524C195.895 49.9756 197.553 46.8739 199.987 44.4394C202.422 42.0049 205.524 40.347 208.9 39.6753C212.277 39.0036 215.777 39.3483 218.958 40.6659C222.139 41.9834 224.858 44.2146 226.77 47.0773C228.683 49.9399 229.704 53.3055 229.704 56.7484C229.705 59.0347 229.256 61.2988 228.381 63.4113C227.507 65.5238 226.225 67.4432 224.608 69.0598C222.991 70.6765 221.072 71.9587 218.959 72.8331C216.847 73.7076 214.583 74.1571 212.296 74.1561Z" fill="#274452"/>
<path d="M172.001 155.995L172.572 145.3L161.49 142.177C160.975 139.979 160.214 137.846 159.22 135.819L165.916 126.419L158.738 118.46L148.71 124.093C146.793 122.887 144.743 121.907 142.601 121.172L140.686 109.808L129.998 109.317L126.908 120.432C124.706 120.925 122.572 121.682 120.55 122.685L111.158 115.997L103.183 123.168L108.865 133.204C107.647 135.112 106.663 137.16 105.935 139.304L102.716 139.835V154.321L105.066 154.981C105.554 157.186 106.308 159.324 107.311 161.347L102.692 167.826L102.998 173.371V173.419L107.77 178.707L117.814 173.033C119.727 174.263 121.784 175.255 123.938 175.986L125.822 186.899L125.91 187.358L136.598 187.921L136.879 186.899L139.688 176.815C141.9 176.32 144.045 175.564 146.078 174.562L155.454 181.242L163.421 174.079L157.788 164.035C158.995 162.129 159.965 160.083 160.677 157.943L172.001 155.995ZM143.616 139.296C141.785 137.26 139.391 135.812 136.738 135.136C134.084 134.461 131.29 134.587 128.708 135.5C126.126 136.412 123.873 138.07 122.234 140.264C120.595 142.457 119.643 145.087 119.498 147.822C119.354 150.556 120.024 153.272 121.424 155.626C122.824 157.979 124.89 159.865 127.361 161.044C129.833 162.223 132.598 162.643 135.308 162.25C138.018 161.857 140.551 160.669 142.585 158.836C145.302 156.382 146.936 152.951 147.129 149.295C147.322 145.639 146.059 142.055 143.616 139.328V139.296Z" fill="#274452"/>
<path d="M257.485 140.052C257.899 138.396 258.118 136.697 258.137 134.99L265.823 130.966L263.698 123.168L255.023 123.57C254.144 122.113 253.099 120.762 251.908 119.546L254.475 111.249L247.474 107.225L241.615 113.615C239.961 113.216 238.269 113 236.569 112.971L232.545 105.285L224.754 107.402L225.165 116.086C223.707 116.964 222.357 118.009 221.141 119.2L212.835 116.633L208.811 123.627L215.25 129.477C214.833 131.127 214.62 132.822 214.614 134.524L206.912 138.547L209.037 146.338L217.729 145.927C218.59 147.392 219.631 148.744 220.827 149.951L218.244 158.209L225.253 162.232L231.08 155.891C232.735 156.307 234.435 156.521 236.142 156.527L240.166 164.22L247.956 162.104L247.61 154.684L247.554 153.412C249.032 152.542 250.4 151.496 251.626 150.297L259.924 152.873L263.352 146.885L263.932 145.871L257.485 140.052ZM239.08 144.785C237.082 145.336 234.965 145.281 232.999 144.627C231.032 143.974 229.304 142.751 228.033 141.114C226.763 139.477 226.007 137.499 225.862 135.432C225.716 133.364 226.188 131.301 227.218 129.502C228.247 127.703 229.788 126.251 231.644 125.329C233.5 124.407 235.588 124.057 237.643 124.323C239.698 124.59 241.628 125.46 243.187 126.825C244.747 128.19 245.866 129.987 246.403 131.988C247.119 134.656 246.75 137.499 245.378 139.896C244.006 142.293 241.742 144.05 239.08 144.785Z" fill="#274452"/>
<path d="M346.592 153.766L348.362 143.062L337.53 138.708C337.284 136.427 336.762 134.184 335.976 132.029L343.775 123.345L337.465 114.492L326.713 119.055C324.928 117.625 322.977 116.414 320.903 115.45L320.275 103.789L309.571 102.018L305.185 112.802C302.914 113.069 300.681 113.596 298.529 114.372L289.822 106.573L281.009 112.883L285.58 123.627C284.322 125.197 283.23 126.893 282.321 128.689C282.2 128.938 282.071 129.188 281.959 129.437L270.305 130.081L268.527 140.769L270.281 141.477L279.359 145.139C279.607 147.409 280.129 149.641 280.913 151.786L273.098 160.526L279.416 169.379L290.16 164.792C291.939 166.235 293.887 167.457 295.962 168.429L296.566 180.034L307.261 181.805L311.64 171.101C313.916 170.853 316.153 170.328 318.303 169.54L326.995 177.338L335.848 171.021L331.276 160.269C332.733 158.482 333.962 156.522 334.938 154.434L346.592 153.766ZM316.573 153.283C314.321 154.899 311.641 155.81 308.871 155.903C306.101 155.995 303.366 155.263 301.012 153.801C298.658 152.339 296.79 150.211 295.645 147.687C294.5 145.163 294.129 142.357 294.58 139.622C295.03 136.888 296.281 134.348 298.175 132.325C300.069 130.301 302.52 128.885 305.219 128.254C307.918 127.624 310.743 127.809 313.337 128.784C315.931 129.76 318.177 131.482 319.792 133.735C321.955 136.756 322.829 140.513 322.223 144.179C321.616 147.845 319.578 151.12 316.557 153.283H316.573Z" fill="#274452"/>
<path d="M231.546 301.517C231.546 301.517 199.646 310.658 195.191 312.242C191.143 313.672 180.165 317.522 171.926 316.323C171.131 316.209 170.344 316.04 169.572 315.817C161.223 313.331 157.472 311.01 156.372 305.763C155.272 300.516 159.43 296.644 163.434 294.169C167.438 291.694 189.152 289.109 189.152 289.109L194.399 290.649L231.546 301.517Z" fill="#314048"/>
<path d="M171.926 316.323C171.131 316.209 170.344 316.04 169.572 315.817C161.223 313.331 157.472 311.01 156.372 305.763C155.272 300.516 159.43 296.644 163.434 294.169C167.438 291.694 189.152 289.109 189.152 289.109L194.399 290.649C189.647 292.849 171.959 294.048 168.098 296.27C164.237 298.492 162.378 302.672 164.655 308.37C165.876 311.34 169.132 314.255 171.926 316.323Z" fill="white"/>
<path d="M226.75 302.815C226.75 302.815 202.792 309.019 193.288 312.99C183.784 316.961 165.667 318.699 159.188 310.515C152.709 302.331 158.44 295.269 164.897 293.696C171.354 292.123 184.411 289.648 191.539 290.649" stroke="#274452" stroke-width="1.10311" stroke-linecap="round" stroke-linejoin="round"/>
<path d="M172.399 315.894C172.399 315.894 160.211 309.206 164.259 299.834C167.251 292.926 183.509 294.422 191.561 290.649" stroke="#274452" stroke-width="1.10311" stroke-linecap="round" stroke-linejoin="round"/>
<path d="M328.709 317.808C328.379 321.108 327.224 324.199 323.924 326.146C321.724 327.444 318.6 328.214 314.123 328.17C302.936 328.027 281.904 320.03 281.904 320.03L262.214 309.14L272.455 292.937L275.26 288.537L282.498 290.165C282.498 290.165 288.493 293.564 294.521 296.27C300.549 298.976 315.19 299.57 320.349 303.717C325.508 307.864 329.27 312.374 328.709 317.808Z" fill="#314048"/>
<path d="M328.709 317.808C328.379 321.108 327.224 324.199 323.924 326.146C324.875 322.902 324.68 319.43 323.374 316.312C321.174 311.373 314.013 307.017 304.597 306.291C295.181 305.565 287.976 301.165 284.203 299.196C281.255 297.667 275.04 294.323 272.455 292.937L275.26 288.537L282.498 290.165C282.498 290.165 288.493 293.564 294.521 296.27C300.549 298.976 315.19 299.57 320.349 303.717C325.508 307.864 329.27 312.374 328.709 317.808Z" fill="white"/>
<path d="M266.581 312.198C280.754 320.437 296.419 325.787 312.671 327.939C316.257 328.368 320.426 328.434 322.824 325.739C323.462 324.961 323.937 324.062 324.22 323.096C324.504 322.131 324.59 321.118 324.474 320.118C324.045 315.058 319.788 311.054 315.124 309.041C310.46 307.028 305.323 306.566 300.362 305.455C295.428 304.343 290.659 302.598 286.172 300.263C282.608 298.404 279.165 296.149 275.238 295.313C271.311 294.477 266.636 295.489 264.535 298.921" stroke="#274452" stroke-width="1.10311" stroke-linecap="round" stroke-linejoin="round"/>
<path d="M321.504 327.114C323.347 326.232 324.958 324.931 326.209 323.315C327.46 321.699 328.316 319.813 328.709 317.808C329.424 313.045 326.707 308.249 322.89 305.323C319.073 302.397 314.288 301.011 309.569 300.032C304.85 299.053 300.021 298.393 295.5 296.6C288.603 293.894 281.794 288.57 274.6 290.473" stroke="#274452" stroke-width="1.10311" stroke-linecap="round" stroke-linejoin="round"/>
<path d="M288.801 141.786L255.482 129.114L255.064 128.949C255.064 128.949 255.185 128.069 255.284 126.749C255.493 124.087 255.603 119.753 254.349 118.29C252.49 116.09 247.232 117.938 242.095 115.584C236.958 113.23 227.465 117.443 227.465 117.443C227.465 117.443 220.601 116.178 217.565 121.128C216.025 125.121 216.553 131.028 216.553 131.028L215.926 131.248C211.955 132.733 190.351 140.862 185.786 144.129C180.737 147.704 175.149 184.411 173.356 195.191C171.563 205.971 168.373 215.684 169.99 219.391C171.607 223.098 194.817 240.973 208.171 245.582C221.525 250.191 268.88 248.882 268.88 248.882C268.88 248.882 269.65 248.673 271.025 248.233C279.033 245.659 307.446 235.033 322.527 210.085C322.549 210.129 307.941 162.246 288.801 141.786ZM198.777 203.529C196.324 205.267 197.677 211.999 197.677 211.999L193.508 208.325L203.98 182.574L208.446 202.374C208.446 202.374 201.23 201.802 198.777 203.529ZM282.553 219.886C281.398 220.48 285.853 208.105 283.741 205.3C281.629 202.495 275.26 202.759 275.26 202.759L275.799 199.382L279.572 180.022L280.826 178.537C280.826 178.537 293.784 200.746 296.105 208.578C296.105 208.6 281.981 219.886 282.553 219.886Z" fill="#314048"/>
<path d="M225.892 61.475L208.688 79.735C208.688 79.735 206.323 81.836 207.258 87.127C208.193 92.418 210.393 97.027 212.054 97.335C213.369 97.5652 214.701 97.6829 216.036 97.687C216.036 97.687 219.721 105.673 222.339 108.808C222.339 108.808 223.241 121.139 222.757 124.56C222.757 124.56 228.939 129.961 234.758 130.643C240.577 131.325 249.564 122.415 249.564 122.415L251.764 111.503C251.764 111.503 257.044 103.495 257.396 101.361C257.748 99.227 260.168 99.777 261.356 98.721C262.544 97.665 265.283 92.968 265.756 88.524C266.229 84.08 266.24 78.976 261.081 80.472C256.604 79.273 259.409 69.813 259.409 69.813L251.544 62.883L225.892 61.475Z" fill="white"/>
<path opacity="0.5" d="M255.482 129.114C255.223 129.794 254.925 130.459 254.591 131.105C251.753 136.451 239.389 146.648 239.389 146.648L235.649 135.153L233.603 146.648C229.478 144.844 216.894 133.943 216.894 133.943C216.894 133.943 216.465 132.92 215.948 131.325L216.575 131.105C216.575 131.105 216.047 125.154 217.587 121.205C220.601 116.255 227.487 117.52 227.487 117.52C227.487 117.52 236.98 113.307 242.117 115.661C247.254 118.015 252.512 116.189 254.371 118.367C256.23 120.545 255.086 128.993 255.086 128.993L255.482 129.114Z" fill="white"/>
<path opacity="0.2" d="M288.801 141.786L255.482 129.114L255.064 128.949C255.064 128.949 255.185 128.069 255.284 126.749L254.591 131.072L249.663 137.76C254.931 139.7 260.074 141.963 265.063 144.536C267.452 145.815 269.4 147.783 270.656 150.184C271.911 152.585 272.415 155.309 272.103 158L265.965 210.525L263.446 240.346L271.047 248.233C279.055 245.659 307.468 235.033 322.549 210.085C322.549 210.129 307.941 162.246 288.801 141.786ZM282.553 219.886C281.398 220.48 285.853 208.105 283.741 205.3C281.629 202.495 275.26 202.759 275.26 202.759L275.799 199.382L279.572 180.022L280.826 178.537C280.826 178.537 293.784 200.746 296.105 208.578C296.105 208.6 281.981 219.886 282.553 219.886Z" fill="black"/>
<path opacity="0.2" d="M210.657 205.3L205.476 187.986C205.476 187.986 196.181 156.295 189.812 148.485L191.484 170.771C191.484 170.771 185.984 197.391 180.957 205.3C175.93 213.209 174.808 215.2 180.957 215.2C187.106 215.2 202.077 227.124 202.077 227.124L200.922 217.224L210.657 205.3ZM197.6 211.999L193.431 208.325L203.903 182.574L208.369 202.374C208.369 202.374 201.197 201.835 198.744 203.562C196.291 205.289 197.6 211.999 197.6 211.999Z" fill="black"/>
<path d="M222.339 108.808C222.339 108.808 223.285 118.147 222.339 122.415" stroke="#274452" stroke-width="1.10311" stroke-linecap="round" stroke-linejoin="round"/>
<path d="M250.521 121.161C250.531 118.158 250.878 115.166 251.555 112.24" stroke="#274452" stroke-width="1.10311" stroke-linecap="round" stroke-linejoin="round"/>
<path d="M253.018 68.438C253.018 68.438 258.672 75.533 258.375 80.901C258.078 86.269 257.66 92.627 257.803 98.853C257.946 105.079 247.804 118.125 242.59 119.28C237.376 120.435 232.888 120.732 229.555 117.399C226.222 114.066 222.889 109.435 218.555 103.495C214.221 97.555 215.255 84.52 215.255 84.52" stroke="#274452" stroke-width="1.10311" stroke-linecap="round" stroke-linejoin="round"/>
<path d="M239.4 89.481C239.056 91.4303 238.908 93.4092 238.96 95.388C238.847 97.0557 239.365 98.705 240.412 100.008C241.039 100.646 241.941 101.163 242.062 102.043C242.059 102.439 241.949 102.827 241.744 103.166C241.539 103.505 241.246 103.782 240.896 103.968C240.191 104.324 239.511 104.728 238.861 105.178" stroke="#274452" stroke-width="1.10311" stroke-linecap="round" stroke-linejoin="round"/>
<path d="M230.457 105.86C230.457 105.86 231.106 110.073 236.749 110.953" stroke="#274452" stroke-width="1.10311" stroke-linecap="round" stroke-linejoin="round"/>
<path d="M231.04 92.693C231.04 93.914 230.512 94.893 229.863 94.893C229.214 94.893 228.686 93.914 228.686 92.693C228.686 91.472 229.214 90.493 229.863 90.493C230.512 90.493 231.04 91.483 231.04 92.693Z" fill="#274452"/>
<path d="M247.881 93.221C247.881 94.442 247.353 95.421 246.704 95.421C246.055 95.421 245.527 94.431 245.527 93.221C245.527 92.011 246.055 91.021 246.704 91.021C247.353 91.021 247.881 92 247.881 93.221Z" fill="#274452"/>
<path d="M244.482 87.886C244.482 87.886 249.982 82.386 254.591 88.524" stroke="#274452" stroke-width="2.20621" stroke-linecap="round" stroke-linejoin="round"/>
<path d="M232.899 87.996C232.899 87.996 229.423 84.102 223.945 87.996" stroke="#274452" stroke-width="2.20621" stroke-linecap="round" stroke-linejoin="round"/>
<path d="M222.757 114C222.757 114 226.112 123.24 233.603 125.869C241.094 128.498 251.038 114.869 251.038 114.869L250.521 113.098C250.521 113.098 243.998 121.568 236.749 120.127C229.5 118.686 222.339 108.852 222.339 108.852L222.757 114Z" fill="#274452"/>
<path d="M216.036 97.335C216.036 97.335 211.57 98.908 210.382 95.432C209.194 91.956 205.124 82.793 208.688 79.735C212.252 76.677 215.112 83.772 215.112 83.772" stroke="#274452" stroke-width="1.10311" stroke-linecap="round" stroke-linejoin="round"/>
<path d="M257.792 99.227C257.792 99.227 261.939 100.063 263.127 96.587C264.315 93.111 268.385 83.948 264.821 80.89C261.257 77.832 258.397 84.927 258.397 84.927" stroke="#274452" stroke-width="1.10311" stroke-linecap="round" stroke-linejoin="round"/>
<path d="M215.112 92.693C216.664 92.4484 218.064 91.6225 219.028 90.383C219.617 89.295 219.991 88.1036 220.128 86.874C220.537 84.5347 220.743 82.1646 220.744 79.79C220.696 78.8623 220.781 77.9325 220.997 77.029C221.328 76.1198 221.836 75.2859 222.493 74.576C224.044 72.75 225.925 71.21 227.41 69.318C228.206 68.4252 228.812 67.3794 229.19 66.2446C229.569 65.1099 229.711 63.9099 229.61 62.718C233.013 65.5239 236.99 67.5501 241.26 68.6543C245.53 69.7584 249.991 69.9136 254.327 69.109C262.192 67.569 269.727 60.672 268.814 52.004C268.642 50.5507 268.019 49.1879 267.032 48.1068C266.046 47.0257 264.746 46.2806 263.314 45.976C259.431 45.008 255.944 47.076 252.424 48.407C246.011 50.827 239.73 46.669 233.251 45.976C227.751 45.371 220.898 46.064 218.016 51.575C218.016 51.575 208.116 52.741 203.716 60.925C199.316 69.109 207.643 80.428 207.643 80.428C207.643 80.428 210.943 76.38 215.266 84.564L215.112 92.693Z" fill="#274452"/>
<path d="M253.7 66.348C253.7 66.348 251.126 79.768 257.847 86.269C257.847 86.269 259.321 82.232 260.806 81.242C261.877 78.8604 262.33 76.2474 262.124 73.6443C261.919 71.0412 261.061 68.5319 259.629 66.348C254.657 58.538 253.7 66.348 253.7 66.348Z" fill="#274452"/>
<path opacity="0.2" d="M265.954 51.08C265.364 52.9111 264.364 54.5833 263.029 55.9692C261.695 57.355 260.062 58.418 258.254 59.077C248.926 62.883 239.873 58.67 230.523 57.845C222.9 57.163 214.485 64.049 213.946 71.881" stroke="white" stroke-width="1.10311" stroke-linecap="round" stroke-linejoin="round"/>
<path opacity="0.2" d="M208.193 69.813C208.308 66.7224 209.299 63.7281 211.052 61.1802C212.805 58.6324 215.248 56.6362 218.093 55.425" stroke="white" stroke-width="1.10311" stroke-linecap="round" stroke-linejoin="round"/>
<path d="M220.183 121.161C224.285 125.436 229.234 128.808 234.714 131.061C234.714 131.061 245.879 127.816 251.555 120.061" stroke="#274452" stroke-width="1.10311" stroke-linecap="round" stroke-linejoin="round"/>
<path d="M231.593 101.65C236.552 99.3753 238.728 93.5116 236.453 88.5529C234.179 83.5942 228.315 81.4182 223.356 83.6926C218.398 85.9671 216.222 91.8308 218.496 96.7895C220.771 101.748 226.634 103.924 231.593 101.65Z" stroke="#274452" stroke-width="1.10311" stroke-linecap="round" stroke-linejoin="round"/>
<path d="M250.734 102.519C256.149 101.854 260 96.9259 259.335 91.5111C258.67 86.0963 253.742 82.2457 248.327 82.9105C242.912 83.5754 239.061 88.5039 239.726 93.9187C240.391 99.3335 245.32 103.184 250.734 102.519Z" stroke="#274452" stroke-width="1.10311" stroke-linecap="round" stroke-linejoin="round"/>
<path d="M222.339 117.476C221.339 117.739 220.401 118.2 219.583 118.834C218.764 119.467 218.082 120.258 217.576 121.161C215.827 124.241 216.883 133.932 216.883 133.932C216.883 133.932 225.914 142.864 233.603 146.637L235.869 133.888L239.389 146.637C239.389 146.637 251.291 138.222 254.591 131.105C254.591 131.105 255.691 122.8 254.591 120.105C254.341 119.356 253.865 118.704 253.229 118.237C252.593 117.77 251.827 117.512 251.038 117.498" stroke="#274452" stroke-width="1.10311" stroke-linecap="round" stroke-linejoin="round"/>
<path d="M208.193 202.77C208.193 202.77 204.662 179.12 199.965 169.473" stroke="#274452" stroke-width="1.10311" stroke-linecap="round" stroke-linejoin="round"/>
<path d="M189.812 148.485C192.547 152.372 194.988 156.457 197.116 160.706" stroke="#274452" stroke-width="1.10311" stroke-linecap="round" stroke-linejoin="round"/>
<path d="M282.553 166.14C283.502 162.186 284.801 158.324 286.436 154.601" stroke="#274452" stroke-width="1.10311" stroke-linecap="round" stroke-linejoin="round"/>
<path d="M275.26 202.77C275.26 202.77 277.801 186.556 280.837 173.202" stroke="#274452" stroke-width="1.10311" stroke-linecap="round" stroke-linejoin="round"/>
<path d="M279.572 180C282.028 176.744 285.482 174.379 289.406 173.268" stroke="#274452" stroke-width="1.10311" stroke-linecap="round" stroke-linejoin="round"/>
<path d="M255.075 128.949C255.075 128.949 275.568 137.144 288.801 141.797C288.801 141.797 305.081 157.098 322.538 210.129C322.538 210.129 306.544 237.035 276.118 245.659" stroke="#274452" stroke-width="1.10311" stroke-linecap="round" stroke-linejoin="round"/>
<path d="M281.398 220.843L296.105 208.6C296.105 208.6 303.882 202.693 311.967 206.73" stroke="#274452" stroke-width="1.10311" stroke-linecap="round" stroke-linejoin="round"/>
<path d="M280.837 178.537C280.837 178.537 292.992 196.5 296.105 208.6" stroke="#274452" stroke-width="1.10311" stroke-linecap="round" stroke-linejoin="round"/>
<path d="M197.765 212.681L193.464 208.6C193.464 208.6 187.084 207.5 179.846 212.329" stroke="#274452" stroke-width="1.10311" stroke-linecap="round" stroke-linejoin="round"/>
<path d="M193.464 208.6C193.464 208.6 198.81 191 204.079 181.991" stroke="#274452" stroke-width="1.10311" stroke-linecap="round" stroke-linejoin="round"/>
<path d="M216.575 131.105C216.575 131.105 187.084 142.171 184.191 145.405C181.298 148.639 170.309 210.514 170.012 217.598C169.759 223.934 192.727 238.157 204.112 244.152" stroke="#274452" stroke-width="1.10311" stroke-linecap="round" stroke-linejoin="round"/>
<path d="M238.63 152.016C238.63 152.401 238.516 152.778 238.302 153.098C238.088 153.418 237.784 153.667 237.428 153.815C237.073 153.962 236.681 154.001 236.303 153.926C235.926 153.851 235.579 153.665 235.307 153.393C235.034 153.12 234.849 152.774 234.774 152.396C234.699 152.018 234.737 151.627 234.885 151.271C235.032 150.915 235.281 150.611 235.602 150.397C235.922 150.183 236.298 150.069 236.683 150.069C236.939 150.068 237.193 150.117 237.43 150.214C237.667 150.312 237.882 150.455 238.063 150.636C238.244 150.817 238.388 151.032 238.485 151.269C238.582 151.506 238.632 151.76 238.63 152.016Z" fill="#274452"/>
<path d="M272.752 255.658H205.652C205.235 255.658 204.835 255.492 204.54 255.197C204.245 254.902 204.079 254.502 204.079 254.085C204.079 253.668 204.245 253.268 204.54 252.973C204.835 252.678 205.235 252.512 205.652 252.512H272.752C273.169 252.512 273.569 252.678 273.864 252.973C274.159 253.268 274.325 253.668 274.325 254.085C274.325 254.502 274.159 254.902 273.864 255.197C273.569 255.492 273.169 255.658 272.752 255.658Z" fill="#274452"/>
<path d="M275.106 250.4L284.093 208.16C284.232 207.505 284.224 206.827 284.067 206.176C283.911 205.525 283.61 204.917 283.189 204.397C282.767 203.877 282.234 203.458 281.629 203.171C281.024 202.884 280.363 202.735 279.693 202.737H201.263C200.599 202.737 199.943 202.885 199.343 203.169C198.743 203.453 198.214 203.866 197.793 204.38C197.372 204.893 197.07 205.494 196.91 206.138C196.749 206.782 196.733 207.454 196.863 208.105L204.926 248.937C205.124 249.94 205.658 250.845 206.44 251.503C207.222 252.161 208.205 252.533 209.227 252.556L270.596 253.964C271.645 253.987 272.669 253.644 273.492 252.994C274.316 252.343 274.886 251.426 275.106 250.4Z" fill="white" stroke="#274452" stroke-width="1.10311" stroke-linecap="round" stroke-linejoin="round"/>
<path d="M246.484 227.113C246.482 228.35 246.113 229.559 245.424 230.587C244.735 231.615 243.757 232.416 242.613 232.888C241.469 233.36 240.211 233.482 238.998 233.239C237.784 232.997 236.67 232.4 235.796 231.524C234.921 230.648 234.326 229.533 234.086 228.319C233.845 227.105 233.97 225.847 234.444 224.704C234.918 223.561 235.72 222.584 236.749 221.897C237.778 221.21 238.988 220.843 240.225 220.843C241.048 220.843 241.863 221.005 242.623 221.321C243.383 221.636 244.074 222.098 244.655 222.68C245.236 223.262 245.697 223.954 246.011 224.714C246.325 225.475 246.486 226.29 246.484 227.113Z" fill="#274452"/>
<path d="M258.793 206.774H268.11" stroke="#274452" stroke-width="1.10311" stroke-linecap="round" stroke-linejoin="round"/>
<path d="M214.298 206.774H249.663" stroke="#274452" stroke-width="1.10311" stroke-linecap="round" stroke-linejoin="round"/>
<path d="M275.26 295.247L268.11 314.013C268.11 314.013 249.872 309.415 226.519 304.63C202.088 299.625 176.579 293.146 163.346 269.925C161.74 267.098 160.662 263.754 161.421 260.586C163.324 252.567 173.763 250.389 180.638 249.586C184.96 249.118 189.304 248.876 193.651 248.86C195.851 248.86 203.166 247.661 204.937 248.97C207.598 250.911 210.438 252.594 213.418 253.997C217.323 255.658 274.325 252.512 274.325 252.512C275.317 250.349 275.924 248.03 276.118 245.659C285.083 241.105 305.818 237.255 314.618 238.96C328.401 241.633 336.442 249.674 334.913 258.1C333.384 266.526 302.936 289.12 275.26 295.247Z" fill="#274452"/>
<path d="M275.26 295.247C275.26 295.247 257.913 290.649 243.745 281.079C229.577 271.509 218.511 260.399 198.766 262.698" stroke="white" stroke-width="1.10311" stroke-linecap="round" stroke-linejoin="round"/>
<path d="M240.5 278.824C249.454 276.25 256.021 270.453 263.204 264.898C270.78 258.817 278.916 253.47 287.503 248.926" stroke="white" stroke-width="1.10311" stroke-linecap="round" stroke-linejoin="round"/>
<path d="M237.343 94.255H239.972" stroke="#274452" stroke-width="1.10311" stroke-linecap="round" stroke-linejoin="round"/>
</g>
<defs>
<clipPath id="clip0">
<rect width="550" height="550" fill="white" transform="translate(-95 -183)"/>
</clipPath>
</defs>
</svg>
