<svg width="407" height="348" viewBox="0 0 407 348" fill="none" xmlns="http://www.w3.org/2000/svg">
<g clip-path="url(#clip0)">
<path d="M223.618 15.5563L223.435 17.2216L231.971 18.2187L232.154 16.5534L223.618 15.5563Z" fill="#49606C"/>
<path d="M186.603 11.2477L186.42 12.913L214.112 16.148L214.296 14.4827L186.603 11.2477Z" fill="#49606C"/>
<path d="M391.734 41.1211L99.0156 6.92538C94.6407 6.41431 90.692 9.65332 90.1959 14.1599L64.8981 243.954C64.4019 248.461 67.5462 252.528 71.9211 253.04L364.639 287.235C369.014 287.746 372.963 284.507 373.459 280.001L398.757 50.2064C399.253 45.6998 396.108 41.6321 391.734 41.1211Z" fill="#49606C"/>
<path opacity="0.7" d="M69.1733 241.244L93.7567 17.8536C93.8435 17.0644 94.081 16.3007 94.4557 15.6066C94.8304 14.9124 95.3348 14.3015 95.9398 13.8092C96.5448 13.3168 97.2384 12.9527 97.9807 12.7379C98.723 12.5231 99.4992 12.4618 100.265 12.5576L389.376 46.3116C390.141 46.4031 390.882 46.6492 391.554 47.0358C392.227 47.4224 392.819 47.942 393.297 48.5647C393.774 49.1875 394.128 49.9011 394.337 50.6649C394.547 51.4286 394.608 52.2274 394.517 53.0155L369.869 276.322C369.784 277.112 369.548 277.877 369.174 278.572C368.8 279.267 368.295 279.879 367.69 280.372C367.084 280.865 366.39 281.228 365.647 281.442C364.904 281.656 364.127 281.716 363.361 281.618L74.2494 247.847C72.731 247.654 71.3473 246.853 70.3975 245.617C69.4476 244.382 69.0079 242.811 69.1733 241.244Z" fill="#263238"/>
<path d="M346.107 101.368L224.28 87.1357L223.6 93.314L345.427 107.546L346.107 101.368Z" fill="#49606C"/>
<path d="M364.781 113.519L235.712 98.4407L235.032 104.619L364.101 119.697L364.781 113.519Z" fill="#49606C"/>
<path d="M341.557 120.784L234.619 108.291L233.938 114.469L340.877 126.962L341.557 120.784Z" fill="#49606C"/>
<path d="M329.321 129.338L233.538 118.149L232.857 124.327L328.641 135.517L329.321 129.338Z" fill="#49606C"/>
<path d="M298.403 141.965L219.254 132.719L218.574 138.897L297.723 148.144L298.403 141.965Z" fill="#49606C"/>
<path d="M313.504 173.687L228.519 163.759L227.839 169.938L312.824 179.866L313.504 173.687Z" fill="#49606C"/>
<path d="M300.021 162.128L229.602 153.902L228.921 160.08L299.341 168.307L300.021 162.128Z" fill="#49606C"/>
<path d="M308.24 153.107L230.692 144.047L230.012 150.226L307.56 159.285L308.24 153.107Z" fill="#49606C"/>
<path d="M290.136 217.136L210.987 207.889L210.307 214.068L289.455 223.314L290.136 217.136Z" fill="#49606C"/>
<path d="M305.22 248.856L220.235 238.928L219.555 245.106L304.539 255.034L305.22 248.856Z" fill="#49606C"/>
<path d="M290.825 234.398L220.663 226.368L219.999 232.523L290.161 240.554L290.825 234.398Z" fill="#49606C"/>
<path d="M299.957 228.275L222.409 219.216L221.729 225.394L299.277 234.454L299.957 228.275Z" fill="#49606C"/>
<path d="M171.597 34.4175L107.321 26.9087L106.641 33.0869L170.917 40.5957L171.597 34.4175Z" fill="white"/>
<path d="M183.228 65.7039L114.231 57.6437L113.551 63.8219L182.548 71.8822L183.228 65.7039Z" fill="white"/>
<path d="M172.492 54.482L115.312 47.8022L114.632 53.9805L171.812 60.6602L172.492 54.482Z" fill="white"/>
<path d="M179.346 45.2857L116.379 37.9298L115.699 44.1081L178.666 51.4639L179.346 45.2857Z" fill="white"/>
<path d="M310.241 203.255L225.256 193.327L224.576 199.505L309.561 209.433L310.241 203.255Z" fill="#49606C"/>
<path d="M296.759 191.697L226.34 183.47L225.66 189.648L296.079 197.875L296.759 191.697Z" fill="#49606C"/>
<path d="M304.978 182.675L227.43 173.615L226.75 179.794L304.298 188.853L304.978 182.675Z" fill="#49606C"/>
<path opacity="0.2" d="M213.253 329.81C260.338 329.81 298.507 322.332 298.507 313.108C298.507 303.884 260.338 296.407 213.253 296.407C166.169 296.407 128 303.884 128 313.108C128 322.332 166.169 329.81 213.253 329.81Z" fill="black"/>
<path d="M292.065 100.783C290.729 94.5406 289.984 94.8404 282.405 92.4597C274.073 89.8438 265.419 88.3914 256.689 88.1434C251.071 87.9314 245.453 88.5842 240.033 90.0789C240.033 90.0789 230.51 91.2693 223.676 92.805C217.815 104.509 224.431 120.575 224.431 120.575C224.431 120.575 232.754 138.857 232.754 148.226C232.754 157.595 225.612 173.942 225.321 174.387C225.03 174.833 203.322 212.552 197.815 225.374C192.308 238.196 192.172 243.366 195.143 248.418C198.115 253.471 232.009 300.15 232.009 300.15C232.009 300.15 222.922 310.555 218.779 313.235C214.635 315.916 209.428 316.334 211.245 318.569C213.063 320.805 225.067 321.686 228.338 320.941C231.609 320.196 239.042 313.672 243.35 310.691C247.657 307.711 251.528 305.63 249.892 301.913C248.257 298.197 244.685 294.925 243.204 291.918C241.723 288.91 236.362 280.323 233.39 269.618C230.419 258.914 228.193 252.526 224.767 246.728C221.341 240.931 218.969 238.705 218.969 238.705C218.969 238.705 231.755 226.955 238.597 221.012C245.44 215.069 251.528 210.163 251.528 210.163C251.528 210.163 274.718 186.373 276.799 181.166C278.879 175.959 284.532 159.612 288.693 145.346C292.855 131.079 293.4 107.026 292.065 100.783Z" fill="#274452" stroke="#263238" stroke-width="0.967197" stroke-linecap="round" stroke-linejoin="round"/>
<path d="M224.431 120.556C224.431 120.556 217.815 104.491 223.676 92.7867C222.067 93.1252 220.48 93.5622 218.924 94.0953C213.281 96.1762 185.775 107.726 182.949 108.961C180.123 110.197 174.925 114.459 176.261 118.957C177.597 123.455 179.678 124.755 189.192 124.9C198.706 125.045 224.431 120.556 224.431 120.556Z" fill="#263238" stroke="#263238" stroke-width="0.967197" stroke-linecap="round" stroke-linejoin="round"/>
<path d="M204.212 39.3922C204.212 39.3922 212.681 43.6994 213.126 44.4445C213.572 45.1896 212.981 46.8162 212.381 48.0066C211.782 49.197 208.519 52.023 207.038 52.6137C205.557 53.2043 206.738 48.7517 206.738 46.2528C206.738 43.7539 202.422 41.6458 201.977 40.4554C201.532 39.265 203.067 38.9379 204.212 39.3922Z" fill="white" stroke="#263238" stroke-width="0.967197" stroke-linecap="round" stroke-linejoin="round"/>
<path d="M188.001 123.828L184.739 124.736C181.467 125.645 175.815 126.072 174.925 124.882C174.034 123.691 170.908 107.935 171.354 99.1658C171.799 90.3969 184.884 52.9315 186.374 50.0964C187.865 47.2613 200.641 38.0562 200.641 38.0562C200.641 38.0562 202.276 37.611 204.212 39.4011C206.148 41.1912 211.645 44.8987 211.345 46.3798C211.045 47.861 207.929 52.3318 206.584 53.5222C205.239 54.7125 203.167 53.5222 203.167 53.5222C203.167 53.5222 201.531 56.3391 199.45 57.2387C197.37 58.1383 192.463 57.0842 192.463 57.0842C192.463 57.0842 188.455 82.0642 189.637 91.6145C190.818 101.165 193.208 112.278 191.454 117.63" fill="#263238"/>
<path d="M188.001 123.828L184.739 124.736C181.467 125.645 175.815 126.072 174.925 124.882C174.034 123.691 170.908 107.935 171.354 99.1658C171.799 90.3969 184.884 52.9315 186.374 50.0964C187.865 47.2613 200.641 38.0562 200.641 38.0562C200.641 38.0562 202.276 37.611 204.212 39.4011C206.148 41.1912 211.645 44.8987 211.345 46.3798C211.045 47.861 207.929 52.3318 206.584 53.5222C205.239 54.7125 203.167 53.5222 203.167 53.5222C203.167 53.5222 201.531 56.3391 199.45 57.2387C197.37 58.1383 192.463 57.0842 192.463 57.0842C192.463 57.0842 188.455 82.0642 189.637 91.6145C190.818 101.165 193.208 112.278 191.454 117.63" stroke="#263238" stroke-width="0.967197" stroke-linecap="round" stroke-linejoin="round"/>
<path d="M199.432 57.2296C201.513 56.321 203.149 53.5131 203.149 53.5131C203.149 53.5131 205.23 54.7035 206.566 53.5131C207.901 52.3227 211.027 47.861 211.327 46.3708C211.627 44.8805 206.12 41.1731 204.194 39.392C202.268 37.611 200.623 38.0471 200.623 38.0471C200.623 38.0471 187.838 47.2704 186.356 50.0873C185.993 50.7779 184.948 53.5131 183.558 57.3569C186.042 59.0869 188.918 60.1706 191.927 60.51C192.236 58.3655 192.445 57.0479 192.445 57.0479C192.445 57.0479 197.37 58.1202 199.432 57.2296Z" fill="white" stroke="#263238" stroke-width="0.967197" stroke-linecap="round" stroke-linejoin="round"/>
<path d="M212.672 47.7248C212.672 47.7248 214.753 48.3155 214.162 49.8057C213.571 51.296 211.336 52.9225 210 52.7771C208.664 52.6317 208.365 50.8416 209.255 49.3605C210.146 47.8793 211.927 47.1251 212.672 47.7248Z" fill="white" stroke="#263238" stroke-width="0.967197" stroke-linecap="round" stroke-linejoin="round"/>
<path d="M203.167 53.5132C203.167 53.5132 201.977 52.1683 202.722 51.1324C203.467 50.0965 204.948 50.8325 204.948 50.8325L202.722 48.0065" stroke="#263238" stroke-width="0.967197" stroke-linecap="round" stroke-linejoin="round"/>
<path d="M220.823 162.029C225.47 162.029 229.237 158.262 229.237 153.615C229.237 148.967 225.47 145.2 220.823 145.2C216.176 145.2 212.408 148.967 212.408 153.615C212.408 158.262 216.176 162.029 220.823 162.029Z" fill="white" stroke="#263238" stroke-width="0.967197" stroke-linecap="round" stroke-linejoin="round"/>
<path d="M218.615 145.364C219.496 142.986 220.89 140.832 222.697 139.055C224.505 137.277 226.682 135.919 229.074 135.077C237.397 131.97 250.955 128.717 258.797 118.421C266.639 108.126 263.804 88.4342 263.804 88.4342L269.901 89.2611C269.901 89.2611 269.084 108.943 265.167 119.393C261.251 129.843 249.319 135.75 239.851 137.367C230.382 138.985 222.54 138.83 218.615 145.364Z" fill="white" stroke="#263238" stroke-width="0.967197" stroke-linecap="round" stroke-linejoin="round"/>
<path d="M218.615 145.364C218.615 145.364 217.633 138.667 223.676 131.642C229.719 124.618 239.524 116.949 241.159 109.761C242.795 102.573 240.996 90.1606 240.996 90.1606L246.221 88.6885C247.658 95.1924 247.714 101.926 246.384 108.453C244.094 118.575 238.542 123.482 231.682 128.707C224.821 133.932 218.615 145.364 218.615 145.364Z" fill="white" stroke="#263238" stroke-width="0.967197" stroke-linecap="round" stroke-linejoin="round"/>
<path d="M285.967 95.431C284.214 96.8771 282.771 98.6624 281.725 100.68C280.679 102.697 280.051 104.905 279.879 107.171C279.279 114.904 280.615 135.268 280.615 143.301C280.615 151.334 274.672 163.365 275.563 169.608C276.453 175.85 284.65 183.283 289.093 178.385C293.537 173.488 296.971 157.722 298.607 137.349C300.243 116.976 298.907 103.309 296.381 99.1839C293.855 95.0584 289.684 92.3051 285.967 95.431Z" fill="#263238" stroke="#263238" stroke-width="0.967197" stroke-linecap="round" stroke-linejoin="round"/>
<path d="M290.874 172.288C289.965 177.341 287.157 182.284 284.186 183.283C281.214 184.283 277.825 180.167 273.036 172.434C268.247 164.701 265.767 156.232 263.949 147.308C262.338 139.152 261.149 130.917 260.387 122.637C260.233 119.221 260.387 118.321 262.314 116.277C264.24 114.232 271.237 112.56 271.237 112.56L272.427 110.479C273.018 109.443 276.144 108.843 277.625 109.743C279.106 110.643 279.86 115.54 279.86 115.54C279.86 115.54 284.022 117.912 284.022 120.293C284.022 122.674 281.342 125.2 278.37 129.216C275.399 133.233 274.508 131.742 274.208 135.459C273.909 139.176 276.026 144.082 279.706 147.499C283.386 150.916 288.793 155.078 290.265 161.766" fill="#263238"/>
<path d="M290.874 172.288C289.965 177.341 287.157 182.284 284.186 183.283C281.214 184.283 277.825 180.167 273.036 172.434C268.247 164.701 265.767 156.232 263.949 147.308C262.338 139.152 261.149 130.917 260.387 122.637C260.233 119.221 260.387 118.321 262.314 116.277C264.24 114.232 271.237 112.56 271.237 112.56L272.427 110.479C273.018 109.443 276.144 108.843 277.625 109.743C279.106 110.643 279.86 115.54 279.86 115.54C279.86 115.54 284.022 117.912 284.022 120.293C284.022 122.674 281.342 125.2 278.37 129.216C275.399 133.233 274.508 131.742 274.208 135.459C273.909 139.176 276.026 144.082 279.706 147.499C283.386 150.916 288.793 155.078 290.265 161.766" stroke="#263238" stroke-width="0.967197" stroke-linecap="round" stroke-linejoin="round"/>
<path d="M274.2 136.24C274.2 135.968 274.2 135.686 274.2 135.423C274.499 131.706 275.39 133.187 278.361 129.18C281.333 125.173 284.013 122.637 284.013 120.257C284.013 117.876 279.852 115.504 279.852 115.504C279.852 115.504 279.107 110.597 277.616 109.707C276.126 108.816 273.009 109.407 272.419 110.443L271.219 112.524C271.219 112.524 264.231 114.159 262.296 116.24C260.36 118.321 260.215 119.221 260.369 122.601C260.46 124.818 261.187 130.779 262.187 137.14C266.197 137.956 270.355 137.644 274.2 136.24Z" fill="white" stroke="#263238" stroke-width="0.967197" stroke-linecap="round" stroke-linejoin="round"/>
<path d="M276.944 180.739C259.043 174.751 236.861 171.916 226.83 170.862C226.003 172.915 225.403 174.242 225.321 174.369C225.021 174.814 203.322 212.534 197.815 225.356C192.308 238.177 192.172 243.348 195.143 248.4C198.115 253.453 232.009 300.132 232.009 300.132C237.461 299.469 242.323 295.807 244.431 293.998C243.953 293.352 243.527 292.668 243.159 291.954C241.668 288.982 236.316 280.359 233.345 269.655C230.373 258.95 228.147 252.562 224.721 246.765C221.296 240.967 218.924 238.741 218.924 238.741C218.924 238.741 231.709 226.991 238.552 221.049C245.394 215.106 251.482 210.199 251.482 210.199C251.482 210.199 274.672 186.409 276.753 181.202C276.817 181.057 276.871 180.903 276.944 180.739Z" fill="#787878" stroke="#263238" stroke-width="0.967197" stroke-linecap="round" stroke-linejoin="round"/>
<path d="M244.43 293.998C242.722 297.233 235.58 303.403 235.58 303.403C235.58 303.403 233.762 301.468 232.754 300.132C231.963 299.123 231.691 299.378 231.6 299.569L232.009 300.132C232.009 300.132 222.922 310.536 218.778 313.217C214.634 315.898 209.428 316.334 211.245 318.569C213.062 320.805 225.066 321.686 228.338 320.941C231.609 320.196 239.042 313.671 243.349 310.691C247.656 307.71 251.527 305.63 249.892 301.913C248.574 299.032 246.148 296.415 244.43 293.998Z" fill="#274452" stroke="#263238" stroke-width="0.967197" stroke-linecap="round" stroke-linejoin="round"/>
<path d="M225.912 319.16C222.831 319.96 214.589 318.251 210.918 317.343C210.84 317.548 210.825 317.772 210.875 317.986C210.926 318.199 211.039 318.393 211.2 318.542C213.017 320.768 225.021 321.659 228.292 320.914C231.564 320.169 238.997 313.644 243.304 310.664C247.611 307.683 251.482 305.602 249.847 301.886C249.656 301.459 249.438 301.032 249.201 300.614C248.429 301.65 247.52 302.813 246.575 303.967C243.904 307.265 229.928 318.115 225.912 319.16Z" fill="white" stroke="#263238" stroke-width="0.967197" stroke-linecap="round" stroke-linejoin="round"/>
<path d="M267.838 188.19C267.838 188.19 254.862 176.595 242.268 172.434C229.673 168.272 206.138 169.462 200.195 171.843C194.252 174.224 196.778 181.839 196.924 190.571C197.069 199.304 203.021 215.542 205.547 224.765C208.074 233.988 208.964 244.238 209.264 247.8C209.564 251.363 209.564 252.707 209.564 252.707C209.564 252.707 193.062 252.562 188.746 252.117C184.429 251.672 181.912 253.025 181.167 254.498C180.726 255.261 180.568 256.155 180.722 257.024C180.722 257.024 191.872 264.293 201.531 268.319C211.19 272.344 220.414 274.861 221.604 274.262C222.794 273.662 223.976 264.602 223.976 258.359C223.976 252.117 225.911 222.085 225.911 216.732V202.911C225.911 202.911 254.753 218.223 266.203 214.651C277.652 211.08 276.943 180.739 276.943 180.739L267.684 177.786" fill="#787878"/>
<path d="M267.838 188.19C267.838 188.19 254.862 176.595 242.268 172.434C229.673 168.272 206.138 169.462 200.195 171.843C194.252 174.224 196.778 181.839 196.924 190.571C197.069 199.304 203.021 215.542 205.547 224.765C208.074 233.988 208.964 244.238 209.264 247.8C209.564 251.363 209.564 252.707 209.564 252.707C209.564 252.707 193.062 252.562 188.746 252.117C184.429 251.672 181.912 253.025 181.167 254.498C180.726 255.261 180.568 256.155 180.722 257.024C180.722 257.024 191.872 264.293 201.531 268.319C211.19 272.344 220.414 274.861 221.604 274.262C222.794 273.662 223.976 264.602 223.976 258.359C223.976 252.117 225.911 222.085 225.911 216.732V202.911C225.911 202.911 254.753 218.223 266.203 214.651C277.652 211.08 276.943 180.739 276.943 180.739L267.684 177.786" stroke="#263238" stroke-width="0.967197" stroke-linecap="round" stroke-linejoin="round"/>
<path d="M209.564 252.707C209.564 252.707 193.062 252.562 188.746 252.117C184.429 251.672 181.912 253.025 181.167 254.498C180.726 255.261 180.568 256.155 180.722 257.024C180.722 257.024 191.872 264.293 201.531 268.319C211.19 272.344 220.414 274.861 221.604 274.262C222.649 273.744 223.694 266.656 223.93 260.704C217.806 255.488 209.564 252.707 209.564 252.707Z" fill="#274452" stroke="#263238" stroke-width="0.967197" stroke-linecap="round" stroke-linejoin="round"/>
<path d="M221.604 274.262C222.068 274.034 222.513 272.444 222.931 270.336C217.743 269.956 212.638 268.827 207.774 266.983C199.369 263.812 185.675 257.151 181.004 254.852C180.689 255.53 180.591 256.288 180.722 257.024C180.722 257.024 191.872 264.293 201.531 268.319C211.191 272.344 220.414 274.852 221.604 274.262Z" fill="white" stroke="#263238" stroke-width="0.967197" stroke-linecap="round" stroke-linejoin="round"/>
<path d="M225.912 202.911C225.912 202.911 225.766 189.98 219.224 183.583" stroke="#263238" stroke-width="0.967197" stroke-linecap="round" stroke-linejoin="round"/>
<path d="M215.789 73.9403C215.789 73.9403 219.333 85.5625 220.896 89.6697C222.459 93.777 222.595 96.0306 227.548 100.719C232.5 105.408 233.5 109.079 238.597 109.497C243.695 109.915 245.685 106.771 245.685 106.771C245.685 106.771 246.394 111.451 249.084 112.86C251.773 114.268 257.725 114.559 261.405 107.335C265.086 100.111 262.823 96.5758 261.551 93.1773C260.279 89.7788 258.57 85.5261 258.57 85.5261C260.419 82.9757 261.377 79.8879 261.296 76.739C261.015 71.7867 259.597 71.2142 258.043 70.7871C256.489 70.36 252.091 73.1951 250.256 72.3501C248.42 71.505 251.528 66.6798 246.567 66.2618C241.605 65.8438 236.507 72.6227 227.584 73.3405C218.661 74.0584 215.462 71.2505 215.789 73.9403Z" fill="white" stroke="#263238" stroke-width="0.967197" stroke-linecap="round" stroke-linejoin="round"/>
<path d="M245.64 106.808L253.709 97.7207C257.253 93.7588 257.253 87.8069 257.253 87.8069" fill="white"/>
<path d="M245.64 106.808L253.709 97.7207C257.253 93.7588 257.253 87.8069 257.253 87.8069" stroke="#263238" stroke-width="0.967197" stroke-linecap="round" stroke-linejoin="round"/>
<path d="M229.774 87.8254C229.774 87.8254 230.764 92.3689 229.774 94.6224C228.783 96.876 229.628 98.03 231.327 98.1663C232.141 98.3049 232.976 98.2072 233.736 97.8846" stroke="#263238" stroke-width="0.967197" stroke-linecap="round" stroke-linejoin="round"/>
<path d="M235.017 88.2523C235.017 88.2523 236.007 85.2809 240.678 86.126" stroke="#263238" stroke-width="1.93439" stroke-linecap="round" stroke-linejoin="round"/>
<path d="M223.258 89.0974C223.258 89.0974 225.984 87.5435 227.929 89.6698" stroke="#263238" stroke-width="1.93439" stroke-linecap="round" stroke-linejoin="round"/>
<path d="M220.85 84.5722C220.85 84.5722 224.103 81.31 227.929 86.3896" stroke="#263238" stroke-width="0.967197" stroke-linecap="round" stroke-linejoin="round"/>
<path d="M232.463 84.9903C232.463 84.9903 234.017 79.7562 238.824 80.4468" stroke="#263238" stroke-width="0.967197" stroke-linecap="round" stroke-linejoin="round"/>
<path d="M236.852 99.302C236.852 99.302 244.222 97.8845 245.639 89.2428C245.639 89.2428 249.274 95.0675 246.757 99.7382C244.24 104.409 240.823 103.691 240.823 103.691L236.852 99.302Z" stroke="#263238" stroke-width="0.967197" stroke-linecap="round" stroke-linejoin="round"/>
<path d="M220.559 57.511C220.559 57.511 224.249 52.4133 220.141 53.122C216.034 53.8308 209.237 61.7637 210.082 69.2695C210.927 76.7753 226.084 78.4746 233.454 77.3478C237.876 76.658 241.98 74.6281 245.212 71.5322C245.212 71.5322 242.486 77.3478 245.358 78.0475C248.229 78.7472 249.601 78.0475 249.601 78.0475C249.601 78.0475 252.327 84.1448 253.145 82.3002C253.963 80.4555 252.945 79.0107 253.427 76.639C254.563 71.1142 258.67 71.2505 258.67 71.2505C258.67 71.2505 259.379 57.511 254.281 52.1679C249.183 46.8248 235.862 46.216 230.337 49.0511C224.812 51.8862 220.559 57.511 220.559 57.511Z" fill="#263238" stroke="#263238" stroke-width="0.967197" stroke-linecap="round" stroke-linejoin="round"/>
</g>
<defs>
<clipPath id="clip0">
<rect width="628" height="628" fill="white" transform="translate(-221 -143)"/>
</clipPath>
</defs>
</svg>
