<svg width="451" height="334" viewBox="0 0 451 334" fill="none" xmlns="http://www.w3.org/2000/svg">
<path d="M406.561 299.932H53.2207V314.428H406.561V299.932Z" fill="#314048"/>
<path opacity="0.5" d="M406.561 299.932H53.2207V314.428H406.561V299.932Z" fill="white"/>
<path d="M136.546 144.019C134.818 144.583 133.121 145.239 131.463 145.985C132.369 145.323 133.275 144.635 134.181 143.937C138.215 140.693 142.054 137.214 145.678 133.518C141.425 137.65 136.884 141.474 132.088 144.961C132.749 143.812 133.331 142.62 133.828 141.391C134.734 139.135 134.897 136.861 132.75 135.656C130.095 134.171 126.888 136.39 127.73 140.186C128.245 142.306 129.247 144.276 130.657 145.939C127.527 148.106 124.259 150.064 120.872 151.801L120.555 151.964C121.271 150.724 121.903 149.438 122.448 148.114C123.3 145.867 123.517 143.584 121.361 142.388C118.707 140.893 115.499 143.122 116.351 146.918C116.857 149.009 117.836 150.956 119.214 152.608C115.146 154.61 110.942 156.313 106.756 158.161L106.149 158.433C106.966 157.556 107.726 156.627 108.423 155.652C109.782 153.659 110.516 151.502 108.704 149.826C106.476 147.761 102.824 149.174 102.77 153.088C102.772 155.248 103.275 157.378 104.238 159.312C100.321 161.142 96.5994 163.364 93.1302 165.944L93.0215 166.035C93.4907 165.291 93.9202 164.523 94.308 163.733C95.3318 161.55 95.7123 159.303 93.6466 157.935C93.2269 157.646 92.7471 157.456 92.2435 157.38C91.7399 157.303 91.2254 157.342 90.7388 157.493C90.2523 157.644 89.8062 157.903 89.4342 158.251C89.0622 158.599 88.774 159.027 88.5911 159.502C88.3188 159.077 87.9493 158.723 87.513 158.469C85.4383 157.274 83.3998 158.569 81.6512 160.399C81.1982 160.879 80.7452 161.396 80.3556 161.903C81.7045 158.16 83.4 154.55 85.4201 151.122C87.3439 151.962 89.4183 152.403 91.5175 152.417C95.6489 152.417 97.3884 148.975 95.359 146.836C93.71 145.106 91.3907 145.767 89.1982 147.036C88.4762 147.457 87.7776 147.916 87.1053 148.413C89.2056 145.25 91.5891 142.284 94.2265 139.552C95.9547 140.95 97.963 141.96 100.115 142.515C104.129 143.502 106.648 140.594 105.198 138.03C104.02 135.946 101.574 136.028 99.1732 136.725C98.024 137.069 96.8982 137.487 95.8029 137.976C96.8992 136.907 98.0317 135.883 99.1823 134.868C100.686 133.582 102.245 132.34 103.83 131.126C105.535 132.487 107.508 133.472 109.619 134.016C113.633 135.004 116.152 132.096 114.702 129.532C113.524 127.448 111.078 127.53 108.668 128.227C108.106 128.39 107.536 128.59 106.983 128.798C109.076 127.303 111.196 125.844 113.325 124.395L115.291 123.045C117.063 124.529 119.142 125.6 121.379 126.18C125.393 127.167 127.921 124.259 126.471 121.695C125.284 119.611 122.847 119.693 120.437 120.39C119.489 120.68 118.556 121.015 117.638 121.396L118.852 120.49C119.594 119.955 120.337 119.412 121.062 118.841C121.968 118.161 122.829 117.41 123.708 116.685C124.215 116.286 124.695 115.86 125.175 115.425C126.954 116.925 129.047 118.006 131.3 118.587C135.314 119.575 137.832 116.667 136.383 114.103C135.205 112.019 132.759 112.1 130.358 112.798C129.011 113.214 127.692 113.713 126.408 114.293C128.047 112.771 129.633 111.185 131.137 109.536C131.237 109.419 131.327 109.301 131.436 109.192C132.079 108.476 132.713 107.752 133.329 107C133.946 106.248 134.743 105.26 135.413 104.354C138.166 100.74 140.433 96.7804 142.154 92.576C140.35 96.7304 138.008 100.629 135.187 104.173C132.397 107.731 129.282 111.022 125.882 114.003L125.511 114.32C126.283 113.005 126.967 111.64 127.558 110.234C128.419 107.987 128.627 105.704 126.471 104.508C123.825 103.013 120.609 105.242 121.461 109.038C122.008 111.286 123.1 113.364 124.641 115.09L123.844 115.779L122.938 116.558C122.412 116.984 121.869 117.391 121.325 117.799C121.035 118.017 120.754 118.243 120.419 118.46C119.649 119.031 118.87 119.584 118.081 120.128L116.949 120.898L115.662 121.804C116.414 120.52 117.074 119.185 117.638 117.808C118.498 115.552 118.707 113.278 116.559 112.082C113.905 110.587 110.688 112.816 111.54 116.612C112.065 118.793 113.106 120.815 114.575 122.51L113.669 123.126L110.145 125.437L109.447 125.89L107.481 127.203L106.63 127.774C105.724 128.399 104.818 129.033 103.912 129.686C104.64 128.382 105.275 127.029 105.814 125.636C106.72 123.389 106.883 121.106 104.736 119.91C102.081 118.415 98.8742 120.644 99.7259 124.44C100.258 126.65 101.322 128.696 102.824 130.402C101.284 131.534 99.7621 132.694 98.2944 133.908C97.2163 134.814 96.1562 135.72 95.1143 136.698C95.5683 135.858 95.9736 134.993 96.3284 134.107C97.18 131.851 97.3975 129.577 95.2412 128.381C92.5866 126.886 89.3794 129.115 90.231 132.911C90.7366 135.002 91.7162 136.949 93.094 138.601C90.1596 141.517 87.5167 144.712 85.2027 148.141C85.4654 147.152 85.6651 146.147 85.8007 145.133C86.0906 142.741 85.7463 140.494 83.3635 139.842C80.4281 139.036 77.855 141.971 79.6036 145.468C80.6095 147.394 82.0485 149.059 83.8075 150.334C81.5252 154.061 79.6193 158.007 78.1178 162.112C78.0786 161.253 77.9939 160.397 77.8641 159.548C77.4564 157.165 76.496 155.108 74.0227 155.153C70.9785 155.217 69.3386 158.777 72.0113 161.622C73.4367 163.108 75.1764 164.257 77.1031 164.984C76.0727 168.152 75.2346 171.381 74.5934 174.651C74.4847 175.167 74.4032 175.683 74.3035 176.2C74.1948 176.299 74.0861 176.399 73.9864 176.508C73.8777 176.064 73.7509 175.602 73.6059 175.176C72.8449 172.893 71.5765 170.999 69.1393 171.434C66.1495 171.96 65.0714 175.711 68.1518 178.13C69.7173 179.325 71.5219 180.168 73.4428 180.603C73.4428 180.694 73.5153 180.775 73.5606 180.866C73.2254 183.321 72.9717 185.794 72.8177 188.277C72.6999 190.089 72.6365 191.982 72.6002 193.84C70.0091 193.84 68.179 196.685 69.9638 199.765C70.7169 201.042 71.682 202.182 72.8177 203.135C73.0351 206.623 73.3794 210.111 73.8415 213.572C73.4751 213.233 73.0267 212.996 72.5406 212.883C72.0544 212.77 71.5473 212.786 71.0691 212.929C69.4383 213.373 68.7044 214.687 68.4417 216.299C67.8614 216.9 67.5366 217.702 67.5357 218.537C66.3217 216.725 65.171 214.913 64.0567 213.002C65.7578 211.698 67.168 210.053 68.1971 208.173C70.145 204.549 67.9434 201.369 65.1076 202.139C62.7883 202.773 62.2809 205.128 62.3896 207.656C62.4259 208.615 62.5166 209.571 62.6614 210.519L61.4655 208.417C60.4689 206.605 59.6535 204.793 58.675 202.981C58.4395 202.537 58.2311 202.075 58.0408 201.622C59.9496 200.661 61.6373 199.312 62.9966 197.663C65.5969 194.456 64.0295 190.931 61.094 191.158C58.7022 191.348 57.7509 193.568 57.3523 196.068C57.1969 197.159 57.1001 198.257 57.0623 199.357L56.2107 197.391C54.3968 192.931 52.9042 188.347 51.7441 183.674C53.9046 182.909 55.867 181.671 57.4882 180.05C60.3964 177.106 59.1914 173.455 56.2469 173.382C53.8551 173.328 52.6864 175.439 52.034 177.912C51.7143 179.225 51.4753 180.556 51.3183 181.899C50.6841 179.217 50.1405 176.499 49.6875 173.745C49.3795 172.059 49.1801 170.347 48.9718 168.644C51.294 168.184 53.4812 167.201 55.3681 165.772C58.6297 163.235 57.914 159.43 54.9967 159.004C52.632 158.633 51.2005 160.58 50.2402 162.927C49.6779 164.407 49.2059 165.92 48.8268 167.457C48.6456 165.482 48.4372 163.498 48.3466 161.514C48.0748 157.417 48.0748 153.307 48.3466 149.21C47.933 153.303 47.7908 157.42 47.9208 161.532C47.9208 163.425 48.0839 165.31 48.2017 167.203C47.6841 165.916 47.0787 164.666 46.3897 163.461C45.1575 161.387 43.5086 159.837 41.2255 160.743C38.4078 161.903 38.1632 165.799 41.6966 167.502C43.769 168.454 46.0423 168.887 48.3194 168.762C48.4825 170.456 48.6275 172.141 48.8812 173.817C49.2345 176.535 49.6875 179.144 50.222 181.781C49.6423 180.771 48.9977 179.799 48.2923 178.873C46.7974 176.979 44.9672 175.638 42.8563 176.861C40.2198 178.374 40.4735 182.297 44.1971 183.502C46.3042 184.157 48.5359 184.306 50.7113 183.937C51.7449 188.661 53.1042 193.308 54.7792 197.844L55.3138 199.203C54.8344 198.568 54.317 197.963 53.7645 197.391C52.0884 195.652 50.1405 194.501 48.1201 195.942C45.6467 197.754 46.3081 201.559 50.1133 202.41C52.2134 202.836 54.383 202.774 56.4553 202.229C56.6456 202.691 56.8358 203.135 57.0623 203.606C57.9683 205.473 58.7747 207.384 59.726 209.214L60.5142 210.8C60.0431 210.392 59.5538 210.003 59.0465 209.64C57.0714 208.254 54.9332 207.493 53.23 209.278C51.128 211.479 52.487 215.14 56.401 215.258C58.4386 215.305 60.4616 214.903 62.3262 214.08C63.4496 216.109 64.6003 218.111 65.8505 220.077C66.3126 220.829 66.7565 221.572 67.282 222.315C66.5713 221.665 65.8209 221.06 65.0351 220.503C63.0601 219.117 60.9219 218.356 59.2096 220.141C57.1167 222.342 58.4757 226.003 62.3896 226.12C64.6266 226.147 66.8379 225.641 68.8403 224.644C69.4927 225.55 70.1631 226.456 70.8517 227.362C69.393 229.056 69.8732 231.892 72.8358 233.187C74.2747 233.787 75.8083 234.127 77.3658 234.193C77.547 234.338 77.7282 234.483 77.9275 234.619L78.0181 234.691C79.8905 241.686 82.1102 248.577 84.6772 255.366C85.7644 258.256 86.9332 261.119 88.1381 263.964H77.2661V306.836H110.489V263.928H92.804C91.291 260.621 89.8324 257.278 88.4734 253.898C86.2537 248.354 84.2423 242.718 82.4938 237.002C82.7913 237.089 83.0939 237.159 83.3998 237.21C83.8022 237.291 84.2148 237.31 84.6229 237.264L84.1517 234.284H83.8346C83.6457 234.257 83.4582 234.221 83.2729 234.175C82.8544 234.055 82.4455 233.903 82.0498 233.722L81.5787 233.504C83.3272 232.895 84.951 231.974 86.3714 230.786C89.5153 228.068 88.6274 224.354 85.6919 224.037C83.3182 223.774 81.9773 225.785 81.1619 228.168C80.9173 228.848 80.718 229.554 80.5459 230.243C80.3737 229.609 80.2016 228.974 80.0385 228.34C79.5583 226.465 79.1325 224.571 78.6976 222.678C80.5952 222.086 82.3587 221.129 83.889 219.86C87.0328 217.142 86.1359 213.436 83.2095 213.119C80.8267 212.857 79.4949 214.868 78.6795 217.251C78.4349 217.939 78.2265 218.655 78.0453 219.362C77.7735 217.985 77.5108 216.598 77.2661 215.212C77.094 214.188 76.9309 213.156 76.7769 212.123C76.7225 210.655 76.6954 209.187 76.7135 207.711C76.7135 206.904 76.7135 206.098 76.786 205.292C78.5623 205.853 80.4252 206.089 82.2854 205.989C86.4167 205.717 87.9388 202.184 85.7825 200.182C84.0249 198.542 81.7508 199.357 79.6399 200.752C78.6932 201.396 77.7856 202.094 76.9219 202.845C77.1763 199.397 77.7003 195.974 78.4892 192.608C78.9516 190.625 79.5294 188.67 80.2197 186.755C82.1141 187.408 84.117 187.688 86.1178 187.579C90.2491 187.316 91.7712 183.783 89.6149 181.772C87.8663 180.141 85.5832 180.947 83.4722 182.352C82.7354 182.858 82.0276 183.405 81.3522 183.991C82.1489 182.117 83.0752 180.301 84.1246 178.555C86.2056 175.034 88.8151 171.853 91.8618 169.124C93.4407 170.58 95.3082 171.689 97.3431 172.377C101.275 173.663 104.002 170.945 102.779 168.281C101.755 166.116 99.3454 166.016 96.8629 166.533C95.9063 166.737 94.9624 166.997 94.0362 167.312L94.0996 167.258C97.4804 164.62 101.124 162.337 104.972 160.445C106.329 162.222 108.053 163.687 110.027 164.739C113.705 166.632 116.831 164.386 116.016 161.559C115.354 159.258 112.99 158.777 110.462 158.841C109.469 158.895 108.48 159.004 107.499 159.167C111.585 157.237 115.753 155.416 119.776 153.287H119.866C121.667 154.842 123.804 155.958 126.109 156.549C130.122 157.545 132.641 154.628 131.191 152.019C130.013 149.935 127.567 150.026 125.166 150.714C124.487 150.913 123.807 151.158 123.146 151.412C125.832 149.85 128.436 148.151 130.947 146.32L131.155 146.546V146.429C132.974 147.997 135.128 149.129 137.452 149.736C141.456 150.723 143.984 147.815 142.534 145.206C141.393 143.24 138.983 143.321 136.546 144.019ZM73.1982 226.111C72.3737 225.151 71.5946 224.145 70.8335 223.131C71.0147 222.968 71.2141 222.786 71.4134 222.587C72.5455 222.94 73.7173 223.15 74.9015 223.212V223.402L75.4541 223.285C75.7441 224.716 76.043 226.139 76.3601 227.561C75.992 227.079 75.5111 226.695 74.9598 226.442C74.4085 226.189 73.8036 226.076 73.1982 226.111ZM76.1518 192C75.8709 193.07 75.6353 194.139 75.4088 195.217L75.2729 195.027C75.2729 192.816 75.3062 190.611 75.3726 188.413C75.436 186.873 75.5447 185.341 75.6806 183.801C76.4261 184.561 77.2455 185.243 78.1268 185.84C77.36 187.856 76.7037 189.913 76.1608 192H76.1518ZM79.8664 181.853C79.9207 181.455 79.966 181.047 79.9841 180.648V180.041C80.3103 179.942 80.6455 179.824 80.9717 179.688C80.6093 180.404 80.2288 181.128 79.8754 181.853H79.8664ZM84.5866 174.198C84.4301 173.839 84.2024 173.516 83.9174 173.248C83.6325 172.981 83.2961 172.773 82.9286 172.639C80.6908 171.733 78.8788 173.364 77.4383 175.448L77.3658 175.548H77.2208C77.0689 175.513 76.9143 175.492 76.7588 175.484C76.7481 175.357 76.7699 175.229 76.8222 175.113C77.3958 171.84 78.1704 168.605 79.1416 165.428C81.2214 165.691 83.3332 165.528 85.3477 164.947C86.5923 164.62 87.6747 163.85 88.3918 162.782C88.7906 164.609 89.5515 166.337 90.6296 167.865C88.4008 169.76 86.3782 171.886 84.5957 174.207L84.5866 174.198Z" fill="#314048"/>
<path opacity="0.3" d="M136.546 144.019C134.818 144.583 133.121 145.239 131.463 145.985C132.369 145.323 133.275 144.635 134.181 143.937C138.215 140.693 142.054 137.214 145.678 133.518C141.425 137.65 136.884 141.474 132.088 144.961C132.749 143.812 133.331 142.62 133.828 141.391C134.734 139.135 134.897 136.861 132.75 135.656C130.095 134.171 126.888 136.39 127.73 140.186C128.245 142.306 129.247 144.276 130.657 145.939C127.527 148.106 124.259 150.064 120.872 151.801L120.555 151.964C121.271 150.724 121.903 149.438 122.448 148.114C123.3 145.867 123.517 143.584 121.361 142.388C118.707 140.893 115.499 143.122 116.351 146.918C116.857 149.009 117.836 150.956 119.214 152.608C115.146 154.61 110.942 156.313 106.756 158.161L106.149 158.433C106.966 157.556 107.726 156.627 108.423 155.652C109.782 153.659 110.516 151.502 108.704 149.826C106.476 147.761 102.824 149.174 102.77 153.088C102.772 155.248 103.275 157.378 104.238 159.312C100.321 161.142 96.5994 163.364 93.1302 165.944L93.0215 166.035C93.4907 165.291 93.9202 164.523 94.308 163.733C95.3318 161.55 95.7123 159.303 93.6466 157.935C93.2269 157.646 92.7471 157.456 92.2435 157.38C91.7399 157.303 91.2254 157.342 90.7388 157.493C90.2523 157.644 89.8062 157.903 89.4342 158.251C89.0622 158.599 88.774 159.027 88.5911 159.502C88.3188 159.077 87.9493 158.723 87.513 158.469C85.4383 157.274 83.3998 158.569 81.6512 160.399C81.1982 160.879 80.7452 161.396 80.3556 161.903C81.7045 158.16 83.4 154.55 85.4201 151.122C87.3439 151.962 89.4183 152.403 91.5175 152.417C95.6489 152.417 97.3884 148.975 95.359 146.836C93.71 145.106 91.3907 145.767 89.1982 147.036C88.4762 147.457 87.7776 147.916 87.1053 148.413C89.2056 145.25 91.5891 142.284 94.2265 139.552C95.9547 140.95 97.963 141.96 100.115 142.515C104.129 143.502 106.648 140.594 105.198 138.03C104.02 135.946 101.574 136.028 99.1732 136.725C98.024 137.069 96.8982 137.487 95.8029 137.976C96.8992 136.907 98.0317 135.883 99.1823 134.868C100.686 133.582 102.245 132.34 103.83 131.126C105.535 132.487 107.508 133.472 109.619 134.016C113.633 135.004 116.152 132.096 114.702 129.532C113.524 127.448 111.078 127.53 108.668 128.227C108.106 128.39 107.536 128.59 106.983 128.798C109.076 127.303 111.196 125.844 113.325 124.395L115.291 123.045C117.063 124.529 119.142 125.6 121.379 126.18C125.393 127.167 127.921 124.259 126.471 121.695C125.284 119.611 122.847 119.693 120.437 120.39C119.489 120.68 118.556 121.015 117.638 121.396L118.852 120.49C119.594 119.955 120.337 119.412 121.062 118.841C121.968 118.161 122.829 117.41 123.708 116.685C124.215 116.286 124.695 115.86 125.175 115.425C126.954 116.925 129.047 118.006 131.3 118.587C135.314 119.575 137.832 116.667 136.383 114.103C135.205 112.019 132.759 112.1 130.358 112.798C129.011 113.214 127.692 113.713 126.408 114.293C128.047 112.771 129.633 111.185 131.137 109.536C131.237 109.419 131.327 109.301 131.436 109.192C132.079 108.476 132.713 107.752 133.329 107C133.946 106.248 134.743 105.26 135.413 104.354C138.166 100.74 140.433 96.7804 142.154 92.576C140.35 96.7304 138.008 100.629 135.187 104.173C132.397 107.731 129.282 111.022 125.882 114.003L125.511 114.32C126.283 113.005 126.967 111.64 127.558 110.234C128.419 107.987 128.627 105.704 126.471 104.508C123.825 103.013 120.609 105.242 121.461 109.038C122.008 111.286 123.1 113.364 124.641 115.09L123.844 115.779L122.938 116.558C122.412 116.984 121.869 117.391 121.325 117.799C121.035 118.017 120.754 118.243 120.419 118.46C119.649 119.031 118.87 119.584 118.081 120.128L116.949 120.898L115.662 121.804C116.414 120.52 117.074 119.185 117.638 117.808C118.498 115.552 118.707 113.278 116.559 112.082C113.905 110.587 110.688 112.816 111.54 116.612C112.065 118.793 113.106 120.815 114.575 122.51L113.669 123.126L110.145 125.437L109.447 125.89L107.481 127.203L106.63 127.774C105.724 128.399 104.818 129.033 103.912 129.686C104.64 128.382 105.275 127.029 105.814 125.636C106.72 123.389 106.883 121.106 104.736 119.91C102.081 118.415 98.8742 120.644 99.7259 124.44C100.258 126.65 101.322 128.696 102.824 130.402C101.284 131.534 99.7621 132.694 98.2944 133.908C97.2163 134.814 96.1562 135.72 95.1143 136.698C95.5683 135.858 95.9736 134.993 96.3284 134.107C97.18 131.851 97.3975 129.577 95.2412 128.381C92.5866 126.886 89.3794 129.115 90.231 132.911C90.7366 135.002 91.7162 136.949 93.094 138.601C90.1596 141.517 87.5167 144.712 85.2027 148.141C85.4654 147.152 85.6651 146.147 85.8007 145.133C86.0906 142.741 85.7463 140.494 83.3635 139.842C80.4281 139.036 77.855 141.971 79.6036 145.468C80.6095 147.394 82.0485 149.059 83.8075 150.334C81.5252 154.061 79.6193 158.007 78.1178 162.112C78.0786 161.253 77.9939 160.397 77.8641 159.548C77.4564 157.165 76.496 155.108 74.0227 155.153C70.9785 155.217 69.3386 158.777 72.0113 161.622C73.4367 163.108 75.1764 164.257 77.1031 164.984C76.0727 168.152 75.2346 171.381 74.5934 174.651C74.4847 175.167 74.4032 175.683 74.3035 176.2C74.1948 176.299 74.0861 176.399 73.9864 176.508C73.8777 176.064 73.7509 175.602 73.6059 175.176C72.8449 172.893 71.5765 170.999 69.1393 171.434C66.1495 171.96 65.0714 175.711 68.1518 178.13C69.7173 179.325 71.5219 180.168 73.4428 180.603C73.4428 180.694 73.5153 180.775 73.5606 180.866C73.2254 183.321 72.9717 185.794 72.8177 188.277C72.6999 190.089 72.6365 191.982 72.6002 193.84C70.0091 193.84 68.179 196.685 69.9638 199.765C70.7169 201.042 71.682 202.182 72.8177 203.135C73.0351 206.623 73.3794 210.111 73.8415 213.572C73.4751 213.233 73.0267 212.996 72.5406 212.883C72.0544 212.77 71.5473 212.786 71.0691 212.929C69.4383 213.373 68.7044 214.687 68.4417 216.299C67.8614 216.9 67.5366 217.702 67.5357 218.537C66.3217 216.725 65.171 214.913 64.0567 213.002C65.7578 211.698 67.168 210.053 68.1971 208.173C70.145 204.549 67.9434 201.369 65.1076 202.139C62.7883 202.773 62.2809 205.128 62.3896 207.656C62.4259 208.615 62.5166 209.571 62.6614 210.519L61.4655 208.417C60.4689 206.605 59.6535 204.793 58.675 202.981C58.4395 202.537 58.2311 202.075 58.0408 201.622C59.9496 200.661 61.6373 199.312 62.9966 197.663C65.5969 194.456 64.0295 190.931 61.094 191.158C58.7022 191.348 57.7509 193.568 57.3523 196.068C57.1969 197.159 57.1001 198.257 57.0623 199.357L56.2107 197.391C54.3968 192.931 52.9042 188.347 51.7441 183.674C53.9046 182.909 55.867 181.671 57.4882 180.05C60.3964 177.106 59.1914 173.455 56.2469 173.382C53.8551 173.328 52.6864 175.439 52.034 177.912C51.7143 179.225 51.4753 180.556 51.3183 181.899C50.6841 179.217 50.1405 176.499 49.6875 173.745C49.3795 172.059 49.1801 170.347 48.9718 168.644C51.294 168.184 53.4812 167.201 55.3681 165.772C58.6297 163.235 57.914 159.43 54.9967 159.004C52.632 158.633 51.2005 160.58 50.2402 162.927C49.6779 164.407 49.2059 165.92 48.8268 167.457C48.6456 165.482 48.4372 163.498 48.3466 161.514C48.0748 157.417 48.0748 153.307 48.3466 149.21C47.933 153.303 47.7908 157.42 47.9208 161.532C47.9208 163.425 48.0839 165.31 48.2017 167.203C47.6841 165.916 47.0787 164.666 46.3897 163.461C45.1575 161.387 43.5086 159.837 41.2255 160.743C38.4078 161.903 38.1632 165.799 41.6966 167.502C43.769 168.454 46.0423 168.887 48.3194 168.762C48.4825 170.456 48.6275 172.141 48.8812 173.817C49.2345 176.535 49.6875 179.144 50.222 181.781C49.6423 180.771 48.9977 179.799 48.2923 178.873C46.7974 176.979 44.9672 175.638 42.8563 176.861C40.2198 178.374 40.4735 182.297 44.1971 183.502C46.3042 184.157 48.5359 184.306 50.7113 183.937C51.7449 188.661 53.1042 193.308 54.7792 197.844L55.3138 199.203C54.8344 198.568 54.317 197.963 53.7645 197.391C52.0884 195.652 50.1405 194.501 48.1201 195.942C45.6467 197.754 46.3081 201.559 50.1133 202.41C52.2134 202.836 54.383 202.774 56.4553 202.229C56.6456 202.691 56.8358 203.135 57.0623 203.606C57.9683 205.473 58.7747 207.384 59.726 209.214L60.5142 210.8C60.0431 210.392 59.5538 210.003 59.0465 209.64C57.0714 208.254 54.9332 207.493 53.23 209.278C51.128 211.479 52.487 215.14 56.401 215.258C58.4386 215.305 60.4616 214.903 62.3262 214.08C63.4496 216.109 64.6003 218.111 65.8505 220.077C66.3126 220.829 66.7565 221.572 67.282 222.315C66.5713 221.665 65.8209 221.06 65.0351 220.503C63.0601 219.117 60.9219 218.356 59.2096 220.141C57.1167 222.342 58.4757 226.003 62.3896 226.12C64.6266 226.147 66.8379 225.641 68.8403 224.644C69.4927 225.55 70.1631 226.456 70.8517 227.362C69.393 229.056 69.8732 231.892 72.8358 233.187C74.2747 233.787 75.8083 234.127 77.3658 234.193C77.547 234.338 77.7282 234.483 77.9275 234.619L78.0181 234.691C79.8905 241.686 82.1102 248.577 84.6772 255.366C85.7644 258.256 86.9332 261.119 88.1381 263.964H77.2661V306.836H110.489V263.928H92.804C91.291 260.621 89.8324 257.278 88.4734 253.898C86.2537 248.354 84.2423 242.718 82.4938 237.002C82.7913 237.089 83.0939 237.159 83.3998 237.21C83.8022 237.291 84.2148 237.31 84.6229 237.264L84.1517 234.284H83.8346C83.6457 234.257 83.4582 234.221 83.2729 234.175C82.8544 234.055 82.4455 233.903 82.0498 233.722L81.5787 233.504C83.3272 232.895 84.951 231.974 86.3714 230.786C89.5153 228.068 88.6274 224.354 85.6919 224.037C83.3182 223.774 81.9773 225.785 81.1619 228.168C80.9173 228.848 80.718 229.554 80.5459 230.243C80.3737 229.609 80.2016 228.974 80.0385 228.34C79.5583 226.465 79.1325 224.571 78.6976 222.678C80.5952 222.086 82.3587 221.129 83.889 219.86C87.0328 217.142 86.1359 213.436 83.2095 213.119C80.8267 212.857 79.4949 214.868 78.6795 217.251C78.4349 217.939 78.2265 218.655 78.0453 219.362C77.7735 217.985 77.5108 216.598 77.2661 215.212C77.094 214.188 76.9309 213.156 76.7769 212.123C76.7225 210.655 76.6954 209.187 76.7135 207.711C76.7135 206.904 76.7135 206.098 76.786 205.292C78.5623 205.853 80.4252 206.089 82.2854 205.989C86.4167 205.717 87.9388 202.184 85.7825 200.182C84.0249 198.542 81.7508 199.357 79.6399 200.752C78.6932 201.396 77.7856 202.094 76.9219 202.845C77.1763 199.397 77.7003 195.974 78.4892 192.608C78.9516 190.625 79.5294 188.67 80.2197 186.755C82.1141 187.408 84.117 187.688 86.1178 187.579C90.2491 187.316 91.7712 183.783 89.6149 181.772C87.8663 180.141 85.5832 180.947 83.4722 182.352C82.7354 182.858 82.0276 183.405 81.3522 183.991C82.1489 182.117 83.0752 180.301 84.1246 178.555C86.2056 175.034 88.8151 171.853 91.8618 169.124C93.4407 170.58 95.3082 171.689 97.3431 172.377C101.275 173.663 104.002 170.945 102.779 168.281C101.755 166.116 99.3454 166.016 96.8629 166.533C95.9063 166.737 94.9624 166.997 94.0362 167.312L94.0996 167.258C97.4804 164.62 101.124 162.337 104.972 160.445C106.329 162.222 108.053 163.687 110.027 164.739C113.705 166.632 116.831 164.386 116.016 161.559C115.354 159.258 112.99 158.777 110.462 158.841C109.469 158.895 108.48 159.004 107.499 159.167C111.585 157.237 115.753 155.416 119.776 153.287H119.866C121.667 154.842 123.804 155.958 126.109 156.549C130.122 157.545 132.641 154.628 131.191 152.019C130.013 149.935 127.567 150.026 125.166 150.714C124.487 150.913 123.807 151.158 123.146 151.412C125.832 149.85 128.436 148.151 130.947 146.32L131.155 146.546V146.429C132.974 147.997 135.128 149.129 137.452 149.736C141.456 150.723 143.984 147.815 142.534 145.206C141.393 143.24 138.983 143.321 136.546 144.019ZM73.1982 226.111C72.3737 225.151 71.5946 224.145 70.8335 223.131C71.0147 222.968 71.2141 222.786 71.4134 222.587C72.5455 222.94 73.7173 223.15 74.9015 223.212V223.402L75.4541 223.285C75.7441 224.716 76.043 226.139 76.3601 227.561C75.992 227.079 75.5111 226.695 74.9598 226.442C74.4085 226.189 73.8036 226.076 73.1982 226.111ZM76.1518 192C75.8709 193.07 75.6353 194.139 75.4088 195.217L75.2729 195.027C75.2729 192.816 75.3062 190.611 75.3726 188.413C75.436 186.873 75.5447 185.341 75.6806 183.801C76.4261 184.561 77.2455 185.243 78.1268 185.84C77.36 187.856 76.7037 189.913 76.1608 192H76.1518ZM79.8664 181.853C79.9207 181.455 79.966 181.047 79.9841 180.648V180.041C80.3103 179.942 80.6455 179.824 80.9717 179.688C80.6093 180.404 80.2288 181.128 79.8754 181.853H79.8664ZM84.5866 174.198C84.4301 173.839 84.2024 173.516 83.9174 173.248C83.6325 172.981 83.2961 172.773 82.9286 172.639C80.6908 171.733 78.8788 173.364 77.4383 175.448L77.3658 175.548H77.2208C77.0689 175.513 76.9143 175.492 76.7588 175.484C76.7481 175.357 76.7699 175.229 76.8222 175.113C77.3958 171.84 78.1704 168.605 79.1416 165.428C81.2214 165.691 83.3332 165.528 85.3477 164.947C86.5923 164.62 87.6747 163.85 88.3918 162.782C88.7906 164.609 89.5515 166.337 90.6296 167.865C88.4008 169.76 86.3782 171.886 84.5957 174.207L84.5866 174.198Z" fill="white"/>
<path d="M359.938 267.307C359.938 267.307 355.553 257.513 354.502 256.508C353.451 255.502 345.053 252.458 342.724 244.73C340.396 237.001 335.974 216.372 347.118 217.722C358.262 219.072 355.553 240.68 359.603 240C363.653 239.321 356.233 204.902 363.318 200.136C370.402 195.371 381.881 199.801 380.532 218.03C379.182 236.259 376.482 246.714 378.846 245.708C381.211 244.702 387.961 240.979 387.961 248.743C387.961 256.508 381.546 261.907 377.832 262.243C374.117 262.578 372.396 262.922 372.396 262.922V267.978L359.938 267.307Z" fill="#263238" stroke="#263238" stroke-linecap="round" stroke-linejoin="round"/>
<path d="M356.369 248.327C353.823 245.917 351.485 243.579 350.407 241.432C348.269 237.146 346.656 225.124 346.656 225.124" stroke="white" stroke-width="0.5" stroke-linecap="round" stroke-linejoin="round"/>
<path d="M342.86 230.995C344.545 238.016 344.781 243.307 349.872 249.468C352.59 252.802 359.784 255.629 360.59 258.573C361.312 262.116 361.853 265.694 362.212 269.291L366.235 269.563C366.235 269.563 367.05 262.587 364.749 257.613" stroke="white" stroke-width="0.5" stroke-linecap="round" stroke-linejoin="round"/>
<path d="M343.984 219.733C343.984 219.733 340.976 222.043 342.045 227.733" stroke="white" stroke-width="0.5" stroke-linecap="round" stroke-linejoin="round"/>
<path d="M363.254 240.453L361.66 243.035" stroke="white" stroke-width="0.5" stroke-linecap="round" stroke-linejoin="round"/>
<path d="M363.807 239.556L363.254 240.453" stroke="white" stroke-width="0.5" stroke-linecap="round" stroke-linejoin="round"/>
<path d="M369.161 200.979C369.161 200.979 363 200.716 363 206.605C363 211.579 364.523 228.558 364.196 236.322" stroke="white" stroke-width="0.5" stroke-linecap="round" stroke-linejoin="round"/>
<path d="M373.99 249.223C373.845 251.244 373.755 252.675 373.755 253.219C373.755 256.163 381.247 244.911 384.736 244.648C384.736 244.648 388.215 244.376 386.874 250.809C386.386 253.197 385.256 255.406 383.605 257.199C381.954 258.992 379.845 260.301 377.506 260.983C374.552 261.79 372.142 260.449 371.608 261.79C371.181 263.366 370.911 264.98 370.801 266.61" stroke="white" stroke-width="0.5" stroke-linecap="round" stroke-linejoin="round"/>
<path d="M375.739 206.569C376.205 208.512 376.424 210.506 376.391 212.503C376.391 218.773 375.195 233.559 374.398 243.543" stroke="white" stroke-width="0.5" stroke-linecap="round" stroke-linejoin="round"/>
<path d="M372.64 201.523C373.445 201.984 374.097 202.67 374.516 203.498" stroke="white" stroke-width="0.5" stroke-linecap="round" stroke-linejoin="round"/>
<path d="M368.283 247.593L368.092 251.344" stroke="white" stroke-width="0.5" stroke-linecap="round" stroke-linejoin="round"/>
<path d="M369.696 204.73C369.696 204.73 368.092 205.264 368.627 210.891C369.071 215.538 368.627 236.639 368.418 243.842" stroke="white" stroke-width="0.5" stroke-linecap="round" stroke-linejoin="round"/>
<path d="M386.575 246.252C384.277 250.552 380.597 253.951 376.128 255.901C368.88 258.845 368.627 257.504 368.627 260.431C368.627 263.357 368.355 268.739 368.355 268.739" stroke="white" stroke-width="0.5" stroke-linecap="round" stroke-linejoin="round"/>
<path d="M376.527 306.809H353.116L348.106 272.897H381.537L376.527 306.809Z" fill="#314048" stroke="#263238" stroke-linecap="round" stroke-linejoin="round"/>
<path d="M384.409 267.552H345.234V276.63H384.409V267.552Z" fill="#314048" stroke="#263238" stroke-linecap="round" stroke-linejoin="round"/>
<path d="M247.984 283.978V265.568H193.769V283.978C193.76 289.974 191.73 295.793 188.007 300.494L185.633 303.484H256.12L253.746 300.494C250.022 295.793 247.992 289.974 247.984 283.978Z" fill="white" stroke="#263238" stroke-linecap="round" stroke-linejoin="round"/>
<path d="M190.435 296.87H251.318C249.132 292.924 247.985 288.488 247.984 283.978V265.568H193.769V283.978C193.768 288.488 192.62 292.924 190.435 296.87Z" fill="#314048"/>
<path d="M322.14 107.942H119.603C115.36 107.942 111.92 111.382 111.92 115.625V263.692C111.92 267.935 115.36 271.375 119.603 271.375H322.14C326.383 271.375 329.822 267.935 329.822 263.692V115.625C329.822 111.382 326.383 107.942 322.14 107.942Z" fill="#263238" stroke="#263238" stroke-linecap="round" stroke-linejoin="round"/>
<path d="M111.92 245.971H329.832V263.683C329.832 265.721 329.022 267.675 327.581 269.116C326.14 270.557 324.186 271.366 322.149 271.366H119.612C117.575 271.366 115.621 270.557 114.18 269.116C112.739 267.675 111.929 265.721 111.929 263.683V245.971H111.92Z" fill="white" stroke="#263238" stroke-linecap="round" stroke-linejoin="round"/>
<path d="M318.869 118.116H122.883V233.577H318.869V118.116Z" fill="white" stroke="#263238" stroke-linecap="round" stroke-linejoin="round"/>
<path d="M224.899 258.673C224.899 257.877 224.663 257.1 224.221 256.438C223.779 255.777 223.151 255.261 222.416 254.957C221.681 254.652 220.872 254.572 220.091 254.728C219.311 254.883 218.594 255.266 218.032 255.829C217.469 256.391 217.086 257.108 216.931 257.888C216.776 258.669 216.855 259.477 217.16 260.212C217.464 260.947 217.98 261.576 218.641 262.018C219.303 262.46 220.081 262.696 220.876 262.696C221.943 262.696 222.966 262.272 223.721 261.517C224.475 260.763 224.899 259.74 224.899 258.673Z" fill="#263238" stroke="#263238" stroke-linecap="round" stroke-linejoin="round"/>
<path d="M256.129 303.52H185.633V306.809H256.129V303.52Z" fill="white" stroke="#263238" stroke-linecap="round" stroke-linejoin="round"/>
<path d="M317.03 126.252H124.423V136.372H317.03V126.252Z" fill="white" stroke="#263238" stroke-linecap="round" stroke-linejoin="round"/>
<path d="M156.206 136.372L153.896 130.121H124.423V136.372V144.662V228.657H317.03V136.372H156.206Z" fill="#314048" stroke="#263238" stroke-linecap="round" stroke-linejoin="round"/>
<path d="M176.265 182.134H266.575" stroke="#263238" stroke-width="2" stroke-linecap="round" stroke-linejoin="round"/>
<path d="M176.265 191.013H266.575" stroke="#263238" stroke-width="2" stroke-linecap="round" stroke-linejoin="round"/>
<path d="M176.265 199.892H266.575" stroke="#263238" stroke-width="2" stroke-linecap="round" stroke-linejoin="round"/>
<path d="M176.265 208.78H266.575" stroke="#263238" stroke-width="2" stroke-linecap="round" stroke-linejoin="round"/>
<path d="M261.8 158.46H179.961C179.119 158.462 178.284 158.297 177.506 157.976C176.727 157.654 176.019 157.183 175.423 156.588C174.826 155.993 174.353 155.287 174.029 154.509C173.706 153.731 173.539 152.897 173.538 152.055C173.536 151.213 173.701 150.378 174.022 149.6C174.344 148.821 174.815 148.113 175.41 147.517C176.005 146.92 176.711 146.447 177.489 146.123C178.267 145.8 179.101 145.633 179.943 145.631H261.8C262.644 145.63 263.48 145.796 264.26 146.118C265.04 146.44 265.748 146.914 266.345 147.51C266.942 148.107 267.415 148.816 267.737 149.595C268.06 150.375 268.225 151.211 268.224 152.055C268.222 152.897 268.055 153.731 267.732 154.509C267.408 155.287 266.935 155.993 266.339 156.588C265.742 157.183 265.034 157.654 264.256 157.976C263.477 158.297 262.642 158.462 261.8 158.46Z" fill="white" stroke="#263238" stroke-linecap="round" stroke-linejoin="round"/>
<path d="M261.8 158.46H250.62V145.613H261.8C262.644 145.612 263.48 145.777 264.26 146.1C265.04 146.422 265.748 146.895 266.345 147.492C266.942 148.089 267.415 148.797 267.737 149.577C268.06 150.357 268.225 151.193 268.224 152.037C268.225 152.881 268.06 153.717 267.737 154.496C267.415 155.276 266.942 155.985 266.345 156.582C265.748 157.178 265.04 157.651 264.26 157.974C263.48 158.296 262.644 158.462 261.8 158.46Z" fill="#263238" stroke="#263238" stroke-linecap="round" stroke-linejoin="round"/>
<path d="M259.309 147.244C258.776 146.745 258.108 146.416 257.388 146.297C256.669 146.178 255.93 146.275 255.265 146.576C254.601 146.878 254.041 147.369 253.656 147.988C253.271 148.608 253.078 149.328 253.102 150.057C253.126 150.786 253.366 151.491 253.791 152.084C254.216 152.677 254.808 153.13 255.49 153.387C256.173 153.643 256.917 153.692 257.627 153.526C258.337 153.359 258.983 152.986 259.481 152.454C259.813 152.102 260.072 151.688 260.243 151.236C260.415 150.784 260.495 150.303 260.48 149.82C260.465 149.336 260.355 148.861 260.155 148.42C259.956 147.98 259.671 147.583 259.318 147.253L259.309 147.244ZM258.946 151.955C258.546 152.38 258.029 152.677 257.461 152.808C256.892 152.939 256.297 152.899 255.752 152.693C255.206 152.486 254.733 152.123 254.394 151.648C254.055 151.174 253.863 150.609 253.844 150.026C253.825 149.443 253.98 148.867 254.288 148.371C254.596 147.876 255.043 147.482 255.575 147.241C256.106 147 256.697 146.921 257.273 147.015C257.848 147.109 258.384 147.372 258.81 147.77C259.383 148.307 259.719 149.049 259.745 149.834C259.77 150.619 259.483 151.382 258.946 151.955Z" fill="white"/>
<path d="M262.081 153.794C262 153.716 261.898 153.662 261.787 153.639C261.676 153.617 261.561 153.627 261.455 153.668L260.124 152.417C260.056 152.351 259.965 152.314 259.87 152.314C259.775 152.314 259.684 152.351 259.616 152.417L259.498 152.544C259.434 152.615 259.397 152.707 259.397 152.802C259.397 152.898 259.434 152.99 259.498 153.061L260.812 154.293C260.773 154.405 260.767 154.526 260.794 154.641C260.822 154.757 260.881 154.862 260.966 154.945L263.231 157.165C263.381 157.313 263.582 157.396 263.793 157.396C264.003 157.396 264.205 157.313 264.355 157.165C264.503 157.015 264.586 156.814 264.586 156.603C264.586 156.393 264.503 156.191 264.355 156.041L262.081 153.794Z" fill="white"/>
<path d="M285.474 197.21C285.738 197.866 286.132 198.463 286.632 198.964C287.131 199.465 287.727 199.861 288.382 200.127C289.406 200.544 290.774 200.453 292.35 201.341C295.911 203.344 304.799 201.559 311.24 202.247C317.682 202.936 326.361 195.806 326.361 195.806L351.92 197.21V171.842C351.92 171.842 325.247 172.956 319.467 170.728C313.687 168.499 307.245 163.842 304.355 164.059C301.465 164.277 277.682 166.95 277.682 166.95L285.465 197.21H285.474Z" fill="white" stroke="#263238" stroke-linecap="round" stroke-linejoin="round"/>
<path d="M278.86 94.9226C273.583 95.5068 268.597 97.6426 264.534 101.06C260.471 104.478 257.512 109.023 256.032 114.122C254.553 119.221 254.618 124.645 256.221 129.707C257.823 134.768 260.891 139.241 265.035 142.56C269.18 145.878 274.215 147.893 279.505 148.35C284.795 148.806 290.101 147.684 294.753 145.125C299.405 142.566 303.193 138.685 305.64 133.972C308.086 129.26 309.079 123.928 308.495 118.651C308.11 115.146 307.037 111.752 305.338 108.662C303.64 105.572 301.349 102.847 298.597 100.643C295.844 98.4394 292.684 96.7998 289.298 95.8182C285.911 94.8367 282.364 94.5323 278.86 94.9226ZM284.187 143.013C279.954 143.483 275.676 142.688 271.895 140.727C268.114 138.766 264.999 135.728 262.945 131.997C260.89 128.266 259.988 124.01 260.353 119.766C260.717 115.522 262.332 111.482 264.993 108.156C267.654 104.83 271.241 102.368 275.301 101.081C279.361 99.7933 283.712 99.739 287.803 100.924C291.894 102.11 295.542 104.482 298.285 107.74C301.028 110.999 302.743 114.997 303.213 119.231C303.526 122.041 303.281 124.886 302.494 127.603C301.707 130.319 300.393 132.854 298.626 135.062C296.859 137.271 294.675 139.11 292.197 140.474C289.72 141.838 286.998 142.701 284.187 143.013Z" fill="white" stroke="#263238" stroke-linecap="round" stroke-linejoin="round"/>
<path d="M278.715 93.3914C273.438 93.9756 268.452 96.1115 264.389 99.529C260.326 102.947 257.367 107.492 255.887 112.591C254.408 117.69 254.473 123.114 256.076 128.175C257.678 133.237 260.746 137.71 264.89 141.029C269.035 144.347 274.07 146.362 279.36 146.819C284.65 147.275 289.956 146.153 294.608 143.594C299.26 141.035 303.048 137.153 305.495 132.441C307.941 127.729 308.934 122.397 308.35 117.12C307.565 110.044 304.002 103.57 298.445 99.1208C292.887 94.6714 285.791 92.6106 278.715 93.3914ZM284.042 141.482C279.809 141.952 275.531 141.157 271.75 139.196C267.969 137.235 264.854 134.197 262.8 130.466C260.745 126.735 259.843 122.478 260.208 118.235C260.572 113.991 262.187 109.951 264.848 106.625C267.509 103.299 271.096 100.837 275.156 99.5493C279.216 98.2621 283.567 98.2078 287.658 99.3932C291.749 100.579 295.397 102.951 298.14 106.209C300.883 109.467 302.598 113.466 303.068 117.699C303.381 120.51 303.136 123.355 302.349 126.072C301.562 128.788 300.248 131.323 298.481 133.531C296.714 135.74 294.53 137.578 292.052 138.943C289.575 140.307 286.853 141.17 284.042 141.482Z" fill="white" stroke="#263238" stroke-linecap="round" stroke-linejoin="round"/>
<path d="M285.506 147.253L284.236 147.394C282.804 147.553 281.772 148.842 281.93 150.275L283.991 168.879C284.149 170.311 285.439 171.344 286.871 171.185L288.141 171.044C289.573 170.886 290.606 169.596 290.447 168.164L288.387 149.56C288.228 148.127 286.938 147.095 285.506 147.253Z" fill="#314048" stroke="#263238" stroke-linecap="round" stroke-linejoin="round"/>
<path d="M285.093 162.782L287.811 162.492C288.98 162.367 290.151 162.708 291.07 163.44C291.99 164.173 292.583 165.239 292.722 166.406L296.79 203.199C296.955 204.703 296.516 206.211 295.57 207.392C294.624 208.572 293.247 209.329 291.743 209.495H291.562C290.817 209.578 290.063 209.514 289.343 209.305C288.623 209.096 287.952 208.747 287.367 208.279C286.782 207.81 286.295 207.23 285.934 206.573C285.574 205.916 285.346 205.194 285.265 204.449L281.197 167.665C281.132 167.083 281.182 166.493 281.345 165.93C281.507 165.367 281.78 164.841 282.146 164.384C282.512 163.926 282.964 163.545 283.478 163.262C283.992 162.979 284.556 162.801 285.138 162.737L285.093 162.782Z" fill="#263238" stroke="#263238" stroke-linecap="round" stroke-linejoin="round"/>
<path d="M289.044 193.441C289.044 193.441 282.602 193.677 281.696 194.791C280.79 195.905 280.953 199.783 282.702 200.227C287.159 201.396 296.636 200.716 297.007 199.919C297.379 199.122 298.14 194.483 296.183 193.985C293.82 193.623 291.434 193.441 289.044 193.441Z" fill="white" stroke="#263238" stroke-linecap="round" stroke-linejoin="round"/>
<path d="M287.186 184.454C287.186 184.454 279.693 184.173 278.525 185.523C277.356 186.873 277.129 191.919 279.104 192.68C284.142 194.61 295.476 193.858 295.992 192.861C296.509 191.865 297.632 186.691 295.412 185.858C293.193 185.024 287.186 184.454 287.186 184.454Z" fill="white" stroke="#263238" stroke-linecap="round" stroke-linejoin="round"/>
<path d="M286.108 174.306C286.108 174.306 278.099 173.998 276.848 175.448C275.598 176.897 275.353 182.279 277.464 183.094C282.9 185.16 294.678 185.16 295.231 184.091C295.784 183.022 297.27 176.698 294.896 175.801C292.522 174.904 286.108 174.306 286.108 174.306Z" fill="white" stroke="#263238" stroke-linecap="round" stroke-linejoin="round"/>
<path d="M281.487 164.811C281.487 164.811 273.478 164.512 272.228 165.953C270.978 167.393 270.679 172.947 272.844 173.6C275.009 174.252 290.058 175.665 290.611 174.605C291.163 173.545 292.649 167.203 290.276 166.306C287.902 165.409 281.487 164.811 281.487 164.811Z" fill="white" stroke="#263238" stroke-linecap="round" stroke-linejoin="round"/>
<path d="M307.716 191.457C306.278 191.062 304.916 190.431 303.684 189.591C297.243 185.142 297.46 174.922 297.46 174.922L295.911 174.478C294.631 173.992 293.431 173.317 292.35 172.476C292.869 174.587 293.173 176.746 293.256 178.918C293.233 180.112 292.767 181.254 291.948 182.123C291.129 182.992 290.016 183.526 288.826 183.62C286.824 183.846 285.936 184.064 285.265 181.4C284.595 178.737 281.27 168.064 281.043 166.506C280.844 165.092 283.218 162.574 286.996 161.976C292.803 162.447 298.529 164.069 304.382 164.069C306.418 164.26 308.37 164.978 310.044 166.152" fill="white"/>
<path d="M307.716 191.457C306.278 191.062 304.916 190.431 303.684 189.591C297.243 185.142 297.46 174.922 297.46 174.922L295.911 174.478C294.631 173.992 293.431 173.317 292.35 172.476C292.869 174.587 293.173 176.746 293.256 178.918C293.233 180.112 292.767 181.254 291.948 182.123C291.129 182.992 290.016 183.526 288.826 183.62C286.824 183.846 285.936 184.064 285.265 181.4C284.595 178.737 281.27 168.064 281.043 166.506C280.844 165.092 283.218 162.574 286.996 161.976C292.803 162.447 298.529 164.069 304.382 164.069C306.418 164.26 308.37 164.978 310.044 166.152" stroke="#263238" stroke-linecap="round" stroke-linejoin="round"/>
<path d="M313.841 192.019C313.134 192.055 312.427 192.055 311.721 192.019H313.841Z" fill="white"/>
<path d="M313.841 192.019C313.134 192.055 312.427 192.055 311.721 192.019" stroke="#263238" stroke-linecap="round" stroke-linejoin="round"/>
<path d="M318.579 191.14C317.04 191.627 315.45 191.931 313.84 192.046L318.579 191.14Z" fill="white"/>
<path d="M318.579 191.14C317.04 191.627 315.45 191.931 313.84 192.046" stroke="#263238" stroke-linecap="round" stroke-linejoin="round"/>
<path d="M326.579 188.259H334.579" stroke="#263238" stroke-linecap="round" stroke-linejoin="round"/>
<path d="M327.25 190.478H330.584" stroke="#263238" stroke-linecap="round" stroke-linejoin="round"/>
<path d="M297.46 174.922C297.46 174.922 301.881 174.922 304.78 172.286" stroke="#263238" stroke-linecap="round" stroke-linejoin="round"/>
<path d="M292.251 172.186C292.123 170.98 291.871 169.789 291.499 168.635" stroke="#263238" stroke-linecap="round" stroke-linejoin="round"/>
<path d="M285.202 180.232C285.202 180.232 284.359 177.894 285.383 177.051C286.407 176.209 289.125 174.995 289.596 175.928C290.067 176.861 291.091 181.165 290.81 182.007L290.529 182.85" stroke="#263238" stroke-width="0.5" stroke-linecap="round" stroke-linejoin="round"/>
<path d="M408.01 208.58H331.408V170.927H408.01" fill="#314048"/>
<path d="M408.01 208.58H331.408V170.927H408.01" stroke="#263238" stroke-linecap="round" stroke-linejoin="round"/>
<path d="M337.025 206.062C337.976 206.062 338.747 205.291 338.747 204.34C338.747 203.389 337.976 202.619 337.025 202.619C336.074 202.619 335.304 203.389 335.304 204.34C335.304 205.291 336.074 206.062 337.025 206.062Z" fill="white" stroke="#263238" stroke-linecap="round" stroke-linejoin="round"/>
<path d="M215.286 135.067C215.942 134.803 216.539 134.409 217.04 133.909C217.541 133.41 217.937 132.815 218.203 132.159C218.62 131.135 218.521 129.776 219.417 128.191C221.411 124.639 219.635 115.751 220.323 109.301C221.012 102.85 213.873 94.1887 213.873 94.1887L215.259 68.6304H189.891C189.891 68.6304 190.996 95.3031 188.777 101.074C186.557 106.846 181.891 113.305 182.108 116.195C182.326 119.086 185.017 142.85 185.017 142.85L215.241 135.067H215.286Z" fill="white" stroke="#263238" stroke-linecap="round" stroke-linejoin="round"/>
<path d="M113.062 141.663C113.642 146.941 115.775 151.928 119.189 155.994C122.604 160.06 127.148 163.022 132.246 164.505C137.344 165.989 142.767 165.927 147.831 164.328C152.894 162.729 157.369 159.664 160.69 155.522C164.011 151.379 166.03 146.345 166.49 141.055C166.95 135.766 165.831 130.459 163.275 125.805C160.718 121.151 156.839 117.36 152.128 114.911C147.417 112.462 142.086 111.465 136.808 112.046H136.745C129.68 112.841 123.219 116.405 118.779 121.957C114.339 127.51 112.283 134.597 113.062 141.663ZM161.08 136.327C161.552 140.562 160.757 144.841 158.797 148.625C156.837 152.408 153.799 155.525 150.067 157.582C146.335 159.638 142.077 160.542 137.832 160.179C133.586 159.816 129.544 158.202 126.215 155.541C122.887 152.881 120.422 149.293 119.133 145.232C117.844 141.17 117.788 136.818 118.972 132.725C120.156 128.632 122.528 124.981 125.786 122.236C129.045 119.491 133.045 117.773 137.279 117.301C142.958 116.67 148.655 118.319 153.118 121.887C157.581 125.455 160.445 130.648 161.08 136.327Z" fill="white" stroke="#263238" stroke-linecap="round" stroke-linejoin="round"/>
<path d="M111.494 141.826C112.08 147.101 114.216 152.083 117.633 156.143C121.05 160.204 125.594 163.16 130.691 164.638C135.788 166.117 141.209 166.05 146.268 164.448C151.327 162.846 155.798 159.78 159.115 155.637C162.431 151.495 164.446 146.462 164.902 141.175C165.359 135.888 164.238 130.584 161.681 125.934C159.124 121.283 155.245 117.496 150.536 115.05C145.826 112.604 140.497 111.609 135.223 112.191C131.718 112.578 128.324 113.651 125.235 115.35C122.146 117.049 119.422 119.34 117.218 122.092C115.014 124.844 113.375 128.004 112.393 131.39C111.411 134.776 111.105 138.322 111.494 141.826ZM159.585 136.508C160.055 140.741 159.26 145.019 157.299 148.8C155.338 152.581 152.3 155.696 148.569 157.75C144.838 159.805 140.581 160.707 136.338 160.342C132.094 159.978 128.054 158.363 124.728 155.702C121.402 153.042 118.94 149.454 117.652 145.394C116.365 141.334 116.311 136.983 117.496 132.892C118.682 128.801 121.054 125.154 124.312 122.411C127.571 119.668 131.569 117.952 135.802 117.482C138.613 117.17 141.458 117.414 144.175 118.201C146.891 118.988 149.426 120.303 151.634 122.069C153.843 123.836 155.681 126.021 157.046 128.498C158.41 130.975 159.273 133.697 159.585 136.508Z" fill="white" stroke="#263238" stroke-linecap="round" stroke-linejoin="round"/>
<path d="M186.273 130.108L167.669 132.168C166.237 132.327 165.204 133.617 165.363 135.049L165.504 136.319C165.662 137.751 166.952 138.783 168.384 138.625L186.988 136.564C188.421 136.406 189.453 135.116 189.295 133.684L189.154 132.414C188.995 130.982 187.706 129.949 186.273 130.108Z" fill="#314048" stroke="#263238" stroke-linecap="round" stroke-linejoin="round"/>
<path d="M180.885 135.457L180.586 132.739C180.456 131.562 180.8 130.381 181.54 129.457C182.281 128.532 183.359 127.94 184.536 127.81L221.32 123.742C222.068 123.655 222.826 123.717 223.55 123.924C224.274 124.131 224.95 124.479 225.539 124.948C226.129 125.416 226.62 125.997 226.984 126.656C227.348 127.316 227.578 128.04 227.662 128.789V128.97C227.749 129.718 227.687 130.476 227.48 131.2C227.273 131.924 226.925 132.601 226.457 133.19C225.988 133.779 225.407 134.27 224.748 134.634C224.088 134.998 223.364 135.229 222.615 135.312L185.832 139.38C184.656 139.513 183.476 139.174 182.549 138.439C181.622 137.704 181.024 136.632 180.885 135.457Z" fill="#263238" stroke="#263238" stroke-linecap="round" stroke-linejoin="round"/>
<path d="M211.535 131.507C211.535 131.507 211.78 137.939 212.885 138.845C213.99 139.751 217.886 139.588 218.321 137.84C219.499 133.391 218.81 123.906 218.013 123.543C217.216 123.181 212.577 122.402 212.088 124.368C211.723 126.73 211.538 129.116 211.535 131.507Z" fill="white" stroke="#263238" stroke-linecap="round" stroke-linejoin="round"/>
<path d="M202.556 133.355C202.556 133.355 202.267 140.848 203.616 142.016C204.966 143.185 210.013 143.421 210.774 141.437C212.713 136.399 211.952 125.065 210.955 124.558C209.958 124.05 204.785 122.918 203.952 125.138C203.118 127.357 202.556 133.355 202.556 133.355Z" fill="white" stroke="#263238" stroke-linecap="round" stroke-linejoin="round"/>
<path d="M192.409 134.451C192.409 134.451 192.101 142.46 193.542 143.711C194.983 144.961 200.382 145.206 201.198 143.086C203.263 137.704 203.263 125.872 202.194 125.328C201.125 124.784 194.792 123.289 193.904 125.663C193.016 128.037 192.409 134.451 192.409 134.451Z" fill="white" stroke="#263238" stroke-linecap="round" stroke-linejoin="round"/>
<path d="M182.915 139.063C182.915 139.063 182.607 147.072 184.056 148.322C185.506 149.572 191.05 149.871 191.703 147.697C192.355 145.523 193.768 130.483 192.699 129.93C191.63 129.378 185.306 127.901 184.41 130.275C183.513 132.648 182.915 139.063 182.915 139.063Z" fill="white" stroke="#263238" stroke-linecap="round" stroke-linejoin="round"/>
<path d="M210.113 106.682C210.482 110.251 209.626 113.839 207.685 116.857C203.245 123.308 193.016 123.081 193.016 123.081L192.572 124.639C192.089 125.918 191.414 127.116 190.57 128.191C192.684 127.672 194.846 127.369 197.021 127.285C198.211 127.319 199.346 127.793 200.207 128.614C201.069 129.436 201.596 130.547 201.687 131.733C201.913 133.736 202.131 134.624 199.467 135.285C196.803 135.946 186.131 139.289 184.572 139.516C183.159 139.715 180.64 137.342 180.042 133.564C180.523 127.756 182.144 122.021 182.144 116.177C182.334 114.138 183.052 112.183 184.228 110.506" fill="white"/>
<path d="M210.113 106.682C210.482 110.251 209.626 113.839 207.685 116.857C203.245 123.308 193.016 123.081 193.016 123.081L192.572 124.639C192.089 125.918 191.414 127.116 190.57 128.191C192.684 127.672 194.846 127.369 197.021 127.285C198.211 127.319 199.346 127.793 200.207 128.614C201.069 129.436 201.596 130.547 201.687 131.733C201.913 133.736 202.131 134.624 199.467 135.285C196.803 135.946 186.131 139.289 184.572 139.516C183.159 139.715 180.64 137.342 180.042 133.564C180.523 127.756 182.144 122.021 182.144 116.177C182.334 114.138 183.052 112.183 184.228 110.506" stroke="#263238" stroke-linecap="round" stroke-linejoin="round"/>
<path d="M209.243 101.971C209.511 102.819 209.717 103.685 209.859 104.562L209.243 101.971Z" fill="white"/>
<path d="M209.243 101.971C209.511 102.819 209.717 103.685 209.859 104.562" stroke="#263238" stroke-linecap="round" stroke-linejoin="round"/>
<path d="M206.353 93.9622V85.9622" stroke="#263238" stroke-linecap="round" stroke-linejoin="round"/>
<path d="M208.572 93.3008V89.9667" stroke="#263238" stroke-linecap="round" stroke-linejoin="round"/>
<path d="M193.016 123.081C193.016 123.081 193.016 118.66 190.38 115.761" stroke="#263238" stroke-linecap="round" stroke-linejoin="round"/>
<path d="M190.289 128.3C189.083 128.424 187.893 128.673 186.738 129.043" stroke="#263238" stroke-linecap="round" stroke-linejoin="round"/>
<path d="M198.335 135.312C198.335 135.312 195.997 136.155 195.155 135.122C194.312 134.089 193.098 131.38 194.031 130.918C194.964 130.456 199.268 129.423 200.11 129.704L200.953 129.976" stroke="#263238" stroke-width="0.5" stroke-linecap="round" stroke-linejoin="round"/>
<path d="M226.683 12.5309V89.1332H189.021V12.5309" fill="#314048"/>
<path d="M226.683 12.5309V89.1332H189.021V12.5309" stroke="#263238" stroke-linecap="round" stroke-linejoin="round"/>
<path d="M222.434 85.2374C223.385 85.2374 224.156 84.4667 224.156 83.516C224.156 82.5653 223.385 81.7946 222.434 81.7946C221.484 81.7946 220.713 82.5653 220.713 83.516C220.713 84.4667 221.484 85.2374 222.434 85.2374Z" fill="white" stroke="#263238" stroke-linecap="round" stroke-linejoin="round"/>
<path d="M177.388 271.502C177.125 272.159 176.731 272.756 176.232 273.257C175.732 273.759 175.136 274.154 174.48 274.419C173.456 274.845 172.097 274.745 170.511 275.633C166.96 277.636 158.072 275.86 151.621 276.539C145.171 277.219 136.509 270.098 136.509 270.098L110.924 271.502V246.134C110.924 246.134 137.596 247.248 143.377 245.029C149.157 242.809 155.599 238.134 158.489 238.36C161.379 238.587 185.161 241.251 185.161 241.251L177.388 271.502Z" fill="white" stroke="#263238" stroke-linecap="round" stroke-linejoin="round"/>
<path d="M183.956 169.269C189.234 169.853 194.219 171.989 198.282 175.406C202.346 178.824 205.304 183.37 206.784 188.469C208.264 193.568 208.198 198.991 206.596 204.053C204.993 209.115 201.926 213.588 197.781 216.906C193.637 220.225 188.601 222.239 183.312 222.696C178.022 223.153 172.715 222.03 168.064 219.471C163.412 216.912 159.623 213.031 157.177 208.318C154.731 203.606 153.737 198.274 154.321 192.997C155.105 185.923 158.666 179.45 164.222 175.002C169.778 170.554 176.873 168.495 183.947 169.278L183.956 169.269ZM178.629 217.359C182.864 217.831 187.144 217.037 190.927 215.076C194.71 213.116 197.827 210.078 199.884 206.346C201.941 202.614 202.845 198.356 202.481 194.111C202.118 189.865 200.504 185.823 197.844 182.495C195.183 179.166 191.595 176.702 187.534 175.412C183.473 174.123 179.12 174.067 175.027 175.251C170.934 176.436 167.284 178.807 164.539 182.066C161.793 185.324 160.076 189.324 159.603 193.559C158.972 199.238 160.622 204.934 164.189 209.397C167.757 213.86 172.951 216.724 178.629 217.359Z" fill="white" stroke="#263238" stroke-linecap="round" stroke-linejoin="round"/>
<path d="M184.119 167.738C189.394 168.324 194.377 170.46 198.437 173.878C202.498 177.295 205.454 181.84 206.931 186.937C208.409 192.035 208.342 197.456 206.739 202.515C205.136 207.574 202.069 212.045 197.926 215.361C193.782 218.677 188.749 220.69 183.461 221.146C178.173 221.602 172.869 220.479 168.22 217.921C163.57 215.362 159.783 211.482 157.338 206.772C154.894 202.061 153.9 196.732 154.484 191.457C154.872 187.953 155.946 184.56 157.646 181.472C159.345 178.384 161.636 175.661 164.388 173.458C167.14 171.255 170.299 169.617 173.685 168.635C177.07 167.654 180.616 167.349 184.119 167.738ZM178.792 215.828C183.027 216.3 187.307 215.506 191.09 213.545C194.873 211.585 197.99 208.547 200.047 204.815C202.104 201.083 203.008 196.825 202.644 192.58C202.281 188.334 200.667 184.292 198.007 180.963C195.346 177.635 191.758 175.171 187.697 173.881C183.636 172.592 179.283 172.536 175.19 173.72C171.097 174.905 167.447 177.276 164.702 180.535C161.956 183.793 160.239 187.793 159.766 192.028C159.138 197.704 160.789 203.398 164.357 207.857C167.924 212.317 173.116 215.177 178.792 215.81V215.828Z" fill="white" stroke="#263238" stroke-linecap="round" stroke-linejoin="round"/>
<path d="M174.441 223.907L172.381 242.511C172.222 243.943 173.255 245.233 174.687 245.391L175.957 245.532C177.389 245.691 178.679 244.658 178.838 243.226L180.898 224.622C181.057 223.189 180.024 221.9 178.592 221.741L177.322 221.6C175.89 221.442 174.6 222.474 174.441 223.907Z" fill="#314048" stroke="#263238" stroke-linecap="round" stroke-linejoin="round"/>
<path d="M171.29 283.878H171.109C170.36 283.796 169.635 283.566 168.975 283.202C168.315 282.839 167.734 282.348 167.265 281.758C166.796 281.169 166.448 280.492 166.242 279.767C166.035 279.043 165.974 278.284 166.063 277.536L170.131 240.752C170.194 240.169 170.371 239.604 170.654 239.089C170.936 238.575 171.317 238.121 171.775 237.754C172.232 237.387 172.758 237.114 173.322 236.95C173.886 236.787 174.476 236.737 175.059 236.802L177.777 237.101C178.955 237.231 180.032 237.823 180.773 238.747C181.514 239.672 181.857 240.852 181.727 242.03L177.659 278.859C177.575 279.607 177.344 280.331 176.979 280.989C176.615 281.648 176.124 282.228 175.535 282.697C174.946 283.166 174.27 283.514 173.547 283.721C172.823 283.928 172.065 283.991 171.317 283.905L171.29 283.878Z" fill="#263238" stroke="#263238" stroke-linecap="round" stroke-linejoin="round"/>
<path d="M173.764 267.778C173.764 267.778 180.197 268.023 181.103 269.128C182.009 270.234 181.846 274.12 180.097 274.564C175.649 275.742 166.163 275.053 165.8 274.256C165.438 273.459 164.659 268.82 166.625 268.322C168.987 267.96 171.374 267.778 173.764 267.778Z" fill="white" stroke="#263238" stroke-linecap="round" stroke-linejoin="round"/>
<path d="M175.648 258.818C175.648 258.818 183.141 258.528 184.31 259.878C185.479 261.228 185.714 266.274 183.73 267.035C178.693 268.965 167.359 268.213 166.851 267.217C166.344 266.22 165.211 261.047 167.431 260.213C169.651 259.38 175.648 258.818 175.648 258.818Z" fill="white" stroke="#263238" stroke-linecap="round" stroke-linejoin="round"/>
<path d="M176.745 248.644C176.745 248.644 184.754 248.345 186.004 249.785C187.254 251.226 187.499 256.626 185.388 257.432C179.952 259.507 168.174 259.498 167.621 258.437C167.069 257.377 165.583 251.036 167.957 250.139C170.33 249.242 176.745 248.644 176.745 248.644Z" fill="white" stroke="#263238" stroke-linecap="round" stroke-linejoin="round"/>
<path d="M181.356 239.158C181.356 239.158 189.365 238.85 190.615 240.29C191.866 241.731 192.165 247.294 189.99 247.946C187.816 248.598 172.776 250.003 172.224 248.943C171.671 247.883 170.194 241.541 172.568 240.653C174.942 239.765 181.356 239.158 181.356 239.158Z" fill="white" stroke="#263238" stroke-linecap="round" stroke-linejoin="round"/>
<path d="M150.208 266.401C153.368 266.525 156.487 265.661 159.132 263.928C165.583 259.479 165.356 249.26 165.356 249.26L166.915 248.816C168.193 248.332 169.391 247.657 170.466 246.813C169.947 248.925 169.644 251.083 169.56 253.255C169.595 254.446 170.068 255.582 170.889 256.445C171.71 257.308 172.821 257.837 174.009 257.93C176.011 258.148 176.899 258.374 177.569 255.701C178.24 253.029 181.565 242.365 181.791 240.816C182.018 239.267 179.617 236.875 175.839 236.286C170.031 236.766 164.296 238.388 158.453 238.388C156.415 238.578 154.461 239.293 152.781 240.462" fill="white"/>
<path d="M150.208 266.401C153.368 266.525 156.487 265.661 159.132 263.928C165.583 259.479 165.356 249.26 165.356 249.26L166.915 248.816C168.193 248.332 169.391 247.657 170.466 246.813C169.947 248.925 169.644 251.083 169.56 253.255C169.595 254.446 170.068 255.582 170.889 256.445C171.71 257.308 172.821 257.837 174.009 257.93C176.011 258.148 176.899 258.374 177.569 255.701C178.24 253.029 181.565 242.365 181.791 240.816C182.018 239.267 179.617 236.875 175.839 236.286C170.031 236.766 164.296 238.388 158.453 238.388C156.415 238.578 154.461 239.293 152.781 240.462" stroke="#263238" stroke-linecap="round" stroke-linejoin="round"/>
<path d="M144.265 265.486C145.531 265.875 146.833 266.139 148.151 266.274L144.265 265.486Z" fill="white"/>
<path d="M144.265 265.486C145.531 265.875 146.833 266.139 148.151 266.274" stroke="#263238" stroke-linecap="round" stroke-linejoin="round"/>
<path d="M136.255 262.596H128.255" stroke="#263238" stroke-linecap="round" stroke-linejoin="round"/>
<path d="M135.594 264.816H132.26" stroke="#263238" stroke-linecap="round" stroke-linejoin="round"/>
<path d="M165.374 249.26C165.374 249.26 160.953 249.26 158.054 246.623" stroke="#263238" stroke-linecap="round" stroke-linejoin="round"/>
<path d="M170.593 246.524C170.717 245.317 170.966 244.127 171.336 242.972" stroke="#263238" stroke-linecap="round" stroke-linejoin="round"/>
<path d="M177.605 254.569C177.605 254.569 178.448 252.231 177.415 251.389C176.382 250.546 173.673 249.332 173.211 250.265C172.749 251.198 171.716 255.511 171.997 256.345L172.278 257.187" stroke="#263238" stroke-width="0.5" stroke-linecap="round" stroke-linejoin="round"/>
<path d="M54.8242 282.927H131.427V245.264H54.8242" fill="#314048"/>
<path d="M54.8242 282.927H131.427V245.264H54.8242" stroke="#263238" stroke-linecap="round" stroke-linejoin="round"/>
<path d="M124.088 278.677C124.088 279.018 124.189 279.351 124.378 279.634C124.567 279.917 124.836 280.138 125.151 280.268C125.465 280.398 125.811 280.432 126.145 280.366C126.479 280.299 126.786 280.135 127.026 279.895C127.267 279.654 127.431 279.347 127.498 279.013C127.564 278.679 127.53 278.333 127.4 278.019C127.269 277.704 127.049 277.435 126.766 277.246C126.483 277.057 126.15 276.956 125.809 276.956C125.353 276.956 124.915 277.137 124.592 277.46C124.269 277.783 124.088 278.221 124.088 278.677Z" fill="white" stroke="#263238" stroke-linecap="round" stroke-linejoin="round"/>
</svg>
