<svg width="359" height="206" viewBox="0 0 359 206" fill="none" xmlns="http://www.w3.org/2000/svg">
<g clip-path="url(#clip0)">
<rect width="359" height="206" fill="white"/>
<rect width="359" height="206" rx="19" fill="#33383B"/>
<g clip-path="url(#clip1)">
<path d="M305.451 27.2955L305.349 28.2183L310.079 28.7708L310.181 27.848L305.451 27.2955Z" fill="#49606C"/>
<path d="M284.939 24.908L284.838 25.8308L300.183 27.6235L300.285 26.7007L284.939 24.908Z" fill="#49606C"/>
<path d="M398.61 41.462L236.404 22.5128C233.979 22.2296 231.791 24.0245 231.516 26.5218L217.498 153.86C217.223 156.357 218.965 158.611 221.39 158.895L383.596 177.844C386.021 178.127 388.209 176.332 388.484 173.835L402.502 46.4965C402.777 43.9992 401.035 41.7452 398.61 41.462Z" fill="#49606C"/>
<path opacity="0.7" d="M219.867 152.358L233.489 28.5685C233.537 28.1311 233.669 27.7079 233.877 27.3233C234.084 26.9386 234.364 26.6001 234.699 26.3273C235.034 26.0544 235.419 25.8527 235.83 25.7336C236.241 25.6146 236.671 25.5806 237.096 25.6337L397.304 44.3382C397.728 44.3889 398.138 44.5252 398.511 44.7395C398.884 44.9537 399.212 45.2416 399.476 45.5867C399.741 45.9318 399.937 46.3273 400.053 46.7505C400.169 47.1737 400.203 47.6163 400.153 48.0531L386.494 171.796C386.447 172.234 386.316 172.658 386.109 173.043C385.902 173.428 385.622 173.767 385.287 174.04C384.951 174.313 384.566 174.515 384.154 174.634C383.743 174.752 383.312 174.785 382.888 174.731L222.679 156.017C221.838 155.91 221.071 155.466 220.545 154.781C220.019 154.097 219.775 153.226 219.867 152.358Z" fill="#263238"/>
<path d="M373.327 74.847L305.817 66.9604L305.44 70.3841L372.95 78.2706L373.327 74.847Z" fill="#49606C"/>
<path d="M383.675 81.5805L312.152 73.2251L311.775 76.6487L383.298 85.0041L383.675 81.5805Z" fill="#49606C"/>
<path d="M370.805 85.6063L311.547 78.6836L311.17 82.1072L370.428 89.0299L370.805 85.6063Z" fill="#49606C"/>
<path d="M364.025 90.3468L310.948 84.1462L310.571 87.5699L363.648 93.7704L364.025 90.3468Z" fill="#49606C"/>
<path d="M346.892 97.3439L303.032 92.2202L302.656 95.6438L346.515 100.768L346.892 97.3439Z" fill="#49606C"/>
<path d="M355.26 114.922L308.167 109.421L307.79 112.845L354.883 118.346L355.26 114.922Z" fill="#49606C"/>
<path d="M347.788 108.517L308.766 103.958L308.389 107.382L347.412 111.941L347.788 108.517Z" fill="#49606C"/>
<path d="M352.343 103.518L309.371 98.4976L308.994 101.921L351.966 106.941L352.343 103.518Z" fill="#49606C"/>
<path d="M342.311 138.999L298.451 133.875L298.074 137.299L341.934 142.422L342.311 138.999Z" fill="#49606C"/>
<path d="M350.67 156.576L303.576 151.075L303.199 154.498L350.293 160L350.67 156.576Z" fill="#49606C"/>
<path d="M342.693 148.565L303.813 144.115L303.445 147.526L342.325 151.976L342.693 148.565Z" fill="#49606C"/>
<path d="M347.753 145.172L304.781 140.152L304.404 143.575L347.376 148.595L347.753 145.172Z" fill="#49606C"/>
<path d="M276.624 37.7474L241.006 33.5864L240.629 37.01L276.247 41.171L276.624 37.7474Z" fill="white"/>
<path d="M283.069 55.0844L244.835 50.6179L244.458 54.0415L282.692 58.5081L283.069 55.0844Z" fill="white"/>
<path d="M277.12 48.8658L245.434 45.1643L245.057 48.5879L276.743 52.2894L277.12 48.8658Z" fill="white"/>
<path d="M280.918 43.7698L246.026 39.6936L245.649 43.1172L280.541 47.1934L280.918 43.7698Z" fill="white"/>
<path d="M353.452 131.307L306.359 125.806L305.982 129.229L353.075 134.731L353.452 131.307Z" fill="#49606C"/>
<path d="M345.981 124.902L306.959 120.343L306.582 123.767L345.604 128.325L345.981 124.902Z" fill="#49606C"/>
<path d="M350.536 119.903L307.563 114.883L307.186 118.306L350.159 123.326L350.536 119.903Z" fill="#49606C"/>
<path d="M342.785 102.467C341.541 96.6534 340.847 96.9326 333.79 94.7155C326.03 92.2795 317.971 90.9269 309.842 90.696C304.609 90.4986 299.378 91.1065 294.33 92.4984C294.33 92.4984 285.462 93.607 279.099 95.0371C273.64 105.936 279.801 120.898 279.801 120.898C279.801 120.898 287.552 137.924 287.552 146.648C287.552 155.373 280.901 170.596 280.63 171.011C280.359 171.425 260.143 206.552 255.015 218.492C249.887 230.432 249.76 235.247 252.527 239.952C255.294 244.657 286.858 288.128 286.858 288.128C286.858 288.128 278.396 297.817 274.537 300.313C270.679 302.809 265.83 303.199 267.522 305.28C269.215 307.362 280.393 308.183 283.44 307.489C286.486 306.795 293.408 300.719 297.419 297.944C301.43 295.168 305.035 293.23 303.512 289.769C301.989 286.308 298.663 283.262 297.284 280.461C295.904 277.66 290.912 269.663 288.145 259.695C285.377 249.726 283.304 243.777 280.114 238.378C276.924 232.979 274.715 230.906 274.715 230.906C274.715 230.906 286.621 219.965 292.993 214.43C299.365 208.896 305.035 204.326 305.035 204.326C305.035 204.326 326.631 182.172 328.569 177.324C330.506 172.475 335.77 157.251 339.646 143.966C343.521 130.68 344.029 108.28 342.785 102.467Z" fill="#274452" stroke="#263238" stroke-width="0.967197" stroke-linecap="round" stroke-linejoin="round"/>
<path d="M279.801 120.881C279.801 120.881 273.64 105.92 279.099 95.0203C277.6 95.3355 276.122 95.7424 274.673 96.2388C269.418 98.1767 243.803 108.932 241.171 110.083C238.539 111.234 233.699 115.203 234.943 119.391C236.187 123.58 238.125 124.79 246.985 124.926C255.845 125.061 279.801 120.881 279.801 120.881Z" fill="#263238" stroke="#263238" stroke-width="0.967197" stroke-linecap="round" stroke-linejoin="round"/>
<path d="M260.973 45.2964C260.973 45.2964 268.86 49.3075 269.274 50.0014C269.689 50.6953 269.139 52.2101 268.58 53.3186C268.022 54.4272 264.984 57.0589 263.604 57.6089C262.225 58.159 263.325 54.0125 263.325 51.6854C263.325 49.3583 259.306 47.3951 258.891 46.2865C258.476 45.178 259.907 44.8733 260.973 45.2964Z" fill="white" stroke="#263238" stroke-width="0.967197" stroke-linecap="round" stroke-linejoin="round"/>
<path d="M245.876 123.927L242.838 124.773C239.791 125.619 234.528 126.017 233.699 124.909C232.869 123.8 229.958 109.127 230.373 100.961C230.788 92.7946 242.973 57.905 244.361 55.2648C245.749 52.6246 257.647 44.0524 257.647 44.0524C257.647 44.0524 259.17 43.6377 260.972 45.3048C262.775 46.9718 267.894 50.4244 267.615 51.8037C267.336 53.1831 264.433 57.3465 263.181 58.455C261.928 59.5636 259.999 58.455 259.999 58.455C259.999 58.455 258.476 61.0783 256.538 61.9161C254.6 62.7538 250.031 61.7722 250.031 61.7722C250.031 61.7722 246.299 85.0348 247.399 93.9286C248.499 102.822 250.725 113.172 249.091 118.156" fill="#263238"/>
<path d="M245.876 123.927L242.838 124.773C239.791 125.619 234.528 126.017 233.699 124.909C232.869 123.8 229.958 109.127 230.373 100.961C230.788 92.7946 242.973 57.905 244.361 55.2648C245.749 52.6246 257.647 44.0524 257.647 44.0524C257.647 44.0524 259.17 43.6377 260.972 45.3048C262.775 46.9718 267.894 50.4244 267.615 51.8037C267.336 53.1831 264.433 57.3465 263.181 58.455C261.928 59.5636 259.999 58.455 259.999 58.455C259.999 58.455 258.476 61.0783 256.538 61.9161C254.6 62.7538 250.031 61.7722 250.031 61.7722C250.031 61.7722 246.299 85.0348 247.399 93.9286C248.499 102.822 250.725 113.172 249.091 118.156" stroke="#263238" stroke-width="0.967197" stroke-linecap="round" stroke-linejoin="round"/>
<path d="M256.521 61.9076C258.459 61.0614 259.982 58.4466 259.982 58.4466C259.982 58.4466 261.92 59.5551 263.164 58.4466C264.408 57.338 267.319 53.1831 267.598 51.7953C267.878 50.4075 262.749 46.9549 260.955 45.2963C259.161 43.6377 257.63 44.0439 257.63 44.0439C257.63 44.0439 245.723 52.633 244.344 55.2563C244.006 55.8994 243.033 58.4466 241.738 62.0261C244.051 63.6372 246.73 64.6464 249.531 64.9625C249.819 62.9654 250.014 61.7384 250.014 61.7384C250.014 61.7384 254.6 62.7369 256.521 61.9076Z" fill="white" stroke="#263238" stroke-width="0.967197" stroke-linecap="round" stroke-linejoin="round"/>
<path d="M268.851 53.0562C268.851 53.0562 270.789 53.6062 270.238 54.994C269.688 56.3818 267.607 57.8966 266.363 57.7612C265.119 57.6258 264.84 55.9587 265.669 54.5794C266.498 53.2001 268.157 52.4977 268.851 53.0562Z" fill="white" stroke="#263238" stroke-width="0.967197" stroke-linecap="round" stroke-linejoin="round"/>
<path d="M259.999 58.4467C259.999 58.4467 258.891 57.1943 259.585 56.2296C260.278 55.2649 261.658 55.9504 261.658 55.9504L259.585 53.3186" stroke="#263238" stroke-width="0.967197" stroke-linecap="round" stroke-linejoin="round"/>
<path d="M276.441 159.502C280.769 159.502 284.277 155.994 284.277 151.666C284.277 147.338 280.769 143.83 276.441 143.83C272.114 143.83 268.605 147.338 268.605 151.666C268.605 155.994 272.114 159.502 276.441 159.502Z" fill="white" stroke="#263238" stroke-width="0.967197" stroke-linecap="round" stroke-linejoin="round"/>
<path d="M274.385 143.983C275.206 141.769 276.504 139.763 278.187 138.107C279.87 136.452 281.898 135.187 284.125 134.403C291.876 131.509 304.502 128.48 311.805 118.892C319.108 109.305 316.468 90.967 316.468 90.967L322.146 91.7371C322.146 91.7371 321.384 110.066 317.737 119.798C314.09 129.529 302.979 135.03 294.161 136.536C285.344 138.042 278.041 137.898 274.385 143.983Z" fill="white" stroke="#263238" stroke-width="0.967197" stroke-linecap="round" stroke-linejoin="round"/>
<path d="M274.385 143.982C274.385 143.982 273.471 137.746 279.098 131.204C284.726 124.663 293.857 117.521 295.38 110.827C296.903 104.134 295.227 92.5745 295.227 92.5745L300.093 91.2036C301.432 97.2604 301.484 103.531 300.246 109.609C298.113 119.036 292.943 123.605 286.554 128.471C280.165 133.337 274.385 143.982 274.385 143.982Z" fill="white" stroke="#263238" stroke-width="0.967197" stroke-linecap="round" stroke-linejoin="round"/>
<path d="M337.107 97.4827C335.474 98.8294 334.131 100.492 333.156 102.371C332.182 104.249 331.597 106.306 331.437 108.416C330.879 115.617 332.123 134.581 332.123 142.062C332.123 149.542 326.588 160.746 327.418 166.56C328.247 172.373 335.88 179.295 340.018 174.734C344.156 170.173 347.355 155.491 348.878 136.519C350.401 117.547 349.157 104.819 346.805 100.978C344.452 97.1358 340.568 94.5718 337.107 97.4827Z" fill="#263238" stroke="#263238" stroke-width="0.967197" stroke-linecap="round" stroke-linejoin="round"/>
<path d="M341.676 169.056C340.83 173.761 338.215 178.365 335.448 179.295C332.681 180.226 329.525 176.393 325.065 169.192C320.605 161.99 318.295 154.103 316.603 145.794C315.102 138.197 313.995 130.529 313.286 122.819C313.142 119.637 313.286 118.799 315.08 116.895C316.874 114.991 323.39 113.434 323.39 113.434L324.498 111.496C325.048 110.532 327.959 109.973 329.338 110.811C330.718 111.649 331.42 116.21 331.42 116.21C331.42 116.21 335.296 118.418 335.296 120.635C335.296 122.853 332.8 125.205 330.032 128.945C327.265 132.686 326.436 131.298 326.157 134.759C325.877 138.22 327.849 142.789 331.276 145.971C334.704 149.153 339.738 153.029 341.109 159.257" fill="#263238"/>
<path d="M341.676 169.056C340.83 173.761 338.215 178.365 335.448 179.295C332.681 180.226 329.525 176.393 325.065 169.192C320.605 161.99 318.295 154.103 316.603 145.794C315.102 138.197 313.995 130.529 313.286 122.819C313.142 119.637 313.286 118.799 315.08 116.895C316.874 114.991 323.39 113.434 323.39 113.434L324.498 111.496C325.048 110.532 327.959 109.973 329.338 110.811C330.718 111.649 331.42 116.21 331.42 116.21C331.42 116.21 335.296 118.418 335.296 120.635C335.296 122.853 332.8 125.205 330.032 128.945C327.265 132.686 326.436 131.298 326.157 134.759C325.877 138.22 327.849 142.789 331.276 145.971C334.703 149.153 339.738 153.029 341.109 159.257" stroke="#263238" stroke-width="0.967197" stroke-linecap="round" stroke-linejoin="round"/>
<path d="M326.148 135.486C326.148 135.233 326.148 134.97 326.148 134.725C326.428 131.264 327.257 132.643 330.024 128.911C332.791 125.179 335.288 122.818 335.288 120.601C335.288 118.384 331.412 116.176 331.412 116.176C331.412 116.176 330.718 111.606 329.33 110.777C327.942 109.947 325.04 110.498 324.49 111.462L323.373 113.4C323.373 113.4 316.865 114.923 315.063 116.861C313.261 118.799 313.125 119.637 313.269 122.785C313.354 124.849 314.031 130.401 314.961 136.324C318.696 137.084 322.568 136.794 326.148 135.486Z" fill="white" stroke="#263238" stroke-width="0.967197" stroke-linecap="round" stroke-linejoin="round"/>
<path d="M328.704 176.926C312.033 171.349 291.377 168.709 282.035 167.727C281.265 169.64 280.706 170.875 280.63 170.994C280.351 171.408 260.143 206.535 255.015 218.475C249.887 230.415 249.76 235.23 252.527 239.935C255.294 244.64 286.858 288.111 286.858 288.111C291.936 287.493 296.463 284.083 298.426 282.399C297.981 281.797 297.585 281.16 297.241 280.495C295.854 277.727 290.869 269.697 288.102 259.728C285.335 249.76 283.262 243.811 280.072 238.412C276.881 233.013 274.673 230.94 274.673 230.94C274.673 230.94 286.579 219.998 292.951 214.464C299.323 208.93 304.993 204.36 304.993 204.36C304.993 204.36 326.588 182.206 328.526 177.357C328.585 177.222 328.636 177.078 328.704 176.926Z" fill="#787878" stroke="#263238" stroke-width="0.967197" stroke-linecap="round" stroke-linejoin="round"/>
<path d="M320.224 183.865C320.224 183.865 308.14 173.067 296.412 169.191C284.683 165.316 262.766 166.424 257.232 168.641C251.698 170.858 254.05 177.95 254.185 186.082C254.321 194.214 259.864 209.336 262.216 217.925C264.569 226.514 265.398 236.06 265.677 239.377C265.956 242.694 265.956 243.946 265.956 243.946C265.956 243.946 250.589 243.811 246.569 243.396C242.55 242.982 240.206 244.243 239.512 245.613C239.101 246.324 238.954 247.157 239.097 247.966C239.097 247.966 249.48 254.736 258.476 258.484C267.471 262.233 276.06 264.577 277.169 264.019C278.277 263.46 279.377 255.023 279.377 249.21C279.377 243.396 281.18 215.429 281.18 210.445V197.574C281.18 197.574 308.039 211.832 318.701 208.507C329.364 205.181 328.704 176.926 328.704 176.926L320.081 174.176" fill="#787878"/>
<path d="M320.224 183.865C320.224 183.865 308.14 173.067 296.412 169.191C284.683 165.316 262.766 166.424 257.232 168.641C251.698 170.858 254.05 177.95 254.185 186.082C254.321 194.214 259.864 209.336 262.216 217.925C264.569 226.514 265.398 236.06 265.677 239.377C265.956 242.694 265.956 243.946 265.956 243.946C265.956 243.946 250.589 243.811 246.569 243.396C242.55 242.982 240.206 244.243 239.512 245.613C239.101 246.324 238.954 247.157 239.097 247.966C239.097 247.966 249.48 254.736 258.476 258.484C267.471 262.233 276.06 264.577 277.169 264.019C278.277 263.46 279.377 255.023 279.377 249.21C279.377 243.396 281.18 215.429 281.18 210.445V197.574C281.18 197.574 308.039 211.832 318.701 208.507C329.364 205.181 328.704 176.926 328.704 176.926L320.081 174.176" stroke="#263238" stroke-width="0.967197" stroke-linecap="round" stroke-linejoin="round"/>
<path d="M281.18 197.574C281.18 197.574 281.045 185.532 274.952 179.574" stroke="#263238" stroke-width="0.967197" stroke-linecap="round" stroke-linejoin="round"/>
<path d="M271.753 77.4693C271.753 77.4693 275.054 88.2925 276.509 92.1174C277.965 95.9423 278.092 98.0409 282.704 102.407C287.315 106.774 288.246 110.193 292.994 110.582C297.741 110.971 299.594 108.043 299.594 108.043C299.594 108.043 300.254 112.401 302.759 113.713C305.264 115.025 310.806 115.295 314.234 108.568C317.661 101.84 315.554 98.5487 314.369 95.3838C313.184 92.219 311.593 88.2586 311.593 88.2586C313.315 85.8836 314.207 83.0081 314.132 80.0757C313.87 75.4638 312.55 74.9307 311.103 74.533C309.656 74.1352 305.56 76.7754 303.851 75.9885C302.141 75.2015 305.035 70.708 300.415 70.3188C295.795 69.9295 291.047 76.2423 282.737 76.9108C274.427 77.5794 271.449 74.9645 271.753 77.4693Z" fill="white" stroke="#263238" stroke-width="0.967197" stroke-linecap="round" stroke-linejoin="round"/>
<path d="M299.552 108.077L307.066 99.6151C310.366 95.9256 310.366 90.3828 310.366 90.3828" fill="white"/>
<path d="M299.552 108.077L307.066 99.6151C310.366 95.9256 310.366 90.3828 310.366 90.3828" stroke="#263238" stroke-width="0.967197" stroke-linecap="round" stroke-linejoin="round"/>
<path d="M284.777 90.3999C284.777 90.3999 285.699 94.631 284.777 96.7296C283.854 98.8283 284.641 99.9029 286.224 100.03C286.981 100.159 287.759 100.068 288.466 99.7676" stroke="#263238" stroke-width="0.967197" stroke-linecap="round" stroke-linejoin="round"/>
<path d="M289.659 90.7975C289.659 90.7975 290.582 88.0304 294.931 88.8174" stroke="#263238" stroke-width="1.93439" stroke-linecap="round" stroke-linejoin="round"/>
<path d="M278.709 91.5844C278.709 91.5844 281.248 90.1373 283.059 92.1175" stroke="#263238" stroke-width="1.93439" stroke-linecap="round" stroke-linejoin="round"/>
<path d="M276.467 87.3703C276.467 87.3703 279.496 84.3324 283.059 89.0627" stroke="#263238" stroke-width="0.967197" stroke-linecap="round" stroke-linejoin="round"/>
<path d="M287.281 87.7598C287.281 87.7598 288.729 82.8856 293.205 83.5287" stroke="#263238" stroke-width="0.967197" stroke-linecap="round" stroke-linejoin="round"/>
<path d="M291.369 101.088C291.369 101.088 298.231 99.7675 299.552 91.72C299.552 91.72 302.936 97.1442 300.592 101.494C298.248 105.843 295.067 105.175 295.067 105.175L291.369 101.088Z" stroke="#263238" stroke-width="0.967197" stroke-linecap="round" stroke-linejoin="round"/>
<path d="M276.196 62.1696C276.196 62.1696 279.631 57.4223 275.806 58.0824C271.982 58.7424 265.652 66.1299 266.439 73.1197C267.226 80.1095 281.341 81.6919 288.204 80.6426C292.322 80.0002 296.144 78.1099 299.154 75.2268C299.154 75.2268 296.615 80.6426 299.289 81.2942C301.963 81.9458 303.241 81.2942 303.241 81.2942C303.241 81.2942 305.78 86.9723 306.541 85.2545C307.303 83.5367 306.355 82.1912 306.803 79.9825C307.861 74.8375 311.686 74.9645 311.686 74.9645C311.686 74.9645 312.346 62.1696 307.599 57.1938C302.852 52.2181 290.446 51.6511 285.301 54.2913C280.156 56.9315 276.196 62.1696 276.196 62.1696Z" fill="#263238" stroke="#263238" stroke-width="0.967197" stroke-linecap="round" stroke-linejoin="round"/>
</g>
<path d="M52.624 34.912C53.136 35.1893 53.392 35.616 53.392 36.192C53.392 36.576 53.264 36.928 53.008 37.248C52.752 37.5893 52.4 37.76 51.952 37.76C51.6533 37.76 51.3653 37.6853 51.088 37.536C49.7653 36.7893 48.336 36.416 46.8 36.416C45.2 36.416 43.7813 36.768 42.544 37.472C41.328 38.176 40.3787 39.168 39.696 40.448C39.0133 41.7067 38.672 43.1573 38.672 44.8C38.672 46.5707 39.024 48.096 39.728 49.376C40.432 50.656 41.4027 51.6373 42.64 52.32C43.8773 52.9813 45.264 53.312 46.8 53.312C48.3787 53.312 49.808 52.928 51.088 52.16C51.344 52.032 51.6213 51.968 51.92 51.968C52.3893 51.968 52.7627 52.1493 53.04 52.512C53.296 52.832 53.424 53.1733 53.424 53.536C53.424 53.792 53.3493 54.0373 53.2 54.272C53.072 54.4853 52.8907 54.656 52.656 54.784C51.824 55.2533 50.8853 55.6267 49.84 55.904C48.816 56.1813 47.8027 56.32 46.8 56.32C44.7307 56.32 42.8213 55.8613 41.072 54.944C39.344 54.0267 37.9573 52.6933 36.912 50.944C35.888 49.1947 35.376 47.1467 35.376 44.8C35.376 42.6453 35.8667 40.704 36.848 38.976C37.8507 37.2267 39.216 35.8613 40.944 34.88C42.6933 33.8773 44.6453 33.376 46.8 33.376C48.8693 33.376 50.8107 33.888 52.624 34.912ZM72.5503 47.616C72.5503 49.28 72.1769 50.7733 71.4303 52.096C70.6836 53.4187 69.6596 54.4533 68.3583 55.2C67.0783 55.9467 65.6596 56.32 64.1023 56.32C62.5449 56.32 61.1156 55.9467 59.8143 55.2C58.5343 54.4533 57.5209 53.4187 56.7743 52.096C56.0276 50.7733 55.6543 49.28 55.6543 47.616C55.6543 45.952 56.0276 44.448 56.7743 43.104C57.5209 41.76 58.5343 40.7147 59.8143 39.968C61.1156 39.2213 62.5449 38.848 64.1023 38.848C65.6596 38.848 67.0783 39.2213 68.3583 39.968C69.6596 40.7147 70.6836 41.76 71.4303 43.104C72.1769 44.448 72.5503 45.952 72.5503 47.616ZM69.5103 47.616C69.5103 46.464 69.2649 45.44 68.7743 44.544C68.3049 43.6267 67.6543 42.9227 66.8223 42.432C66.0116 41.92 65.1049 41.664 64.1023 41.664C63.0996 41.664 62.1823 41.92 61.3503 42.432C60.5396 42.9227 59.8889 43.6267 59.3983 44.544C58.9289 45.44 58.6943 46.464 58.6943 47.616C58.6943 48.7467 58.9289 49.76 59.3983 50.656C59.8889 51.552 60.5396 52.256 61.3503 52.768C62.1823 53.2587 63.0996 53.504 64.1023 53.504C65.1049 53.504 66.0116 53.2587 66.8223 52.768C67.6543 52.256 68.3049 51.552 68.7743 50.656C69.2649 49.76 69.5103 48.7467 69.5103 47.616ZM95.3165 38.944C99.0498 38.944 100.917 41.2693 100.917 45.92V54.464C100.917 54.912 100.778 55.2853 100.501 55.584C100.223 55.8613 99.8605 56 99.4125 56C98.9645 56 98.5912 55.8507 98.2925 55.552C98.0152 55.2533 97.8765 54.8907 97.8765 54.464V45.952C97.8765 43.1573 96.7032 41.76 94.3565 41.76C93.5245 41.76 92.7672 41.952 92.0845 42.336C91.4232 42.6987 90.9005 43.2 90.5165 43.84C90.1538 44.48 89.9725 45.184 89.9725 45.952V54.464C89.9725 54.8907 89.8232 55.2533 89.5245 55.552C89.2472 55.8507 88.8845 56 88.4365 56C87.9885 56 87.6258 55.8613 87.3485 55.584C87.0712 55.2853 86.9325 54.912 86.9325 54.464V45.92C86.9325 44.6613 86.6658 43.6587 86.1325 42.912C85.5992 42.144 84.7138 41.76 83.4765 41.76C82.2178 41.76 81.1725 42.1653 80.3405 42.976C79.5298 43.7653 79.1245 44.7467 79.1245 45.92V54.464C79.1245 54.8907 78.9752 55.2533 78.6765 55.552C78.3992 55.8507 78.0365 56 77.5885 56C77.1405 56 76.7778 55.8613 76.5005 55.584C76.2232 55.2853 76.0845 54.912 76.0845 54.464V40.768C76.0845 40.3413 76.2232 39.9787 76.5005 39.68C76.7992 39.3813 77.1618 39.232 77.5885 39.232C78.0365 39.232 78.3992 39.3813 78.6765 39.68C78.9752 39.9787 79.1245 40.3413 79.1245 40.768V41.888C79.6792 41.056 80.4152 40.3627 81.3325 39.808C82.2712 39.232 83.2845 38.944 84.3725 38.944C87.0178 38.944 88.7352 40.1173 89.5245 42.464C89.9938 41.568 90.7725 40.7573 91.8605 40.032C92.9485 39.3067 94.1005 38.944 95.3165 38.944ZM113.876 38.944C115.326 38.944 116.638 39.3173 117.812 40.064C118.985 40.7893 119.902 41.8133 120.564 43.136C121.246 44.4587 121.588 45.952 121.588 47.616C121.588 49.28 121.246 50.7733 120.564 52.096C119.902 53.3973 118.985 54.4213 117.812 55.168C116.638 55.9147 115.348 56.288 113.94 56.288C112.83 56.288 111.796 56.0427 110.836 55.552C109.876 55.0613 109.097 54.464 108.5 53.76V60.864C108.5 61.2907 108.35 61.6533 108.052 61.952C107.774 62.2507 107.412 62.4 106.964 62.4C106.537 62.4 106.174 62.2507 105.876 61.952C105.598 61.6747 105.46 61.312 105.46 60.864V40.736C105.46 40.288 105.598 39.9147 105.876 39.616C106.153 39.3173 106.516 39.168 106.964 39.168C107.412 39.168 107.774 39.3173 108.052 39.616C108.35 39.9147 108.5 40.288 108.5 40.736V41.664C109.012 40.9173 109.758 40.2773 110.74 39.744C111.721 39.2107 112.766 38.944 113.876 38.944ZM113.524 53.472C114.505 53.472 115.39 53.216 116.18 52.704C116.969 52.192 117.577 51.4987 118.004 50.624C118.452 49.728 118.676 48.7253 118.676 47.616C118.676 46.5067 118.452 45.5147 118.004 44.64C117.577 43.744 116.969 43.04 116.18 42.528C115.39 42.016 114.505 41.76 113.524 41.76C112.521 41.76 111.625 42.016 110.836 42.528C110.046 43.0187 109.428 43.712 108.98 44.608C108.553 45.504 108.34 46.5067 108.34 47.616C108.34 48.7253 108.553 49.728 108.98 50.624C109.428 51.52 110.046 52.224 110.836 52.736C111.625 53.2267 112.521 53.472 113.524 53.472ZM139.836 46.976C139.814 47.36 139.654 47.6907 139.356 47.968C139.057 48.224 138.705 48.352 138.3 48.352H127.036C127.185 49.9093 127.772 51.1573 128.796 52.096C129.841 53.0347 131.11 53.504 132.604 53.504C133.628 53.504 134.46 53.3547 135.1 53.056C135.74 52.7573 136.305 52.3733 136.796 51.904C137.116 51.712 137.425 51.616 137.724 51.616C138.086 51.616 138.385 51.744 138.62 52C138.876 52.256 139.004 52.5547 139.004 52.896C139.004 53.344 138.79 53.7493 138.364 54.112C137.745 54.7307 136.924 55.2533 135.9 55.68C134.876 56.1067 133.83 56.32 132.764 56.32C131.036 56.32 129.51 55.9573 128.188 55.232C126.886 54.5067 125.873 53.4933 125.148 52.192C124.444 50.8907 124.092 49.4187 124.092 47.776C124.092 45.984 124.454 44.416 125.18 43.072C125.926 41.7067 126.897 40.6613 128.092 39.936C129.308 39.2107 130.609 38.848 131.996 38.848C133.361 38.848 134.641 39.2 135.836 39.904C137.03 40.608 137.99 41.5787 138.716 42.816C139.441 44.0533 139.814 45.44 139.836 46.976ZM131.996 41.664C130.801 41.664 129.766 42.0053 128.892 42.688C128.017 43.3493 127.441 44.384 127.164 45.792H136.604V45.536C136.497 44.4053 135.985 43.4773 135.068 42.752C134.172 42.0267 133.148 41.664 131.996 41.664ZM147.91 42.208V51.744C147.91 52.8107 148.39 53.344 149.35 53.344C149.499 53.344 149.702 53.312 149.958 53.248C150.214 53.1627 150.416 53.12 150.566 53.12C150.843 53.12 151.078 53.2373 151.27 53.472C151.462 53.7067 151.558 54.0053 151.558 54.368C151.558 54.816 151.302 55.2 150.79 55.52C150.278 55.84 149.702 56 149.062 56C148.358 56 147.707 55.9253 147.11 55.776C146.534 55.6267 146.011 55.2533 145.542 54.656C145.094 54.0373 144.87 53.1093 144.87 51.872V42.208H143.014C142.608 42.208 142.267 42.08 141.99 41.824C141.734 41.5467 141.606 41.2053 141.606 40.8C141.606 40.3947 141.734 40.064 141.99 39.808C142.267 39.552 142.608 39.424 143.014 39.424H144.87V36.736C144.87 36.3093 145.008 35.9467 145.286 35.648C145.584 35.3493 145.958 35.2 146.406 35.2C146.832 35.2 147.184 35.3493 147.462 35.648C147.76 35.9467 147.91 36.3093 147.91 36.736V39.424H150.566C150.971 39.424 151.302 39.5627 151.558 39.84C151.835 40.096 151.974 40.4267 151.974 40.832C151.974 41.2373 151.835 41.568 151.558 41.824C151.302 42.08 150.971 42.208 150.566 42.208H147.91ZM158.402 54.464C158.402 54.8907 158.253 55.2533 157.954 55.552C157.677 55.8507 157.314 56 156.866 56C156.439 56 156.077 55.8507 155.778 55.552C155.501 55.2533 155.362 54.8907 155.362 54.464V40.608C155.362 40.1813 155.501 39.8187 155.778 39.52C156.077 39.2213 156.439 39.072 156.866 39.072C157.314 39.072 157.677 39.2213 157.954 39.52C158.253 39.8187 158.402 40.1813 158.402 40.608V54.464ZM156.866 36.96C156.247 36.96 155.799 36.8533 155.522 36.64C155.266 36.4053 155.138 36.0427 155.138 35.552V35.04C155.138 34.528 155.277 34.1653 155.554 33.952C155.853 33.7387 156.301 33.632 156.898 33.632C157.495 33.632 157.922 33.7493 158.178 33.984C158.455 34.1973 158.594 34.5493 158.594 35.04V35.552C158.594 36.064 158.455 36.4267 158.178 36.64C157.901 36.8533 157.463 36.96 156.866 36.96ZM167.316 42.208V51.744C167.316 52.8107 167.796 53.344 168.756 53.344C168.905 53.344 169.108 53.312 169.364 53.248C169.62 53.1627 169.823 53.12 169.972 53.12C170.249 53.12 170.484 53.2373 170.676 53.472C170.868 53.7067 170.964 54.0053 170.964 54.368C170.964 54.816 170.708 55.2 170.196 55.52C169.684 55.84 169.108 56 168.468 56C167.764 56 167.113 55.9253 166.516 55.776C165.94 55.6267 165.417 55.2533 164.948 54.656C164.5 54.0373 164.276 53.1093 164.276 51.872V42.208H162.42C162.015 42.208 161.673 42.08 161.396 41.824C161.14 41.5467 161.012 41.2053 161.012 40.8C161.012 40.3947 161.14 40.064 161.396 39.808C161.673 39.552 162.015 39.424 162.42 39.424H164.276V36.736C164.276 36.3093 164.415 35.9467 164.692 35.648C164.991 35.3493 165.364 35.2 165.812 35.2C166.239 35.2 166.591 35.3493 166.868 35.648C167.167 35.9467 167.316 36.3093 167.316 36.736V39.424H169.972C170.377 39.424 170.708 39.5627 170.964 39.84C171.241 40.096 171.38 40.4267 171.38 40.832C171.38 41.2373 171.241 41.568 170.964 41.824C170.708 42.08 170.377 42.208 169.972 42.208H167.316ZM177.808 54.464C177.808 54.8907 177.659 55.2533 177.36 55.552C177.083 55.8507 176.72 56 176.272 56C175.846 56 175.483 55.8507 175.184 55.552C174.907 55.2533 174.768 54.8907 174.768 54.464V40.608C174.768 40.1813 174.907 39.8187 175.184 39.52C175.483 39.2213 175.846 39.072 176.272 39.072C176.72 39.072 177.083 39.2213 177.36 39.52C177.659 39.8187 177.808 40.1813 177.808 40.608V54.464ZM176.272 36.96C175.654 36.96 175.206 36.8533 174.928 36.64C174.672 36.4053 174.544 36.0427 174.544 35.552V35.04C174.544 34.528 174.683 34.1653 174.96 33.952C175.259 33.7387 175.707 33.632 176.304 33.632C176.902 33.632 177.328 33.7493 177.584 33.984C177.862 34.1973 178 34.5493 178 35.04V35.552C178 36.064 177.862 36.4267 177.584 36.64C177.307 36.8533 176.87 36.96 176.272 36.96ZM194.978 39.072C195.384 39.072 195.725 39.2107 196.002 39.488C196.28 39.744 196.418 40.0533 196.418 40.416C196.418 40.608 196.344 40.8747 196.194 41.216L190.114 55.04C189.986 55.3173 189.805 55.5413 189.57 55.712C189.336 55.8827 189.08 55.9787 188.802 56C188.461 56.0427 188.141 55.9787 187.842 55.808C187.565 55.6373 187.352 55.3813 187.202 55.04L181.122 41.216C181.016 40.896 180.962 40.6293 180.962 40.416C180.962 40.0747 181.101 39.7653 181.378 39.488C181.656 39.2107 182.018 39.072 182.466 39.072C182.786 39.072 183.074 39.1573 183.33 39.328C183.586 39.4773 183.789 39.712 183.938 40.032L188.77 51.264L193.602 40.032C193.901 39.392 194.36 39.072 194.978 39.072ZM214.273 46.976C214.252 47.36 214.092 47.6907 213.793 47.968C213.495 48.224 213.143 48.352 212.737 48.352H201.473C201.623 49.9093 202.209 51.1573 203.233 52.096C204.279 53.0347 205.548 53.504 207.041 53.504C208.065 53.504 208.897 53.3547 209.537 53.056C210.177 52.7573 210.743 52.3733 211.233 51.904C211.553 51.712 211.863 51.616 212.161 51.616C212.524 51.616 212.823 51.744 213.057 52C213.313 52.256 213.441 52.5547 213.441 52.896C213.441 53.344 213.228 53.7493 212.801 54.112C212.183 54.7307 211.361 55.2533 210.337 55.68C209.313 56.1067 208.268 56.32 207.201 56.32C205.473 56.32 203.948 55.9573 202.625 55.232C201.324 54.5067 200.311 53.4933 199.585 52.192C198.881 50.8907 198.529 49.4187 198.529 47.776C198.529 45.984 198.892 44.416 199.617 43.072C200.364 41.7067 201.335 40.6613 202.529 39.936C203.745 39.2107 205.047 38.848 206.433 38.848C207.799 38.848 209.079 39.2 210.273 39.904C211.468 40.608 212.428 41.5787 213.153 42.816C213.879 44.0533 214.252 45.44 214.273 46.976ZM206.433 41.664C205.239 41.664 204.204 42.0053 203.329 42.688C202.455 43.3493 201.879 44.384 201.601 45.792H211.041V45.536C210.935 44.4053 210.423 43.4773 209.505 42.752C208.609 42.0267 207.585 41.664 206.433 41.664ZM45.616 73.6C46.7467 73.6 47.792 73.9093 48.752 74.528C49.712 75.1253 50.4693 75.9467 51.024 76.992C51.6 78.0373 51.888 79.1893 51.888 80.448C51.888 81.7067 51.6 82.8693 51.024 83.936C50.4693 85.0027 49.712 85.8453 48.752 86.464C47.792 87.0827 46.7467 87.392 45.616 87.392H39.6V94.464C39.6 94.8907 39.4613 95.2533 39.184 95.552C38.9067 95.8507 38.5547 96 38.128 96C37.68 96 37.3173 95.8613 37.04 95.584C36.784 95.2853 36.656 94.912 36.656 94.464V75.136C36.656 74.7093 36.8053 74.3467 37.104 74.048C37.4027 73.7493 37.7653 73.6 38.192 73.6H45.616ZM45.616 84.48C46.192 84.48 46.7253 84.2987 47.216 83.936C47.7067 83.552 48.0907 83.0507 48.368 82.432C48.6667 81.8133 48.816 81.152 48.816 80.448C48.816 79.36 48.496 78.4427 47.856 77.696C47.2373 76.928 46.4907 76.544 45.616 76.544H39.6V84.48H45.616ZM63.8115 78.848C64.3662 78.848 64.8462 78.9973 65.2515 79.296C65.6568 79.5733 65.8595 79.9253 65.8595 80.352C65.8595 80.864 65.7208 81.2587 65.4435 81.536C65.1875 81.792 64.8675 81.92 64.4835 81.92C64.2915 81.92 64.0035 81.856 63.6195 81.728C63.1715 81.5787 62.8195 81.504 62.5635 81.504C61.9022 81.504 61.2515 81.7387 60.6115 82.208C59.9928 82.656 59.4808 83.2853 59.0755 84.096C58.6915 84.8853 58.4995 85.7707 58.4995 86.752V94.464C58.4995 94.8907 58.3502 95.2533 58.0515 95.552C57.7742 95.8507 57.4115 96 56.9635 96C56.5155 96 56.1528 95.8613 55.8755 95.584C55.5982 95.2853 55.4595 94.912 55.4595 94.464V80.768C55.4595 80.3413 55.5982 79.9787 55.8755 79.68C56.1742 79.3813 56.5368 79.232 56.9635 79.232C57.4115 79.232 57.7742 79.3813 58.0515 79.68C58.3502 79.9787 58.4995 80.3413 58.4995 80.768V82.4C58.9688 81.3547 59.6728 80.512 60.6115 79.872C61.5502 79.2107 62.6168 78.8693 63.8115 78.848ZM83.8315 87.616C83.8315 89.28 83.4582 90.7733 82.7115 92.096C81.9648 93.4187 80.9408 94.4533 79.6395 95.2C78.3595 95.9467 76.9408 96.32 75.3835 96.32C73.8262 96.32 72.3968 95.9467 71.0955 95.2C69.8155 94.4533 68.8022 93.4187 68.0555 92.096C67.3088 90.7733 66.9355 89.28 66.9355 87.616C66.9355 85.952 67.3088 84.448 68.0555 83.104C68.8022 81.76 69.8155 80.7147 71.0955 79.968C72.3968 79.2213 73.8262 78.848 75.3835 78.848C76.9408 78.848 78.3595 79.2213 79.6395 79.968C80.9408 80.7147 81.9648 81.76 82.7115 83.104C83.4582 84.448 83.8315 85.952 83.8315 87.616ZM80.7915 87.616C80.7915 86.464 80.5462 85.44 80.0555 84.544C79.5862 83.6267 78.9355 82.9227 78.1035 82.432C77.2928 81.92 76.3862 81.664 75.3835 81.664C74.3808 81.664 73.4635 81.92 72.6315 82.432C71.8208 82.9227 71.1702 83.6267 70.6795 84.544C70.2102 85.44 69.9755 86.464 69.9755 87.616C69.9755 88.7467 70.2102 89.76 70.6795 90.656C71.1702 91.552 71.8208 92.256 72.6315 92.768C73.4635 93.2587 74.3808 93.504 75.3835 93.504C76.3862 93.504 77.2928 93.2587 78.1035 92.768C78.9355 92.256 79.5862 91.552 80.0555 90.656C80.5462 89.76 80.7915 88.7467 80.7915 87.616ZM101.382 79.008C101.83 79.008 102.192 79.1573 102.47 79.456C102.768 79.7333 102.918 80.1067 102.918 80.576V94.656C102.918 96.384 102.544 97.824 101.798 98.976C101.072 100.149 100.08 101.013 98.8218 101.568C97.5631 102.123 96.1444 102.4 94.5658 102.4C93.7124 102.4 92.7098 102.251 91.5578 101.952C90.4271 101.653 89.7018 101.344 89.3818 101.024C88.7204 100.683 88.3898 100.256 88.3898 99.744C88.3898 99.616 88.4324 99.4453 88.5178 99.232C88.7524 98.6987 89.1471 98.432 89.7018 98.432C89.9791 98.432 90.2778 98.496 90.5978 98.624C92.3044 99.2853 93.6378 99.616 94.5978 99.616C96.3044 99.616 97.6058 99.2 98.5018 98.368C99.4191 97.5573 99.8778 96.4373 99.8778 95.008V93.28C99.4298 94.112 98.6724 94.8267 97.6058 95.424C96.5604 96.0213 95.4511 96.32 94.2778 96.32C92.8058 96.32 91.4618 95.9467 90.2458 95.2C89.0298 94.4533 88.0698 93.4187 87.3658 92.096C86.6831 90.752 86.3418 89.248 86.3418 87.584C86.3418 85.92 86.6831 84.4267 87.3658 83.104C88.0698 81.76 89.0191 80.7147 90.2138 79.968C91.4298 79.2213 92.7631 78.848 94.2138 78.848C95.3871 78.848 96.4751 79.1147 97.4778 79.648C98.5018 80.1813 99.3018 80.832 99.8778 81.6V80.576C99.8778 80.128 100.016 79.7547 100.294 79.456C100.571 79.1573 100.934 79.008 101.382 79.008ZM94.6298 93.504C95.6751 93.504 96.6031 93.2587 97.4138 92.768C98.2244 92.256 98.8538 91.552 99.3018 90.656C99.7711 89.7387 100.006 88.7147 100.006 87.584C100.006 86.4533 99.7711 85.44 99.3018 84.544C98.8538 83.648 98.2244 82.944 97.4138 82.432C96.6031 81.92 95.6751 81.664 94.6298 81.664C93.6058 81.664 92.6884 81.92 91.8778 82.432C91.0671 82.944 90.4271 83.6587 89.9578 84.576C89.5098 85.472 89.2858 86.4747 89.2858 87.584C89.2858 88.6933 89.5098 89.7067 89.9578 90.624C90.4271 91.52 91.0671 92.224 91.8778 92.736C92.6884 93.248 93.6058 93.504 94.6298 93.504ZM115.78 78.848C116.335 78.848 116.815 78.9973 117.22 79.296C117.626 79.5733 117.828 79.9253 117.828 80.352C117.828 80.864 117.69 81.2587 117.412 81.536C117.156 81.792 116.836 81.92 116.452 81.92C116.26 81.92 115.972 81.856 115.588 81.728C115.14 81.5787 114.788 81.504 114.532 81.504C113.871 81.504 113.22 81.7387 112.58 82.208C111.962 82.656 111.45 83.2853 111.044 84.096C110.66 84.8853 110.468 85.7707 110.468 86.752V94.464C110.468 94.8907 110.319 95.2533 110.02 95.552C109.743 95.8507 109.38 96 108.932 96C108.484 96 108.122 95.8613 107.844 95.584C107.567 95.2853 107.428 94.912 107.428 94.464V80.768C107.428 80.3413 107.567 79.9787 107.844 79.68C108.143 79.3813 108.506 79.232 108.932 79.232C109.38 79.232 109.743 79.3813 110.02 79.68C110.319 79.9787 110.468 80.3413 110.468 80.768V82.4C110.938 81.3547 111.642 80.512 112.58 79.872C113.519 79.2107 114.586 78.8693 115.78 78.848ZM133.872 79.008C134.32 79.008 134.683 79.1573 134.96 79.456C135.259 79.7333 135.408 80.1067 135.408 80.576V94.464C135.408 94.8907 135.259 95.2533 134.96 95.552C134.683 95.8507 134.32 96 133.872 96C133.424 96 133.061 95.8613 132.784 95.584C132.507 95.2853 132.368 94.912 132.368 94.464V93.632C131.813 94.3787 131.056 95.0187 130.096 95.552C129.136 96.064 128.101 96.32 126.992 96.32C125.541 96.32 124.219 95.9467 123.024 95.2C121.851 94.4533 120.923 93.4187 120.24 92.096C119.579 90.752 119.248 89.248 119.248 87.584C119.248 85.92 119.579 84.4267 120.24 83.104C120.923 81.76 121.851 80.7147 123.024 79.968C124.197 79.2213 125.488 78.848 126.896 78.848C128.027 78.848 129.072 79.0827 130.032 79.552C131.013 80.0213 131.792 80.6187 132.368 81.344V80.576C132.368 80.128 132.507 79.7547 132.784 79.456C133.061 79.1573 133.424 79.008 133.872 79.008ZM127.344 93.504C128.347 93.504 129.232 93.248 130 92.736C130.789 92.224 131.397 91.52 131.824 90.624C132.272 89.728 132.496 88.7147 132.496 87.584C132.496 86.4747 132.272 85.472 131.824 84.576C131.397 83.68 130.789 82.976 130 82.464C129.232 81.9307 128.347 81.664 127.344 81.664C126.341 81.664 125.445 81.92 124.656 82.432C123.888 82.944 123.28 83.648 122.832 84.544C122.405 85.44 122.192 86.4533 122.192 87.584C122.192 88.7147 122.405 89.728 122.832 90.624C123.28 91.52 123.888 92.224 124.656 92.736C125.445 93.248 126.341 93.504 127.344 93.504ZM159.16 78.944C162.894 78.944 164.76 81.2693 164.76 85.92V94.464C164.76 94.912 164.622 95.2853 164.344 95.584C164.067 95.8613 163.704 96 163.256 96C162.808 96 162.435 95.8507 162.136 95.552C161.859 95.2533 161.72 94.8907 161.72 94.464V85.952C161.72 83.1573 160.547 81.76 158.2 81.76C157.368 81.76 156.611 81.952 155.928 82.336C155.267 82.6987 154.744 83.2 154.36 83.84C153.998 84.48 153.816 85.184 153.816 85.952V94.464C153.816 94.8907 153.667 95.2533 153.368 95.552C153.091 95.8507 152.728 96 152.28 96C151.832 96 151.47 95.8613 151.192 95.584C150.915 95.2853 150.776 94.912 150.776 94.464V85.92C150.776 84.6613 150.51 83.6587 149.976 82.912C149.443 82.144 148.558 81.76 147.32 81.76C146.062 81.76 145.016 82.1653 144.184 82.976C143.374 83.7653 142.968 84.7467 142.968 85.92V94.464C142.968 94.8907 142.819 95.2533 142.52 95.552C142.243 95.8507 141.88 96 141.432 96C140.984 96 140.622 95.8613 140.344 95.584C140.067 95.2853 139.928 94.912 139.928 94.464V80.768C139.928 80.3413 140.067 79.9787 140.344 79.68C140.643 79.3813 141.006 79.232 141.432 79.232C141.88 79.232 142.243 79.3813 142.52 79.68C142.819 79.9787 142.968 80.3413 142.968 80.768V81.888C143.523 81.056 144.259 80.3627 145.176 79.808C146.115 79.232 147.128 78.944 148.216 78.944C150.862 78.944 152.579 80.1173 153.368 82.464C153.838 81.568 154.616 80.7573 155.704 80.032C156.792 79.3067 157.944 78.944 159.16 78.944ZM188.535 78.944C192.269 78.944 194.135 81.2693 194.135 85.92V94.464C194.135 94.912 193.997 95.2853 193.719 95.584C193.442 95.8613 193.079 96 192.631 96C192.183 96 191.81 95.8507 191.511 95.552C191.234 95.2533 191.095 94.8907 191.095 94.464V85.952C191.095 83.1573 189.922 81.76 187.575 81.76C186.743 81.76 185.986 81.952 185.303 82.336C184.642 82.6987 184.119 83.2 183.735 83.84C183.373 84.48 183.191 85.184 183.191 85.952V94.464C183.191 94.8907 183.042 95.2533 182.743 95.552C182.466 95.8507 182.103 96 181.655 96C181.207 96 180.845 95.8613 180.567 95.584C180.29 95.2853 180.151 94.912 180.151 94.464V85.92C180.151 84.6613 179.885 83.6587 179.351 82.912C178.818 82.144 177.933 81.76 176.695 81.76C175.437 81.76 174.391 82.1653 173.559 82.976C172.749 83.7653 172.343 84.7467 172.343 85.92V94.464C172.343 94.8907 172.194 95.2533 171.895 95.552C171.618 95.8507 171.255 96 170.807 96C170.359 96 169.997 95.8613 169.719 95.584C169.442 95.2853 169.303 94.912 169.303 94.464V80.768C169.303 80.3413 169.442 79.9787 169.719 79.68C170.018 79.3813 170.381 79.232 170.807 79.232C171.255 79.232 171.618 79.3813 171.895 79.68C172.194 79.9787 172.343 80.3413 172.343 80.768V81.888C172.898 81.056 173.634 80.3627 174.551 79.808C175.49 79.232 176.503 78.944 177.591 78.944C180.237 78.944 181.954 80.1173 182.743 82.464C183.213 81.568 183.991 80.7573 185.079 80.032C186.167 79.3067 187.319 78.944 188.535 78.944ZM201.558 94.464C201.558 94.8907 201.409 95.2533 201.11 95.552C200.833 95.8507 200.47 96 200.022 96C199.596 96 199.233 95.8507 198.934 95.552C198.657 95.2533 198.518 94.8907 198.518 94.464V80.608C198.518 80.1813 198.657 79.8187 198.934 79.52C199.233 79.2213 199.596 79.072 200.022 79.072C200.47 79.072 200.833 79.2213 201.11 79.52C201.409 79.8187 201.558 80.1813 201.558 80.608V94.464ZM200.022 76.96C199.404 76.96 198.956 76.8533 198.678 76.64C198.422 76.4053 198.294 76.0427 198.294 75.552V75.04C198.294 74.528 198.433 74.1653 198.71 73.952C199.009 73.7387 199.457 73.632 200.054 73.632C200.652 73.632 201.078 73.7493 201.334 73.984C201.612 74.1973 201.75 74.5493 201.75 75.04V75.552C201.75 76.064 201.612 76.4267 201.334 76.64C201.057 76.8533 200.62 76.96 200.022 76.96ZM214.472 78.848C218.312 78.848 220.232 81.152 220.232 85.76V94.464C220.232 94.8907 220.083 95.2533 219.784 95.552C219.507 95.8507 219.144 96 218.696 96C218.27 96 217.907 95.8507 217.608 95.552C217.331 95.2533 217.192 94.8907 217.192 94.464V85.792C217.192 84.5333 216.904 83.5307 216.328 82.784C215.752 82.0373 214.814 81.664 213.512 81.664C212.659 81.664 211.88 81.856 211.176 82.24C210.494 82.6027 209.95 83.104 209.544 83.744C209.16 84.3627 208.968 85.0453 208.968 85.792V94.464C208.968 94.8907 208.819 95.2533 208.52 95.552C208.243 95.8507 207.88 96 207.432 96C206.984 96 206.622 95.8613 206.344 95.584C206.067 95.2853 205.928 94.912 205.928 94.464V80.768C205.928 80.3413 206.067 79.9787 206.344 79.68C206.643 79.3813 207.006 79.232 207.432 79.232C207.88 79.232 208.243 79.3813 208.52 79.68C208.819 79.9787 208.968 80.3413 208.968 80.768V81.888C209.523 81.0347 210.291 80.32 211.272 79.744C212.275 79.1467 213.342 78.848 214.472 78.848ZM238.788 79.008C239.236 79.008 239.599 79.1573 239.876 79.456C240.175 79.7333 240.324 80.1067 240.324 80.576V94.656C240.324 96.384 239.951 97.824 239.204 98.976C238.479 100.149 237.487 101.013 236.228 101.568C234.969 102.123 233.551 102.4 231.972 102.4C231.119 102.4 230.116 102.251 228.964 101.952C227.833 101.653 227.108 101.344 226.788 101.024C226.127 100.683 225.796 100.256 225.796 99.744C225.796 99.616 225.839 99.4453 225.924 99.232C226.159 98.6987 226.553 98.432 227.108 98.432C227.385 98.432 227.684 98.496 228.004 98.624C229.711 99.2853 231.044 99.616 232.004 99.616C233.711 99.616 235.012 99.2 235.908 98.368C236.825 97.5573 237.284 96.4373 237.284 95.008V93.28C236.836 94.112 236.079 94.8267 235.012 95.424C233.967 96.0213 232.857 96.32 231.684 96.32C230.212 96.32 228.868 95.9467 227.652 95.2C226.436 94.4533 225.476 93.4187 224.772 92.096C224.089 90.752 223.748 89.248 223.748 87.584C223.748 85.92 224.089 84.4267 224.772 83.104C225.476 81.76 226.425 80.7147 227.62 79.968C228.836 79.2213 230.169 78.848 231.62 78.848C232.793 78.848 233.881 79.1147 234.884 79.648C235.908 80.1813 236.708 80.832 237.284 81.6V80.576C237.284 80.128 237.423 79.7547 237.7 79.456C237.977 79.1573 238.34 79.008 238.788 79.008ZM232.036 93.504C233.081 93.504 234.009 93.2587 234.82 92.768C235.631 92.256 236.26 91.552 236.708 90.656C237.177 89.7387 237.412 88.7147 237.412 87.584C237.412 86.4533 237.177 85.44 236.708 84.544C236.26 83.648 235.631 82.944 234.82 82.432C234.009 81.92 233.081 81.664 232.036 81.664C231.012 81.664 230.095 81.92 229.284 82.432C228.473 82.944 227.833 83.6587 227.364 84.576C226.916 85.472 226.692 86.4747 226.692 87.584C226.692 88.6933 226.916 89.7067 227.364 90.624C227.833 91.52 228.473 92.224 229.284 92.736C230.095 93.248 231.012 93.504 232.036 93.504Z" fill="white"/>
<path d="M38.356 119.6C38.78 119.6 39.172 119.716 39.532 119.948C39.892 120.172 40.176 120.48 40.384 120.872C40.6 121.264 40.708 121.696 40.708 122.168C40.708 122.64 40.6 123.076 40.384 123.476C40.176 123.876 39.892 124.192 39.532 124.424C39.172 124.656 38.78 124.772 38.356 124.772H36.1V127.424C36.1 127.584 36.048 127.72 35.944 127.832C35.84 127.944 35.708 128 35.548 128C35.38 128 35.244 127.948 35.14 127.844C35.044 127.732 34.996 127.592 34.996 127.424V120.176C34.996 120.016 35.052 119.88 35.164 119.768C35.276 119.656 35.412 119.6 35.572 119.6H38.356ZM38.356 123.68C38.572 123.68 38.772 123.612 38.956 123.476C39.14 123.332 39.284 123.144 39.388 122.912C39.5 122.68 39.556 122.432 39.556 122.168C39.556 121.76 39.436 121.416 39.196 121.136C38.964 120.848 38.684 120.704 38.356 120.704H36.1V123.68H38.356ZM47.4501 124.616C47.4421 124.76 47.3821 124.884 47.2701 124.988C47.1581 125.084 47.0261 125.132 46.8741 125.132H42.6501C42.7061 125.716 42.9261 126.184 43.3101 126.536C43.7021 126.888 44.1781 127.064 44.7381 127.064C45.1221 127.064 45.4341 127.008 45.6741 126.896C45.9141 126.784 46.1261 126.64 46.3101 126.464C46.4301 126.392 46.5461 126.356 46.6581 126.356C46.7941 126.356 46.9061 126.404 46.9941 126.5C47.0901 126.596 47.1381 126.708 47.1381 126.836C47.1381 127.004 47.0581 127.156 46.8981 127.292C46.6661 127.524 46.3581 127.72 45.9741 127.88C45.5901 128.04 45.1981 128.12 44.7981 128.12C44.1501 128.12 43.5781 127.984 43.0821 127.712C42.5941 127.44 42.2141 127.06 41.9421 126.572C41.6781 126.084 41.5461 125.532 41.5461 124.916C41.5461 124.244 41.6821 123.656 41.9541 123.152C42.2341 122.64 42.5981 122.248 43.0461 121.976C43.5021 121.704 43.9901 121.568 44.5101 121.568C45.0221 121.568 45.5021 121.7 45.9501 121.964C46.3981 122.228 46.7581 122.592 47.0301 123.056C47.3021 123.52 47.4421 124.04 47.4501 124.616ZM44.5101 122.624C44.0621 122.624 43.6741 122.752 43.3461 123.008C43.0181 123.256 42.8021 123.644 42.6981 124.172H46.2381V124.076C46.1981 123.652 46.0061 123.304 45.6621 123.032C45.3261 122.76 44.9421 122.624 44.5101 122.624ZM50.0099 127.424C50.0099 127.584 49.9539 127.72 49.8419 127.832C49.7299 127.944 49.5939 128 49.4339 128C49.2739 128 49.1379 127.944 49.0259 127.832C48.9219 127.72 48.8699 127.584 48.8699 127.424V119.696C48.8699 119.536 48.9259 119.4 49.0379 119.288C49.1499 119.176 49.2859 119.12 49.4459 119.12C49.6059 119.12 49.7379 119.176 49.8419 119.288C49.9539 119.4 50.0099 119.536 50.0099 119.696V127.424ZM56.909 121.628C57.077 121.628 57.213 121.684 57.317 121.796C57.429 121.9 57.485 122.04 57.485 122.216V127.424C57.485 127.584 57.429 127.72 57.317 127.832C57.213 127.944 57.077 128 56.909 128C56.741 128 56.605 127.948 56.501 127.844C56.397 127.732 56.345 127.592 56.345 127.424V127.112C56.137 127.392 55.853 127.632 55.493 127.832C55.133 128.024 54.745 128.12 54.329 128.12C53.785 128.12 53.289 127.98 52.841 127.7C52.401 127.42 52.053 127.032 51.797 126.536C51.549 126.032 51.425 125.468 51.425 124.844C51.425 124.22 51.549 123.66 51.797 123.164C52.053 122.66 52.401 122.268 52.841 121.988C53.281 121.708 53.765 121.568 54.293 121.568C54.717 121.568 55.109 121.656 55.469 121.832C55.837 122.008 56.129 122.232 56.345 122.504V122.216C56.345 122.048 56.397 121.908 56.501 121.796C56.605 121.684 56.741 121.628 56.909 121.628ZM54.461 127.064C54.837 127.064 55.169 126.968 55.457 126.776C55.753 126.584 55.981 126.32 56.141 125.984C56.309 125.648 56.393 125.268 56.393 124.844C56.393 124.428 56.309 124.052 56.141 123.716C55.981 123.38 55.753 123.116 55.457 122.924C55.169 122.724 54.837 122.624 54.461 122.624C54.085 122.624 53.749 122.72 53.453 122.912C53.165 123.104 52.937 123.368 52.769 123.704C52.609 124.04 52.529 124.42 52.529 124.844C52.529 125.268 52.609 125.648 52.769 125.984C52.937 126.32 53.165 126.584 53.453 126.776C53.749 126.968 54.085 127.064 54.461 127.064ZM58.6161 130.364C58.4641 130.364 58.3401 130.312 58.2441 130.208C58.1401 130.104 58.0881 129.98 58.0881 129.836V129.728C58.0881 129.464 58.2521 129.292 58.5801 129.212C59.0921 129.068 59.3481 128.668 59.3481 128.012V122.288C59.3481 122.128 59.4001 121.992 59.5041 121.88C59.6161 121.768 59.7561 121.712 59.9241 121.712C60.0841 121.712 60.2161 121.768 60.3201 121.88C60.4321 121.992 60.4881 122.128 60.4881 122.288V128.3C60.4881 128.716 60.4001 129.08 60.2241 129.392C60.0561 129.704 59.8281 129.944 59.5401 130.112C59.2521 130.28 58.9441 130.364 58.6161 130.364ZM59.9121 120.86C59.6801 120.86 59.5121 120.82 59.4081 120.74C59.3121 120.652 59.2641 120.516 59.2641 120.332V120.14C59.2641 119.948 59.3161 119.812 59.4201 119.732C59.5321 119.652 59.7001 119.612 59.9241 119.612C60.1481 119.612 60.3081 119.656 60.4041 119.744C60.5081 119.824 60.5601 119.956 60.5601 120.14V120.332C60.5601 120.524 60.5081 120.66 60.4041 120.74C60.3001 120.82 60.1361 120.86 59.9121 120.86ZM67.5614 121.628C67.7294 121.628 67.8654 121.684 67.9694 121.796C68.0814 121.9 68.1374 122.04 68.1374 122.216V127.424C68.1374 127.584 68.0814 127.72 67.9694 127.832C67.8654 127.944 67.7294 128 67.5614 128C67.3934 128 67.2574 127.948 67.1534 127.844C67.0494 127.732 66.9974 127.592 66.9974 127.424V127.112C66.7894 127.392 66.5054 127.632 66.1454 127.832C65.7854 128.024 65.3974 128.12 64.9814 128.12C64.4374 128.12 63.9414 127.98 63.4934 127.7C63.0534 127.42 62.7054 127.032 62.4494 126.536C62.2014 126.032 62.0774 125.468 62.0774 124.844C62.0774 124.22 62.2014 123.66 62.4494 123.164C62.7054 122.66 63.0534 122.268 63.4934 121.988C63.9334 121.708 64.4174 121.568 64.9454 121.568C65.3694 121.568 65.7614 121.656 66.1214 121.832C66.4894 122.008 66.7814 122.232 66.9974 122.504V122.216C66.9974 122.048 67.0494 121.908 67.1534 121.796C67.2574 121.684 67.3934 121.628 67.5614 121.628ZM65.1134 127.064C65.4894 127.064 65.8214 126.968 66.1094 126.776C66.4054 126.584 66.6334 126.32 66.7934 125.984C66.9614 125.648 67.0454 125.268 67.0454 124.844C67.0454 124.428 66.9614 124.052 66.7934 123.716C66.6334 123.38 66.4054 123.116 66.1094 122.924C65.8214 122.724 65.4894 122.624 65.1134 122.624C64.7374 122.624 64.4014 122.72 64.1054 122.912C63.8174 123.104 63.5894 123.368 63.4214 123.704C63.2614 124.04 63.1814 124.42 63.1814 124.844C63.1814 125.268 63.2614 125.648 63.4214 125.984C63.5894 126.32 63.8174 126.584 64.1054 126.776C64.4014 126.968 64.7374 127.064 65.1134 127.064ZM72.9645 121.568C73.1725 121.568 73.3525 121.624 73.5045 121.736C73.6565 121.84 73.7325 121.972 73.7325 122.132C73.7325 122.324 73.6805 122.472 73.5765 122.576C73.4805 122.672 73.3605 122.72 73.2165 122.72C73.1445 122.72 73.0365 122.696 72.8925 122.648C72.7245 122.592 72.5925 122.564 72.4965 122.564C72.2485 122.564 72.0045 122.652 71.7645 122.828C71.5325 122.996 71.3405 123.232 71.1885 123.536C71.0445 123.832 70.9725 124.164 70.9725 124.532V127.424C70.9725 127.584 70.9165 127.72 70.8045 127.832C70.7005 127.944 70.5645 128 70.3965 128C70.2285 128 70.0925 127.948 69.9885 127.844C69.8845 127.732 69.8325 127.592 69.8325 127.424V122.288C69.8325 122.128 69.8845 121.992 69.9885 121.88C70.1005 121.768 70.2365 121.712 70.3965 121.712C70.5645 121.712 70.7005 121.768 70.8045 121.88C70.9165 121.992 70.9725 122.128 70.9725 122.288V122.9C71.1485 122.508 71.4125 122.192 71.7645 121.952C72.1165 121.704 72.5165 121.576 72.9645 121.568ZM75.8695 127.424C75.8695 127.584 75.8135 127.72 75.7015 127.832C75.5975 127.944 75.4615 128 75.2935 128C75.1335 128 74.9975 127.944 74.8855 127.832C74.7815 127.72 74.7295 127.584 74.7295 127.424V122.228C74.7295 122.068 74.7815 121.932 74.8855 121.82C74.9975 121.708 75.1335 121.652 75.2935 121.652C75.4615 121.652 75.5975 121.708 75.7015 121.82C75.8135 121.932 75.8695 122.068 75.8695 122.228V127.424ZM75.2935 120.86C75.0615 120.86 74.8935 120.82 74.7895 120.74C74.6935 120.652 74.6455 120.516 74.6455 120.332V120.14C74.6455 119.948 74.6975 119.812 74.8015 119.732C74.9135 119.652 75.0815 119.612 75.3055 119.612C75.5295 119.612 75.6895 119.656 75.7855 119.744C75.8895 119.824 75.9415 119.956 75.9415 120.14V120.332C75.9415 120.524 75.8895 120.66 75.7855 120.74C75.6815 120.82 75.5175 120.86 75.2935 120.86ZM85.9364 121.628C86.1044 121.628 86.2404 121.684 86.3444 121.796C86.4564 121.9 86.5124 122.04 86.5124 122.216V127.424C86.5124 127.584 86.4564 127.72 86.3444 127.832C86.2404 127.944 86.1044 128 85.9364 128C85.7684 128 85.6324 127.948 85.5284 127.844C85.4244 127.732 85.3724 127.592 85.3724 127.424V127.112C85.1644 127.392 84.8804 127.632 84.5204 127.832C84.1604 128.024 83.7724 128.12 83.3564 128.12C82.8124 128.12 82.3164 127.98 81.8684 127.7C81.4284 127.42 81.0804 127.032 80.8244 126.536C80.5764 126.032 80.4524 125.468 80.4524 124.844C80.4524 124.22 80.5764 123.66 80.8244 123.164C81.0804 122.66 81.4284 122.268 81.8684 121.988C82.3084 121.708 82.7924 121.568 83.3204 121.568C83.7444 121.568 84.1364 121.656 84.4964 121.832C84.8644 122.008 85.1564 122.232 85.3724 122.504V122.216C85.3724 122.048 85.4244 121.908 85.5284 121.796C85.6324 121.684 85.7684 121.628 85.9364 121.628ZM83.4884 127.064C83.8644 127.064 84.1964 126.968 84.4844 126.776C84.7804 126.584 85.0084 126.32 85.1684 125.984C85.3364 125.648 85.4204 125.268 85.4204 124.844C85.4204 124.428 85.3364 124.052 85.1684 123.716C85.0084 123.38 84.7804 123.116 84.4844 122.924C84.1964 122.724 83.8644 122.624 83.4884 122.624C83.1124 122.624 82.7764 122.72 82.4804 122.912C82.1924 123.104 81.9644 123.368 81.7964 123.704C81.6364 124.04 81.5564 124.42 81.5564 124.844C81.5564 125.268 81.6364 125.648 81.7964 125.984C81.9644 126.32 82.1924 126.584 82.4804 126.776C82.7764 126.968 83.1124 127.064 83.4884 127.064ZM89.4435 127.424C89.4435 127.584 89.3875 127.72 89.2755 127.832C89.1635 127.944 89.0275 128 88.8675 128C88.7075 128 88.5715 127.944 88.4595 127.832C88.3555 127.72 88.3035 127.584 88.3035 127.424V119.696C88.3035 119.536 88.3595 119.4 88.4715 119.288C88.5835 119.176 88.7195 119.12 88.8795 119.12C89.0395 119.12 89.1715 119.176 89.2755 119.288C89.3875 119.4 89.4435 119.536 89.4435 119.696V127.424ZM96.3814 121.628C96.5494 121.628 96.6854 121.684 96.7894 121.796C96.9014 121.9 96.9574 122.04 96.9574 122.216V127.496C96.9574 128.144 96.8174 128.684 96.5374 129.116C96.2654 129.556 95.8934 129.88 95.4214 130.088C94.9494 130.296 94.4174 130.4 93.8254 130.4C93.5054 130.4 93.1294 130.344 92.6974 130.232C92.2734 130.12 92.0014 130.004 91.8814 129.884C91.6334 129.756 91.5094 129.596 91.5094 129.404C91.5094 129.356 91.5254 129.292 91.5574 129.212C91.6454 129.012 91.7934 128.912 92.0014 128.912C92.1054 128.912 92.2174 128.936 92.3374 128.984C92.9774 129.232 93.4774 129.356 93.8374 129.356C94.4774 129.356 94.9654 129.2 95.3014 128.888C95.6454 128.584 95.8174 128.164 95.8174 127.628V126.98C95.6494 127.292 95.3654 127.56 94.9654 127.784C94.5734 128.008 94.1574 128.12 93.7174 128.12C93.1654 128.12 92.6614 127.98 92.2054 127.7C91.7494 127.42 91.3894 127.032 91.1254 126.536C90.8694 126.032 90.7414 125.468 90.7414 124.844C90.7414 124.22 90.8694 123.66 91.1254 123.164C91.3894 122.66 91.7454 122.268 92.1934 121.988C92.6494 121.708 93.1494 121.568 93.6934 121.568C94.1334 121.568 94.5414 121.668 94.9174 121.868C95.3014 122.068 95.6014 122.312 95.8174 122.6V122.216C95.8174 122.048 95.8694 121.908 95.9734 121.796C96.0774 121.684 96.2134 121.628 96.3814 121.628ZM93.8494 127.064C94.2414 127.064 94.5894 126.972 94.8934 126.788C95.1974 126.596 95.4334 126.332 95.6014 125.996C95.7774 125.652 95.8654 125.268 95.8654 124.844C95.8654 124.42 95.7774 124.04 95.6014 123.704C95.4334 123.368 95.1974 123.104 94.8934 122.912C94.5894 122.72 94.2414 122.624 93.8494 122.624C93.4654 122.624 93.1214 122.72 92.8174 122.912C92.5134 123.104 92.2734 123.372 92.0974 123.716C91.9294 124.052 91.8454 124.428 91.8454 124.844C91.8454 125.26 91.9294 125.64 92.0974 125.984C92.2734 126.32 92.5134 126.584 92.8174 126.776C93.1214 126.968 93.4654 127.064 93.8494 127.064ZM104.367 124.856C104.367 125.48 104.227 126.04 103.947 126.536C103.667 127.032 103.283 127.42 102.795 127.7C102.315 127.98 101.783 128.12 101.199 128.12C100.615 128.12 100.079 127.98 99.5905 127.7C99.1105 127.42 98.7305 127.032 98.4505 126.536C98.1705 126.04 98.0305 125.48 98.0305 124.856C98.0305 124.232 98.1705 123.668 98.4505 123.164C98.7305 122.66 99.1105 122.268 99.5905 121.988C100.079 121.708 100.615 121.568 101.199 121.568C101.783 121.568 102.315 121.708 102.795 121.988C103.283 122.268 103.667 122.66 103.947 123.164C104.227 123.668 104.367 124.232 104.367 124.856ZM103.227 124.856C103.227 124.424 103.135 124.04 102.951 123.704C102.775 123.36 102.531 123.096 102.219 122.912C101.915 122.72 101.575 122.624 101.199 122.624C100.823 122.624 100.479 122.72 100.167 122.912C99.8625 123.096 99.6185 123.36 99.4345 123.704C99.2585 124.04 99.1705 124.424 99.1705 124.856C99.1705 125.28 99.2585 125.66 99.4345 125.996C99.6185 126.332 99.8625 126.596 100.167 126.788C100.479 126.972 100.823 127.064 101.199 127.064C101.575 127.064 101.915 126.972 102.219 126.788C102.531 126.596 102.775 126.332 102.951 125.996C103.135 125.66 103.227 125.28 103.227 124.856ZM108.824 121.568C109.032 121.568 109.212 121.624 109.364 121.736C109.516 121.84 109.592 121.972 109.592 122.132C109.592 122.324 109.54 122.472 109.436 122.576C109.34 122.672 109.22 122.72 109.076 122.72C109.004 122.72 108.896 122.696 108.752 122.648C108.584 122.592 108.452 122.564 108.356 122.564C108.108 122.564 107.864 122.652 107.624 122.828C107.392 122.996 107.2 123.232 107.048 123.536C106.904 123.832 106.832 124.164 106.832 124.532V127.424C106.832 127.584 106.776 127.72 106.664 127.832C106.56 127.944 106.424 128 106.256 128C106.088 128 105.952 127.948 105.848 127.844C105.744 127.732 105.692 127.592 105.692 127.424V122.288C105.692 122.128 105.744 121.992 105.848 121.88C105.96 121.768 106.096 121.712 106.256 121.712C106.424 121.712 106.56 121.768 106.664 121.88C106.776 121.992 106.832 122.128 106.832 122.288V122.9C107.008 122.508 107.272 122.192 107.624 121.952C107.976 121.704 108.376 121.576 108.824 121.568ZM111.729 127.424C111.729 127.584 111.673 127.72 111.561 127.832C111.457 127.944 111.321 128 111.153 128C110.993 128 110.857 127.944 110.745 127.832C110.641 127.72 110.589 127.584 110.589 127.424V122.228C110.589 122.068 110.641 121.932 110.745 121.82C110.857 121.708 110.993 121.652 111.153 121.652C111.321 121.652 111.457 121.708 111.561 121.82C111.673 121.932 111.729 122.068 111.729 122.228V127.424ZM111.153 120.86C110.921 120.86 110.753 120.82 110.649 120.74C110.553 120.652 110.505 120.516 110.505 120.332V120.14C110.505 119.948 110.557 119.812 110.661 119.732C110.773 119.652 110.941 119.612 111.165 119.612C111.389 119.612 111.549 119.656 111.645 119.744C111.749 119.824 111.801 119.956 111.801 120.14V120.332C111.801 120.524 111.749 120.66 111.645 120.74C111.541 120.82 111.377 120.86 111.153 120.86ZM115.072 122.828V126.404C115.072 126.804 115.252 127.004 115.612 127.004C115.668 127.004 115.744 126.992 115.84 126.968C115.936 126.936 116.012 126.92 116.068 126.92C116.172 126.92 116.26 126.964 116.332 127.052C116.404 127.14 116.44 127.252 116.44 127.388C116.44 127.556 116.344 127.7 116.152 127.82C115.96 127.94 115.744 128 115.504 128C115.24 128 114.996 127.972 114.772 127.916C114.556 127.86 114.36 127.72 114.184 127.496C114.016 127.264 113.932 126.916 113.932 126.452V122.828H113.236C113.084 122.828 112.956 122.78 112.852 122.684C112.756 122.58 112.708 122.452 112.708 122.3C112.708 122.148 112.756 122.024 112.852 121.928C112.956 121.832 113.084 121.784 113.236 121.784H113.932V120.776C113.932 120.616 113.984 120.48 114.088 120.368C114.2 120.256 114.34 120.2 114.508 120.2C114.668 120.2 114.8 120.256 114.904 120.368C115.016 120.48 115.072 120.616 115.072 120.776V121.784H116.068C116.22 121.784 116.344 121.836 116.44 121.94C116.544 122.036 116.596 122.16 116.596 122.312C116.596 122.464 116.544 122.588 116.44 122.684C116.344 122.78 116.22 122.828 116.068 122.828H115.072ZM125.138 121.604C126.538 121.604 127.238 122.476 127.238 124.22V127.424C127.238 127.592 127.186 127.732 127.082 127.844C126.978 127.948 126.842 128 126.674 128C126.506 128 126.366 127.944 126.254 127.832C126.15 127.72 126.098 127.584 126.098 127.424V124.232C126.098 123.184 125.658 122.66 124.778 122.66C124.466 122.66 124.182 122.732 123.926 122.876C123.678 123.012 123.482 123.2 123.338 123.44C123.202 123.68 123.134 123.944 123.134 124.232V127.424C123.134 127.584 123.078 127.72 122.966 127.832C122.862 127.944 122.726 128 122.558 128C122.39 128 122.254 127.948 122.15 127.844C122.046 127.732 121.994 127.592 121.994 127.424V124.22C121.994 123.748 121.894 123.372 121.694 123.092C121.494 122.804 121.162 122.66 120.698 122.66C120.226 122.66 119.834 122.812 119.522 123.116C119.218 123.412 119.066 123.78 119.066 124.22V127.424C119.066 127.584 119.01 127.72 118.898 127.832C118.794 127.944 118.658 128 118.49 128C118.322 128 118.186 127.948 118.082 127.844C117.978 127.732 117.926 127.592 117.926 127.424V122.288C117.926 122.128 117.978 121.992 118.082 121.88C118.194 121.768 118.33 121.712 118.49 121.712C118.658 121.712 118.794 121.768 118.898 121.88C119.01 121.992 119.066 122.128 119.066 122.288V122.708C119.274 122.396 119.55 122.136 119.894 121.928C120.246 121.712 120.626 121.604 121.034 121.604C122.026 121.604 122.67 122.044 122.966 122.924C123.142 122.588 123.434 122.284 123.842 122.012C124.25 121.74 124.682 121.604 125.138 121.604ZM134.042 121.628C134.21 121.628 134.346 121.684 134.45 121.796C134.562 121.9 134.618 122.04 134.618 122.216V127.424C134.618 127.584 134.562 127.72 134.45 127.832C134.346 127.944 134.21 128 134.042 128C133.874 128 133.738 127.948 133.634 127.844C133.53 127.732 133.478 127.592 133.478 127.424V127.112C133.27 127.392 132.986 127.632 132.626 127.832C132.266 128.024 131.878 128.12 131.462 128.12C130.918 128.12 130.422 127.98 129.974 127.7C129.534 127.42 129.186 127.032 128.93 126.536C128.682 126.032 128.558 125.468 128.558 124.844C128.558 124.22 128.682 123.66 128.93 123.164C129.186 122.66 129.534 122.268 129.974 121.988C130.414 121.708 130.898 121.568 131.426 121.568C131.85 121.568 132.242 121.656 132.602 121.832C132.97 122.008 133.262 122.232 133.478 122.504V122.216C133.478 122.048 133.53 121.908 133.634 121.796C133.738 121.684 133.874 121.628 134.042 121.628ZM131.594 127.064C131.97 127.064 132.302 126.968 132.59 126.776C132.886 126.584 133.114 126.32 133.274 125.984C133.442 125.648 133.526 125.268 133.526 124.844C133.526 124.428 133.442 124.052 133.274 123.716C133.114 123.38 132.886 123.116 132.59 122.924C132.302 122.724 131.97 122.624 131.594 122.624C131.218 122.624 130.882 122.72 130.586 122.912C130.298 123.104 130.07 123.368 129.902 123.704C129.742 124.04 129.662 124.42 129.662 124.844C129.662 125.268 129.742 125.648 129.902 125.984C130.07 126.32 130.298 126.584 130.586 126.776C130.882 126.968 131.218 127.064 131.594 127.064ZM144.321 121.712C144.489 121.712 144.625 121.768 144.729 121.88C144.841 121.992 144.897 122.128 144.897 122.288V125.48C144.897 126.312 144.665 126.96 144.201 127.424C143.745 127.88 143.097 128.108 142.257 128.108C141.425 128.108 140.781 127.88 140.325 127.424C139.869 126.96 139.641 126.312 139.641 125.48V122.288C139.641 122.128 139.693 121.992 139.797 121.88C139.909 121.768 140.045 121.712 140.205 121.712C140.373 121.712 140.509 121.768 140.613 121.88C140.725 121.992 140.781 122.128 140.781 122.288V125.48C140.781 126.528 141.273 127.052 142.257 127.052C142.745 127.052 143.117 126.92 143.373 126.656C143.629 126.392 143.757 126 143.757 125.48V122.288C143.757 122.128 143.809 121.992 143.913 121.88C144.025 121.768 144.161 121.712 144.321 121.712ZM149.806 121.568C151.246 121.568 151.966 122.432 151.966 124.16V127.424C151.966 127.584 151.91 127.72 151.798 127.832C151.694 127.944 151.558 128 151.39 128C151.23 128 151.094 127.944 150.982 127.832C150.878 127.72 150.826 127.584 150.826 127.424V124.172C150.826 123.7 150.718 123.324 150.502 123.044C150.286 122.764 149.934 122.624 149.446 122.624C149.126 122.624 148.834 122.696 148.57 122.84C148.314 122.976 148.11 123.164 147.958 123.404C147.814 123.636 147.742 123.892 147.742 124.172V127.424C147.742 127.584 147.686 127.72 147.574 127.832C147.47 127.944 147.334 128 147.166 128C146.998 128 146.862 127.948 146.758 127.844C146.654 127.732 146.602 127.592 146.602 127.424V122.288C146.602 122.128 146.654 121.992 146.758 121.88C146.87 121.768 147.006 121.712 147.166 121.712C147.334 121.712 147.47 121.768 147.574 121.88C147.686 121.992 147.742 122.128 147.742 122.288V122.708C147.95 122.388 148.238 122.12 148.606 121.904C148.982 121.68 149.382 121.568 149.806 121.568ZM155.372 122.828V126.404C155.372 126.804 155.552 127.004 155.912 127.004C155.968 127.004 156.044 126.992 156.14 126.968C156.236 126.936 156.312 126.92 156.368 126.92C156.472 126.92 156.56 126.964 156.632 127.052C156.704 127.14 156.74 127.252 156.74 127.388C156.74 127.556 156.644 127.7 156.452 127.82C156.26 127.94 156.044 128 155.804 128C155.54 128 155.296 127.972 155.072 127.916C154.856 127.86 154.66 127.72 154.484 127.496C154.316 127.264 154.232 126.916 154.232 126.452V122.828H153.536C153.384 122.828 153.256 122.78 153.152 122.684C153.056 122.58 153.008 122.452 153.008 122.3C153.008 122.148 153.056 122.024 153.152 121.928C153.256 121.832 153.384 121.784 153.536 121.784H154.232V120.776C154.232 120.616 154.284 120.48 154.388 120.368C154.5 120.256 154.64 120.2 154.808 120.2C154.968 120.2 155.1 120.256 155.204 120.368C155.316 120.48 155.372 120.616 155.372 120.776V121.784H156.368C156.52 121.784 156.644 121.836 156.74 121.94C156.844 122.036 156.896 122.16 156.896 122.312C156.896 122.464 156.844 122.588 156.74 122.684C156.644 122.78 156.52 122.828 156.368 122.828H155.372ZM162.907 121.712C163.075 121.712 163.211 121.768 163.315 121.88C163.427 121.992 163.483 122.128 163.483 122.288V125.48C163.483 126.312 163.251 126.96 162.787 127.424C162.331 127.88 161.683 128.108 160.843 128.108C160.011 128.108 159.367 127.88 158.911 127.424C158.455 126.96 158.227 126.312 158.227 125.48V122.288C158.227 122.128 158.279 121.992 158.383 121.88C158.495 121.768 158.631 121.712 158.791 121.712C158.959 121.712 159.095 121.768 159.199 121.88C159.311 121.992 159.367 122.128 159.367 122.288V125.48C159.367 126.528 159.859 127.052 160.843 127.052C161.331 127.052 161.703 126.92 161.959 126.656C162.215 126.392 162.343 126 162.343 125.48V122.288C162.343 122.128 162.395 121.992 162.499 121.88C162.611 121.768 162.747 121.712 162.907 121.712ZM170.324 127.004C170.444 127.132 170.504 127.272 170.504 127.424C170.504 127.584 170.44 127.72 170.312 127.832C170.192 127.936 170.064 127.988 169.928 127.988C169.752 127.988 169.612 127.924 169.508 127.796L167.144 125.288L166.424 125.936V127.424C166.424 127.584 166.368 127.72 166.256 127.832C166.152 127.944 166.02 128 165.86 128C165.692 128 165.552 127.944 165.44 127.832C165.336 127.72 165.284 127.584 165.284 127.424V119.696C165.284 119.536 165.336 119.4 165.44 119.288C165.552 119.176 165.692 119.12 165.86 119.12C166.02 119.12 166.152 119.176 166.256 119.288C166.368 119.4 166.424 119.536 166.424 119.696V124.568L169.364 121.868C169.5 121.748 169.64 121.688 169.784 121.688C169.92 121.688 170.044 121.748 170.156 121.868C170.268 121.98 170.324 122.1 170.324 122.228C170.324 122.388 170.248 122.532 170.096 122.66L168.02 124.508L170.324 127.004ZM42.064 136.604C43.464 136.604 44.164 137.476 44.164 139.22V142.424C44.164 142.592 44.112 142.732 44.008 142.844C43.904 142.948 43.768 143 43.6 143C43.432 143 43.292 142.944 43.18 142.832C43.076 142.72 43.024 142.584 43.024 142.424V139.232C43.024 138.184 42.584 137.66 41.704 137.66C41.392 137.66 41.108 137.732 40.852 137.876C40.604 138.012 40.408 138.2 40.264 138.44C40.128 138.68 40.06 138.944 40.06 139.232V142.424C40.06 142.584 40.004 142.72 39.892 142.832C39.788 142.944 39.652 143 39.484 143C39.316 143 39.18 142.948 39.076 142.844C38.972 142.732 38.92 142.592 38.92 142.424V139.22C38.92 138.748 38.82 138.372 38.62 138.092C38.42 137.804 38.088 137.66 37.624 137.66C37.152 137.66 36.76 137.812 36.448 138.116C36.144 138.412 35.992 138.78 35.992 139.22V142.424C35.992 142.584 35.936 142.72 35.824 142.832C35.72 142.944 35.584 143 35.416 143C35.248 143 35.112 142.948 35.008 142.844C34.904 142.732 34.852 142.592 34.852 142.424V137.288C34.852 137.128 34.904 136.992 35.008 136.88C35.12 136.768 35.256 136.712 35.416 136.712C35.584 136.712 35.72 136.768 35.824 136.88C35.936 136.992 35.992 137.128 35.992 137.288V137.708C36.2 137.396 36.476 137.136 36.82 136.928C37.172 136.712 37.552 136.604 37.96 136.604C38.952 136.604 39.596 137.044 39.892 137.924C40.068 137.588 40.36 137.284 40.768 137.012C41.176 136.74 41.608 136.604 42.064 136.604ZM51.3876 139.616C51.3796 139.76 51.3196 139.884 51.2076 139.988C51.0956 140.084 50.9636 140.132 50.8116 140.132H46.5876C46.6436 140.716 46.8636 141.184 47.2476 141.536C47.6396 141.888 48.1156 142.064 48.6756 142.064C49.0596 142.064 49.3716 142.008 49.6116 141.896C49.8516 141.784 50.0636 141.64 50.2476 141.464C50.3676 141.392 50.4836 141.356 50.5956 141.356C50.7316 141.356 50.8436 141.404 50.9316 141.5C51.0276 141.596 51.0756 141.708 51.0756 141.836C51.0756 142.004 50.9956 142.156 50.8356 142.292C50.6036 142.524 50.2956 142.72 49.9116 142.88C49.5276 143.04 49.1356 143.12 48.7356 143.12C48.0876 143.12 47.5156 142.984 47.0196 142.712C46.5316 142.44 46.1516 142.06 45.8796 141.572C45.6156 141.084 45.4836 140.532 45.4836 139.916C45.4836 139.244 45.6196 138.656 45.8916 138.152C46.1716 137.64 46.5356 137.248 46.9836 136.976C47.4396 136.704 47.9276 136.568 48.4476 136.568C48.9596 136.568 49.4396 136.7 49.8876 136.964C50.3356 137.228 50.6956 137.592 50.9676 138.056C51.2396 138.52 51.3796 139.04 51.3876 139.616ZM48.4476 137.624C47.9996 137.624 47.6116 137.752 47.2836 138.008C46.9556 138.256 46.7396 138.644 46.6356 139.172H50.1756V139.076C50.1356 138.652 49.9436 138.304 49.5996 138.032C49.2636 137.76 48.8796 137.624 48.4476 137.624ZM55.9154 136.568C57.3554 136.568 58.0754 137.432 58.0754 139.16V142.424C58.0754 142.584 58.0194 142.72 57.9074 142.832C57.8034 142.944 57.6674 143 57.4994 143C57.3394 143 57.2034 142.944 57.0914 142.832C56.9874 142.72 56.9354 142.584 56.9354 142.424V139.172C56.9354 138.7 56.8274 138.324 56.6114 138.044C56.3954 137.764 56.0434 137.624 55.5554 137.624C55.2354 137.624 54.9434 137.696 54.6794 137.84C54.4234 137.976 54.2194 138.164 54.0674 138.404C53.9234 138.636 53.8514 138.892 53.8514 139.172V142.424C53.8514 142.584 53.7954 142.72 53.6834 142.832C53.5794 142.944 53.4434 143 53.2754 143C53.1074 143 52.9714 142.948 52.8674 142.844C52.7634 142.732 52.7114 142.592 52.7114 142.424V137.288C52.7114 137.128 52.7634 136.992 52.8674 136.88C52.9794 136.768 53.1154 136.712 53.2754 136.712C53.4434 136.712 53.5794 136.768 53.6834 136.88C53.7954 136.992 53.8514 137.128 53.8514 137.288V137.708C54.0594 137.388 54.3474 137.12 54.7154 136.904C55.0914 136.68 55.4914 136.568 55.9154 136.568ZM64.3992 136.652C64.5672 136.652 64.7032 136.708 64.8072 136.82C64.9192 136.932 64.9752 137.068 64.9752 137.228V142.412C64.9752 143.412 64.6992 144.16 64.1472 144.656C63.5952 145.152 62.8672 145.4 61.9632 145.4C61.6672 145.4 61.3752 145.372 61.0872 145.316C60.7992 145.26 60.5632 145.184 60.3792 145.088C60.0832 144.952 59.9352 144.768 59.9352 144.536C59.9352 144.496 59.9432 144.444 59.9592 144.38C60.0072 144.244 60.0752 144.14 60.1632 144.068C60.2512 143.996 60.3512 143.96 60.4632 143.96C60.5272 143.96 60.5872 143.972 60.6432 143.996C60.8912 144.108 61.1112 144.196 61.3032 144.26C61.4952 144.324 61.7192 144.356 61.9752 144.356C63.2152 144.356 63.8352 143.72 63.8352 142.448V142.208C63.6192 142.496 63.3392 142.72 62.9952 142.88C62.6592 143.04 62.2712 143.12 61.8312 143.12C61.1672 143.12 60.6472 142.908 60.2712 142.484C59.9032 142.06 59.7192 141.504 59.7192 140.816V137.228C59.7192 137.06 59.7712 136.924 59.8752 136.82C59.9792 136.708 60.1152 136.652 60.2832 136.652C60.4512 136.652 60.5872 136.708 60.6912 136.82C60.8032 136.932 60.8592 137.068 60.8592 137.228V140.516C60.8592 141.044 60.9752 141.436 61.2072 141.692C61.4392 141.94 61.7912 142.064 62.2632 142.064C62.7192 142.064 63.0952 141.92 63.3912 141.632C63.6872 141.344 63.8352 140.972 63.8352 140.516V137.228C63.8352 137.06 63.8872 136.924 63.9912 136.82C64.0952 136.708 64.2312 136.652 64.3992 136.652ZM72.1298 139.616C72.1218 139.76 72.0618 139.884 71.9498 139.988C71.8378 140.084 71.7058 140.132 71.5538 140.132H67.3298C67.3858 140.716 67.6058 141.184 67.9898 141.536C68.3818 141.888 68.8578 142.064 69.4178 142.064C69.8018 142.064 70.1138 142.008 70.3538 141.896C70.5938 141.784 70.8058 141.64 70.9898 141.464C71.1098 141.392 71.2258 141.356 71.3378 141.356C71.4738 141.356 71.5858 141.404 71.6738 141.5C71.7698 141.596 71.8178 141.708 71.8178 141.836C71.8178 142.004 71.7378 142.156 71.5778 142.292C71.3458 142.524 71.0378 142.72 70.6538 142.88C70.2698 143.04 69.8778 143.12 69.4778 143.12C68.8298 143.12 68.2578 142.984 67.7618 142.712C67.2738 142.44 66.8938 142.06 66.6218 141.572C66.3578 141.084 66.2258 140.532 66.2258 139.916C66.2258 139.244 66.3618 138.656 66.6338 138.152C66.9138 137.64 67.2778 137.248 67.7258 136.976C68.1818 136.704 68.6698 136.568 69.1898 136.568C69.7018 136.568 70.1818 136.7 70.6298 136.964C71.0778 137.228 71.4378 137.592 71.7098 138.056C71.9818 138.52 72.1218 139.04 72.1298 139.616ZM69.1898 137.624C68.7418 137.624 68.3538 137.752 68.0258 138.008C67.6978 138.256 67.4818 138.644 67.3778 139.172H70.9178V139.076C70.8778 138.652 70.6858 138.304 70.3418 138.032C70.0058 137.76 69.6218 137.624 69.1898 137.624ZM74.6896 142.424C74.6896 142.584 74.6336 142.72 74.5216 142.832C74.4096 142.944 74.2736 143 74.1136 143C73.9536 143 73.8176 142.944 73.7056 142.832C73.6016 142.72 73.5496 142.584 73.5496 142.424V134.696C73.5496 134.536 73.6056 134.4 73.7176 134.288C73.8296 134.176 73.9656 134.12 74.1256 134.12C74.2856 134.12 74.4176 134.176 74.5216 134.288C74.6336 134.4 74.6896 134.536 74.6896 134.696V142.424ZM81.8915 139.616C81.8835 139.76 81.8235 139.884 81.7115 139.988C81.5995 140.084 81.4675 140.132 81.3155 140.132H77.0915C77.1475 140.716 77.3675 141.184 77.7515 141.536C78.1435 141.888 78.6195 142.064 79.1795 142.064C79.5635 142.064 79.8755 142.008 80.1155 141.896C80.3555 141.784 80.5675 141.64 80.7515 141.464C80.8715 141.392 80.9875 141.356 81.0995 141.356C81.2355 141.356 81.3475 141.404 81.4355 141.5C81.5315 141.596 81.5795 141.708 81.5795 141.836C81.5795 142.004 81.4995 142.156 81.3395 142.292C81.1075 142.524 80.7995 142.72 80.4155 142.88C80.0315 143.04 79.6395 143.12 79.2395 143.12C78.5915 143.12 78.0195 142.984 77.5235 142.712C77.0355 142.44 76.6555 142.06 76.3835 141.572C76.1195 141.084 75.9875 140.532 75.9875 139.916C75.9875 139.244 76.1235 138.656 76.3955 138.152C76.6755 137.64 77.0395 137.248 77.4875 136.976C77.9435 136.704 78.4315 136.568 78.9515 136.568C79.4635 136.568 79.9435 136.7 80.3915 136.964C80.8395 137.228 81.1995 137.592 81.4715 138.056C81.7435 138.52 81.8835 139.04 81.8915 139.616ZM78.9515 137.624C78.5035 137.624 78.1155 137.752 77.7875 138.008C77.4595 138.256 77.2435 138.644 77.1395 139.172H80.6795V139.076C80.6395 138.652 80.4475 138.304 80.1035 138.032C79.7675 137.76 79.3835 137.624 78.9515 137.624ZM82.8553 142.016C82.7833 141.904 82.7473 141.796 82.7473 141.692C82.7473 141.532 82.8313 141.396 82.9993 141.284C83.0793 141.228 83.1713 141.2 83.2753 141.2C83.4193 141.2 83.5513 141.26 83.6713 141.38C83.9113 141.652 84.1673 141.856 84.4393 141.992C84.7193 142.128 85.0513 142.196 85.4353 142.196C85.7393 142.188 86.0073 142.12 86.2393 141.992C86.4713 141.856 86.5873 141.64 86.5873 141.344C86.5873 141.072 86.4673 140.864 86.2273 140.72C85.9953 140.576 85.6513 140.444 85.1953 140.324C84.7473 140.204 84.3753 140.08 84.0793 139.952C83.7833 139.816 83.5313 139.624 83.3233 139.376C83.1233 139.12 83.0233 138.788 83.0233 138.38C83.0233 138.02 83.1233 137.704 83.3233 137.432C83.5313 137.16 83.8033 136.948 84.1393 136.796C84.4833 136.644 84.8553 136.568 85.2553 136.568C85.6393 136.568 86.0193 136.64 86.3953 136.784C86.7793 136.928 87.0913 137.148 87.3313 137.444C87.4273 137.556 87.4753 137.672 87.4753 137.792C87.4753 137.92 87.4113 138.044 87.2833 138.164C87.2033 138.236 87.1033 138.272 86.9833 138.272C86.8393 138.272 86.7233 138.224 86.6353 138.128C86.4673 137.936 86.2593 137.788 86.0113 137.684C85.7713 137.58 85.5033 137.528 85.2073 137.528C84.9033 137.528 84.6433 137.592 84.4273 137.72C84.2193 137.84 84.1153 138.048 84.1153 138.344C84.1233 138.624 84.2433 138.832 84.4753 138.968C84.7153 139.104 85.0793 139.236 85.5673 139.364C85.9913 139.476 86.3433 139.596 86.6233 139.724C86.9033 139.852 87.1393 140.044 87.3313 140.3C87.5233 140.548 87.6193 140.876 87.6193 141.284C87.6193 141.66 87.5113 141.988 87.2953 142.268C87.0793 142.54 86.7953 142.752 86.4433 142.904C86.0993 143.048 85.7313 143.12 85.3393 143.12C84.8353 143.12 84.3673 143.032 83.9353 142.856C83.5113 142.68 83.1513 142.4 82.8553 142.016ZM94.1278 136.628C94.2958 136.628 94.4318 136.684 94.5358 136.796C94.6478 136.9 94.7038 137.04 94.7038 137.216V142.424C94.7038 142.584 94.6478 142.72 94.5358 142.832C94.4318 142.944 94.2958 143 94.1278 143C93.9598 143 93.8238 142.948 93.7198 142.844C93.6158 142.732 93.5638 142.592 93.5638 142.424V142.112C93.3558 142.392 93.0718 142.632 92.7118 142.832C92.3518 143.024 91.9638 143.12 91.5478 143.12C91.0038 143.12 90.5078 142.98 90.0598 142.7C89.6198 142.42 89.2718 142.032 89.0158 141.536C88.7678 141.032 88.6438 140.468 88.6438 139.844C88.6438 139.22 88.7678 138.66 89.0158 138.164C89.2718 137.66 89.6198 137.268 90.0598 136.988C90.4998 136.708 90.9838 136.568 91.5118 136.568C91.9358 136.568 92.3278 136.656 92.6878 136.832C93.0558 137.008 93.3478 137.232 93.5638 137.504V137.216C93.5638 137.048 93.6158 136.908 93.7198 136.796C93.8238 136.684 93.9598 136.628 94.1278 136.628ZM91.6798 142.064C92.0558 142.064 92.3878 141.968 92.6758 141.776C92.9718 141.584 93.1998 141.32 93.3598 140.984C93.5278 140.648 93.6118 140.268 93.6118 139.844C93.6118 139.428 93.5278 139.052 93.3598 138.716C93.1998 138.38 92.9718 138.116 92.6758 137.924C92.3878 137.724 92.0558 137.624 91.6798 137.624C91.3038 137.624 90.9678 137.72 90.6718 137.912C90.3838 138.104 90.1558 138.368 89.9878 138.704C89.8278 139.04 89.7478 139.42 89.7478 139.844C89.7478 140.268 89.8278 140.648 89.9878 140.984C90.1558 141.32 90.3838 141.584 90.6718 141.776C90.9678 141.968 91.3038 142.064 91.6798 142.064ZM97.4789 142.424C97.4789 142.584 97.4229 142.72 97.3109 142.832C97.2069 142.944 97.0709 143 96.9029 143C96.7429 143 96.6069 142.944 96.4949 142.832C96.3909 142.72 96.3389 142.584 96.3389 142.424V137.228C96.3389 137.068 96.3909 136.932 96.4949 136.82C96.6069 136.708 96.7429 136.652 96.9029 136.652C97.0709 136.652 97.2069 136.708 97.3109 136.82C97.4229 136.932 97.4789 137.068 97.4789 137.228V142.424ZM96.9029 135.86C96.6709 135.86 96.5029 135.82 96.3989 135.74C96.3029 135.652 96.2549 135.516 96.2549 135.332V135.14C96.2549 134.948 96.3069 134.812 96.4109 134.732C96.5229 134.652 96.6909 134.612 96.9149 134.612C97.1389 134.612 97.2989 134.656 97.3949 134.744C97.4989 134.824 97.5509 134.956 97.5509 135.14V135.332C97.5509 135.524 97.4989 135.66 97.3949 135.74C97.2909 135.82 97.1269 135.86 96.9029 135.86ZM104.254 142.004C104.374 142.132 104.434 142.272 104.434 142.424C104.434 142.584 104.37 142.72 104.242 142.832C104.122 142.936 103.994 142.988 103.858 142.988C103.682 142.988 103.542 142.924 103.438 142.796L101.074 140.288L100.354 140.936V142.424C100.354 142.584 100.298 142.72 100.186 142.832C100.082 142.944 99.9496 143 99.7896 143C99.6216 143 99.4816 142.944 99.3696 142.832C99.2656 142.72 99.2136 142.584 99.2136 142.424V134.696C99.2136 134.536 99.2656 134.4 99.3696 134.288C99.4816 134.176 99.6216 134.12 99.7896 134.12C99.9496 134.12 100.082 134.176 100.186 134.288C100.298 134.4 100.354 134.536 100.354 134.696V139.568L103.294 136.868C103.43 136.748 103.57 136.688 103.714 136.688C103.85 136.688 103.974 136.748 104.086 136.868C104.198 136.98 104.254 137.1 104.254 137.228C104.254 137.388 104.178 137.532 104.026 137.66L101.95 139.508L104.254 142.004ZM110.827 136.628C110.995 136.628 111.131 136.684 111.235 136.796C111.347 136.9 111.403 137.04 111.403 137.216V142.424C111.403 142.584 111.347 142.72 111.235 142.832C111.131 142.944 110.995 143 110.827 143C110.659 143 110.523 142.948 110.419 142.844C110.315 142.732 110.263 142.592 110.263 142.424V142.112C110.055 142.392 109.771 142.632 109.411 142.832C109.051 143.024 108.663 143.12 108.247 143.12C107.703 143.12 107.207 142.98 106.759 142.7C106.319 142.42 105.971 142.032 105.715 141.536C105.467 141.032 105.343 140.468 105.343 139.844C105.343 139.22 105.467 138.66 105.715 138.164C105.971 137.66 106.319 137.268 106.759 136.988C107.199 136.708 107.683 136.568 108.211 136.568C108.635 136.568 109.027 136.656 109.387 136.832C109.755 137.008 110.047 137.232 110.263 137.504V137.216C110.263 137.048 110.315 136.908 110.419 136.796C110.523 136.684 110.659 136.628 110.827 136.628ZM108.379 142.064C108.755 142.064 109.087 141.968 109.375 141.776C109.671 141.584 109.899 141.32 110.059 140.984C110.227 140.648 110.311 140.268 110.311 139.844C110.311 139.428 110.227 139.052 110.059 138.716C109.899 138.38 109.671 138.116 109.375 137.924C109.087 137.724 108.755 137.624 108.379 137.624C108.003 137.624 107.667 137.72 107.371 137.912C107.083 138.104 106.855 138.368 106.687 138.704C106.527 139.04 106.447 139.42 106.447 139.844C106.447 140.268 106.527 140.648 106.687 140.984C106.855 141.32 107.083 141.584 107.371 141.776C107.667 141.968 108.003 142.064 108.379 142.064ZM116.302 136.568C117.742 136.568 118.462 137.432 118.462 139.16V142.424C118.462 142.584 118.406 142.72 118.294 142.832C118.19 142.944 118.054 143 117.886 143C117.726 143 117.59 142.944 117.478 142.832C117.374 142.72 117.322 142.584 117.322 142.424V139.172C117.322 138.7 117.214 138.324 116.998 138.044C116.782 137.764 116.43 137.624 115.942 137.624C115.622 137.624 115.33 137.696 115.066 137.84C114.81 137.976 114.606 138.164 114.454 138.404C114.31 138.636 114.238 138.892 114.238 139.172V142.424C114.238 142.584 114.182 142.72 114.07 142.832C113.966 142.944 113.83 143 113.662 143C113.494 143 113.358 142.948 113.254 142.844C113.15 142.732 113.098 142.592 113.098 142.424V137.288C113.098 137.128 113.15 136.992 113.254 136.88C113.366 136.768 113.502 136.712 113.662 136.712C113.83 136.712 113.966 136.768 114.07 136.88C114.182 136.992 114.238 137.128 114.238 137.288V137.708C114.446 137.388 114.734 137.12 115.102 136.904C115.478 136.68 115.878 136.568 116.302 136.568ZM130.705 136.604C132.105 136.604 132.805 137.476 132.805 139.22V142.424C132.805 142.592 132.753 142.732 132.649 142.844C132.545 142.948 132.409 143 132.241 143C132.073 143 131.933 142.944 131.821 142.832C131.717 142.72 131.665 142.584 131.665 142.424V139.232C131.665 138.184 131.225 137.66 130.345 137.66C130.033 137.66 129.749 137.732 129.493 137.876C129.245 138.012 129.049 138.2 128.905 138.44C128.769 138.68 128.701 138.944 128.701 139.232V142.424C128.701 142.584 128.645 142.72 128.533 142.832C128.429 142.944 128.293 143 128.125 143C127.957 143 127.821 142.948 127.717 142.844C127.613 142.732 127.561 142.592 127.561 142.424V139.22C127.561 138.748 127.461 138.372 127.261 138.092C127.061 137.804 126.729 137.66 126.265 137.66C125.793 137.66 125.401 137.812 125.089 138.116C124.785 138.412 124.633 138.78 124.633 139.22V142.424C124.633 142.584 124.577 142.72 124.465 142.832C124.361 142.944 124.225 143 124.057 143C123.889 143 123.753 142.948 123.649 142.844C123.545 142.732 123.493 142.592 123.493 142.424V137.288C123.493 137.128 123.545 136.992 123.649 136.88C123.761 136.768 123.897 136.712 124.057 136.712C124.225 136.712 124.361 136.768 124.465 136.88C124.577 136.992 124.633 137.128 124.633 137.288V137.708C124.841 137.396 125.117 137.136 125.461 136.928C125.813 136.712 126.193 136.604 126.601 136.604C127.593 136.604 128.237 137.044 128.533 137.924C128.709 137.588 129.001 137.284 129.409 137.012C129.817 136.74 130.249 136.604 130.705 136.604ZM139.608 136.628C139.776 136.628 139.912 136.684 140.016 136.796C140.128 136.9 140.184 137.04 140.184 137.216V142.424C140.184 142.584 140.128 142.72 140.016 142.832C139.912 142.944 139.776 143 139.608 143C139.44 143 139.304 142.948 139.2 142.844C139.096 142.732 139.044 142.592 139.044 142.424V142.112C138.836 142.392 138.552 142.632 138.192 142.832C137.832 143.024 137.444 143.12 137.028 143.12C136.484 143.12 135.988 142.98 135.54 142.7C135.1 142.42 134.752 142.032 134.496 141.536C134.248 141.032 134.124 140.468 134.124 139.844C134.124 139.22 134.248 138.66 134.496 138.164C134.752 137.66 135.1 137.268 135.54 136.988C135.98 136.708 136.464 136.568 136.992 136.568C137.416 136.568 137.808 136.656 138.168 136.832C138.536 137.008 138.828 137.232 139.044 137.504V137.216C139.044 137.048 139.096 136.908 139.2 136.796C139.304 136.684 139.44 136.628 139.608 136.628ZM137.16 142.064C137.536 142.064 137.868 141.968 138.156 141.776C138.452 141.584 138.68 141.32 138.84 140.984C139.008 140.648 139.092 140.268 139.092 139.844C139.092 139.428 139.008 139.052 138.84 138.716C138.68 138.38 138.452 138.116 138.156 137.924C137.868 137.724 137.536 137.624 137.16 137.624C136.784 137.624 136.448 137.72 136.152 137.912C135.864 138.104 135.636 138.368 135.468 138.704C135.308 139.04 135.228 139.42 135.228 139.844C135.228 140.268 135.308 140.648 135.468 140.984C135.636 141.32 135.864 141.584 136.152 141.776C136.448 141.968 136.784 142.064 137.16 142.064ZM141.519 142.016C141.447 141.904 141.411 141.796 141.411 141.692C141.411 141.532 141.495 141.396 141.663 141.284C141.743 141.228 141.835 141.2 141.939 141.2C142.083 141.2 142.215 141.26 142.335 141.38C142.575 141.652 142.831 141.856 143.103 141.992C143.383 142.128 143.715 142.196 144.099 142.196C144.403 142.188 144.671 142.12 144.903 141.992C145.135 141.856 145.251 141.64 145.251 141.344C145.251 141.072 145.131 140.864 144.891 140.72C144.659 140.576 144.315 140.444 143.859 140.324C143.411 140.204 143.039 140.08 142.743 139.952C142.447 139.816 142.195 139.624 141.987 139.376C141.787 139.12 141.687 138.788 141.687 138.38C141.687 138.02 141.787 137.704 141.987 137.432C142.195 137.16 142.467 136.948 142.803 136.796C143.147 136.644 143.519 136.568 143.919 136.568C144.303 136.568 144.683 136.64 145.059 136.784C145.443 136.928 145.755 137.148 145.995 137.444C146.091 137.556 146.139 137.672 146.139 137.792C146.139 137.92 146.075 138.044 145.947 138.164C145.867 138.236 145.767 138.272 145.647 138.272C145.503 138.272 145.387 138.224 145.299 138.128C145.131 137.936 144.923 137.788 144.675 137.684C144.435 137.58 144.167 137.528 143.871 137.528C143.567 137.528 143.307 137.592 143.091 137.72C142.883 137.84 142.779 138.048 142.779 138.344C142.787 138.624 142.907 138.832 143.139 138.968C143.379 139.104 143.743 139.236 144.231 139.364C144.655 139.476 145.007 139.596 145.287 139.724C145.567 139.852 145.803 140.044 145.995 140.3C146.187 140.548 146.283 140.876 146.283 141.284C146.283 141.66 146.175 141.988 145.959 142.268C145.743 142.54 145.459 142.752 145.107 142.904C144.763 143.048 144.395 143.12 144.003 143.12C143.499 143.12 143.031 143.032 142.599 142.856C142.175 142.68 141.815 142.4 141.519 142.016ZM152.792 136.628C152.96 136.628 153.096 136.684 153.2 136.796C153.312 136.9 153.368 137.04 153.368 137.216V142.424C153.368 142.584 153.312 142.72 153.2 142.832C153.096 142.944 152.96 143 152.792 143C152.624 143 152.488 142.948 152.384 142.844C152.28 142.732 152.228 142.592 152.228 142.424V142.112C152.02 142.392 151.736 142.632 151.376 142.832C151.016 143.024 150.628 143.12 150.212 143.12C149.668 143.12 149.172 142.98 148.724 142.7C148.284 142.42 147.936 142.032 147.68 141.536C147.432 141.032 147.308 140.468 147.308 139.844C147.308 139.22 147.432 138.66 147.68 138.164C147.936 137.66 148.284 137.268 148.724 136.988C149.164 136.708 149.648 136.568 150.176 136.568C150.6 136.568 150.992 136.656 151.352 136.832C151.72 137.008 152.012 137.232 152.228 137.504V137.216C152.228 137.048 152.28 136.908 152.384 136.796C152.488 136.684 152.624 136.628 152.792 136.628ZM150.344 142.064C150.72 142.064 151.052 141.968 151.34 141.776C151.636 141.584 151.864 141.32 152.024 140.984C152.192 140.648 152.276 140.268 152.276 139.844C152.276 139.428 152.192 139.052 152.024 138.716C151.864 138.38 151.636 138.116 151.34 137.924C151.052 137.724 150.72 137.624 150.344 137.624C149.968 137.624 149.632 137.72 149.336 137.912C149.048 138.104 148.82 138.368 148.652 138.704C148.492 139.04 148.412 139.42 148.412 139.844C148.412 140.268 148.492 140.648 148.652 140.984C148.82 141.32 149.048 141.584 149.336 141.776C149.632 141.968 149.968 142.064 150.344 142.064ZM156.299 142.424C156.299 142.584 156.243 142.72 156.131 142.832C156.019 142.944 155.883 143 155.723 143C155.563 143 155.427 142.944 155.315 142.832C155.211 142.72 155.159 142.584 155.159 142.424V134.696C155.159 134.536 155.215 134.4 155.327 134.288C155.439 134.176 155.575 134.12 155.735 134.12C155.895 134.12 156.027 134.176 156.131 134.288C156.243 134.4 156.299 134.536 156.299 134.696V142.424ZM163.198 136.628C163.366 136.628 163.502 136.684 163.606 136.796C163.718 136.9 163.774 137.04 163.774 137.216V142.424C163.774 142.584 163.718 142.72 163.606 142.832C163.502 142.944 163.366 143 163.198 143C163.03 143 162.894 142.948 162.79 142.844C162.686 142.732 162.634 142.592 162.634 142.424V142.112C162.426 142.392 162.142 142.632 161.782 142.832C161.422 143.024 161.034 143.12 160.618 143.12C160.074 143.12 159.578 142.98 159.13 142.7C158.69 142.42 158.342 142.032 158.086 141.536C157.838 141.032 157.714 140.468 157.714 139.844C157.714 139.22 157.838 138.66 158.086 138.164C158.342 137.66 158.69 137.268 159.13 136.988C159.57 136.708 160.054 136.568 160.582 136.568C161.006 136.568 161.398 136.656 161.758 136.832C162.126 137.008 162.418 137.232 162.634 137.504V137.216C162.634 137.048 162.686 136.908 162.79 136.796C162.894 136.684 163.03 136.628 163.198 136.628ZM160.75 142.064C161.126 142.064 161.458 141.968 161.746 141.776C162.042 141.584 162.27 141.32 162.43 140.984C162.598 140.648 162.682 140.268 162.682 139.844C162.682 139.428 162.598 139.052 162.43 138.716C162.27 138.38 162.042 138.116 161.746 137.924C161.458 137.724 161.126 137.624 160.75 137.624C160.374 137.624 160.038 137.72 159.742 137.912C159.454 138.104 159.226 138.368 159.058 138.704C158.898 139.04 158.818 139.42 158.818 139.844C158.818 140.268 158.898 140.648 159.058 140.984C159.226 141.32 159.454 141.584 159.742 141.776C160.038 141.968 160.374 142.064 160.75 142.064ZM168.601 136.604C170.009 136.604 170.713 137.476 170.713 139.22V142.424C170.713 142.584 170.657 142.72 170.545 142.832C170.441 142.944 170.305 143 170.137 143C169.977 143 169.841 142.944 169.729 142.832C169.625 142.72 169.573 142.584 169.573 142.424V139.22C169.573 138.18 169.133 137.66 168.253 137.66C167.781 137.66 167.389 137.812 167.077 138.116C166.765 138.412 166.609 138.78 166.609 139.22V142.424C166.609 142.584 166.553 142.72 166.441 142.832C166.337 142.944 166.201 143 166.033 143C165.865 143 165.729 142.948 165.625 142.844C165.521 142.732 165.469 142.592 165.469 142.424V134.696C165.469 134.536 165.521 134.4 165.625 134.288C165.737 134.176 165.873 134.12 166.033 134.12C166.201 134.12 166.337 134.176 166.441 134.288C166.553 134.4 166.609 134.536 166.609 134.696V137.732C166.809 137.42 167.089 137.156 167.449 136.94C167.809 136.716 168.193 136.604 168.601 136.604ZM172.97 140.48C172.746 140.48 172.626 140.352 172.61 140.096L172.346 135.32C172.33 135.112 172.378 134.94 172.49 134.804C172.61 134.668 172.766 134.6 172.958 134.6C173.158 134.6 173.314 134.668 173.426 134.804C173.538 134.94 173.586 135.112 173.57 135.32L173.318 140.096C173.31 140.224 173.274 140.32 173.21 140.384C173.154 140.448 173.074 140.48 172.97 140.48ZM172.898 143C172.706 143 172.558 142.948 172.454 142.844C172.358 142.732 172.31 142.58 172.31 142.388V142.16C172.31 141.968 172.358 141.82 172.454 141.716C172.558 141.604 172.706 141.548 172.898 141.548H173.03C173.222 141.548 173.366 141.604 173.462 141.716C173.566 141.82 173.618 141.968 173.618 142.16V142.388C173.618 142.58 173.566 142.732 173.462 142.844C173.366 142.948 173.222 143 173.03 143H172.898Z" fill="#FCF7F8"/>
<rect x="34" y="161" width="71" height="26" rx="6" fill="white" fill-opacity="0.15"/>
<path d="M55.84 173.18C56.2067 173.307 56.5067 173.517 56.74 173.81C56.98 174.097 57.1 174.473 57.1 174.94C57.1 175.68 56.8833 176.21 56.45 176.53C56.0233 176.843 55.5 177 54.88 177H52.31C52.1767 177 52.0633 176.953 51.97 176.86C51.8767 176.767 51.83 176.653 51.83 176.52V170.48C51.83 170.347 51.8767 170.233 51.97 170.14C52.0633 170.047 52.1767 170 52.31 170H54.88C55.4867 170 55.9467 170.15 56.26 170.45C56.58 170.75 56.74 171.183 56.74 171.75C56.74 172.07 56.6633 172.357 56.51 172.61C56.3567 172.857 56.1333 173.047 55.84 173.18ZM55.71 171.9C55.71 171.587 55.6233 171.35 55.45 171.19C55.2833 171.023 55.0467 170.94 54.74 170.94H52.85V172.89H54.76C55.0333 172.883 55.26 172.797 55.44 172.63C55.62 172.457 55.71 172.213 55.71 171.9ZM54.87 176.08C55.2367 176.08 55.53 175.987 55.75 175.8C55.97 175.607 56.08 175.32 56.08 174.94C56.08 174.2 55.66 173.83 54.82 173.83H52.85V176.08H54.87ZM62.4932 171.69C62.6332 171.69 62.7465 171.737 62.8332 171.83C62.9265 171.917 62.9732 172.033 62.9732 172.18V176.52C62.9732 176.653 62.9265 176.767 62.8332 176.86C62.7465 176.953 62.6332 177 62.4932 177C62.3532 177 62.2399 176.957 62.1532 176.87C62.0665 176.777 62.0232 176.66 62.0232 176.52V176.26C61.8499 176.493 61.6132 176.693 61.3132 176.86C61.0132 177.02 60.6899 177.1 60.3432 177.1C59.8899 177.1 59.4765 176.983 59.1032 176.75C58.7365 176.517 58.4465 176.193 58.2332 175.78C58.0265 175.36 57.9232 174.89 57.9232 174.37C57.9232 173.85 58.0265 173.383 58.2332 172.97C58.4465 172.55 58.7365 172.223 59.1032 171.99C59.4699 171.757 59.8732 171.64 60.3132 171.64C60.6665 171.64 60.9932 171.713 61.2932 171.86C61.5999 172.007 61.8432 172.193 62.0232 172.42V172.18C62.0232 172.04 62.0665 171.923 62.1532 171.83C62.2399 171.737 62.3532 171.69 62.4932 171.69ZM60.4532 176.22C60.7665 176.22 61.0432 176.14 61.2832 175.98C61.5299 175.82 61.7199 175.6 61.8532 175.32C61.9932 175.04 62.0632 174.723 62.0632 174.37C62.0632 174.023 61.9932 173.71 61.8532 173.43C61.7199 173.15 61.5299 172.93 61.2832 172.77C61.0432 172.603 60.7665 172.52 60.4532 172.52C60.1399 172.52 59.8599 172.6 59.6132 172.76C59.3732 172.92 59.1832 173.14 59.0432 173.42C58.9099 173.7 58.8432 174.017 58.8432 174.37C58.8432 174.723 58.9099 175.04 59.0432 175.32C59.1832 175.6 59.3732 175.82 59.6132 175.98C59.8599 176.14 60.1399 176.22 60.4532 176.22ZM66.6658 171.64C67.1924 171.64 67.6291 171.723 67.9758 171.89C68.3291 172.057 68.5058 172.27 68.5058 172.53C68.5058 172.643 68.4691 172.747 68.3958 172.84C68.3224 172.927 68.2291 172.97 68.1158 172.97C68.0291 172.97 67.9591 172.957 67.9058 172.93C67.8591 172.903 67.7924 172.86 67.7058 172.8C67.6658 172.76 67.6024 172.713 67.5158 172.66C67.4358 172.62 67.3224 172.587 67.1758 172.56C67.0291 172.533 66.8958 172.52 66.7758 172.52C66.4291 172.52 66.1224 172.6 65.8558 172.76C65.5891 172.92 65.3824 173.143 65.2358 173.43C65.0891 173.71 65.0158 174.023 65.0158 174.37C65.0158 174.723 65.0858 175.04 65.2258 175.32C65.3724 175.6 65.5758 175.82 65.8358 175.98C66.0958 176.14 66.3924 176.22 66.7258 176.22C67.0724 176.22 67.3524 176.167 67.5658 176.06C67.6124 176.033 67.6758 175.99 67.7558 175.93C67.8224 175.877 67.8791 175.837 67.9258 175.81C67.9791 175.783 68.0424 175.77 68.1158 175.77C68.2491 175.77 68.3524 175.813 68.4258 175.9C68.5058 175.98 68.5458 176.087 68.5458 176.22C68.5458 176.36 68.4558 176.5 68.2758 176.64C68.1024 176.773 67.8658 176.883 67.5658 176.97C67.2724 177.057 66.9558 177.1 66.6158 177.1C66.1091 177.1 65.6624 176.983 65.2758 176.75C64.8891 176.51 64.5891 176.183 64.3758 175.77C64.1691 175.35 64.0658 174.883 64.0658 174.37C64.0658 173.857 64.1758 173.393 64.3958 172.98C64.6158 172.56 64.9224 172.233 65.3158 172C65.7091 171.76 66.1591 171.64 66.6658 171.64ZM73.7725 171.69C73.9125 171.69 74.0258 171.737 74.1125 171.83C74.2058 171.917 74.2525 172.033 74.2525 172.18V176.52C74.2525 176.653 74.2058 176.767 74.1125 176.86C74.0258 176.953 73.9125 177 73.7725 177C73.6325 177 73.5192 176.957 73.4325 176.87C73.3458 176.777 73.3025 176.66 73.3025 176.52V176.26C73.1292 176.493 72.8925 176.693 72.5925 176.86C72.2925 177.02 71.9692 177.1 71.6225 177.1C71.1692 177.1 70.7558 176.983 70.3825 176.75C70.0158 176.517 69.7258 176.193 69.5125 175.78C69.3058 175.36 69.2025 174.89 69.2025 174.37C69.2025 173.85 69.3058 173.383 69.5125 172.97C69.7258 172.55 70.0158 172.223 70.3825 171.99C70.7492 171.757 71.1525 171.64 71.5925 171.64C71.9458 171.64 72.2725 171.713 72.5725 171.86C72.8792 172.007 73.1225 172.193 73.3025 172.42V172.18C73.3025 172.04 73.3458 171.923 73.4325 171.83C73.5192 171.737 73.6325 171.69 73.7725 171.69ZM71.7325 176.22C72.0458 176.22 72.3225 176.14 72.5625 175.98C72.8092 175.82 72.9992 175.6 73.1325 175.32C73.2725 175.04 73.3425 174.723 73.3425 174.37C73.3425 174.023 73.2725 173.71 73.1325 173.43C72.9992 173.15 72.8092 172.93 72.5625 172.77C72.3225 172.603 72.0458 172.52 71.7325 172.52C71.4192 172.52 71.1392 172.6 70.8925 172.76C70.6525 172.92 70.4625 173.14 70.3225 173.42C70.1892 173.7 70.1225 174.017 70.1225 174.37C70.1225 174.723 70.1892 175.04 70.3225 175.32C70.4625 175.6 70.6525 175.82 70.8925 175.98C71.1392 176.14 71.4192 176.22 71.7325 176.22Z" fill="#D8D8D9"/>
</g>
<defs>
<clipPath id="clip0">
<rect width="359" height="206" fill="white"/>
</clipPath>
<clipPath id="clip1">
<rect width="348" height="348" fill="white" transform="translate(24 -46)"/>
</clipPath>
</defs>
</svg>
