<svg width="331" height="63" viewBox="0 0 331 63" fill="none" xmlns="http://www.w3.org/2000/svg">
<rect width="331" height="63" rx="3" fill="#0B1D52"/>
<path d="M59.3845 41.4004C58.1365 41.4004 57.0271 41.2444 56.0565 40.9324C55.0858 40.6204 54.1758 40.0917 53.3265 39.3464C52.8585 38.9304 52.6245 38.471 52.6245 37.9684C52.6245 37.5697 52.7718 37.223 53.0665 36.9284C53.3611 36.6164 53.7165 36.4604 54.1325 36.4604C54.4618 36.4604 54.7565 36.5644 55.0165 36.7724C55.7098 37.3444 56.3858 37.7604 57.0445 38.0204C57.7031 38.2804 58.4831 38.4104 59.3845 38.4104C60.3551 38.4104 61.1871 38.1937 61.8805 37.7604C62.5911 37.327 62.9465 36.7897 62.9465 36.1484C62.9465 35.3684 62.5998 34.7617 61.9065 34.3284C61.2131 33.8777 60.1125 33.5397 58.6045 33.3144C54.8085 32.7597 52.9105 30.9917 52.9105 28.0104C52.9105 26.9184 53.1965 25.9737 53.7685 25.1764C54.3405 24.3617 55.1205 23.7464 56.1085 23.3304C57.0965 22.897 58.1971 22.6804 59.4105 22.6804C60.5025 22.6804 61.5251 22.845 62.4785 23.1744C63.4491 23.5037 64.2551 23.937 64.8965 24.4744C65.3991 24.873 65.6505 25.3324 65.6505 25.8524C65.6505 26.251 65.5031 26.6064 65.2085 26.9184C64.9138 27.213 64.5671 27.3604 64.1685 27.3604C63.9085 27.3604 63.6745 27.2824 63.4665 27.1264C63.0158 26.7624 62.3831 26.433 61.5685 26.1384C60.7711 25.8264 60.0518 25.6704 59.4105 25.6704C58.3185 25.6704 57.4691 25.8784 56.8625 26.2944C56.2731 26.693 55.9785 27.2217 55.9785 27.8804C55.9785 28.6257 56.2818 29.189 56.8885 29.5704C57.5125 29.9517 58.4831 30.2637 59.8005 30.5064C61.2911 30.7664 62.4785 31.1044 63.3625 31.5204C64.2638 31.919 64.9398 32.4737 65.3905 33.1844C65.8411 33.8777 66.0665 34.805 66.0665 35.9664C66.0665 37.0584 65.7545 38.0204 65.1305 38.8524C64.5238 39.667 63.7091 40.2997 62.6865 40.7504C61.6638 41.1837 60.5631 41.4004 59.3845 41.4004ZM81.0081 22.9404C81.4761 22.9404 81.8575 23.079 82.1521 23.3564C82.4468 23.6337 82.5941 23.9977 82.5941 24.4484C82.5941 24.899 82.4468 25.263 82.1521 25.5404C81.8575 25.8004 81.4761 25.9304 81.0081 25.9304H76.9261V39.5544C76.9261 40.005 76.7615 40.3864 76.4321 40.6984C76.1028 40.993 75.6955 41.1404 75.2101 41.1404C74.7248 41.1404 74.3261 40.993 74.0141 40.6984C73.7021 40.3864 73.5461 40.005 73.5461 39.5544V25.9304H69.4641C68.9961 25.9304 68.6148 25.7917 68.3201 25.5144C68.0255 25.237 67.8781 24.873 67.8781 24.4224C67.8781 23.989 68.0255 23.6337 68.3201 23.3564C68.6321 23.079 69.0135 22.9404 69.4641 22.9404H81.0081ZM98.3026 39.1124C98.3893 39.3377 98.4326 39.5457 98.4326 39.7364C98.4326 40.187 98.2853 40.5597 97.9906 40.8544C97.6959 41.1317 97.3579 41.2704 96.9766 41.2704C96.6646 41.2704 96.3786 41.175 96.1186 40.9844C95.8759 40.7937 95.6853 40.5337 95.5466 40.2044L94.1946 37.0584H86.4466L85.0946 40.2304C84.9733 40.5597 84.7826 40.8197 84.5226 41.0104C84.2799 41.1837 84.0113 41.2704 83.7166 41.2704C83.2659 41.2704 82.9193 41.149 82.6766 40.9064C82.4513 40.6637 82.3386 40.3344 82.3386 39.9184C82.3386 39.7624 82.3646 39.5977 82.4166 39.4244L88.8906 23.8764C89.0293 23.5297 89.2373 23.261 89.5146 23.0704C89.7919 22.8797 90.1039 22.8017 90.4506 22.8364C90.7626 22.8364 91.0486 22.9317 91.3086 23.1224C91.5859 23.2957 91.7853 23.547 91.9066 23.8764L98.3026 39.1124ZM92.9206 34.0684L90.2946 27.9844L87.7206 34.0684H92.9206ZM114.908 38.5924C115.133 38.731 115.307 38.913 115.428 39.1384C115.567 39.3637 115.636 39.5977 115.636 39.8404C115.636 40.1524 115.532 40.4384 115.324 40.6984C115.064 41.0104 114.665 41.1664 114.128 41.1664C113.712 41.1664 113.331 41.071 112.984 40.8804C111.736 40.1697 111.112 38.7224 111.112 36.5384C111.112 35.9144 110.904 35.4204 110.488 35.0564C110.089 34.6924 109.509 34.5104 108.746 34.5104H103.884V39.5544C103.884 40.0224 103.754 40.4037 103.494 40.6984C103.251 40.993 102.922 41.1404 102.506 41.1404C102.003 41.1404 101.561 40.993 101.18 40.6984C100.816 40.3864 100.634 40.005 100.634 39.5544V24.5264C100.634 24.0757 100.781 23.703 101.076 23.4084C101.388 23.0964 101.769 22.9404 102.22 22.9404H109.708C110.609 22.9404 111.459 23.183 112.256 23.6684C113.053 24.1537 113.686 24.821 114.154 25.6704C114.639 26.5197 114.882 27.473 114.882 28.5304C114.882 29.397 114.648 30.2464 114.18 31.0784C113.712 31.893 113.105 32.543 112.36 33.0284C113.452 33.791 114.05 34.8137 114.154 36.0964C114.206 36.3737 114.232 36.6424 114.232 36.9024C114.301 37.4397 114.371 37.8297 114.44 38.0724C114.509 38.2977 114.665 38.471 114.908 38.5924ZM109.578 31.8324C109.89 31.8324 110.193 31.685 110.488 31.3904C110.783 31.0957 111.025 30.7057 111.216 30.2204C111.407 29.7177 111.502 29.1804 111.502 28.6084C111.502 28.123 111.407 27.681 111.216 27.2824C111.025 26.8664 110.783 26.537 110.488 26.2944C110.193 26.0517 109.89 25.9304 109.578 25.9304H103.884V31.8324H109.578ZM130.063 22.9404C130.531 22.9404 130.912 23.079 131.207 23.3564C131.501 23.6337 131.649 23.9977 131.649 24.4484C131.649 24.899 131.501 25.263 131.207 25.5404C130.912 25.8004 130.531 25.9304 130.063 25.9304H125.981V39.5544C125.981 40.005 125.816 40.3864 125.487 40.6984C125.157 40.993 124.75 41.1404 124.265 41.1404C123.779 41.1404 123.381 40.993 123.069 40.6984C122.757 40.3864 122.601 40.005 122.601 39.5544V25.9304H118.519C118.051 25.9304 117.669 25.7917 117.375 25.5144C117.08 25.237 116.933 24.873 116.933 24.4224C116.933 23.989 117.08 23.6337 117.375 23.3564C117.687 23.079 118.068 22.9404 118.519 22.9404H130.063Z" fill="white"/>
<circle cx="275" cy="31" r="18.5" fill="#0B1D52" stroke="white"/>
<path d="M285 30.5L269.25 39.5933L269.25 21.4067L285 30.5Z" fill="white"/>
</svg>
