<svg width="331" height="54" viewBox="0 0 331 54" fill="none" xmlns="http://www.w3.org/2000/svg">
<rect y="0.767822" width="331" height="52.4531" rx="3" fill="#0B1D52"/>
<path d="M58.8 34.26C57.552 34.26 56.4427 34.104 55.472 33.792C54.5013 33.48 53.5913 32.9513 52.742 32.206C52.274 31.79 52.04 31.3307 52.04 30.828C52.04 30.4293 52.1873 30.0827 52.482 29.788C52.7767 29.476 53.132 29.32 53.548 29.32C53.8773 29.32 54.172 29.424 54.432 29.632C55.1253 30.204 55.8013 30.62 56.46 30.88C57.1187 31.14 57.8987 31.27 58.8 31.27C59.7707 31.27 60.6027 31.0533 61.296 30.62C62.0067 30.1867 62.362 29.6493 62.362 29.008C62.362 28.228 62.0153 27.6213 61.322 27.188C60.6287 26.7373 59.528 26.3993 58.02 26.174C54.224 25.6193 52.326 23.8513 52.326 20.87C52.326 19.778 52.612 18.8333 53.184 18.036C53.756 17.2213 54.536 16.606 55.524 16.19C56.512 15.7567 57.6127 15.54 58.826 15.54C59.918 15.54 60.9407 15.7047 61.894 16.034C62.8647 16.3633 63.6707 16.7967 64.312 17.334C64.8147 17.7327 65.066 18.192 65.066 18.712C65.066 19.1107 64.9187 19.466 64.624 19.778C64.3293 20.0727 63.9827 20.22 63.584 20.22C63.324 20.22 63.09 20.142 62.882 19.986C62.4313 19.622 61.7987 19.2927 60.984 18.998C60.1867 18.686 59.4673 18.53 58.826 18.53C57.734 18.53 56.8847 18.738 56.278 19.154C55.6887 19.5527 55.394 20.0813 55.394 20.74C55.394 21.4853 55.6973 22.0487 56.304 22.43C56.928 22.8113 57.8987 23.1233 59.216 23.366C60.7067 23.626 61.894 23.964 62.778 24.38C63.6793 24.7787 64.3553 25.3333 64.806 26.044C65.2567 26.7373 65.482 27.6647 65.482 28.826C65.482 29.918 65.17 30.88 64.546 31.712C63.9393 32.5267 63.1247 33.1593 62.102 33.61C61.0793 34.0433 59.9787 34.26 58.8 34.26ZM84.2197 20.09C84.6357 20.09 84.9823 20.246 85.2597 20.558C85.5543 20.8527 85.7017 21.234 85.7017 21.702C85.7017 21.858 85.667 22.0573 85.5977 22.3L81.6197 33.012C81.5157 33.324 81.325 33.5753 81.0477 33.766C80.7877 33.9393 80.5017 34.026 80.1897 34.026L79.9817 34C79.3923 33.9653 78.9503 33.636 78.6557 33.012L76.4457 26.616L74.3397 33.012C74.045 33.636 73.603 33.9653 73.0137 34L72.8057 34.026C72.4937 34.026 72.199 33.9393 71.9217 33.766C71.6617 33.5753 71.4797 33.324 71.3757 33.012L67.3977 22.3C67.3283 22.1093 67.2937 21.91 67.2937 21.702C67.2937 21.2687 67.4323 20.896 67.7097 20.584C68.0043 20.2547 68.3857 20.09 68.8537 20.09C69.2003 20.09 69.495 20.1767 69.7377 20.35C69.9977 20.506 70.1797 20.7487 70.2837 21.078L73.0917 28.696L75.1457 23.132C75.423 22.4907 75.8997 22.17 76.5757 22.17C76.9397 22.17 77.217 22.248 77.4077 22.404C77.6157 22.56 77.789 22.8027 77.9277 23.132L79.9297 28.566L82.7117 21.078C82.8157 20.7487 82.9977 20.506 83.2577 20.35C83.5177 20.1767 83.8383 20.09 84.2197 20.09ZM91.0987 32.414C91.0987 32.8647 90.9514 33.246 90.6567 33.558C90.362 33.8527 89.9894 34 89.5387 34C89.088 34 88.7154 33.8527 88.4207 33.558C88.126 33.246 87.9787 32.8647 87.9787 32.414V21.676C87.9787 21.2253 88.126 20.8527 88.4207 20.558C88.7154 20.246 89.088 20.09 89.5387 20.09C89.9894 20.09 90.362 20.246 90.6567 20.558C90.9514 20.8527 91.0987 21.2253 91.0987 21.676V32.414ZM89.5127 18.4C88.9234 18.4 88.5074 18.3047 88.2647 18.114C88.022 17.9233 87.9007 17.5853 87.9007 17.1V16.606C87.9007 16.1207 88.0307 15.7827 88.2907 15.592C88.5507 15.4013 88.9667 15.306 89.5387 15.306C90.1454 15.306 90.57 15.4013 90.8127 15.592C91.0554 15.7827 91.1767 16.1207 91.1767 16.606V17.1C91.1767 17.6027 91.0467 17.9493 90.7867 18.14C90.544 18.3133 90.1194 18.4 89.5127 18.4ZM101.507 19.83C102.703 19.83 103.787 20.142 104.757 20.766C105.728 21.3727 106.491 22.222 107.045 23.314C107.617 24.406 107.903 25.6453 107.903 27.032C107.903 28.4187 107.626 29.6667 107.071 30.776C106.517 31.868 105.754 32.726 104.783 33.35C103.83 33.9567 102.773 34.26 101.611 34.26C100.779 34.26 99.9906 34.0953 99.2452 33.766C98.5172 33.4193 97.9106 33.0033 97.4252 32.518V37.614C97.4252 38.0647 97.2779 38.4373 96.9832 38.732C96.6886 39.044 96.3159 39.2 95.8652 39.2C95.4146 39.2 95.0419 39.0527 94.7472 38.758C94.4526 38.4633 94.3052 38.082 94.3052 37.614V21.676C94.3052 21.2253 94.4526 20.8527 94.7472 20.558C95.0419 20.246 95.4146 20.09 95.8652 20.09C96.3159 20.09 96.6886 20.246 96.9832 20.558C97.2779 20.8527 97.4252 21.2253 97.4252 21.676V21.78C97.8412 21.26 98.4219 20.8093 99.1672 20.428C99.9126 20.0293 100.693 19.83 101.507 19.83ZM101.117 31.4C102.227 31.4 103.137 30.984 103.847 30.152C104.558 29.32 104.913 28.28 104.913 27.032C104.913 25.784 104.558 24.7527 103.847 23.938C103.154 23.106 102.244 22.69 101.117 22.69C99.9906 22.69 99.0719 23.106 98.3612 23.938C97.6506 24.7527 97.2952 25.784 97.2952 27.032C97.2952 28.28 97.6506 29.32 98.3612 30.152C99.0719 30.984 99.9906 31.4 101.117 31.4ZM122.984 26.72C122.967 27.136 122.802 27.474 122.49 27.734C122.178 27.994 121.814 28.124 121.398 28.124H112.818C113.026 29.1467 113.503 29.9527 114.248 30.542C114.994 31.114 115.834 31.4 116.77 31.4C117.481 31.4 118.036 31.3393 118.434 31.218C118.833 31.0793 119.145 30.9407 119.37 30.802C119.613 30.646 119.778 30.542 119.864 30.49C120.176 30.334 120.471 30.256 120.748 30.256C121.112 30.256 121.424 30.386 121.684 30.646C121.944 30.906 122.074 31.2093 122.074 31.556C122.074 32.024 121.832 32.4487 121.346 32.83C120.861 33.2287 120.211 33.5667 119.396 33.844C118.582 34.1213 117.758 34.26 116.926 34.26C115.47 34.26 114.196 33.9567 113.104 33.35C112.03 32.7433 111.198 31.9113 110.608 30.854C110.019 29.7793 109.724 28.5747 109.724 27.24C109.724 25.7493 110.036 24.4407 110.66 23.314C111.284 22.1873 112.108 21.3293 113.13 20.74C114.153 20.1333 115.245 19.83 116.406 19.83C117.55 19.83 118.625 20.142 119.63 20.766C120.653 21.39 121.468 22.2307 122.074 23.288C122.681 24.3453 122.984 25.4893 122.984 26.72ZM116.406 22.69C114.396 22.69 113.208 23.6347 112.844 25.524H119.656V25.342C119.587 24.614 119.232 23.99 118.59 23.47C117.949 22.95 117.221 22.69 116.406 22.69Z" fill="white"/>
<path d="M300.825 27.0502C301.402 26.4588 301.389 25.5091 300.795 24.9291L291.114 15.4776C290.52 14.8976 289.571 14.9069 288.993 15.4984C288.416 16.0899 288.429 17.0395 289.023 17.6195L297.628 26.0208L289.263 34.5884C288.685 35.1799 288.699 36.1295 289.293 36.7095C289.887 37.2895 290.837 37.2802 291.414 36.6887L300.825 27.0502ZM199.021 28.4869L299.77 27.4999L299.728 24.5002L198.979 25.4872L199.021 28.4869Z" fill="#F9FBFF"/>
</svg>
