<svg width="445" height="327" viewBox="0 0 445 327" fill="none" xmlns="http://www.w3.org/2000/svg">
<path d="M208.811 51.5549C210.072 46.2492 209.31 40.7696 206.62 35.8021C203.931 30.8346 199.433 26.5998 193.691 23.628C187.948 20.6562 181.216 19.0794 174.337 19.095C167.457 19.1105 160.737 20.7178 155.016 23.7155C150.877 15.7681 143.346 9.1967 133.711 5.12644C124.076 1.05619 112.937 -0.259743 102.202 1.40396C91.4661 3.06765 81.8017 7.6075 74.8631 14.2462C67.9244 20.8849 64.1431 29.2095 64.1666 37.7947C64.1666 38.2457 64.1666 38.6966 64.1666 39.1586C57.3801 40.6661 51.462 43.9607 47.4073 48.4886C43.3527 53.0165 41.4087 58.5016 41.9022 64.0217C42.3957 69.5418 45.2967 74.7603 50.1173 78.7998C54.9379 82.8393 61.3843 85.4535 68.3726 86.2029V86.4559H207.311C213.21 86.612 218.947 84.9231 223.259 81.7609C227.571 78.5986 230.105 74.222 230.304 69.5939C230.503 64.9657 228.35 60.4651 224.319 57.0821C220.289 53.6992 214.71 51.711 208.811 51.5549V51.5549Z" stroke="#263238" stroke-miterlimit="10"/>
<path d="M314.508 161.351V159.701" stroke="#263238" stroke-linecap="round" stroke-linejoin="round"/>
<path d="M314.508 156.445V40.5885" stroke="#263238" stroke-linecap="round" stroke-linejoin="round" stroke-dasharray="2.97 2.97"/>
<path d="M314.508 38.9607V37.3108H312.405" stroke="#263238" stroke-linecap="round" stroke-linejoin="round"/>
<path d="M308.171 37.3108H225.467" stroke="#263238" stroke-linecap="round" stroke-linejoin="round" stroke-dasharray="3.02 3.02"/>
<path d="M223.35 37.3108H221.247" stroke="#263238" stroke-linecap="round" stroke-linejoin="round"/>
<path d="M321.504 159.756L314.508 169.248L307.526 159.756H321.504Z" fill="#263238"/>
<path d="M339.716 118.002H287.617V61.2344H324.546L339.716 73.0367V118.002Z" fill="white" stroke="#263238" stroke-linecap="round" stroke-linejoin="round"/>
<path d="M324.546 61.2344V72.8277H339.716L324.546 61.2344Z" fill="white" stroke="#263238" stroke-linecap="round" stroke-linejoin="round"/>
<path d="M295.665 80.3402H331.654" stroke="#263238" stroke-linecap="round" stroke-linejoin="round"/>
<path d="M295.665 88.0397H331.654" stroke="#263238" stroke-linecap="round" stroke-linejoin="round"/>
<path d="M295.665 95.7394H331.654" stroke="#263238" stroke-linecap="round" stroke-linejoin="round"/>
<path d="M295.665 103.439H331.654" stroke="#263238" stroke-linecap="round" stroke-linejoin="round"/>
<path d="M239.108 63.0603H187.01V6.2926H223.939L239.108 18.0949V63.0603Z" fill="white" stroke="#263238" stroke-linecap="round" stroke-linejoin="round"/>
<path d="M223.939 6.2926V17.8859H239.108L223.939 6.2926Z" fill="white" stroke="#263238" stroke-linecap="round" stroke-linejoin="round"/>
<path d="M195.057 25.3983H231.047" stroke="#263238" stroke-linecap="round" stroke-linejoin="round"/>
<path d="M195.057 33.0979H231.047" stroke="#263238" stroke-linecap="round" stroke-linejoin="round"/>
<path d="M195.057 40.7975H231.047" stroke="#263238" stroke-linecap="round" stroke-linejoin="round"/>
<path d="M195.057 48.4971H231.047" stroke="#263238" stroke-linecap="round" stroke-linejoin="round"/>
<path d="M120.948 314.407V326H136.117L120.948 314.407Z" fill="white" stroke="#263238" stroke-linecap="round" stroke-linejoin="round"/>
<path d="M136.117 220.483H84.033V163.715H120.948L136.117 175.518V220.483Z" fill="white" stroke="#263238" stroke-linecap="round" stroke-linejoin="round"/>
<path d="M120.948 163.715V175.309H136.117L120.948 163.715Z" fill="white" stroke="#263238" stroke-linecap="round" stroke-linejoin="round"/>
<path d="M92.0806 182.821H128.07" stroke="#263238" stroke-linecap="round" stroke-linejoin="round"/>
<path d="M92.0806 190.521H128.07" stroke="#263238" stroke-linecap="round" stroke-linejoin="round"/>
<path d="M92.0806 198.221H128.07" stroke="#263238" stroke-linecap="round" stroke-linejoin="round"/>
<path d="M92.0806 205.92H128.07" stroke="#263238" stroke-linecap="round" stroke-linejoin="round"/>
<path d="M170.59 193.497C170.59 193.497 133.072 207.823 127.324 213.11C121.576 218.398 88.3904 325.84 88.3904 325.84H319.72C319.72 325.84 302.574 253.676 298.368 229.311C294.162 204.946 275.571 199.701 266.122 197.783C256.672 195.866 170.59 193.497 170.59 193.497Z" fill="#263238" stroke="#263238" stroke-linecap="round" stroke-linejoin="round"/>
<path d="M233.764 213.872L228.801 325.797H268.912L252.789 204.072L233.764 213.872Z" fill="#92E3A9" stroke="#263238" stroke-linecap="round" stroke-linejoin="round"/>
<path d="M173.786 184.106C173.786 184.106 167.589 193.257 168.823 196.176C170.057 199.095 184.133 221.133 198.195 223.629C212.257 226.124 230.034 218.214 239.554 212.349C249.074 206.483 261.467 201.957 263.528 200.702C265.589 199.447 258.159 189.422 254.85 187.815C251.541 186.207 247.405 183.585 247.405 183.585C247.405 183.585 242.863 177.761 242.036 176.535C241.208 175.308 240.788 173.207 239.554 171.543C239.097 170.84 238.488 170.25 237.771 169.817C237.055 169.385 236.25 169.122 235.418 169.048C233.343 168.639 230.455 179.03 218.047 181.117C205.64 183.204 175.441 184.445 175.441 184.445L173.786 184.106Z" fill="#92E3A9" stroke="#263238" stroke-linecap="round" stroke-linejoin="round"/>
<path d="M212.257 223.629C212.257 223.629 236.245 211.559 239.133 201.999C242.021 192.439 242.036 176.619 242.036 176.619" stroke="#263238" stroke-linecap="round" stroke-linejoin="round"/>
<path d="M230.455 213.223C230.455 213.223 240.788 208.655 244.097 202.408C247.405 196.162 247.405 183.698 247.405 183.698" stroke="#263238" stroke-linecap="round" stroke-linejoin="round"/>
<path d="M160.481 132.402C160.033 134.094 169.721 182.4 176.66 194.611C183.6 206.822 198.041 213.787 206.719 209.726C216.758 205.003 227.819 195.739 232.614 185.46C233.498 183.557 238.391 162.985 237.353 162.632C237.353 162.632 244.293 164.959 247.167 152.17C250.041 139.381 252.368 131.824 248.906 124.844C245.443 117.865 225.801 101.593 207.869 104.54C189.937 107.487 163.369 121.361 160.481 132.402Z" fill="white" stroke="#263238" stroke-linecap="round" stroke-linejoin="round"/>
<path d="M208.458 117.23C208.458 117.23 183.025 136.97 165.683 138.747C148.34 140.523 148.354 132.402 148.354 132.402C148.354 132.402 125.81 138.803 128.123 121.361C130.436 103.92 165.178 89.9607 165.178 89.9607C165.178 89.9607 153.037 86.478 158.813 80.0907C164.589 73.7034 186.558 66.7098 201.013 68.4582C215.468 70.2066 221.819 73.6893 221.819 73.6893C221.819 73.6893 217.767 63.2271 226.445 66.6393C235.124 70.0515 242.554 87.0561 242.554 87.0561C242.554 87.0561 257.584 88.2264 258.747 92.2872C259.911 96.348 250.069 97.4901 250.069 97.4901C250.069 97.4901 259.322 114.932 254.696 124.816C250.069 134.7 240.241 137.605 239.666 139.353C239.091 141.101 241.405 147.489 236.778 145.162C232.152 142.836 230.413 132.952 230.413 132.952C230.413 132.952 223.487 125.986 222.898 123.082C222.31 120.177 221.749 116.694 221.749 116.694C221.749 116.694 217.697 128.905 208.458 130.639C199.219 132.373 208.458 117.23 208.458 117.23Z" fill="#263238" stroke="#263238" stroke-linecap="round" stroke-linejoin="round"/>
<path d="M187.61 159.149C187.61 159.149 176.058 184.727 182.409 185.305C188.76 185.883 194.55 178.904 194.55 178.904" fill="white"/>
<path d="M187.61 159.149C187.61 159.149 176.058 184.727 182.409 185.305C188.76 185.883 194.55 178.904 194.55 178.904" stroke="#263238" stroke-linecap="round" stroke-linejoin="round"/>
<path d="M188.227 189.38C188.227 189.38 195.742 197.516 209.608 186.461" stroke="#263238" stroke-linecap="round" stroke-linejoin="round"/>
<path d="M203.368 164.254C203.368 164.254 204.77 169.513 215.243 168.554" stroke="#263238" stroke-linecap="round" stroke-linejoin="round"/>
<path d="M181.511 163.295C181.511 163.295 178.189 167.595 174.389 167.595" stroke="#263238" stroke-linecap="round" stroke-linejoin="round"/>
<path d="M225.997 151.07C225.997 151.07 199.205 150.492 196.316 151.662C193.428 152.833 192.854 159.798 194.578 164.451C196.302 169.104 200.368 175.491 210.771 175.491C221.174 175.491 226.375 170.26 229.838 160.376C233.301 150.492 225.997 151.07 225.997 151.07Z" stroke="#263238" stroke-linecap="round" stroke-linejoin="round"/>
<path d="M159.878 151.07C159.878 151.07 180.502 150.492 182.731 151.662C184.96 152.833 185.395 159.798 184.133 164.451C182.871 169.104 179.675 175.491 171.669 175.491C163.664 175.491 159.654 170.26 156.99 160.376C154.327 150.492 159.878 151.07 159.878 151.07Z" stroke="#263238" stroke-linecap="round" stroke-linejoin="round"/>
<path d="M231.1 154.355L239.905 142.652" stroke="#263238" stroke-linecap="round" stroke-linejoin="round"/>
<path d="M196.316 151.592H182.591" stroke="#263238" stroke-linecap="round" stroke-linejoin="round"/>
<path d="M192.797 157.204H184.287" stroke="#263238" stroke-linecap="round" stroke-linejoin="round"/>
<path d="M156.766 153.777L163.299 149.505" stroke="#263238" stroke-linecap="round" stroke-linejoin="round"/>
<path d="M209.776 161.448C209.776 163.619 208.752 165.396 207.49 165.396C206.228 165.396 205.219 163.619 205.219 161.448C205.219 159.276 206.243 157.5 207.49 157.5C208.738 157.5 209.776 159.262 209.776 161.448Z" fill="#263238"/>
<path d="M179.577 159.784C179.577 161.969 178.567 163.732 177.305 163.732C176.044 163.732 175.034 161.969 175.034 159.784C175.034 157.598 176.058 155.836 177.305 155.836C178.553 155.836 179.577 157.598 179.577 159.784Z" fill="#263238"/>
<path d="M168.823 146.262C168.823 146.262 177.095 142.934 181.231 145.43" stroke="#263238" stroke-width="2" stroke-linecap="round" stroke-linejoin="round"/>
<path d="M200.228 145.853C205.886 144.2 211.959 144.796 217.192 147.517" stroke="#263238" stroke-width="2" stroke-linecap="round" stroke-linejoin="round"/>
<path d="M68.0895 311.88C65.0008 309.953 61.541 308.705 57.938 308.218C54.335 307.732 50.6705 308.019 47.1857 309.06C35.7875 312.402 30.0953 322.441 30.0953 325.783H78.0578C77.4654 322.89 76.271 320.155 74.553 317.759C72.8349 315.363 70.6322 313.36 68.0895 311.88V311.88Z" fill="#808080" stroke="#263238" stroke-linecap="round" stroke-linejoin="round"/>
<path d="M38.6337 300.417C38.6337 300.417 32.4649 309.498 32.4649 312.839C32.4649 316.181 29.1421 319.523 33.8669 320.961C38.5916 322.399 41.4657 305.677 41.4657 303.773C41.4657 301.87 38.6337 300.417 38.6337 300.417Z" fill="white" stroke="#263238" stroke-linecap="round" stroke-linejoin="round"/>
<path d="M47.1855 299.938C47.1855 299.938 40.5401 298.528 38.6334 300.417C36.7267 302.307 33.418 319.057 33.8947 320.961C34.3713 322.864 39.1101 323.344 40.5401 321.44C41.9702 319.537 47.1855 299.938 47.1855 299.938Z" fill="white" stroke="#263238" stroke-linecap="round" stroke-linejoin="round"/>
<path d="M75.6884 307.58C75.6884 307.58 55.7379 300.403 51.4618 297.541C47.1857 294.679 44.8164 300.361 43.3863 303.759C41.9563 307.157 38.6335 319.043 38.6335 322.385C38.6335 325.727 43.863 327.151 44.8163 323.33C45.7697 319.509 53.3685 307.101 53.3685 307.101L63.3368 310.922C63.3368 310.922 64.2901 312.332 60.014 315.222C55.7379 318.113 49.5691 324.289 51.4618 325.247C53.3545 326.206 59.0607 325.727 60.9674 323.837C62.8741 321.948 72.8283 319.537 72.8283 319.537C72.8283 319.537 81.8572 325.276 83.7639 325.755C85.6706 326.234 97.5315 323.837 97.5315 323.837C97.5315 323.837 84.2266 312.374 82.3339 310.95C80.2253 309.626 78.0009 308.498 75.6884 307.58V307.58Z" fill="white" stroke="#263238" stroke-linecap="round" stroke-linejoin="round"/>
<path d="M255.607 300.164H245.639C241.363 300.164 232.811 297.343 232.334 302.067C231.857 306.791 241.839 309.709 246.578 309.709C251.317 309.709 254.177 307.806 259.883 310.668C265.589 313.53 268.912 315.448 268.912 315.448L262.253 304.929L255.607 300.164Z" fill="white" stroke="#263238" stroke-linecap="round" stroke-linejoin="round"/>
<path d="M295.031 324.993C295.031 324.993 286.002 305.409 281.726 299.205C277.45 293.001 252.284 288.221 249.48 288.221C246.676 288.221 239.498 303.984 240.451 307.806C241.405 311.627 243.255 307.326 244.657 304.986C246.059 302.645 251.303 295.919 251.303 295.919C251.303 295.919 259.378 309.286 262.701 316.449C266.024 323.612 272.683 324.57 276.483 325.529C280.282 326.488 295.031 324.993 295.031 324.993Z" fill="white" stroke="#263238" stroke-linecap="round" stroke-linejoin="round"/>
<path d="M271.73 296.3C271.73 296.3 262.701 284.357 257.948 286.261C253.195 288.164 245.611 311.105 244.657 313.967C243.704 316.83 249.41 314.926 250.349 312.557C251.289 310.189 259.855 297.752 259.855 297.752L267.454 302.532" fill="white"/>
<path d="M271.73 296.3C271.73 296.3 262.701 284.357 257.948 286.261C253.195 288.164 245.611 311.105 244.657 313.967C243.704 316.83 249.41 314.926 250.349 312.557C251.289 310.189 259.855 297.752 259.855 297.752L267.454 302.532" stroke="#263238" stroke-linecap="round" stroke-linejoin="round"/>
<path d="M278.404 296.3C278.404 296.3 268.912 288.179 265.575 289.123C262.239 290.068 250.378 313.488 252.284 314.503C254.191 315.518 257.977 313.544 259.883 310.682C261.79 307.82 265.575 301.122 265.575 301.122L272.712 306.382" fill="white"/>
<path d="M278.404 296.3C278.404 296.3 268.912 288.179 265.575 289.123C262.239 290.068 250.378 313.488 252.284 314.503C254.191 315.518 257.977 313.544 259.883 310.682C261.79 307.82 265.575 301.122 265.575 301.122L272.712 306.382" stroke="#263238" stroke-linecap="round" stroke-linejoin="round"/>
<path d="M283.044 302.871C283.044 302.871 278.403 293.466 275.081 294.904C271.758 296.342 260.36 314.01 263.682 314.01C267.005 314.01 276.987 303.505 276.987 303.505C276.987 303.505 276.034 311.627 276.987 315.913" fill="white"/>
<path d="M283.044 302.871C283.044 302.871 278.403 293.466 275.081 294.904C271.758 296.342 260.36 314.01 263.682 314.01C267.005 314.01 276.987 303.505 276.987 303.505C276.987 303.505 276.034 311.627 276.987 315.913" stroke="#263238" stroke-linecap="round" stroke-linejoin="round"/>
<path d="M145.101 325.797H269.725V321.92H145.101V325.797Z" fill="#808080" stroke="#263238" stroke-linecap="round" stroke-linejoin="round"/>
<path d="M54.1256 240.394H179.296L204.658 325.797H79.4878L54.1256 240.394Z" fill="#808080" stroke="#263238" stroke-linecap="round" stroke-linejoin="round"/>
<path d="M1.48047 325.797H443.713" stroke="#263238" stroke-linecap="round" stroke-linejoin="round"/>
</svg>
