<svg width="369" height="326" viewBox="0 0 369 326" fill="none" xmlns="http://www.w3.org/2000/svg">
<path d="M356.423 15.0001H238.299C234.264 15.0001 230.993 18.2712 230.993 22.3063V152.523C230.993 156.558 234.264 159.829 238.299 159.829H356.423C360.458 159.829 363.729 156.558 363.729 152.523V22.3063C363.729 18.2712 360.458 15.0001 356.423 15.0001Z" fill="white" stroke="#263238" stroke-linecap="round" stroke-linejoin="round"/>
<path d="M238.299 15.0001H356.411C358.339 15.0001 360.188 15.766 361.552 17.1294C362.915 18.4928 363.681 20.3419 363.681 22.27V29.855H230.993V22.3064C230.988 21.3456 231.174 20.3933 231.539 19.5047C231.905 18.6161 232.443 17.8087 233.122 17.1293C233.801 16.4499 234.609 15.9119 235.497 15.5464C236.386 15.181 237.338 14.9953 238.299 15.0001Z" fill="#263238" stroke="#263238" stroke-linecap="round" stroke-linejoin="round"/>
<path d="M238.226 92.3278H291.636" stroke="#263238" stroke-linecap="round" stroke-linejoin="round"/>
<path d="M238.226 99.2222H291.636" stroke="#263238" stroke-linecap="round" stroke-linejoin="round"/>
<path d="M238.226 106.116H291.636" stroke="#263238" stroke-linecap="round" stroke-linejoin="round"/>
<path d="M238.226 113.011H291.636" stroke="#263238" stroke-linecap="round" stroke-linejoin="round"/>
<path d="M238.226 119.905H291.636" stroke="#263238" stroke-linecap="round" stroke-linejoin="round"/>
<path d="M238.226 126.812H291.636" stroke="#263238" stroke-linecap="round" stroke-linejoin="round"/>
<path d="M238.226 133.706H291.636" stroke="#263238" stroke-linecap="round" stroke-linejoin="round"/>
<path d="M238.226 140.6H291.636" stroke="#263238" stroke-linecap="round" stroke-linejoin="round"/>
<path d="M238.226 147.494H291.636" stroke="#263238" stroke-linecap="round" stroke-linejoin="round"/>
<path d="M301.026 92.3278H354.436" stroke="#263238" stroke-linecap="round" stroke-linejoin="round"/>
<path d="M301.026 99.2222H354.436" stroke="#263238" stroke-linecap="round" stroke-linejoin="round"/>
<path d="M301.026 106.116H354.436" stroke="#263238" stroke-linecap="round" stroke-linejoin="round"/>
<path d="M301.026 113.011H354.436" stroke="#263238" stroke-linecap="round" stroke-linejoin="round"/>
<path d="M301.026 119.905H354.436" stroke="#263238" stroke-linecap="round" stroke-linejoin="round"/>
<path d="M301.026 126.812H354.436" stroke="#263238" stroke-linecap="round" stroke-linejoin="round"/>
<path d="M301.026 133.706H354.436" stroke="#263238" stroke-linecap="round" stroke-linejoin="round"/>
<path d="M301.026 140.6H354.436" stroke="#263238" stroke-linecap="round" stroke-linejoin="round"/>
<path d="M301.026 147.494H354.436" stroke="#263238" stroke-linecap="round" stroke-linejoin="round"/>
<path d="M273.946 48.672C274.209 47.8533 274.348 46.9996 274.358 46.1396C274.358 43.0015 271.171 42.8197 268.045 42.8197H267.258V42.0806H280.901V42.8197C277.351 42.8197 276.054 45.0855 274.952 48.4418L267.682 70.1425C267.136 71.754 266.676 72.9536 264.968 72.9536H264.822L258.425 52.2221L252.475 70.191C251.918 71.8025 251.458 73.002 249.749 73.002H249.616L240.31 42.8197H237.039V42.0806H249.01V42.8197H245.605L252.512 66.5924H252.79L258.001 50.8045L255.577 42.8803H252.306V42.0806H264.289V42.8197H260.884L267.791 66.5924H268.057L273.946 48.672Z" fill="#92E3A9"/>
<path d="M354.812 35.2105H299.851V84.8883H354.812V35.2105Z" fill="#92E3A9" stroke="#263238" stroke-width="2" stroke-linecap="round" stroke-linejoin="round"/>
<path d="M354.812 55.9782C352.968 56.0832 351.137 56.3385 349.335 56.7416C340.987 58.5591 338.806 70.5423 329.367 70.5423C321.006 70.5423 320.292 59.2861 308.308 57.8321C305.393 57.3728 302.407 57.9017 299.827 59.3345V84.8883H354.812V55.9782Z" fill="#263238" stroke="#263238" stroke-linecap="round" stroke-linejoin="round"/>
<path d="M318.111 46.5758C318.113 47.799 317.752 48.9954 317.074 50.0134C316.396 51.0315 315.431 51.8254 314.302 52.2946C313.172 52.7638 311.928 52.8872 310.729 52.6492C309.529 52.4111 308.427 51.8223 307.562 50.9574C306.697 50.0925 306.108 48.9903 305.87 47.7905C305.632 46.5906 305.755 45.3472 306.225 44.2175C306.694 43.0879 307.488 42.1229 308.506 41.4448C309.524 40.7668 310.72 40.4061 311.943 40.4085C313.579 40.4085 315.148 41.0582 316.304 42.2148C317.461 43.3714 318.111 44.9401 318.111 46.5758Z" fill="white" stroke="#263238" stroke-linecap="round" stroke-linejoin="round"/>
<path d="M357.32 19.3499H234.979V24.0633H357.32V19.3499Z" fill="white" stroke="#263238" stroke-linecap="round" stroke-linejoin="round"/>
<path d="M349.686 188.727H296.725C294.643 188.727 292.646 189.554 291.173 191.027C289.701 192.499 288.873 194.496 288.873 196.578V224.907C288.873 226.989 289.701 228.986 291.173 230.459C292.646 231.931 294.643 232.758 296.725 232.758H298.349C296.701 236.393 293.502 241.967 288.449 245.275C288.449 245.275 299.197 244.524 310.392 232.758H349.662C351.744 232.758 353.741 231.931 355.214 230.459C356.686 228.986 357.514 226.989 357.514 224.907V196.578C357.514 194.5 356.69 192.507 355.223 191.035C353.755 189.563 351.764 188.733 349.686 188.727Z" fill="#263238" stroke="#263238" stroke-linecap="round" stroke-linejoin="round"/>
<path d="M314.1 209.737C314.102 208.936 313.867 208.152 313.423 207.484C312.979 206.817 312.347 206.296 311.607 205.988C310.867 205.681 310.053 205.599 309.267 205.755C308.48 205.911 307.758 206.297 307.192 206.863C306.625 207.43 306.239 208.152 306.083 208.938C305.928 209.725 306.009 210.539 306.317 211.279C306.624 212.019 307.145 212.651 307.812 213.095C308.48 213.539 309.264 213.774 310.065 213.772C311.134 213.769 312.159 213.343 312.915 212.587C313.671 211.831 314.097 210.806 314.1 209.737Z" fill="#92E3A9" stroke="#263238" stroke-linecap="round" stroke-linejoin="round"/>
<path d="M327.828 209.737C327.828 208.939 327.592 208.159 327.148 207.495C326.705 206.832 326.075 206.315 325.337 206.009C324.6 205.704 323.789 205.624 323.006 205.78C322.224 205.935 321.505 206.32 320.94 206.884C320.376 207.448 319.992 208.167 319.836 208.95C319.68 209.733 319.76 210.544 320.066 211.281C320.371 212.018 320.888 212.649 321.552 213.092C322.215 213.535 322.995 213.772 323.793 213.772C324.862 213.769 325.887 213.343 326.643 212.587C327.399 211.831 327.825 210.806 327.828 209.737Z" fill="#92E3A9" stroke="#263238" stroke-linecap="round" stroke-linejoin="round"/>
<path d="M341.568 209.737C341.571 208.936 341.335 208.152 340.892 207.485C340.449 206.818 339.818 206.298 339.078 205.99C338.339 205.681 337.525 205.6 336.739 205.754C335.953 205.909 335.231 206.294 334.664 206.859C334.097 207.425 333.71 208.146 333.553 208.931C333.396 209.716 333.475 210.531 333.781 211.271C334.087 212.011 334.606 212.644 335.272 213.089C335.938 213.534 336.72 213.772 337.521 213.772C338.592 213.769 339.617 213.343 340.375 212.587C341.133 211.832 341.562 210.807 341.568 209.737Z" fill="#92E3A9" stroke="#263238" stroke-linecap="round" stroke-linejoin="round"/>
<path d="M58.4412 32.1813H145.68C147.756 32.1813 149.747 33.006 151.215 34.4739C152.683 35.9418 153.508 37.9327 153.508 40.0086V100.482H50.6503V40.0086C50.6502 37.9389 51.4699 35.9535 52.93 34.4867C54.39 33.0198 56.3716 32.1909 58.4412 32.1813Z" fill="#92E3A9" stroke="#263238" stroke-linecap="round" stroke-linejoin="round"/>
<path d="M153.459 90.7284H50.6503V100.446H153.459V90.7284Z" fill="#263238" stroke="#263238" stroke-linecap="round" stroke-linejoin="round"/>
<path d="M148.758 94.0483H55.3636V97.1259H148.758V94.0483Z" fill="white" stroke="#263238" stroke-linecap="round" stroke-linejoin="round"/>
<path d="M102.061 77.376C109.903 77.376 116.261 71.0181 116.261 63.1754C116.261 55.3326 109.903 48.9748 102.061 48.9748C94.218 48.9748 87.8602 55.3326 87.8602 63.1754C87.8602 71.0181 94.218 77.376 102.061 77.376Z" fill="#263238" stroke="#263238" stroke-linecap="round" stroke-linejoin="round"/>
<path d="M95.651 54.3425L110.978 63.1875L95.651 72.0326V54.3425Z" fill="white" stroke="#263238" stroke-linecap="round" stroke-linejoin="round"/>
<path d="M108.991 125.321H11.4169C9.52978 125.321 8 126.851 8 128.738V165.924C8 167.811 9.52978 169.34 11.4169 169.34H108.991C110.878 169.34 112.408 167.811 112.408 165.924V128.738C112.408 126.851 110.878 125.321 108.991 125.321Z" fill="#263238" stroke="#263238" stroke-linecap="round" stroke-linejoin="round"/>
<path d="M20.4316 131.319L20.9405 132.167C18.6384 133.451 16.4937 135.705 16.4937 138.346C16.4643 138.8 16.5257 139.255 16.6743 139.685C16.823 140.115 17.0559 140.51 17.3595 140.849C17.663 141.187 18.0311 141.462 18.4421 141.656C18.8531 141.851 19.2988 141.961 19.7531 141.981C20.0923 141.981 20.3225 141.812 20.3225 141.472C20.3225 141.133 20.1529 141.024 19.8137 140.964C19.3561 140.84 18.9576 140.557 18.689 140.167C18.4205 139.776 18.2995 139.303 18.3476 138.831C18.3564 138.455 18.4416 138.084 18.5981 137.742C18.7546 137.4 18.9791 137.093 19.2579 136.84C19.5367 136.588 19.8641 136.394 20.22 136.272C20.5759 136.15 20.9529 136.101 21.3282 136.129C21.7365 136.13 22.1403 136.214 22.5158 136.374C22.8913 136.534 23.2308 136.768 23.5144 137.062C23.7979 137.355 24.0197 137.703 24.1666 138.084C24.3134 138.465 24.3824 138.871 24.3695 139.279C24.3635 139.792 24.2543 140.299 24.0484 140.768C23.8424 141.238 23.5439 141.661 23.1707 142.013C22.7975 142.365 22.3572 142.637 21.8762 142.815C21.3952 142.993 20.8833 143.072 20.371 143.048C19.7342 143.089 19.0958 142.996 18.4972 142.775C17.8986 142.553 17.3532 142.209 16.8963 141.763C16.4393 141.318 16.0811 140.781 15.8448 140.188C15.6085 139.596 15.4993 138.96 15.5244 138.322C15.488 135.257 17.8508 132.785 20.4316 131.319ZM30.8397 131.319L31.3486 132.167C29.0343 133.451 26.9018 135.705 26.9018 138.346C26.8707 138.801 26.9309 139.256 27.0789 139.687C27.227 140.117 27.4598 140.513 27.7637 140.852C28.0675 141.191 28.4363 141.466 28.8481 141.66C29.2599 141.854 29.7064 141.963 30.1612 141.981C30.5004 141.981 30.7307 141.812 30.7307 141.472C30.7307 141.133 30.561 141.024 30.2218 140.964C29.7642 140.84 29.3657 140.557 29.0971 140.167C28.8286 139.776 28.7076 139.303 28.7557 138.831C28.7627 138.454 28.8468 138.083 29.0028 137.74C29.1587 137.397 29.3831 137.089 29.6623 136.836C29.9415 136.583 30.2695 136.39 30.6262 136.268C30.9829 136.147 31.3607 136.099 31.7363 136.129C32.1446 136.13 32.5484 136.214 32.9239 136.374C33.2994 136.534 33.639 136.768 33.9225 137.062C34.206 137.355 34.4278 137.703 34.5747 138.084C34.7215 138.465 34.7905 138.871 34.7776 139.279C34.77 139.792 34.6596 140.297 34.4531 140.766C34.2466 141.235 33.948 141.658 33.5752 142.009C33.2023 142.36 32.7627 142.633 32.2824 142.812C31.8022 142.99 31.291 143.07 30.7791 143.048C30.1427 143.087 29.5052 142.993 28.9074 142.771C28.3097 142.549 27.7651 142.204 27.3085 141.759C26.852 141.314 26.4937 140.778 26.2567 140.186C26.0198 139.594 25.9093 138.959 25.9325 138.322C25.884 135.257 28.2468 132.785 30.8397 131.319Z" fill="#92E3A9"/>
<path d="M40.7994 140.285H100.219" stroke="white" stroke-linecap="round" stroke-linejoin="round"/>
<path d="M40.7994 145.386H100.219" stroke="white" stroke-linecap="round" stroke-linejoin="round"/>
<path d="M40.7994 150.487H100.219" stroke="white" stroke-linecap="round" stroke-linejoin="round"/>
<path d="M40.7994 155.6H100.219" stroke="white" stroke-linecap="round" stroke-linejoin="round"/>
<path d="M89.7057 237.592C101.97 235.591 110.289 224.026 108.288 211.761C106.286 199.497 94.721 191.178 82.4566 193.179C70.1923 195.181 61.8728 206.746 63.8746 219.01C65.8764 231.275 77.4413 239.594 89.7057 237.592Z" fill="#263238" stroke="#263238" stroke-linecap="round" stroke-linejoin="round"/>
<path d="M100.353 227.94C107.272 220.061 106.494 208.065 98.6154 201.145C90.7365 194.226 78.74 195.004 71.8206 202.883C64.9012 210.762 65.679 222.758 73.558 229.678C81.437 236.597 93.4335 235.819 100.353 227.94Z" fill="white" stroke="#263238" stroke-linecap="round" stroke-linejoin="round"/>
<path d="M86.0911 201.655V215.383H95.3723" stroke="#263238" stroke-width="2" stroke-linecap="round" stroke-linejoin="round"/>
<path d="M226.861 215.432C226.861 215.432 239.765 242.973 239.765 244.427C239.765 245.881 228.315 252.109 226.134 253.417C224.442 254.381 222.699 255.25 220.912 256.022L222.22 268.781C222.22 268.781 241.934 264.286 250.197 259.79C258.461 255.295 258.17 250.218 256.256 242.682C254.341 235.145 241.607 206.017 241.607 206.017L226.861 215.432Z" fill="white"/>
<g style="mix-blend-mode:multiply" opacity="0.5">
<path d="M250.161 259.79C258.424 255.295 258.134 250.218 256.219 242.682C254.305 235.145 241.57 206.017 241.57 206.017L239.511 207.326L238.856 208.537C238.856 208.537 250.743 237.714 251.457 247.432C251.942 253.962 238.796 262.105 230.108 266.757C236.554 265.049 245.326 262.42 250.161 259.79Z" fill="#92E3A9"/>
</g>
<path d="M226.861 215.432C226.861 215.432 239.765 242.973 239.765 244.427C239.765 245.881 228.315 252.109 226.134 253.417C224.442 254.381 222.699 255.25 220.912 256.022L222.22 268.781C222.22 268.781 241.934 264.286 250.197 259.79C258.461 255.295 258.17 250.218 256.256 242.682C254.341 235.145 241.607 206.017 241.607 206.017L226.861 215.432Z" stroke="#263238" stroke-linecap="round" stroke-linejoin="round"/>
<path d="M133.757 209.349C133.757 209.349 124.343 243.845 124.064 249.94C123.786 256.034 142.76 268.054 143.451 268.781C144.141 269.508 142.372 247.819 142.372 247.819L148.806 216.316L133.757 209.349Z" fill="white"/>
<g style="mix-blend-mode:multiply" opacity="0.5">
<path d="M138.071 212.172L137.865 211.239L133.757 209.349C133.757 209.349 124.343 243.845 124.064 249.94C123.786 256.034 142.76 268.054 143.451 268.781C143.729 269.072 143.62 265.824 143.39 261.814C137.744 257.028 129.638 250.291 128.693 247.456" fill="#92E3A9"/>
</g>
<path d="M133.757 209.349C133.757 209.349 124.343 243.845 124.064 249.94C123.786 256.034 142.76 268.054 143.451 268.781C144.141 269.508 142.372 247.819 142.372 247.819L148.806 216.316L133.757 209.349Z" stroke="#263238" stroke-linecap="round" stroke-linejoin="round"/>
<path d="M177.971 174.696C177.971 174.696 174.336 177.313 167.248 177.604C160.159 177.895 159.82 172.757 151.011 172.757C140.337 172.757 126.948 206.526 126.948 206.526C126.948 206.526 133.612 213.057 140.143 215.807C143.756 217.39 147.554 218.51 151.448 219.139L152.465 241.325H224.365L225.225 219.139L247.701 204.563C247.701 204.563 236.675 184.85 231.32 177.459C225.964 170.067 216.962 172.818 214.211 174.696C211.461 176.574 203.306 177.022 200.301 176.586C196.381 175.719 192.507 174.655 188.694 173.4C188.694 173.4 184.065 169.546 177.971 174.696Z" fill="#92E3A9" stroke="#263238" stroke-linecap="round" stroke-linejoin="round"/>
<path d="M152.174 182.523L151.884 219.345" stroke="#263238" stroke-width="0.5" stroke-linecap="round" stroke-linejoin="round"/>
<path d="M154.78 185.868C154.78 185.868 155.797 203.836 159.626 213.845" stroke="#263238" stroke-width="0.5" stroke-linecap="round" stroke-linejoin="round"/>
<path d="M160.293 215.286C161.12 217.729 162.136 220.103 163.334 222.387" stroke="#263238" stroke-width="0.5" stroke-linecap="round" stroke-linejoin="round"/>
<path d="M157.094 183.832C158.469 190.366 160.411 196.767 162.898 202.964" stroke="#263238" stroke-width="0.5" stroke-linecap="round" stroke-linejoin="round"/>
<path d="M219.591 187.019C219.591 187.019 216.113 201.231 213.06 207.617" stroke="#263238" stroke-width="0.5" stroke-linecap="round" stroke-linejoin="round"/>
<path d="M225.225 219.2L225.08 190.496" stroke="#263238" stroke-width="0.5" stroke-linecap="round" stroke-linejoin="round"/>
<path d="M223.638 191.078C223.638 191.078 221.021 209.252 214.647 218.764" stroke="#263238" stroke-width="0.5" stroke-linecap="round" stroke-linejoin="round"/>
<path d="M220.451 215.141C220.451 215.141 217.543 220.654 215.52 223.55" stroke="#263238" stroke-width="0.5" stroke-linecap="round" stroke-linejoin="round"/>
<path d="M173.912 176.877C173.912 176.877 175.947 189.345 178.843 195.718C181.739 202.091 186.816 203.4 191.166 201.522C195.515 199.644 198.702 190.351 198.435 178.501" stroke="#263238" stroke-width="0.5" stroke-linecap="round" stroke-linejoin="round"/>
<path d="M163.625 150.778C163.625 150.778 160.862 146.004 158.693 148.464C156.524 150.923 160.438 156.582 162.607 158.46C164.776 160.338 166.375 159.187 166.242 157.163C166.109 155.14 163.625 150.778 163.625 150.778Z" fill="#92E3A9" stroke="#263238" stroke-linecap="round" stroke-linejoin="round"/>
<path opacity="0.5" d="M163.625 150.778C163.625 150.778 160.862 146.004 158.693 148.464C156.524 150.923 160.438 156.582 162.607 158.46C164.776 160.338 166.375 159.187 166.242 157.163C166.109 155.14 163.625 150.778 163.625 150.778Z" fill="white"/>
<path d="M163.625 150.778C163.625 150.778 160.862 146.004 158.693 148.464C156.524 150.923 160.438 156.582 162.607 158.46C164.776 160.338 166.375 159.187 166.242 157.163C166.109 155.14 163.625 150.778 163.625 150.778Z" stroke="#263238" stroke-linecap="round" stroke-linejoin="round"/>
<path d="M207.474 150.778C207.474 150.778 210.225 146.004 212.406 148.464C214.587 150.923 210.661 156.582 208.492 158.46C206.323 160.338 204.712 159.187 204.857 157.163C205.003 155.14 207.474 150.778 207.474 150.778Z" fill="#92E3A9" stroke="#263238" stroke-linecap="round" stroke-linejoin="round"/>
<path opacity="0.5" d="M207.474 150.778C207.474 150.778 210.225 146.004 212.406 148.464C214.587 150.923 210.661 156.582 208.492 158.46C206.323 160.338 204.712 159.187 204.857 157.163C205.003 155.14 207.474 150.778 207.474 150.778Z" fill="white"/>
<path d="M207.474 150.778C207.474 150.778 210.225 146.004 212.406 148.464C214.587 150.923 210.661 156.582 208.492 158.46C206.323 160.338 204.712 159.187 204.857 157.163C205.003 155.14 207.474 150.778 207.474 150.778Z" stroke="#263238" stroke-linecap="round" stroke-linejoin="round"/>
<path d="M176.662 173.69C178.031 179.877 179.775 185.975 181.884 191.95C184.501 198.469 189.421 198.469 191.456 194.264C193.492 190.06 194.788 174.393 194.788 174.393C194.788 174.393 181.157 176.295 176.662 173.69Z" fill="white" stroke="#263238" stroke-linecap="round" stroke-linejoin="round"/>
<path d="M163.915 152.377C163.915 152.377 167.684 165.706 174.82 173.545C181.957 181.384 184.514 183.238 188.306 182.669C192.098 182.099 196.133 177.168 201.78 166.917C207.426 156.667 207.838 148.803 208.31 148.076C208.783 147.349 207.099 132.858 199.029 126.618C190.959 120.378 181.921 117.639 174.093 124.449C166.266 131.258 161.298 142.369 163.915 152.377Z" fill="white"/>
<g style="mix-blend-mode:multiply" opacity="0.5">
<path d="M198.993 126.569C190.875 120.341 181.884 117.591 174.057 124.4C166.23 131.21 161.298 142.369 163.916 152.377C163.916 152.377 164.63 154.946 166.048 158.436C166.044 157.989 166.105 157.544 166.23 157.115C167.962 151.626 173.076 141 190.281 145.871C203.949 149.724 202.276 161.743 201.004 168.153L201.743 166.82C207.402 156.533 207.802 148.706 208.274 147.979C208.747 147.252 207.111 132.809 198.993 126.569Z" fill="#92E3A9"/>
</g>
<path d="M163.915 152.377C163.915 152.377 167.684 165.706 174.82 173.545C181.957 181.384 184.513 183.238 188.306 182.669C192.098 182.099 196.133 177.168 201.78 166.917C207.426 156.667 207.838 148.803 208.31 148.076C208.783 147.349 207.099 132.858 199.029 126.618C190.959 120.378 181.921 117.639 174.093 124.449C166.266 131.258 161.298 142.369 163.915 152.377Z" stroke="#263238" stroke-linecap="round" stroke-linejoin="round"/>
<path d="M188.27 159.332C187.82 162.162 187.577 165.021 187.543 167.887C187.688 170.782 188.56 171.655 187.252 171.946C185.943 172.236 184.501 170.201 184.501 170.201" stroke="#263238" stroke-linecap="round" stroke-linejoin="round"/>
<path d="M173.766 161.659C174.606 162.265 175.61 162.604 176.646 162.63C177.681 162.656 178.701 162.368 179.57 161.804" stroke="#263238" stroke-linecap="round" stroke-linejoin="round"/>
<path d="M192.183 161.659C193.021 162.264 194.023 162.602 195.057 162.628C196.09 162.654 197.108 162.367 197.975 161.804" stroke="#263238" stroke-linecap="round" stroke-linejoin="round"/>
<path d="M183.023 156.776C183.023 156.776 180.261 149.954 171.137 153.141" stroke="#263238" stroke-linecap="round" stroke-linejoin="round"/>
<path d="M190.62 155.94C190.62 155.94 192.935 149.263 201.198 153.177" stroke="#263238" stroke-linecap="round" stroke-linejoin="round"/>
<path d="M184.78 162.155C184.78 165.887 180.503 168.904 175.22 168.904C169.937 168.904 165.648 165.887 165.648 162.155C165.648 158.423 169.647 156.873 174.929 156.873C180.212 156.873 184.78 158.436 184.78 162.155Z" stroke="#263238" stroke-linecap="round" stroke-linejoin="round"/>
<path d="M206.82 162.155C206.82 165.887 202.531 168.904 197.248 168.904C191.965 168.904 187.688 165.887 187.688 162.155C187.688 158.423 191.674 156.873 196.957 156.873C202.24 156.873 206.82 158.436 206.82 162.155Z" stroke="#263238" stroke-linecap="round" stroke-linejoin="round"/>
<path d="M84.6491 278.389L84.0554 425.278C84.0554 425.741 84.2392 426.185 84.5664 426.512C84.8936 426.839 85.3374 427.023 85.8001 427.023C86.2514 427.023 86.6849 426.847 87.0085 426.533C87.3321 426.218 87.5202 425.79 87.5328 425.339L91.7251 278.595L84.6491 278.389Z" fill="white" stroke="#263238" stroke-linecap="round" stroke-linejoin="round"/>
<path d="M74.762 312.728L74.1925 464.584C74.1909 464.814 74.235 465.041 74.3221 465.254C74.4092 465.466 74.5377 465.659 74.7 465.822C74.8623 465.984 75.0553 466.112 75.2677 466.199C75.4801 466.287 75.7078 466.331 75.9373 466.329C76.3878 466.329 76.8209 466.156 77.1461 465.844C77.4713 465.532 77.6634 465.107 77.6821 464.657L81.8623 312.921L74.762 312.728Z" fill="white" stroke="#263238" stroke-linecap="round" stroke-linejoin="round"/>
<path d="M287.722 278.389L288.316 425.278C288.318 425.507 288.274 425.733 288.188 425.945C288.101 426.157 287.974 426.349 287.813 426.511C287.652 426.673 287.46 426.802 287.249 426.89C287.038 426.978 286.812 427.023 286.583 427.023C286.131 427.023 285.696 426.848 285.37 426.533C285.045 426.219 284.854 425.791 284.839 425.339L280.658 278.595L287.722 278.389Z" fill="white" stroke="#263238" stroke-linecap="round" stroke-linejoin="round"/>
<path d="M297.621 312.728L298.215 464.584C298.217 464.814 298.173 465.041 298.085 465.254C297.998 465.466 297.87 465.659 297.708 465.822C297.545 465.984 297.352 466.112 297.14 466.199C296.927 466.287 296.7 466.331 296.47 466.329C296.021 466.329 295.589 466.155 295.266 465.843C294.943 465.531 294.753 465.106 294.738 464.657L290.545 312.921L297.621 312.728Z" fill="white" stroke="#263238" stroke-linecap="round" stroke-linejoin="round"/>
<path d="M143.608 319.04L143.257 453.825C143.218 454.161 143.312 454.499 143.517 454.768C143.723 455.037 144.025 455.215 144.359 455.267C144.686 455.221 144.983 455.053 145.19 454.797C145.397 454.54 145.499 454.214 145.474 453.885L148.103 319.198L143.608 319.04Z" fill="white" stroke="#263238" stroke-linecap="round" stroke-linejoin="round"/>
<path d="M228.921 314.703L229.248 432.33C229.276 432.615 229.193 432.899 229.017 433.125C228.841 433.35 228.586 433.499 228.303 433.542C228.021 433.5 227.766 433.35 227.592 433.124C227.418 432.898 227.338 432.613 227.37 432.33L225.128 314.8L228.921 314.703Z" fill="white" stroke="#263238" stroke-linecap="round" stroke-linejoin="round"/>
<path d="M142.287 314.703L142.615 432.33C142.643 432.615 142.56 432.899 142.384 433.125C142.208 433.35 141.952 433.499 141.67 433.542C141.388 433.5 141.133 433.35 140.959 433.124C140.785 432.898 140.705 432.613 140.737 432.33L138.495 314.8L142.287 314.703Z" fill="white" stroke="#263238" stroke-linecap="round" stroke-linejoin="round"/>
<path d="M226.485 319.04L226.861 453.825C226.899 454.161 226.806 454.499 226.6 454.768C226.394 455.037 226.093 455.215 225.758 455.267C225.433 455.219 225.137 455.05 224.931 454.794C224.724 454.538 224.622 454.213 224.643 453.885L222.014 319.198L226.485 319.04Z" fill="white" stroke="#263238" stroke-linecap="round" stroke-linejoin="round"/>
<path d="M184.453 328.479C214.231 328.479 238.372 322.962 238.372 316.157C238.372 309.351 214.231 303.834 184.453 303.834C154.675 303.834 130.534 309.351 130.534 316.157C130.534 322.962 154.675 328.479 184.453 328.479Z" fill="white" stroke="#263238" stroke-linecap="round" stroke-linejoin="round"/>
<path d="M159.82 336.755C159.929 331.787 162.801 329.339 163.019 325.935C163.361 321.433 162.988 316.907 161.916 312.522L156.391 304.973C140.494 305.179 129.105 305.446 128.923 305.506C128.317 305.7 127.905 309.141 127.505 311.964C127.505 311.964 120.756 312.825 121.968 331.605C122.138 334.222 128.947 364.502 129.444 367.955C132.473 389.05 139.222 399.615 139.222 399.615C139.222 399.615 139.828 402.245 147.704 401.639C155.579 401.033 163.455 395.787 163.455 395.787C163.455 395.787 159.408 354.724 159.82 336.755Z" fill="#263238" stroke="#263238" stroke-linecap="round" stroke-linejoin="round"/>
<path d="M126.415 308.887C126.415 308.887 118.066 310.098 112.953 315.939C107.84 321.779 112.178 325.632 122.113 324.59C132.049 323.548 143.511 313.382 143.996 312.837C144.48 312.291 133.636 305.385 126.415 308.887Z" fill="white" stroke="#263238" stroke-linecap="round" stroke-linejoin="round"/>
<path d="M141.233 312.522C146.552 312.795 151.83 313.607 156.985 314.945C163.855 316.968 175.971 321.003 178.795 321.003C181.618 321.003 180.818 310.498 180.818 308.487C180.818 306.475 144.468 305.252 140.022 305.252C135.575 305.252 141.233 312.522 141.233 312.522Z" fill="white" stroke="#263238" stroke-linecap="round" stroke-linejoin="round"/>
<path d="M180.818 308.487C180.818 308.487 177.583 310.098 176.371 316.157C175.16 322.215 173.548 325.45 175.971 327.061C178.395 328.673 188.9 329.885 190.511 328.273C192.123 326.662 196.57 318.58 197.381 313.333C198.193 308.087 180.818 308.487 180.818 308.487Z" fill="#92E3A9" stroke="#263238" stroke-linecap="round" stroke-linejoin="round"/>
<path d="M194.546 310.498C192.668 312.654 191.168 315.112 190.111 317.768C189.255 320.549 188.579 323.382 188.088 326.25C191.954 327.309 195.733 328.662 199.393 330.297C205.863 333.12 216.768 335.143 227.261 337.567C237.754 339.99 240.589 342.413 244.224 342.413C247.859 342.413 252.306 339.578 257.964 332.72C263.622 325.862 258.764 311.31 253.117 306.863C247.471 302.416 217.168 298.794 213.133 300.005C209.098 301.217 194.546 310.498 194.546 310.498Z" fill="#263238" stroke="#263238" stroke-linecap="round" stroke-linejoin="round"/>
<path d="M118.769 324.699C117.971 321.074 116.355 317.68 114.044 314.775C113.668 315.127 113.305 315.49 112.953 315.89C108.458 321.003 111.269 324.638 118.769 324.699Z" fill="#92E3A9" stroke="#263238" stroke-linecap="round" stroke-linejoin="round"/>
<path d="M209.898 319.792C209.898 319.792 196.969 320.603 205.451 326.25C213.933 331.896 229.284 335.543 229.284 335.543" stroke="white" stroke-width="0.5" stroke-linecap="round" stroke-linejoin="round"/>
<path d="M303.752 304.513L299.39 300.587L289.31 278.777C288.831 277.785 288.081 276.949 287.145 276.368C286.21 275.786 285.128 275.483 284.027 275.493H88.2234C87.12 275.481 86.0358 275.783 85.098 276.365C84.1602 276.946 83.4076 277.783 82.9285 278.777L70.3637 305.942L68.2917 305.179V311.395L68.3887 311.322C68.5121 312.151 68.933 312.907 69.5729 313.449C70.2127 313.991 71.0278 314.281 71.8661 314.266H300.372C301.255 314.287 302.111 313.963 302.76 313.364C303.409 312.765 303.799 311.937 303.849 311.056L303.752 304.513Z" fill="#263238" stroke="#263238" stroke-linecap="round" stroke-linejoin="round"/>
<path d="M300.372 308.584H71.866C71.3001 308.606 70.7378 308.485 70.2317 308.23C69.7257 307.976 69.2925 307.598 68.9728 307.13C68.6531 306.663 68.4574 306.122 68.4039 305.558C68.3505 304.994 68.441 304.426 68.6672 303.907L82.9284 273.094C83.4051 272.099 84.1571 271.26 85.0955 270.678C86.0339 270.096 87.1193 269.795 88.2233 269.811H284.027C285.129 269.798 286.211 270.1 287.147 270.681C288.083 271.263 288.834 272.1 289.309 273.094L303.571 303.907C303.797 304.426 303.887 304.994 303.834 305.558C303.78 306.122 303.585 306.663 303.265 307.13C302.945 307.598 302.512 307.976 302.006 308.23C301.5 308.485 300.938 308.606 300.372 308.584Z" fill="white" stroke="#263238" stroke-linecap="round" stroke-linejoin="round"/>
<g style="mix-blend-mode:multiply" opacity="0.5">
<path d="M83.4375 287.889C83.4375 287.889 78.2637 291.439 81.4988 292.735C84.7339 294.032 121.92 293.062 126.451 291.766C130.983 290.469 136.144 278.51 136.144 276.572C136.144 274.633 129.626 273.24 127.227 273.131C124.828 273.022 93.1307 274.948 93.1307 274.948L83.4375 287.889Z" fill="#92E3A9"/>
</g>
<g style="mix-blend-mode:multiply" opacity="0.5">
<path d="M268.409 294.032C275.729 294.032 281.664 291.569 281.664 288.531C281.664 285.493 275.729 283.03 268.409 283.03C261.088 283.03 255.153 285.493 255.153 288.531C255.153 291.569 261.088 294.032 268.409 294.032Z" fill="#92E3A9"/>
</g>
<g style="mix-blend-mode:multiply" opacity="0.5">
<path d="M184.017 300.829C210.269 300.829 231.55 296.847 231.55 291.936C231.55 287.024 210.269 283.042 184.017 283.042C157.765 283.042 136.484 287.024 136.484 291.936C136.484 296.847 157.765 300.829 184.017 300.829Z" fill="#92E3A9"/>
</g>
<path d="M258.715 266.891C258.715 266.891 257.843 263.413 254.947 264.577C252.051 265.74 252.342 273.422 252.911 277.771C253.481 282.121 257.407 280.086 257.407 280.086V277.481C257.407 277.481 255.965 278.632 255.238 277.044C254.511 275.457 254.656 267.472 255.383 267.618C256.11 267.763 257.552 270.223 257.552 270.223C257.552 270.223 257.988 269.944 258.715 266.891Z" fill="#92E3A9" stroke="#263238" stroke-linecap="round" stroke-linejoin="round"/>
<path d="M256.631 267.472V286.52C256.631 288.761 261.781 290.579 268.142 290.579C274.503 290.579 279.64 288.761 279.64 286.52V267.472H256.631Z" fill="#92E3A9" stroke="#263238" stroke-linecap="round" stroke-linejoin="round"/>
<path d="M279.64 267.472C279.64 269.411 274.491 270.974 268.142 270.974C261.793 270.974 256.631 269.411 256.631 267.472C256.631 265.534 261.781 263.971 268.142 263.971C274.503 263.971 279.64 265.546 279.64 267.472Z" fill="white" stroke="#263238" stroke-linecap="round" stroke-linejoin="round"/>
<path d="M278.138 267.472C278.138 269.157 273.655 270.514 268.142 270.514C262.629 270.514 258.134 269.157 258.134 267.472C258.134 265.788 262.617 264.431 268.142 264.431C273.667 264.431 278.138 265.788 278.138 267.472Z" fill="white" stroke="#263238" stroke-linecap="round" stroke-linejoin="round"/>
<path d="M260.424 269.411C265.46 270.881 270.812 270.881 275.848 269.411C270.812 267.941 265.46 267.941 260.424 269.411Z" fill="#263238" stroke="#263238" stroke-linecap="round" stroke-linejoin="round"/>
<path d="M82.0076 276.172L82.153 282.691L126.075 283.127V275.59L82.0076 276.172Z" fill="white" stroke="#263238" stroke-linecap="round" stroke-linejoin="round"/>
<path d="M126.075 283.127L132.461 269.363V265.304L125.785 276.899L126.075 283.127Z" fill="white" stroke="#263238" stroke-linecap="round" stroke-linejoin="round"/>
<path d="M82.0076 282.109L82.153 288.64L126.075 289.076V281.54L82.0076 282.109Z" fill="white" stroke="#263238" stroke-linecap="round" stroke-linejoin="round"/>
<path d="M126.075 289.076L132.461 275.3V271.241L125.785 282.836L126.075 289.076Z" fill="white" stroke="#263238" stroke-linecap="round" stroke-linejoin="round"/>
<path d="M98.9708 259.645C98.9708 259.645 99.9886 257.622 98.5346 256.749C97.0806 255.877 95.4933 257.961 94.6209 258.627C93.7486 259.294 75.4889 271.386 74.9073 273.276C74.3257 275.166 74.9073 279.334 78.821 279.795C82.7346 280.255 86.2121 277.626 87.9569 277.19C89.7016 276.754 90.3802 276.608 90.3802 276.608L102.412 260.372L98.9708 259.645Z" fill="white" stroke="#263238" stroke-linecap="round" stroke-linejoin="round"/>
<path d="M78.821 279.807C82.7346 280.243 86.2121 277.638 87.9569 277.202C89.7016 276.766 90.3802 276.62 90.3802 276.62L90.8164 276.027L79.5116 273.724C78.897 273.146 78.1068 272.788 77.2662 272.709C76.4256 272.63 75.5827 272.834 74.871 273.288C74.3257 275.154 74.9073 279.359 78.821 279.807Z" fill="white" stroke="#263238" stroke-linecap="round" stroke-linejoin="round"/>
<path d="M79.5481 273.749H113.474C124.064 273.749 127.251 273.167 127.251 273.167L133.77 259.681C133.77 259.681 113.171 260.99 106.81 260.554C104.182 260.478 101.564 260.186 98.983 259.681L79.5481 273.749Z" fill="white" stroke="#263238" stroke-linecap="round" stroke-linejoin="round"/>
<path d="M79.5481 273.749L80.1297 276.354C80.1297 276.354 107.671 276.499 114.916 276.499C122.162 276.499 127.675 276.79 127.675 276.79L127.239 273.155L79.5481 273.749Z" fill="white" stroke="#263238" stroke-linecap="round" stroke-linejoin="round"/>
<path d="M127.675 276.754L133.757 262.832V259.645L127.239 273.131L127.675 276.754Z" fill="white" stroke="#263238" stroke-linecap="round" stroke-linejoin="round"/>
<path d="M225.528 293.038H142.469C142.285 293.04 142.103 293.005 141.932 292.936C141.762 292.866 141.607 292.764 141.476 292.634C141.345 292.505 141.242 292.351 141.171 292.181C141.1 292.011 141.064 291.829 141.064 291.645C141.064 291.461 141.1 291.279 141.171 291.109C141.242 290.939 141.345 290.785 141.476 290.655C141.607 290.526 141.762 290.423 141.932 290.354C142.103 290.285 142.285 290.25 142.469 290.251H225.528C225.711 290.25 225.893 290.285 226.063 290.354C226.233 290.424 226.387 290.526 226.517 290.656C226.647 290.786 226.749 290.94 226.819 291.11C226.888 291.279 226.923 291.461 226.921 291.645C226.923 291.828 226.888 292.01 226.819 292.18C226.749 292.35 226.647 292.504 226.517 292.634C226.387 292.763 226.233 292.866 226.063 292.935C225.893 293.005 225.711 293.04 225.528 293.038Z" fill="white" stroke="#263238" stroke-linecap="round" stroke-linejoin="round"/>
<path d="M226.231 290.227H141.754C141.445 290.228 141.147 290.11 140.922 289.898C140.697 289.687 140.561 289.397 140.543 289.088L135.95 233.897C135.93 233.727 135.946 233.553 135.997 233.389C136.049 233.225 136.135 233.073 136.25 232.945C136.364 232.817 136.505 232.714 136.662 232.644C136.82 232.575 136.99 232.539 137.162 232.54H230.835C231.007 232.539 231.178 232.575 231.335 232.644C231.492 232.714 231.633 232.817 231.748 232.945C231.862 233.073 231.948 233.225 232 233.389C232.051 233.553 232.067 233.727 232.047 233.897L227.455 289.088C227.436 289.399 227.298 289.691 227.071 289.903C226.843 290.115 226.542 290.231 226.231 290.227Z" fill="white" stroke="#263238" stroke-linecap="round" stroke-linejoin="round"/>
<path d="M191.965 262.335C191.965 265.631 188.391 268.296 183.992 268.296C179.594 268.296 176.008 265.631 176.008 262.335C176.008 259.039 179.582 256.386 183.992 256.386C188.403 256.386 191.965 259.051 191.965 262.335Z" fill="white" stroke="#263238" stroke-linecap="round" stroke-linejoin="round"/>
<path d="M274.515 219.224C275.811 218.213 276.722 216.79 277.096 215.189C277.368 213.989 277.339 212.741 277.011 211.554" stroke="#263238" stroke-linecap="round" stroke-linejoin="round"/>
<path d="M264.846 262.432C264.846 262.432 272.904 257.585 270.274 252.048C267.645 246.511 258.752 242.839 258.752 234.212C258.752 226.773 266.664 224.022 271.825 221.042" stroke="#263238" stroke-linecap="round" stroke-linejoin="round"/>
<path d="M272.286 262.274C272.286 262.274 276.781 259.282 276.781 254.532C276.781 251.345 273.376 249.261 268.881 244.136" stroke="#263238" stroke-linecap="round" stroke-linejoin="round"/>
<path d="M266.397 241.034C266.397 241.034 263.453 238.72 265.622 234.37" stroke="#263238" stroke-linecap="round" stroke-linejoin="round"/>
<path d="M198.181 114.113C199.623 113.81 202.713 112.623 204.797 107.788C204.829 107.715 204.846 107.637 204.848 107.557C204.849 107.477 204.835 107.397 204.805 107.323C204.776 107.249 204.733 107.181 204.677 107.124C204.621 107.066 204.555 107.02 204.482 106.989C204.333 106.927 204.167 106.926 204.018 106.984C203.869 107.043 203.748 107.158 203.682 107.304C201.768 111.738 199.029 112.72 197.89 112.938C199.928 110.471 201.054 107.377 201.077 104.178C201.077 95.7689 193.286 88.9594 183.678 88.9594C174.069 88.9594 166.278 95.7689 166.278 104.178C166.285 107.248 167.307 110.231 169.186 112.659C167.357 112.562 164.267 113.338 160.353 117.906C160.241 118.021 160.179 118.175 160.179 118.336C160.179 118.497 160.241 118.651 160.353 118.766C160.466 118.859 160.607 118.911 160.753 118.911C160.841 118.912 160.928 118.892 161.008 118.854C161.087 118.817 161.158 118.762 161.213 118.693C166.218 112.865 169.525 113.847 170.192 114.113C169.06 114.736 168 115.479 167.029 116.331C161.444 121.359 158.039 130.87 158.475 138.795C158.965 144.05 160.871 149.075 163.988 153.335C168.045 150.431 171.409 146.666 173.839 142.309C175.65 139.108 177.268 135.802 178.686 132.409C178.686 135.959 179.146 140.249 181.012 143.314C182.358 145.736 184.33 147.751 186.721 149.149C189.113 150.547 191.836 151.277 194.607 151.263C195.563 151.276 196.518 151.183 197.454 150.984C197.536 150.963 197.613 150.926 197.68 150.874C197.747 150.821 197.802 150.756 197.842 150.681C202.519 151.675 207.171 151.59 207.886 150.596C209.037 149.009 210.673 144.053 211.218 137.995C212.212 127.72 205.742 118.802 198.181 114.113ZM182.139 142.575C179.788 138.734 179.861 132.47 180.14 128.871L180.297 128.459C180.409 132.16 181.352 135.789 183.058 139.076C184.763 142.363 187.186 145.223 190.148 147.446C191.784 148.577 193.598 149.425 195.515 149.954C192.547 150.16 186.44 149.591 182.139 142.575Z" fill="#263238"/>
<path d="M182.345 123.504C182.345 123.504 181.351 130.846 190.681 138.044C200.011 145.241 208.856 142.405 208.856 142.405" stroke="white" stroke-width="0.5" stroke-linecap="round" stroke-linejoin="round"/>
<path d="M183.714 121.08C183.714 121.08 193.54 135.39 207.111 131.658" stroke="white" stroke-width="0.5" stroke-linecap="round" stroke-linejoin="round"/>
<path d="M178.855 116.319C177.305 115.532 175.57 115.186 173.837 115.318C172.104 115.451 170.441 116.057 169.029 117.07C163.806 120.547 161.189 128.762 161.189 128.762" stroke="white" stroke-width="0.5" stroke-linecap="round" stroke-linejoin="round"/>
<path d="M179.11 120.305C179.11 120.305 174.881 119.178 172.264 121.795C170.988 122.951 169.897 124.295 169.029 125.782" stroke="white" stroke-width="0.5" stroke-linecap="round" stroke-linejoin="round"/>
<rect x="-4" y="319" width="394" height="192" fill="#02B099"/>
</svg>
