<svg width="441" height="441" viewBox="0 0 441 441" fill="none" xmlns="http://www.w3.org/2000/svg">
<path d="M75.6492 172.219C92.4693 172.219 106.105 158.584 106.105 141.764C106.105 124.944 92.4693 111.308 75.6492 111.308C58.8291 111.308 45.1937 124.944 45.1937 141.764C45.1937 158.584 58.8291 172.219 75.6492 172.219Z" fill="white" stroke="#263238" stroke-linecap="round" stroke-linejoin="round"/>
<path d="M73.3823 169.194C90.2024 169.194 103.838 155.559 103.838 138.739C103.838 121.919 90.2024 108.283 73.3823 108.283C56.5623 108.283 42.9269 121.919 42.9269 138.739C42.9269 155.559 56.5623 169.194 73.3823 169.194Z" fill="white" stroke="#263238" stroke-linecap="round" stroke-linejoin="round"/>
<path d="M73.3823 166.169C88.5316 166.169 100.813 153.888 100.813 138.739C100.813 123.589 88.5316 111.308 73.3823 111.308C58.2331 111.308 45.9521 123.589 45.9521 138.739C45.9521 153.888 58.2331 166.169 73.3823 166.169Z" fill="#263238" stroke="#263238" stroke-linecap="round" stroke-linejoin="round"/>
<path d="M70.1631 118.117C70.1631 118.117 67.1378 110.55 61.8458 105.258C56.5538 99.9659 34.9801 96.5526 34.9801 96.5526C38.4638 99.9127 41.6317 103.585 44.444 107.525C49.3567 114.334 65.612 129.848 65.612 129.848C65.612 129.848 57.674 123.039 50.4768 122.281C43.2797 121.522 25.1282 125.306 24.0168 125.306C22.9055 125.306 30.8259 128.331 36.506 130.977C42.186 133.623 64.1214 135.899 64.1214 135.899C64.1214 135.899 54.6663 138.545 48.2454 140.82C41.8244 143.096 35.7386 159.73 35.7386 159.73C35.7386 159.73 44.0647 152.163 51.253 150.275C58.4413 148.388 68.6549 144.983 68.6549 144.983C68.6549 144.983 62.2251 152.172 60.7169 157.093C59.2086 162.015 60.3376 173.357 60.3376 173.357C60.3376 173.357 63.7421 162.773 67.9052 158.601C72.0682 154.429 76.5929 147.294 76.5929 147.294C78.6884 150.71 80.5849 154.244 82.2729 157.878C85.2982 164.308 87.1857 173.754 87.1857 173.754C87.1857 173.754 92.1072 163.17 91.728 157.878C91.3487 152.586 85.6775 143.122 85.6775 143.122C85.6775 143.122 89.4612 140.476 95.1325 142.743C100.804 145.01 110.647 154.474 110.647 154.474C110.647 154.474 108.371 141.984 104.588 137.072C100.804 132.159 84.5397 130.633 84.5397 130.633C84.5397 130.633 93.6243 125.341 99.2955 124.203C104.967 123.066 112.526 125.72 112.526 125.72C112.526 125.72 103.829 113.61 97.02 112.852C90.2109 112.093 79.9974 122.66 79.9974 122.66L83.0315 107.525C83.7812 103.741 82.2729 94.2947 82.2729 94.2947C82.2729 94.2947 78.1099 96.5614 73.1883 103.75C71.748 105.82 70.7381 108.159 70.2184 110.627C69.6987 113.095 69.6799 115.642 70.1631 118.117Z" fill="#92E3A9"/>
<path opacity="0.5" d="M70.1631 118.117C70.1631 118.117 67.1378 110.55 61.8458 105.258C56.5538 99.9659 34.9801 96.5526 34.9801 96.5526C38.4638 99.9127 41.6317 103.585 44.444 107.525C49.3567 114.334 65.612 129.848 65.612 129.848C65.612 129.848 57.674 123.039 50.4768 122.281C43.2797 121.522 25.1282 125.306 24.0168 125.306C22.9055 125.306 30.8259 128.331 36.506 130.977C42.186 133.623 64.1214 135.899 64.1214 135.899C64.1214 135.899 54.6663 138.545 48.2454 140.82C41.8244 143.096 35.7386 159.73 35.7386 159.73C35.7386 159.73 44.0647 152.163 51.253 150.275C58.4413 148.388 68.6549 144.983 68.6549 144.983C68.6549 144.983 62.2251 152.172 60.7169 157.093C59.2086 162.015 60.3376 173.357 60.3376 173.357C60.3376 173.357 63.7421 162.773 67.9052 158.601C72.0682 154.429 76.5929 147.294 76.5929 147.294C78.6884 150.71 80.5849 154.244 82.2729 157.878C85.2982 164.308 87.1857 173.754 87.1857 173.754C87.1857 173.754 92.1072 163.17 91.728 157.878C91.3487 152.586 85.6775 143.122 85.6775 143.122C85.6775 143.122 89.4612 140.476 95.1325 142.743C100.804 145.01 110.647 154.474 110.647 154.474C110.647 154.474 108.371 141.984 104.588 137.072C100.804 132.159 84.5397 130.633 84.5397 130.633C84.5397 130.633 93.6243 125.341 99.2955 124.203C104.967 123.066 112.526 125.72 112.526 125.72C112.526 125.72 103.829 113.61 97.02 112.852C90.2109 112.093 79.9974 122.66 79.9974 122.66L83.0315 107.525C83.7812 103.741 82.2729 94.2947 82.2729 94.2947C82.2729 94.2947 78.1099 96.5614 73.1883 103.75C71.748 105.82 70.7381 108.159 70.2184 110.627C69.6987 113.095 69.6799 115.642 70.1631 118.117Z" fill="black"/>
<path d="M77.616 106.599C77.8806 105.514 78.1716 104.429 78.498 103.362" stroke="#263238" stroke-width="0.5" stroke-linecap="round" stroke-linejoin="round"/>
<path d="M52.3467 106.599C55.8747 109.183 60.2847 112.773 62.5955 115.851C66.7586 121.522 75.0846 133.632 75.0846 133.632C74.8462 125.498 75.4908 117.363 77.0074 109.368" stroke="#263238" stroke-width="0.5" stroke-linecap="round" stroke-linejoin="round"/>
<path d="M47.09 102.982C47.09 102.982 48.1925 103.688 49.8418 104.826" stroke="#263238" stroke-width="0.5" stroke-linecap="round" stroke-linejoin="round"/>
<path d="M75.0847 133.632C75.0847 133.632 89.4613 119.255 95.5118 118.117C101.562 116.98 106.863 121.522 106.863 121.522" stroke="#263238" stroke-width="0.5" stroke-linecap="round" stroke-linejoin="round"/>
<path d="M49.3919 145.654C45.8639 147.876 45.5729 149.182 45.5729 149.182" stroke="#263238" stroke-width="0.5" stroke-linecap="round" stroke-linejoin="round"/>
<path d="M106.484 146.871C106.484 146.871 104.217 141.191 96.2702 138.545C88.3234 135.899 75.8519 135.519 75.8519 135.519C75.8519 135.519 58.3442 141.252 51.9409 144.242" stroke="#263238" stroke-width="0.5" stroke-linecap="round" stroke-linejoin="round"/>
<path d="M68.1962 133.358C72.4298 134.593 75.8431 135.519 75.8431 135.519" stroke="#263238" stroke-width="0.5" stroke-linecap="round" stroke-linejoin="round"/>
<path d="M41.551 126.638C45.6611 126.885 50.9531 127.449 53.899 128.71C56.2981 129.742 61.0256 131.233 65.4885 132.565" stroke="#263238" stroke-width="0.5" stroke-linecap="round" stroke-linejoin="round"/>
<path d="M35.7386 126.444C35.7386 126.444 37.1234 126.444 39.1608 126.523" stroke="#263238" stroke-width="0.5" stroke-linecap="round" stroke-linejoin="round"/>
<path d="M75.0846 137.786C75.0846 137.786 64.5006 153.662 63.7333 157.463C63.2787 159.706 63.0249 161.985 62.9747 164.273" stroke="#263238" stroke-width="0.5" stroke-linecap="round" stroke-linejoin="round"/>
<path d="M79.7946 142.787C81.832 145.433 84.2751 148.961 85.2982 151.783C86.4891 155.227 87.3746 158.769 87.9442 162.367" stroke="#263238" stroke-width="0.5" stroke-linecap="round" stroke-linejoin="round"/>
<path d="M76.5928 138.924C76.5928 138.924 77.4748 139.859 78.6126 141.296" stroke="#263238" stroke-width="0.5" stroke-linecap="round" stroke-linejoin="round"/>
<path d="M65.3562 121.381C65.3562 121.381 63.4069 113.443 64.6153 106.078C65.8236 98.7135 81.3733 83.3402 81.3733 83.3402C80.5091 88.1011 80.081 92.931 80.0944 97.7697C80.0944 106.166 75.9049 128.252 75.9049 128.252C75.9049 128.252 78.3833 118.091 83.7811 113.258C89.179 108.424 106.14 100.91 107.057 100.266C107.974 99.6219 103.291 106.696 100.23 112.164C97.1699 117.632 80.65 132.3 80.65 132.3C80.65 132.3 89.8758 128.931 96.4202 127.008C102.965 125.085 117.588 135.087 117.588 135.087C117.588 135.087 106.413 133.799 99.4719 136.454C92.5306 139.109 82.2465 142.302 82.2465 142.302C82.2465 142.302 91.6662 144.392 95.7587 147.506C99.8512 150.619 105.567 160.524 105.567 160.524C105.567 160.524 96.6231 153.9 90.8107 152.948C84.9983 151.995 77.122 148.811 77.122 148.811C77.4208 152.806 77.9449 156.782 78.692 160.718C79.9885 167.712 83.984 176.497 83.984 176.497C83.984 176.497 73.8145 170.764 71.0274 166.239C68.2403 161.715 67.3407 150.725 67.3407 150.725C67.3407 150.725 62.719 150.778 59.4027 155.929C56.0863 161.08 53.6432 174.504 53.6432 174.504C53.6432 174.504 48.2101 163.038 48.4129 156.864C48.6158 150.69 60.9462 139.947 60.9462 139.947C60.9462 139.947 50.4856 140.944 45.2113 143.325C39.9369 145.706 35.3329 152.277 35.3329 152.277C35.3329 152.277 35.3329 137.372 40.4308 132.785C45.5288 128.199 60.0024 130.845 60.0024 130.845L48.7128 120.322C45.8904 117.676 41.6039 109.121 41.6039 109.121C41.6039 109.121 46.3138 108.539 54.4987 111.511C56.8778 112.344 59.0651 113.647 60.9303 115.343C62.7956 117.038 64.3007 119.092 65.3562 121.381Z" fill="#92E3A9"/>
<path d="M52.5848 116.371C51.7028 115.639 50.8737 114.933 49.9917 114.245" stroke="#263238" stroke-width="0.5" stroke-linecap="round" stroke-linejoin="round"/>
<path d="M73.1089 101.633C71.7418 105.796 70.216 111.273 70.1807 115.119C70.1101 122.175 70.41 136.842 70.41 136.842C65.8575 130.098 60.5845 123.87 54.684 118.267" stroke="#263238" stroke-width="0.5" stroke-linecap="round" stroke-linejoin="round"/>
<path d="M75.2787 95.6265C75.2787 95.6265 74.7848 96.8436 74.1144 98.7223" stroke="#263238" stroke-width="0.5" stroke-linecap="round" stroke-linejoin="round"/>
<path d="M70.4101 136.842C70.4101 136.842 50.3446 133.552 44.7704 136.163C39.1961 138.774 37.538 145.53 37.538 145.53" stroke="#263238" stroke-width="0.5" stroke-linecap="round" stroke-linejoin="round"/>
<path d="M98.2989 131.621C102.435 131.392 103.423 132.229 103.423 132.229" stroke="#263238" stroke-width="0.5" stroke-linecap="round" stroke-linejoin="round"/>
<path d="M52.629 165.913C52.629 165.913 51.1649 159.977 56.0688 153.195C60.9727 146.412 70.904 138.827 70.904 138.827C70.904 138.827 88.4646 133.261 95.406 131.965" stroke="#263238" stroke-width="0.5" stroke-linecap="round" stroke-linejoin="round"/>
<path d="M75.852 132.609C73.1354 136.075 70.9128 138.827 70.9128 138.827" stroke="#263238" stroke-width="0.5" stroke-linecap="round" stroke-linejoin="round"/>
<path d="M93.5713 111.608C90.3785 114.254 86.4095 117.782 84.7513 120.49C83.4019 122.73 80.4295 126.664 77.5807 130.377" stroke="#263238" stroke-width="0.5" stroke-linecap="round" stroke-linejoin="round"/>
<path d="M98.1754 108.054C98.1754 108.054 97.0553 108.865 95.4412 110.118" stroke="#263238" stroke-width="0.5" stroke-linecap="round" stroke-linejoin="round"/>
<path d="M72.8356 140.238C72.8356 140.238 90.7137 146.959 93.5273 149.596C95.2051 151.152 96.74 152.855 98.1137 154.685" stroke="#263238" stroke-width="0.5" stroke-linecap="round" stroke-linejoin="round"/>
<path d="M71.9271 147.029C71.8036 150.363 71.8653 154.641 72.7032 157.552C73.743 161.048 75.0919 164.446 76.734 167.703" stroke="#263238" stroke-width="0.5" stroke-linecap="round" stroke-linejoin="round"/>
<path d="M72.2711 142.002C72.2711 142.002 72.1299 143.254 72.0241 145.107" stroke="#263238" stroke-width="0.5" stroke-linecap="round" stroke-linejoin="round"/>
<path d="M124.212 161.785H324.135C326.631 161.785 329.025 162.777 330.79 164.542C332.554 166.307 333.546 168.7 333.546 171.196V300.85C333.546 302.202 333.28 303.54 332.762 304.789C332.245 306.038 331.487 307.173 330.531 308.128C329.575 309.084 328.441 309.842 327.192 310.36C325.943 310.877 324.605 311.143 323.253 311.143H125.094C123.742 311.143 122.404 310.877 121.155 310.36C119.906 309.842 118.772 309.084 117.816 308.128C116.86 307.173 116.102 306.038 115.585 304.789C115.067 303.54 114.801 302.202 114.801 300.85V171.196C114.801 168.7 115.793 166.307 117.558 164.542C119.322 162.777 121.716 161.785 124.212 161.785Z" fill="white" stroke="#263238" stroke-linecap="round" stroke-linejoin="round"/>
<path d="M197.383 176.488H185.07V184.576H197.383V176.488Z" fill="#263238"/>
<path d="M157.49 226.383H146.059V237.725H157.49V226.383Z" fill="#263238"/>
<path d="M207.993 186.517H196.474V197.859H207.993V186.517Z" fill="#263238"/>
<path d="M183.121 176.488H170.808V184.576H183.121V176.488Z" fill="#263238"/>
<path d="M221.453 186.517H209.934V197.859H221.453V186.517Z" fill="#263238"/>
<path d="M211.636 176.488H199.323V184.576H211.636V176.488Z" fill="#263238"/>
<path d="M150.584 213.091H128.922V224.434H150.584V213.091Z" fill="#263238"/>
<path d="M181.066 186.517H169.547V197.859H181.066V186.517Z" fill="#263238"/>
<path d="M144.119 226.383H128.922V237.725H144.119V226.383Z" fill="#263238"/>
<path d="M225.898 176.488H213.585V184.576H225.898V176.488Z" fill="#263238"/>
<path d="M154.138 186.517H142.619V197.859H154.138V186.517Z" fill="#263238"/>
<path d="M154.606 176.488H142.293V184.576H154.606V176.488Z" fill="#263238"/>
<path d="M168.868 176.488H156.555V184.576H168.868V176.488Z" fill="#263238"/>
<path d="M167.598 186.517H156.079V197.859H167.598V186.517Z" fill="#263238"/>
<path d="M194.525 186.517H183.006V197.859H194.525V186.517Z" fill="#263238"/>
<path d="M282.937 176.488H270.624V184.576H282.937V176.488Z" fill="#263238"/>
<path d="M297.19 176.488H284.877V184.576H297.19V176.488Z" fill="#263238"/>
<path d="M288.776 186.517H277.257V197.859H288.776V186.517Z" fill="#263238"/>
<path d="M302.244 186.517H290.725V197.859H302.244V186.517Z" fill="#263238"/>
<path d="M323.544 226.383H306.583V237.725H323.544V226.383Z" fill="#263238"/>
<path d="M311.452 176.488H299.139V184.576H311.452V176.488Z" fill="#263238"/>
<path d="M140.679 186.517H128.922V197.859H140.679V186.517Z" fill="#263238"/>
<path d="M240.16 176.488H227.847V184.576H240.16V176.488Z" fill="#263238"/>
<path d="M254.413 176.488H242.1V184.576H254.413V176.488Z" fill="#263238"/>
<path d="M248.389 186.517H236.87V197.859H248.389V186.517Z" fill="#263238"/>
<path d="M275.316 186.517H263.797V197.859H275.316V186.517Z" fill="#263238"/>
<path d="M234.921 186.517H223.402V197.859H234.921V186.517Z" fill="#263238"/>
<path d="M261.848 186.517H250.329V197.859H261.848V186.517Z" fill="#263238"/>
<path d="M268.675 176.488H256.362V184.576H268.675V176.488Z" fill="#263238"/>
<path d="M251.132 226.383H239.701V237.725H251.132V226.383Z" fill="#263238"/>
<path d="M311.108 213.091H299.677V224.434H311.108V213.091Z" fill="#263238"/>
<path d="M297.728 213.091H286.297V224.434H297.728V213.091Z" fill="#263238"/>
<path d="M304.634 226.383H293.203V237.725H304.634V226.383Z" fill="#263238"/>
<path d="M291.263 226.383H279.832V237.725H291.263V226.383Z" fill="#263238"/>
<path d="M264.503 226.383H253.072V237.725H264.503V226.383Z" fill="#263238"/>
<path d="M277.883 226.383H266.452V237.725H277.883V226.383Z" fill="#263238"/>
<path d="M284.348 213.091H272.917V224.434H284.348V213.091Z" fill="#263238"/>
<path d="M270.977 213.091H259.546V224.434H270.977V213.091Z" fill="#263238"/>
<path d="M323.553 176.488H313.401V184.576H323.553V176.488Z" fill="#263238"/>
<path d="M140.353 176.488H128.922V184.576H140.353V176.488Z" fill="#263238"/>
<path d="M323.553 239.666H128.922V251.458H323.553V239.666Z" fill="#263238"/>
<path d="M323.544 186.517H304.184V197.859H323.544V186.517Z" fill="#263238"/>
<path d="M323.544 213.091H313.048V224.434H323.544V213.091Z" fill="#263238"/>
<path d="M309.82 211.063H307.871V199.808H296.44V211.063H294.5V199.808H283.069V211.063H281.12V199.808H269.689V211.063H267.74V199.808H256.309V211.063H254.369V199.808H242.938V211.063H240.989V199.808H229.558V211.063H227.609V199.808H216.178V211.063H214.238V199.808H202.807V211.063H200.858V199.808H189.427V211.063H187.478V199.808H176.047V211.063H174.107V199.808H162.676V211.063H160.727V199.808H149.296V211.063H147.347V199.808H128.922V211.151H323.544V199.808H309.82V211.063Z" fill="#263238"/>
<path d="M217.466 213.091H206.035V224.434H217.466V213.091Z" fill="#263238"/>
<path d="M257.597 213.091H246.166V224.434H257.597V213.091Z" fill="#263238"/>
<path d="M190.715 213.091H179.284V224.434H190.715V213.091Z" fill="#263238"/>
<path d="M197.621 226.383H186.19V237.725H197.621V226.383Z" fill="#263238"/>
<path d="M204.086 213.091H192.655V224.434H204.086V213.091Z" fill="#263238"/>
<path d="M177.335 213.091H165.904V224.434H177.335V213.091Z" fill="#263238"/>
<path d="M170.87 226.383H159.439V237.725H170.87V226.383Z" fill="#263238"/>
<path d="M184.241 226.383H172.81V237.725H184.241V226.383Z" fill="#263238"/>
<path d="M230.846 213.091H219.415V224.434H230.846V213.091Z" fill="#263238"/>
<path d="M237.752 226.383H226.321V237.725H237.752V226.383Z" fill="#263238"/>
<path d="M244.217 213.091H232.786V224.434H244.217V213.091Z" fill="#263238"/>
<path d="M211.001 226.383H199.57V237.725H211.001V226.383Z" fill="#263238"/>
<path d="M224.372 226.383H212.941V237.725H224.372V226.383Z" fill="#263238"/>
<path d="M163.955 213.091H152.524V224.434H163.955V213.091Z" fill="#263238"/>
<path d="M346.035 80.6412H101.139C99.938 80.6422 98.7533 80.9193 97.6765 81.4512C96.5998 81.983 95.6597 82.7554 94.9291 83.7085C94.1984 84.6617 93.6968 85.7701 93.4629 86.9481C93.229 88.126 93.2691 89.342 93.5802 90.502L111.485 157.164C111.931 158.828 112.913 160.298 114.28 161.347C115.646 162.396 117.321 162.966 119.044 162.967H144.039V167.58H304.29V162.994H328.104C329.827 162.992 331.501 162.423 332.868 161.374C334.234 160.325 335.217 158.854 335.663 157.19L353.567 90.5285C353.883 89.3689 353.927 88.1524 353.697 86.973C353.467 85.7936 352.968 84.6829 352.24 83.7271C351.512 82.7712 350.573 81.9957 349.497 81.4606C348.421 80.9255 347.237 80.6451 346.035 80.6412Z" fill="#263238" stroke="#263238" stroke-linecap="round" stroke-linejoin="round"/>
<path d="M318.34 157.084H128.834L109.88 88.8791H337.286L318.34 157.084Z" fill="#92E3A9" stroke="#263238" stroke-linecap="round" stroke-linejoin="round"/>
<path d="M141.411 127.149V128.031H138.068V127.149H141.411Z" fill="#263238"/>
<path d="M145.574 127.149V128.031H142.222V127.149H145.574Z" fill="#263238"/>
<path d="M149.737 127.149V128.031H146.412V127.149H149.737Z" fill="#263238"/>
<path d="M153.891 127.149V128.031H150.549V127.149H153.891Z" fill="#263238"/>
<path d="M158.054 127.149V128.031H154.703V127.149H158.054Z" fill="#263238"/>
<path d="M162.217 127.149V128.031H158.866V127.149H162.217Z" fill="#263238"/>
<path d="M166.372 127.149V128.031H163.029V127.149H166.372Z" fill="#263238"/>
<path d="M170.491 131.797L166.804 121.972H167.686L171.373 131.797H170.491Z" fill="#263238"/>
<path d="M138.042 112.843V113.725H134.699V112.843H138.042Z" fill="#263238"/>
<path d="M142.205 112.843V113.725H138.862V112.843H142.205Z" fill="#263238"/>
<path d="M146.412 112.843V113.725H143.06V112.843H146.412Z" fill="#263238"/>
<path d="M150.531 112.843V113.725H147.179V112.843H150.531Z" fill="#263238"/>
<path d="M154.685 112.843V113.725H151.342V112.843H154.685Z" fill="#263238"/>
<path d="M161.724 112.843V113.725H158.372V112.843H161.724Z" fill="#263238"/>
<path d="M165.878 112.843V113.725H162.535V112.843H165.878Z" fill="#263238"/>
<path d="M170.041 112.843V113.725H166.698V112.843H170.041Z" fill="#263238"/>
<path d="M174.204 112.843V113.725H170.852V112.843H174.204Z" fill="#263238"/>
<path d="M178.358 112.843V113.725H175.015V112.843H178.358Z" fill="#263238"/>
<path d="M182.521 112.843V113.725H179.178V112.843H182.521Z" fill="#263238"/>
<path d="M186.684 112.843V113.725H183.333V112.843H186.684Z" fill="#263238"/>
<path d="M193.714 112.843V113.725H190.371V112.843H193.714Z" fill="#263238"/>
<path d="M197.877 112.843V113.725H194.525V112.843H197.877Z" fill="#263238"/>
<path d="M202.04 112.843V113.725H198.688V112.843H202.04Z" fill="#263238"/>
<path d="M209.034 112.843V113.725H205.691V112.843H209.034Z" fill="#263238"/>
<path d="M213.232 112.843V113.725H209.916V112.843H213.232Z" fill="#263238"/>
<path d="M217.395 112.843V113.725H214.044V112.843H217.395Z" fill="#263238"/>
<path d="M233.042 112.843V113.725H229.699V112.843H233.042Z" fill="#263238"/>
<path d="M237.205 112.843V113.725H233.854V112.843H237.205Z" fill="#263238"/>
<path d="M241.368 112.843V113.725H238.017V112.843H241.368Z" fill="#263238"/>
<path d="M245.522 112.843V113.725H242.18V112.843H245.522Z" fill="#263238"/>
<path d="M249.685 112.843V113.725H246.334V112.843H249.685Z" fill="#263238"/>
<path d="M256.715 112.843V113.725H253.372V112.843H256.715Z" fill="#263238"/>
<path d="M260.878 112.843V113.725H257.544V112.843H260.878Z" fill="#263238"/>
<path d="M265.041 112.843V113.725H261.689V112.843H265.041Z" fill="#263238"/>
<path d="M272.071 112.843V113.725H268.728V112.843H272.071Z" fill="#263238"/>
<path d="M279.109 112.843V113.725H275.757V112.843H279.109Z" fill="#263238"/>
<path d="M334.887 257.8L325.449 294.209L334.375 296.828L334.887 257.8Z" fill="white" stroke="#263238" stroke-linecap="round" stroke-linejoin="round"/>
<path d="M339.12 219.318C338.055 217.682 337.666 215.696 338.035 213.779C338.52 210.189 342.851 209.369 342.851 209.369C342.851 209.369 343.795 208.655 347.261 209.969C350.727 211.283 377.531 214.917 394.66 217.237C411.788 219.556 417.336 218.057 417.098 223.94C416.86 229.823 401.83 282.619 401.601 284.277C401.372 285.936 339.12 219.318 339.12 219.318Z" fill="white" stroke="#263238" stroke-miterlimit="10"/>
<path d="M411.166 229.087L339.113 219.32L327.47 305.208L399.523 314.976L411.166 229.087Z" fill="white" stroke="#263238" stroke-linecap="round" stroke-linejoin="round"/>
<path d="M397.773 246.219L401.963 246.792" stroke="#263238" stroke-width="0.5" stroke-linecap="round" stroke-linejoin="round"/>
<path d="M371.534 242.665L394.457 245.778" stroke="#263238" stroke-width="0.5" stroke-linecap="round" stroke-linejoin="round"/>
<path d="M343.751 238.898L368.217 242.215" stroke="#263238" stroke-width="0.5" stroke-linecap="round" stroke-linejoin="round"/>
<path d="M391.211 253.108L400.931 254.431" stroke="#263238" stroke-width="0.5" stroke-linecap="round" stroke-linejoin="round"/>
<path d="M342.719 246.537L381.271 251.758" stroke="#263238" stroke-width="0.5" stroke-linecap="round" stroke-linejoin="round"/>
<path d="M362.281 256.962L399.899 262.06" stroke="#263238" stroke-width="0.5" stroke-linecap="round" stroke-linejoin="round"/>
<path d="M341.678 254.166L358.409 256.441" stroke="#263238" stroke-width="0.5" stroke-linecap="round" stroke-linejoin="round"/>
<path d="M374.779 266.435L398.858 269.698" stroke="#263238" stroke-width="0.5" stroke-linecap="round" stroke-linejoin="round"/>
<path d="M354.344 263.656L372.019 266.055" stroke="#263238" stroke-width="0.5" stroke-linecap="round" stroke-linejoin="round"/>
<path d="M340.646 261.804L351.301 263.25" stroke="#263238" stroke-width="0.5" stroke-linecap="round" stroke-linejoin="round"/>
<path d="M389.209 276.163L397.826 277.327" stroke="#263238" stroke-width="0.5" stroke-linecap="round" stroke-linejoin="round"/>
<path d="M339.614 269.442L383.414 275.378" stroke="#263238" stroke-width="0.5" stroke-linecap="round" stroke-linejoin="round"/>
<path d="M372.433 281.658L396.794 284.965" stroke="#263238" stroke-width="0.5" stroke-linecap="round" stroke-linejoin="round"/>
<path d="M338.573 277.072L368.288 281.102" stroke="#263238" stroke-width="0.5" stroke-linecap="round" stroke-linejoin="round"/>
<path d="M379.957 290.46L395.753 292.595" stroke="#263238" stroke-width="0.5" stroke-linecap="round" stroke-linejoin="round"/>
<path d="M347.923 286.112L376.094 289.931" stroke="#263238" stroke-width="0.5" stroke-linecap="round" stroke-linejoin="round"/>
<path d="M337.541 284.71L344.606 285.662" stroke="#263238" stroke-width="0.5" stroke-linecap="round" stroke-linejoin="round"/>
<path d="M411.171 229.091C411.171 229.091 412.406 217.113 416.816 221.929" stroke="#263238" stroke-linecap="round" stroke-linejoin="round"/>
<path d="M386.739 321.357L386.66 328.968L382.224 322.706L364.416 262.81L368.932 261.46L386.739 321.357Z" fill="white" stroke="#263238" stroke-linecap="round" stroke-linejoin="round"/>
<path d="M367.164 264.02L364.7 264.738L382.197 324.728L384.661 324.01L367.164 264.02Z" fill="#92E3A9" stroke="#263238" stroke-width="0.5" stroke-linecap="round" stroke-linejoin="round"/>
<path d="M386.739 321.374L382.232 322.715L386.66 328.968L386.739 321.374Z" stroke="#263238" stroke-linecap="round" stroke-linejoin="round"/>
<path d="M384.446 325.837L386.66 328.968L386.704 325.167L384.446 325.837Z" fill="#263238" stroke="#263238" stroke-linecap="round" stroke-linejoin="round"/>
<path d="M364.681 255.427C364.083 255.607 363.581 256.016 363.283 256.564C362.986 257.113 362.918 257.757 363.093 258.356L364.416 262.81L368.932 261.469L367.609 257.015C367.429 256.417 367.02 255.915 366.472 255.618C365.923 255.32 365.279 255.252 364.681 255.427Z" fill="white" stroke="#263238" stroke-linecap="round" stroke-linejoin="round"/>
<path d="M364.681 255.427C364.083 255.607 363.581 256.016 363.283 256.564C362.986 257.113 362.918 257.757 363.093 258.355L363.728 260.481L368.235 259.14L367.609 257.015C367.429 256.417 367.02 255.915 366.472 255.618C365.923 255.32 365.279 255.252 364.681 255.427Z" fill="#263238" stroke="#263238" stroke-linecap="round" stroke-linejoin="round"/>
<path d="M142.575 220.05C142.011 220.844 141.455 221.673 140.9 222.546" stroke="white" stroke-linecap="round" stroke-linejoin="round"/>
<path d="M151.801 209.431C149.343 211.709 147.07 214.177 145.001 216.813" stroke="white" stroke-linecap="round" stroke-linejoin="round"/>
<path d="M141.79 214.114C139.381 217.494 137.197 221.03 135.255 224.698" stroke="white" stroke-linecap="round" stroke-linejoin="round"/>
<path d="M203.998 233.51C203.442 234.303 202.878 235.132 202.322 235.997" stroke="white" stroke-linecap="round" stroke-linejoin="round"/>
<path d="M213.224 222.89C210.77 225.17 208.5 227.638 206.432 230.273" stroke="white" stroke-linecap="round" stroke-linejoin="round"/>
<path d="M203.222 227.556C200.813 230.955 198.63 234.508 196.686 238.193" stroke="white" stroke-linecap="round" stroke-linejoin="round"/>
<path d="M292.039 211.68C291.236 211.133 290.39 210.586 289.516 210.039" stroke="white" stroke-linecap="round" stroke-linejoin="round"/>
<path d="M302.799 220.747C300.48 218.331 297.976 216.099 295.311 214.07" stroke="white" stroke-linecap="round" stroke-linejoin="round"/>
<path d="M297.966 210.798C294.534 208.441 290.951 206.311 287.241 204.421" stroke="white" stroke-linecap="round" stroke-linejoin="round"/>
<path d="M201.316 266.364C200.858 269.68 200.17 274.302 199.482 277.045" stroke="#263238" stroke-linecap="round" stroke-linejoin="round"/>
<path d="M201.828 262.333C201.828 262.333 201.758 262.959 201.625 263.974" stroke="#263238" stroke-linecap="round" stroke-linejoin="round"/>
<path d="M204.183 271.744C203.22 274.957 202.041 278.101 200.655 281.155" stroke="#263238" stroke-linecap="round" stroke-linejoin="round"/>
<path d="M248.283 276.445C248.283 276.445 248.874 284.092 252.984 288.211" stroke="#263238" stroke-linecap="round" stroke-linejoin="round"/>
<path d="M247.692 284.092C247.692 284.092 249.456 289.384 252.984 291.739" stroke="#263238" stroke-linecap="round" stroke-linejoin="round"/>
<g style="mix-blend-mode:multiply">
<path d="M127.89 324.964C127.89 324.964 131.806 321.815 131.806 294.747C131.806 267.678 136.313 247.904 141.87 239.234C147.426 230.564 152.621 227.089 155.056 227.089C157.49 227.089 155.744 230.211 152.277 234.718C148.811 239.225 145.689 241.659 144.295 247.216C142.902 252.772 142.91 259.705 144.648 259.008C146.386 258.311 149.155 244.437 151.581 239.234C154.006 234.03 159.915 227.432 163.382 224.31C166.848 221.188 174.486 211.821 177.952 214.247C181.419 216.672 179.346 220.147 177.264 221.532C175.183 222.917 166.848 231.234 163.038 236.455C159.227 241.677 156.793 254.845 158.875 255.189C160.956 255.533 167.201 236.111 170.667 231.948C174.133 227.785 188.016 216.328 191.138 215.984C194.261 215.64 194.613 220.491 191.835 222.925C189.057 225.36 179.69 235.759 176.568 242.003C173.445 248.248 172.052 259.705 174.804 256.927C177.555 254.148 182.089 242.7 185.908 238.881C189.727 235.062 201.175 222.925 203.954 224.31C206.732 225.695 206.035 229.17 203.61 231.596C201.184 234.021 191.809 247.216 189.383 254.148C186.958 261.081 184.17 280.52 185.564 277.751C186.958 274.981 191.465 260.746 193.89 254.819C196.316 248.892 201.175 246.149 201.872 248.918C202.569 251.687 201.175 253.081 199.438 259.334C197.7 265.588 197.674 282.266 192.505 291.598C187.337 300.93 166.592 320.898 163.823 327.831C161.817 332.606 159.421 337.207 156.661 341.59" fill="#92E3A9"/>
</g>
<g style="mix-blend-mode:multiply">
<path d="M320.651 327.31C320.651 327.31 316.638 321.815 316.638 294.747C316.638 267.678 312.122 247.904 306.574 239.234C301.027 230.564 295.814 227.089 293.388 227.089C290.963 227.089 292.692 230.211 296.167 234.718C299.642 239.225 302.755 241.659 304.105 247.216C305.454 252.772 305.498 259.705 303.761 259.008C302.023 258.311 299.254 244.437 296.819 239.234C294.385 234.03 288.493 227.432 285.027 224.31C281.561 221.188 273.923 211.821 270.448 214.247C266.973 216.672 269.063 220.147 271.144 221.532C273.226 222.917 281.552 231.234 285.371 236.455C289.19 241.677 291.616 254.845 289.534 255.189C287.453 255.533 281.235 236.111 277.768 231.966C274.302 227.821 260.41 216.346 257.288 216.002C254.166 215.658 253.822 220.509 256.6 222.943C259.379 225.377 268.745 235.776 271.868 242.021C274.99 248.265 276.375 259.723 273.632 256.944C270.889 254.166 266.346 242.718 262.536 238.898C258.726 235.079 247.269 222.943 244.49 224.328C241.712 225.713 242.409 229.188 244.834 231.613C247.26 234.039 256.636 247.233 259.061 254.166C261.487 261.098 264.265 280.538 262.88 277.768C261.495 274.999 256.979 260.763 254.554 254.836C252.128 248.909 247.269 246.166 246.572 248.936C245.875 251.705 247.269 253.099 248.997 259.352C250.726 265.605 250.761 282.284 255.939 291.616C261.116 300.947 281.27 319.161 284.048 326.102C286.826 333.043 291.854 343.98 291.854 343.98" fill="#92E3A9"/>
</g>
<path d="M126.567 331.632C126.567 331.632 131.771 314.636 131.771 287.532C131.771 260.428 136.278 240.689 141.834 232.019C147.391 223.349 152.586 219.874 155.02 219.874C157.455 219.874 155.708 222.996 152.242 227.503C148.776 232.01 145.653 234.444 144.26 239.992C142.866 245.54 142.875 252.49 144.613 251.793C146.35 251.097 149.12 237.223 151.545 232.019C153.971 226.815 159.88 220.218 163.346 217.095C166.813 213.973 174.451 204.606 177.917 207.032C181.383 209.457 179.311 212.932 177.229 214.317C175.148 215.702 166.813 224.019 163.002 229.241C159.192 234.462 156.758 247.63 158.839 247.974C160.921 248.318 167.165 228.897 170.632 224.725C174.098 220.553 187.981 209.113 191.103 208.769C194.225 208.425 194.578 213.276 191.8 215.711C189.021 218.145 179.655 228.544 176.532 234.788C173.41 241.033 172.016 252.49 174.768 249.712C177.52 246.934 182.054 235.485 185.873 231.666C189.692 227.847 201.14 215.711 203.918 217.095C206.697 218.48 206 221.955 203.574 224.381C201.149 226.806 191.773 239.992 189.348 246.934C186.922 253.875 184.135 273.305 185.529 270.527C186.922 267.749 191.429 253.531 193.855 247.595C196.28 241.659 201.14 238.916 201.837 241.694C202.534 244.473 201.14 245.857 199.403 252.102C197.665 258.347 197.639 275.034 192.47 284.374C187.302 293.715 167.139 319.072 164.361 326.014C161.582 332.955 155.338 348.222 155.338 348.222" fill="white"/>
<path d="M126.567 331.632C126.567 331.632 131.771 314.636 131.771 287.532C131.771 260.428 136.278 240.689 141.834 232.019C147.391 223.349 152.586 219.874 155.02 219.874C157.455 219.874 155.708 222.996 152.242 227.503C148.776 232.01 145.653 234.444 144.26 239.992C142.866 245.54 142.875 252.49 144.613 251.793C146.35 251.097 149.12 237.223 151.545 232.019C153.971 226.815 159.88 220.218 163.346 217.095C166.813 213.973 174.451 204.606 177.917 207.032C181.383 209.457 179.311 212.932 177.229 214.317C175.148 215.702 166.813 224.019 163.002 229.241C159.192 234.462 156.758 247.63 158.839 247.974C160.921 248.318 167.165 228.897 170.632 224.725C174.098 220.553 187.981 209.113 191.103 208.769C194.225 208.425 194.578 213.276 191.8 215.711C189.021 218.145 179.655 228.544 176.532 234.788C173.41 241.033 172.016 252.49 174.768 249.712C177.52 246.934 182.054 235.485 185.873 231.666C189.692 227.847 201.14 215.711 203.918 217.095C206.697 218.48 206 221.955 203.574 224.381C201.149 226.806 191.773 239.992 189.348 246.934C186.922 253.875 184.135 273.305 185.529 270.527C186.922 267.749 191.429 253.531 193.855 247.595C196.28 241.659 201.14 238.916 201.837 241.694C202.534 244.473 201.14 245.857 199.403 252.102C197.665 258.347 197.639 275.034 192.47 284.374C187.302 293.715 167.139 319.072 164.361 326.014C161.582 332.955 155.338 348.222 155.338 348.222" stroke="#263238" stroke-linecap="round" stroke-linejoin="round"/>
<path d="M321.833 331.632C321.833 331.632 316.629 314.636 316.629 287.532C316.629 260.428 312.113 240.689 306.565 232.019C301.018 223.349 295.805 219.874 293.38 219.874C290.954 219.874 292.683 222.996 296.158 227.503C299.633 232.01 302.746 234.444 304.096 239.992C305.445 245.54 305.489 252.49 303.752 251.793C302.014 251.097 299.245 237.223 296.811 232.019C294.376 226.815 288.485 220.218 285.018 217.095C281.552 213.973 273.914 204.606 270.439 207.032C266.964 209.457 269.054 212.932 271.136 214.317C273.217 215.702 281.543 224.019 285.362 229.241C289.181 234.462 291.607 247.63 289.525 247.974C287.444 248.318 281.199 228.897 277.733 224.725C274.267 220.553 260.375 209.113 257.253 208.769C254.131 208.425 253.787 213.276 256.565 215.711C259.343 218.145 268.71 228.544 271.832 234.788C274.955 241.033 276.339 252.49 273.596 249.712C270.853 246.934 266.311 235.485 262.501 231.666C258.691 227.847 247.233 215.711 244.455 217.095C241.677 218.48 242.374 221.955 244.799 224.381C247.225 226.806 256.6 239.992 259.026 246.934C261.451 253.875 264.23 273.305 262.845 270.527C261.46 267.749 256.944 253.531 254.519 247.595C252.093 241.659 247.233 238.916 246.537 241.694C245.84 244.473 247.233 245.857 248.962 252.102C250.691 258.347 250.726 275.034 255.903 284.374C261.081 293.715 281.234 319.072 284.013 326.014C286.791 332.955 293.036 348.222 293.036 348.222" fill="white"/>
<path d="M321.833 331.632C321.833 331.632 316.629 314.636 316.629 287.532C316.629 260.428 312.113 240.689 306.565 232.019C301.018 223.349 295.805 219.874 293.38 219.874C290.954 219.874 292.683 222.996 296.158 227.503C299.633 232.01 302.746 234.444 304.096 239.992C305.445 245.54 305.489 252.49 303.752 251.793C302.014 251.097 299.245 237.223 296.811 232.019C294.376 226.815 288.485 220.218 285.018 217.095C281.552 213.973 273.914 204.606 270.439 207.032C266.964 209.457 269.054 212.932 271.136 214.317C273.217 215.702 281.543 224.019 285.362 229.241C289.181 234.462 291.607 247.63 289.525 247.974C287.444 248.318 281.199 228.897 277.733 224.725C274.267 220.553 260.375 209.113 257.253 208.769C254.131 208.425 253.787 213.276 256.565 215.711C259.343 218.145 268.71 228.544 271.832 234.788C274.955 241.033 276.339 252.49 273.596 249.712C270.853 246.934 266.311 235.485 262.501 231.666C258.691 227.847 247.233 215.711 244.455 217.095C241.677 218.48 242.374 221.955 244.799 224.381C247.225 226.806 256.6 239.992 259.026 246.934C261.451 253.875 264.23 273.305 262.845 270.527C261.46 267.749 256.944 253.531 254.519 247.595C252.093 241.659 247.233 238.916 246.537 241.694C245.84 244.473 247.233 245.857 248.962 252.102C250.691 258.347 250.726 275.034 255.903 284.374C261.081 293.715 281.234 319.072 284.013 326.014C286.791 332.955 293.036 348.222 293.036 348.222" stroke="#263238" stroke-linecap="round" stroke-linejoin="round"/>
<path d="M104.605 384.552H157.525C158.213 381.906 159.078 378.943 160.171 375.732C164.334 363.261 177.811 347.667 177.811 347.667C168.152 339.16 156.802 332.793 144.507 328.986C124.221 322.741 109.368 324.576 109.368 324.576C112.102 335.849 112.403 347.576 110.25 358.974C107.604 371.816 105.84 379.939 104.605 384.552Z" fill="#263238" stroke="#263238" stroke-linecap="round" stroke-linejoin="round"/>
<path d="M290.531 384.552H345.515C343.751 379.983 339.94 370.061 336.13 360.138C330.926 346.626 333.008 328.439 330.926 328.439C328.845 328.439 305.463 326.878 294.032 330.512C282.602 334.146 269.601 344.544 269.601 344.544C275.486 351.383 280.545 358.89 284.674 366.912C287.328 372.535 289.295 378.458 290.531 384.552Z" fill="#263238" stroke="#263238" stroke-linecap="round" stroke-linejoin="round"/>
<path d="M137.663 335.336C137.283 333.837 131.639 336.095 131.639 336.095C131.639 336.095 133.526 328.951 130.518 328.951C127.511 328.951 127.131 334.243 127.131 334.243C127.131 334.243 121.487 331.994 121.487 335.372C121.487 338.75 125.244 338.688 125.244 338.688C125.244 338.688 120.728 344.333 124.115 345.453C127.502 346.573 129.751 342.445 129.751 342.445C129.751 342.445 132.009 346.211 135.043 344.703C138.077 343.195 135.793 339.817 135.793 339.817C135.793 339.817 138.033 336.845 137.663 335.336ZM130.139 340.981C129.855 340.918 129.595 340.776 129.388 340.571C129.182 340.367 129.037 340.108 128.971 339.825C128.905 339.541 128.92 339.245 129.015 338.97C129.11 338.695 129.281 338.453 129.508 338.271C129.735 338.089 130.008 337.975 130.297 337.941C130.586 337.908 130.879 337.957 131.141 338.082C131.403 338.208 131.625 338.405 131.78 338.651C131.935 338.897 132.017 339.182 132.018 339.473C131.954 339.916 131.725 340.318 131.376 340.598C131.027 340.878 130.585 341.015 130.139 340.981ZM145.936 377.496C145.556 375.997 139.912 378.254 139.912 378.254C139.912 378.254 141.799 371.11 138.783 371.11C135.766 371.11 135.405 376.402 135.405 376.402C135.405 376.402 129.76 374.144 129.76 377.522C129.76 380.9 133.526 380.909 133.526 380.909C133.526 380.909 129.01 386.554 132.397 387.683C135.784 388.812 138.033 384.667 138.033 384.667C138.033 384.667 140.291 388.433 143.325 386.925C146.359 385.416 144.075 382.038 144.075 382.038C144.075 382.038 146.306 378.96 145.936 377.496ZM138.412 383.141C138.128 383.078 137.868 382.936 137.661 382.731C137.455 382.526 137.31 382.267 137.244 381.984C137.178 381.701 137.194 381.405 137.289 381.13C137.384 380.855 137.554 380.613 137.781 380.43C138.008 380.248 138.282 380.134 138.57 380.101C138.859 380.067 139.152 380.116 139.414 380.242C139.676 380.368 139.898 380.565 140.053 380.811C140.208 381.057 140.291 381.342 140.291 381.633C140.227 382.072 139.996 382.47 139.646 382.742C139.296 383.015 138.854 383.142 138.412 383.097V383.141ZM112.834 383.141C112.455 381.633 106.819 383.89 106.819 383.89C106.819 383.89 108.698 376.746 105.69 376.746C102.682 376.746 102.303 382.038 102.303 382.038C102.303 382.038 96.6584 379.78 96.6584 383.167C96.6584 386.554 100.425 386.554 100.425 386.554C100.425 386.554 95.9087 392.19 99.2956 393.319C102.682 394.448 104.932 390.311 104.932 390.311C104.932 390.311 107.189 394.069 110.224 392.569C113.258 391.07 110.982 387.683 110.982 387.683C110.982 387.683 113.214 384.596 112.843 383.097L112.834 383.141ZM105.311 388.777C105.027 388.714 104.766 388.571 104.559 388.366C104.352 388.161 104.208 387.902 104.142 387.618C104.077 387.334 104.093 387.038 104.188 386.763C104.284 386.488 104.456 386.245 104.683 386.064C104.911 385.882 105.185 385.768 105.475 385.736C105.764 385.704 106.057 385.754 106.319 385.881C106.581 386.008 106.802 386.206 106.956 386.453C107.11 386.7 107.191 386.986 107.189 387.277C107.124 387.713 106.893 388.108 106.545 388.378C106.197 388.649 105.758 388.776 105.32 388.733L105.311 388.777ZM153.821 353.805H157.957C160.965 353.805 162.844 357.192 162.844 357.192C156.458 359.027 153.83 353.761 153.83 353.761L153.821 353.805ZM149.684 383.141H153.821C156.828 383.141 158.707 386.528 158.707 386.528C152.321 388.362 149.693 383.097 149.693 383.097L149.684 383.141ZM113.593 377.496H117.729C120.737 377.496 122.616 380.883 122.616 380.883C116.221 382.717 113.593 377.496 113.593 377.496ZM133.588 350.957L136.004 354.317C137.768 356.769 136.101 360.262 136.101 360.262C130.845 356.125 133.588 350.912 133.588 350.912V350.957ZM112.896 362.193L114.783 358.515C116.168 355.869 120.031 355.711 120.031 355.711C118.735 362.255 112.896 362.193 112.896 362.193Z" fill="white"/>
<path d="M314.777 342.481C314.398 340.981 308.753 343.239 308.753 343.239C308.753 343.239 310.64 336.095 307.633 336.095C304.625 336.095 304.246 341.387 304.246 341.387C304.246 341.387 298.601 339.138 298.601 342.516C298.601 345.894 302.367 345.903 302.367 345.903C302.367 345.903 297.851 351.548 301.238 352.677C304.625 353.805 306.874 349.66 306.874 349.66C306.874 349.66 309.132 353.426 312.166 351.918C315.2 350.41 312.916 347.032 312.916 347.032C312.916 347.032 315.147 343.98 314.777 342.481ZM307.254 348.125C306.97 348.062 306.709 347.92 306.503 347.716C306.296 347.511 306.151 347.252 306.085 346.969C306.019 346.686 306.035 346.389 306.13 346.114C306.225 345.84 306.396 345.597 306.622 345.415C306.849 345.233 307.123 345.119 307.412 345.085C307.701 345.052 307.993 345.101 308.255 345.227C308.518 345.352 308.739 345.549 308.894 345.795C309.049 346.042 309.132 346.326 309.132 346.617C309.079 347.065 308.852 347.473 308.501 347.755C308.15 348.037 307.702 348.17 307.254 348.125ZM332.443 371.816C332.073 370.308 326.428 372.566 326.428 372.566C326.428 372.566 328.307 365.421 325.299 365.421C322.292 365.421 321.921 370.713 321.921 370.713C321.921 370.713 316.276 368.455 316.276 371.842C316.276 375.229 320.034 375.229 320.034 375.229C320.034 375.229 315.527 380.865 318.914 381.994C322.3 383.123 324.55 378.987 324.55 378.987C324.55 378.987 326.807 382.744 329.842 381.244C332.876 379.745 330.591 376.358 330.591 376.358C330.591 376.358 332.823 373.315 332.443 371.816ZM324.929 377.496C324.645 377.433 324.384 377.29 324.177 377.085C323.97 376.88 323.826 376.621 323.76 376.337C323.695 376.053 323.711 375.757 323.806 375.482C323.902 375.207 324.074 374.965 324.301 374.783C324.529 374.601 324.803 374.488 325.093 374.455C325.382 374.423 325.675 374.473 325.937 374.6C326.199 374.727 326.42 374.926 326.574 375.173C326.728 375.42 326.809 375.705 326.807 375.997C326.752 376.442 326.525 376.849 326.174 377.129C325.823 377.409 325.376 377.541 324.929 377.496ZM313.648 383.141C313.269 381.633 307.633 383.89 307.633 383.89C307.633 383.89 309.511 376.746 306.504 376.746C303.496 376.746 303.117 382.038 303.117 382.038C303.117 382.038 297.472 379.78 297.472 383.167C297.472 386.554 301.238 386.554 301.238 386.554C301.238 386.554 296.722 392.19 300.109 393.319C303.496 394.448 305.745 390.311 305.745 390.311C305.745 390.311 308.003 394.069 311.037 392.569C314.071 391.07 311.796 387.683 311.796 387.683C311.796 387.683 313.992 384.596 313.648 383.097V383.141ZM306.125 388.777C305.84 388.714 305.58 388.571 305.373 388.366C305.166 388.161 305.022 387.902 304.956 387.618C304.89 387.334 304.906 387.038 305.002 386.763C305.098 386.488 305.269 386.245 305.497 386.064C305.725 385.882 305.999 385.769 306.288 385.736C306.578 385.704 306.87 385.754 307.132 385.881C307.395 386.008 307.615 386.206 307.77 386.453C307.924 386.701 308.005 386.986 308.003 387.277C307.938 387.715 307.706 388.111 307.356 388.382C307.006 388.653 306.565 388.778 306.125 388.733V388.777ZM330.944 360.95H335.081C338.088 360.95 339.967 364.337 339.967 364.337C333.572 366.171 330.944 360.906 330.944 360.906V360.95ZM286.571 382.347H290.707C293.715 382.347 295.594 385.725 295.594 385.725C289.199 387.613 286.571 382.347 286.571 382.347ZM310.702 358.092L313.119 361.452C314.883 363.904 313.216 367.397 313.216 367.397C307.959 363.269 310.702 358.092 310.702 358.092ZM335.16 379.119L337.568 382.479C339.332 384.922 337.665 388.424 337.665 388.424C332.408 384.323 335.16 379.119 335.16 379.119ZM289.975 369.337L291.863 365.66C293.247 363.014 297.155 362.855 297.155 362.855C295.849 369.399 289.966 369.337 289.966 369.337H289.975Z" fill="white"/>
</svg>
