<svg width="211" height="39" viewBox="0 0 211 39" fill="none" xmlns="http://www.w3.org/2000/svg">
<path d="M55.098 14.0517C56.2313 14.0517 57.1447 14.2317 57.838 14.5917C58.5313 14.9383 58.878 15.405 58.878 15.9917C58.878 16.285 58.7913 16.545 58.618 16.7717C58.4447 16.985 58.218 17.0917 57.938 17.0917C57.7247 17.0917 57.5513 17.065 57.418 17.0117C57.2847 16.945 57.1513 16.865 57.018 16.7717C56.898 16.665 56.778 16.5783 56.658 16.5117C56.5247 16.445 56.3247 16.385 56.058 16.3317C55.8047 16.2783 55.598 16.2517 55.438 16.2517C54.438 16.2517 53.6513 16.565 53.078 17.1917C52.518 17.805 52.238 18.6117 52.238 19.6117C52.238 20.5717 52.5247 21.3717 53.098 22.0117C53.6713 22.6383 54.4047 22.9517 55.298 22.9517C55.9513 22.9517 56.438 22.8717 56.758 22.7117C56.838 22.6717 56.9447 22.605 57.078 22.5117C57.2247 22.405 57.358 22.325 57.478 22.2717C57.598 22.2183 57.7447 22.1917 57.918 22.1917C58.2513 22.1917 58.5113 22.2983 58.698 22.5117C58.898 22.725 58.998 22.9983 58.998 23.3317C58.998 23.6517 58.8113 23.9517 58.438 24.2317C58.0647 24.5117 57.5713 24.7383 56.958 24.9117C56.3447 25.0717 55.6913 25.1517 54.998 25.1517C53.9713 25.1517 53.0647 24.9117 52.278 24.4317C51.5047 23.9517 50.9047 23.2917 50.478 22.4517C50.0513 21.5983 49.838 20.6517 49.838 19.6117C49.838 18.5317 50.058 17.5717 50.498 16.7317C50.9513 15.8917 51.578 15.2383 52.378 14.7717C53.178 14.2917 54.0847 14.0517 55.098 14.0517ZM66.291 14.0517C66.691 14.0517 67.0243 14.165 67.291 14.3917C67.571 14.6183 67.711 14.885 67.711 15.1917C67.711 15.605 67.6043 15.9183 67.391 16.1317C67.1776 16.3317 66.9243 16.4317 66.631 16.4317C66.431 16.4317 66.2043 16.385 65.951 16.2917C65.911 16.2783 65.8176 16.2517 65.671 16.2117C65.5376 16.1717 65.391 16.1517 65.231 16.1517C64.8843 16.1517 64.551 16.2583 64.231 16.4717C63.911 16.685 63.6443 17.0117 63.431 17.4517C63.231 17.8783 63.131 18.3917 63.131 18.9917V23.7317C63.131 24.0783 63.0176 24.3717 62.791 24.6117C62.5643 24.8383 62.2776 24.9517 61.931 24.9517C61.5843 24.9517 61.2976 24.8383 61.071 24.6117C60.8443 24.3717 60.731 24.0783 60.731 23.7317V15.4717C60.731 15.125 60.8443 14.8383 61.071 14.6117C61.2976 14.3717 61.5843 14.2517 61.931 14.2517C62.2776 14.2517 62.5643 14.3717 62.791 14.6117C63.0176 14.8383 63.131 15.125 63.131 15.4717V15.7317C63.4376 15.185 63.8776 14.7717 64.451 14.4917C65.0243 14.1983 65.6376 14.0517 66.291 14.0517ZM78.5536 19.3517C78.5403 19.6717 78.4136 19.9317 78.1736 20.1317C77.9336 20.3317 77.6536 20.4317 77.3336 20.4317H70.7336C70.8936 21.2183 71.2603 21.8383 71.8336 22.2917C72.407 22.7317 73.0536 22.9517 73.7736 22.9517C74.3203 22.9517 74.747 22.905 75.0536 22.8117C75.3603 22.705 75.6003 22.5983 75.7736 22.4917C75.9603 22.3717 76.087 22.2917 76.1536 22.2517C76.3936 22.1317 76.6203 22.0717 76.8336 22.0717C77.1136 22.0717 77.3536 22.1717 77.5536 22.3717C77.7536 22.5717 77.8536 22.805 77.8536 23.0717C77.8536 23.4317 77.667 23.7583 77.2936 24.0517C76.9203 24.3583 76.4203 24.6183 75.7936 24.8317C75.167 25.045 74.5336 25.1517 73.8936 25.1517C72.7736 25.1517 71.7936 24.9183 70.9536 24.4517C70.127 23.985 69.487 23.345 69.0336 22.5317C68.5803 21.705 68.3536 20.7783 68.3536 19.7517C68.3536 18.605 68.5936 17.5983 69.0736 16.7317C69.5536 15.865 70.187 15.205 70.9736 14.7517C71.7603 14.285 72.6003 14.0517 73.4936 14.0517C74.3736 14.0517 75.2003 14.2917 75.9736 14.7717C76.7603 15.2517 77.387 15.8983 77.8536 16.7117C78.3203 17.525 78.5536 18.405 78.5536 19.3517ZM73.4936 16.2517C71.947 16.2517 71.0336 16.9783 70.7536 18.4317H75.9936V18.2917C75.9403 17.7317 75.667 17.2517 75.1736 16.8517C74.6803 16.4517 74.1203 16.2517 73.4936 16.2517ZM89.2933 14.0517C89.64 14.0517 89.9267 14.165 90.1533 14.3917C90.38 14.6183 90.4933 14.9117 90.4933 15.2717V23.7317C90.4933 24.0783 90.38 24.3717 90.1533 24.6117C89.9267 24.8383 89.64 24.9517 89.2933 24.9517C88.9467 24.9517 88.66 24.8383 88.4333 24.6117C88.22 24.385 88.1067 24.0983 88.0933 23.7517C87.76 24.1383 87.3067 24.4717 86.7333 24.7517C86.1733 25.0183 85.58 25.1517 84.9533 25.1517C84.0333 25.1517 83.2 24.9183 82.4533 24.4517C81.7067 23.9717 81.1133 23.3117 80.6733 22.4717C80.2467 21.6317 80.0333 20.6783 80.0333 19.6117C80.0333 18.545 80.2467 17.5917 80.6733 16.7517C81.1 15.8983 81.68 15.2383 82.4133 14.7717C83.16 14.2917 83.98 14.0517 84.8733 14.0517C85.5133 14.0517 86.1133 14.1717 86.6733 14.4117C87.2333 14.6383 87.7067 14.9317 88.0933 15.2917V15.2717C88.0933 14.925 88.2067 14.6383 88.4333 14.4117C88.66 14.1717 88.9467 14.0517 89.2933 14.0517ZM85.2533 22.9517C86.12 22.9517 86.8267 22.6383 87.3733 22.0117C87.92 21.3717 88.1933 20.5717 88.1933 19.6117C88.1933 18.6517 87.92 17.8517 87.3733 17.2117C86.8267 16.5717 86.12 16.2517 85.2533 16.2517C84.4 16.2517 83.7 16.5717 83.1533 17.2117C82.6067 17.8517 82.3333 18.6517 82.3333 19.6117C82.3333 20.5717 82.6 21.3717 83.1333 22.0117C83.68 22.6383 84.3867 22.9517 85.2533 22.9517ZM98.2543 22.6917C98.4409 22.6917 98.6076 22.785 98.7543 22.9717C98.9143 23.145 98.9943 23.3783 98.9943 23.6717C98.9943 24.0317 98.7943 24.3383 98.3943 24.5917C98.0076 24.8317 97.5676 24.9517 97.0743 24.9517C96.2476 24.9517 95.5476 24.7783 94.9743 24.4317C94.4143 24.0717 94.1343 23.3183 94.1343 22.1717V16.6517H93.2143C92.8943 16.6517 92.6276 16.545 92.4143 16.3317C92.2009 16.1183 92.0943 15.8517 92.0943 15.5317C92.0943 15.225 92.2009 14.9717 92.4143 14.7717C92.6276 14.5583 92.8943 14.4517 93.2143 14.4517H94.1343V13.1717C94.1343 12.825 94.2476 12.5383 94.4743 12.3117C94.7143 12.0717 95.0076 11.9517 95.3543 11.9517C95.6876 11.9517 95.9676 12.0717 96.1943 12.3117C96.4209 12.5383 96.5343 12.825 96.5343 13.1717V14.4517H97.9543C98.2743 14.4517 98.5409 14.5583 98.7543 14.7717C98.9676 14.985 99.0743 15.2517 99.0743 15.5717C99.0743 15.8783 98.9676 16.1383 98.7543 16.3517C98.5409 16.5517 98.2743 16.6517 97.9543 16.6517H96.5343V22.0717C96.5343 22.3517 96.6076 22.5583 96.7543 22.6917C96.9009 22.8117 97.1009 22.8717 97.3543 22.8717C97.4609 22.8717 97.6076 22.845 97.7943 22.7917C97.9543 22.725 98.1076 22.6917 98.2543 22.6917ZM103.538 23.7317C103.538 24.0783 103.425 24.3717 103.198 24.6117C102.971 24.8383 102.685 24.9517 102.338 24.9517C101.991 24.9517 101.705 24.8383 101.478 24.6117C101.251 24.3717 101.138 24.0783 101.138 23.7317V15.4717C101.138 15.125 101.251 14.8383 101.478 14.6117C101.705 14.3717 101.991 14.2517 102.338 14.2517C102.685 14.2517 102.971 14.3717 103.198 14.6117C103.425 14.8383 103.538 15.125 103.538 15.4717V23.7317ZM102.318 12.9517C101.865 12.9517 101.545 12.8783 101.358 12.7317C101.171 12.585 101.078 12.325 101.078 11.9517V11.5717C101.078 11.1983 101.178 10.9383 101.378 10.7917C101.578 10.645 101.898 10.5717 102.338 10.5717C102.805 10.5717 103.131 10.645 103.318 10.7917C103.505 10.9383 103.598 11.1983 103.598 11.5717V11.9517C103.598 12.3383 103.498 12.605 103.298 12.7517C103.111 12.885 102.785 12.9517 102.318 12.9517ZM114.224 14.2717C114.544 14.2717 114.811 14.3783 115.024 14.5917C115.238 14.7917 115.344 15.045 115.344 15.3517C115.344 15.5117 115.291 15.7117 115.184 15.9517L111.444 24.1917C111.351 24.4183 111.211 24.5983 111.024 24.7317C110.851 24.865 110.651 24.9383 110.424 24.9517L110.244 24.9717C110.018 24.9717 109.804 24.905 109.604 24.7717C109.418 24.625 109.271 24.4317 109.164 24.1917L105.444 15.9517C105.351 15.7383 105.304 15.525 105.304 15.3117C105.304 15.045 105.418 14.805 105.644 14.5917C105.871 14.365 106.151 14.2517 106.484 14.2517C106.738 14.2517 106.971 14.3183 107.184 14.4517C107.398 14.585 107.558 14.7717 107.664 15.0117L110.424 21.3317L113.164 15.0317C113.271 14.7783 113.418 14.585 113.604 14.4517C113.791 14.3183 113.998 14.2583 114.224 14.2717ZM126.737 19.3517C126.724 19.6717 126.597 19.9317 126.357 20.1317C126.117 20.3317 125.837 20.4317 125.517 20.4317H118.917C119.077 21.2183 119.444 21.8383 120.017 22.2917C120.591 22.7317 121.237 22.9517 121.957 22.9517C122.504 22.9517 122.931 22.905 123.237 22.8117C123.544 22.705 123.784 22.5983 123.957 22.4917C124.144 22.3717 124.271 22.2917 124.337 22.2517C124.577 22.1317 124.804 22.0717 125.017 22.0717C125.297 22.0717 125.537 22.1717 125.737 22.3717C125.937 22.5717 126.037 22.805 126.037 23.0717C126.037 23.4317 125.851 23.7583 125.477 24.0517C125.104 24.3583 124.604 24.6183 123.977 24.8317C123.351 25.045 122.717 25.1517 122.077 25.1517C120.957 25.1517 119.977 24.9183 119.137 24.4517C118.311 23.985 117.671 23.345 117.217 22.5317C116.764 21.705 116.537 20.7783 116.537 19.7517C116.537 18.605 116.777 17.5983 117.257 16.7317C117.737 15.865 118.371 15.205 119.157 14.7517C119.944 14.285 120.784 14.0517 121.677 14.0517C122.557 14.0517 123.384 14.2917 124.157 14.7717C124.944 15.2517 125.571 15.8983 126.037 16.7117C126.504 17.525 126.737 18.405 126.737 19.3517ZM121.677 16.2517C120.131 16.2517 119.217 16.9783 118.937 18.4317H124.177V18.2917C124.124 17.7317 123.851 17.2517 123.357 16.8517C122.864 16.4517 122.304 16.2517 121.677 16.2517ZM140.639 21.0317C140.625 21.1117 140.619 21.2183 140.619 21.3517C140.619 21.6717 140.692 21.9117 140.839 22.0717C140.999 22.2317 141.199 22.3117 141.439 22.3117C141.959 22.3117 142.439 22.0583 142.879 21.5517C143.319 21.0317 143.672 20.365 143.939 19.5517C144.205 18.725 144.339 17.885 144.339 17.0317C144.339 16.0983 144.119 15.2783 143.679 14.5717C143.239 13.8517 142.612 13.2983 141.799 12.9117C140.985 12.5117 140.039 12.3117 138.959 12.3117C137.252 12.3117 135.705 12.6517 134.319 13.3317C132.932 14.0117 131.839 14.9983 131.039 16.2917C130.239 17.5717 129.839 19.085 129.839 20.8317C129.839 21.845 130.045 22.7917 130.459 23.6717C130.872 24.5517 131.519 25.265 132.399 25.8117C133.279 26.3583 134.385 26.6317 135.719 26.6317C136.732 26.6317 137.559 26.5317 138.199 26.3317C138.839 26.145 139.512 25.8517 140.219 25.4517C140.365 25.3717 140.492 25.3317 140.599 25.3317C140.865 25.3317 141.065 25.4983 141.199 25.8317C141.239 25.9117 141.259 25.9917 141.259 26.0717C141.259 26.365 141.005 26.645 140.499 26.9117C139.685 27.325 138.932 27.6383 138.239 27.8517C137.545 28.0783 136.705 28.1917 135.719 28.1917C134.012 28.1917 132.599 27.845 131.479 27.1517C130.359 26.4583 129.539 25.5583 129.019 24.4517C128.499 23.3317 128.239 22.125 128.239 20.8317C128.239 18.805 128.712 17.0317 129.659 15.5117C130.605 13.9783 131.892 12.805 133.519 11.9917C135.145 11.165 136.959 10.7517 138.959 10.7517C140.425 10.7517 141.685 11.0317 142.739 11.5917C143.792 12.1517 144.585 12.905 145.119 13.8517C145.665 14.7983 145.939 15.8583 145.939 17.0317C145.939 18.1517 145.719 19.2383 145.279 20.2917C144.839 21.3317 144.212 22.185 143.399 22.8517C142.585 23.5183 141.645 23.8517 140.579 23.8517C140.032 23.8517 139.539 23.6983 139.099 23.3917C138.672 23.085 138.405 22.6917 138.299 22.2117C137.672 23.305 136.685 23.8517 135.339 23.8517C134.832 23.8517 134.345 23.7183 133.879 23.4517C133.425 23.185 133.059 22.7983 132.779 22.2917C132.499 21.785 132.359 21.205 132.359 20.5517C132.359 19.7117 132.572 18.8383 132.999 17.9317C133.439 17.025 134.025 16.2717 134.759 15.6717C135.505 15.0583 136.299 14.7517 137.139 14.7517C137.592 14.7517 137.999 14.8783 138.359 15.1317C138.732 15.3717 139.012 15.7117 139.199 16.1517L139.279 15.6117C139.319 15.3983 139.425 15.2117 139.599 15.0517C139.785 14.8917 140.045 14.8117 140.379 14.8117C141.099 14.8117 141.459 15.0983 141.459 15.6717C141.459 15.805 141.452 15.9117 141.439 15.9917L140.639 21.0317ZM138.499 19.6917C138.712 19.0517 138.819 18.5183 138.819 18.0917C138.819 17.545 138.672 17.1517 138.379 16.9117C138.085 16.6717 137.705 16.5517 137.239 16.5517C136.732 16.5517 136.272 16.7583 135.859 17.1717C135.459 17.585 135.145 18.105 134.919 18.7317C134.705 19.345 134.599 19.9383 134.599 20.5117C134.599 21.0183 134.719 21.405 134.959 21.6717C135.199 21.925 135.532 22.0517 135.959 22.0517C136.385 22.0517 136.772 21.925 137.119 21.6717C137.479 21.405 137.772 21.0917 137.999 20.7317C138.239 20.3583 138.405 20.0117 138.499 19.6917ZM153.636 14.0517C154.956 14.0517 155.869 14.4583 156.376 15.2717C156.883 16.0717 157.136 17.185 157.136 18.6117V23.7317C157.136 24.0783 157.023 24.3717 156.796 24.6117C156.569 24.8383 156.283 24.9517 155.936 24.9517C155.589 24.9517 155.303 24.8383 155.076 24.6117C154.849 24.3717 154.736 24.0783 154.736 23.7317V18.6117C154.736 17.8783 154.589 17.305 154.296 16.8917C154.016 16.465 153.516 16.2517 152.796 16.2517C152.049 16.2517 151.463 16.4783 151.036 16.9317C150.623 17.3717 150.416 17.9317 150.416 18.6117V23.7317C150.416 24.0783 150.303 24.3717 150.076 24.6117C149.849 24.8383 149.563 24.9517 149.216 24.9517C148.869 24.9517 148.583 24.8383 148.356 24.6117C148.129 24.3717 148.016 24.0783 148.016 23.7317V11.3717C148.016 11.025 148.129 10.7383 148.356 10.5117C148.583 10.2717 148.869 10.1517 149.216 10.1517C149.563 10.1517 149.849 10.2717 150.076 10.5117C150.303 10.7383 150.416 11.025 150.416 11.3717V15.7917C150.776 15.3117 151.229 14.905 151.776 14.5717C152.336 14.225 152.956 14.0517 153.636 14.0517ZM170.015 19.6117C170.015 20.6783 169.775 21.6383 169.295 22.4917C168.815 23.3317 168.155 23.985 167.315 24.4517C166.488 24.9183 165.575 25.1517 164.575 25.1517C163.562 25.1517 162.642 24.9183 161.815 24.4517C160.988 23.985 160.335 23.3317 159.855 22.4917C159.375 21.6383 159.135 20.6783 159.135 19.6117C159.135 18.545 159.375 17.5917 159.855 16.7517C160.335 15.8983 160.988 15.2383 161.815 14.7717C162.642 14.2917 163.562 14.0517 164.575 14.0517C165.575 14.0517 166.488 14.2917 167.315 14.7717C168.155 15.2383 168.815 15.8983 169.295 16.7517C169.775 17.5917 170.015 18.545 170.015 19.6117ZM167.615 19.6117C167.615 18.9583 167.475 18.3783 167.195 17.8717C166.928 17.3517 166.562 16.9517 166.095 16.6717C165.642 16.3917 165.135 16.2517 164.575 16.2517C164.015 16.2517 163.502 16.3917 163.035 16.6717C162.582 16.9517 162.215 17.3517 161.935 17.8717C161.668 18.3783 161.535 18.9583 161.535 19.6117C161.535 20.265 161.668 20.845 161.935 21.3517C162.215 21.8583 162.582 22.2517 163.035 22.5317C163.502 22.8117 164.015 22.9517 164.575 22.9517C165.135 22.9517 165.642 22.8117 166.095 22.5317C166.562 22.2517 166.928 21.8583 167.195 21.3517C167.475 20.845 167.615 20.265 167.615 19.6117ZM184.36 14.0517C185.68 14.0517 186.593 14.4583 187.1 15.2717C187.607 16.0717 187.86 17.185 187.86 18.6117V23.7317C187.86 24.0783 187.747 24.3717 187.52 24.6117C187.293 24.8383 187.007 24.9517 186.66 24.9517C186.313 24.9517 186.027 24.8383 185.8 24.6117C185.573 24.3717 185.46 24.0783 185.46 23.7317V18.6117C185.46 17.8783 185.313 17.305 185.02 16.8917C184.74 16.465 184.24 16.2517 183.52 16.2517C182.773 16.2517 182.187 16.4783 181.76 16.9317C181.347 17.3717 181.14 17.9317 181.14 18.6117V23.7317C181.14 24.0783 181.027 24.3717 180.8 24.6117C180.573 24.8383 180.287 24.9517 179.94 24.9517C179.593 24.9517 179.307 24.8383 179.08 24.6117C178.853 24.3717 178.74 24.0783 178.74 23.7317V18.6117C178.74 17.8783 178.593 17.305 178.3 16.8917C178.02 16.465 177.52 16.2517 176.8 16.2517C176.053 16.2517 175.467 16.4783 175.04 16.9317C174.627 17.3717 174.42 17.9317 174.42 18.6117V23.7317C174.42 24.0783 174.307 24.3717 174.08 24.6117C173.853 24.8383 173.567 24.9517 173.22 24.9517C172.873 24.9517 172.587 24.8383 172.36 24.6117C172.133 24.3717 172.02 24.0783 172.02 23.7317V15.4717C172.02 15.125 172.133 14.8383 172.36 14.6117C172.587 14.3717 172.873 14.2517 173.22 14.2517C173.567 14.2517 173.853 14.3717 174.08 14.6117C174.307 14.8383 174.42 15.125 174.42 15.4717V15.7917C174.78 15.3117 175.233 14.905 175.78 14.5717C176.34 14.225 176.96 14.0517 177.64 14.0517C179.32 14.0517 180.393 14.785 180.86 16.2517C181.167 15.6917 181.627 15.185 182.24 14.7317C182.867 14.2783 183.573 14.0517 184.36 14.0517ZM200.058 19.3517C200.044 19.6717 199.918 19.9317 199.678 20.1317C199.438 20.3317 199.158 20.4317 198.838 20.4317H192.238C192.398 21.2183 192.764 21.8383 193.338 22.2917C193.911 22.7317 194.558 22.9517 195.278 22.9517C195.824 22.9517 196.251 22.905 196.558 22.8117C196.864 22.705 197.104 22.5983 197.278 22.4917C197.464 22.3717 197.591 22.2917 197.658 22.2517C197.898 22.1317 198.124 22.0717 198.338 22.0717C198.618 22.0717 198.858 22.1717 199.058 22.3717C199.258 22.5717 199.358 22.805 199.358 23.0717C199.358 23.4317 199.171 23.7583 198.798 24.0517C198.424 24.3583 197.924 24.6183 197.298 24.8317C196.671 25.045 196.038 25.1517 195.398 25.1517C194.278 25.1517 193.298 24.9183 192.458 24.4517C191.631 23.985 190.991 23.345 190.538 22.5317C190.084 21.705 189.858 20.7783 189.858 19.7517C189.858 18.605 190.098 17.5983 190.578 16.7317C191.058 15.865 191.691 15.205 192.478 14.7517C193.264 14.285 194.104 14.0517 194.998 14.0517C195.878 14.0517 196.704 14.2917 197.478 14.7717C198.264 15.2517 198.891 15.8983 199.358 16.7117C199.824 17.525 200.058 18.405 200.058 19.3517ZM194.998 16.2517C193.451 16.2517 192.538 16.9783 192.258 18.4317H197.498V18.2917C197.444 17.7317 197.171 17.2517 196.678 16.8517C196.184 16.4517 195.624 16.2517 194.998 16.2517Z" fill="#0B1D52"/>
<circle cx="19.4534" cy="19.4534" r="19.4534" fill="#0B1D52"/>
</svg>
