<svg width="418" height="339" viewBox="0 0 418 339" fill="none" xmlns="http://www.w3.org/2000/svg">
<g clip-path="url(#clip0)">
<path d="M314.75 140.921H281.204" stroke="#8F8F8F" stroke-miterlimit="10"/>
<path d="M314.75 147.052H281.204" stroke="#8F8F8F" stroke-miterlimit="10"/>
<path d="M31.1299 100.301H76.3249" stroke="#8F8F8F" stroke-miterlimit="10"/>
<path d="M190.986 45.9878L339.1 67.0369" stroke="#8F8F8F" stroke-miterlimit="10"/>
<path d="M225.57 141.094L172.908 200.83" stroke="#8F8F8F" stroke-miterlimit="10"/>
<path d="M190.986 45.9878L133.53 131.017L66.7983 161.53" stroke="#8F8F8F" stroke-miterlimit="10"/>
<path d="M267.778 185.55L225.57 141.094L239.451 88.0074" stroke="#8F8F8F" stroke-miterlimit="10"/>
<path d="M190.216 43.3627L186.852 16.7173" stroke="#8F8F8F" stroke-miterlimit="10"/>
<path d="M91.0699 55.7657L64.3459 53.0304" stroke="#8F8F8F" stroke-miterlimit="10"/>
<path d="M62.8687 165.46L52.7607 107.94" stroke="#8F8F8F" stroke-miterlimit="10"/>
<path d="M239.306 143.86C241.172 136.085 236.383 128.269 228.608 126.402C220.832 124.536 213.016 129.325 211.15 137.1C209.283 144.876 214.073 152.692 221.848 154.558C229.623 156.425 237.439 151.635 239.306 143.86Z" stroke="#F1B442" stroke-miterlimit="10"/>
<path d="M225.225 148.309C229.566 148.309 233.085 144.79 233.085 140.449C233.085 136.108 229.566 132.589 225.225 132.589C220.884 132.589 217.365 136.108 217.365 140.449C217.365 144.79 220.884 148.309 225.225 148.309Z" fill="#F1B442"/>
<path d="M172.909 204.76C175.079 204.76 176.839 203 176.839 200.83C176.839 198.659 175.079 196.9 172.909 196.9C170.738 196.9 168.979 198.659 168.979 200.83C168.979 203 170.738 204.76 172.909 204.76Z" fill="#F1B442"/>
<path d="M52.7606 111.87C54.9311 111.87 56.6906 110.111 56.6906 107.94C56.6906 105.77 54.9311 104.01 52.7606 104.01C50.5901 104.01 48.8306 105.77 48.8306 107.94C48.8306 110.111 50.5901 111.87 52.7606 111.87Z" fill="#F1B442"/>
<path d="M173.396 126.867C175.566 126.867 177.326 125.108 177.326 122.937C177.326 120.767 175.566 119.007 173.396 119.007C171.225 119.007 169.466 120.767 169.466 122.937C169.466 125.108 171.225 126.867 173.396 126.867Z" fill="#F1B442"/>
<path d="M238.524 92.0003C240.694 92.0003 242.454 90.2407 242.454 88.0703C242.454 85.8998 240.694 84.1403 238.524 84.1403C236.354 84.1403 234.594 85.8998 234.594 88.0703C234.594 90.2407 236.354 92.0003 238.524 92.0003Z" fill="#F1B442"/>
<path d="M275.796 185.534C275.796 187.008 275.359 188.449 274.54 189.674C273.721 190.899 272.558 191.855 271.196 192.418C269.835 192.982 268.336 193.13 266.891 192.842C265.446 192.555 264.118 191.845 263.076 190.803C262.034 189.761 261.324 188.433 261.036 186.988C260.749 185.543 260.897 184.044 261.461 182.683C262.024 181.321 262.98 180.158 264.205 179.339C265.43 178.52 266.871 178.083 268.345 178.083C269.323 178.083 270.292 178.276 271.196 178.65C272.1 179.025 272.922 179.574 273.613 180.265C274.305 180.957 274.854 181.779 275.229 182.683C275.603 183.587 275.796 184.556 275.796 185.534Z" fill="#F1B442"/>
<path d="M190.987 49.9178C193.157 49.9178 194.917 48.1583 194.917 45.9879C194.917 43.8174 193.157 42.0579 190.987 42.0579C188.816 42.0579 187.057 43.8174 187.057 45.9879C187.057 48.1583 188.816 49.9178 190.987 49.9178Z" fill="#F1B442"/>
<path d="M133.766 139.145C138.106 139.145 141.626 135.626 141.626 131.285C141.626 126.944 138.106 123.425 133.766 123.425C129.425 123.425 125.906 126.944 125.906 131.285C125.906 135.626 129.425 139.145 133.766 139.145Z" fill="#F1B442"/>
<path d="M337.135 75.1956C341.476 75.1956 344.995 71.6765 344.995 67.3356C344.995 62.9946 341.476 59.4756 337.135 59.4756C332.794 59.4756 329.275 62.9946 329.275 67.3356C329.275 71.6765 332.794 75.1956 337.135 75.1956Z" fill="#F1B442"/>
<path d="M62.6957 170.066C67.0367 170.066 70.5557 166.547 70.5557 162.206C70.5557 157.865 67.0367 154.346 62.6957 154.346C58.3547 154.346 54.8357 157.865 54.8357 162.206C54.8357 166.547 58.3547 170.066 62.6957 170.066Z" fill="#F1B442"/>
<path d="M95.0944 65.6378C99.4353 65.6378 102.954 62.1188 102.954 57.7778C102.954 53.4369 99.4353 49.9178 95.0944 49.9178C90.7534 49.9178 87.2344 53.4369 87.2344 57.7778C87.2344 62.1188 90.7534 65.6378 95.0944 65.6378Z" fill="#F1B442"/>
<path d="M188.833 13.1017C189.548 13.4064 190.157 13.9163 190.582 14.5669C191.007 15.2175 191.23 15.9796 191.222 16.7568C191.214 17.5341 190.976 18.2915 190.538 18.9334C190.099 19.5753 189.481 20.0728 188.76 20.3629C188.038 20.6531 187.248 20.723 186.487 20.5637C185.726 20.4043 185.03 20.023 184.486 19.4679C183.941 18.9128 183.574 18.2088 183.43 17.445C183.286 16.6811 183.372 15.8918 183.677 15.1767C183.879 14.7019 184.173 14.2716 184.542 13.9103C184.91 13.5491 185.346 13.264 185.825 13.0713C186.304 12.8786 186.816 12.7821 187.332 12.7873C187.848 12.7925 188.358 12.8994 188.833 13.1017Z" fill="#F1B442"/>
<path d="M61.265 50.2952C61.7251 49.6694 62.3603 49.194 63.0904 48.9289C63.8205 48.6639 64.6128 48.6212 65.3672 48.8062C66.1216 48.9911 66.8042 49.3955 67.3289 49.9682C67.8536 50.5409 68.1969 51.2562 68.3153 52.0239C68.4338 52.7915 68.3221 53.577 67.9944 54.2812C67.6667 54.9855 67.1376 55.5768 66.4741 55.9805C65.8105 56.3842 65.0422 56.5823 64.2662 56.5497C63.4901 56.517 62.7412 56.2552 62.1139 55.7972C61.2772 55.176 60.7189 54.2503 60.56 53.2204C60.4011 52.1906 60.6544 51.1396 61.265 50.2952Z" fill="#F1B442"/>
<path d="M40.6561 80.7133H34.1323V99.7974H40.6561V80.7133Z" fill="#F1B442"/>
<path d="M51.7072 65.1505H45.1833V99.7974H51.7072V65.1505Z" fill="#F1B442"/>
<path d="M62.7584 71.1713H56.2346V99.7974H62.7584V71.1713Z" fill="#F1B442"/>
<path d="M151.23 259.654H199.538" stroke="#8F8F8F" stroke-miterlimit="10"/>
<path d="M161.433 240.083H154.453V259.167H161.433V240.083Z" fill="#F1B442"/>
<path d="M173.239 224.504H166.259V259.151H173.239V224.504Z" fill="#F1B442"/>
<path d="M185.045 230.541H178.065V259.167H185.045V230.541Z" fill="#F1B442"/>
<path d="M196.85 247.109H189.871V259.167H196.85V247.109Z" fill="#F1B442"/>
<path d="M174.276 284.76C192.222 284.76 206.77 270.212 206.77 252.266C206.77 234.321 192.222 219.773 174.276 219.773C156.331 219.773 141.783 234.321 141.783 252.266C141.783 270.212 156.331 284.76 174.276 284.76Z" stroke="#8F8F8F" stroke-miterlimit="10"/>
<path d="M260.723 73.0544C260.723 73.0544 243.918 75.601 235.838 90.252C230.148 100.533 238.086 119.68 230.855 125.103C223.624 130.527 219.993 126.471 217.273 134.535C214.553 142.6 222.256 147.221 219.993 150.837C217.729 154.453 214.553 155.364 214.553 161.699C214.553 168.035 226.328 173.018 230.399 172.106C234.471 171.194 239.91 165.315 242.614 166.227C245.318 167.139 247.597 173.018 256.652 172.106C265.706 171.194 267.97 166.683 273.409 168.962C278.848 171.241 282.464 174.385 288.799 173.034C295.134 171.682 300.558 165.787 302.821 166.746C305.085 167.704 317.315 174.889 326.826 173.537C336.336 172.185 336.776 163.114 334.969 154.971C333.161 146.828 336.776 145.021 336.321 137.774C335.865 130.527 325.002 125.088 319.123 122.384C313.244 119.68 315.492 101.948 309.597 88.4128C303.702 74.8779 277.481 67.6152 260.723 73.0544Z" fill="#263238" stroke="#263238" stroke-linecap="round" stroke-linejoin="round"/>
<path d="M196.271 342.888C196.271 342.888 194.369 383.273 195.909 410.28C197.45 437.287 202.009 554.464 202.009 554.464L257.547 556.036L259.591 414.902L266.728 555.517L331.431 555.014C331.431 555.014 325.835 438.34 325.835 407.765C325.835 377.189 329.906 359.363 329.388 344.586C328.869 329.809 308.952 318.082 273.346 314.011C237.74 309.939 208.124 325.219 202.527 331.303C196.931 337.386 196.271 342.888 196.271 342.888Z" fill="white"/>
<path d="M311.986 323.914C311.058 323.458 310.099 323.018 309.093 322.578V555.234H311.986V323.914Z" fill="#CFCFCF"/>
<path d="M315.35 325.706L313.888 324.904V555.124H315.35V325.706Z" fill="#CFCFCF"/>
<path d="M261.572 316.101C261.188 316.101 260.82 316.254 260.549 316.525C260.278 316.796 260.125 317.164 260.125 317.548V426.519L263.144 483.598V317.548C263.144 317.347 263.103 317.148 263.023 316.963C262.943 316.779 262.825 316.614 262.677 316.478C262.529 316.342 262.354 316.238 262.164 316.173C261.974 316.108 261.772 316.084 261.572 316.101Z" fill="#CFCFCF"/>
<path d="M265.706 316.824C265.611 316.822 265.516 316.839 265.427 316.875C265.338 316.911 265.258 316.964 265.19 317.031C265.123 317.099 265.069 317.18 265.034 317.268C264.998 317.357 264.981 317.452 264.983 317.548V521.121L266.429 549.653V317.548C266.429 317.356 266.353 317.172 266.218 317.036C266.082 316.901 265.898 316.824 265.706 316.824Z" fill="#CFCFCF"/>
<path d="M283.25 555.36V317.548C283.224 317.372 283.136 317.212 283.002 317.096C282.868 316.98 282.696 316.916 282.519 316.916C282.342 316.916 282.17 316.98 282.036 317.096C281.902 317.212 281.814 317.372 281.788 317.548V555.375L283.25 555.36Z" fill="#CFCFCF"/>
<path d="M290.889 317.548C290.889 317.356 290.813 317.172 290.678 317.036C290.542 316.901 290.358 316.824 290.166 316.824C290.071 316.822 289.976 316.839 289.887 316.875C289.798 316.911 289.718 316.964 289.65 317.031C289.583 317.099 289.53 317.18 289.494 317.268C289.458 317.357 289.441 317.452 289.443 317.548V555.312H290.889V317.548Z" fill="#CFCFCF"/>
<path d="M287.541 317.548C287.504 317.188 287.334 316.855 287.066 316.613C286.797 316.371 286.449 316.237 286.087 316.237C285.726 316.237 285.377 316.371 285.108 316.613C284.84 316.855 284.67 317.188 284.633 317.548V555.344H287.541V317.548Z" fill="#CFCFCF"/>
<path d="M307.694 322.012L306.248 321.43V555.187H307.694V322.012Z" fill="#CFCFCF"/>
<path d="M214.16 323.804C213.138 324.291 212.18 324.779 211.268 325.266V554.668H214.16V323.804Z" fill="#CFCFCF"/>
<path d="M208.423 554.668H209.869V326.036L208.423 326.885V554.668Z" fill="#CFCFCF"/>
<path d="M258.066 316.824C257.971 316.822 257.876 316.839 257.787 316.875C257.698 316.911 257.618 316.964 257.55 317.031C257.482 317.099 257.429 317.18 257.394 317.268C257.358 317.357 257.341 317.452 257.343 317.548V555.988H257.547L258.789 470.566V317.548C258.789 317.356 258.713 317.172 258.577 317.036C258.442 316.901 258.258 316.824 258.066 316.824Z" fill="#CFCFCF"/>
<path d="M217.556 322.264L216.109 322.908V554.857H217.556V322.264Z" fill="#CFCFCF"/>
<path d="M237.174 316.101C236.791 316.101 236.423 316.254 236.152 316.525C235.88 316.796 235.728 317.164 235.728 317.547V555.391L238.62 555.485V317.547C238.62 317.358 238.583 317.169 238.51 316.994C238.438 316.819 238.331 316.659 238.197 316.525C238.063 316.391 237.903 316.284 237.728 316.211C237.552 316.139 237.364 316.101 237.174 316.101Z" fill="#CFCFCF"/>
<path d="M232.883 317.548V555.313H234.329V317.548C234.329 317.356 234.253 317.172 234.117 317.036C233.982 316.901 233.798 316.824 233.606 316.824H233.496H233.307C233.167 316.882 233.05 316.984 232.973 317.114C232.896 317.245 232.864 317.397 232.883 317.548Z" fill="#CFCFCF"/>
<path d="M241.246 316.824C241.054 316.824 240.87 316.901 240.735 317.036C240.599 317.172 240.523 317.356 240.523 317.548V555.533H241.969V317.548C241.971 317.452 241.954 317.357 241.918 317.268C241.883 317.18 241.83 317.099 241.762 317.031C241.695 316.964 241.614 316.911 241.525 316.875C241.437 316.839 241.342 316.822 241.246 316.824Z" fill="#CFCFCF"/>
<path d="M196.271 342.888C196.271 342.888 194.369 383.273 195.909 410.28C197.45 437.287 202.009 554.464 202.009 554.464L257.547 556.036L259.591 414.902L266.728 555.517L331.431 555.014C331.431 555.014 325.835 438.34 325.835 407.765C325.835 377.189 329.906 359.363 329.388 344.586C328.869 329.809 308.952 318.082 273.346 314.011C237.74 309.939 208.124 325.219 202.527 331.303C196.931 337.386 196.271 342.888 196.271 342.888Z" stroke="#263238" stroke-miterlimit="10"/>
<path d="M257.815 327.341C257.815 327.341 250.269 347.478 251.527 350.622C252.784 353.766 259.701 354.395 259.701 354.395L262.216 327.97C262.216 327.97 268.504 351.88 271.648 351.251C274.792 350.622 277.936 348.736 276.679 343.69C275.421 338.644 258.428 324.197 258.428 324.197L257.815 327.341Z" fill="#263238" stroke="#263238" stroke-linecap="round" stroke-linejoin="round"/>
<path d="M266.744 95.3768C266.744 95.3768 240.523 112.402 239.564 116.489C238.605 120.576 240.256 135.887 241.953 142.018C243.651 148.149 250.128 159.043 252.847 161.086C255.567 163.13 258.302 175.722 254.545 179.479C250.788 183.236 246.386 183.22 239.91 180.831C233.433 178.441 227.648 175.046 222.885 175.392C218.122 175.737 181.007 185.264 174.153 186.616C167.299 187.968 162.237 188.659 160.885 189.005C159.533 189.351 153.387 187.638 152.019 188.329C150.652 189.021 149.3 185.94 144.537 182.198C139.773 178.457 136.362 175.392 136.362 175.392L119.667 189.964L122.387 195.403C122.387 195.403 121.711 204.945 124.776 210.054C127.842 215.163 133.281 219.235 138.736 227.346C144.191 235.458 149.96 246.556 161.2 246.556C172.44 246.556 186.729 234.294 196.617 229.531C206.505 224.768 215.339 220.005 215.339 220.005C215.339 220.005 205.467 282.649 199.619 294.219C193.772 305.789 180.897 320.094 183.899 327.231C186.902 334.368 191.052 342.951 196.161 342.951C201.27 342.951 256.416 326.272 266.634 326.272C276.852 326.272 322.801 346.017 327.942 348.736C327.942 348.736 326.92 354.191 329.985 354.191C333.051 354.191 337.845 349.758 339.857 343.297C341.87 336.836 332.375 318.774 331.353 306.858C330.331 294.942 324.876 253.41 324.876 253.41C324.876 253.41 339.857 294.942 341.901 301.419C343.945 307.896 353.817 316.054 362.337 314.702C370.857 313.35 384.455 305.836 380.714 287.114C376.972 268.391 359.036 241.101 353.895 230.537C348.755 219.974 338.175 197.525 330.41 189.665C322.644 181.805 316.105 182.183 305.556 182.183C295.008 182.183 285.12 180.815 284.099 177.467C283.077 174.118 283.423 157.722 283.423 157.722L290.575 143.071C290.575 143.071 295.291 144.785 297.036 140.698C298.126 137.752 298.705 134.642 298.75 131.501C298.75 131.501 293.295 128.782 280.357 116.174C267.42 103.567 266.744 95.3768 266.744 95.3768Z" fill="white" stroke="#263238" stroke-linecap="round" stroke-linejoin="round"/>
<path d="M252.784 161.086C252.784 161.086 259.182 167.453 265.722 164.498C268.985 162.964 272.165 161.258 275.248 159.389C275.248 159.389 268.143 171.1 256.227 171.1L252.784 161.086Z" fill="#263238" stroke="#263238" stroke-linecap="round" stroke-linejoin="round"/>
<path d="M258.239 127.823C257.641 129.722 256.444 131.376 254.828 132.539C252.438 133.891 254.828 137.255 257.217 137.648C258.613 137.852 260.038 137.61 261.289 136.956" stroke="#263238" stroke-linecap="round" stroke-linejoin="round"/>
<path d="M256.526 144.172C256.526 144.172 262.311 146.891 269.102 141.028" stroke="#263238" stroke-linecap="round" stroke-linejoin="round"/>
<path d="M252.533 124.726C252.533 126.565 251.794 128.059 250.867 128.059C249.939 128.059 249.2 126.487 249.2 124.726C249.2 122.965 249.939 121.378 250.867 121.378C251.794 121.378 252.533 122.871 252.533 124.726Z" fill="#263238"/>
<path d="M270.894 124.726C270.894 126.565 270.155 128.059 269.227 128.059C268.3 128.059 267.561 126.487 267.561 124.726C267.561 122.965 268.316 121.378 269.227 121.378C270.139 121.378 270.894 122.871 270.894 124.726Z" fill="#263238"/>
<path d="M253.555 129.489H240.271C239.897 129.495 239.533 129.366 239.245 129.127C238.956 128.888 238.763 128.554 238.699 128.184L237.222 120.953C237.163 120.718 237.16 120.472 237.213 120.235C237.265 119.999 237.372 119.777 237.524 119.588C237.676 119.4 237.87 119.249 238.09 119.147C238.311 119.046 238.551 118.997 238.794 119.004H254.875C255.114 118.998 255.352 119.047 255.569 119.146C255.786 119.246 255.978 119.394 256.13 119.579C256.281 119.764 256.389 119.981 256.444 120.214C256.499 120.446 256.5 120.689 256.447 120.922L255.142 128.153C255.071 128.524 254.874 128.859 254.585 129.102C254.296 129.345 253.932 129.482 253.555 129.489V129.489Z" stroke="#263238" stroke-linecap="round" stroke-linejoin="round"/>
<path d="M280.011 129.489H265.203C264.801 129.504 264.406 129.384 264.081 129.147C263.756 128.91 263.52 128.571 263.411 128.184L261.839 120.953C261.801 120.702 261.82 120.445 261.894 120.202C261.968 119.959 262.096 119.736 262.268 119.549C262.44 119.362 262.652 119.216 262.888 119.121C263.124 119.027 263.378 118.987 263.631 119.004H281.552C281.803 118.985 282.056 119.022 282.29 119.114C282.525 119.205 282.736 119.349 282.908 119.533C283.08 119.717 283.209 119.937 283.284 120.178C283.36 120.418 283.38 120.672 283.344 120.922L281.882 128.153C281.779 128.561 281.535 128.92 281.192 129.164C280.849 129.409 280.431 129.524 280.011 129.489Z" stroke="#263238" stroke-linecap="round" stroke-linejoin="round"/>
<path d="M255.646 119.24H263.553" stroke="#263238" stroke-linecap="round" stroke-linejoin="round"/>
<path d="M256.353 122.808H261.839" stroke="#263238" stroke-linecap="round" stroke-linejoin="round"/>
<path d="M246.811 117.086C247.259 116.406 247.838 115.822 248.515 115.369C249.192 114.916 249.952 114.603 250.752 114.447C251.551 114.292 252.374 114.298 253.171 114.465C253.968 114.632 254.724 114.957 255.394 115.42" stroke="#263238" stroke-linecap="round" stroke-linejoin="round"/>
<path d="M263.741 115.42C263.741 115.42 267.97 111.05 274.352 115.907" stroke="#263238" stroke-linecap="round" stroke-linejoin="round"/>
<path d="M353.895 230.537C348.786 219.989 338.175 197.525 330.41 189.665C322.644 181.805 316.105 182.183 305.556 182.183C295.008 182.183 285.12 180.815 284.099 177.467C283.673 175.149 283.462 172.796 283.47 170.44C274.539 172.582 265.257 172.823 256.227 171.147C256.526 174.543 256.117 177.86 254.482 179.51C250.741 183.252 246.323 183.252 239.847 180.862C233.37 178.473 227.585 175.077 222.822 175.423C218.059 175.769 180.944 185.295 174.09 186.647C167.236 187.999 162.174 188.691 160.822 189.037C159.471 189.382 153.324 187.669 151.956 188.361C150.589 189.052 149.237 185.971 144.474 182.23C139.71 178.488 136.299 175.423 136.299 175.423L119.667 189.964L122.387 195.403C122.387 195.403 121.711 204.945 124.776 210.054C127.842 215.163 133.281 219.235 138.736 227.346C144.191 235.458 149.96 246.556 161.2 246.556C172.44 246.556 186.729 234.294 196.617 229.531C206.505 224.768 215.339 220.005 215.339 220.005C215.339 220.005 205.467 282.649 199.619 294.219C193.772 305.789 180.897 320.094 183.899 327.231C186.902 334.368 191.052 342.951 196.161 342.951C201.27 342.951 256.416 326.272 266.634 326.272C276.852 326.272 322.801 346.017 327.942 348.736C327.942 348.736 326.92 354.191 329.985 354.191C333.051 354.191 337.845 349.758 339.857 343.297C341.87 336.836 332.375 318.774 331.353 306.858C330.331 294.942 324.876 253.41 324.876 253.41C324.876 253.41 339.857 294.942 341.901 301.419C343.945 307.896 353.817 316.054 362.337 314.702C370.857 313.35 384.455 305.836 380.714 287.114C376.972 268.391 359.036 241.101 353.895 230.537Z" fill="#263238" stroke="#263238" stroke-linecap="round" stroke-linejoin="round"/>
<path d="M323.744 248.049L315.428 211.846" stroke="#808080" stroke-linecap="round" stroke-linejoin="round"/>
<path d="M159.659 191.426C159.659 191.426 163.432 200.858 162.803 217.851" stroke="#808080" stroke-linecap="round" stroke-linejoin="round"/>
<path d="M154.676 190.168C154.676 190.168 158.449 205.275 155.934 216.594" stroke="#808080" stroke-linecap="round" stroke-linejoin="round"/>
<path d="M349.053 277.006C349.053 277.006 358.485 269.444 370.433 277.006" stroke="#808080" stroke-linecap="round" stroke-linejoin="round"/>
<path d="M212.51 200.245L215.339 219.989L204.964 201.503" stroke="#808080" stroke-linecap="round" stroke-linejoin="round"/>
<path d="M261.572 324.826C261.572 324.826 235.775 321.037 232.631 321.682" stroke="#808080" stroke-linecap="round" stroke-linejoin="round"/>
<path d="M341.744 277.745C341.744 277.745 362.432 280.794 366.173 282.146C369.914 283.498 370.244 298.102 366.173 303.195C362.101 308.289 357.354 306.245 351.239 303.871C345.124 301.497 333.601 289.613 333.601 289.613L341.744 277.745Z" fill="white" stroke="#263238" stroke-linecap="round" stroke-linejoin="round"/>
<path d="M343.787 274.019L332.595 263.486L330.897 270.953L334.968 276.723L343.787 274.019Z" fill="white" stroke="#263238" stroke-linecap="round" stroke-linejoin="round"/>
<path d="M299.897 248.474L286.142 299.878C286.057 300.186 286.044 300.51 286.106 300.824C286.167 301.138 286.301 301.433 286.496 301.686C286.691 301.939 286.943 302.144 287.231 302.283C287.518 302.422 287.835 302.492 288.154 302.488L323.257 302.189C323.701 302.183 324.131 302.037 324.487 301.771C324.843 301.506 325.106 301.135 325.238 300.711L339.983 251.979C340.151 251.418 340.189 250.826 340.093 250.248C339.998 249.67 339.772 249.121 339.432 248.643C339.093 248.166 338.649 247.772 338.134 247.492C337.619 247.212 337.047 247.053 336.462 247.028L303.78 245.676C302.912 245.636 302.056 245.89 301.351 246.398C300.646 246.906 300.134 247.638 299.897 248.474Z" fill="white" stroke="#263238" stroke-linecap="round" stroke-linejoin="round"/>
<path d="M340.172 273.107C340.172 273.107 318.258 275.135 313.951 276.141C309.644 277.147 310.807 280.527 313.322 283.577C315.837 286.626 324.436 293.009 328.445 295.398C332.453 297.787 336.462 298.102 338.616 294.722C340.769 291.342 344.793 275.465 343.866 274.113C342.939 272.761 340.172 273.107 340.172 273.107Z" fill="white" stroke="#263238" stroke-linecap="round" stroke-linejoin="round"/>
<path d="M316.875 275.685L339.181 280.197" stroke="#263238" stroke-linecap="round" stroke-linejoin="round"/>
<path d="M311.42 279.175L337.641 285.935" stroke="#263238" stroke-linecap="round" stroke-linejoin="round"/>
<path d="M316.356 286.61L334.858 291.672" stroke="#263238" stroke-linecap="round" stroke-linejoin="round"/>
<path d="M136.347 175.392L103.885 137.664C103.885 137.664 91.7332 115.986 86.5928 109.902C81.4523 103.818 78.3555 104.699 78.3555 106.868C78.3555 109.037 83.0715 112.512 84.8635 115.105C86.2416 117.453 87.4044 119.921 88.3377 122.478L83.1344 133.765C86.148 136.831 89.3338 139.723 92.6764 142.427C94.3874 143.521 96.3015 144.259 98.3042 144.596L119.668 189.964L136.347 175.392Z" fill="white" stroke="#263238" stroke-linecap="round" stroke-linejoin="round"/>
<path d="M85.665 117.746L93.9023 128.153L86.5296 138.119L77.4277 132.916L85.665 117.746Z" fill="white" stroke="#263238" stroke-linecap="round" stroke-linejoin="round"/>
<path d="M80.2576 127.729L89.1079 134.111" stroke="#263238" stroke-linecap="round" stroke-linejoin="round"/>
<path d="M83.0867 123.39L91.5598 130.558" stroke="#263238" stroke-linecap="round" stroke-linejoin="round"/>
<path d="M103.884 137.695C103.884 137.695 98.6811 117.746 96.5118 116.882C94.8297 116.206 89.1863 121.456 86.7339 123.846C86.2607 124.294 85.9385 124.878 85.8117 125.517C85.685 126.157 85.7601 126.819 86.0266 127.414C86.1433 127.721 86.3662 127.975 86.6548 128.131C86.9433 128.287 87.2783 128.333 87.5985 128.263C89.7679 127.823 93.8865 124.679 93.8865 124.679C93.8865 124.679 92.1573 135.086 96.9205 137.695" fill="white"/>
<path d="M103.884 137.695C103.884 137.695 98.6811 117.746 96.5118 116.882C94.8297 116.206 89.1863 121.456 86.7339 123.846C86.2607 124.294 85.9385 124.878 85.8117 125.517C85.685 126.157 85.7601 126.819 86.0266 127.414C86.1433 127.721 86.3662 127.975 86.6548 128.131C86.9433 128.287 87.2783 128.333 87.5985 128.263C89.7679 127.823 93.8865 124.679 93.8865 124.679C93.8865 124.679 92.1573 135.086 96.9205 137.695" stroke="#263238" stroke-linecap="round" stroke-linejoin="round"/>
<rect x="103.747" y="325.932" width="321.976" height="356.067" fill="#F18842"/>
</g>
<defs>
<clipPath id="clip0">
<rect width="786" height="786" fill="white" transform="translate(-133 -104)"/>
</clipPath>
</defs>
</svg>
