<svg width="548" height="368" viewBox="0 0 548 368" fill="none" xmlns="http://www.w3.org/2000/svg">
<rect width="1440" height="900" transform="translate(-422 -249)" fill="#F18842"/>
<path d="M486.95 324.28H96.95V340.28H486.95V324.28Z" fill="#F1B442"/>
<path opacity="0.5" d="M486.95 324.28H96.95V340.28H486.95V324.28Z" fill="white"/>
<path d="M194.07 152.67C192.162 153.29 190.289 154.015 188.46 154.84C189.46 154.1 190.46 153.35 191.46 152.58C195.92 149.004 200.161 145.164 204.16 141.08C199.47 145.645 194.457 149.866 189.16 153.71C189.883 152.439 190.524 151.123 191.08 149.77C192.03 147.28 192.26 144.77 189.88 143.44C186.96 141.8 183.41 144.25 184.35 148.44C184.914 150.778 186.017 152.953 187.57 154.79C184.118 157.179 180.513 159.34 176.78 161.26L176.42 161.44C177.214 160.073 177.912 158.653 178.51 157.19C179.46 154.71 179.69 152.19 177.31 150.87C174.39 149.22 170.84 151.68 171.78 155.87C172.339 158.18 173.424 160.329 174.95 162.15C170.46 164.36 165.81 166.24 161.2 168.28L160.53 168.58C161.433 167.612 162.268 166.583 163.03 165.5C164.54 163.31 165.34 160.93 163.34 159.07C160.88 156.79 156.86 158.36 156.79 162.68C156.791 165.066 157.349 167.418 158.42 169.55C154.106 171.552 150.005 173.985 146.18 176.81L146.06 176.91C146.577 176.09 147.047 175.242 147.47 174.37C148.6 171.96 149.02 169.48 146.75 167.97C146.287 167.649 145.758 167.438 145.201 167.353C144.645 167.267 144.076 167.309 143.539 167.476C143.001 167.643 142.508 167.93 142.098 168.315C141.688 168.7 141.37 169.174 141.17 169.7C140.868 169.229 140.456 168.838 139.97 168.56C137.68 167.24 135.43 168.67 133.51 170.69C133.01 171.22 132.51 171.78 132.08 172.35C133.567 168.214 135.438 164.226 137.67 160.44C139.788 161.375 142.075 161.865 144.39 161.88C148.95 161.88 150.88 158.08 148.64 155.72C146.82 153.81 144.26 154.54 141.84 155.94C141.04 156.405 140.265 156.912 139.52 157.46C141.841 153.968 144.475 150.694 147.39 147.68C149.266 149.23 151.452 150.362 153.8 151C158.23 152.09 161.02 148.88 159.41 146.05C158.11 143.75 155.41 143.84 152.76 144.61C151.498 144.995 150.259 145.453 149.05 145.98C150.26 144.81 151.51 143.68 152.77 142.56C154.44 141.14 156.16 139.77 157.9 138.43C159.782 139.93 161.959 141.017 164.29 141.62C168.72 142.71 171.5 139.5 169.9 136.67C168.6 134.37 165.9 134.46 163.25 135.23C162.62 135.41 162 135.63 161.38 135.86C163.69 134.21 166.04 132.6 168.38 131L170.56 129.51C172.514 131.15 174.81 132.332 177.28 132.97C181.71 134.06 184.49 130.85 182.89 128.02C181.59 125.72 178.89 125.81 176.24 126.58C175.191 126.894 174.159 127.265 173.15 127.69C173.6 127.37 174.05 127.05 174.49 126.69C175.32 126.1 176.13 125.49 176.94 124.87C177.94 124.12 178.88 123.28 179.86 122.49C180.41 122.05 180.95 121.58 181.48 121.1C183.443 122.755 185.754 123.948 188.24 124.59C192.67 125.68 195.45 122.47 193.85 119.64C192.55 117.34 189.85 117.43 187.2 118.2C185.714 118.659 184.258 119.21 182.84 119.85C184.65 118.17 186.4 116.42 188.05 114.6L188.38 114.22C189.09 113.43 189.8 112.62 190.48 111.8C191.16 110.98 192.03 109.87 192.77 108.88C195.818 104.898 198.32 100.526 200.21 95.88C198.227 100.467 195.644 104.771 192.53 108.68C189.448 112.605 186.01 116.237 182.26 119.53L181.85 119.88C182.713 118.403 183.475 116.87 184.13 115.29C185.13 112.81 185.31 110.29 182.93 108.97C180.01 107.32 176.46 109.78 177.4 113.97C178 116.452 179.206 118.747 180.91 120.65L180.03 121.41L179.03 122.27C178.44 122.74 177.85 123.19 177.25 123.64L176.25 124.37C175.4 125 174.53 125.61 173.66 126.21L172.42 127.06L171 128.06C171.824 126.64 172.552 125.167 173.18 123.65C174.13 121.16 174.36 118.65 171.98 117.32C169.06 115.68 165.51 118.14 166.45 122.32C167.033 124.726 168.181 126.958 169.8 128.83L168.75 129.51L164.85 132.06L164.09 132.56L161.92 134.01L160.98 134.64C159.98 135.33 158.98 136.03 157.98 136.75C158.821 135.309 159.563 133.812 160.2 132.27C161.15 129.79 161.38 127.27 159 125.95C156.08 124.3 152.53 126.76 153.47 130.95C154.063 133.387 155.237 135.644 156.89 137.53C155.19 138.78 153.52 140.06 151.89 141.4C150.7 142.4 149.52 143.4 148.38 144.48C148.881 143.555 149.326 142.6 149.71 141.62C150.71 139.13 150.89 136.62 148.51 135.3C145.59 133.65 142.04 136.11 142.98 140.3C143.543 142.608 144.627 144.756 146.15 146.58C142.911 149.801 139.991 153.328 137.43 157.11C137.722 156.018 137.946 154.91 138.1 153.79C138.42 151.15 138.04 148.67 135.41 147.95C132.17 147.06 129.32 150.3 131.25 154.16C132.363 156.283 133.951 158.121 135.89 159.53C133.381 163.65 131.278 168.004 129.61 172.53C129.576 171.585 129.482 170.643 129.33 169.71C128.89 167.08 127.82 164.81 125.09 164.86C121.74 164.93 119.93 168.86 122.87 172C124.448 173.639 126.372 174.906 128.5 175.71C127.365 179.209 126.437 182.772 125.72 186.38C125.61 186.95 125.52 187.52 125.41 188.09C125.29 188.2 125.17 188.31 125.06 188.43C124.94 187.94 124.8 187.43 124.64 186.96C123.8 184.44 122.39 182.35 119.71 182.83C116.4 183.4 115.21 187.55 118.61 190.22C120.343 191.536 122.338 192.467 124.46 192.95L124.58 193.24C124.22 195.95 123.94 198.68 123.77 201.42C123.64 203.42 123.57 205.51 123.53 207.56C120.67 207.56 118.65 210.7 120.62 214.1C121.453 215.508 122.518 216.766 123.77 217.82C124.01 221.67 124.39 225.52 124.9 229.34C124.495 228.967 124 228.705 123.464 228.581C122.927 228.456 122.368 228.473 121.84 228.63C120.04 229.12 119.23 230.57 118.93 232.35C118.299 233.019 117.942 233.9 117.93 234.82C116.59 232.82 115.33 230.82 114.1 228.7C115.974 227.264 117.527 225.452 118.66 223.38C120.82 219.38 118.39 215.87 115.25 216.72C112.7 217.41 112.13 220.02 112.25 222.81C112.289 223.868 112.389 224.923 112.55 225.97C112.1 225.2 111.66 224.42 111.23 223.65C110.13 221.65 109.23 219.65 108.15 217.65C107.89 217.16 107.66 216.65 107.44 216.15C109.55 215.094 111.414 213.605 112.91 211.78C115.78 208.24 114.05 204.35 110.81 204.6C108.18 204.81 107.13 207.26 106.69 210.02C106.506 211.222 106.399 212.434 106.37 213.65L105.43 211.48C103.431 206.556 101.783 201.497 100.5 196.34C102.883 195.491 105.048 194.125 106.84 192.34C110.05 189.09 108.72 185.06 105.47 184.98C102.83 184.92 101.54 187.25 100.82 189.98C100.466 191.43 100.199 192.899 100.02 194.38C99.33 191.38 98.73 188.43 98.23 185.43C97.89 183.57 97.67 181.68 97.43 179.8C99.9961 179.292 102.413 178.208 104.5 176.63C108.1 173.83 107.3 169.63 104.09 169.16C101.48 168.75 99.9 170.9 98.84 173.49C98.2155 175.123 97.6911 176.793 97.27 178.49C97.07 176.31 96.84 174.12 96.74 171.93C96.4549 167.407 96.475 162.87 96.8 158.35C96.3383 162.868 96.1813 167.411 96.33 171.95C96.33 174.04 96.51 176.12 96.64 178.21C96.0663 176.79 95.3982 175.41 94.64 174.08C93.27 171.79 91.46 170.08 88.93 171.08C85.83 172.36 85.56 176.66 89.45 178.54C91.7414 179.589 94.2534 180.066 96.77 179.93C96.95 181.79 97.1 183.66 97.39 185.51C97.78 188.46 98.28 191.39 98.86 194.3C98.2272 193.183 97.5189 192.11 96.74 191.09C95.09 189 93.06 187.52 90.74 188.87C87.83 190.54 88.12 194.87 92.22 196.2C94.5454 196.924 97.0089 197.088 99.41 196.68C100.548 201.895 102.048 207.024 103.9 212.03L104.5 213.53C103.971 212.83 103.4 212.162 102.79 211.53C100.94 209.61 98.79 208.34 96.55 209.93C93.82 211.88 94.55 216.13 98.76 217.07C101.094 217.545 103.506 217.476 105.81 216.87C106.01 217.38 106.23 217.87 106.48 218.39C107.48 220.45 108.37 222.56 109.42 224.58L110.33 226.31C109.813 225.855 109.272 225.428 108.71 225.03C106.53 223.5 104.17 222.66 102.28 224.63C99.97 227.06 101.47 231.1 105.79 231.23C108 231.288 110.197 230.869 112.23 230C113.46 232.24 114.74 234.45 116.12 236.62C116.63 237.45 117.12 238.27 117.7 239.09C116.915 238.354 116.083 237.669 115.21 237.04C113.04 235.51 110.67 234.67 108.79 236.64C106.47 239.07 107.98 243.11 112.3 243.24C114.769 243.269 117.209 242.71 119.42 241.61C120.127 242.61 120.867 243.61 121.64 244.61C120.03 246.48 120.55 249.61 123.82 251.04C125.409 251.699 127.101 252.075 128.82 252.15L129.44 252.62L129.55 252.7C131.614 260.424 134.064 268.041 136.89 275.52C138.097 278.713 139.37 281.877 140.71 285.01H128.71V332.34H165.37V285H145.78C144.11 281.35 142.51 277.66 141.01 273.93C138.56 267.8 136.34 261.59 134.4 255.28C134.728 255.379 135.062 255.455 135.4 255.51C135.844 255.598 136.3 255.618 136.75 255.57L136.23 252.28H136.16H135.88C135.7 252.28 135.46 252.19 135.25 252.16C134.791 252.03 134.342 251.863 133.91 251.66L133.39 251.42C135.317 250.748 137.106 249.732 138.67 248.42C142.15 245.42 141.16 241.32 137.93 240.97C135.3 240.68 133.82 242.9 132.93 245.53C132.66 246.28 132.44 247.06 132.24 247.82C132.06 247.12 131.86 246.42 131.69 245.72C131.16 243.65 130.69 241.56 130.21 239.47C132.299 238.805 134.239 237.738 135.92 236.33C139.4 233.33 138.41 229.24 135.18 228.89C132.55 228.6 131.07 230.82 130.18 233.45C129.907 234.214 129.674 234.992 129.48 235.78C129.18 234.25 128.88 232.73 128.62 231.2C128.42 230.06 128.25 228.93 128.08 227.79C128.01 226.17 127.99 224.55 128.01 222.92C128.01 222.03 128.01 221.14 128.09 220.24C130.049 220.868 132.106 221.132 134.16 221.02C138.71 220.72 140.4 216.82 138.02 214.61C136.08 212.8 133.57 213.7 131.24 215.24C130.193 215.948 129.192 216.719 128.24 217.55C128.517 213.744 129.092 209.966 129.96 206.25C130.478 204.062 131.119 201.906 131.88 199.79C133.97 200.514 136.181 200.823 138.39 200.7C142.94 200.41 144.63 196.51 142.25 194.29C140.31 192.49 137.8 193.38 135.47 194.93C134.643 195.488 133.845 196.089 133.08 196.73C133.955 194.659 134.977 192.654 136.14 190.73C138.467 186.862 141.374 183.375 144.76 180.39C146.499 182.001 148.557 183.231 150.8 184C155.13 185.42 158.15 182.42 156.8 179.48C155.68 177.09 153.01 176.98 150.28 177.55C149.241 177.774 148.216 178.058 147.21 178.4L147.27 178.34C151.001 175.428 155.022 172.908 159.27 170.82C160.764 172.787 162.668 174.404 164.85 175.56C168.9 177.65 172.36 175.17 171.46 172.05C170.73 169.51 168.12 168.98 165.32 169.05C164.228 169.113 163.14 169.234 162.06 169.41C166.56 167.28 171.17 165.27 175.6 162.92L175.69 162.87C177.68 164.583 180.037 165.815 182.58 166.47C187.01 167.57 189.8 164.35 188.2 161.52C186.89 159.22 184.2 159.32 181.54 160.08C180.79 160.3 180.04 160.57 179.32 160.85C182.281 159.125 185.151 157.249 187.92 155.23L188.16 155.48C188.154 155.444 188.154 155.406 188.16 155.37C190.164 157.101 192.538 158.35 195.1 159.02C199.53 160.11 202.31 156.9 200.71 154.07C199.42 151.8 196.76 151.9 194.07 152.67ZM124.15 243.28C123.25 242.21 122.39 241.11 121.54 239.99C121.75 239.81 121.97 239.61 122.19 239.39C123.436 239.779 124.726 240.011 126.03 240.08C126.03 240.15 126.03 240.22 126.03 240.29L126.64 240.16C126.95 241.74 127.29 243.31 127.64 244.88C127.231 244.351 126.7 243.929 126.092 243.65C125.484 243.371 124.818 243.244 124.15 243.28ZM127.42 205.63C127.11 206.8 126.84 207.99 126.6 209.18C126.555 209.104 126.501 209.034 126.44 208.97C126.44 206.53 126.48 204.097 126.56 201.67C126.63 199.97 126.75 198.28 126.9 196.58C127.718 197.423 128.623 198.177 129.6 198.83C128.74 201.052 128.012 203.322 127.42 205.63ZM131.52 194.43C131.52 193.99 131.62 193.54 131.65 193.1C131.65 192.87 131.65 192.65 131.65 192.43C132.01 192.32 132.37 192.19 132.74 192.04C132.32 192.83 131.91 193.62 131.52 194.43ZM136.73 185.97C136.553 185.577 136.298 185.223 135.982 184.929C135.666 184.636 135.295 184.408 134.89 184.26C132.43 183.26 130.42 185.06 128.83 187.36L128.76 187.47H128.6C128.432 187.432 128.262 187.409 128.09 187.4C128.09 187.26 128.09 187.12 128.16 186.98C128.794 183.372 129.646 179.805 130.71 176.3C133.006 176.589 135.336 176.409 137.56 175.77C138.92 175.42 140.111 174.598 140.92 173.45C141.364 175.463 142.2 177.369 143.38 179.06C140.927 181.135 138.698 183.461 136.73 186V185.97Z" fill="#F1B442"/>
<path opacity="0.5" d="M194.07 152.67C192.162 153.29 190.289 154.015 188.46 154.84C189.46 154.1 190.46 153.35 191.46 152.58C195.92 149.004 200.161 145.164 204.16 141.08C199.47 145.645 194.457 149.866 189.16 153.71C189.883 152.439 190.524 151.123 191.08 149.77C192.03 147.28 192.26 144.77 189.88 143.44C186.96 141.8 183.41 144.25 184.35 148.44C184.914 150.778 186.017 152.953 187.57 154.79C184.118 157.179 180.513 159.34 176.78 161.26L176.42 161.44C177.214 160.073 177.912 158.653 178.51 157.19C179.46 154.71 179.69 152.19 177.31 150.87C174.39 149.22 170.84 151.68 171.78 155.87C172.339 158.18 173.424 160.329 174.95 162.15C170.46 164.36 165.81 166.24 161.2 168.28L160.53 168.58C161.433 167.612 162.268 166.583 163.03 165.5C164.54 163.31 165.34 160.93 163.34 159.07C160.88 156.79 156.86 158.36 156.79 162.68C156.791 165.066 157.349 167.418 158.42 169.55C154.106 171.552 150.005 173.985 146.18 176.81L146.06 176.91C146.577 176.09 147.047 175.242 147.47 174.37C148.6 171.96 149.02 169.48 146.75 167.97C146.287 167.649 145.758 167.438 145.201 167.353C144.645 167.267 144.076 167.309 143.539 167.476C143.001 167.643 142.508 167.93 142.098 168.315C141.688 168.7 141.37 169.174 141.17 169.7C140.868 169.229 140.456 168.838 139.97 168.56C137.68 167.24 135.43 168.67 133.51 170.69C133.01 171.22 132.51 171.78 132.08 172.35C133.567 168.214 135.438 164.226 137.67 160.44C139.788 161.375 142.075 161.865 144.39 161.88C148.95 161.88 150.88 158.08 148.64 155.72C146.82 153.81 144.26 154.54 141.84 155.94C141.04 156.405 140.265 156.912 139.52 157.46C141.841 153.968 144.475 150.694 147.39 147.68C149.266 149.23 151.452 150.362 153.8 151C158.23 152.09 161.02 148.88 159.41 146.05C158.11 143.75 155.41 143.84 152.76 144.61C151.498 144.995 150.259 145.453 149.05 145.98C150.26 144.81 151.51 143.68 152.77 142.56C154.44 141.14 156.16 139.77 157.9 138.43C159.782 139.93 161.959 141.017 164.29 141.62C168.72 142.71 171.5 139.5 169.9 136.67C168.6 134.37 165.9 134.46 163.25 135.23C162.62 135.41 162 135.63 161.38 135.86C163.69 134.21 166.04 132.6 168.38 131L170.56 129.51C172.514 131.15 174.81 132.332 177.28 132.97C181.71 134.06 184.49 130.85 182.89 128.02C181.59 125.72 178.89 125.81 176.24 126.58C175.191 126.894 174.159 127.265 173.15 127.69C173.6 127.37 174.05 127.05 174.49 126.69C175.32 126.1 176.13 125.49 176.94 124.87C177.94 124.12 178.88 123.28 179.86 122.49C180.41 122.05 180.95 121.58 181.48 121.1C183.443 122.755 185.754 123.948 188.24 124.59C192.67 125.68 195.45 122.47 193.85 119.64C192.55 117.34 189.85 117.43 187.2 118.2C185.714 118.659 184.258 119.21 182.84 119.85C184.65 118.17 186.4 116.42 188.05 114.6L188.38 114.22C189.09 113.43 189.8 112.62 190.48 111.8C191.16 110.98 192.03 109.87 192.77 108.88C195.818 104.898 198.32 100.526 200.21 95.88C198.227 100.467 195.644 104.771 192.53 108.68C189.448 112.605 186.01 116.237 182.26 119.53L181.85 119.88C182.713 118.403 183.475 116.87 184.13 115.29C185.13 112.81 185.31 110.29 182.93 108.97C180.01 107.32 176.46 109.78 177.4 113.97C178 116.452 179.206 118.747 180.91 120.65L180.03 121.41L179.03 122.27C178.44 122.74 177.85 123.19 177.25 123.64L176.25 124.37C175.4 125 174.53 125.61 173.66 126.21L172.42 127.06L171 128.06C171.824 126.64 172.552 125.167 173.18 123.65C174.13 121.16 174.36 118.65 171.98 117.32C169.06 115.68 165.51 118.14 166.45 122.32C167.033 124.726 168.181 126.958 169.8 128.83L168.75 129.51L164.85 132.06L164.09 132.56L161.92 134.01L160.98 134.64C159.98 135.33 158.98 136.03 157.98 136.75C158.821 135.309 159.563 133.812 160.2 132.27C161.15 129.79 161.38 127.27 159 125.95C156.08 124.3 152.53 126.76 153.47 130.95C154.063 133.387 155.237 135.644 156.89 137.53C155.19 138.78 153.52 140.06 151.89 141.4C150.7 142.4 149.52 143.4 148.38 144.48C148.881 143.555 149.326 142.6 149.71 141.62C150.71 139.13 150.89 136.62 148.51 135.3C145.59 133.65 142.04 136.11 142.98 140.3C143.543 142.608 144.627 144.756 146.15 146.58C142.911 149.801 139.991 153.328 137.43 157.11C137.722 156.018 137.946 154.91 138.1 153.79C138.42 151.15 138.04 148.67 135.41 147.95C132.17 147.06 129.32 150.3 131.25 154.16C132.363 156.283 133.951 158.121 135.89 159.53C133.381 163.65 131.278 168.004 129.61 172.53C129.576 171.585 129.482 170.643 129.33 169.71C128.89 167.08 127.82 164.81 125.09 164.86C121.74 164.93 119.93 168.86 122.87 172C124.448 173.639 126.372 174.906 128.5 175.71C127.365 179.209 126.437 182.772 125.72 186.38C125.61 186.95 125.52 187.52 125.41 188.09C125.29 188.2 125.17 188.31 125.06 188.43C124.94 187.94 124.8 187.43 124.64 186.96C123.8 184.44 122.39 182.35 119.71 182.83C116.4 183.4 115.21 187.55 118.61 190.22C120.343 191.536 122.338 192.467 124.46 192.95L124.58 193.24C124.22 195.95 123.94 198.68 123.77 201.42C123.64 203.42 123.57 205.51 123.53 207.56C120.67 207.56 118.65 210.7 120.62 214.1C121.453 215.508 122.518 216.766 123.77 217.82C124.01 221.67 124.39 225.52 124.9 229.34C124.495 228.967 124 228.705 123.464 228.581C122.927 228.456 122.368 228.473 121.84 228.63C120.04 229.12 119.23 230.57 118.93 232.35C118.299 233.019 117.942 233.9 117.93 234.82C116.59 232.82 115.33 230.82 114.1 228.7C115.974 227.264 117.527 225.452 118.66 223.38C120.82 219.38 118.39 215.87 115.25 216.72C112.7 217.41 112.13 220.02 112.25 222.81C112.289 223.868 112.389 224.923 112.55 225.97C112.1 225.2 111.66 224.42 111.23 223.65C110.13 221.65 109.23 219.65 108.15 217.65C107.89 217.16 107.66 216.65 107.44 216.15C109.55 215.094 111.414 213.605 112.91 211.78C115.78 208.24 114.05 204.35 110.81 204.6C108.18 204.81 107.13 207.26 106.69 210.02C106.506 211.222 106.399 212.434 106.37 213.65L105.43 211.48C103.431 206.556 101.783 201.497 100.5 196.34C102.883 195.491 105.048 194.125 106.84 192.34C110.05 189.09 108.72 185.06 105.47 184.98C102.83 184.92 101.54 187.25 100.82 189.98C100.466 191.43 100.199 192.899 100.02 194.38C99.33 191.38 98.73 188.43 98.23 185.43C97.89 183.57 97.67 181.68 97.43 179.8C99.9961 179.292 102.413 178.208 104.5 176.63C108.1 173.83 107.3 169.63 104.09 169.16C101.48 168.75 99.9 170.9 98.84 173.49C98.2155 175.123 97.6911 176.793 97.27 178.49C97.07 176.31 96.84 174.12 96.74 171.93C96.4549 167.407 96.475 162.87 96.8 158.35C96.3383 162.868 96.1813 167.411 96.33 171.95C96.33 174.04 96.51 176.12 96.64 178.21C96.0663 176.79 95.3982 175.41 94.64 174.08C93.27 171.79 91.46 170.08 88.93 171.08C85.83 172.36 85.56 176.66 89.45 178.54C91.7414 179.589 94.2534 180.066 96.77 179.93C96.95 181.79 97.1 183.66 97.39 185.51C97.78 188.46 98.28 191.39 98.86 194.3C98.2272 193.183 97.5189 192.11 96.74 191.09C95.09 189 93.06 187.52 90.74 188.87C87.83 190.54 88.12 194.87 92.22 196.2C94.5454 196.924 97.0089 197.088 99.41 196.68C100.548 201.895 102.048 207.024 103.9 212.03L104.5 213.53C103.971 212.83 103.4 212.162 102.79 211.53C100.94 209.61 98.79 208.34 96.55 209.93C93.82 211.88 94.55 216.13 98.76 217.07C101.094 217.545 103.506 217.476 105.81 216.87C106.01 217.38 106.23 217.87 106.48 218.39C107.48 220.45 108.37 222.56 109.42 224.58L110.33 226.31C109.813 225.855 109.272 225.428 108.71 225.03C106.53 223.5 104.17 222.66 102.28 224.63C99.97 227.06 101.47 231.1 105.79 231.23C108 231.288 110.197 230.869 112.23 230C113.46 232.24 114.74 234.45 116.12 236.62C116.63 237.45 117.12 238.27 117.7 239.09C116.915 238.354 116.083 237.669 115.21 237.04C113.04 235.51 110.67 234.67 108.79 236.64C106.47 239.07 107.98 243.11 112.3 243.24C114.769 243.269 117.209 242.71 119.42 241.61C120.127 242.61 120.867 243.61 121.64 244.61C120.03 246.48 120.55 249.61 123.82 251.04C125.409 251.699 127.101 252.075 128.82 252.15L129.44 252.62L129.55 252.7C131.614 260.424 134.064 268.041 136.89 275.52C138.097 278.713 139.37 281.877 140.71 285.01H128.71V332.34H165.37V285H145.78C144.11 281.35 142.51 277.66 141.01 273.93C138.56 267.8 136.34 261.59 134.4 255.28C134.728 255.379 135.062 255.455 135.4 255.51C135.844 255.598 136.3 255.618 136.75 255.57L136.23 252.28H136.16H135.88C135.7 252.28 135.46 252.19 135.25 252.16C134.791 252.03 134.342 251.863 133.91 251.66L133.39 251.42C135.317 250.748 137.106 249.732 138.67 248.42C142.15 245.42 141.16 241.32 137.93 240.97C135.3 240.68 133.82 242.9 132.93 245.53C132.66 246.28 132.44 247.06 132.24 247.82C132.06 247.12 131.86 246.42 131.69 245.72C131.16 243.65 130.69 241.56 130.21 239.47C132.299 238.805 134.239 237.738 135.92 236.33C139.4 233.33 138.41 229.24 135.18 228.89C132.55 228.6 131.07 230.82 130.18 233.45C129.907 234.214 129.674 234.992 129.48 235.78C129.18 234.25 128.88 232.73 128.62 231.2C128.42 230.06 128.25 228.93 128.08 227.79C128.01 226.17 127.99 224.55 128.01 222.92C128.01 222.03 128.01 221.14 128.09 220.24C130.049 220.868 132.106 221.132 134.16 221.02C138.71 220.72 140.4 216.82 138.02 214.61C136.08 212.8 133.57 213.7 131.24 215.24C130.193 215.948 129.192 216.719 128.24 217.55C128.517 213.744 129.092 209.966 129.96 206.25C130.478 204.062 131.119 201.906 131.88 199.79C133.97 200.514 136.181 200.823 138.39 200.7C142.94 200.41 144.63 196.51 142.25 194.29C140.31 192.49 137.8 193.38 135.47 194.93C134.643 195.488 133.845 196.089 133.08 196.73C133.955 194.659 134.977 192.654 136.14 190.73C138.467 186.862 141.374 183.375 144.76 180.39C146.499 182.001 148.557 183.231 150.8 184C155.13 185.42 158.15 182.42 156.8 179.48C155.68 177.09 153.01 176.98 150.28 177.55C149.241 177.774 148.216 178.058 147.21 178.4L147.27 178.34C151.001 175.428 155.022 172.908 159.27 170.82C160.764 172.787 162.668 174.404 164.85 175.56C168.9 177.65 172.36 175.17 171.46 172.05C170.73 169.51 168.12 168.98 165.32 169.05C164.228 169.113 163.14 169.234 162.06 169.41C166.56 167.28 171.17 165.27 175.6 162.92L175.69 162.87C177.68 164.583 180.037 165.815 182.58 166.47C187.01 167.57 189.8 164.35 188.2 161.52C186.89 159.22 184.2 159.32 181.54 160.08C180.79 160.3 180.04 160.57 179.32 160.85C182.281 159.125 185.151 157.249 187.92 155.23L188.16 155.48C188.154 155.444 188.154 155.406 188.16 155.37C190.164 157.101 192.538 158.35 195.1 159.02C199.53 160.11 202.31 156.9 200.71 154.07C199.42 151.8 196.76 151.9 194.07 152.67ZM124.15 243.28C123.25 242.21 122.39 241.11 121.54 239.99C121.75 239.81 121.97 239.61 122.19 239.39C123.436 239.779 124.726 240.011 126.03 240.08C126.03 240.15 126.03 240.22 126.03 240.29L126.64 240.16C126.95 241.74 127.29 243.31 127.64 244.88C127.231 244.351 126.7 243.929 126.092 243.65C125.484 243.371 124.818 243.244 124.15 243.28ZM127.42 205.63C127.11 206.8 126.84 207.99 126.6 209.18C126.555 209.104 126.501 209.034 126.44 208.97C126.44 206.53 126.48 204.097 126.56 201.67C126.63 199.97 126.75 198.28 126.9 196.58C127.718 197.423 128.623 198.177 129.6 198.83C128.74 201.052 128.012 203.322 127.42 205.63ZM131.52 194.43C131.52 193.99 131.62 193.54 131.65 193.1C131.65 192.87 131.65 192.65 131.65 192.43C132.01 192.32 132.37 192.19 132.74 192.04C132.32 192.83 131.91 193.62 131.52 194.43ZM136.73 185.97C136.553 185.577 136.298 185.223 135.982 184.929C135.666 184.636 135.295 184.408 134.89 184.26C132.43 183.26 130.42 185.06 128.83 187.36L128.76 187.47H128.6C128.432 187.432 128.262 187.409 128.09 187.4C128.09 187.26 128.09 187.12 128.16 186.98C128.794 183.372 129.646 179.805 130.71 176.3C133.006 176.589 135.336 176.409 137.56 175.77C138.92 175.42 140.111 174.598 140.92 173.45C141.364 175.463 142.2 177.369 143.38 179.06C140.927 181.135 138.698 183.461 136.73 186V185.97Z" fill="white"/>
<path d="M478.33 334.33C478.33 336.73 423.41 338.67 355.67 338.67C287.93 338.67 233 336.73 233 334.33C233 331.93 287.92 330 355.67 330C423.42 330 478.33 331.94 478.33 334.33Z" fill="#F1B442"/>
<path opacity="0.3" d="M478.33 334.33C478.33 336.73 423.41 338.67 355.67 338.67C287.93 338.67 233 336.73 233 334.33C233 331.93 287.92 330 355.67 330C423.42 330 478.33 331.94 478.33 334.33Z" fill="#2E353A"/>
<path d="M346.84 295.39C346.84 295.39 352.84 321.03 350.21 325.25C346.82 330.76 310.67 334.08 310.67 334.08H390.38C390.38 334.08 400.38 331.28 397.38 323.25C395.05 317.03 383.9 295.39 383.9 295.39H346.84Z" fill="white" stroke="#2E353A" stroke-linecap="round" stroke-linejoin="round"/>
<path d="M345.1 295.39C345.1 295.39 351.46 321.25 348.47 325.25C345.48 329.25 310.67 332.3 310.67 332.3H390.75C390.75 332.3 397.49 329.58 395.62 323.25C393.75 316.92 382.15 295.39 382.15 295.39H345.1Z" fill="white" stroke="#2E353A" stroke-linecap="round" stroke-linejoin="round"/>
<g style="mix-blend-mode:multiply">
<path d="M382.15 295.39H345.15C345.15 295.39 348.91 310.71 349.28 319.59H394.28C390.59 311.05 382.15 295.39 382.15 295.39Z" fill="#F1B442"/>
</g>
<path d="M390.38 332.43H310.67V334.08H390.38V332.43Z" fill="white" stroke="#2E353A" stroke-linecap="round" stroke-linejoin="round"/>
<path d="M478.11 117.53H254.56C249.876 117.53 246.08 121.327 246.08 126.01V289.44C246.08 294.123 249.876 297.92 254.56 297.92H478.11C482.793 297.92 486.59 294.123 486.59 289.44V126.01C486.59 121.327 482.793 117.53 478.11 117.53Z" fill="#F1B442" stroke="#2E353A" stroke-linecap="round" stroke-linejoin="round"/>
<path d="M472.44 117.53H248.89C244.207 117.53 240.41 121.327 240.41 126.01V289.44C240.41 294.123 244.207 297.92 248.89 297.92H472.44C477.123 297.92 480.92 294.123 480.92 289.44V126.01C480.92 121.327 477.123 117.53 472.44 117.53Z" fill="#2E353A" stroke="#2E353A" stroke-linecap="round" stroke-linejoin="round"/>
<path d="M240.41 269.87H480.92V289.42C480.92 291.669 480.026 293.826 478.436 295.416C476.846 297.007 474.689 297.9 472.44 297.9H248.89C246.641 297.9 244.484 297.007 242.894 295.416C241.303 293.826 240.41 291.669 240.41 289.42V269.87Z" fill="white" stroke="#2E353A" stroke-linecap="round" stroke-linejoin="round"/>
<path d="M468.83 128.75H252.51V256.19H468.83V128.75Z" fill="#F1B442" stroke="#2E353A" stroke-linecap="round" stroke-linejoin="round"/>
<path d="M365.1 283.89C365.1 283.011 364.839 282.153 364.351 281.422C363.863 280.692 363.169 280.123 362.357 279.787C361.545 279.451 360.652 279.364 359.79 279.536C358.929 279.708 358.137 280.132 357.517 280.754C356.896 281.376 356.474 282.168 356.304 283.03C356.134 283.892 356.223 284.785 356.561 285.596C356.898 286.407 357.469 287.1 358.201 287.587C358.932 288.073 359.791 288.332 360.67 288.33C361.253 288.33 361.829 288.215 362.368 287.992C362.906 287.769 363.395 287.441 363.806 287.029C364.217 286.617 364.544 286.127 364.766 285.588C364.988 285.05 365.101 284.473 365.1 283.89Z" fill="#2E353A" stroke="#2E353A" stroke-linecap="round" stroke-linejoin="round"/>
<path d="M466.8 137.73H254.21V148.9H466.8V137.73Z" fill="#2E353A" stroke="#2E353A" stroke-linecap="round" stroke-linejoin="round"/>
<path d="M289.28 148.91L286.74 142.01H254.21V148.91V158.06V250.76H466.8V148.91H289.28Z" fill="white" stroke="#2E353A" stroke-linecap="round" stroke-linejoin="round"/>
<path d="M406.84 335.06C406.84 335.06 408.21 338.37 415.76 339.52C423.31 340.67 474.23 334.71 474.23 334.71C474.23 334.71 477.43 333.91 477.66 332.31C477.89 330.71 469.42 326.02 453.75 324.07C440.113 322.505 426.3 324.071 413.36 328.65C403.64 332.2 406.84 335.06 406.84 335.06Z" fill="white" stroke="#2E353A" stroke-linecap="round" stroke-linejoin="round"/>
<g style="mix-blend-mode:multiply">
<path d="M465.44 329.45C462.04 329.45 454.35 329.81 448.09 330.35C441.83 330.89 431.46 334.82 425.74 336.78C420.02 338.74 410.9 338.22 410.9 338.22C412.459 338.854 414.092 339.291 415.76 339.52C423.31 340.66 474.23 334.71 474.23 334.71C475.346 334.431 476.377 333.882 477.23 333.11C474 330.77 468.22 329.45 465.44 329.45Z" fill="#F1B442"/>
</g>
<path d="M475.35 332C475.795 332.234 476.22 332.505 476.62 332.81" stroke="#2E353A" stroke-linecap="round" stroke-linejoin="round"/>
<path d="M412.45 338.72C417.756 338.878 423.041 337.984 428 336.09C438.518 331.949 449.697 329.737 461 329.56C467.57 329.51 471.59 330.41 474 331.32" stroke="#2E353A" stroke-linecap="round" stroke-linejoin="round"/>
<path d="M454.7 202.05H388.42V242.39H454.39" stroke="#2E353A" stroke-width="0.5" stroke-linecap="round" stroke-linejoin="round"/>
<path d="M388.72 213.55H455" stroke="#2E353A" stroke-width="0.5" stroke-linecap="round" stroke-linejoin="round"/>
<path d="M388.72 225.02H455" stroke="#2E353A" stroke-width="0.5" stroke-linecap="round" stroke-linejoin="round"/>
<path d="M388.72 236.49H455" stroke="#2E353A" stroke-width="0.5" stroke-linecap="round" stroke-linejoin="round"/>
<path d="M386.6 202.32H383.88" stroke="#2E353A" stroke-width="0.5" stroke-linecap="round" stroke-linejoin="round"/>
<path d="M386.6 208H383.88" stroke="#2E353A" stroke-width="0.5" stroke-linecap="round" stroke-linejoin="round"/>
<path d="M386.6 213.69H383.88" stroke="#2E353A" stroke-width="0.5" stroke-linecap="round" stroke-linejoin="round"/>
<path d="M386.6 219.38H383.88" stroke="#2E353A" stroke-width="0.5" stroke-linecap="round" stroke-linejoin="round"/>
<path d="M386.6 225.06H383.88" stroke="#2E353A" stroke-width="0.5" stroke-linecap="round" stroke-linejoin="round"/>
<path d="M386.6 230.75H383.88" stroke="#2E353A" stroke-width="0.5" stroke-linecap="round" stroke-linejoin="round"/>
<path d="M386.6 236.44H383.88" stroke="#2E353A" stroke-width="0.5" stroke-linecap="round" stroke-linejoin="round"/>
<path d="M386.6 242.12H383.88" stroke="#2E353A" stroke-width="0.5" stroke-linecap="round" stroke-linejoin="round"/>
<path d="M393.88 218.2H390.83V242.23H393.88V218.2Z" fill="#2E353A" stroke="#2E353A" stroke-linecap="round" stroke-linejoin="round"/>
<path d="M399.29 206.7H396.24V242.23H399.29V206.7Z" fill="#F1B442" stroke="#2E353A" stroke-linecap="round" stroke-linejoin="round"/>
<path d="M404.71 218.2H401.66V242.23H404.71V218.2Z" fill="white" stroke="#2E353A" stroke-linecap="round" stroke-linejoin="round"/>
<path d="M416.89 210.42H413.84V242.23H416.89V210.42Z" fill="#2E353A" stroke="#2E353A" stroke-linecap="round" stroke-linejoin="round"/>
<path d="M422.3 215.16H419.25V242.23H422.3V215.16Z" fill="#F1B442" stroke="#2E353A" stroke-linecap="round" stroke-linejoin="round"/>
<path d="M427.72 228.69H424.67V242.23H427.72V228.69Z" fill="white" stroke="#2E353A" stroke-linecap="round" stroke-linejoin="round"/>
<path d="M439.9 218.2H436.85V242.23H439.9V218.2Z" fill="#2E353A" stroke="#2E353A" stroke-linecap="round" stroke-linejoin="round"/>
<path d="M445.31 206.7H442.26V242.23H445.31V206.7Z" fill="#F1B442" stroke="#2E353A" stroke-linecap="round" stroke-linejoin="round"/>
<path d="M450.73 218.2H447.68V242.23H450.73V218.2Z" fill="white" stroke="#2E353A" stroke-linecap="round" stroke-linejoin="round"/>
<path opacity="0.4" d="M369.18 164.08L403 189.39V154.05L369.18 22.08V164.08Z" fill="#F1B442" stroke="white" stroke-linecap="round" stroke-linejoin="round"/>
<path opacity="0.4" d="M403 189.39H293L114.51 164.08H369.18L403 189.39Z" fill="#F1B442" stroke="white" stroke-linecap="round" stroke-linejoin="round"/>
<path d="M369.18 22.08H114.51V150.08H369.18V22.08Z" fill="black" stroke="#2E353A" stroke-linecap="round" stroke-linejoin="round"/>
<path d="M124.33 28.72H173" stroke="white" stroke-width="2" stroke-linecap="round" stroke-linejoin="round"/>
<path d="M362.7 28.12C362.7 27.459 362.504 26.8129 362.136 26.2634C361.769 25.7139 361.247 25.2858 360.636 25.0333C360.025 24.7808 359.353 24.7153 358.705 24.8449C358.057 24.9746 357.461 25.2937 356.995 25.7618C356.528 26.23 356.211 26.826 356.083 27.4746C355.955 28.1231 356.023 28.795 356.277 29.4051C356.531 30.0153 356.961 30.5362 357.512 30.902C358.062 31.2678 358.709 31.462 359.37 31.46C359.808 31.46 360.242 31.3736 360.647 31.2056C361.051 31.0376 361.419 30.7914 361.728 30.4812C362.038 30.1709 362.283 29.8026 362.449 29.3974C362.616 28.9923 362.701 28.5582 362.7 28.12Z" fill="white"/>
<path d="M348.43 28.12C348.428 27.4618 348.231 26.819 347.864 26.2727C347.497 25.7264 346.976 25.3011 346.367 25.0506C345.759 24.8001 345.09 24.7356 344.444 24.8652C343.799 24.9948 343.207 25.3128 342.742 25.7789C342.277 26.245 341.961 26.8384 341.833 27.484C341.706 28.1297 341.772 28.7988 342.024 29.4066C342.277 30.0145 342.704 30.534 343.251 30.8995C343.798 31.265 344.442 31.46 345.1 31.46C345.538 31.46 345.972 31.3736 346.377 31.2056C346.781 31.0376 347.149 30.7914 347.458 30.4812C347.768 30.1709 348.013 29.8026 348.179 29.3974C348.346 28.9923 348.431 28.5582 348.43 28.12Z" fill="white"/>
<path d="M369.18 36.08H114.51V164.08H369.18V36.08Z" fill="white" stroke="#2E353A" stroke-linecap="round" stroke-linejoin="round"/>
<path d="M357.18 49.42H132.51V152.08H356.51" stroke="#2E353A" stroke-width="0.5" stroke-linecap="round" stroke-linejoin="round"/>
<path d="M133.18 78.68H357.84" stroke="#2E353A" stroke-width="0.5" stroke-linecap="round" stroke-linejoin="round"/>
<path d="M133.18 107.88H357.84" stroke="#2E353A" stroke-width="0.5" stroke-linecap="round" stroke-linejoin="round"/>
<path d="M133.18 137.08H357.84" stroke="#2E353A" stroke-width="0.5" stroke-linecap="round" stroke-linejoin="round"/>
<path d="M128.51 50.08H122.51" stroke="#2E353A" stroke-width="0.5" stroke-linecap="round" stroke-linejoin="round"/>
<path d="M128.51 64.56H122.51" stroke="#2E353A" stroke-width="0.5" stroke-linecap="round" stroke-linejoin="round"/>
<path d="M128.51 79.04H122.51" stroke="#2E353A" stroke-width="0.5" stroke-linecap="round" stroke-linejoin="round"/>
<path d="M128.51 93.51H122.51" stroke="#2E353A" stroke-width="0.5" stroke-linecap="round" stroke-linejoin="round"/>
<path d="M128.51 107.99H122.51" stroke="#2E353A" stroke-width="0.5" stroke-linecap="round" stroke-linejoin="round"/>
<path d="M128.51 122.46H122.51" stroke="#2E353A" stroke-width="0.5" stroke-linecap="round" stroke-linejoin="round"/>
<path d="M128.51 136.94H122.51" stroke="#2E353A" stroke-width="0.5" stroke-linecap="round" stroke-linejoin="round"/>
<path d="M128.51 151.42H122.51" stroke="#2E353A" stroke-width="0.5" stroke-linecap="round" stroke-linejoin="round"/>
<path d="M134.18 79.22C134.18 79.22 153.84 80.08 157.84 77.42C161.84 74.76 167.18 69.42 170.51 70.08C174.12 71.0139 177.681 72.1286 181.18 73.42C181.18 73.42 189.18 68.75 191.18 68.75C193.18 68.75 199.84 72.08 205.18 72.08H220.51L226.51 76.75L237.84 73.42L250.51 78.75L258.51 77.42L269.84 83.42H275.18L285.84 88.08H299.84L307.84 92.75L320.51 93.42L330.51 103.42L338.51 102.08L347.18 105.42L355.18 104.75" stroke="#F1B442" stroke-width="3" stroke-linecap="round" stroke-linejoin="round"/>
<path d="M133.84 82.75H158.51L173.18 84.75L185.18 85.42L195.84 92.75L211.18 88.08L229.84 94.75L250.51 91.42L257.84 94.75L274.51 76.08H291.18L301.18 65.42L311.84 70.08L318.51 64.08L327.18 68.75L332.51 62.08L335.84 62.75L344.51 60.08L348.51 62.75L355.18 61.42" stroke="#2E353A" stroke-width="3" stroke-linecap="round" stroke-linejoin="round"/>
<path d="M134.51 148.08H160.51L180.51 136.75L195.18 143.42H205.84L211.18 145.42L223.18 139.42L239.18 129.42L244.51 136.75L254.51 135.42L259.84 136.75L273.18 137.42L287.84 125.42L295.18 134.08L304.51 133.42L309.84 136.75L317.84 134.75L328.51 138.75L343.18 136.75L351.18 138.08L355.84 136.75" stroke="#F1B442" stroke-width="3" stroke-linecap="round" stroke-linejoin="round"/>
<path opacity="0.4" d="M293.67 173.42L353 198.72V243.39L293.67 308.08V173.42Z" fill="#F1B442" stroke="white" stroke-linecap="round" stroke-linejoin="round"/>
<path d="M293.67 173.42H162.51V301.42H293.67V173.42Z" fill="black" stroke="#2E353A" stroke-linecap="round" stroke-linejoin="round"/>
<path d="M293.67 187.42H162.51V308.09H293.67V187.42Z" fill="white" stroke="#2E353A" stroke-linecap="round" stroke-linejoin="round"/>
<path d="M227.15 247.26L175.15 247.21C175.061 240.219 176.429 233.285 179.167 226.852C181.904 220.418 185.951 214.624 191.05 209.84L227.15 247.26Z" fill="black" stroke="white" stroke-miterlimit="10"/>
<path d="M227.15 247.26L213.65 297.45C202.548 294.574 192.729 288.065 185.757 278.96C178.785 269.854 175.061 258.677 175.18 247.21L227.15 247.26Z" fill="black" stroke="white" stroke-miterlimit="10"/>
<path d="M229.48 248.72L253.93 202.85C265.165 208.879 273.793 218.826 278.175 230.8C282.556 242.774 282.386 255.941 277.695 267.797C273.005 279.654 264.122 289.374 252.735 295.11C241.347 300.846 228.249 302.199 215.93 298.91L229.48 248.72Z" fill="#F1B442" stroke="white" stroke-miterlimit="10"/>
<path d="M227.15 247.26L224.48 195.35C233.907 194.72 243.318 196.802 251.6 201.35L227.15 247.26Z" fill="black" stroke="white" stroke-miterlimit="10"/>
<path d="M227.15 247.26L191.08 209.84C199.956 200.924 211.905 195.74 224.48 195.35L227.15 247.26Z" fill="black" stroke="white" stroke-miterlimit="10"/>
<path d="M288.33 180.72C288.33 180.061 288.135 179.418 287.769 178.87C287.403 178.322 286.883 177.896 286.274 177.643C285.666 177.391 284.996 177.325 284.35 177.454C283.704 177.582 283.111 177.9 282.645 178.365C282.18 178.831 281.862 179.424 281.734 180.07C281.605 180.716 281.671 181.386 281.923 181.994C282.175 182.603 282.602 183.123 283.15 183.489C283.697 183.855 284.341 184.05 285 184.05C285.437 184.05 285.87 183.964 286.274 183.797C286.678 183.629 287.045 183.384 287.355 183.075C287.664 182.765 287.909 182.398 288.076 181.994C288.244 181.59 288.33 181.157 288.33 180.72Z" fill="white"/>
<path d="M274.07 180.72C274.072 180.059 273.878 179.412 273.512 178.862C273.146 178.311 272.625 177.881 272.015 177.627C271.405 177.373 270.733 177.305 270.085 177.433C269.436 177.561 268.84 177.878 268.372 178.345C267.904 178.811 267.585 179.407 267.455 180.055C267.325 180.703 267.391 181.375 267.643 181.986C267.896 182.597 268.324 183.119 268.873 183.486C269.423 183.854 270.069 184.05 270.73 184.05C271.614 184.05 272.462 183.7 273.088 183.075C273.714 182.451 274.067 181.604 274.07 180.72Z" fill="white"/>
<g style="mix-blend-mode:multiply" opacity="0.73">
<path d="M293.67 187.42H162.51V202.89H293.67V187.42Z" fill="#F1B442"/>
<path d="M293.67 187.42H162.51V202.89H293.67V187.42Z" stroke="white" stroke-linecap="round" stroke-linejoin="round"/>
</g>
</svg>
