<svg width="512" height="350" viewBox="0 0 512 350" fill="none" xmlns="http://www.w3.org/2000/svg">
<rect width="1440" height="900" transform="translate(-468 -278)" fill="#F18842"/>
<path d="M281.661 30.9899H258.899V36.232H281.661V30.9899Z" fill="#F1B442"/>
<path d="M273.854 38.5636H258.899V43.8057H273.854V38.5636Z" fill="#F1B442"/>
<path d="M267.51 46.1373H258.899V51.3793H267.51V46.1373Z" fill="#F1B442"/>
<g opacity="0.2">
<path opacity="0.2" d="M281.661 30.9899H258.899V36.232H281.661V30.9899Z" fill="white"/>
<path opacity="0.2" d="M273.854 38.5636H258.899V43.8057H273.854V38.5636Z" fill="white"/>
<path opacity="0.2" d="M267.51 46.1373H258.899V51.3793H267.51V46.1373Z" fill="white"/>
</g>
<path d="M219.375 89.0388V104.821H227.093V89.0388H219.375Z" fill="#F1B442"/>
<path d="M230.526 94.4577V104.821H238.245V94.4577H230.526Z" fill="#F1B442"/>
<path d="M241.67 98.8475V104.813H249.388V98.8475H241.67Z" fill="#F1B442"/>
<g opacity="0.2">
<path opacity="0.2" d="M219.375 89.0388V104.821H227.093V89.0388H219.375Z" fill="white"/>
<path opacity="0.2" d="M230.526 94.4577V104.821H238.245V94.4577H230.526Z" fill="white"/>
<path opacity="0.2" d="M241.67 98.8475V104.813H249.388V98.8475H241.67Z" fill="white"/>
</g>
<path d="M217.646 116.335H311.111C312.335 116.337 313.548 116.097 314.679 115.63C315.811 115.163 316.839 114.478 317.705 113.613C318.571 112.749 319.259 111.721 319.727 110.591C320.196 109.46 320.438 108.248 320.438 107.024V30.001C320.438 28.777 320.196 27.565 319.727 26.4344C319.259 25.3038 318.571 24.2767 317.705 23.4119C316.839 22.5472 315.811 21.8617 314.679 21.3948C313.548 20.9278 312.335 20.6886 311.111 20.6907H217.646C216.423 20.6896 215.211 20.9296 214.08 21.3969C212.949 21.8642 211.921 22.5497 211.055 23.4143C210.189 24.2788 209.501 25.3055 209.032 26.4356C208.563 27.5658 208.321 28.7773 208.32 30.001V107.024C208.321 108.248 208.563 109.459 209.032 110.59C209.501 111.72 210.189 112.746 211.055 113.611C211.921 114.475 212.949 115.161 214.08 115.628C215.211 116.096 216.423 116.336 217.646 116.335V116.335Z" stroke="#263238" stroke-width="1.0631" stroke-miterlimit="10"/>
<path d="M276.579 89.891H309.905" stroke="#263238" stroke-width="1.0631" stroke-miterlimit="10"/>
<path d="M276.579 93.4527H309.905" stroke="#263238" stroke-width="1.0631" stroke-miterlimit="10"/>
<path d="M276.579 97.0144H309.905" stroke="#263238" stroke-width="1.0631" stroke-miterlimit="10"/>
<path d="M276.579 100.584H309.905" stroke="#263238" stroke-width="1.0631" stroke-miterlimit="10"/>
<path d="M276.579 104.146H309.905" stroke="#263238" stroke-width="1.0631" stroke-miterlimit="10"/>
<path d="M218.354 31.7698H251.68" stroke="#263238" stroke-width="1.0631" stroke-miterlimit="10"/>
<path d="M218.354 35.3315H251.68" stroke="#263238" stroke-width="1.0631" stroke-miterlimit="10"/>
<path d="M218.354 38.8932H251.68" stroke="#263238" stroke-width="1.0631" stroke-miterlimit="10"/>
<path d="M218.354 42.455H251.68" stroke="#263238" stroke-width="1.0631" stroke-miterlimit="10"/>
<path d="M218.354 46.0247H251.68" stroke="#263238" stroke-width="1.0631" stroke-miterlimit="10"/>
<path d="M305.733 59.7812L312.084 63.1178L311.369 45.2047L296.189 54.7803L302.541 58.1088L297.765 67.2021C296.92 67.2054 296.1 67.4881 295.433 68.0061L287.023 64.0986C287.023 63.0709 286.615 62.0852 285.888 61.3584C285.162 60.6317 284.176 60.2234 283.148 60.2234C282.12 60.2234 281.135 60.6317 280.408 61.3584C279.681 62.0852 279.273 63.0709 279.273 64.0986C279.273 64.654 279.393 65.2027 279.627 65.7066L268.604 77.6541C268.253 77.5414 267.887 77.4817 267.518 77.4772C267.332 77.4836 267.147 77.5024 266.964 77.5335L251.117 57.5058C251.345 57.0007 251.46 56.452 251.454 55.8978C251.454 54.8701 251.046 53.8844 250.319 53.1576C249.593 52.4309 248.607 52.0226 247.579 52.0226C246.551 52.0226 245.566 52.4309 244.839 53.1576C244.112 53.8844 243.704 54.8701 243.704 55.8978C243.712 56.2969 243.78 56.6925 243.905 57.0717L225.807 75.4994C225.382 75.3438 224.933 75.2622 224.48 75.2582C223.716 75.2597 222.969 75.4879 222.334 75.9138C221.699 76.3397 221.205 76.9442 220.913 77.651C220.622 78.3578 220.546 79.1351 220.696 79.8848C220.847 80.6344 221.215 81.3227 221.757 81.8628C222.298 82.4028 222.987 82.7703 223.737 82.9189C224.487 83.0675 225.264 82.9904 225.97 82.6975C226.676 82.4045 227.28 81.9089 227.704 81.2731C228.129 80.6373 228.356 79.8899 228.356 79.1254C228.354 78.8049 228.311 78.486 228.227 78.1767L246.478 59.54C246.834 59.6521 247.205 59.7117 247.579 59.7168C247.816 59.7163 248.053 59.6948 248.287 59.6525L264.053 79.64C263.768 80.2103 263.628 80.8423 263.646 81.4797C263.663 82.1172 263.838 82.7405 264.154 83.2943C264.47 83.8481 264.918 84.3153 265.458 84.6545C265.998 84.9938 266.613 85.1945 267.249 85.2389C267.886 85.2833 268.523 85.17 269.105 84.9092C269.687 84.6483 270.195 84.2478 270.585 83.7433C270.975 83.2388 271.235 82.6458 271.341 82.017C271.447 81.3882 271.396 80.7429 271.193 80.1384L282.497 67.8935C282.712 67.9317 282.93 67.9532 283.148 67.9578C283.916 67.9588 284.667 67.7291 285.303 67.2986L293.906 71.3186C293.939 71.915 294.109 72.4957 294.405 73.0151C294.7 73.5345 295.111 73.9785 295.607 74.3123C296.102 74.646 296.668 74.8604 297.26 74.9387C297.853 75.017 298.455 74.957 299.02 74.7634C299.585 74.5699 300.098 74.248 300.518 73.8231C300.938 73.3982 301.253 72.8818 301.44 72.3144C301.627 71.747 301.68 71.144 301.595 70.5528C301.509 69.9615 301.288 69.398 300.949 68.9066L305.733 59.7812Z" fill="#263238"/>
<path d="M186.958 77.3807L176.088 60.3922L158.126 73.602L141.564 40.8229L97.8584 68.6091V91.0568H196.413V72.1869L186.958 77.3807Z" fill="#263238" stroke="#263238" stroke-width="1.16063" stroke-linecap="round" stroke-linejoin="round"/>
<path d="M188.847 90.1161L177.036 72.1869L157.186 80.2108L134.022 58.0365L97.8584 72.6371V105.215H196.413V84.9223L188.847 90.1161Z" fill="#F1B442" stroke="#263238" stroke-width="0.876601" stroke-miterlimit="10"/>
<path opacity="0.2" d="M188.847 90.1161L177.036 72.1869L157.186 80.2108L134.022 58.0365L97.8584 72.6371V105.215H196.413V84.9223L188.847 90.1161Z" fill="white"/>
<path d="M188.847 90.1161L177.036 72.1869L157.186 80.2108L134.022 58.0365L97.8584 72.6371V105.215H196.413V84.9223L188.847 90.1161Z" stroke="#263238" stroke-width="0.876601" stroke-miterlimit="10"/>
<path d="M153.857 32.5095H145.921C145.436 32.5059 144.964 32.6668 144.582 32.9659C144.2 33.2651 143.931 33.6849 143.818 34.1568C143.705 34.6288 143.755 35.125 143.961 35.5647C144.166 36.0043 144.514 36.3614 144.949 36.5777L142.175 39.5284L147.232 36.8189H153.857C154.428 36.8189 154.976 36.5919 155.381 36.1878C155.785 35.7837 156.012 35.2356 156.012 34.6642C156.012 34.0927 155.785 33.5447 155.381 33.1406C154.976 32.7365 154.428 32.5095 153.857 32.5095Z" fill="#F1B442"/>
<path opacity="0.2" d="M153.857 32.5095H145.921C145.436 32.5059 144.964 32.6668 144.582 32.9659C144.2 33.2651 143.931 33.6849 143.818 34.1568C143.705 34.6288 143.755 35.125 143.961 35.5647C144.166 36.0043 144.514 36.3614 144.949 36.5777L142.175 39.5284L147.232 36.8189H153.857C154.428 36.8189 154.976 36.5919 155.381 36.1878C155.785 35.7837 156.012 35.2356 156.012 34.6642C156.012 34.0927 155.785 33.5447 155.381 33.1406C154.976 32.7365 154.428 32.5095 153.857 32.5095Z" fill="white"/>
<path d="M188.614 51.6929H180.678C180.193 51.6893 179.721 51.8502 179.339 52.1494C178.957 52.4486 178.687 52.8683 178.575 53.3403C178.462 53.8122 178.512 54.3085 178.717 54.7481C178.923 55.1878 179.271 55.5449 179.705 55.7612L176.932 58.736L181.989 56.0185H188.614C189.185 56.0185 189.733 55.7914 190.137 55.3874C190.541 54.9833 190.768 54.4352 190.768 53.8637C190.768 53.2923 190.541 52.7442 190.137 52.3401C189.733 51.936 189.185 51.709 188.614 51.709V51.6929Z" fill="#F1B442"/>
<path opacity="0.2" d="M188.614 51.6929H180.678C180.193 51.6893 179.721 51.8502 179.339 52.1494C178.957 52.4486 178.687 52.8683 178.575 53.3403C178.462 53.8122 178.512 54.3085 178.717 54.7481C178.923 55.1878 179.271 55.5449 179.705 55.7612L176.932 58.736L181.989 56.0185H188.614C189.185 56.0185 189.733 55.7914 190.137 55.3874C190.541 54.9833 190.768 54.4352 190.768 53.8637C190.768 53.2923 190.541 52.7442 190.137 52.3401C189.733 51.936 189.185 51.709 188.614 51.709V51.6929Z" fill="white"/>
<path d="M101.838 116.335H195.303C196.527 116.337 197.74 116.097 198.871 115.63C200.002 115.163 201.031 114.478 201.897 113.613C202.763 112.749 203.45 111.721 203.919 110.591C204.388 109.46 204.63 108.248 204.63 107.024V30.001C204.63 28.777 204.388 27.565 203.919 26.4344C203.45 25.3038 202.763 24.2767 201.897 23.4119C201.031 22.5472 200.002 21.8617 198.871 21.3948C197.74 20.9278 196.527 20.6886 195.303 20.6907H101.838C100.614 20.6886 99.4017 20.9278 98.2703 21.3948C97.1388 21.8617 96.1106 22.5472 95.2443 23.4119C94.3781 24.2767 93.6909 25.3038 93.222 26.4344C92.7531 27.565 92.5117 28.777 92.5117 30.001V107.024C92.5117 108.248 92.7531 109.46 93.222 110.591C93.6909 111.721 94.3781 112.749 95.2443 113.613C96.1106 114.478 97.1388 115.163 98.2703 115.63C99.4017 116.097 100.614 116.337 101.838 116.335V116.335Z" stroke="#263238" stroke-width="1.0631" stroke-miterlimit="10"/>
<path d="M99.6111 31.0864H106.051" stroke="#263238" stroke-width="1.0631" stroke-miterlimit="10"/>
<path d="M99.6111 38.0973H106.051" stroke="#263238" stroke-width="1.0631" stroke-miterlimit="10"/>
<path d="M99.6111 45.1082H106.051" stroke="#263238" stroke-width="1.0631" stroke-miterlimit="10"/>
<path d="M99.6111 52.119H106.051" stroke="#263238" stroke-width="1.0631" stroke-miterlimit="10"/>
<path d="M99.6111 59.1299H106.051" stroke="#263238" stroke-width="1.0631" stroke-miterlimit="10"/>
<path d="M352.541 40.5897C348.354 40.5961 344.263 41.8435 340.784 44.1744C337.306 46.5052 334.597 49.8149 332.999 53.6851C331.401 57.5553 330.986 61.8124 331.807 65.9183C332.628 70.0241 334.647 73.7946 337.61 76.7531C340.573 79.7116 344.347 81.7253 348.454 82.5398C352.561 83.3544 356.817 82.9331 360.685 81.3293C364.553 79.7255 367.858 77.0111 370.184 73.5292C372.51 70.0473 373.751 65.9542 373.751 61.7671C373.742 56.1475 371.504 50.7611 367.527 46.7905C363.551 42.8199 358.161 40.5897 352.541 40.5897ZM352.541 76.7215C349.584 76.7104 346.696 75.8232 344.243 74.172C341.79 72.5208 339.881 70.1796 338.757 67.4442C337.634 64.7087 337.346 61.7016 337.93 58.8027C338.514 55.9038 339.945 53.243 342.04 51.1564C344.136 49.0698 346.803 47.651 349.704 47.0791C352.605 46.5073 355.611 46.808 358.342 47.9433C361.072 49.0787 363.405 50.9977 365.046 53.4581C366.687 55.9185 367.562 58.8099 367.56 61.7671C367.556 63.7352 367.164 65.6831 366.407 67.4997C365.65 69.3164 364.542 70.9661 363.148 72.3548C361.753 73.7434 360.099 74.8438 358.279 75.593C356.459 76.3423 354.509 76.7257 352.541 76.7215Z" fill="#F1B442" stroke="#263238" stroke-width="1.0631" stroke-miterlimit="10"/>
<g opacity="0.2">
<path opacity="0.2" d="M352.541 40.5897C348.354 40.5961 344.263 41.8435 340.784 44.1744C337.306 46.5052 334.597 49.8149 332.999 53.6851C331.401 57.5553 330.986 61.8124 331.807 65.9183C332.628 70.0241 334.647 73.7946 337.61 76.7531C340.573 79.7116 344.347 81.7253 348.454 82.5398C352.561 83.3544 356.817 82.9331 360.685 81.3293C364.553 79.7255 367.858 77.0111 370.184 73.5292C372.51 70.0473 373.751 65.9542 373.751 61.7671C373.742 56.1475 371.504 50.7611 367.527 46.7905C363.551 42.8199 358.161 40.5897 352.541 40.5897ZM352.541 76.7215C349.584 76.7104 346.696 75.8232 344.243 74.172C341.79 72.5208 339.881 70.1796 338.757 67.4442C337.634 64.7087 337.346 61.7016 337.93 58.8027C338.514 55.9038 339.945 53.243 342.04 51.1564C344.136 49.0698 346.803 47.651 349.704 47.0791C352.605 46.5073 355.611 46.808 358.342 47.9433C361.072 49.0787 363.405 50.9977 365.046 53.4581C366.687 55.9185 367.562 58.8099 367.56 61.7671C367.556 63.7352 367.164 65.6831 366.407 67.4997C365.65 69.3164 364.542 70.9661 363.148 72.3548C361.753 73.7434 360.099 74.8438 358.279 75.593C356.459 76.3423 354.509 76.7257 352.541 76.7215Z" fill="white"/>
</g>
<path d="M352.541 40.5897C348.354 40.5961 344.263 41.8435 340.784 44.1744C337.306 46.5052 334.597 49.8149 332.999 53.6851C331.401 57.5553 330.986 61.8124 331.807 65.9183C332.628 70.0241 334.647 73.7946 337.61 76.7531C340.573 79.7116 344.347 81.7253 348.454 82.5398C352.561 83.3544 356.817 82.9331 360.685 81.3293C364.553 79.7255 367.858 77.0111 370.184 73.5292C372.51 70.0473 373.751 65.9542 373.751 61.7671C373.742 56.1475 371.504 50.7611 367.527 46.7905C363.551 42.8199 358.161 40.5897 352.541 40.5897V40.5897ZM352.541 76.7215C349.584 76.7104 346.696 75.8232 344.243 74.172C341.79 72.5208 339.881 70.1796 338.757 67.4442C337.634 64.7087 337.346 61.7016 337.93 58.8027C338.514 55.9038 339.945 53.243 342.04 51.1564C344.136 49.0698 346.803 47.651 349.704 47.0791C352.605 46.5073 355.611 46.808 358.342 47.9433C361.072 49.0787 363.405 50.9977 365.046 53.4581C366.687 55.9185 367.562 58.8099 367.56 61.7671C367.556 63.7352 367.164 65.6831 366.407 67.4997C365.65 69.3164 364.542 70.9661 363.148 72.3548C361.753 73.7434 360.099 74.8438 358.279 75.593C356.459 76.3423 354.509 76.7257 352.541 76.7215V76.7215Z" stroke="#263238" stroke-width="1.0631" stroke-miterlimit="10"/>
<path d="M352.541 40.5897C349.679 40.5781 346.844 41.1504 344.211 42.2715C341.578 43.3926 339.2 45.0391 337.225 47.1102L341.719 51.4116C343.43 49.6205 345.558 48.2817 347.913 47.5153C350.268 46.7489 352.777 46.5788 355.214 47.0202C357.651 47.4616 359.94 48.5007 361.877 50.0444C363.814 51.5881 365.337 53.5882 366.311 55.8654C367.284 58.1427 367.678 60.6259 367.456 63.0926C367.234 65.5593 366.403 67.9324 365.039 69.9993C363.674 72.0661 361.818 73.7621 359.637 74.9353C357.456 76.1085 355.018 76.7222 352.541 76.7215V82.9364C355.356 82.9913 358.154 82.4841 360.771 81.4447C363.388 80.4053 365.771 78.8544 367.782 76.8829C369.792 74.9113 371.389 72.5586 372.479 69.9625C373.57 67.3663 374.131 64.5788 374.131 61.7631C374.131 58.9473 373.57 56.1598 372.479 53.5636C371.389 50.9675 369.792 48.6148 367.782 46.6432C365.771 44.6717 363.388 43.1208 360.771 42.0814C358.154 41.042 355.356 40.5349 352.541 40.5897Z" fill="#263238" stroke="#263238" stroke-width="1.0631" stroke-linecap="round" stroke-linejoin="round"/>
<path d="M404.849 40.5897C400.662 40.5961 396.571 41.8435 393.093 44.1744C389.614 46.5052 386.905 49.8149 385.307 53.6851C383.709 57.5553 383.294 61.8124 384.115 65.9183C384.936 70.0241 386.955 73.7946 389.918 76.7531C392.881 79.7116 396.655 81.7253 400.762 82.5398C404.869 83.3544 409.125 82.9331 412.993 81.3293C416.861 79.7255 420.166 77.0111 422.492 73.5292C424.818 70.0473 426.059 65.9542 426.059 61.7671C426.05 56.1475 423.812 50.7611 419.835 46.7905C415.859 42.8199 410.469 40.5897 404.849 40.5897ZM404.849 76.7215C401.89 76.7199 398.998 75.8408 396.538 74.1954C394.078 72.55 392.162 70.2121 391.031 67.4775C389.9 64.7429 389.605 61.7343 390.184 58.8321C390.763 55.93 392.189 53.2647 394.283 51.1733C396.377 49.0819 399.043 47.6583 401.946 47.0825C404.849 46.5068 407.857 46.8047 410.591 47.9386C413.324 49.0726 415.66 50.9916 417.303 53.453C418.945 55.9145 419.821 58.8078 419.82 61.7671C419.809 65.7328 418.228 69.5327 415.422 72.3354C412.617 75.138 408.815 76.7151 404.849 76.7215Z" fill="#F1B442" stroke="#263238" stroke-width="1.0631" stroke-miterlimit="10"/>
<g opacity="0.2">
<path opacity="0.2" d="M404.849 40.5897C400.662 40.5961 396.571 41.8435 393.093 44.1744C389.614 46.5052 386.905 49.8149 385.307 53.6851C383.709 57.5553 383.294 61.8124 384.115 65.9183C384.936 70.0241 386.955 73.7946 389.918 76.7531C392.881 79.7116 396.655 81.7253 400.762 82.5398C404.869 83.3544 409.125 82.9331 412.993 81.3293C416.861 79.7255 420.166 77.0111 422.492 73.5292C424.818 70.0473 426.059 65.9542 426.059 61.7671C426.05 56.1475 423.812 50.7611 419.835 46.7905C415.859 42.8199 410.469 40.5897 404.849 40.5897ZM404.849 76.7215C401.89 76.7199 398.998 75.8408 396.538 74.1954C394.078 72.55 392.162 70.2121 391.031 67.4775C389.9 64.7429 389.605 61.7343 390.184 58.8321C390.763 55.93 392.189 53.2647 394.283 51.1733C396.377 49.0819 399.043 47.6583 401.946 47.0825C404.849 46.5068 407.857 46.8047 410.591 47.9386C413.324 49.0726 415.66 50.9916 417.303 53.453C418.945 55.9145 419.821 58.8078 419.82 61.7671C419.809 65.7328 418.228 69.5327 415.422 72.3354C412.617 75.138 408.815 76.7151 404.849 76.7215Z" fill="white"/>
</g>
<path d="M404.849 40.5897C400.662 40.5961 396.571 41.8435 393.093 44.1744C389.614 46.5052 386.905 49.8149 385.307 53.6851C383.709 57.5553 383.294 61.8124 384.115 65.9183C384.936 70.0241 386.955 73.7946 389.918 76.7531C392.881 79.7116 396.655 81.7253 400.762 82.5398C404.869 83.3544 409.125 82.9331 412.993 81.3293C416.861 79.7255 420.166 77.0111 422.492 73.5292C424.818 70.0473 426.059 65.9542 426.059 61.7671C426.05 56.1475 423.812 50.7611 419.835 46.7905C415.859 42.8199 410.469 40.5897 404.849 40.5897V40.5897ZM404.849 76.7215C401.89 76.7199 398.998 75.8408 396.538 74.1954C394.078 72.55 392.162 70.2121 391.031 67.4775C389.9 64.7429 389.605 61.7343 390.184 58.8321C390.763 55.93 392.189 53.2647 394.283 51.1733C396.377 49.0819 399.043 47.6583 401.946 47.0825C404.849 46.5068 407.857 46.8047 410.591 47.9386C413.324 49.0726 415.66 50.9916 417.303 53.453C418.945 55.9145 419.821 58.8078 419.82 61.7671C419.809 65.7328 418.228 69.5327 415.422 72.3354C412.617 75.138 408.815 76.7151 404.849 76.7215V76.7215Z" stroke="#263238" stroke-width="1.0631" stroke-miterlimit="10"/>
<path d="M413.106 42.254L410.694 47.9785C413.875 49.3235 416.492 51.727 418.102 54.7814C419.712 57.8358 420.216 61.3531 419.529 64.7368C418.842 68.1206 417.006 71.1626 414.332 73.3469C411.657 75.5312 408.31 76.7235 404.857 76.7215V82.9364C409.749 82.9477 414.494 81.2644 418.285 78.1728C422.076 75.0812 424.679 70.772 425.652 65.9779C426.625 61.1838 425.908 56.2007 423.622 51.8757C421.337 47.5507 417.624 44.1508 413.114 42.254H413.106Z" fill="#263238" stroke="#263238" stroke-width="1.0631" stroke-linecap="round" stroke-linejoin="round"/>
<path d="M423.293 20.6907H335.898C334.377 20.6897 332.87 20.9883 331.464 21.5696C330.058 22.1508 328.78 23.0033 327.704 24.0784C326.627 25.1535 325.773 26.4301 325.19 27.8353C324.606 29.2405 324.306 30.7469 324.305 32.2683V104.765C324.309 107.836 325.533 110.78 327.707 112.95C329.881 115.119 332.827 116.337 335.898 116.335H423.293C424.814 116.337 426.321 116.039 427.727 115.459C429.133 114.878 430.411 114.027 431.487 112.952C432.564 111.878 433.418 110.602 434.002 109.197C434.585 107.792 434.886 106.286 434.887 104.765V32.2683C434.886 30.7469 434.585 29.2405 434.002 27.8353C433.419 26.4301 432.564 25.1535 431.488 24.0784C430.411 23.0033 429.133 22.1508 427.727 21.5696C426.321 20.9883 424.815 20.6897 423.293 20.6907V20.6907Z" stroke="#263238" stroke-width="1.0631" stroke-miterlimit="10"/>
<path d="M333.695 89.891H367.013" stroke="#263238" stroke-width="1.0631" stroke-miterlimit="10"/>
<path d="M333.695 93.4528H367.013" stroke="#263238" stroke-width="1.0631" stroke-miterlimit="10"/>
<path d="M333.695 97.0145H367.013" stroke="#263238" stroke-width="1.0631" stroke-miterlimit="10"/>
<path d="M333.695 100.584H367.013" stroke="#263238" stroke-width="1.0631" stroke-miterlimit="10"/>
<path d="M333.695 104.146H367.013" stroke="#263238" stroke-width="1.0631" stroke-miterlimit="10"/>
<path d="M388.721 89.891H422.047" stroke="#263238" stroke-width="1.0631" stroke-miterlimit="10"/>
<path d="M388.721 93.4528H422.047" stroke="#263238" stroke-width="1.0631" stroke-miterlimit="10"/>
<path d="M388.721 97.0145H422.047" stroke="#263238" stroke-width="1.0631" stroke-miterlimit="10"/>
<path d="M388.721 100.584H422.047" stroke="#263238" stroke-width="1.0631" stroke-miterlimit="10"/>
<path d="M388.721 104.146H422.047" stroke="#263238" stroke-width="1.0631" stroke-miterlimit="10"/>
<path d="M361.819 30.5076H395.137" stroke="#263238" stroke-width="1.0631" stroke-miterlimit="10"/>
<path d="M361.819 34.0773H395.137" stroke="#263238" stroke-width="1.0631" stroke-miterlimit="10"/>
<path d="M323.951 250.361H422.586C425.845 250.363 428.971 249.071 431.278 246.769C433.585 244.467 434.883 241.343 434.887 238.084V134.199C434.886 132.585 434.567 130.987 433.948 129.496C433.329 128.005 432.423 126.65 431.281 125.509C430.138 124.368 428.783 123.464 427.291 122.847C425.799 122.23 424.2 121.913 422.586 121.914H276.901C275.287 121.913 273.688 122.23 272.196 122.847C270.704 123.464 269.348 124.368 268.206 125.509C267.064 126.65 266.157 128.005 265.539 129.496C264.92 130.987 264.601 132.585 264.6 134.199V202.652" stroke="#263238" stroke-width="1.0631" stroke-miterlimit="10"/>
<path d="M312.309 182.496H288.848V216.593H312.309V182.496Z" fill="#F1B442" stroke="#263238" stroke-width="1.16063" stroke-miterlimit="10"/>
<path opacity="0.2" d="M312.309 182.496H288.848V216.593H312.309V182.496Z" fill="white"/>
<path d="M312.309 182.496H288.848V216.593H312.309V182.496Z" stroke="#263238" stroke-width="1.16063" stroke-miterlimit="10"/>
<path d="M344.887 165.443H321.427V203.191H344.887V165.443Z" fill="#F1B442" stroke="#263238" stroke-width="1.16063" stroke-miterlimit="10"/>
<path opacity="0.2" d="M344.887 165.443H321.427V203.191H344.887V165.443Z" fill="white"/>
<path d="M344.887 165.443H321.427V203.191H344.887V165.443Z" stroke="#263238" stroke-width="1.16063" stroke-miterlimit="10"/>
<path d="M377.465 151.445H354.005V176.409H377.465V151.445Z" fill="#F1B442" stroke="#263238" stroke-width="1.16063" stroke-miterlimit="10"/>
<path opacity="0.2" d="M377.465 151.445H354.005V176.409H377.465V151.445Z" fill="white"/>
<path d="M377.465 151.445H354.005V176.409H377.465V151.445Z" stroke="#263238" stroke-width="1.16063" stroke-miterlimit="10"/>
<path d="M312.309 216.585H288.848V230.591H312.309V216.585Z" fill="#263238" stroke="#263238" stroke-width="1.16063" stroke-linecap="round" stroke-linejoin="round"/>
<path d="M344.887 203.191H321.427V230.591H344.887V203.191Z" fill="#263238" stroke="#263238" stroke-width="1.16063" stroke-linecap="round" stroke-linejoin="round"/>
<path d="M408.122 165.443H384.661V203.191H408.122V165.443Z" fill="#F1B442" stroke="#263238" stroke-width="1.16063" stroke-miterlimit="10"/>
<path opacity="0.2" d="M408.122 165.443H384.661V203.191H408.122V165.443Z" fill="white"/>
<path d="M408.122 165.443H384.661V203.191H408.122V165.443Z" stroke="#263238" stroke-width="1.16063" stroke-miterlimit="10"/>
<path d="M408.122 203.191H384.661V230.591H408.122V203.191Z" fill="#263238" stroke="#263238" stroke-width="1.16063" stroke-linecap="round" stroke-linejoin="round"/>
<path d="M377.465 176.401H354.005V230.591H377.465V176.401Z" fill="#263238" stroke="#263238" stroke-width="1.16063" stroke-linecap="round" stroke-linejoin="round"/>
<path d="M340.819 151.493H326.178C325.506 151.493 324.862 151.76 324.387 152.235C323.912 152.71 323.646 153.354 323.646 154.026V157.395C323.646 158.067 323.912 158.711 324.387 159.186C324.862 159.661 325.506 159.927 326.178 159.927H331.605L333.503 163.208L335.392 159.927H340.819C341.491 159.927 342.135 159.661 342.61 159.186C343.085 158.711 343.352 158.067 343.352 157.395V154.026C343.352 153.354 343.085 152.71 342.61 152.235C342.135 151.76 341.491 151.493 340.819 151.493Z" fill="#F1B442"/>
<path opacity="0.5" d="M340.819 151.493H326.178C325.506 151.493 324.862 151.76 324.387 152.235C323.912 152.71 323.646 153.354 323.646 154.026V157.395C323.646 158.067 323.912 158.711 324.387 159.186C324.862 159.661 325.506 159.927 326.178 159.927H331.605L333.503 163.208L335.392 159.927H340.819C341.491 159.927 342.135 159.661 342.61 159.186C343.085 158.711 343.352 158.067 343.352 157.395V154.026C343.352 153.354 343.085 152.71 342.61 152.235C342.135 151.76 341.491 151.493 340.819 151.493Z" fill="white"/>
<path d="M340.819 151.493H326.178C325.506 151.493 324.862 151.76 324.387 152.235C323.912 152.71 323.646 153.354 323.646 154.026V157.395C323.646 158.067 323.912 158.711 324.387 159.186C324.862 159.661 325.506 159.927 326.178 159.927H331.605L333.503 163.208L335.392 159.927H340.819C341.491 159.927 342.135 159.661 342.61 159.186C343.085 158.711 343.352 158.067 343.352 157.395V154.026C343.352 153.354 343.085 152.71 342.61 152.235C342.135 151.76 341.491 151.493 340.819 151.493V151.493Z" stroke="#263238" stroke-width="1.16689" stroke-linecap="round" stroke-linejoin="round"/>
<path d="M307.895 168.98H293.262C292.592 168.98 291.949 169.246 291.474 169.719C291 170.193 290.732 170.835 290.73 171.505V174.882C290.732 175.552 291 176.194 291.474 176.667C291.949 177.141 292.592 177.406 293.262 177.406H298.681L300.579 180.687L302.476 177.406H307.895C308.565 177.406 309.208 177.141 309.683 176.667C310.158 176.194 310.426 175.552 310.428 174.882V171.505C310.426 170.835 310.158 170.193 309.683 169.719C309.208 169.246 308.565 168.98 307.895 168.98Z" fill="#F1B442"/>
<path opacity="0.5" d="M307.895 168.98H293.262C292.592 168.98 291.949 169.246 291.474 169.719C291 170.193 290.732 170.835 290.73 171.505V174.882C290.732 175.552 291 176.194 291.474 176.667C291.949 177.141 292.592 177.406 293.262 177.406H298.681L300.579 180.687L302.476 177.406H307.895C308.565 177.406 309.208 177.141 309.683 176.667C310.158 176.194 310.426 175.552 310.428 174.882V171.505C310.426 170.835 310.158 170.193 309.683 169.719C309.208 169.246 308.565 168.98 307.895 168.98Z" fill="white"/>
<path d="M307.895 168.98H293.262C292.592 168.98 291.949 169.246 291.474 169.719C291 170.193 290.732 170.835 290.73 171.505V174.882C290.732 175.552 291 176.194 291.474 176.667C291.949 177.141 292.592 177.406 293.262 177.406H298.681L300.579 180.687L302.476 177.406H307.895C308.565 177.406 309.208 177.141 309.683 176.667C310.158 176.194 310.426 175.552 310.428 174.882V171.505C310.426 170.835 310.158 170.193 309.683 169.719C309.208 169.246 308.565 168.98 307.895 168.98V168.98Z" stroke="#263238" stroke-width="1.16689" stroke-linecap="round" stroke-linejoin="round"/>
<path d="M372.907 137.448H358.266C357.594 137.448 356.95 137.714 356.475 138.189C356 138.664 355.733 139.308 355.733 139.98V143.349C355.733 143.681 355.799 144.01 355.926 144.317C356.053 144.624 356.24 144.902 356.475 145.137C356.711 145.371 356.99 145.557 357.297 145.684C357.604 145.81 357.934 145.875 358.266 145.874H363.693L365.582 149.154L367.48 145.874H372.907C373.239 145.875 373.568 145.81 373.875 145.684C374.182 145.557 374.462 145.371 374.697 145.137C374.932 144.902 375.119 144.624 375.246 144.317C375.374 144.01 375.439 143.681 375.439 143.349V139.98C375.439 139.308 375.172 138.664 374.697 138.189C374.222 137.714 373.578 137.448 372.907 137.448Z" fill="#F1B442"/>
<path opacity="0.5" d="M372.907 137.448H358.266C357.594 137.448 356.95 137.714 356.475 138.189C356 138.664 355.733 139.308 355.733 139.98V143.349C355.733 143.681 355.799 144.01 355.926 144.317C356.053 144.624 356.24 144.902 356.475 145.137C356.711 145.371 356.99 145.557 357.297 145.684C357.604 145.81 357.934 145.875 358.266 145.874H363.693L365.582 149.154L367.48 145.874H372.907C373.239 145.875 373.568 145.81 373.875 145.684C374.182 145.557 374.462 145.371 374.697 145.137C374.932 144.902 375.119 144.624 375.246 144.317C375.374 144.01 375.439 143.681 375.439 143.349V139.98C375.439 139.308 375.172 138.664 374.697 138.189C374.222 137.714 373.578 137.448 372.907 137.448Z" fill="white"/>
<path d="M372.907 137.448H358.266C357.594 137.448 356.95 137.714 356.475 138.189C356 138.664 355.733 139.308 355.733 139.98V143.349C355.733 143.681 355.799 144.01 355.926 144.317C356.053 144.624 356.24 144.902 356.475 145.137C356.711 145.371 356.99 145.557 357.297 145.684C357.604 145.81 357.934 145.875 358.266 145.874H363.693L365.582 149.154L367.48 145.874H372.907C373.239 145.875 373.568 145.81 373.875 145.684C374.182 145.557 374.462 145.371 374.697 145.137C374.932 144.902 375.119 144.624 375.246 144.317C375.374 144.01 375.439 143.681 375.439 143.349V139.98C375.439 139.308 375.172 138.664 374.697 138.189C374.222 137.714 373.578 137.448 372.907 137.448V137.448Z" stroke="#263238" stroke-width="1.16689" stroke-linecap="round" stroke-linejoin="round"/>
<path d="M403.74 151.276H389.107C388.436 151.276 387.791 151.543 387.316 152.018C386.842 152.493 386.575 153.137 386.575 153.809V157.178C386.575 157.51 386.64 157.839 386.768 158.146C386.895 158.453 387.082 158.731 387.317 158.966C387.552 159.2 387.832 159.386 388.139 159.512C388.446 159.639 388.775 159.703 389.107 159.702H394.526L396.424 162.983L398.321 159.702H403.74C404.073 159.703 404.402 159.639 404.71 159.513C405.018 159.386 405.297 159.201 405.533 158.966C405.769 158.732 405.957 158.453 406.085 158.146C406.213 157.839 406.28 157.51 406.281 157.178V153.809C406.279 153.137 406.01 152.492 405.534 152.018C405.058 151.543 404.413 151.276 403.74 151.276Z" fill="#F1B442"/>
<path opacity="0.5" d="M403.74 151.276H389.107C388.436 151.276 387.791 151.543 387.316 152.018C386.842 152.493 386.575 153.137 386.575 153.809V157.178C386.575 157.51 386.64 157.839 386.768 158.146C386.895 158.453 387.082 158.731 387.317 158.966C387.552 159.2 387.832 159.386 388.139 159.512C388.446 159.639 388.775 159.703 389.107 159.702H394.526L396.424 162.983L398.321 159.702H403.74C404.073 159.703 404.402 159.639 404.71 159.513C405.018 159.386 405.297 159.201 405.533 158.966C405.769 158.732 405.957 158.453 406.085 158.146C406.213 157.839 406.28 157.51 406.281 157.178V153.809C406.279 153.137 406.01 152.492 405.534 152.018C405.058 151.543 404.413 151.276 403.74 151.276Z" fill="white"/>
<path d="M403.74 151.276H389.107C388.436 151.276 387.791 151.543 387.316 152.018C386.842 152.493 386.575 153.137 386.575 153.809V157.178C386.575 157.51 386.64 157.839 386.768 158.146C386.895 158.453 387.082 158.731 387.317 158.966C387.552 159.2 387.832 159.386 388.139 159.512C388.446 159.639 388.775 159.703 389.107 159.702H394.526L396.424 162.983L398.321 159.702H403.74C404.073 159.703 404.402 159.639 404.71 159.513C405.018 159.386 405.297 159.201 405.533 158.966C405.769 158.732 405.957 158.453 406.085 158.146C406.213 157.839 406.28 157.51 406.281 157.178V153.809C406.279 153.137 406.01 152.492 405.534 152.018C405.058 151.543 404.413 151.276 403.74 151.276V151.276Z" stroke="#263238" stroke-width="1.16689" stroke-linecap="round" stroke-linejoin="round"/>
<path d="M289.645 132.656H322.97" stroke="#263238" stroke-width="1.0631" stroke-miterlimit="10"/>
<path d="M289.645 136.217H322.97" stroke="#263238" stroke-width="1.0631" stroke-miterlimit="10"/>
<path d="M289.645 139.787H322.97" stroke="#263238" stroke-width="1.0631" stroke-miterlimit="10"/>
<path d="M289.645 143.349H322.97" stroke="#263238" stroke-width="1.0631" stroke-miterlimit="10"/>
<path d="M289.645 146.911H322.97" stroke="#263238" stroke-width="1.0631" stroke-miterlimit="10"/>
<path d="M110.827 189.491C110.384 190.021 109.934 190.584 109.452 191.227C103.47 199.267 106.59 216.151 102.955 222.382C99.3214 228.613 90.2201 226.828 88.4031 236.621C86.586 246.414 87.5991 256.641 86.0634 261.545C84.5278 266.449 78.5299 269.585 77.4847 275.342C76.4395 281.098 76.126 285.271 76.126 285.271L110.827 284.129V189.491Z" fill="#F1B442"/>
<path opacity="0.7" d="M110.827 189.491C110.384 190.021 109.934 190.584 109.452 191.227C103.47 199.267 106.59 216.151 102.955 222.382C99.3214 228.613 90.2201 226.828 88.4031 236.621C86.586 246.414 87.5991 256.641 86.0634 261.545C84.5278 266.449 78.5299 269.585 77.4847 275.342C76.4395 281.098 76.126 285.271 76.126 285.271L110.827 284.129V189.491Z" fill="white"/>
<path d="M234.225 284.491L198.591 288.608L209.534 298.738L234.104 296.607" fill="#263238"/>
<path d="M234.225 284.491L198.591 288.608L209.534 298.738L234.104 296.607" stroke="#263238" stroke-width="0.969857" stroke-linecap="round" stroke-linejoin="round"/>
<path d="M210.209 290.224L233.035 287.731" stroke="white" stroke-width="0.484928" stroke-linecap="round" stroke-linejoin="round"/>
<path d="M211.994 292.716L232.681 290.939" stroke="white" stroke-width="0.484928" stroke-linecap="round" stroke-linejoin="round"/>
<path d="M214.133 294.855L233.035 293.07" stroke="white" stroke-width="0.484928" stroke-linecap="round" stroke-linejoin="round"/>
<path d="M212.484 288.76L218.989 295.852" stroke="white" stroke-width="0.484928" stroke-linecap="round" stroke-linejoin="round"/>
<path d="M217.3 288.527L223.764 295.209" stroke="white" stroke-width="0.484928" stroke-linecap="round" stroke-linejoin="round"/>
<path d="M222.301 287.812L228.757 294.493" stroke="white" stroke-width="0.484928" stroke-linecap="round" stroke-linejoin="round"/>
<path d="M227.648 287.458L233.034 293.07" stroke="white" stroke-width="0.484928" stroke-linecap="round" stroke-linejoin="round"/>
<path d="M197.787 200.119C196.613 199.621 191.178 178.468 191.178 178.468L188.38 170.492C188.38 170.492 184.176 156.141 182.568 153.471C180.96 150.802 174.528 148.647 174.528 148.647L172.116 147.321L161.664 141.693V141.749L160.16 138.605L142.167 124.133C142.167 124.133 142.488 127.623 142.971 131.064C142.922 131.064 139.224 133.476 137.905 135.59C137.656 135.984 137.439 136.829 136.442 139.04C132.422 141.114 117.283 149.049 112.274 152.917C106.397 157.443 105.327 160.643 105.593 163.312L105.866 167.573C105.866 167.573 108.374 182.849 110.987 190.383L110.666 190.23L110.577 283.993L185.856 281.138L185.976 211.488C188.549 210.644 191.227 209.655 192.843 208.939L193.245 209.301L196.638 211.785C197.183 212.196 197.816 212.474 198.487 212.598C199.158 212.722 199.849 212.689 200.505 212.501C201.944 212.091 201.043 210.387 199.998 209.824C199.205 209.288 198.452 208.694 197.747 208.047L194.611 204.139C196.493 204.477 199.508 205.008 200.762 205.185C202.627 205.45 205.031 205.989 205.297 203.577C205.562 201.165 199.661 200.923 197.787 200.119Z" fill="white"/>
<path d="M142.255 124.166C142.255 124.166 143.276 135.502 143.943 137.544C144.546 139.393 147.593 149.484 150.263 154.01C152.932 158.537 156.188 158.03 156.695 152.949C157.201 147.867 156.944 139.626 156.944 139.626" stroke="#263238" stroke-width="0.969857" stroke-linecap="round" stroke-linejoin="round"/>
<path d="M142.866 131.329C142.866 131.329 139.321 133.492 137.986 135.623C136.651 137.753 131.039 157.475 131.039 157.475L141.716 158.014L132.639 162.034" stroke="#263238" stroke-width="0.969857" stroke-linecap="round" stroke-linejoin="round"/>
<path d="M132.913 164.406C132.913 164.406 141.99 179.336 143.324 180.944C144.144 181.939 144.858 183.017 145.455 184.16" stroke="#263238" stroke-width="0.969857" stroke-linecap="round" stroke-linejoin="round"/>
<path d="M143.59 135.92C143.59 135.92 148.124 154.581 150.826 164.438C153.527 174.295 156.108 186.572 156.108 186.572" stroke="#263238" stroke-width="0.969857" stroke-linecap="round" stroke-linejoin="round"/>
<path d="M156.912 141.757C156.912 141.757 157.981 163.344 157.981 171.875V185.462" stroke="#263238" stroke-width="0.969857" stroke-linecap="round" stroke-linejoin="round"/>
<path d="M160.675 139.618L167.886 154.283L162.009 156.149L171.086 161.206L162.813 187.062" stroke="#263238" stroke-width="0.969857" stroke-linecap="round" stroke-linejoin="round"/>
<path d="M161.744 141.757L172.156 147.353" stroke="#263238" stroke-width="0.969857" stroke-linecap="round" stroke-linejoin="round"/>
<path d="M180.437 163.61L181.772 188.662" stroke="#263238" stroke-width="0.969857" stroke-linecap="round" stroke-linejoin="round"/>
<path d="M136.378 139.088C136.378 139.088 118.223 148.414 112.354 152.949C106.485 157.483 105.408 160.675 105.673 163.344" stroke="#263238" stroke-width="0.969857" stroke-linecap="round" stroke-linejoin="round"/>
<path d="M110.746 190.262V283.542" stroke="#263238" stroke-width="0.969857" stroke-linecap="round" stroke-linejoin="round"/>
<path d="M157.74 213.184V280.085" stroke="#263238" stroke-width="0.969857" stroke-linecap="round" stroke-linejoin="round"/>
<path d="M117.267 162.018C117.267 162.018 123.393 164.165 126.111 169.366" stroke="#263238" stroke-width="0.969857" stroke-linecap="round" stroke-linejoin="round"/>
<path d="M121.246 161.712C121.246 161.712 126.762 163.859 129.214 169.061" stroke="#263238" stroke-width="0.969857" stroke-linecap="round" stroke-linejoin="round"/>
<path d="M117.572 247.33H137.897V251.318H118.296" stroke="#263238" stroke-width="0.969857" stroke-linecap="round" stroke-linejoin="round"/>
<path d="M192.73 181.989C190.817 177.165 189.217 173.145 188.38 170.5C188.425 172.103 188.141 173.699 187.548 175.189C186.955 176.679 186.065 178.033 184.931 179.167C179.384 184.586 177.816 182.705 178.065 190.23C178.314 197.756 181.281 201.173 179.424 207.589C177.567 214.005 169.486 220.34 169.776 231.451C169.88 233.888 170.558 236.265 171.754 238.39L138.291 283.052L186.145 281.645V217.751L192.73 181.989Z" fill="#F1B442"/>
<path opacity="0.7" d="M192.73 181.989C190.817 177.165 189.217 173.145 188.38 170.5C188.425 172.103 188.141 173.699 187.548 175.189C186.955 176.679 186.065 178.033 184.931 179.167C179.384 184.586 177.816 182.705 178.065 190.23C178.314 197.756 181.281 201.173 179.424 207.589C177.567 214.005 169.486 220.34 169.776 231.451C169.88 233.888 170.558 236.265 171.754 238.39L138.291 283.052L186.145 281.645V217.751L192.73 181.989Z" fill="white"/>
<path d="M186.186 251.117V278.879" stroke="#263238" stroke-width="0.969857" stroke-linecap="round" stroke-linejoin="round"/>
<path d="M170.58 102.039C172.188 101.774 180.188 96.7089 178.853 91.6437C177.518 86.5785 166.286 80.444 157.475 83.3866C152.166 85.1539 147.263 87.9609 143.051 91.6437C143.051 91.6437 137.182 91.6437 135.011 94.0557C132.84 96.4677 134.48 100.182 135.815 102.851C136.973 105.159 136.924 111.277 136.892 112.861C136.819 112.857 136.747 112.874 136.683 112.91C136.236 113.156 135.847 113.494 135.539 113.901C135.231 114.309 135.013 114.776 134.898 115.273C134.537 116.881 135.204 119.028 136.828 121.456C137.368 122.368 138.128 123.13 139.038 123.673C139.948 124.217 140.979 124.524 142.038 124.568C142.734 125.37 143.301 126.276 143.718 127.253C144.394 128.861 151.123 139.184 154.974 139.482C155.529 139.53 156.06 139.546 156.582 139.546C159.903 139.546 162.315 138.654 163.609 136.933C165.322 134.658 169.567 125.484 170.097 121.022C170.186 120.218 170.234 119.213 170.258 118.007C170.852 117.255 171.175 116.324 171.175 115.366C171.175 114.407 170.852 113.477 170.258 112.725C170.17 108.005 169.921 103.117 169.856 101.991C170.091 102.062 170.338 102.079 170.58 102.039Z" fill="white"/>
<path d="M169.487 101.774C169.487 101.774 170.291 116.431 169.752 120.966C169.213 125.5 164.928 134.553 163.32 136.692C161.712 138.831 158.496 139.353 155.047 139.104C151.598 138.855 144.9 128.973 144.096 127.108C143.651 126.031 143.019 125.04 142.231 124.182C142.231 124.182 139.296 124.447 137.158 121.247C135.019 118.047 134.223 114.815 136.892 113.247" stroke="#263238" stroke-width="0.969857" stroke-linecap="round" stroke-linejoin="round"/>
<path d="M158.005 116.166C158.005 116.166 159.879 112.95 161.744 114.831L163.079 123.362L159.059 124.431L159.589 128.692" stroke="#263238" stroke-width="0.969857" stroke-linecap="round" stroke-linejoin="round"/>
<path d="M154.001 120.162C156.213 120.162 158.005 118.373 158.005 116.166C158.005 113.959 156.213 112.17 154.001 112.17C151.79 112.17 149.998 113.959 149.998 116.166C149.998 118.373 151.79 120.162 154.001 120.162Z" fill="#F1B442" stroke="#263238" stroke-width="0.969857" stroke-linecap="round" stroke-linejoin="round"/>
<path opacity="0.4" d="M154.001 120.162C156.213 120.162 158.005 118.373 158.005 116.166C158.005 113.959 156.213 112.17 154.001 112.17C151.79 112.17 149.998 113.959 149.998 116.166C149.998 118.373 151.79 120.162 154.001 120.162Z" fill="white" stroke="#263238" stroke-width="1.16689" stroke-miterlimit="10"/>
<path d="M170.821 115.37C170.821 114.575 170.585 113.797 170.144 113.136C169.702 112.475 169.074 111.96 168.339 111.656C167.605 111.352 166.797 111.272 166.017 111.427C165.237 111.582 164.521 111.965 163.958 112.527C163.396 113.089 163.013 113.806 162.858 114.586C162.703 115.365 162.783 116.174 163.087 116.908C163.391 117.643 163.907 118.271 164.568 118.712C165.229 119.154 166.006 119.39 166.801 119.39C167.867 119.39 168.89 118.966 169.644 118.212C170.397 117.458 170.821 116.436 170.821 115.37Z" fill="#F1B442" stroke="#263238" stroke-width="0.969857" stroke-linecap="round" stroke-linejoin="round"/>
<path opacity="0.4" d="M170.821 115.37C170.821 114.575 170.585 113.797 170.144 113.136C169.702 112.475 169.074 111.96 168.339 111.656C167.605 111.352 166.797 111.272 166.017 111.427C165.237 111.582 164.521 111.965 163.958 112.527C163.396 113.089 163.013 113.806 162.858 114.586C162.703 115.365 162.783 116.174 163.087 116.908C163.391 117.643 163.907 118.271 164.568 118.712C165.229 119.154 166.006 119.39 166.801 119.39C167.867 119.39 168.89 118.966 169.644 118.212C170.397 117.458 170.821 116.436 170.821 115.37Z" fill="white" stroke="#263238" stroke-width="1.16689" stroke-miterlimit="10"/>
<path d="M149.998 116.166L141.99 116.696" stroke="#263238" stroke-width="0.969857" stroke-linecap="round" stroke-linejoin="round"/>
<path d="M150.062 110.61C150.062 110.61 152.208 108.471 156.196 109.694" stroke="#263238" stroke-width="0.969857" stroke-linecap="round" stroke-linejoin="round"/>
<path d="M163.553 109.388C163.553 109.388 167.573 107.249 168.763 109.999" stroke="#263238" stroke-width="0.969857" stroke-linecap="round" stroke-linejoin="round"/>
<path d="M145.19 102.305C145.19 102.305 147.328 107.37 147.859 108.174C148.389 108.978 145.19 112.7 145.19 112.7V116.431L141.974 116.696L138.758 113.77L136.892 113.231C136.892 113.231 137.158 105.505 135.823 102.843C134.488 100.182 132.888 96.4115 135.019 94.0477C137.15 91.6839 143.059 91.6357 143.059 91.6357C147.271 87.9529 152.174 85.1459 157.483 83.3786C166.327 80.444 177.502 86.5946 178.837 91.6357C180.172 96.6768 172.188 101.774 170.58 102.039C168.972 102.305 166.56 99.1129 164.148 99.1129H160.409C157.74 99.1129 157.475 98.8395 154.532 98.8395C151.589 98.8395 145.19 102.305 145.19 102.305Z" fill="#263238"/>
<path d="M148.534 97.9311C148.534 97.9311 153.093 95.4065 155.376 91.1051C157.66 86.8037 150.054 88.8298 148.028 91.6116C146.002 94.3935 150.817 93.3804 150.817 93.3804" stroke="white" stroke-width="0.484928" stroke-linecap="round" stroke-linejoin="round"/>
<path d="M145.19 102.305C145.19 102.305 142.456 105.264 138.91 105.521" stroke="white" stroke-width="0.484928" stroke-linecap="round" stroke-linejoin="round"/>
<path d="M146.508 106.027C146.508 106.027 141.684 108.303 139.16 108.303" stroke="white" stroke-width="0.484928" stroke-linecap="round" stroke-linejoin="round"/>
<path d="M139.16 110.321C139.16 110.321 142.963 111.125 144.989 110.321" stroke="white" stroke-width="0.484928" stroke-linecap="round" stroke-linejoin="round"/>
<path d="M152.586 98.4375C152.586 98.4375 154.613 98.1883 161.197 95.913C167.782 93.6376 170.041 91.0889 165.756 87.8167" stroke="white" stroke-width="0.484928" stroke-linecap="round" stroke-linejoin="round"/>
<path d="M284.925 241.373C284.925 241.373 274.432 213.466 271.739 210.78C269.046 208.095 255.547 199.87 255.547 199.87L254.461 198.013L253.802 195.754C253.802 195.754 252.998 192.353 250.682 190.672L250.497 190.278L234.578 183.461C234.578 183.461 234.691 185.567 234.86 188.108C232.978 188.791 228.806 190.624 227.374 193.888C226.442 196.003 225.911 199.516 225.646 202.821L224.995 203.303L225.236 202.419C225.236 202.419 207.612 212.3 206.816 213.908C205.787 215.259 203.126 223.918 203.126 223.918C203.126 223.918 200.473 232.239 197.554 241.429C193.438 254.068 189.458 266.699 189.2 268.717C189.2 268.902 189.2 268.813 189.2 268.813C188.935 272.278 202.169 285.054 202.169 285.054H202.346L203.954 286.662C203.954 286.662 203.954 286.501 203.954 285.995C205.071 288.27 206.897 291.623 208.344 290.915C209.534 290.328 209.148 288.262 208.183 285.569C209.381 287.394 210.756 288.72 211.849 288.19C213.739 287.257 212.798 284.033 210.9 279.418C210.738 279.024 210.491 278.671 210.177 278.383C209.863 278.096 209.49 277.881 209.083 277.754C209.694 277.689 210.314 277.625 210.949 277.545C211.584 280.495 213.007 283.052 214.607 282.714C216.207 282.377 216.448 280.302 216.126 276.773C216.287 276.773 216.504 276.298 216.665 276.274C217.373 278.759 218.458 280.97 219.825 280.68C221.328 280.359 221.738 278.863 221.561 275.856C221.561 274.739 221.481 274.377 221.441 273.669C222.028 274.031 224.906 275.768 225.236 276.017C226.305 276.821 234.442 275.084 234.442 275.084C246.325 271.241 265.323 271.064 277.592 262.848C285.785 257.324 284.925 241.373 284.925 241.373ZM210.024 264.198L213.24 243.037L214.518 262.333L214.141 267.093L210.024 264.198Z" fill="white"/>
<path d="M206.864 213.45L226.008 202.194C226.008 202.194 227.206 191.935 229.65 190.89C229.65 190.89 233.01 187.955 236.829 188.534C239.016 188.855 240.632 186.122 241.87 181.362C241.87 171.947 241.742 159.927 241.645 152.418C240.841 148.712 239.973 145.705 239.684 144.531L230.663 140.744C230.663 140.744 228.733 134.232 218.812 132.776C208.89 131.321 198.253 141.958 197.039 149.202C195.825 156.446 202.844 164.173 200.183 168.281C197.522 172.389 186.394 178.419 183.492 185.422C180.59 192.425 181.313 197.257 181.313 197.257C181.313 197.257 189.297 208.602 187.118 212.469C184.939 216.336 172.123 219.954 172.365 231.307C172.59 241.823 183.002 249.228 194.539 250.603L206.864 213.45Z" fill="#263238"/>
<path d="M227.809 142.682C227.809 142.682 220.975 134.851 212.364 137.375C203.753 139.9 200.456 149.009 202.233 153.56C204.01 158.11 208.054 161.897 205.015 168.723C201.976 175.549 194.378 176.562 190.543 184.401C186.708 192.24 187.761 194.773 187.761 194.773" stroke="white" stroke-width="0.484928" stroke-linecap="round" stroke-linejoin="round"/>
<path d="M223.25 149.258C223.25 149.258 216.922 150.014 216.922 154.082C216.922 158.151 220.468 160.145 220.942 165.202C221.417 170.259 219.929 172.285 216.118 178.604C212.307 184.924 212.098 188.212 214.856 192.514C217.614 196.815 219.415 203.89 215.869 206.415" stroke="white" stroke-width="0.484928" stroke-linecap="round" stroke-linejoin="round"/>
<path d="M224.769 144.201C224.769 144.201 217.172 140.181 211.101 143.952C205.031 147.723 213.127 155.329 214.14 162.404C215.154 169.479 210.121 174.544 203.254 182.126C201.243 184.42 199.749 187.121 198.875 190.044C198.001 192.967 197.767 196.044 198.189 199.066" stroke="white" stroke-width="0.484928" stroke-linecap="round" stroke-linejoin="round"/>
<path d="M197.675 207.918C197.675 207.918 199.443 211.705 194.627 216.762C189.811 221.819 179.432 223.09 176.939 230.671C174.447 238.253 179.424 242.305 179.424 242.305" stroke="white" stroke-width="0.484928" stroke-linecap="round" stroke-linejoin="round"/>
<path d="M234.635 183.034C234.635 183.034 235.165 193.197 235.704 195.858C236.243 198.519 238.389 208.023 239.201 216.417C239.594 220.772 240.402 225.079 241.613 229.281C241.613 229.281 248.118 254.542 248.504 222.808C248.64 211.617 247.434 194.025 247.434 194.025L247.965 188.695" fill="white"/>
<g style="mix-blend-mode:multiply" opacity="0.3">
<path d="M245.513 189.531L235.704 195.858L235.077 185.173C235.077 185.173 241.629 189.048 245.513 189.531Z" fill="#F1B442"/>
</g>
<g style="mix-blend-mode:multiply" opacity="0.3">
<path d="M247.45 193.993C247.45 193.993 247.129 212.131 246.244 219.801C245.756 224.676 246.259 229.598 247.724 234.273C247.724 234.273 248.954 206.214 247.45 193.993Z" fill="#F1B442"/>
</g>
<path d="M234.635 183.034C234.635 183.034 235.165 193.197 235.704 195.858C236.243 198.519 238.389 208.023 239.201 216.417C239.594 220.772 240.402 225.079 241.613 229.281C241.613 229.281 248.118 254.542 248.504 222.808C248.64 211.617 247.434 194.025 247.434 194.025L247.965 188.695" stroke="#263238" stroke-width="0.969857" stroke-linecap="round" stroke-linejoin="round"/>
<path d="M227.559 225.614L225.863 229.248L237.023 240.143L227.559 225.614Z" fill="#F1B442"/>
<path opacity="0.7" d="M227.559 225.614L225.863 229.248L237.023 240.143L227.559 225.614Z" fill="white"/>
<path d="M214.559 233.646C214.559 233.646 218.289 225.027 219.463 226.989C220.637 228.951 213.184 237.369 216.126 238.543C219.069 239.716 223.363 235.407 222.012 238.928C220.661 242.45 218.289 246.566 218.289 248.335C218.289 250.104 219.093 267.527 219.093 267.527L219.294 268.701L216.939 270.309C216.939 270.309 214.39 267.76 214.39 265.605C214.39 263.45 213.996 254.832 213.996 252.878C213.996 250.924 213.079 244.034 213.079 244.034L214.559 233.646Z" fill="#F1B442"/>
<path opacity="0.7" d="M214.559 233.646C214.559 233.646 218.289 225.027 219.463 226.989C220.637 228.951 213.184 237.369 216.126 238.543C219.069 239.716 223.362 235.407 222.012 238.928C220.661 242.45 218.289 246.566 218.289 248.335C218.289 250.104 219.093 267.527 219.093 267.527L219.294 268.701L216.939 270.309C216.939 270.309 214.39 267.76 214.39 265.605C214.39 263.45 213.996 254.832 213.996 252.878C213.996 250.924 213.192 243.551 213.192 243.551L214.559 233.646Z" fill="white"/>
<path d="M234.763 188.043C234.763 188.043 229.296 189.193 227.423 193.462C225.549 197.732 225.292 207.589 225.557 210.25C225.706 212.391 225.706 214.54 225.557 216.682L233.035 214.27" fill="white"/>
<g style="mix-blend-mode:multiply" opacity="0.3">
<path d="M235.792 194.813C233.54 194.866 231.373 195.686 229.65 197.137C226.49 199.621 226.16 204.099 226.16 204.099C226.16 204.099 225.163 198.793 227.157 194.154C229.151 189.515 234.763 188.043 234.763 188.043L235.792 194.813Z" fill="#F1B442"/>
</g>
<path d="M234.763 188.043C234.763 188.043 229.296 189.193 227.423 193.462C225.549 197.732 225.292 207.589 225.557 210.25C225.706 212.391 225.706 214.54 225.557 216.682L233.035 214.27" stroke="#263238" stroke-width="0.969857" stroke-linecap="round" stroke-linejoin="round"/>
<path d="M234.9 214.784L226.627 224.111C226.627 224.111 232.769 233.703 235.704 236.902" stroke="#263238" stroke-width="0.969857" stroke-linecap="round" stroke-linejoin="round"/>
<path d="M255.997 235.568L260.266 219.311L252.789 213.683L258.666 211.818L253.842 195.295C253.842 195.295 252.95 191.147 249.822 189.812" stroke="#263238" stroke-width="0.969857" stroke-linecap="round" stroke-linejoin="round"/>
<path d="M238.92 206.785C238.92 206.785 241.589 210.001 244.548 209.454C247.507 208.907 247.483 207.323 247.483 207.323" stroke="#263238" stroke-width="0.969857" stroke-linecap="round" stroke-linejoin="round"/>
<path d="M212.798 210.145C212.798 210.145 208.48 214.849 208.673 216.023C208.866 217.196 213.972 219.351 212.798 220.718C211.624 222.085 208.673 218.764 208.086 219.351C207.5 219.938 196.71 256.753 197.691 257.324C198.672 257.895 201.027 255.756 201.614 257.131C202.201 258.506 191.805 262.413 193.96 263.563C196.115 264.713 201.413 262.188 200.392 262.582C199.371 262.976 196.469 266.691 197.257 268.258C198.044 269.826 206.446 277.77 206.446 277.77C205.951 277.974 205.555 278.362 205.341 278.852C205.126 279.343 205.11 279.897 205.297 280.399C205.52 281.409 206.089 282.311 206.905 282.948C206.905 282.948 204.653 281.09 204.308 283.1C204.111 284.148 203.995 285.21 203.962 286.276L198.455 280.825C193.968 276.258 190.318 271.981 189.241 268.307C189.241 268.307 189.048 268.845 190.23 264.536C191.411 260.226 203.174 223.411 203.174 223.411C203.174 223.411 205.835 214.744 206.856 213.402C207.877 212.059 212.798 210.145 212.798 210.145Z" fill="#F1B442"/>
<path opacity="0.7" d="M212.798 210.145C212.798 210.145 208.48 214.849 208.673 216.023C208.866 217.196 213.972 219.351 212.798 220.718C211.624 222.085 208.673 218.764 208.086 219.351C207.499 219.938 196.71 256.753 197.691 257.324C198.672 257.895 201.027 255.756 201.614 257.131C202.201 258.506 191.805 262.413 193.96 263.563C196.115 264.713 201.413 262.188 200.392 262.582C199.371 262.976 196.469 266.691 197.256 268.258C198.044 269.826 206.446 277.77 206.446 277.77C205.951 277.974 205.555 278.362 205.341 278.852C205.126 279.343 205.11 279.897 205.296 280.399C205.52 281.409 206.089 282.311 206.904 282.947C206.904 282.947 204.653 281.09 204.308 283.1C203.962 285.11 203.785 286.429 203.785 286.429L198.454 280.801C192.891 275.245 189.45 270.863 189.241 268.283C189.241 268.283 188.589 269.505 190.23 264.512C191.62 260.267 203.174 223.387 203.174 223.387C203.174 223.387 205.835 214.72 206.856 213.377C207.877 212.035 212.798 210.145 212.798 210.145Z" fill="white"/>
<path d="M222.462 204.791V219.801L231.925 217.381L235.077 213.747L225.372 215.685L226.008 202.154L222.462 204.791Z" fill="#F1B442"/>
<path opacity="0.7" d="M222.462 204.791V219.801L231.925 217.381L235.077 213.747L225.372 215.685L226.008 202.154L222.462 204.791Z" fill="white"/>
<path d="M225.292 201.993C225.292 201.993 207.668 211.85 206.864 213.45C206.06 215.05 189.514 264.906 189.249 268.355C188.983 271.804 202.33 284.877 202.33 284.877" stroke="#263238" stroke-width="0.969857" stroke-linecap="round" stroke-linejoin="round"/>
<path d="M215.411 227.045L210.072 263.82" stroke="#263238" stroke-width="0.969857" stroke-linecap="round" stroke-linejoin="round"/>
<path d="M215.942 224.907L216.746 221.176" stroke="#263238" stroke-width="0.969857" stroke-linecap="round" stroke-linejoin="round"/>
<path d="M194.853 265.959C194.853 265.959 198.326 261.135 203.399 261.424C208.472 261.714 215.941 268.886 215.941 268.886" stroke="#263238" stroke-width="0.969857" stroke-linecap="round" stroke-linejoin="round"/>
<path d="M196.453 260.355C197.572 259.349 198.999 258.749 200.501 258.653C202.004 258.556 203.495 258.969 204.734 259.824" stroke="#263238" stroke-width="0.969857" stroke-linecap="round" stroke-linejoin="round"/>
<path d="M221.232 271.458C221.174 271.015 221.012 270.592 220.76 270.224C220.508 269.855 220.173 269.55 219.782 269.335C219.39 269.12 218.954 269 218.507 268.985C218.061 268.969 217.617 269.059 217.212 269.247C216.883 269.412 216.603 269.66 216.398 269.966C216.194 270.271 216.073 270.625 216.046 270.992C215.749 273.927 217.55 281.138 219.962 280.64C221.964 280.19 221.899 276.395 221.232 271.458Z" fill="white" stroke="#263238" stroke-width="0.969857" stroke-linecap="round" stroke-linejoin="round"/>
<path d="M215.861 273.589C215.802 273.147 215.639 272.725 215.387 272.357C215.135 271.989 214.799 271.686 214.408 271.471C214.017 271.257 213.581 271.137 213.135 271.123C212.689 271.108 212.246 271.198 211.841 271.386C211.512 271.548 211.231 271.794 211.026 272.099C210.822 272.403 210.701 272.756 210.675 273.123C210.378 276.057 212.179 283.269 214.591 282.771C216.625 282.32 216.561 278.534 215.861 273.589Z" fill="white" stroke="#263238" stroke-width="0.969857" stroke-linecap="round" stroke-linejoin="round"/>
<path d="M210.957 278.96C210.79 278.542 210.527 278.169 210.189 277.873C209.851 277.576 209.448 277.363 209.012 277.252C208.576 277.141 208.12 277.134 207.681 277.232C207.242 277.331 206.833 277.531 206.486 277.818C206.207 278.057 205.995 278.366 205.872 278.713C205.749 279.06 205.72 279.434 205.787 279.796C206.221 282.706 209.759 289.291 211.954 288.174C213.843 287.209 212.798 283.317 210.957 278.96Z" fill="white" stroke="#263238" stroke-width="0.969857" stroke-linecap="round" stroke-linejoin="round"/>
<path d="M207.5 284.105C207.376 283.792 207.181 283.513 206.929 283.29C206.677 283.068 206.375 282.908 206.049 282.825C205.723 282.742 205.383 282.737 205.055 282.812C204.727 282.886 204.421 283.037 204.163 283.253C203.955 283.434 203.797 283.664 203.705 283.923C203.612 284.182 203.587 284.461 203.632 284.732C203.962 286.911 206.599 291.8 208.247 290.988C209.662 290.288 208.915 287.562 207.5 284.105Z" fill="white" stroke="#263238" stroke-width="0.969857" stroke-linecap="round" stroke-linejoin="round"/>
<path d="M221.642 273.404C221.642 273.404 223.732 275.663 225.284 276.146C226.563 276.54 233.212 275.342 233.212 275.342" stroke="#263238" stroke-width="0.969857" stroke-linecap="round" stroke-linejoin="round"/>
<path d="M231.161 280.351C231.161 280.351 226.892 281.412 223.925 281.959C220.959 282.505 217.783 282.763 217.783 282.763C217.783 282.763 215.644 285.432 214.044 285.432" stroke="#263238" stroke-width="0.969857" stroke-linecap="round" stroke-linejoin="round"/>
<path d="M255.603 199.436C255.603 199.436 269.102 207.669 271.795 210.354C274.489 213.04 283.944 238.221 283.944 238.221" stroke="#263238" stroke-width="0.969857" stroke-linecap="round" stroke-linejoin="round"/>
<path d="M268.435 217.405L271.458 239.234" stroke="#263238" stroke-width="0.969857" stroke-linecap="round" stroke-linejoin="round"/>
<path d="M271.458 236.605L269.576 220.388L277.89 238.703L271.836 238.977L271.458 236.605Z" fill="#F1B442"/>
<path opacity="0.7" d="M271.458 236.605L269.576 220.388L277.89 238.703L271.836 238.977L271.458 236.605Z" fill="white"/>
<path d="M220.05 228.613L214.824 237.192L219.254 233.686" stroke="#263238" stroke-width="0.969857" stroke-linecap="round" stroke-linejoin="round"/>
<path d="M213.369 244.074C213.369 244.074 214.454 260.009 214.454 262.18C214.454 264.351 214.149 267.213 214.149 267.213" stroke="#263238" stroke-width="0.969857" stroke-linecap="round" stroke-linejoin="round"/>
<path d="M231.427 139.892C231.427 139.892 223.684 144.418 223.153 151.083C222.898 155.479 223.348 159.887 224.488 164.14C224.488 164.14 222.076 162.01 221.819 166.81C221.561 171.61 225.557 175.332 227.157 175.332H228.765C228.765 175.332 232.327 182.649 236.604 186.114C240.882 189.579 245.054 189.732 247.989 188.662C250.924 187.593 256.535 182.801 257.074 176.401C257.613 170.002 257.074 159.341 256.535 152.683C255.997 146.026 254.67 141.218 247.458 138.822C240.246 136.427 235.165 138.018 231.427 139.892Z" fill="white"/>
<g style="mix-blend-mode:multiply" opacity="0.3">
<path d="M224.488 164.14C224.488 164.14 222.076 162.01 221.819 166.81C221.561 171.61 225.557 175.332 227.157 175.332H228.765C228.765 175.332 232.327 182.64 236.604 186.114L238.437 187.376C239.062 187.754 239.715 188.082 240.391 188.357C238.952 186.588 235.824 182.512 234.353 178.846C232.407 174.022 231.941 163.835 232.407 157.298C232.874 150.762 236.291 148.093 236.291 148.093L231.467 147.851C230.751 147.851 227.013 153.415 223.218 156.607L224.488 164.14Z" fill="#F1B442"/>
</g>
<path d="M231.427 139.892C231.427 139.892 223.684 144.418 223.153 151.083C222.898 155.479 223.348 159.887 224.488 164.14C224.488 164.14 222.076 162.01 221.819 166.81C221.561 171.61 225.557 175.332 227.157 175.332H228.765C228.765 175.332 232.327 182.649 236.604 186.114C240.882 189.579 245.054 189.732 247.989 188.662C250.924 187.593 256.535 182.801 257.074 176.401C257.613 170.002 257.074 159.341 256.535 152.683C255.997 146.026 254.67 141.218 247.458 138.822C240.246 136.427 235.165 138.018 231.427 139.892Z" stroke="#263238" stroke-width="0.969857" stroke-linecap="round" stroke-linejoin="round"/>
<path d="M243.792 164.357C243.792 164.357 246.027 160.538 248.254 162.749L249.862 170.331L246.646 170.99L246.952 175.726" stroke="#263238" stroke-width="0.969857" stroke-linecap="round" stroke-linejoin="round"/>
<path d="M239.016 169.125C241.654 169.125 243.792 166.991 243.792 164.357C243.792 161.724 241.654 159.59 239.016 159.59C236.379 159.59 234.24 161.724 234.24 164.357C234.24 166.991 236.379 169.125 239.016 169.125Z" fill="#F1B442" stroke="#263238" stroke-width="0.969857" stroke-linecap="round" stroke-linejoin="round"/>
<path opacity="0.4" d="M239.016 169.125C241.654 169.125 243.792 166.991 243.792 164.357C243.792 161.724 241.654 159.59 239.016 159.59C236.379 159.59 234.24 161.724 234.24 164.357C234.24 166.991 236.379 169.125 239.016 169.125Z" fill="white" stroke="#263238" stroke-width="1.16689" stroke-miterlimit="10"/>
<path d="M259.092 163.401C259.094 162.456 258.816 161.532 258.293 160.745C257.77 159.958 257.026 159.344 256.154 158.979C255.282 158.615 254.322 158.517 253.395 158.697C252.467 158.878 251.614 159.329 250.943 159.993C250.271 160.658 249.812 161.507 249.622 162.432C249.432 163.358 249.521 164.319 249.877 165.194C250.232 166.069 250.839 166.819 251.621 167.35C252.402 167.881 253.324 168.169 254.268 168.176C254.899 168.183 255.526 168.064 256.111 167.827C256.696 167.59 257.228 167.239 257.676 166.795C258.125 166.351 258.481 165.822 258.724 165.24C258.967 164.657 259.092 164.032 259.092 163.401Z" fill="#F1B442" stroke="#263238" stroke-width="0.969857" stroke-linecap="round" stroke-linejoin="round"/>
<path opacity="0.4" d="M259.092 163.401C259.094 162.456 258.816 161.532 258.293 160.745C257.77 159.958 257.026 159.344 256.154 158.979C255.282 158.615 254.322 158.517 253.395 158.697C252.467 158.878 251.614 159.329 250.943 159.993C250.271 160.658 249.812 161.507 249.622 162.432C249.432 163.358 249.521 164.319 249.877 165.194C250.232 166.069 250.839 166.819 251.621 167.35C252.402 167.881 253.324 168.169 254.268 168.176C254.899 168.183 255.526 168.064 256.111 167.827C256.696 167.59 257.228 167.239 257.676 166.795C258.125 166.351 258.481 165.822 258.724 165.24C258.967 164.657 259.092 164.032 259.092 163.401Z" fill="white" stroke="#263238" stroke-width="1.16689" stroke-miterlimit="10"/>
<path d="M234.241 164.357L224.681 164.993" stroke="#263238" stroke-width="0.969857" stroke-linecap="round" stroke-linejoin="round"/>
<path d="M235.125 157.982C235.682 157.296 236.417 156.777 237.25 156.481C238.082 156.185 238.979 156.123 239.844 156.301" stroke="#263238" stroke-width="0.969857" stroke-linecap="round" stroke-linejoin="round"/>
<path d="M249.975 155.964C250.763 155.531 251.674 155.374 252.562 155.52C253.45 155.666 254.263 156.105 254.871 156.768" stroke="#263238" stroke-width="0.969857" stroke-linecap="round" stroke-linejoin="round"/>
<path d="M256.528 152.683C255.997 146.018 254.662 141.218 247.45 138.822C240.239 136.427 235.165 138.018 231.427 139.892C231.427 139.892 223.684 144.418 223.154 151.083C222.898 155.479 223.348 159.887 224.488 164.14C224.488 164.14 226.627 166.271 227.157 163.336C227.688 160.402 226.088 155.602 233.589 150.006C241.091 144.41 251.744 147.08 255.482 152.418C255.919 152.768 256.297 153.186 256.6 153.656C256.608 153.56 256.536 152.804 256.528 152.683Z" fill="#263238"/>
<path d="M139.851 182.263C139.851 182.263 133.419 181.201 128.595 184.401C127.222 185.315 126.139 186.604 125.477 188.114C124.814 189.625 124.599 191.294 124.856 192.924" stroke="#263238" stroke-width="0.969857" stroke-linecap="round" stroke-linejoin="round"/>
<path d="M125.966 182.801C125.966 182.801 122.75 186.532 122.75 189.732" stroke="#263238" stroke-width="0.969857" stroke-linecap="round" stroke-linejoin="round"/>
<path d="M105.938 167.606C105.938 167.606 109.154 187.062 112.081 192.924C115.007 198.785 123.337 204.389 129.704 207.05C136.072 209.711 166.013 213.98 167.082 213.715C168.152 213.45 162.009 207.854 163.344 200.923C164.011 197.482 168.682 193.993 168.682 193.993C168.682 193.993 155.601 188.365 150.528 186.267C145.455 184.168 139.851 182.246 139.851 182.246C139.851 182.246 132.615 175.589 129.174 172.655C126.01 170.165 122.711 167.851 119.293 165.724" stroke="#263238" stroke-width="0.969857" stroke-linecap="round" stroke-linejoin="round"/>
<path d="M194.225 203.705L197.715 208.047C198.42 208.694 199.173 209.288 199.966 209.824C201.011 210.387 201.912 212.091 200.472 212.501C199.816 212.689 199.126 212.722 198.455 212.598C197.784 212.474 197.151 212.196 196.605 211.785L193.212 209.301L190.374 206.736L192.433 203.038L194.225 203.705Z" fill="white" stroke="#263238" stroke-width="0.969857" stroke-linecap="round" stroke-linejoin="round"/>
<path d="M168.683 193.993C168.683 193.993 176.964 195.858 179.633 196.405C182.302 196.952 195.922 199.34 197.787 200.135C199.653 200.931 205.53 201.205 205.265 203.601C204.999 205.997 202.595 205.466 200.73 205.209C198.865 204.951 192.979 203.882 192.979 203.882C192.979 203.882 194.853 207.347 194.322 208.143C193.791 208.939 181.772 213.209 179.368 213.209C176.964 213.209 175.348 208.939 174.294 207.581L171.078 203.561L164.646 200.634" fill="white"/>
<path d="M168.683 193.993C168.683 193.993 176.964 195.858 179.633 196.405C182.302 196.952 195.922 199.34 197.787 200.135C199.653 200.931 205.53 201.205 205.265 203.601C204.999 205.997 202.595 205.466 200.73 205.209C198.865 204.951 192.979 203.882 192.979 203.882C192.979 203.882 194.853 207.347 194.322 208.143C193.791 208.939 181.772 213.209 179.368 213.209C176.964 213.209 175.348 208.939 174.294 207.581L171.078 203.561L164.646 200.634" stroke="#263238" stroke-width="0.969857" stroke-linecap="round" stroke-linejoin="round"/>
<path d="M192.979 203.858L191.114 201.189" stroke="#263238" stroke-width="0.969857" stroke-linecap="round" stroke-linejoin="round"/>
<path d="M167.083 213.715C168.479 212.444 169.567 210.87 170.264 209.115C170.96 207.359 171.247 205.468 171.103 203.585" stroke="#263238" stroke-width="0.969857" stroke-linecap="round" stroke-linejoin="round"/>
<path d="M181.233 207.05L183.372 212.115" stroke="#263238" stroke-width="0.969857" stroke-linecap="round" stroke-linejoin="round"/>
<path d="M186.572 204.919L188.71 210.515" stroke="#263238" stroke-width="0.969857" stroke-linecap="round" stroke-linejoin="round"/>
<path d="M237.843 243.833V306.465L321.41 301.673V239.572L237.843 243.833Z" fill="#263238" stroke="#263238" stroke-width="0.969857" stroke-linecap="round" stroke-linejoin="round"/>
<path d="M321.41 239.572L317.133 237.168L234.369 241.172V302.203L237.843 306.464V243.833L321.41 239.572Z" fill="white" stroke="#263238" stroke-width="0.969857" stroke-linecap="round" stroke-linejoin="round"/>
<path d="M234.369 241.172L237.835 243.833" stroke="#263238" stroke-width="0.969857" stroke-linecap="round" stroke-linejoin="round"/>
<path d="M271.217 280.351V322.729L294.179 321.129V278.485L271.217 280.351Z" fill="#263238" stroke="#263238" stroke-width="0.969857" stroke-linecap="round" stroke-linejoin="round"/>
<path d="M270.501 304.342V280.351L294.179 278.485L294.243 302.855" stroke="white" stroke-width="0.969857" stroke-linecap="round" stroke-linejoin="round"/>
<path d="M271.217 322.729L259.197 312.068L271.217 311.53" fill="white"/>
<path d="M271.217 322.729L259.197 312.068L271.217 311.53" stroke="#263238" stroke-width="0.969857" stroke-linecap="round" stroke-linejoin="round"/>
<path opacity="0.7" d="M125.596 283.567L201.534 291.172C201.534 291.172 198.624 288.833 199.757 288.608C201.912 288.19 205.104 287.9 205.104 287.9L198.406 280.841L125.596 283.567Z" fill="#F1B442"/>
<path opacity="0.7" d="M125.596 283.567L201.534 291.172C201.534 291.172 198.624 288.833 199.757 288.608C201.912 288.19 205.104 287.9 205.104 287.9L198.406 280.841L125.596 283.567Z" fill="white"/>
<path d="M198.463 280.873L79.9531 285.094" stroke="#263238" stroke-width="0.969857" stroke-linecap="round" stroke-linejoin="round"/>
<path d="M320.839 278.325L400.725 327.626" stroke="#263238" stroke-width="0.969857" stroke-linecap="round" stroke-linejoin="round"/>
<path d="M175.629 290.738L133.813 295.844L160.755 324.136L205.827 318.565L175.629 290.738Z" fill="#F1B442"/>
<path opacity="0.7" d="M175.629 290.738L133.813 295.844L160.755 324.136L205.827 318.565L175.629 290.738Z" fill="white"/>
<path d="M132.88 301.874L170.049 297.235L196.999 324.595L154.251 330.625L132.88 301.874Z" fill="white"/>
<path d="M155.529 326.645C155.465 326.645 155.404 326.62 155.358 326.574C155.313 326.529 155.288 326.468 155.288 326.404C155.288 326.34 155.313 326.278 155.358 326.233C155.404 326.188 155.465 326.163 155.529 326.163L189.715 321.765C189.778 321.76 189.841 321.778 189.892 321.817C189.942 321.855 189.977 321.911 189.988 321.974C189.993 322.006 189.991 322.039 189.982 322.07C189.974 322.102 189.959 322.131 189.938 322.157C189.918 322.182 189.893 322.204 189.864 322.219C189.835 322.235 189.804 322.244 189.771 322.247L155.593 326.645H155.529Z" fill="#F1B442"/>
<path d="M153.624 324.362C153.56 324.362 153.498 324.336 153.453 324.291C153.408 324.246 153.382 324.184 153.382 324.12C153.382 324.056 153.408 323.995 153.453 323.95C153.498 323.905 153.56 323.879 153.624 323.879L187.81 319.481C187.874 319.473 187.938 319.49 187.99 319.529C188.041 319.568 188.074 319.626 188.083 319.69C188.092 319.754 188.074 319.819 188.035 319.87C187.996 319.922 187.938 319.955 187.874 319.964L153.696 324.362H153.624Z" fill="#F1B442"/>
<path d="M151.726 322.078C151.666 322.078 151.608 322.056 151.564 322.016C151.519 321.976 151.491 321.921 151.485 321.861C151.478 321.797 151.496 321.733 151.535 321.683C151.574 321.632 151.631 321.598 151.694 321.588L185.856 317.19C185.92 317.187 185.983 317.207 186.033 317.247C186.084 317.287 186.118 317.344 186.129 317.407C186.133 317.439 186.13 317.471 186.12 317.501C186.111 317.532 186.096 317.56 186.076 317.585C186.056 317.61 186.031 317.63 186.003 317.645C185.975 317.66 185.944 317.669 185.912 317.672L151.734 322.078H151.726Z" fill="#F1B442"/>
<path d="M149.821 319.787C149.757 319.787 149.695 319.761 149.65 319.716C149.605 319.671 149.579 319.61 149.579 319.546C149.579 319.482 149.605 319.42 149.65 319.375C149.695 319.33 149.757 319.304 149.821 319.304L184.007 314.907C184.07 314.9 184.134 314.917 184.185 314.956C184.236 314.995 184.27 315.052 184.28 315.116C184.284 315.147 184.283 315.18 184.275 315.211C184.266 315.242 184.252 315.271 184.233 315.296C184.213 315.322 184.189 315.343 184.161 315.359C184.133 315.375 184.103 315.385 184.071 315.389L149.885 319.787H149.821Z" fill="#F1B442"/>
<path d="M147.923 317.503C147.864 317.504 147.807 317.483 147.763 317.445C147.719 317.406 147.69 317.353 147.682 317.294C147.677 317.263 147.679 317.23 147.687 317.199C147.695 317.168 147.71 317.139 147.729 317.114C147.749 317.088 147.773 317.067 147.801 317.051C147.828 317.035 147.859 317.025 147.891 317.021L182.077 312.623C182.141 312.616 182.205 312.634 182.256 312.673C182.306 312.712 182.34 312.769 182.35 312.832C182.355 312.865 182.353 312.897 182.344 312.929C182.336 312.96 182.321 312.99 182.3 313.015C182.28 313.041 182.255 313.062 182.226 313.078C182.197 313.093 182.166 313.103 182.133 313.106L147.955 317.503H147.923Z" fill="#F1B442"/>
<path d="M146.018 315.212C145.958 315.212 145.9 315.19 145.855 315.15C145.81 315.11 145.782 315.055 145.776 314.995C145.771 314.932 145.79 314.869 145.829 314.818C145.867 314.768 145.923 314.733 145.985 314.722L180.172 310.324C180.236 310.317 180.301 310.336 180.353 310.376C180.404 310.417 180.437 310.476 180.445 310.541C180.452 310.604 180.434 310.667 180.395 310.716C180.356 310.766 180.299 310.798 180.236 310.806L146.05 315.212H146.018Z" fill="#F1B442"/>
<path d="M144.12 312.929C144.062 312.929 144.005 312.908 143.96 312.87C143.916 312.831 143.887 312.778 143.879 312.72C143.875 312.688 143.876 312.656 143.885 312.625C143.893 312.594 143.907 312.565 143.926 312.539C143.946 312.514 143.97 312.492 143.998 312.476C144.026 312.46 144.056 312.45 144.088 312.446L178.274 308.048C178.338 308.043 178.401 308.062 178.451 308.1C178.501 308.139 178.536 308.195 178.548 308.257C178.552 308.29 178.55 308.323 178.541 308.354C178.533 308.386 178.518 308.415 178.498 308.441C178.477 308.466 178.452 308.487 178.423 308.503C178.395 308.518 178.363 308.528 178.331 308.531L144.152 312.929H144.12Z" fill="#F1B442"/>
<path d="M142.215 310.645C142.151 310.645 142.09 310.62 142.044 310.575C141.999 310.529 141.974 310.468 141.974 310.404C141.974 310.34 141.999 310.279 142.044 310.234C142.09 310.188 142.151 310.163 142.215 310.163L176.401 305.765C176.433 305.761 176.465 305.763 176.496 305.771C176.527 305.779 176.556 305.793 176.581 305.813C176.606 305.832 176.628 305.857 176.644 305.884C176.66 305.912 176.67 305.942 176.674 305.974C176.679 306.006 176.676 306.038 176.668 306.069C176.66 306.1 176.646 306.129 176.626 306.154C176.607 306.179 176.583 306.201 176.555 306.217C176.527 306.233 176.497 306.243 176.465 306.247L142.279 310.645H142.215Z" fill="#F1B442"/>
<path d="M140.317 308.362C140.257 308.362 140.199 308.34 140.155 308.3C140.11 308.26 140.082 308.205 140.076 308.145C140.069 308.081 140.087 308.017 140.126 307.966C140.165 307.915 140.222 307.881 140.285 307.871L174.471 303.474C174.536 303.469 174.6 303.488 174.65 303.529C174.701 303.569 174.735 303.627 174.745 303.691C174.748 303.722 174.745 303.754 174.736 303.785C174.727 303.816 174.712 303.844 174.691 303.869C174.671 303.893 174.646 303.914 174.618 303.929C174.59 303.944 174.559 303.953 174.528 303.956L140.35 308.362H140.317Z" fill="#F1B442"/>
<path d="M138.42 306.071C138.356 306.071 138.295 306.045 138.249 306C138.204 305.955 138.179 305.893 138.179 305.829C138.179 305.765 138.204 305.704 138.249 305.659C138.295 305.614 138.356 305.588 138.42 305.588L172.606 301.19C172.67 301.183 172.734 301.201 172.785 301.24C172.835 301.279 172.869 301.336 172.879 301.399C172.884 301.431 172.882 301.463 172.874 301.494C172.866 301.525 172.852 301.554 172.832 301.58C172.813 301.605 172.788 301.627 172.761 301.643C172.733 301.658 172.702 301.669 172.67 301.673L138.42 306.071Z" fill="#F1B442"/>
<g opacity="0.7">
<path opacity="0.7" d="M155.529 326.645C155.465 326.645 155.404 326.62 155.358 326.574C155.313 326.529 155.288 326.468 155.288 326.404C155.288 326.34 155.313 326.278 155.358 326.233C155.404 326.188 155.465 326.163 155.529 326.163L189.715 321.765C189.778 321.76 189.841 321.778 189.892 321.817C189.942 321.855 189.977 321.911 189.988 321.974C189.993 322.006 189.991 322.039 189.982 322.07C189.974 322.102 189.959 322.131 189.938 322.157C189.918 322.182 189.893 322.204 189.864 322.219C189.835 322.235 189.804 322.244 189.771 322.247L155.593 326.645H155.529Z" fill="white"/>
<path opacity="0.7" d="M153.624 324.362C153.56 324.362 153.498 324.336 153.453 324.291C153.408 324.246 153.382 324.184 153.382 324.12C153.382 324.056 153.408 323.995 153.453 323.95C153.498 323.905 153.56 323.879 153.624 323.879L187.81 319.481C187.874 319.473 187.938 319.49 187.99 319.529C188.041 319.568 188.074 319.626 188.083 319.69C188.092 319.754 188.074 319.819 188.035 319.87C187.996 319.922 187.938 319.955 187.874 319.964L153.696 324.362H153.624Z" fill="white"/>
<path opacity="0.7" d="M151.726 322.078C151.666 322.078 151.608 322.056 151.564 322.016C151.519 321.976 151.491 321.921 151.485 321.861C151.478 321.797 151.496 321.733 151.535 321.683C151.574 321.632 151.631 321.598 151.694 321.588L185.856 317.19C185.92 317.187 185.983 317.207 186.033 317.247C186.084 317.287 186.118 317.344 186.129 317.407C186.133 317.439 186.13 317.471 186.12 317.501C186.111 317.532 186.096 317.56 186.076 317.585C186.056 317.61 186.031 317.63 186.003 317.645C185.975 317.66 185.944 317.669 185.912 317.672L151.734 322.078H151.726Z" fill="white"/>
<path opacity="0.7" d="M149.821 319.787C149.757 319.787 149.695 319.761 149.65 319.716C149.605 319.671 149.579 319.61 149.579 319.546C149.579 319.482 149.605 319.42 149.65 319.375C149.695 319.33 149.757 319.304 149.821 319.304L184.007 314.907C184.07 314.9 184.134 314.917 184.185 314.956C184.236 314.995 184.27 315.052 184.28 315.116C184.285 315.147 184.283 315.18 184.275 315.211C184.266 315.242 184.252 315.271 184.233 315.296C184.213 315.322 184.189 315.343 184.161 315.359C184.133 315.375 184.103 315.385 184.071 315.389L149.885 319.787H149.821Z" fill="white"/>
<path opacity="0.7" d="M147.923 317.503C147.865 317.504 147.808 317.483 147.763 317.445C147.719 317.406 147.69 317.353 147.682 317.294C147.678 317.263 147.679 317.23 147.688 317.199C147.696 317.168 147.71 317.139 147.729 317.114C147.749 317.088 147.773 317.067 147.801 317.051C147.829 317.035 147.859 317.025 147.891 317.021L182.077 312.623C182.141 312.616 182.205 312.634 182.256 312.673C182.307 312.712 182.341 312.769 182.351 312.832C182.355 312.865 182.353 312.897 182.344 312.929C182.336 312.96 182.321 312.99 182.301 313.015C182.28 313.041 182.255 313.062 182.226 313.078C182.198 313.093 182.166 313.103 182.133 313.106L147.955 317.503H147.923Z" fill="white"/>
<path opacity="0.7" d="M146.018 315.212C145.958 315.212 145.9 315.19 145.855 315.15C145.81 315.11 145.782 315.055 145.776 314.995C145.771 314.932 145.79 314.869 145.829 314.818C145.867 314.768 145.923 314.733 145.985 314.722L180.172 310.324C180.236 310.317 180.301 310.336 180.353 310.376C180.404 310.417 180.437 310.476 180.445 310.541C180.452 310.604 180.434 310.667 180.395 310.716C180.356 310.766 180.299 310.798 180.236 310.806L146.05 315.212H146.018Z" fill="white"/>
<path opacity="0.7" d="M144.12 312.929C144.062 312.929 144.005 312.908 143.96 312.87C143.916 312.831 143.887 312.778 143.879 312.72C143.875 312.688 143.876 312.656 143.885 312.625C143.893 312.594 143.907 312.565 143.926 312.539C143.946 312.514 143.97 312.492 143.998 312.476C144.026 312.46 144.056 312.45 144.088 312.446L178.274 308.048C178.338 308.043 178.401 308.062 178.451 308.101C178.501 308.139 178.536 308.195 178.548 308.257C178.552 308.29 178.55 308.323 178.541 308.354C178.533 308.386 178.518 308.415 178.498 308.441C178.477 308.466 178.452 308.487 178.423 308.503C178.395 308.518 178.363 308.528 178.331 308.531L144.152 312.929H144.12Z" fill="white"/>
<path opacity="0.7" d="M142.215 310.645C142.151 310.645 142.09 310.62 142.044 310.575C141.999 310.529 141.974 310.468 141.974 310.404C141.974 310.34 141.999 310.279 142.044 310.234C142.09 310.188 142.151 310.163 142.215 310.163L176.401 305.765C176.433 305.761 176.465 305.763 176.496 305.771C176.527 305.779 176.556 305.793 176.581 305.813C176.606 305.832 176.628 305.857 176.644 305.884C176.66 305.912 176.67 305.942 176.674 305.974C176.678 306.006 176.676 306.038 176.668 306.069C176.66 306.1 176.646 306.129 176.626 306.154C176.607 306.179 176.583 306.201 176.555 306.217C176.527 306.233 176.497 306.243 176.465 306.247L142.279 310.645H142.215Z" fill="white"/>
<path opacity="0.7" d="M140.317 308.362C140.257 308.362 140.199 308.34 140.155 308.3C140.11 308.26 140.082 308.205 140.076 308.145C140.069 308.081 140.087 308.017 140.126 307.966C140.165 307.915 140.222 307.881 140.285 307.871L174.471 303.474C174.536 303.469 174.6 303.488 174.65 303.529C174.701 303.569 174.735 303.627 174.745 303.691C174.748 303.722 174.745 303.754 174.736 303.785C174.727 303.816 174.712 303.844 174.691 303.869C174.671 303.893 174.646 303.914 174.618 303.929C174.59 303.944 174.559 303.953 174.528 303.956L140.35 308.362H140.317Z" fill="white"/>
<path opacity="0.7" d="M138.42 306.071C138.356 306.071 138.295 306.045 138.249 306C138.204 305.955 138.179 305.893 138.179 305.829C138.179 305.765 138.204 305.704 138.249 305.659C138.295 305.614 138.356 305.588 138.42 305.588L172.606 301.19C172.67 301.183 172.734 301.201 172.785 301.24C172.835 301.279 172.869 301.336 172.879 301.399C172.884 301.431 172.882 301.463 172.874 301.494C172.866 301.525 172.852 301.554 172.832 301.58C172.813 301.605 172.788 301.627 172.761 301.643C172.733 301.658 172.702 301.669 172.67 301.673L138.42 306.071Z" fill="white"/>
</g>
<path d="M174.6 148.68C174.6 148.68 181.032 150.818 182.64 153.504C184.248 156.189 188.38 170.492 188.38 170.492" stroke="#263238" stroke-width="0.969857" stroke-linecap="round" stroke-linejoin="round"/>
</svg>
