<svg width="359" height="206" viewBox="0 0 359 206" fill="none" xmlns="http://www.w3.org/2000/svg">
<g clip-path="url(#clip0)">
<rect width="359" height="206" fill="white"/>
<rect width="359" height="206" rx="19" fill="#C74D75"/>
<path d="M365.098 117.131H329.916C329.916 117.131 319.663 118.474 323.899 128.497H314.565C313.098 126.462 312.149 124.1 311.8 121.615C311.451 119.131 311.712 116.598 312.562 114.238C315.434 105.995 325.041 104.437 325.041 104.437H362.226C362.226 104.437 371.373 108.221 365.098 117.131Z" fill="#263238" stroke="#263238" stroke-width="1.1326" stroke-linecap="round" stroke-linejoin="round"/>
<path d="M285.014 166.364C288.726 154.876 294.133 146.109 292.783 133.286C292.208 127.865 289.911 122.595 289.703 117.16C289.207 102.283 307.746 102.426 312.355 89.7463C316.405 78.6102 316.742 73.8857 324.842 73.5482C332.941 73.2108 360.282 70.1736 366.694 71.8609C373.105 73.5482 377.837 89.0929 383.208 95.8206C388.578 102.548 395.019 112.026 390.632 124.541C386.245 137.055 380.178 153.533 379.524 167.714C378.871 181.894 378.849 195.386 378.849 195.386H281.977C281.977 195.386 281.302 177.838 285.014 166.364ZM327.204 126.874H352.858C355.231 126.808 357.485 125.818 359.14 124.116C360.795 122.414 361.721 120.133 361.721 117.759C361.721 115.385 360.795 113.105 359.14 111.402C357.485 109.7 355.231 108.711 352.858 108.644H327.204C324.831 108.711 322.577 109.7 320.922 111.402C319.267 113.105 318.341 115.385 318.341 117.759C318.341 120.133 319.267 122.414 320.922 124.116C322.577 125.818 324.831 126.808 327.204 126.874Z" fill="#AD667E" stroke="#263238" stroke-width="1.1326" stroke-linecap="round" stroke-linejoin="round"/>
<path d="M379.565 90.0051C373.319 93.2649 364.186 99.6479 358.743 110.827C357.103 109.417 355.012 108.641 352.849 108.637H327.195C325.938 108.639 324.695 108.902 323.545 109.411C322.396 109.919 321.365 110.66 320.517 111.588L320.323 111.717C317.451 106.799 313.323 100.502 308.641 95.5481C310.275 93.897 311.538 91.9169 312.346 89.7395C316.396 78.6033 316.733 73.8789 324.832 73.5414C332.931 73.2039 360.273 70.1668 366.685 71.8541C371.624 73.1537 375.559 82.6313 379.565 90.0051Z" fill="#263238" stroke="#263238" stroke-width="1.1326" stroke-linecap="round" stroke-linejoin="round"/>
<path d="M361.846 195.723H290.993C291.503 189.312 292.745 174.183 293.794 165.352C295.144 153.864 295.818 146.447 299.193 143.094C302.568 139.741 323.828 123.837 329.916 123.162C329.916 123.162 347.471 121.812 352.892 122.825C358.313 123.837 369.406 141.385 369.406 144.422C369.406 147.301 361.508 176.84 361.846 195.723Z" fill="#263238" stroke="#263238" stroke-width="1.1326" stroke-linecap="round" stroke-linejoin="round"/>
<path d="M316.741 143.747C320.79 137.336 333.973 140.373 344.42 140.035C354.867 139.698 355.908 142.735 355.908 148.472C355.908 153.347 350.788 185.757 349.252 195.386H306.222C306.222 176.538 312.878 149.865 316.741 143.747Z" fill="#AD667E" stroke="#263238" stroke-width="1.1326" stroke-linecap="round" stroke-linejoin="round"/>
<path d="M330.483 139.626C334.863 139.712 339.645 140.15 343.989 140.05C342.144 146.023 334.928 170.809 334.303 195.386H320.747C321.444 184.171 323.684 159.536 330.483 139.626Z" fill="white" stroke="#263238" stroke-width="1.1326" stroke-linecap="round" stroke-linejoin="round"/>
<path d="M268.031 133.458C268.031 133.458 264.922 134.844 261.814 140.373C258.705 145.901 214.907 170.766 214.21 177.709C213.514 184.652 211.151 185.693 220.141 187.043C229.13 188.393 241.76 179.145 256.974 170.816C272.189 162.487 279.44 163.198 279.44 163.198L268.031 133.458Z" fill="white" stroke="#263238" stroke-width="1.1326" stroke-linecap="round" stroke-linejoin="round"/>
<path d="M223.264 170.191C223.264 170.191 232.943 171.441 236.375 175.497C239.807 179.554 234.515 185.894 231.234 187.093C227.953 188.292 217.958 187.359 215.151 182.067C212.343 176.775 214.526 175.512 218.274 172.733" fill="white"/>
<path d="M223.264 170.191C223.264 170.191 232.943 171.441 236.375 175.497C239.807 179.554 234.515 185.894 231.234 187.093C227.953 188.292 217.958 187.359 215.151 182.067C212.343 176.775 214.526 175.512 218.274 172.733" stroke="#263238" stroke-width="1.1326" stroke-linecap="round" stroke-linejoin="round"/>
<path d="M231.313 179.195C231.313 179.195 234.903 181.916 235.729 182.677C236.554 183.438 237.768 186.755 238.601 187.344C239.434 187.933 242.507 188.45 242.851 189.297C243.196 190.144 240.13 191.085 237.753 190.999C235.377 190.913 233.51 188.127 231.22 187.093C229.735 186.462 228.155 186.089 226.545 185.987C226.545 185.987 224.427 181.32 225.275 179.453C226.122 177.587 229.396 177.838 231.313 179.195Z" fill="white" stroke="#263238" stroke-width="1.1326" stroke-linecap="round" stroke-linejoin="round"/>
<path d="M222.798 174.183C223.555 174.047 224.331 174.047 225.088 174.183C226.927 174.445 228.746 174.833 230.531 175.347C231.414 175.792 232.778 181.399 233.439 184.049C234.099 186.698 236.72 191.473 235.593 191.695C234.465 191.918 231.687 192.543 231.213 190.841C230.444 188.127 228.743 183.079 228.743 183.079C228.743 183.079 230.071 187.94 229.411 188.823C228.75 189.707 218.145 189.484 216.817 189.039C215.489 188.594 212.401 182.857 212.179 179.762C212.013 177.127 219.459 174.822 222.798 174.183Z" fill="white" stroke="#263238" stroke-width="1.1326" stroke-linecap="round" stroke-linejoin="round"/>
<path d="M224.865 189.211L222.144 178.599" stroke="#263238" stroke-width="1.1326" stroke-linecap="round" stroke-linejoin="round"/>
<path d="M219.093 189.046L216.544 179.03" stroke="#263238" stroke-width="1.1326" stroke-linecap="round" stroke-linejoin="round"/>
<path d="M228.764 183.065L227.414 178.262" stroke="#263238" stroke-width="1.1326" stroke-linecap="round" stroke-linejoin="round"/>
<path d="M249.019 147.976C259.717 138.47 271.743 125.611 285.601 120.994C289.179 119.843 292.497 118.002 295.366 115.573C295.366 115.573 305.109 108.666 311.276 108.329C318.334 107.934 323.784 115.401 327.072 120.757C341.691 144.645 343.586 172.274 344.146 199.737H279.44C279.44 199.737 283.203 193.914 279.096 177.142C278.321 173.952 277.323 170.821 276.109 167.772C274.91 168.289 273.589 168.842 272.181 169.423C266.308 171.843 252.795 179.475 252.795 179.475L237.595 157.425C237.595 157.425 245.91 150.748 249.019 147.976Z" fill="white" stroke="#263238" stroke-width="1.1326" stroke-linecap="round" stroke-linejoin="round"/>
<path d="M308.046 112.837C309.941 109.456 314.062 105.973 320.517 109.693C328.875 114.503 353.725 164.124 355.434 171.656C357.142 179.188 322.233 184.02 308.541 184.02C300.063 184.004 291.592 183.556 283.16 182.677L280.467 184.357C280.467 184.357 280.467 190.862 278.069 191.537C275.671 192.212 268.139 192.255 265.748 190.855C263.357 189.455 264.032 185.722 264.032 185.722C264.032 185.722 262.323 193.253 259.588 193.936C258.681 194.172 257.73 194.186 256.816 193.979C256.601 193.927 256.403 193.82 256.241 193.669C256.079 193.518 255.96 193.327 255.894 193.116C255.828 192.905 255.818 192.68 255.865 192.463C255.912 192.247 256.015 192.047 256.163 191.882L256.881 191.028L261.612 180.588C261.612 180.588 262.919 174.944 264.628 174.944C266.337 174.944 280.094 174.765 280.094 174.765C280.094 174.765 303.371 172.029 313.301 169.287C323.231 166.544 328.48 162.717 328.48 162.717L309.438 131.656" fill="white"/>
<path d="M283.763 179.791C288.904 179.188 304.642 179.489 324.926 176.761C345.209 174.033 350.056 169.193 346.114 167.987C342.172 166.781 328.882 164.052 327.949 164.052C327.015 164.052 344.901 160.721 344.901 160.721L335.272 130.271C344.606 146.519 354.385 167.032 355.434 171.656C357.15 179.188 322.233 184.02 308.541 184.02C300.063 184.004 291.592 183.556 283.16 182.677L280.467 184.357C280.467 184.357 280.467 190.863 278.069 191.537C277.363 191.716 276.642 191.829 275.915 191.875C274.925 191.036 274.264 189.873 274.048 188.594C273.539 185.363 278.615 180.43 283.763 179.791Z" fill="#AD667E"/>
<path opacity="0.5" d="M283.763 179.791C288.904 179.188 304.642 179.489 324.926 176.761C345.209 174.033 350.056 169.193 346.114 167.987C342.172 166.781 328.882 164.052 327.949 164.052C327.015 164.052 344.901 160.721 344.901 160.721L335.272 130.271C344.606 146.519 354.385 167.032 355.434 171.656C357.15 179.188 322.233 184.02 308.541 184.02C300.063 184.004 291.592 183.556 283.16 182.677L280.467 184.357C280.467 184.357 280.467 190.863 278.069 191.537C277.363 191.716 276.642 191.829 275.915 191.875C274.925 191.036 274.264 189.873 274.048 188.594C273.539 185.363 278.615 180.43 283.763 179.791Z" fill="white"/>
<path d="M308.046 112.837C309.941 109.456 314.062 105.973 320.517 109.693C328.875 114.503 353.725 164.124 355.434 171.656C357.142 179.188 322.233 184.02 308.541 184.02C300.063 184.004 291.592 183.556 283.16 182.677L280.467 184.357C280.467 184.357 280.467 190.862 278.069 191.537C275.671 192.212 268.139 192.255 265.748 190.855C263.357 189.455 264.032 185.722 264.032 185.722C264.032 185.722 262.323 193.253 259.588 193.936C258.681 194.172 257.73 194.186 256.816 193.979C256.601 193.927 256.403 193.82 256.241 193.669C256.079 193.518 255.96 193.327 255.894 193.116C255.828 192.905 255.818 192.68 255.865 192.463C255.912 192.247 256.015 192.047 256.163 191.882L256.881 191.028L261.612 180.588C261.612 180.588 262.919 174.944 264.628 174.944C266.337 174.944 280.094 174.765 280.094 174.765C280.094 174.765 303.371 172.029 313.301 169.287C323.231 166.544 328.48 162.717 328.48 162.717L309.438 131.656" stroke="#263238" stroke-width="1.1326" stroke-linecap="round" stroke-linejoin="round"/>
<path d="M269.438 180.473C269.438 180.473 266.897 187.926 266.897 189.146C266.934 189.993 267.142 190.823 267.507 191.588" stroke="#263238" stroke-width="1.1326" stroke-linecap="round" stroke-linejoin="round"/>
<path d="M273.804 181.622C273.804 181.622 271.37 188.536 271.162 189.958C271.08 190.32 271.093 190.698 271.2 191.054C271.307 191.41 271.504 191.733 271.772 191.99" stroke="#263238" stroke-width="1.1326" stroke-linecap="round" stroke-linejoin="round"/>
<path d="M264.032 185.693L265.676 179.389" stroke="#263238" stroke-width="1.1326" stroke-linecap="round" stroke-linejoin="round"/>
<path d="M280.467 184.322L277.064 185.485C277.064 185.485 275.025 186.504 276.655 187.926" fill="white"/>
<path d="M280.467 184.322L277.064 185.485C277.064 185.485 275.025 186.504 276.655 187.926" stroke="#263238" stroke-width="1.1326" stroke-linecap="round" stroke-linejoin="round"/>
<path d="M306.746 113.721C306.746 113.721 308.569 107.618 315.893 107.417C323.217 107.216 328.48 115.753 331.955 120.836C335.43 125.919 344.556 145.636 345.597 148.077C346.638 150.518 352.504 161.087 352.504 161.087C352.504 161.087 349.46 163.959 342.136 163.959H326.074C326.074 163.959 325.471 163.751 325.062 161.927C324.852 161.127 324.715 160.31 324.653 159.486L306.358 129.194" fill="white"/>
<path d="M306.746 113.721C306.746 113.721 308.569 107.618 315.893 107.417C323.217 107.216 328.48 115.753 331.955 120.836C335.43 125.919 344.556 145.636 345.597 148.077C346.638 150.518 352.504 161.087 352.504 161.087C352.504 161.087 349.46 163.959 342.136 163.959H326.074C326.074 163.959 325.471 163.751 325.062 161.927C324.852 161.127 324.715 160.31 324.653 159.486L306.358 129.194" stroke="#263238" stroke-width="1.1326" stroke-linecap="round" stroke-linejoin="round"/>
<path d="M256.802 184.401L255.351 188.034" stroke="#263238" stroke-width="1.1326" stroke-linecap="round" stroke-linejoin="round"/>
<path d="M255.71 181.859L253.894 186.217" stroke="#263238" stroke-width="1.1326" stroke-linecap="round" stroke-linejoin="round"/>
<path d="M268.211 152.708L276.109 167.764L263.838 156.772" stroke="#263238" stroke-width="1.1326" stroke-linecap="round" stroke-linejoin="round"/>
<path d="M285.601 120.994C289.179 119.843 292.497 118.002 295.366 115.573C295.366 115.573 296.974 114.431 299.293 113.06C298.008 119.357 294.08 137.472 290.993 140.538C288.028 143.503 281.745 130.831 279.246 123.708C281.29 122.637 283.414 121.73 285.601 120.994Z" fill="white" stroke="#263238" stroke-width="1.1326" stroke-linecap="round" stroke-linejoin="round"/>
<path d="M265.935 109.255C261.14 109.255 257.254 104.272 257.254 98.1256C257.254 91.9792 261.14 86.9966 265.935 86.9966C270.729 86.9966 274.615 91.9792 274.615 98.1256C274.615 104.272 270.729 109.255 265.935 109.255Z" fill="white" stroke="#263238" stroke-width="1.1326" stroke-linecap="round" stroke-linejoin="round"/>
<path d="M294.949 95.634C294.949 95.634 296.198 109.757 295.366 115.573C294.533 121.389 291.216 139.662 288.724 134.679C286.233 129.696 277.502 113.498 277.502 113.498C277.502 113.498 292.458 102.283 294.949 95.634Z" fill="white"/>
<path d="M294.949 95.634C294.949 95.634 296.198 109.757 295.366 115.573C295.042 117.871 294.317 122.114 293.42 126.099L283.152 120.47L278.844 115.946L277.53 113.498C277.53 113.498 292.458 102.283 294.949 95.634Z" fill="#AD667E"/>
<path opacity="0.5" d="M294.949 95.634C294.949 95.634 296.198 109.757 295.366 115.573C295.042 117.871 294.317 122.114 293.42 126.099L283.152 120.47L278.844 115.946L277.53 113.498C277.53 113.498 292.458 102.283 294.949 95.634Z" fill="white"/>
<path d="M294.949 95.634C294.949 95.634 296.198 109.757 295.366 115.573C294.533 121.389 291.216 139.662 288.724 134.679C286.233 129.696 277.502 113.498 277.502 113.498C277.502 113.498 292.458 102.283 294.949 95.634Z" stroke="#263238" stroke-width="1.1326" stroke-linecap="round" stroke-linejoin="round"/>
<path d="M297.448 93.1426C297.448 93.1426 300.32 75.6952 297.857 69.0465C295.395 62.3979 286.226 59.0807 275.427 62.405C264.628 65.7294 258.396 69.0465 256.759 76.5281C255.122 84.0097 260.909 88.5762 260.909 88.5762C260.909 88.5762 265.899 76.9446 271.679 75.6952C277.459 74.4459 282.894 74.0366 282.061 78.1867C281.228 82.3367 280.812 87.7433 283.303 89.8183C285.795 91.8933 286.211 92.7262 287.461 96.0505C288.71 99.3749 292.444 102.699 295.359 98.9225C298.274 95.1459 297.448 93.1426 297.448 93.1426Z" fill="#263238" stroke="#263238" stroke-width="1.1326" stroke-linecap="round" stroke-linejoin="round"/>
<path d="M294.54 94.3849C294.54 94.3849 295.366 88.9856 299.106 91.0678C302.847 93.15 297.448 101.034 297.448 101.034C296.846 106.639 294.687 111.964 291.216 116.406C285.4 123.88 275.348 124.893 269.604 120.118C263.142 114.747 260.054 90.2133 260.054 90.2133C260.054 90.2133 257.563 86.889 262.926 78.5817C268.29 70.2745 286.62 70.2745 287.848 73.5988C289.076 76.9232 284.107 83.5647 285.357 86.0561C286.606 88.5476 290.34 85.6469 291.173 90.2133C292.005 94.7798 292.874 98.1257 294.54 94.3849Z" fill="white"/>
<path d="M262.969 78.6032C268.369 70.296 286.663 70.296 287.891 73.6203C289.119 76.9447 284.15 83.5862 285.4 86.0776C286.649 88.5691 290.383 85.6684 291.216 90.2348C292.048 94.8013 292.874 98.1328 294.54 94.3849C294.54 94.3849 295.366 88.9855 299.106 91.0677C302.847 93.1499 297.448 101.034 297.448 101.034C296.846 106.639 294.687 111.964 291.216 116.406C289.474 118.706 287.163 120.512 284.51 121.646C281.856 122.779 278.953 123.2 276.087 122.868C278.569 122.492 280.963 121.669 283.152 120.441C288.896 117.11 290.419 110.755 288.602 103.791C286.786 96.8261 282.549 79.8813 280.417 78.1581C278.284 76.4349 276.827 77.7632 272.26 81.9994C267.694 86.2356 265.296 85.934 265.296 85.934L260.622 82.9112C261.276 81.4089 262.062 79.9673 262.969 78.6032Z" fill="#AD667E"/>
<path opacity="0.5" d="M262.969 78.6032C268.369 70.296 286.663 70.296 287.891 73.6203C289.119 76.9447 284.15 83.5862 285.4 86.0776C286.649 88.5691 290.383 85.6684 291.216 90.2348C292.048 94.8013 292.874 98.1328 294.54 94.3849C294.54 94.3849 295.366 88.9855 299.106 91.0677C302.847 93.1499 297.448 101.034 297.448 101.034C296.846 106.639 294.687 111.964 291.216 116.406C289.474 118.706 287.163 120.512 284.51 121.646C281.856 122.779 278.953 123.2 276.087 122.868C278.569 122.492 280.963 121.669 283.152 120.441C288.896 117.11 290.419 110.755 288.602 103.791C286.786 96.8261 282.549 79.8813 280.417 78.1581C278.284 76.4349 276.827 77.7632 272.26 81.9994C267.694 86.2356 265.296 85.934 265.296 85.934L260.622 82.9112C261.276 81.4089 262.062 79.9673 262.969 78.6032Z" fill="white"/>
<path d="M294.54 94.3849C294.54 94.3849 295.366 88.9856 299.106 91.0678C302.847 93.15 297.448 101.034 297.448 101.034C296.846 106.639 294.687 111.964 291.216 116.406C285.4 123.88 275.348 124.893 269.604 120.118C263.142 114.747 260.054 90.2133 260.054 90.2133C260.054 90.2133 257.563 86.889 262.926 78.5817C268.29 70.2745 286.62 70.2745 287.848 73.5988C289.076 76.9232 284.107 83.5647 285.357 86.0561C286.606 88.5476 290.34 85.6469 291.173 90.2133C292.005 94.7798 292.874 98.1257 294.54 94.3849Z" stroke="#263238" stroke-width="1.1326" stroke-linecap="round" stroke-linejoin="round"/>
<path d="M278.658 108.759C283.906 107.618 285.048 103.733 285.048 103.733" stroke="#263238" stroke-width="1.1326" stroke-linecap="round" stroke-linejoin="round"/>
<path d="M277.286 97.8025C279.799 95.2967 282.083 95.0669 282.083 95.0669" stroke="#263238" stroke-width="1.1326" stroke-linecap="round" stroke-linejoin="round"/>
<path d="M283.677 103.281L286.879 103.97" stroke="#263238" stroke-width="1.1326" stroke-linecap="round" stroke-linejoin="round"/>
<path d="M285.048 103.74C285.554 104.42 285.916 105.196 286.113 106.021C286.309 106.845 286.335 107.701 286.19 108.536C285.766 111.365 282.557 112.062 282.557 112.062C282.557 112.062 282.312 108.307 280.482 108.536C280.482 108.536 284.136 106.476 285.048 103.74Z" stroke="#263238" stroke-width="1.1326" stroke-linecap="round" stroke-linejoin="round"/>
<path d="M285.4 103.906C285.4 103.906 285.895 108.651 282.528 109.901" stroke="#263238" stroke-width="0.566302" stroke-linecap="round" stroke-linejoin="round"/>
<path d="M267.084 91.0176C267.084 91.0176 270.545 94.4783 270.545 98.2478C270.545 102.017 267.084 104.538 269.913 105.485C272.742 106.433 273.689 105.794 273.689 105.794" stroke="#263238" stroke-width="1.1326" stroke-linecap="round" stroke-linejoin="round"/>
<path d="M277.358 95.0239C277.653 96.1871 278.076 95.6701 278.658 95.5193C279.239 95.3686 279.799 95.6486 279.505 94.4854C279.211 93.3223 278.493 92.4894 277.904 92.6402C277.315 92.791 277.071 93.8536 277.358 95.0239Z" fill="#263238"/>
<path d="M265.411 96.905C265.705 98.0753 266.423 98.901 267.012 98.7502C267.601 98.5994 267.852 97.5368 267.558 96.3665C267.263 95.1961 266.545 94.3776 265.956 94.5212C265.368 94.6648 265.116 95.7418 265.411 96.905Z" fill="#263238"/>
<path d="M281.86 87.2478C281.86 87.2478 277.502 85.898 273.309 91.6133" stroke="#263238" stroke-width="1.1326" stroke-linecap="round" stroke-linejoin="round"/>
<path d="M265.827 90.0767C265.827 90.0767 262.682 88.8202 262.05 91.9651" stroke="#263238" stroke-width="1.1326" stroke-linecap="round" stroke-linejoin="round"/>
<path d="M287.891 73.6202C287.891 73.6202 285.816 77.3538 280.417 78.1867C275.018 79.0196 268.369 78.1867 267.12 82.7604C265.87 87.334 260.062 92.7262 253.413 89.8183C246.764 86.9104 245.939 74.0223 250.089 68.6373C254.239 63.2523 259.229 64.0637 264.212 61.9886C269.195 59.9136 269.195 56.1729 276.676 56.1729C284.158 56.1729 292.874 63.2308 287.891 67.388" fill="#263238"/>
<path d="M287.891 73.6202C287.891 73.6202 285.816 77.3538 280.417 78.1867C275.018 79.0196 268.369 78.1867 267.12 82.7604C265.87 87.334 260.062 92.7262 253.413 89.8183C246.764 86.9104 245.939 74.0223 250.089 68.6373C254.239 63.2523 259.229 64.0637 264.212 61.9886C269.195 59.9136 269.195 56.1729 276.676 56.1729C284.158 56.1729 292.874 63.2308 287.891 67.388" stroke="#263238" stroke-width="1.1326" stroke-linecap="round" stroke-linejoin="round"/>
<path d="M296.536 104.946C291.742 104.946 287.856 99.9639 287.856 93.8175C287.856 87.6711 291.742 82.6885 296.536 82.6885C301.33 82.6885 305.217 87.6711 305.217 93.8175C305.217 99.9639 301.33 104.946 296.536 104.946Z" fill="white" stroke="#263238" stroke-width="1.1326" stroke-linecap="round" stroke-linejoin="round"/>
<path d="M297.9 101.902C294.442 101.902 291.639 98.3052 291.639 93.8679C291.639 89.4306 294.442 85.8335 297.9 85.8335C301.358 85.8335 304.161 89.4306 304.161 93.8679C304.161 98.3052 301.358 101.902 297.9 101.902Z" fill="#263238" stroke="#263238" stroke-width="1.1326" stroke-linecap="round" stroke-linejoin="round"/>
<path d="M299.106 92.6902C299.499 92.692 299.878 92.5509 300.174 92.2932C300.47 92.0356 300.662 91.679 300.715 91.2901C301.142 87.472 301.13 83.6175 300.679 79.8021C300.654 79.59 300.588 79.3847 300.484 79.1981C300.381 79.0115 300.241 78.8471 300.074 78.7145C299.906 78.5818 299.715 78.4834 299.509 78.4248C299.304 78.3663 299.089 78.3488 298.877 78.3733C298.665 78.3978 298.459 78.4639 298.273 78.5677C298.086 78.6715 297.922 78.8111 297.789 78.9785C297.656 79.1458 297.558 79.3377 297.499 79.543C297.441 79.7484 297.423 79.9633 297.448 80.1755C297.859 83.7264 297.875 87.3119 297.498 90.8665C297.468 91.0779 297.48 91.2932 297.533 91.4999C297.586 91.7067 297.68 91.9008 297.809 92.071C297.938 92.2413 298.099 92.3843 298.284 92.4918C298.468 92.5993 298.672 92.6692 298.884 92.6974C298.958 92.7019 299.033 92.6995 299.106 92.6902Z" fill="white" stroke="#263238" stroke-width="1.1326" stroke-linecap="round" stroke-linejoin="round"/>
<path d="M266.014 61.1199C265.457 61.4649 264.874 61.765 264.269 62.0174C261.268 63.2667 258.26 63.4534 255.438 64.6094C255.5 64.2365 255.637 63.8799 255.84 63.5611C259.782 57.3073 271.298 47.4635 286.671 54.9451C295.222 59.088 300.478 67.6322 301.914 79.6371C301.995 80.3862 301.779 81.1372 301.311 81.7282C300.844 82.3192 300.163 82.7028 299.415 82.7963H299.078C298.382 82.7894 297.712 82.5301 297.193 82.0665C296.674 81.603 296.341 80.9668 296.256 80.2762C295.452 73.3187 292.666 64.157 284.151 60.007C276.181 56.1585 270.013 58.291 266.014 61.1199Z" fill="white" stroke="#263238" stroke-width="1.1326" stroke-linecap="round" stroke-linejoin="round"/>
<path d="M196.756 192.313H297.635V196.384H196.756V192.313Z" fill="white" stroke="#263238" stroke-width="1.1326" stroke-linecap="round" stroke-linejoin="round"/>
<path d="M168.315 192.313H269.194V196.384H168.315V192.313Z" fill="white" stroke="#263238" stroke-width="1.1326" stroke-linecap="round" stroke-linejoin="round"/>
<path d="M329.198 185.743H314.306C312.663 185.743 311.087 186.396 309.925 187.558C308.763 188.72 308.11 190.296 308.11 191.94V199.385H335.394V191.918C335.388 190.278 334.733 188.708 333.572 187.55C332.41 186.393 330.837 185.743 329.198 185.743Z" fill="#AD667E" stroke="#263238" stroke-width="1.1326" stroke-linecap="round" stroke-linejoin="round"/>
<path d="M328.48 188.866H322.161C320.518 188.866 318.942 189.519 317.78 190.681C316.618 191.843 315.965 193.419 315.965 195.063V202.508H334.64V195.056C334.638 193.42 333.99 191.851 332.835 190.691C331.681 189.532 330.116 188.876 328.48 188.866Z" fill="#263238" stroke="#263238" stroke-width="1.1326" stroke-linecap="round" stroke-linejoin="round"/>
<path d="M328.48 190.812H324.495C322.852 190.812 321.275 191.465 320.113 192.627C318.951 193.789 318.299 195.365 318.299 197.009V199.78H334.669V197.009C334.669 195.366 334.017 193.792 332.857 192.63C331.696 191.468 330.122 190.814 328.48 190.812Z" fill="#AD667E" stroke="#263238" stroke-width="1.1326" stroke-linecap="round" stroke-linejoin="round"/>
<path d="M144.004 109.233H237.172V180.358H144.004V109.233Z" fill="white" stroke="#263238" stroke-width="1.1326" stroke-linecap="round" stroke-linejoin="round"/>
<path d="M140.156 109.233H233.323V180.358H140.156V109.233Z" fill="#263238" stroke="#263238" stroke-width="1.1326" stroke-linecap="round" stroke-linejoin="round"/>
<path d="M174.296 155.221H196.009V196.377H174.296V155.221Z" fill="white" stroke="#263238" stroke-width="1.1326" stroke-linecap="round" stroke-linejoin="round"/>
<path d="M98.7485 195.027H387.471V202.631H98.7485V195.027Z" fill="white" stroke="#263238" stroke-width="1.1326" stroke-linecap="round" stroke-linejoin="round"/>
<path d="M98.7484 195.027H287.432V202.631H98.7484V195.027Z" fill="#263238" stroke="#263238" stroke-width="1.1326" stroke-linecap="round" stroke-linejoin="round"/>
<path d="M53.104 44.224C53.5307 44.224 53.8827 44.3733 54.16 44.672C54.4587 44.9707 54.608 45.3333 54.608 45.76V52.96C54.608 53.536 54.352 53.984 53.84 54.304C52.8587 54.944 51.7813 55.4453 50.608 55.808C49.4347 56.1493 48.2293 56.32 46.992 56.32C44.8587 56.32 42.896 55.808 41.104 54.784C39.3333 53.76 37.936 52.3733 36.912 50.624C35.888 48.8533 35.376 46.912 35.376 44.8C35.376 42.688 35.888 40.7573 36.912 39.008C37.936 37.2373 39.3333 35.84 41.104 34.816C42.896 33.792 44.8587 33.28 46.992 33.28C48.0587 33.28 49.0827 33.3973 50.064 33.632C51.0667 33.8667 51.9627 34.2187 52.752 34.688C53.008 34.8373 53.2 35.0187 53.328 35.232C53.456 35.4453 53.52 35.68 53.52 35.936C53.52 36.3627 53.3707 36.736 53.072 37.056C52.7947 37.3547 52.4533 37.504 52.048 37.504C51.728 37.504 51.4507 37.4293 51.216 37.28C49.8293 36.64 48.4213 36.32 46.992 36.32C45.456 36.32 44.048 36.6933 42.768 37.44C41.5093 38.1867 40.5067 39.2107 39.76 40.512C39.0347 41.8133 38.672 43.2427 38.672 44.8C38.672 46.3573 39.0347 47.7867 39.76 49.088C40.5067 50.368 41.5093 51.392 42.768 52.16C44.048 52.9067 45.456 53.28 46.992 53.28C47.7173 53.28 48.4747 53.1947 49.264 53.024C50.0747 52.8533 50.768 52.6293 51.344 52.352V47.264H47.472C47.0453 47.264 46.6827 47.1253 46.384 46.848C46.0853 46.5493 45.936 46.1867 45.936 45.76C45.936 45.312 46.0853 44.9493 46.384 44.672C46.6827 44.3733 47.0453 44.224 47.472 44.224H53.104ZM72.5595 39.008C73.0075 39.008 73.3702 39.1573 73.6475 39.456C73.9462 39.7333 74.0955 40.1067 74.0955 40.576V54.464C74.0955 54.8907 73.9462 55.2533 73.6475 55.552C73.3702 55.8507 73.0075 56 72.5595 56C72.1115 56 71.7488 55.8613 71.4715 55.584C71.1942 55.2853 71.0555 54.912 71.0555 54.464V53.632C70.5008 54.3787 69.7435 55.0187 68.7835 55.552C67.8235 56.064 66.7888 56.32 65.6795 56.32C64.2288 56.32 62.9062 55.9467 61.7115 55.2C60.5382 54.4533 59.6102 53.4187 58.9275 52.096C58.2662 50.752 57.9355 49.248 57.9355 47.584C57.9355 45.92 58.2662 44.4267 58.9275 43.104C59.6102 41.76 60.5382 40.7147 61.7115 39.968C62.8848 39.2213 64.1755 38.848 65.5835 38.848C66.7142 38.848 67.7595 39.0827 68.7195 39.552C69.7008 40.0213 70.4795 40.6187 71.0555 41.344V40.576C71.0555 40.128 71.1942 39.7547 71.4715 39.456C71.7488 39.1573 72.1115 39.008 72.5595 39.008ZM66.0315 53.504C67.0342 53.504 67.9195 53.248 68.6875 52.736C69.4768 52.224 70.0848 51.52 70.5115 50.624C70.9595 49.728 71.1835 48.7147 71.1835 47.584C71.1835 46.4747 70.9595 45.472 70.5115 44.576C70.0848 43.68 69.4768 42.976 68.6875 42.464C67.9195 41.9307 67.0342 41.664 66.0315 41.664C65.0288 41.664 64.1328 41.92 63.3435 42.432C62.5755 42.944 61.9675 43.648 61.5195 44.544C61.0928 45.44 60.8795 46.4533 60.8795 47.584C60.8795 48.7147 61.0928 49.728 61.5195 50.624C61.9675 51.52 62.5755 52.224 63.3435 52.736C64.1328 53.248 65.0288 53.504 66.0315 53.504ZM97.8478 38.944C101.581 38.944 103.448 41.2693 103.448 45.92V54.464C103.448 54.912 103.309 55.2853 103.032 55.584C102.754 55.8613 102.392 56 101.944 56C101.496 56 101.122 55.8507 100.824 55.552C100.546 55.2533 100.408 54.8907 100.408 54.464V45.952C100.408 43.1573 99.2344 41.76 96.8878 41.76C96.0558 41.76 95.2984 41.952 94.6158 42.336C93.9544 42.6987 93.4318 43.2 93.0478 43.84C92.6851 44.48 92.5037 45.184 92.5037 45.952V54.464C92.5037 54.8907 92.3544 55.2533 92.0558 55.552C91.7784 55.8507 91.4158 56 90.9678 56C90.5198 56 90.1571 55.8613 89.8798 55.584C89.6024 55.2853 89.4638 54.912 89.4638 54.464V45.92C89.4638 44.6613 89.1971 43.6587 88.6638 42.912C88.1304 42.144 87.2451 41.76 86.0078 41.76C84.7491 41.76 83.7038 42.1653 82.8718 42.976C82.0611 43.7653 81.6558 44.7467 81.6558 45.92V54.464C81.6558 54.8907 81.5064 55.2533 81.2078 55.552C80.9304 55.8507 80.5678 56 80.1198 56C79.6718 56 79.3091 55.8613 79.0318 55.584C78.7544 55.2853 78.6158 54.912 78.6158 54.464V40.768C78.6158 40.3413 78.7544 39.9787 79.0318 39.68C79.3304 39.3813 79.6931 39.232 80.1198 39.232C80.5678 39.232 80.9304 39.3813 81.2078 39.68C81.5064 39.9787 81.6558 40.3413 81.6558 40.768V41.888C82.2104 41.056 82.9464 40.3627 83.8638 39.808C84.8024 39.232 85.8158 38.944 86.9038 38.944C89.5491 38.944 91.2664 40.1173 92.0558 42.464C92.5251 41.568 93.3038 40.7573 94.3918 40.032C95.4798 39.3067 96.6318 38.944 97.8478 38.944ZM122.711 46.976C122.689 47.36 122.529 47.6907 122.231 47.968C121.932 48.224 121.58 48.352 121.175 48.352H109.911C110.06 49.9093 110.647 51.1573 111.671 52.096C112.716 53.0347 113.985 53.504 115.479 53.504C116.503 53.504 117.335 53.3547 117.975 53.056C118.615 52.7573 119.18 52.3733 119.671 51.904C119.991 51.712 120.3 51.616 120.599 51.616C120.961 51.616 121.26 51.744 121.495 52C121.751 52.256 121.879 52.5547 121.879 52.896C121.879 53.344 121.665 53.7493 121.239 54.112C120.62 54.7307 119.799 55.2533 118.775 55.68C117.751 56.1067 116.705 56.32 115.639 56.32C113.911 56.32 112.385 55.9573 111.063 55.232C109.761 54.5067 108.748 53.4933 108.023 52.192C107.319 50.8907 106.967 49.4187 106.967 47.776C106.967 45.984 107.329 44.416 108.055 43.072C108.801 41.7067 109.772 40.6613 110.967 39.936C112.183 39.2107 113.484 38.848 114.871 38.848C116.236 38.848 117.516 39.2 118.711 39.904C119.905 40.608 120.865 41.5787 121.591 42.816C122.316 44.0533 122.689 45.44 122.711 46.976ZM114.871 41.664C113.676 41.664 112.641 42.0053 111.767 42.688C110.892 43.3493 110.316 44.384 110.039 45.792H119.479V45.536C119.372 44.4053 118.86 43.4773 117.943 42.752C117.047 42.0267 116.023 41.664 114.871 41.664ZM46.064 73.6C48.0693 73.6 49.7867 74.1013 51.216 75.104C52.6453 76.1067 53.7227 77.4613 54.448 79.168C55.1733 80.8533 55.536 82.7307 55.536 84.8C55.536 86.8907 55.1733 88.7893 54.448 90.496C53.7227 92.1813 52.6453 93.5253 51.216 94.528C49.7867 95.5093 48.0693 96 46.064 96H38.192C37.7653 96 37.4027 95.8507 37.104 95.552C36.8053 95.2533 36.656 94.8907 36.656 94.464V75.136C36.656 74.7093 36.8053 74.3467 37.104 74.048C37.4027 73.7493 37.7653 73.6 38.192 73.6H46.064ZM45.744 93.056C47.92 93.056 49.552 92.288 50.64 90.752C51.728 89.1947 52.272 87.2107 52.272 84.8C52.272 82.4107 51.7173 80.4373 50.608 78.88C49.52 77.3227 47.8987 76.544 45.744 76.544H39.824V93.056H45.744ZM74.1795 86.976C74.1582 87.36 73.9982 87.6907 73.6995 87.968C73.4008 88.224 73.0488 88.352 72.6435 88.352H61.3795C61.5288 89.9093 62.1155 91.1573 63.1395 92.096C64.1848 93.0347 65.4542 93.504 66.9475 93.504C67.9715 93.504 68.8035 93.3547 69.4435 93.056C70.0835 92.7573 70.6488 92.3733 71.1395 91.904C71.4595 91.712 71.7688 91.616 72.0675 91.616C72.4302 91.616 72.7288 91.744 72.9635 92C73.2195 92.256 73.3475 92.5547 73.3475 92.896C73.3475 93.344 73.1342 93.7493 72.7075 94.112C72.0888 94.7307 71.2675 95.2533 70.2435 95.68C69.2195 96.1067 68.1742 96.32 67.1075 96.32C65.3795 96.32 63.8542 95.9573 62.5315 95.232C61.2302 94.5067 60.2168 93.4933 59.4915 92.192C58.7875 90.8907 58.4355 89.4187 58.4355 87.776C58.4355 85.984 58.7982 84.416 59.5235 83.072C60.2702 81.7067 61.2408 80.6613 62.4355 79.936C63.6515 79.2107 64.9528 78.848 66.3395 78.848C67.7048 78.848 68.9848 79.2 70.1795 79.904C71.3742 80.608 72.3342 81.5787 73.0595 82.816C73.7848 84.0533 74.1582 85.44 74.1795 86.976ZM66.3395 81.664C65.1448 81.664 64.1102 82.0053 63.2355 82.688C62.3608 83.3493 61.7848 84.384 61.5075 85.792H70.9475V85.536C70.8408 84.4053 70.3288 83.4773 69.4115 82.752C68.5155 82.0267 67.4915 81.664 66.3395 81.664ZM90.3533 79.072C90.7586 79.072 91.0999 79.2107 91.3773 79.488C91.6546 79.744 91.7933 80.0533 91.7933 80.416C91.7933 80.608 91.7186 80.8747 91.5693 81.216L85.4893 95.04C85.3613 95.3173 85.1799 95.5413 84.9453 95.712C84.7106 95.8827 84.4546 95.9787 84.1773 96C83.8359 96.0427 83.5159 95.9787 83.2173 95.808C82.9399 95.6373 82.7266 95.3813 82.5773 95.04L76.4973 81.216C76.3906 80.896 76.3372 80.6293 76.3372 80.416C76.3372 80.0747 76.4759 79.7653 76.7533 79.488C77.0306 79.2107 77.3933 79.072 77.8413 79.072C78.1613 79.072 78.4493 79.1573 78.7053 79.328C78.9613 79.4773 79.1639 79.712 79.3133 80.032L84.1453 91.264L88.9773 80.032C89.2759 79.392 89.7346 79.072 90.3533 79.072ZM109.648 86.976C109.627 87.36 109.467 87.6907 109.168 87.968C108.87 88.224 108.518 88.352 108.112 88.352H96.8483C96.9976 89.9093 97.5843 91.1573 98.6083 92.096C99.6536 93.0347 100.923 93.504 102.416 93.504C103.44 93.504 104.272 93.3547 104.912 93.056C105.552 92.7573 106.118 92.3733 106.608 91.904C106.928 91.712 107.238 91.616 107.536 91.616C107.899 91.616 108.198 91.744 108.432 92C108.688 92.256 108.816 92.5547 108.816 92.896C108.816 93.344 108.603 93.7493 108.176 94.112C107.558 94.7307 106.736 95.2533 105.712 95.68C104.688 96.1067 103.643 96.32 102.576 96.32C100.848 96.32 99.3229 95.9573 98.0003 95.232C96.6989 94.5067 95.6856 93.4933 94.9603 92.192C94.2563 90.8907 93.9043 89.4187 93.9043 87.776C93.9043 85.984 94.2669 84.416 94.9923 83.072C95.7389 81.7067 96.7096 80.6613 97.9043 79.936C99.1203 79.2107 100.422 78.848 101.808 78.848C103.174 78.848 104.454 79.2 105.648 79.904C106.843 80.608 107.803 81.5787 108.528 82.816C109.254 84.0533 109.627 85.44 109.648 86.976ZM101.808 81.664C100.614 81.664 99.5789 82.0053 98.7043 82.688C97.8296 83.3493 97.2536 84.384 96.9763 85.792H106.416V85.536C106.31 84.4053 105.798 83.4773 104.88 82.752C103.984 82.0267 102.96 81.664 101.808 81.664ZM116.474 94.464C116.474 94.8907 116.325 95.2533 116.026 95.552C115.728 95.8507 115.365 96 114.938 96C114.512 96 114.149 95.8507 113.85 95.552C113.573 95.2533 113.434 94.8907 113.434 94.464V73.856C113.434 73.4293 113.584 73.0667 113.882 72.768C114.181 72.4693 114.544 72.32 114.97 72.32C115.397 72.32 115.749 72.4693 116.026 72.768C116.325 73.0667 116.474 73.4293 116.474 73.856V94.464ZM136.832 87.616C136.832 89.28 136.458 90.7733 135.712 92.096C134.965 93.4187 133.941 94.4533 132.64 95.2C131.36 95.9467 129.941 96.32 128.384 96.32C126.826 96.32 125.397 95.9467 124.096 95.2C122.816 94.4533 121.802 93.4187 121.056 92.096C120.309 90.7733 119.936 89.28 119.936 87.616C119.936 85.952 120.309 84.448 121.056 83.104C121.802 81.76 122.816 80.7147 124.096 79.968C125.397 79.2213 126.826 78.848 128.384 78.848C129.941 78.848 131.36 79.2213 132.64 79.968C133.941 80.7147 134.965 81.76 135.712 83.104C136.458 84.448 136.832 85.952 136.832 87.616ZM133.792 87.616C133.792 86.464 133.546 85.44 133.056 84.544C132.586 83.6267 131.936 82.9227 131.104 82.432C130.293 81.92 129.386 81.664 128.384 81.664C127.381 81.664 126.464 81.92 125.632 82.432C124.821 82.9227 124.17 83.6267 123.68 84.544C123.21 85.44 122.976 86.464 122.976 87.616C122.976 88.7467 123.21 89.76 123.68 90.656C124.17 91.552 124.821 92.256 125.632 92.768C126.464 93.2587 127.381 93.504 128.384 93.504C129.386 93.504 130.293 93.2587 131.104 92.768C131.936 92.256 132.586 91.552 133.056 90.656C133.546 89.76 133.792 88.7467 133.792 87.616ZM148.782 78.944C150.232 78.944 151.544 79.3173 152.718 80.064C153.891 80.7893 154.808 81.8133 155.47 83.136C156.152 84.4587 156.494 85.952 156.494 87.616C156.494 89.28 156.152 90.7733 155.47 92.096C154.808 93.3973 153.891 94.4213 152.718 95.168C151.544 95.9147 150.254 96.288 148.846 96.288C147.736 96.288 146.702 96.0427 145.742 95.552C144.782 95.0613 144.003 94.464 143.406 93.76V100.864C143.406 101.291 143.256 101.653 142.958 101.952C142.68 102.251 142.318 102.4 141.87 102.4C141.443 102.4 141.08 102.251 140.782 101.952C140.504 101.675 140.366 101.312 140.366 100.864V80.736C140.366 80.288 140.504 79.9147 140.782 79.616C141.059 79.3173 141.422 79.168 141.87 79.168C142.318 79.168 142.68 79.3173 142.958 79.616C143.256 79.9147 143.406 80.288 143.406 80.736V81.664C143.918 80.9173 144.664 80.2773 145.646 79.744C146.627 79.2107 147.672 78.944 148.782 78.944ZM148.43 93.472C149.411 93.472 150.296 93.216 151.086 92.704C151.875 92.192 152.483 91.4987 152.91 90.624C153.358 89.728 153.582 88.7253 153.582 87.616C153.582 86.5067 153.358 85.5147 152.91 84.64C152.483 83.744 151.875 83.04 151.086 82.528C150.296 82.016 149.411 81.76 148.43 81.76C147.427 81.76 146.531 82.016 145.742 82.528C144.952 83.0187 144.334 83.712 143.886 84.608C143.459 85.504 143.246 86.5067 143.246 87.616C143.246 88.7253 143.459 89.728 143.886 90.624C144.334 91.52 144.952 92.224 145.742 92.736C146.531 93.2267 147.427 93.472 148.43 93.472ZM179.254 78.944C182.987 78.944 184.854 81.2693 184.854 85.92V94.464C184.854 94.912 184.715 95.2853 184.438 95.584C184.161 95.8613 183.798 96 183.35 96C182.902 96 182.529 95.8507 182.23 95.552C181.953 95.2533 181.814 94.8907 181.814 94.464V85.952C181.814 83.1573 180.641 81.76 178.294 81.76C177.462 81.76 176.705 81.952 176.022 82.336C175.361 82.6987 174.838 83.2 174.454 83.84C174.091 84.48 173.91 85.184 173.91 85.952V94.464C173.91 94.8907 173.761 95.2533 173.462 95.552C173.185 95.8507 172.822 96 172.374 96C171.926 96 171.563 95.8613 171.286 95.584C171.009 95.2853 170.87 94.912 170.87 94.464V85.92C170.87 84.6613 170.603 83.6587 170.07 82.912C169.537 82.144 168.651 81.76 167.414 81.76C166.155 81.76 165.11 82.1653 164.278 82.976C163.467 83.7653 163.062 84.7467 163.062 85.92V94.464C163.062 94.8907 162.913 95.2533 162.614 95.552C162.337 95.8507 161.974 96 161.526 96C161.078 96 160.715 95.8613 160.438 95.584C160.161 95.2853 160.022 94.912 160.022 94.464V80.768C160.022 80.3413 160.161 79.9787 160.438 79.68C160.737 79.3813 161.099 79.232 161.526 79.232C161.974 79.232 162.337 79.3813 162.614 79.68C162.913 79.9787 163.062 80.3413 163.062 80.768V81.888C163.617 81.056 164.353 80.3627 165.27 79.808C166.209 79.232 167.222 78.944 168.31 78.944C170.955 78.944 172.673 80.1173 173.462 82.464C173.931 81.568 174.71 80.7573 175.798 80.032C176.886 79.3067 178.038 78.944 179.254 78.944ZM204.117 86.976C204.096 87.36 203.936 87.6907 203.637 87.968C203.338 88.224 202.986 88.352 202.581 88.352H191.317C191.466 89.9093 192.053 91.1573 193.077 92.096C194.122 93.0347 195.392 93.504 196.885 93.504C197.909 93.504 198.741 93.3547 199.381 93.056C200.021 92.7573 200.586 92.3733 201.077 91.904C201.397 91.712 201.706 91.616 202.005 91.616C202.368 91.616 202.666 91.744 202.901 92C203.157 92.256 203.285 92.5547 203.285 92.896C203.285 93.344 203.072 93.7493 202.645 94.112C202.026 94.7307 201.205 95.2533 200.181 95.68C199.157 96.1067 198.112 96.32 197.045 96.32C195.317 96.32 193.792 95.9573 192.469 95.232C191.168 94.5067 190.154 93.4933 189.429 92.192C188.725 90.8907 188.373 89.4187 188.373 87.776C188.373 85.984 188.736 84.416 189.461 83.072C190.208 81.7067 191.178 80.6613 192.373 79.936C193.589 79.2107 194.89 78.848 196.277 78.848C197.642 78.848 198.922 79.2 200.117 79.904C201.312 80.608 202.272 81.5787 202.997 82.816C203.722 84.0533 204.096 85.44 204.117 86.976ZM196.277 81.664C195.082 81.664 194.048 82.0053 193.173 82.688C192.298 83.3493 191.722 84.384 191.445 85.792H200.885V85.536C200.778 84.4053 200.266 83.4773 199.349 82.752C198.453 82.0267 197.429 81.664 196.277 81.664ZM216.191 78.848C220.031 78.848 221.951 81.152 221.951 85.76V94.464C221.951 94.8907 221.802 95.2533 221.503 95.552C221.226 95.8507 220.863 96 220.415 96C219.988 96 219.626 95.8507 219.327 95.552C219.05 95.2533 218.911 94.8907 218.911 94.464V85.792C218.911 84.5333 218.623 83.5307 218.047 82.784C217.471 82.0373 216.532 81.664 215.231 81.664C214.378 81.664 213.599 81.856 212.895 82.24C212.212 82.6027 211.668 83.104 211.263 83.744C210.879 84.3627 210.687 85.0453 210.687 85.792V94.464C210.687 94.8907 210.538 95.2533 210.239 95.552C209.962 95.8507 209.599 96 209.151 96C208.703 96 208.34 95.8613 208.063 95.584C207.786 95.2853 207.647 94.912 207.647 94.464V80.768C207.647 80.3413 207.786 79.9787 208.063 79.68C208.362 79.3813 208.724 79.232 209.151 79.232C209.599 79.232 209.962 79.3813 210.239 79.68C210.538 79.9787 210.687 80.3413 210.687 80.768V81.888C211.242 81.0347 212.01 80.32 212.991 79.744C213.994 79.1467 215.06 78.848 216.191 78.848ZM231.035 82.208V91.744C231.035 92.8107 231.515 93.344 232.475 93.344C232.624 93.344 232.827 93.312 233.083 93.248C233.339 93.1627 233.541 93.12 233.691 93.12C233.968 93.12 234.203 93.2373 234.395 93.472C234.587 93.7067 234.683 94.0053 234.683 94.368C234.683 94.816 234.427 95.2 233.915 95.52C233.403 95.84 232.827 96 232.187 96C231.483 96 230.832 95.9253 230.235 95.776C229.659 95.6267 229.136 95.2533 228.667 94.656C228.219 94.0373 227.995 93.1093 227.995 91.872V82.208H226.139C225.733 82.208 225.392 82.08 225.115 81.824C224.859 81.5467 224.731 81.2053 224.731 80.8C224.731 80.3947 224.859 80.064 225.115 79.808C225.392 79.552 225.733 79.424 226.139 79.424H227.995V76.736C227.995 76.3093 228.133 75.9467 228.411 75.648C228.709 75.3493 229.083 75.2 229.531 75.2C229.957 75.2 230.309 75.3493 230.587 75.648C230.885 75.9467 231.035 76.3093 231.035 76.736V79.424H233.691C234.096 79.424 234.427 79.5627 234.683 79.84C234.96 80.096 235.099 80.4267 235.099 80.832C235.099 81.2373 234.96 81.568 234.683 81.824C234.427 82.08 234.096 82.208 233.691 82.208H231.035Z" fill="white"/>
<path d="M38.356 119.6C38.78 119.6 39.172 119.716 39.532 119.948C39.892 120.172 40.176 120.48 40.384 120.872C40.6 121.264 40.708 121.696 40.708 122.168C40.708 122.64 40.6 123.076 40.384 123.476C40.176 123.876 39.892 124.192 39.532 124.424C39.172 124.656 38.78 124.772 38.356 124.772H36.1V127.424C36.1 127.584 36.048 127.72 35.944 127.832C35.84 127.944 35.708 128 35.548 128C35.38 128 35.244 127.948 35.14 127.844C35.044 127.732 34.996 127.592 34.996 127.424V120.176C34.996 120.016 35.052 119.88 35.164 119.768C35.276 119.656 35.412 119.6 35.572 119.6H38.356ZM38.356 123.68C38.572 123.68 38.772 123.612 38.956 123.476C39.14 123.332 39.284 123.144 39.388 122.912C39.5 122.68 39.556 122.432 39.556 122.168C39.556 121.76 39.436 121.416 39.196 121.136C38.964 120.848 38.684 120.704 38.356 120.704H36.1V123.68H38.356ZM47.4501 124.616C47.4421 124.76 47.3821 124.884 47.2701 124.988C47.1581 125.084 47.0261 125.132 46.8741 125.132H42.6501C42.7061 125.716 42.9261 126.184 43.3101 126.536C43.7021 126.888 44.1781 127.064 44.7381 127.064C45.1221 127.064 45.4341 127.008 45.6741 126.896C45.9141 126.784 46.1261 126.64 46.3101 126.464C46.4301 126.392 46.5461 126.356 46.6581 126.356C46.7941 126.356 46.9061 126.404 46.9941 126.5C47.0901 126.596 47.1381 126.708 47.1381 126.836C47.1381 127.004 47.0581 127.156 46.8981 127.292C46.6661 127.524 46.3581 127.72 45.9741 127.88C45.5901 128.04 45.1981 128.12 44.7981 128.12C44.1501 128.12 43.5781 127.984 43.0821 127.712C42.5941 127.44 42.2141 127.06 41.9421 126.572C41.6781 126.084 41.5461 125.532 41.5461 124.916C41.5461 124.244 41.6821 123.656 41.9541 123.152C42.2341 122.64 42.5981 122.248 43.0461 121.976C43.5021 121.704 43.9901 121.568 44.5101 121.568C45.0221 121.568 45.5021 121.7 45.9501 121.964C46.3981 122.228 46.7581 122.592 47.0301 123.056C47.3021 123.52 47.4421 124.04 47.4501 124.616ZM44.5101 122.624C44.0621 122.624 43.6741 122.752 43.3461 123.008C43.0181 123.256 42.8021 123.644 42.6981 124.172H46.2381V124.076C46.1981 123.652 46.0061 123.304 45.6621 123.032C45.3261 122.76 44.9421 122.624 44.5101 122.624ZM50.0099 127.424C50.0099 127.584 49.9539 127.72 49.8419 127.832C49.7299 127.944 49.5939 128 49.4339 128C49.2739 128 49.1379 127.944 49.0259 127.832C48.9219 127.72 48.8699 127.584 48.8699 127.424V119.696C48.8699 119.536 48.9259 119.4 49.0379 119.288C49.1499 119.176 49.2859 119.12 49.4459 119.12C49.6059 119.12 49.7379 119.176 49.8419 119.288C49.9539 119.4 50.0099 119.536 50.0099 119.696V127.424ZM56.909 121.628C57.077 121.628 57.213 121.684 57.317 121.796C57.429 121.9 57.485 122.04 57.485 122.216V127.424C57.485 127.584 57.429 127.72 57.317 127.832C57.213 127.944 57.077 128 56.909 128C56.741 128 56.605 127.948 56.501 127.844C56.397 127.732 56.345 127.592 56.345 127.424V127.112C56.137 127.392 55.853 127.632 55.493 127.832C55.133 128.024 54.745 128.12 54.329 128.12C53.785 128.12 53.289 127.98 52.841 127.7C52.401 127.42 52.053 127.032 51.797 126.536C51.549 126.032 51.425 125.468 51.425 124.844C51.425 124.22 51.549 123.66 51.797 123.164C52.053 122.66 52.401 122.268 52.841 121.988C53.281 121.708 53.765 121.568 54.293 121.568C54.717 121.568 55.109 121.656 55.469 121.832C55.837 122.008 56.129 122.232 56.345 122.504V122.216C56.345 122.048 56.397 121.908 56.501 121.796C56.605 121.684 56.741 121.628 56.909 121.628ZM54.461 127.064C54.837 127.064 55.169 126.968 55.457 126.776C55.753 126.584 55.981 126.32 56.141 125.984C56.309 125.648 56.393 125.268 56.393 124.844C56.393 124.428 56.309 124.052 56.141 123.716C55.981 123.38 55.753 123.116 55.457 122.924C55.169 122.724 54.837 122.624 54.461 122.624C54.085 122.624 53.749 122.72 53.453 122.912C53.165 123.104 52.937 123.368 52.769 123.704C52.609 124.04 52.529 124.42 52.529 124.844C52.529 125.268 52.609 125.648 52.769 125.984C52.937 126.32 53.165 126.584 53.453 126.776C53.749 126.968 54.085 127.064 54.461 127.064ZM58.6161 130.364C58.4641 130.364 58.3401 130.312 58.2441 130.208C58.1401 130.104 58.0881 129.98 58.0881 129.836V129.728C58.0881 129.464 58.2521 129.292 58.5801 129.212C59.0921 129.068 59.3481 128.668 59.3481 128.012V122.288C59.3481 122.128 59.4001 121.992 59.5041 121.88C59.6161 121.768 59.7561 121.712 59.9241 121.712C60.0841 121.712 60.2161 121.768 60.3201 121.88C60.4321 121.992 60.4881 122.128 60.4881 122.288V128.3C60.4881 128.716 60.4001 129.08 60.2241 129.392C60.0561 129.704 59.8281 129.944 59.5401 130.112C59.2521 130.28 58.9441 130.364 58.6161 130.364ZM59.9121 120.86C59.6801 120.86 59.5121 120.82 59.4081 120.74C59.3121 120.652 59.2641 120.516 59.2641 120.332V120.14C59.2641 119.948 59.3161 119.812 59.4201 119.732C59.5321 119.652 59.7001 119.612 59.9241 119.612C60.1481 119.612 60.3081 119.656 60.4041 119.744C60.5081 119.824 60.5601 119.956 60.5601 120.14V120.332C60.5601 120.524 60.5081 120.66 60.4041 120.74C60.3001 120.82 60.1361 120.86 59.9121 120.86ZM67.5614 121.628C67.7294 121.628 67.8654 121.684 67.9694 121.796C68.0814 121.9 68.1374 122.04 68.1374 122.216V127.424C68.1374 127.584 68.0814 127.72 67.9694 127.832C67.8654 127.944 67.7294 128 67.5614 128C67.3934 128 67.2574 127.948 67.1534 127.844C67.0494 127.732 66.9974 127.592 66.9974 127.424V127.112C66.7894 127.392 66.5054 127.632 66.1454 127.832C65.7854 128.024 65.3974 128.12 64.9814 128.12C64.4374 128.12 63.9414 127.98 63.4934 127.7C63.0534 127.42 62.7054 127.032 62.4494 126.536C62.2014 126.032 62.0774 125.468 62.0774 124.844C62.0774 124.22 62.2014 123.66 62.4494 123.164C62.7054 122.66 63.0534 122.268 63.4934 121.988C63.9334 121.708 64.4174 121.568 64.9454 121.568C65.3694 121.568 65.7614 121.656 66.1214 121.832C66.4894 122.008 66.7814 122.232 66.9974 122.504V122.216C66.9974 122.048 67.0494 121.908 67.1534 121.796C67.2574 121.684 67.3934 121.628 67.5614 121.628ZM65.1134 127.064C65.4894 127.064 65.8214 126.968 66.1094 126.776C66.4054 126.584 66.6334 126.32 66.7934 125.984C66.9614 125.648 67.0454 125.268 67.0454 124.844C67.0454 124.428 66.9614 124.052 66.7934 123.716C66.6334 123.38 66.4054 123.116 66.1094 122.924C65.8214 122.724 65.4894 122.624 65.1134 122.624C64.7374 122.624 64.4014 122.72 64.1054 122.912C63.8174 123.104 63.5894 123.368 63.4214 123.704C63.2614 124.04 63.1814 124.42 63.1814 124.844C63.1814 125.268 63.2614 125.648 63.4214 125.984C63.5894 126.32 63.8174 126.584 64.1054 126.776C64.4014 126.968 64.7374 127.064 65.1134 127.064ZM72.9645 121.568C73.1725 121.568 73.3525 121.624 73.5045 121.736C73.6565 121.84 73.7325 121.972 73.7325 122.132C73.7325 122.324 73.6805 122.472 73.5765 122.576C73.4805 122.672 73.3605 122.72 73.2165 122.72C73.1445 122.72 73.0365 122.696 72.8925 122.648C72.7245 122.592 72.5925 122.564 72.4965 122.564C72.2485 122.564 72.0045 122.652 71.7645 122.828C71.5325 122.996 71.3405 123.232 71.1885 123.536C71.0445 123.832 70.9725 124.164 70.9725 124.532V127.424C70.9725 127.584 70.9165 127.72 70.8045 127.832C70.7005 127.944 70.5645 128 70.3965 128C70.2285 128 70.0925 127.948 69.9885 127.844C69.8845 127.732 69.8325 127.592 69.8325 127.424V122.288C69.8325 122.128 69.8845 121.992 69.9885 121.88C70.1005 121.768 70.2365 121.712 70.3965 121.712C70.5645 121.712 70.7005 121.768 70.8045 121.88C70.9165 121.992 70.9725 122.128 70.9725 122.288V122.9C71.1485 122.508 71.4125 122.192 71.7645 121.952C72.1165 121.704 72.5165 121.576 72.9645 121.568ZM75.8695 127.424C75.8695 127.584 75.8135 127.72 75.7015 127.832C75.5975 127.944 75.4615 128 75.2935 128C75.1335 128 74.9975 127.944 74.8855 127.832C74.7815 127.72 74.7295 127.584 74.7295 127.424V122.228C74.7295 122.068 74.7815 121.932 74.8855 121.82C74.9975 121.708 75.1335 121.652 75.2935 121.652C75.4615 121.652 75.5975 121.708 75.7015 121.82C75.8135 121.932 75.8695 122.068 75.8695 122.228V127.424ZM75.2935 120.86C75.0615 120.86 74.8935 120.82 74.7895 120.74C74.6935 120.652 74.6455 120.516 74.6455 120.332V120.14C74.6455 119.948 74.6975 119.812 74.8015 119.732C74.9135 119.652 75.0815 119.612 75.3055 119.612C75.5295 119.612 75.6895 119.656 75.7855 119.744C75.8895 119.824 75.9415 119.956 75.9415 120.14V120.332C75.9415 120.524 75.8895 120.66 75.7855 120.74C75.6815 120.82 75.5175 120.86 75.2935 120.86ZM83.5724 121.568C84.2044 121.568 84.7284 121.668 85.1444 121.868C85.5684 122.068 85.7804 122.324 85.7804 122.636C85.7804 122.772 85.7364 122.896 85.6484 123.008C85.5604 123.112 85.4484 123.164 85.3124 123.164C85.2084 123.164 85.1244 123.148 85.0604 123.116C85.0044 123.084 84.9244 123.032 84.8204 122.96C84.7724 122.912 84.6964 122.856 84.5924 122.792C84.4964 122.744 84.3604 122.704 84.1844 122.672C84.0084 122.64 83.8484 122.624 83.7044 122.624C83.2884 122.624 82.9204 122.72 82.6004 122.912C82.2804 123.104 82.0324 123.372 81.8564 123.716C81.6804 124.052 81.5924 124.428 81.5924 124.844C81.5924 125.268 81.6764 125.648 81.8444 125.984C82.0204 126.32 82.2644 126.584 82.5764 126.776C82.8884 126.968 83.2444 127.064 83.6444 127.064C84.0604 127.064 84.3964 127 84.6524 126.872C84.7084 126.84 84.7844 126.788 84.8804 126.716C84.9604 126.652 85.0284 126.604 85.0844 126.572C85.1484 126.54 85.2244 126.524 85.3124 126.524C85.4724 126.524 85.5964 126.576 85.6844 126.68C85.7804 126.776 85.8284 126.904 85.8284 127.064C85.8284 127.232 85.7204 127.4 85.5044 127.568C85.2964 127.728 85.0124 127.86 84.6524 127.964C84.3004 128.068 83.9204 128.12 83.5124 128.12C82.9044 128.12 82.3684 127.98 81.9044 127.7C81.4404 127.412 81.0804 127.02 80.8244 126.524C80.5764 126.02 80.4524 125.46 80.4524 124.844C80.4524 124.228 80.5844 123.672 80.8484 123.176C81.1124 122.672 81.4804 122.28 81.9524 122C82.4244 121.712 82.9644 121.568 83.5724 121.568ZM92.1004 121.628C92.2684 121.628 92.4044 121.684 92.5084 121.796C92.6204 121.9 92.6764 122.04 92.6764 122.216V127.424C92.6764 127.584 92.6204 127.72 92.5084 127.832C92.4044 127.944 92.2684 128 92.1004 128C91.9324 128 91.7964 127.948 91.6924 127.844C91.5884 127.732 91.5364 127.592 91.5364 127.424V127.112C91.3284 127.392 91.0444 127.632 90.6844 127.832C90.3244 128.024 89.9364 128.12 89.5204 128.12C88.9764 128.12 88.4804 127.98 88.0324 127.7C87.5924 127.42 87.2444 127.032 86.9884 126.536C86.7404 126.032 86.6164 125.468 86.6164 124.844C86.6164 124.22 86.7404 123.66 86.9884 123.164C87.2444 122.66 87.5924 122.268 88.0324 121.988C88.4724 121.708 88.9564 121.568 89.4844 121.568C89.9084 121.568 90.3004 121.656 90.6604 121.832C91.0284 122.008 91.3204 122.232 91.5364 122.504V122.216C91.5364 122.048 91.5884 121.908 91.6924 121.796C91.7964 121.684 91.9324 121.628 92.1004 121.628ZM89.6524 127.064C90.0284 127.064 90.3604 126.968 90.6484 126.776C90.9444 126.584 91.1724 126.32 91.3324 125.984C91.5004 125.648 91.5844 125.268 91.5844 124.844C91.5844 124.428 91.5004 124.052 91.3324 123.716C91.1724 123.38 90.9444 123.116 90.6484 122.924C90.3604 122.724 90.0284 122.624 89.6524 122.624C89.2764 122.624 88.9404 122.72 88.6444 122.912C88.3564 123.104 88.1284 123.368 87.9604 123.704C87.8004 124.04 87.7204 124.42 87.7204 124.844C87.7204 125.268 87.8004 125.648 87.9604 125.984C88.1284 126.32 88.3564 126.584 88.6444 126.776C88.9404 126.968 89.2764 127.064 89.6524 127.064ZM97.5035 121.568C97.7115 121.568 97.8915 121.624 98.0435 121.736C98.1955 121.84 98.2715 121.972 98.2715 122.132C98.2715 122.324 98.2195 122.472 98.1155 122.576C98.0195 122.672 97.8995 122.72 97.7555 122.72C97.6835 122.72 97.5755 122.696 97.4315 122.648C97.2635 122.592 97.1315 122.564 97.0355 122.564C96.7875 122.564 96.5435 122.652 96.3035 122.828C96.0715 122.996 95.8795 123.232 95.7275 123.536C95.5835 123.832 95.5115 124.164 95.5115 124.532V127.424C95.5115 127.584 95.4555 127.72 95.3435 127.832C95.2395 127.944 95.1035 128 94.9355 128C94.7675 128 94.6315 127.948 94.5275 127.844C94.4235 127.732 94.3715 127.592 94.3715 127.424V122.288C94.3715 122.128 94.4235 121.992 94.5275 121.88C94.6395 121.768 94.7755 121.712 94.9355 121.712C95.1035 121.712 95.2395 121.768 95.3435 121.88C95.4555 121.992 95.5115 122.128 95.5115 122.288V122.9C95.6875 122.508 95.9515 122.192 96.3035 121.952C96.6555 121.704 97.0555 121.576 97.5035 121.568ZM104.288 121.628C104.456 121.628 104.592 121.684 104.696 121.796C104.808 121.9 104.864 122.04 104.864 122.216V127.424C104.864 127.584 104.808 127.72 104.696 127.832C104.592 127.944 104.456 128 104.288 128C104.12 128 103.984 127.948 103.88 127.844C103.776 127.732 103.724 127.592 103.724 127.424V127.112C103.516 127.392 103.232 127.632 102.872 127.832C102.512 128.024 102.124 128.12 101.708 128.12C101.164 128.12 100.668 127.98 100.22 127.7C99.7799 127.42 99.4319 127.032 99.1759 126.536C98.9279 126.032 98.8039 125.468 98.8039 124.844C98.8039 124.22 98.9279 123.66 99.1759 123.164C99.4319 122.66 99.7799 122.268 100.22 121.988C100.66 121.708 101.144 121.568 101.672 121.568C102.096 121.568 102.488 121.656 102.848 121.832C103.216 122.008 103.508 122.232 103.724 122.504V122.216C103.724 122.048 103.776 121.908 103.88 121.796C103.984 121.684 104.12 121.628 104.288 121.628ZM101.84 127.064C102.216 127.064 102.548 126.968 102.836 126.776C103.132 126.584 103.36 126.32 103.52 125.984C103.688 125.648 103.772 125.268 103.772 124.844C103.772 124.428 103.688 124.052 103.52 123.716C103.36 123.38 103.132 123.116 102.836 122.924C102.548 122.724 102.216 122.624 101.84 122.624C101.464 122.624 101.128 122.72 100.832 122.912C100.544 123.104 100.316 123.368 100.148 123.704C99.9879 124.04 99.9079 124.42 99.9079 124.844C99.9079 125.268 99.9879 125.648 100.148 125.984C100.316 126.32 100.544 126.584 100.832 126.776C101.128 126.968 101.464 127.064 101.84 127.064ZM117.099 121.604C118.499 121.604 119.199 122.476 119.199 124.22V127.424C119.199 127.592 119.147 127.732 119.043 127.844C118.939 127.948 118.803 128 118.635 128C118.467 128 118.327 127.944 118.215 127.832C118.111 127.72 118.059 127.584 118.059 127.424V124.232C118.059 123.184 117.619 122.66 116.739 122.66C116.427 122.66 116.143 122.732 115.887 122.876C115.639 123.012 115.443 123.2 115.299 123.44C115.163 123.68 115.095 123.944 115.095 124.232V127.424C115.095 127.584 115.039 127.72 114.927 127.832C114.823 127.944 114.687 128 114.519 128C114.351 128 114.215 127.948 114.111 127.844C114.007 127.732 113.955 127.592 113.955 127.424V124.22C113.955 123.748 113.855 123.372 113.655 123.092C113.455 122.804 113.123 122.66 112.659 122.66C112.187 122.66 111.795 122.812 111.483 123.116C111.179 123.412 111.027 123.78 111.027 124.22V127.424C111.027 127.584 110.971 127.72 110.859 127.832C110.755 127.944 110.619 128 110.451 128C110.283 128 110.147 127.948 110.043 127.844C109.939 127.732 109.887 127.592 109.887 127.424V122.288C109.887 122.128 109.939 121.992 110.043 121.88C110.155 121.768 110.291 121.712 110.451 121.712C110.619 121.712 110.755 121.768 110.859 121.88C110.971 121.992 111.027 122.128 111.027 122.288V122.708C111.235 122.396 111.511 122.136 111.855 121.928C112.207 121.712 112.587 121.604 112.995 121.604C113.987 121.604 114.631 122.044 114.927 122.924C115.103 122.588 115.395 122.284 115.803 122.012C116.211 121.74 116.643 121.604 117.099 121.604ZM126.423 124.616C126.415 124.76 126.355 124.884 126.243 124.988C126.131 125.084 125.999 125.132 125.847 125.132H121.623C121.679 125.716 121.899 126.184 122.283 126.536C122.675 126.888 123.151 127.064 123.711 127.064C124.095 127.064 124.407 127.008 124.647 126.896C124.887 126.784 125.099 126.64 125.283 126.464C125.403 126.392 125.519 126.356 125.631 126.356C125.767 126.356 125.879 126.404 125.967 126.5C126.063 126.596 126.111 126.708 126.111 126.836C126.111 127.004 126.031 127.156 125.871 127.292C125.639 127.524 125.331 127.72 124.947 127.88C124.563 128.04 124.171 128.12 123.771 128.12C123.123 128.12 122.551 127.984 122.055 127.712C121.567 127.44 121.187 127.06 120.915 126.572C120.651 126.084 120.519 125.532 120.519 124.916C120.519 124.244 120.655 123.656 120.927 123.152C121.207 122.64 121.571 122.248 122.019 121.976C122.475 121.704 122.963 121.568 123.483 121.568C123.995 121.568 124.475 121.7 124.923 121.964C125.371 122.228 125.731 122.592 126.003 123.056C126.275 123.52 126.415 124.04 126.423 124.616ZM123.483 122.624C123.035 122.624 122.647 122.752 122.319 123.008C121.991 123.256 121.775 123.644 121.671 124.172H125.211V124.076C125.171 123.652 124.979 123.304 124.635 123.032C124.299 122.76 123.915 122.624 123.483 122.624ZM134.959 121.604C136.359 121.604 137.059 122.476 137.059 124.22V127.424C137.059 127.592 137.007 127.732 136.903 127.844C136.799 127.948 136.663 128 136.495 128C136.327 128 136.187 127.944 136.075 127.832C135.971 127.72 135.919 127.584 135.919 127.424V124.232C135.919 123.184 135.479 122.66 134.599 122.66C134.287 122.66 134.003 122.732 133.747 122.876C133.499 123.012 133.303 123.2 133.159 123.44C133.023 123.68 132.955 123.944 132.955 124.232V127.424C132.955 127.584 132.899 127.72 132.787 127.832C132.683 127.944 132.547 128 132.379 128C132.211 128 132.075 127.948 131.971 127.844C131.867 127.732 131.815 127.592 131.815 127.424V124.22C131.815 123.748 131.715 123.372 131.515 123.092C131.315 122.804 130.983 122.66 130.519 122.66C130.047 122.66 129.655 122.812 129.343 123.116C129.039 123.412 128.887 123.78 128.887 124.22V127.424C128.887 127.584 128.831 127.72 128.719 127.832C128.615 127.944 128.479 128 128.311 128C128.143 128 128.007 127.948 127.903 127.844C127.799 127.732 127.747 127.592 127.747 127.424V122.288C127.747 122.128 127.799 121.992 127.903 121.88C128.015 121.768 128.151 121.712 128.311 121.712C128.479 121.712 128.615 121.768 128.719 121.88C128.831 121.992 128.887 122.128 128.887 122.288V122.708C129.095 122.396 129.371 122.136 129.715 121.928C130.067 121.712 130.447 121.604 130.855 121.604C131.847 121.604 132.491 122.044 132.787 122.924C132.963 122.588 133.255 122.284 133.663 122.012C134.071 121.74 134.503 121.604 134.959 121.604ZM141.918 121.568C142.462 121.568 142.954 121.708 143.394 121.988C143.834 122.268 144.178 122.656 144.426 123.152C144.682 123.648 144.81 124.208 144.81 124.832C144.81 125.456 144.682 126.02 144.426 126.524C144.178 127.028 143.834 127.42 143.394 127.7C142.954 127.98 142.47 128.12 141.942 128.12C141.526 128.12 141.138 128.028 140.778 127.844C140.418 127.66 140.126 127.432 139.902 127.16V127.508C139.902 127.668 139.846 127.804 139.734 127.916C139.63 128.028 139.494 128.084 139.326 128.084C139.166 128.084 139.03 128.032 138.918 127.928C138.814 127.816 138.762 127.676 138.762 127.508V119.696C138.762 119.528 138.814 119.392 138.918 119.288C139.022 119.176 139.158 119.12 139.326 119.12C139.494 119.12 139.63 119.176 139.734 119.288C139.846 119.4 139.902 119.536 139.902 119.696V122.624C140.094 122.336 140.374 122.088 140.742 121.88C141.11 121.672 141.502 121.568 141.918 121.568ZM141.786 127.064C142.154 127.064 142.486 126.968 142.782 126.776C143.078 126.576 143.306 126.308 143.466 125.972C143.634 125.628 143.718 125.248 143.718 124.832C143.718 124.416 143.634 124.04 143.466 123.704C143.306 123.368 143.078 123.104 142.782 122.912C142.486 122.72 142.154 122.624 141.786 122.624C141.41 122.624 141.074 122.72 140.778 122.912C140.482 123.104 140.25 123.368 140.082 123.704C139.922 124.032 139.842 124.408 139.842 124.832C139.842 125.256 139.922 125.636 140.082 125.972C140.25 126.308 140.482 126.576 140.778 126.776C141.074 126.968 141.41 127.064 141.786 127.064ZM150.813 121.712C150.981 121.712 151.117 121.768 151.221 121.88C151.333 121.992 151.389 122.128 151.389 122.288V125.48C151.389 126.312 151.157 126.96 150.693 127.424C150.237 127.88 149.589 128.108 148.749 128.108C147.917 128.108 147.273 127.88 146.817 127.424C146.361 126.96 146.133 126.312 146.133 125.48V122.288C146.133 122.128 146.185 121.992 146.289 121.88C146.401 121.768 146.537 121.712 146.697 121.712C146.865 121.712 147.001 121.768 147.105 121.88C147.217 121.992 147.273 122.128 147.273 122.288V125.48C147.273 126.528 147.765 127.052 148.749 127.052C149.237 127.052 149.609 126.92 149.865 126.656C150.121 126.392 150.249 126 150.249 125.48V122.288C150.249 122.128 150.301 121.992 150.405 121.88C150.517 121.768 150.653 121.712 150.813 121.712ZM158.194 121.628C158.362 121.628 158.498 121.684 158.602 121.796C158.714 121.9 158.77 122.04 158.77 122.216V127.424C158.77 127.584 158.714 127.72 158.602 127.832C158.498 127.944 158.362 128 158.194 128C158.026 128 157.89 127.948 157.786 127.844C157.682 127.732 157.63 127.592 157.63 127.424V127.112C157.422 127.392 157.138 127.632 156.778 127.832C156.418 128.024 156.03 128.12 155.614 128.12C155.07 128.12 154.574 127.98 154.126 127.7C153.686 127.42 153.338 127.032 153.082 126.536C152.834 126.032 152.71 125.468 152.71 124.844C152.71 124.22 152.834 123.66 153.082 123.164C153.338 122.66 153.686 122.268 154.126 121.988C154.566 121.708 155.05 121.568 155.578 121.568C156.002 121.568 156.394 121.656 156.754 121.832C157.122 122.008 157.414 122.232 157.63 122.504V122.216C157.63 122.048 157.682 121.908 157.786 121.796C157.89 121.684 158.026 121.628 158.194 121.628ZM155.746 127.064C156.122 127.064 156.454 126.968 156.742 126.776C157.038 126.584 157.266 126.32 157.426 125.984C157.594 125.648 157.678 125.268 157.678 124.844C157.678 124.428 157.594 124.052 157.426 123.716C157.266 123.38 157.038 123.116 156.742 122.924C156.454 122.724 156.122 122.624 155.746 122.624C155.37 122.624 155.034 122.72 154.738 122.912C154.45 123.104 154.222 123.368 154.054 123.704C153.894 124.04 153.814 124.42 153.814 124.844C153.814 125.268 153.894 125.648 154.054 125.984C154.222 126.32 154.45 126.584 154.738 126.776C155.034 126.968 155.37 127.064 155.746 127.064ZM162.169 122.828V126.404C162.169 126.804 162.349 127.004 162.709 127.004C162.765 127.004 162.841 126.992 162.937 126.968C163.033 126.936 163.109 126.92 163.165 126.92C163.269 126.92 163.357 126.964 163.429 127.052C163.501 127.14 163.537 127.252 163.537 127.388C163.537 127.556 163.441 127.7 163.249 127.82C163.057 127.94 162.841 128 162.601 128C162.337 128 162.093 127.972 161.869 127.916C161.653 127.86 161.457 127.72 161.281 127.496C161.113 127.264 161.029 126.916 161.029 126.452V122.828H160.333C160.181 122.828 160.053 122.78 159.949 122.684C159.853 122.58 159.805 122.452 159.805 122.3C159.805 122.148 159.853 122.024 159.949 121.928C160.053 121.832 160.181 121.784 160.333 121.784H161.029V120.776C161.029 120.616 161.081 120.48 161.185 120.368C161.297 120.256 161.437 120.2 161.605 120.2C161.765 120.2 161.897 120.256 162.001 120.368C162.113 120.48 162.169 120.616 162.169 120.776V121.784H163.165C163.317 121.784 163.441 121.836 163.537 121.94C163.641 122.036 163.693 122.16 163.693 122.312C163.693 122.464 163.641 122.588 163.537 122.684C163.441 122.78 163.317 122.828 163.165 122.828H162.169ZM173.452 119.12C173.62 119.12 173.756 119.176 173.86 119.288C173.972 119.392 174.028 119.528 174.028 119.696V127.424C174.028 127.584 173.972 127.72 173.86 127.832C173.756 127.944 173.62 128 173.452 128C173.284 128 173.148 127.948 173.044 127.844C172.94 127.732 172.888 127.592 172.888 127.424V127.088C172.688 127.376 172.404 127.62 172.036 127.82C171.676 128.02 171.288 128.12 170.872 128.12C170.328 128.12 169.836 127.98 169.396 127.7C168.956 127.42 168.608 127.032 168.352 126.536C168.096 126.032 167.968 125.468 167.968 124.844C167.968 124.22 168.092 123.66 168.34 123.164C168.596 122.66 168.944 122.268 169.384 121.988C169.824 121.708 170.308 121.568 170.836 121.568C171.26 121.568 171.652 121.656 172.012 121.832C172.372 122.008 172.664 122.236 172.888 122.516V119.696C172.888 119.528 172.94 119.392 173.044 119.288C173.148 119.176 173.284 119.12 173.452 119.12ZM171.004 127.064C171.38 127.064 171.712 126.968 172 126.776C172.296 126.584 172.524 126.32 172.684 125.984C172.852 125.648 172.936 125.268 172.936 124.844C172.936 124.428 172.852 124.052 172.684 123.716C172.524 123.372 172.296 123.104 172 122.912C171.712 122.72 171.38 122.624 171.004 122.624C170.628 122.624 170.292 122.72 169.996 122.912C169.708 123.104 169.48 123.372 169.312 123.716C169.152 124.052 169.072 124.428 169.072 124.844C169.072 125.268 169.152 125.648 169.312 125.984C169.48 126.32 169.708 126.584 169.996 126.776C170.292 126.968 170.628 127.064 171.004 127.064ZM180.823 121.628C180.991 121.628 181.127 121.684 181.231 121.796C181.343 121.9 181.399 122.04 181.399 122.216V127.424C181.399 127.584 181.343 127.72 181.231 127.832C181.127 127.944 180.991 128 180.823 128C180.655 128 180.519 127.948 180.415 127.844C180.311 127.732 180.259 127.592 180.259 127.424V127.112C180.051 127.392 179.767 127.632 179.407 127.832C179.047 128.024 178.659 128.12 178.243 128.12C177.699 128.12 177.203 127.98 176.755 127.7C176.315 127.42 175.967 127.032 175.711 126.536C175.463 126.032 175.339 125.468 175.339 124.844C175.339 124.22 175.463 123.66 175.711 123.164C175.967 122.66 176.315 122.268 176.755 121.988C177.195 121.708 177.679 121.568 178.207 121.568C178.631 121.568 179.023 121.656 179.383 121.832C179.751 122.008 180.043 122.232 180.259 122.504V122.216C180.259 122.048 180.311 121.908 180.415 121.796C180.519 121.684 180.655 121.628 180.823 121.628ZM178.375 127.064C178.751 127.064 179.083 126.968 179.371 126.776C179.667 126.584 179.895 126.32 180.055 125.984C180.223 125.648 180.307 125.268 180.307 124.844C180.307 124.428 180.223 124.052 180.055 123.716C179.895 123.38 179.667 123.116 179.371 122.924C179.083 122.724 178.751 122.624 178.375 122.624C177.999 122.624 177.663 122.72 177.367 122.912C177.079 123.104 176.851 123.368 176.683 123.704C176.523 124.04 176.443 124.42 176.443 124.844C176.443 125.268 176.523 125.648 176.683 125.984C176.851 126.32 177.079 126.584 177.367 126.776C177.663 126.968 177.999 127.064 178.375 127.064ZM186.298 121.568C187.738 121.568 188.458 122.432 188.458 124.16V127.424C188.458 127.584 188.402 127.72 188.29 127.832C188.186 127.944 188.05 128 187.882 128C187.722 128 187.586 127.944 187.474 127.832C187.37 127.72 187.318 127.584 187.318 127.424V124.172C187.318 123.7 187.21 123.324 186.994 123.044C186.778 122.764 186.426 122.624 185.938 122.624C185.618 122.624 185.326 122.696 185.062 122.84C184.806 122.976 184.602 123.164 184.45 123.404C184.306 123.636 184.234 123.892 184.234 124.172V127.424C184.234 127.584 184.178 127.72 184.066 127.832C183.962 127.944 183.826 128 183.658 128C183.49 128 183.354 127.948 183.25 127.844C183.146 127.732 183.094 127.592 183.094 127.424V122.288C183.094 122.128 183.146 121.992 183.25 121.88C183.362 121.768 183.498 121.712 183.658 121.712C183.826 121.712 183.962 121.768 184.066 121.88C184.178 121.992 184.234 122.128 184.234 122.288V122.708C184.442 122.388 184.73 122.12 185.098 121.904C185.474 121.68 185.874 121.568 186.298 121.568ZM42.064 136.604C43.464 136.604 44.164 137.476 44.164 139.22V142.424C44.164 142.592 44.112 142.732 44.008 142.844C43.904 142.948 43.768 143 43.6 143C43.432 143 43.292 142.944 43.18 142.832C43.076 142.72 43.024 142.584 43.024 142.424V139.232C43.024 138.184 42.584 137.66 41.704 137.66C41.392 137.66 41.108 137.732 40.852 137.876C40.604 138.012 40.408 138.2 40.264 138.44C40.128 138.68 40.06 138.944 40.06 139.232V142.424C40.06 142.584 40.004 142.72 39.892 142.832C39.788 142.944 39.652 143 39.484 143C39.316 143 39.18 142.948 39.076 142.844C38.972 142.732 38.92 142.592 38.92 142.424V139.22C38.92 138.748 38.82 138.372 38.62 138.092C38.42 137.804 38.088 137.66 37.624 137.66C37.152 137.66 36.76 137.812 36.448 138.116C36.144 138.412 35.992 138.78 35.992 139.22V142.424C35.992 142.584 35.936 142.72 35.824 142.832C35.72 142.944 35.584 143 35.416 143C35.248 143 35.112 142.948 35.008 142.844C34.904 142.732 34.852 142.592 34.852 142.424V137.288C34.852 137.128 34.904 136.992 35.008 136.88C35.12 136.768 35.256 136.712 35.416 136.712C35.584 136.712 35.72 136.768 35.824 136.88C35.936 136.992 35.992 137.128 35.992 137.288V137.708C36.2 137.396 36.476 137.136 36.82 136.928C37.172 136.712 37.552 136.604 37.96 136.604C38.952 136.604 39.596 137.044 39.892 137.924C40.068 137.588 40.36 137.284 40.768 137.012C41.176 136.74 41.608 136.604 42.064 136.604ZM51.3876 139.616C51.3796 139.76 51.3196 139.884 51.2076 139.988C51.0956 140.084 50.9636 140.132 50.8116 140.132H46.5876C46.6436 140.716 46.8636 141.184 47.2476 141.536C47.6396 141.888 48.1156 142.064 48.6756 142.064C49.0596 142.064 49.3716 142.008 49.6116 141.896C49.8516 141.784 50.0636 141.64 50.2476 141.464C50.3676 141.392 50.4836 141.356 50.5956 141.356C50.7316 141.356 50.8436 141.404 50.9316 141.5C51.0276 141.596 51.0756 141.708 51.0756 141.836C51.0756 142.004 50.9956 142.156 50.8356 142.292C50.6036 142.524 50.2956 142.72 49.9116 142.88C49.5276 143.04 49.1356 143.12 48.7356 143.12C48.0876 143.12 47.5156 142.984 47.0196 142.712C46.5316 142.44 46.1516 142.06 45.8796 141.572C45.6156 141.084 45.4836 140.532 45.4836 139.916C45.4836 139.244 45.6196 138.656 45.8916 138.152C46.1716 137.64 46.5356 137.248 46.9836 136.976C47.4396 136.704 47.9276 136.568 48.4476 136.568C48.9596 136.568 49.4396 136.7 49.8876 136.964C50.3356 137.228 50.6956 137.592 50.9676 138.056C51.2396 138.52 51.3796 139.04 51.3876 139.616ZM48.4476 137.624C47.9996 137.624 47.6116 137.752 47.2836 138.008C46.9556 138.256 46.7396 138.644 46.6356 139.172H50.1756V139.076C50.1356 138.652 49.9436 138.304 49.5996 138.032C49.2636 137.76 48.8796 137.624 48.4476 137.624ZM55.9154 136.568C57.3554 136.568 58.0754 137.432 58.0754 139.16V142.424C58.0754 142.584 58.0194 142.72 57.9074 142.832C57.8034 142.944 57.6674 143 57.4994 143C57.3394 143 57.2034 142.944 57.0914 142.832C56.9874 142.72 56.9354 142.584 56.9354 142.424V139.172C56.9354 138.7 56.8274 138.324 56.6114 138.044C56.3954 137.764 56.0434 137.624 55.5554 137.624C55.2354 137.624 54.9434 137.696 54.6794 137.84C54.4234 137.976 54.2194 138.164 54.0674 138.404C53.9234 138.636 53.8514 138.892 53.8514 139.172V142.424C53.8514 142.584 53.7954 142.72 53.6834 142.832C53.5794 142.944 53.4434 143 53.2754 143C53.1074 143 52.9714 142.948 52.8674 142.844C52.7634 142.732 52.7114 142.592 52.7114 142.424V137.288C52.7114 137.128 52.7634 136.992 52.8674 136.88C52.9794 136.768 53.1154 136.712 53.2754 136.712C53.4434 136.712 53.5794 136.768 53.6834 136.88C53.7954 136.992 53.8514 137.128 53.8514 137.288V137.708C54.0594 137.388 54.3474 137.12 54.7154 136.904C55.0914 136.68 55.4914 136.568 55.9154 136.568ZM65.0338 136.628C65.2018 136.628 65.3378 136.684 65.4418 136.796C65.5538 136.9 65.6098 137.04 65.6098 137.216V142.496C65.6098 143.144 65.4698 143.684 65.1898 144.116C64.9178 144.556 64.5458 144.88 64.0738 145.088C63.6018 145.296 63.0698 145.4 62.4778 145.4C62.1578 145.4 61.7818 145.344 61.3498 145.232C60.9258 145.12 60.6538 145.004 60.5338 144.884C60.2858 144.756 60.1618 144.596 60.1618 144.404C60.1618 144.356 60.1778 144.292 60.2098 144.212C60.2978 144.012 60.4458 143.912 60.6538 143.912C60.7578 143.912 60.8698 143.936 60.9898 143.984C61.6298 144.232 62.1298 144.356 62.4898 144.356C63.1298 144.356 63.6178 144.2 63.9538 143.888C64.2978 143.584 64.4698 143.164 64.4698 142.628V141.98C64.3018 142.292 64.0178 142.56 63.6178 142.784C63.2258 143.008 62.8098 143.12 62.3698 143.12C61.8178 143.12 61.3138 142.98 60.8578 142.7C60.4018 142.42 60.0418 142.032 59.7778 141.536C59.5218 141.032 59.3938 140.468 59.3938 139.844C59.3938 139.22 59.5218 138.66 59.7778 138.164C60.0418 137.66 60.3978 137.268 60.8458 136.988C61.3018 136.708 61.8018 136.568 62.3458 136.568C62.7858 136.568 63.1938 136.668 63.5698 136.868C63.9538 137.068 64.2538 137.312 64.4698 137.6V137.216C64.4698 137.048 64.5218 136.908 64.6258 136.796C64.7298 136.684 64.8658 136.628 65.0338 136.628ZM62.5018 142.064C62.8938 142.064 63.2418 141.972 63.5458 141.788C63.8498 141.596 64.0858 141.332 64.2538 140.996C64.4298 140.652 64.5178 140.268 64.5178 139.844C64.5178 139.42 64.4298 139.04 64.2538 138.704C64.0858 138.368 63.8498 138.104 63.5458 137.912C63.2418 137.72 62.8938 137.624 62.5018 137.624C62.1178 137.624 61.7738 137.72 61.4698 137.912C61.1658 138.104 60.9258 138.372 60.7498 138.716C60.5818 139.052 60.4978 139.428 60.4978 139.844C60.4978 140.26 60.5818 140.64 60.7498 140.984C60.9258 141.32 61.1658 141.584 61.4698 141.776C61.7738 141.968 62.1178 142.064 62.5018 142.064ZM72.5868 139.616C72.5788 139.76 72.5188 139.884 72.4068 139.988C72.2948 140.084 72.1628 140.132 72.0108 140.132H67.7868C67.8428 140.716 68.0628 141.184 68.4468 141.536C68.8388 141.888 69.3148 142.064 69.8748 142.064C70.2588 142.064 70.5708 142.008 70.8108 141.896C71.0508 141.784 71.2628 141.64 71.4468 141.464C71.5668 141.392 71.6828 141.356 71.7948 141.356C71.9308 141.356 72.0428 141.404 72.1308 141.5C72.2268 141.596 72.2748 141.708 72.2748 141.836C72.2748 142.004 72.1948 142.156 72.0348 142.292C71.8028 142.524 71.4948 142.72 71.1108 142.88C70.7268 143.04 70.3348 143.12 69.9348 143.12C69.2868 143.12 68.7148 142.984 68.2188 142.712C67.7308 142.44 67.3508 142.06 67.0788 141.572C66.8148 141.084 66.6828 140.532 66.6828 139.916C66.6828 139.244 66.8188 138.656 67.0908 138.152C67.3708 137.64 67.7348 137.248 68.1828 136.976C68.6388 136.704 69.1268 136.568 69.6468 136.568C70.1588 136.568 70.6388 136.7 71.0868 136.964C71.5348 137.228 71.8948 137.592 72.1668 138.056C72.4388 138.52 72.5788 139.04 72.5868 139.616ZM69.6468 137.624C69.1988 137.624 68.8108 137.752 68.4828 138.008C68.1548 138.256 67.9388 138.644 67.8348 139.172H71.3748V139.076C71.3348 138.652 71.1428 138.304 70.7988 138.032C70.4628 137.76 70.0788 137.624 69.6468 137.624ZM81.1226 136.604C82.5226 136.604 83.2226 137.476 83.2226 139.22V142.424C83.2226 142.592 83.1706 142.732 83.0666 142.844C82.9626 142.948 82.8266 143 82.6586 143C82.4906 143 82.3506 142.944 82.2386 142.832C82.1346 142.72 82.0826 142.584 82.0826 142.424V139.232C82.0826 138.184 81.6426 137.66 80.7626 137.66C80.4506 137.66 80.1666 137.732 79.9106 137.876C79.6626 138.012 79.4666 138.2 79.3226 138.44C79.1866 138.68 79.1186 138.944 79.1186 139.232V142.424C79.1186 142.584 79.0626 142.72 78.9506 142.832C78.8466 142.944 78.7106 143 78.5426 143C78.3746 143 78.2386 142.948 78.1346 142.844C78.0306 142.732 77.9786 142.592 77.9786 142.424V139.22C77.9786 138.748 77.8786 138.372 77.6786 138.092C77.4786 137.804 77.1466 137.66 76.6826 137.66C76.2106 137.66 75.8186 137.812 75.5066 138.116C75.2026 138.412 75.0506 138.78 75.0506 139.22V142.424C75.0506 142.584 74.9946 142.72 74.8826 142.832C74.7786 142.944 74.6426 143 74.4746 143C74.3066 143 74.1706 142.948 74.0666 142.844C73.9626 142.732 73.9106 142.592 73.9106 142.424V137.288C73.9106 137.128 73.9626 136.992 74.0666 136.88C74.1786 136.768 74.3146 136.712 74.4746 136.712C74.6426 136.712 74.7786 136.768 74.8826 136.88C74.9946 136.992 75.0506 137.128 75.0506 137.288V137.708C75.2586 137.396 75.5346 137.136 75.8786 136.928C76.2306 136.712 76.6106 136.604 77.0186 136.604C78.0106 136.604 78.6546 137.044 78.9506 137.924C79.1266 137.588 79.4186 137.284 79.8266 137.012C80.2346 136.74 80.6666 136.604 81.1226 136.604ZM88.0822 136.568C88.6262 136.568 89.1182 136.708 89.5582 136.988C89.9982 137.268 90.3422 137.656 90.5902 138.152C90.8462 138.648 90.9742 139.208 90.9742 139.832C90.9742 140.456 90.8462 141.02 90.5902 141.524C90.3422 142.028 89.9982 142.42 89.5582 142.7C89.1182 142.98 88.6342 143.12 88.1062 143.12C87.6902 143.12 87.3022 143.028 86.9422 142.844C86.5822 142.66 86.2902 142.432 86.0662 142.16V142.508C86.0662 142.668 86.0102 142.804 85.8982 142.916C85.7942 143.028 85.6582 143.084 85.4902 143.084C85.3302 143.084 85.1942 143.032 85.0822 142.928C84.9782 142.816 84.9262 142.676 84.9262 142.508V134.696C84.9262 134.528 84.9782 134.392 85.0822 134.288C85.1862 134.176 85.3222 134.12 85.4902 134.12C85.6582 134.12 85.7942 134.176 85.8982 134.288C86.0102 134.4 86.0662 134.536 86.0662 134.696V137.624C86.2582 137.336 86.5382 137.088 86.9062 136.88C87.2742 136.672 87.6662 136.568 88.0822 136.568ZM87.9502 142.064C88.3182 142.064 88.6502 141.968 88.9462 141.776C89.2422 141.576 89.4702 141.308 89.6302 140.972C89.7982 140.628 89.8822 140.248 89.8822 139.832C89.8822 139.416 89.7982 139.04 89.6302 138.704C89.4702 138.368 89.2422 138.104 88.9462 137.912C88.6502 137.72 88.3182 137.624 87.9502 137.624C87.5742 137.624 87.2382 137.72 86.9422 137.912C86.6462 138.104 86.4142 138.368 86.2462 138.704C86.0862 139.032 86.0062 139.408 86.0062 139.832C86.0062 140.256 86.0862 140.636 86.2462 140.972C86.4142 141.308 86.6462 141.576 86.9422 141.776C87.2382 141.968 87.5742 142.064 87.9502 142.064ZM97.3973 136.628C97.5653 136.628 97.7013 136.684 97.8053 136.796C97.9173 136.9 97.9733 137.04 97.9733 137.216V142.424C97.9733 142.584 97.9173 142.72 97.8053 142.832C97.7013 142.944 97.5653 143 97.3973 143C97.2293 143 97.0933 142.948 96.9893 142.844C96.8853 142.732 96.8333 142.592 96.8333 142.424V142.112C96.6253 142.392 96.3413 142.632 95.9813 142.832C95.6213 143.024 95.2333 143.12 94.8173 143.12C94.2733 143.12 93.7773 142.98 93.3293 142.7C92.8893 142.42 92.5413 142.032 92.2853 141.536C92.0373 141.032 91.9133 140.468 91.9133 139.844C91.9133 139.22 92.0373 138.66 92.2853 138.164C92.5413 137.66 92.8893 137.268 93.3293 136.988C93.7693 136.708 94.2533 136.568 94.7813 136.568C95.2053 136.568 95.5973 136.656 95.9573 136.832C96.3253 137.008 96.6173 137.232 96.8333 137.504V137.216C96.8333 137.048 96.8853 136.908 96.9893 136.796C97.0933 136.684 97.2293 136.628 97.3973 136.628ZM94.9493 142.064C95.3253 142.064 95.6573 141.968 95.9453 141.776C96.2413 141.584 96.4693 141.32 96.6293 140.984C96.7973 140.648 96.8813 140.268 96.8813 139.844C96.8813 139.428 96.7973 139.052 96.6293 138.716C96.4693 138.38 96.2413 138.116 95.9453 137.924C95.6573 137.724 95.3253 137.624 94.9493 137.624C94.5733 137.624 94.2373 137.72 93.9413 137.912C93.6533 138.104 93.4253 138.368 93.2573 138.704C93.0973 139.04 93.0173 139.42 93.0173 139.844C93.0173 140.268 93.0973 140.648 93.2573 140.984C93.4253 141.32 93.6533 141.584 93.9413 141.776C94.2373 141.968 94.5733 142.064 94.9493 142.064ZM102.872 136.568C104.312 136.568 105.032 137.432 105.032 139.16V142.424C105.032 142.584 104.976 142.72 104.864 142.832C104.76 142.944 104.624 143 104.456 143C104.296 143 104.16 142.944 104.048 142.832C103.944 142.72 103.892 142.584 103.892 142.424V139.172C103.892 138.7 103.784 138.324 103.568 138.044C103.352 137.764 103 137.624 102.512 137.624C102.192 137.624 101.9 137.696 101.636 137.84C101.38 137.976 101.176 138.164 101.024 138.404C100.88 138.636 100.808 138.892 100.808 139.172V142.424C100.808 142.584 100.752 142.72 100.64 142.832C100.536 142.944 100.4 143 100.232 143C100.064 143 99.9284 142.948 99.8244 142.844C99.7204 142.732 99.6684 142.592 99.6684 142.424V137.288C99.6684 137.128 99.7204 136.992 99.8244 136.88C99.9364 136.768 100.072 136.712 100.232 136.712C100.4 136.712 100.536 136.768 100.64 136.88C100.752 136.992 100.808 137.128 100.808 137.288V137.708C101.016 137.388 101.304 137.12 101.672 136.904C102.048 136.68 102.448 136.568 102.872 136.568ZM111.991 136.628C112.159 136.628 112.295 136.684 112.399 136.796C112.511 136.9 112.567 137.04 112.567 137.216V142.496C112.567 143.144 112.427 143.684 112.147 144.116C111.875 144.556 111.503 144.88 111.031 145.088C110.559 145.296 110.027 145.4 109.435 145.4C109.115 145.4 108.739 145.344 108.307 145.232C107.883 145.12 107.611 145.004 107.491 144.884C107.243 144.756 107.119 144.596 107.119 144.404C107.119 144.356 107.135 144.292 107.167 144.212C107.255 144.012 107.403 143.912 107.611 143.912C107.715 143.912 107.827 143.936 107.947 143.984C108.587 144.232 109.087 144.356 109.447 144.356C110.087 144.356 110.575 144.2 110.911 143.888C111.255 143.584 111.427 143.164 111.427 142.628V141.98C111.259 142.292 110.975 142.56 110.575 142.784C110.183 143.008 109.767 143.12 109.327 143.12C108.775 143.12 108.271 142.98 107.815 142.7C107.359 142.42 106.999 142.032 106.735 141.536C106.479 141.032 106.351 140.468 106.351 139.844C106.351 139.22 106.479 138.66 106.735 138.164C106.999 137.66 107.355 137.268 107.803 136.988C108.259 136.708 108.759 136.568 109.303 136.568C109.743 136.568 110.151 136.668 110.527 136.868C110.911 137.068 111.211 137.312 111.427 137.6V137.216C111.427 137.048 111.479 136.908 111.583 136.796C111.687 136.684 111.823 136.628 111.991 136.628ZM109.459 142.064C109.851 142.064 110.199 141.972 110.503 141.788C110.807 141.596 111.043 141.332 111.211 140.996C111.387 140.652 111.475 140.268 111.475 139.844C111.475 139.42 111.387 139.04 111.211 138.704C111.043 138.368 110.807 138.104 110.503 137.912C110.199 137.72 109.851 137.624 109.459 137.624C109.075 137.624 108.731 137.72 108.427 137.912C108.123 138.104 107.883 138.372 107.707 138.716C107.539 139.052 107.455 139.428 107.455 139.844C107.455 140.26 107.539 140.64 107.707 140.984C107.883 141.32 108.123 141.584 108.427 141.776C108.731 141.968 109.075 142.064 109.459 142.064ZM119.394 142.004C119.514 142.132 119.574 142.272 119.574 142.424C119.574 142.584 119.51 142.72 119.382 142.832C119.262 142.936 119.134 142.988 118.998 142.988C118.822 142.988 118.682 142.924 118.578 142.796L116.214 140.288L115.494 140.936V142.424C115.494 142.584 115.438 142.72 115.326 142.832C115.222 142.944 115.09 143 114.93 143C114.762 143 114.622 142.944 114.51 142.832C114.406 142.72 114.354 142.584 114.354 142.424V134.696C114.354 134.536 114.406 134.4 114.51 134.288C114.622 134.176 114.762 134.12 114.93 134.12C115.09 134.12 115.222 134.176 115.326 134.288C115.438 134.4 115.494 134.536 115.494 134.696V139.568L118.434 136.868C118.57 136.748 118.71 136.688 118.854 136.688C118.99 136.688 119.114 136.748 119.226 136.868C119.338 136.98 119.394 137.1 119.394 137.228C119.394 137.388 119.318 137.532 119.166 137.66L117.09 139.508L119.394 142.004ZM125.968 136.628C126.136 136.628 126.272 136.684 126.376 136.796C126.488 136.9 126.544 137.04 126.544 137.216V142.424C126.544 142.584 126.488 142.72 126.376 142.832C126.272 142.944 126.136 143 125.968 143C125.8 143 125.664 142.948 125.56 142.844C125.456 142.732 125.404 142.592 125.404 142.424V142.112C125.196 142.392 124.912 142.632 124.552 142.832C124.192 143.024 123.804 143.12 123.388 143.12C122.844 143.12 122.348 142.98 121.9 142.7C121.46 142.42 121.112 142.032 120.856 141.536C120.608 141.032 120.484 140.468 120.484 139.844C120.484 139.22 120.608 138.66 120.856 138.164C121.112 137.66 121.46 137.268 121.9 136.988C122.34 136.708 122.824 136.568 123.352 136.568C123.776 136.568 124.168 136.656 124.528 136.832C124.896 137.008 125.188 137.232 125.404 137.504V137.216C125.404 137.048 125.456 136.908 125.56 136.796C125.664 136.684 125.8 136.628 125.968 136.628ZM123.52 142.064C123.896 142.064 124.228 141.968 124.516 141.776C124.812 141.584 125.04 141.32 125.2 140.984C125.368 140.648 125.452 140.268 125.452 139.844C125.452 139.428 125.368 139.052 125.2 138.716C125.04 138.38 124.812 138.116 124.516 137.924C124.228 137.724 123.896 137.624 123.52 137.624C123.144 137.624 122.808 137.72 122.512 137.912C122.224 138.104 121.996 138.368 121.828 138.704C121.668 139.04 121.588 139.42 121.588 139.844C121.588 140.268 121.668 140.648 121.828 140.984C121.996 141.32 122.224 141.584 122.512 141.776C122.808 141.968 123.144 142.064 123.52 142.064ZM131.443 136.568C132.883 136.568 133.603 137.432 133.603 139.16V142.424C133.603 142.584 133.547 142.72 133.435 142.832C133.331 142.944 133.195 143 133.027 143C132.867 143 132.731 142.944 132.619 142.832C132.515 142.72 132.463 142.584 132.463 142.424V139.172C132.463 138.7 132.355 138.324 132.139 138.044C131.923 137.764 131.571 137.624 131.083 137.624C130.763 137.624 130.471 137.696 130.207 137.84C129.951 137.976 129.747 138.164 129.595 138.404C129.451 138.636 129.379 138.892 129.379 139.172V142.424C129.379 142.584 129.323 142.72 129.211 142.832C129.107 142.944 128.971 143 128.803 143C128.635 143 128.499 142.948 128.395 142.844C128.291 142.732 128.239 142.592 128.239 142.424V137.288C128.239 137.128 128.291 136.992 128.395 136.88C128.507 136.768 128.643 136.712 128.803 136.712C128.971 136.712 129.107 136.768 129.211 136.88C129.323 136.992 129.379 137.128 129.379 137.288V137.708C129.587 137.388 129.875 137.12 130.243 136.904C130.619 136.68 131.019 136.568 131.443 136.568ZM143.889 136.628C144.057 136.628 144.193 136.684 144.297 136.796C144.409 136.9 144.465 137.04 144.465 137.216V142.496C144.465 143.144 144.325 143.684 144.045 144.116C143.773 144.556 143.401 144.88 142.929 145.088C142.457 145.296 141.925 145.4 141.333 145.4C141.013 145.4 140.637 145.344 140.205 145.232C139.781 145.12 139.509 145.004 139.389 144.884C139.141 144.756 139.017 144.596 139.017 144.404C139.017 144.356 139.033 144.292 139.065 144.212C139.153 144.012 139.301 143.912 139.509 143.912C139.613 143.912 139.725 143.936 139.845 143.984C140.485 144.232 140.985 144.356 141.345 144.356C141.985 144.356 142.473 144.2 142.809 143.888C143.153 143.584 143.325 143.164 143.325 142.628V141.98C143.157 142.292 142.873 142.56 142.473 142.784C142.081 143.008 141.665 143.12 141.225 143.12C140.673 143.12 140.169 142.98 139.713 142.7C139.257 142.42 138.897 142.032 138.633 141.536C138.377 141.032 138.249 140.468 138.249 139.844C138.249 139.22 138.377 138.66 138.633 138.164C138.897 137.66 139.253 137.268 139.701 136.988C140.157 136.708 140.657 136.568 141.201 136.568C141.641 136.568 142.049 136.668 142.425 136.868C142.809 137.068 143.109 137.312 143.325 137.6V137.216C143.325 137.048 143.377 136.908 143.481 136.796C143.585 136.684 143.721 136.628 143.889 136.628ZM141.357 142.064C141.749 142.064 142.097 141.972 142.401 141.788C142.705 141.596 142.941 141.332 143.109 140.996C143.285 140.652 143.373 140.268 143.373 139.844C143.373 139.42 143.285 139.04 143.109 138.704C142.941 138.368 142.705 138.104 142.401 137.912C142.097 137.72 141.749 137.624 141.357 137.624C140.973 137.624 140.629 137.72 140.325 137.912C140.021 138.104 139.781 138.372 139.605 138.716C139.437 139.052 139.353 139.428 139.353 139.844C139.353 140.26 139.437 140.64 139.605 140.984C139.781 141.32 140.021 141.584 140.325 141.776C140.629 141.968 140.973 142.064 141.357 142.064ZM151.198 136.628C151.366 136.628 151.502 136.684 151.606 136.796C151.718 136.9 151.774 137.04 151.774 137.216V142.424C151.774 142.584 151.718 142.72 151.606 142.832C151.502 142.944 151.366 143 151.198 143C151.03 143 150.894 142.948 150.79 142.844C150.686 142.732 150.634 142.592 150.634 142.424V142.112C150.426 142.392 150.142 142.632 149.782 142.832C149.422 143.024 149.034 143.12 148.618 143.12C148.074 143.12 147.578 142.98 147.13 142.7C146.69 142.42 146.342 142.032 146.086 141.536C145.838 141.032 145.714 140.468 145.714 139.844C145.714 139.22 145.838 138.66 146.086 138.164C146.342 137.66 146.69 137.268 147.13 136.988C147.57 136.708 148.054 136.568 148.582 136.568C149.006 136.568 149.398 136.656 149.758 136.832C150.126 137.008 150.418 137.232 150.634 137.504V137.216C150.634 137.048 150.686 136.908 150.79 136.796C150.894 136.684 151.03 136.628 151.198 136.628ZM148.75 142.064C149.126 142.064 149.458 141.968 149.746 141.776C150.042 141.584 150.27 141.32 150.43 140.984C150.598 140.648 150.682 140.268 150.682 139.844C150.682 139.428 150.598 139.052 150.43 138.716C150.27 138.38 150.042 138.116 149.746 137.924C149.458 137.724 149.126 137.624 148.75 137.624C148.374 137.624 148.038 137.72 147.742 137.912C147.454 138.104 147.226 138.368 147.058 138.704C146.898 139.04 146.818 139.42 146.818 139.844C146.818 140.268 146.898 140.648 147.058 140.984C147.226 141.32 147.454 141.584 147.742 141.776C148.038 141.968 148.374 142.064 148.75 142.064ZM160.681 136.604C162.081 136.604 162.781 137.476 162.781 139.22V142.424C162.781 142.592 162.729 142.732 162.625 142.844C162.521 142.948 162.385 143 162.217 143C162.049 143 161.909 142.944 161.797 142.832C161.693 142.72 161.641 142.584 161.641 142.424V139.232C161.641 138.184 161.201 137.66 160.321 137.66C160.009 137.66 159.725 137.732 159.469 137.876C159.221 138.012 159.025 138.2 158.881 138.44C158.745 138.68 158.677 138.944 158.677 139.232V142.424C158.677 142.584 158.621 142.72 158.509 142.832C158.405 142.944 158.269 143 158.101 143C157.933 143 157.797 142.948 157.693 142.844C157.589 142.732 157.537 142.592 157.537 142.424V139.22C157.537 138.748 157.437 138.372 157.237 138.092C157.037 137.804 156.705 137.66 156.241 137.66C155.769 137.66 155.377 137.812 155.065 138.116C154.761 138.412 154.609 138.78 154.609 139.22V142.424C154.609 142.584 154.553 142.72 154.441 142.832C154.337 142.944 154.201 143 154.033 143C153.865 143 153.729 142.948 153.625 142.844C153.521 142.732 153.469 142.592 153.469 142.424V137.288C153.469 137.128 153.521 136.992 153.625 136.88C153.737 136.768 153.873 136.712 154.033 136.712C154.201 136.712 154.337 136.768 154.441 136.88C154.553 136.992 154.609 137.128 154.609 137.288V137.708C154.817 137.396 155.093 137.136 155.437 136.928C155.789 136.712 156.169 136.604 156.577 136.604C157.569 136.604 158.213 137.044 158.509 137.924C158.685 137.588 158.977 137.284 159.385 137.012C159.793 136.74 160.225 136.604 160.681 136.604ZM170.005 139.616C169.997 139.76 169.937 139.884 169.825 139.988C169.713 140.084 169.581 140.132 169.429 140.132H165.205C165.261 140.716 165.481 141.184 165.865 141.536C166.257 141.888 166.733 142.064 167.293 142.064C167.677 142.064 167.989 142.008 168.229 141.896C168.469 141.784 168.681 141.64 168.865 141.464C168.985 141.392 169.101 141.356 169.213 141.356C169.349 141.356 169.461 141.404 169.549 141.5C169.645 141.596 169.693 141.708 169.693 141.836C169.693 142.004 169.613 142.156 169.453 142.292C169.221 142.524 168.913 142.72 168.529 142.88C168.145 143.04 167.753 143.12 167.353 143.12C166.705 143.12 166.133 142.984 165.637 142.712C165.149 142.44 164.769 142.06 164.497 141.572C164.233 141.084 164.101 140.532 164.101 139.916C164.101 139.244 164.237 138.656 164.509 138.152C164.789 137.64 165.153 137.248 165.601 136.976C166.057 136.704 166.545 136.568 167.065 136.568C167.577 136.568 168.057 136.7 168.505 136.964C168.953 137.228 169.313 137.592 169.585 138.056C169.857 138.52 169.997 139.04 170.005 139.616ZM167.065 137.624C166.617 137.624 166.229 137.752 165.901 138.008C165.573 138.256 165.357 138.644 165.253 139.172H168.793V139.076C168.753 138.652 168.561 138.304 168.217 138.032C167.881 137.76 167.497 137.624 167.065 137.624ZM171.881 140.48C171.657 140.48 171.537 140.352 171.521 140.096L171.257 135.32C171.241 135.112 171.289 134.94 171.401 134.804C171.521 134.668 171.677 134.6 171.869 134.6C172.069 134.6 172.225 134.668 172.337 134.804C172.449 134.94 172.497 135.112 172.481 135.32L172.229 140.096C172.221 140.224 172.185 140.32 172.121 140.384C172.065 140.448 171.985 140.48 171.881 140.48ZM171.809 143C171.617 143 171.469 142.948 171.365 142.844C171.269 142.732 171.221 142.58 171.221 142.388V142.16C171.221 141.968 171.269 141.82 171.365 141.716C171.469 141.604 171.617 141.548 171.809 141.548H171.941C172.133 141.548 172.277 141.604 172.373 141.716C172.477 141.82 172.529 141.968 172.529 142.16V142.388C172.529 142.58 172.477 142.732 172.373 142.844C172.277 142.948 172.133 143 171.941 143H171.809Z" fill="#FCF7F8"/>
<rect x="34" y="161" width="71" height="26" rx="6" fill="white" fill-opacity="0.15"/>
<path d="M55.84 173.18C56.2067 173.307 56.5067 173.517 56.74 173.81C56.98 174.097 57.1 174.473 57.1 174.94C57.1 175.68 56.8833 176.21 56.45 176.53C56.0233 176.843 55.5 177 54.88 177H52.31C52.1767 177 52.0633 176.953 51.97 176.86C51.8767 176.767 51.83 176.653 51.83 176.52V170.48C51.83 170.347 51.8767 170.233 51.97 170.14C52.0633 170.047 52.1767 170 52.31 170H54.88C55.4867 170 55.9467 170.15 56.26 170.45C56.58 170.75 56.74 171.183 56.74 171.75C56.74 172.07 56.6633 172.357 56.51 172.61C56.3567 172.857 56.1333 173.047 55.84 173.18ZM55.71 171.9C55.71 171.587 55.6233 171.35 55.45 171.19C55.2833 171.023 55.0467 170.94 54.74 170.94H52.85V172.89H54.76C55.0333 172.883 55.26 172.797 55.44 172.63C55.62 172.457 55.71 172.213 55.71 171.9ZM54.87 176.08C55.2367 176.08 55.53 175.987 55.75 175.8C55.97 175.607 56.08 175.32 56.08 174.94C56.08 174.2 55.66 173.83 54.82 173.83H52.85V176.08H54.87ZM62.4932 171.69C62.6332 171.69 62.7465 171.737 62.8332 171.83C62.9265 171.917 62.9732 172.033 62.9732 172.18V176.52C62.9732 176.653 62.9265 176.767 62.8332 176.86C62.7465 176.953 62.6332 177 62.4932 177C62.3532 177 62.2399 176.957 62.1532 176.87C62.0665 176.777 62.0232 176.66 62.0232 176.52V176.26C61.8499 176.493 61.6132 176.693 61.3132 176.86C61.0132 177.02 60.6899 177.1 60.3432 177.1C59.8899 177.1 59.4765 176.983 59.1032 176.75C58.7365 176.517 58.4465 176.193 58.2332 175.78C58.0265 175.36 57.9232 174.89 57.9232 174.37C57.9232 173.85 58.0265 173.383 58.2332 172.97C58.4465 172.55 58.7365 172.223 59.1032 171.99C59.4699 171.757 59.8732 171.64 60.3132 171.64C60.6665 171.64 60.9932 171.713 61.2932 171.86C61.5999 172.007 61.8432 172.193 62.0232 172.42V172.18C62.0232 172.04 62.0665 171.923 62.1532 171.83C62.2399 171.737 62.3532 171.69 62.4932 171.69ZM60.4532 176.22C60.7665 176.22 61.0432 176.14 61.2832 175.98C61.5299 175.82 61.7199 175.6 61.8532 175.32C61.9932 175.04 62.0632 174.723 62.0632 174.37C62.0632 174.023 61.9932 173.71 61.8532 173.43C61.7199 173.15 61.5299 172.93 61.2832 172.77C61.0432 172.603 60.7665 172.52 60.4532 172.52C60.1399 172.52 59.8599 172.6 59.6132 172.76C59.3732 172.92 59.1832 173.14 59.0432 173.42C58.9099 173.7 58.8432 174.017 58.8432 174.37C58.8432 174.723 58.9099 175.04 59.0432 175.32C59.1832 175.6 59.3732 175.82 59.6132 175.98C59.8599 176.14 60.1399 176.22 60.4532 176.22ZM66.6658 171.64C67.1924 171.64 67.6291 171.723 67.9758 171.89C68.3291 172.057 68.5058 172.27 68.5058 172.53C68.5058 172.643 68.4691 172.747 68.3958 172.84C68.3224 172.927 68.2291 172.97 68.1158 172.97C68.0291 172.97 67.9591 172.957 67.9058 172.93C67.8591 172.903 67.7924 172.86 67.7058 172.8C67.6658 172.76 67.6024 172.713 67.5158 172.66C67.4358 172.62 67.3224 172.587 67.1758 172.56C67.0291 172.533 66.8958 172.52 66.7758 172.52C66.4291 172.52 66.1224 172.6 65.8558 172.76C65.5891 172.92 65.3824 173.143 65.2358 173.43C65.0891 173.71 65.0158 174.023 65.0158 174.37C65.0158 174.723 65.0858 175.04 65.2258 175.32C65.3724 175.6 65.5758 175.82 65.8358 175.98C66.0958 176.14 66.3924 176.22 66.7258 176.22C67.0724 176.22 67.3524 176.167 67.5658 176.06C67.6124 176.033 67.6758 175.99 67.7558 175.93C67.8224 175.877 67.8791 175.837 67.9258 175.81C67.9791 175.783 68.0424 175.77 68.1158 175.77C68.2491 175.77 68.3524 175.813 68.4258 175.9C68.5058 175.98 68.5458 176.087 68.5458 176.22C68.5458 176.36 68.4558 176.5 68.2758 176.64C68.1024 176.773 67.8658 176.883 67.5658 176.97C67.2724 177.057 66.9558 177.1 66.6158 177.1C66.1091 177.1 65.6624 176.983 65.2758 176.75C64.8891 176.51 64.5891 176.183 64.3758 175.77C64.1691 175.35 64.0658 174.883 64.0658 174.37C64.0658 173.857 64.1758 173.393 64.3958 172.98C64.6158 172.56 64.9224 172.233 65.3158 172C65.7091 171.76 66.1591 171.64 66.6658 171.64ZM73.7725 171.69C73.9125 171.69 74.0258 171.737 74.1125 171.83C74.2058 171.917 74.2525 172.033 74.2525 172.18V176.52C74.2525 176.653 74.2058 176.767 74.1125 176.86C74.0258 176.953 73.9125 177 73.7725 177C73.6325 177 73.5192 176.957 73.4325 176.87C73.3458 176.777 73.3025 176.66 73.3025 176.52V176.26C73.1292 176.493 72.8925 176.693 72.5925 176.86C72.2925 177.02 71.9692 177.1 71.6225 177.1C71.1692 177.1 70.7558 176.983 70.3825 176.75C70.0158 176.517 69.7258 176.193 69.5125 175.78C69.3058 175.36 69.2025 174.89 69.2025 174.37C69.2025 173.85 69.3058 173.383 69.5125 172.97C69.7258 172.55 70.0158 172.223 70.3825 171.99C70.7492 171.757 71.1525 171.64 71.5925 171.64C71.9458 171.64 72.2725 171.713 72.5725 171.86C72.8792 172.007 73.1225 172.193 73.3025 172.42V172.18C73.3025 172.04 73.3458 171.923 73.4325 171.83C73.5192 171.737 73.6325 171.69 73.7725 171.69ZM71.7325 176.22C72.0458 176.22 72.3225 176.14 72.5625 175.98C72.8092 175.82 72.9992 175.6 73.1325 175.32C73.2725 175.04 73.3425 174.723 73.3425 174.37C73.3425 174.023 73.2725 173.71 73.1325 173.43C72.9992 173.15 72.8092 172.93 72.5625 172.77C72.3225 172.603 72.0458 172.52 71.7325 172.52C71.4192 172.52 71.1392 172.6 70.8925 172.76C70.6525 172.92 70.4625 173.14 70.3225 173.42C70.1892 173.7 70.1225 174.017 70.1225 174.37C70.1225 174.723 70.1892 175.04 70.3225 175.32C70.4625 175.6 70.6525 175.82 70.8925 175.98C71.1392 176.14 71.4192 176.22 71.7325 176.22Z" fill="#D8D8D9"/>
</g>
<defs>
<clipPath id="clip0">
<rect width="359" height="206" fill="white"/>
</clipPath>
</defs>
</svg>
