<svg width="369" height="326" viewBox="0 0 369 326" fill="none" xmlns="http://www.w3.org/2000/svg">
<path d="M210.994 61.0909C212.161 56.1777 211.456 51.1034 208.965 46.5034C206.474 41.9033 202.309 37.9818 196.992 35.2299C191.674 32.4779 185.44 31.0177 179.069 31.0322C172.699 31.0466 166.476 32.5349 161.178 35.3109C157.346 27.9514 150.371 21.8661 141.449 18.0969C132.527 14.3277 122.212 13.1091 112.27 14.6498C102.329 16.1904 93.3797 20.3944 86.9543 26.542C80.5289 32.6896 77.0274 40.3985 77.0491 48.3486C77.0491 48.7662 77.0491 49.1838 77.0491 49.6116C70.7646 51.0075 65.2843 54.0585 61.5296 58.2514C57.7748 62.4444 55.9746 67.5238 56.4317 72.6355C56.8887 77.7473 59.575 82.5797 64.0391 86.3204C68.5031 90.0611 74.4726 92.4819 80.944 93.1759V93.4102H209.605C215.067 93.5547 220.38 91.9908 224.373 89.0624C228.366 86.1341 230.712 82.0813 230.897 77.7955C231.081 73.5097 229.087 69.342 225.355 66.2093C221.622 63.0766 216.457 61.2354 210.994 61.0909V61.0909Z" stroke="#263238" stroke-miterlimit="10"/>
<path d="M308.872 162.765V161.237" stroke="#263238" stroke-linecap="round" stroke-linejoin="round"/>
<path d="M308.872 158.222V50.9357" stroke="#263238" stroke-linecap="round" stroke-linejoin="round" stroke-dasharray="2.97 2.97"/>
<path d="M308.872 49.4284V47.9005H306.924" stroke="#263238" stroke-linecap="round" stroke-linejoin="round"/>
<path d="M303.004 47.9005H226.417" stroke="#263238" stroke-linecap="round" stroke-linejoin="round" stroke-dasharray="3.02 3.02"/>
<path d="M224.457 47.9005H222.51" stroke="#263238" stroke-linecap="round" stroke-linejoin="round"/>
<path d="M315.35 161.288L308.872 170.078L302.406 161.288H315.35Z" fill="#263238"/>
<path d="M332.215 122.623H283.971V70.0543H318.168L332.215 80.9836V122.623Z" fill="white" stroke="#263238" stroke-linecap="round" stroke-linejoin="round"/>
<path d="M318.167 70.0543V80.7901H332.215L318.167 70.0543Z" fill="white" stroke="#263238" stroke-linecap="round" stroke-linejoin="round"/>
<path d="M291.423 87.7468H324.75" stroke="#263238" stroke-linecap="round" stroke-linejoin="round"/>
<path d="M291.423 94.8768H324.75" stroke="#263238" stroke-linecap="round" stroke-linejoin="round"/>
<path d="M291.423 102.007H324.75" stroke="#263238" stroke-linecap="round" stroke-linejoin="round"/>
<path d="M291.423 109.137H324.75" stroke="#263238" stroke-linecap="round" stroke-linejoin="round"/>
<path d="M239.05 71.7452H190.805V19.1768H225.002L239.05 30.106V71.7452Z" fill="white" stroke="#263238" stroke-linecap="round" stroke-linejoin="round"/>
<path d="M225.002 19.1768V29.9125H239.05L225.002 19.1768Z" fill="white" stroke="#263238" stroke-linecap="round" stroke-linejoin="round"/>
<path d="M198.258 36.8693H231.585" stroke="#263238" stroke-linecap="round" stroke-linejoin="round"/>
<path d="M198.258 43.9993H231.585" stroke="#263238" stroke-linecap="round" stroke-linejoin="round"/>
<path d="M198.258 51.1293H231.585" stroke="#263238" stroke-linecap="round" stroke-linejoin="round"/>
<path d="M198.258 58.2593H231.585" stroke="#263238" stroke-linecap="round" stroke-linejoin="round"/>
<path d="M129.63 304.499V315.234H143.677L129.63 304.499Z" fill="white" stroke="#263238" stroke-linecap="round" stroke-linejoin="round"/>
<path d="M143.677 217.523H95.4459V164.955H129.63L143.677 175.884V217.523Z" fill="white" stroke="#263238" stroke-linecap="round" stroke-linejoin="round"/>
<path d="M129.63 164.955V175.69H143.677L129.63 164.955Z" fill="white" stroke="#263238" stroke-linecap="round" stroke-linejoin="round"/>
<path d="M102.898 182.647H136.225" stroke="#263238" stroke-linecap="round" stroke-linejoin="round"/>
<path d="M102.898 189.777H136.225" stroke="#263238" stroke-linecap="round" stroke-linejoin="round"/>
<path d="M102.898 196.907H136.225" stroke="#263238" stroke-linecap="round" stroke-linejoin="round"/>
<path d="M102.898 204.037H136.225" stroke="#263238" stroke-linecap="round" stroke-linejoin="round"/>
<path d="M175.6 192.533C175.6 192.533 140.858 205.799 135.535 210.695C130.212 215.592 99.4811 315.086 99.4811 315.086H313.699C313.699 315.086 297.821 248.26 293.926 225.698C290.031 203.135 272.816 198.278 264.065 196.503C255.315 194.727 175.6 192.533 175.6 192.533Z" fill="#263238" stroke="#263238" stroke-linecap="round" stroke-linejoin="round"/>
<path d="M234.101 211.401L229.505 315.047H266.649L251.719 202.326L234.101 211.401Z" fill="#92E3A9" stroke="#263238" stroke-linecap="round" stroke-linejoin="round"/>
<path d="M178.56 183.837C178.56 183.837 172.821 192.311 173.964 195.014C175.106 197.717 188.141 218.125 201.163 220.436C214.185 222.747 230.647 215.422 239.463 209.99C248.278 204.559 259.755 200.367 261.663 199.205C263.572 198.043 256.691 188.76 253.627 187.271C250.563 185.783 246.733 183.354 246.733 183.354C246.733 183.354 242.527 177.962 241.761 176.826C240.995 175.69 240.605 173.744 239.463 172.203C239.04 171.552 238.475 171.006 237.812 170.605C237.148 170.205 236.403 169.961 235.633 169.892C233.711 169.514 231.037 179.137 219.547 181.069C208.057 183.002 180.092 184.151 180.092 184.151L178.56 183.837Z" fill="#92E3A9" stroke="#263238" stroke-linecap="round" stroke-linejoin="round"/>
<path d="M214.185 220.436C214.185 220.436 236.399 209.259 239.073 200.406C241.748 191.554 241.761 176.904 241.761 176.904" stroke="#263238" stroke-linecap="round" stroke-linejoin="round"/>
<path d="M231.037 210.8C231.037 210.8 240.605 206.57 243.669 200.785C246.733 195.001 246.733 183.459 246.733 183.459" stroke="#263238" stroke-linecap="round" stroke-linejoin="round"/>
<path d="M166.239 135.957C165.824 137.524 174.795 182.257 181.221 193.565C187.648 204.872 201.02 211.322 209.057 207.562C218.353 203.188 228.596 194.609 233.036 185.091C233.854 183.328 238.385 164.278 237.424 163.951C237.424 163.951 243.851 166.106 246.512 154.263C249.174 142.421 251.329 135.422 248.122 128.959C244.916 122.496 226.727 107.428 210.121 110.157C193.516 112.886 168.914 125.734 166.239 135.957Z" fill="white" stroke="#263238" stroke-linecap="round" stroke-linejoin="round"/>
<path d="M210.667 121.908C210.667 121.908 187.116 140.188 171.056 141.833C154.996 143.478 155.009 135.957 155.009 135.957C155.009 135.957 134.132 141.885 136.275 125.734C138.417 109.582 170.588 96.6558 170.588 96.6558C170.588 96.6558 159.345 93.4307 164.694 87.5159C170.043 81.6011 190.387 75.1248 203.773 76.7439C217.158 78.3629 223.039 81.588 223.039 81.588C223.039 81.588 219.287 71.8997 227.324 75.0595C235.36 78.2193 242.241 93.966 242.241 93.966C242.241 93.966 256.159 95.0497 257.236 98.8102C258.314 102.571 249.2 103.628 249.2 103.628C249.2 103.628 257.769 119.78 253.484 128.933C249.2 138.086 240.099 140.775 239.567 142.394C239.034 144.013 241.176 149.928 236.892 147.774C232.608 145.619 230.998 136.466 230.998 136.466C230.998 136.466 224.584 130.016 224.039 127.327C223.494 124.637 222.974 121.412 222.974 121.412C222.974 121.412 219.222 132.719 210.667 134.325C202.111 135.931 210.667 121.908 210.667 121.908Z" fill="#263238" stroke="#263238" stroke-linecap="round" stroke-linejoin="round"/>
<path d="M191.361 160.726C191.361 160.726 180.663 184.412 186.544 184.947C192.426 185.482 197.788 179.019 197.788 179.019" fill="white"/>
<path d="M191.361 160.726C191.361 160.726 180.663 184.412 186.544 184.947C192.426 185.482 197.788 179.019 197.788 179.019" stroke="#263238" stroke-linecap="round" stroke-linejoin="round"/>
<path d="M191.932 188.721C191.932 188.721 198.891 196.255 211.731 186.018" stroke="#263238" stroke-linecap="round" stroke-linejoin="round"/>
<path d="M205.954 165.453C205.954 165.453 207.252 170.323 216.95 169.435" stroke="#263238" stroke-linecap="round" stroke-linejoin="round"/>
<path d="M185.713 164.565C185.713 164.565 182.636 168.547 179.118 168.547" stroke="#263238" stroke-linecap="round" stroke-linejoin="round"/>
<path d="M226.908 153.245C226.908 153.245 202.098 152.709 199.423 153.793C196.749 154.877 196.217 161.327 197.814 165.636C199.41 169.945 203.175 175.859 212.809 175.859C222.442 175.859 227.259 171.015 230.466 161.862C233.672 152.709 226.908 153.245 226.908 153.245Z" stroke="#263238" stroke-linecap="round" stroke-linejoin="round"/>
<path d="M165.681 153.245C165.681 153.245 184.779 152.709 186.843 153.793C188.907 154.877 189.31 161.327 188.141 165.636C186.973 169.945 184.013 175.859 176.599 175.859C169.186 175.859 165.473 171.015 163.006 161.862C160.54 152.709 165.681 153.245 165.681 153.245Z" stroke="#263238" stroke-linecap="round" stroke-linejoin="round"/>
<path d="M231.634 156.287L239.787 145.45" stroke="#263238" stroke-linecap="round" stroke-linejoin="round"/>
<path d="M199.423 153.728H186.713" stroke="#263238" stroke-linecap="round" stroke-linejoin="round"/>
<path d="M196.165 158.925H188.284" stroke="#263238" stroke-linecap="round" stroke-linejoin="round"/>
<path d="M162.799 155.752L168.849 151.795" stroke="#263238" stroke-linecap="round" stroke-linejoin="round"/>
<path d="M211.887 162.855C211.887 164.865 210.939 166.511 209.771 166.511C208.602 166.511 207.667 164.865 207.667 162.855C207.667 160.844 208.615 159.199 209.771 159.199C210.926 159.199 211.887 160.831 211.887 162.855Z" fill="#263238"/>
<path d="M183.922 161.314C183.922 163.338 182.987 164.97 181.819 164.97C180.65 164.97 179.715 163.338 179.715 161.314C179.715 159.29 180.663 157.658 181.819 157.658C182.974 157.658 183.922 159.29 183.922 161.314Z" fill="#263238"/>
<path d="M173.964 148.792C173.964 148.792 181.624 145.711 185.454 148.022" stroke="#263238" stroke-width="2" stroke-linecap="round" stroke-linejoin="round"/>
<path d="M203.046 148.414C208.285 146.883 213.909 147.434 218.755 149.954" stroke="#263238" stroke-width="2" stroke-linecap="round" stroke-linejoin="round"/>
<path d="M80.6818 302.159C77.8216 300.374 74.6177 299.218 71.2812 298.768C67.9448 298.318 64.5513 298.584 61.3243 299.548C50.7692 302.643 45.4982 311.939 45.4982 315.034H89.9127C89.3641 312.354 88.2581 309.822 86.6671 307.603C85.0762 305.384 83.0364 303.529 80.6818 302.159Z" fill="#808080" stroke="#263238" stroke-linecap="round" stroke-linejoin="round"/>
<path d="M53.4049 291.544C53.4049 291.544 47.6924 299.953 47.6924 303.047C47.6924 306.142 44.6155 309.237 48.9907 310.568C53.366 311.9 56.0275 296.415 56.0275 294.652C56.0275 292.889 53.4049 291.544 53.4049 291.544Z" fill="white" stroke="#263238" stroke-linecap="round" stroke-linejoin="round"/>
<path d="M61.3242 291.1C61.3242 291.1 55.1703 289.795 53.4047 291.544C51.639 293.294 48.5751 308.805 49.0165 310.568C49.4579 312.331 53.8461 312.775 55.1703 311.012C56.4946 309.249 61.3242 291.1 61.3242 291.1Z" fill="white" stroke="#263238" stroke-linecap="round" stroke-linejoin="round"/>
<path d="M87.7186 298.177C87.7186 298.177 69.2439 291.531 65.2841 288.881C61.3243 286.23 59.1302 291.492 57.806 294.639C56.4817 297.785 53.4048 308.792 53.4048 311.887C53.4048 314.982 58.2474 316.3 59.1302 312.762C60.0131 309.223 67.0498 297.733 67.0498 297.733L76.2806 301.272C76.2806 301.272 77.1635 302.577 73.2037 305.254C69.2439 307.931 63.5314 313.65 65.2841 314.538C67.0368 315.425 72.3208 314.982 74.0865 313.232C75.8522 311.482 85.0701 309.249 85.0701 309.249C85.0701 309.249 93.431 314.564 95.1967 315.008C96.9624 315.452 107.946 313.232 107.946 313.232C107.946 313.232 95.6251 302.617 93.8725 301.298C91.9199 300.071 89.8601 299.027 87.7186 298.177Z" fill="white" stroke="#263238" stroke-linecap="round" stroke-linejoin="round"/>
<path d="M254.328 291.309H245.097C241.138 291.309 233.218 288.698 232.776 293.072C232.335 297.446 241.579 300.149 245.967 300.149C250.355 300.149 253.004 298.386 258.288 301.037C263.572 303.687 266.649 305.463 266.649 305.463L260.482 295.723L254.328 291.309Z" fill="white" stroke="#263238" stroke-linecap="round" stroke-linejoin="round"/>
<path d="M290.836 314.302C290.836 314.302 282.475 296.166 278.515 290.421C274.556 284.676 251.251 280.25 248.655 280.25C246.058 280.25 239.411 294.848 240.294 298.386C241.176 301.924 242.89 297.942 244.189 295.775C245.487 293.607 250.342 287.379 250.342 287.379C250.342 287.379 257.821 299.757 260.898 306.39C263.974 313.023 270.141 313.911 273.66 314.799C277.178 315.686 290.836 314.302 290.836 314.302Z" fill="white" stroke="#263238" stroke-linecap="round" stroke-linejoin="round"/>
<path d="M269.258 287.732C269.258 287.732 260.897 276.672 256.496 278.435C252.095 280.198 245.071 301.441 244.188 304.092C243.305 306.743 248.59 304.98 249.459 302.786C250.329 300.593 258.262 289.077 258.262 289.077L265.299 293.503" fill="white"/>
<path d="M269.258 287.732C269.258 287.732 260.897 276.672 256.496 278.435C252.095 280.198 245.071 301.441 244.188 304.092C243.305 306.743 248.59 304.98 249.459 302.786C250.329 300.593 258.262 289.077 258.262 289.077L265.299 293.503" stroke="#263238" stroke-linecap="round" stroke-linejoin="round"/>
<path d="M275.438 287.732C275.438 287.732 266.649 280.211 263.559 281.086C260.469 281.96 249.486 303.648 251.251 304.588C253.017 305.528 256.522 303.7 258.288 301.05C260.054 298.399 263.559 292.197 263.559 292.197L270.167 297.067" fill="white"/>
<path d="M275.438 287.732C275.438 287.732 266.649 280.211 263.559 281.086C260.469 281.96 249.486 303.648 251.251 304.588C253.017 305.528 256.522 303.7 258.288 301.05C260.054 298.399 263.559 292.197 263.559 292.197L270.167 297.067" stroke="#263238" stroke-linecap="round" stroke-linejoin="round"/>
<path d="M279.736 293.816C279.736 293.816 275.438 285.107 272.361 286.439C269.284 287.771 258.729 304.131 261.806 304.131C264.883 304.131 274.127 294.404 274.127 294.404C274.127 294.404 273.244 301.925 274.127 305.894" fill="white"/>
<path d="M279.736 293.816C279.736 293.816 275.438 285.107 272.361 286.439C269.284 287.771 258.729 304.131 261.806 304.131C264.883 304.131 274.127 294.404 274.127 294.404C274.127 294.404 273.244 301.925 274.127 305.894" stroke="#263238" stroke-linecap="round" stroke-linejoin="round"/>
<path d="M151.997 315.047H267.402V311.456H151.997V315.047Z" fill="#808080" stroke="#263238" stroke-linecap="round" stroke-linejoin="round"/>
<path d="M67.7509 235.961H183.662L207.148 315.047H91.2369L67.7509 235.961Z" fill="#808080" stroke="#263238" stroke-linecap="round" stroke-linejoin="round"/>
</svg>
