<svg width="369" height="326" viewBox="0 0 369 326" fill="none" xmlns="http://www.w3.org/2000/svg">
<path d="M575.092 325.806H-42" stroke="#263238" stroke-linecap="round" stroke-linejoin="round"/>
<path d="M242.057 138.603C242.057 138.603 238.179 165.176 242.057 170.171C245.934 175.167 254.791 179.029 267.526 182.906C280.261 186.783 288.567 178.463 300.735 192.316C312.904 206.168 322.894 241.585 329.53 252.664C336.166 263.744 343.935 280.907 345.663 293.7C347.391 306.493 341.786 313.623 330.706 315.293C319.627 316.962 300.212 289.823 298.049 285.946C295.885 282.069 285.241 269.291 285.241 269.291C285.241 269.291 279.143 314.145 279.143 316.353C279.143 318.56 279.695 325.762 279.695 325.762H120.241C120.241 325.762 132.424 259.329 135.735 236.067C139.046 212.805 137.405 197.311 150.691 189.005C163.978 180.699 176.161 182.921 185.019 180.147C193.876 177.374 199.409 175.167 199.975 170.186C200.541 165.205 200.527 141.943 200.527 141.943L242.057 138.603Z" fill="#AD667E" stroke="#263238" stroke-linecap="round" stroke-linejoin="round"/>
<path d="M125.991 299.61L53.0679 318.807L58.8326 325.835H141.993" fill="#AD667E"/>
<path d="M125.991 299.61L53.0679 318.807L58.8326 325.835H141.993" stroke="#263238" stroke-linecap="round" stroke-linejoin="round"/>
<path d="M43.7746 311.474C40.578 309.488 36.9971 308.203 33.2678 307.703C29.5385 307.202 25.7454 307.497 22.1385 308.569C10.3331 312.011 4.4231 322.35 4.4231 325.791H54.1134C53.4991 322.81 52.2601 319.992 50.4781 317.524C48.696 315.057 46.4114 312.994 43.7746 311.474Z" fill="#808080" stroke="#263238" stroke-linecap="round" stroke-linejoin="round"/>
<path d="M13.2808 299.668C13.2808 299.668 6.87709 309.02 6.87709 312.461C6.87709 315.902 3.43566 319.344 8.32918 320.825C13.2227 322.306 16.1995 305.084 16.1995 303.124C16.1995 301.164 13.2808 299.668 13.2808 299.668Z" fill="white" stroke="#263238" stroke-linecap="round" stroke-linejoin="round"/>
<path d="M22.1385 299.189C22.1385 299.189 15.2411 297.737 13.2808 299.668C11.3205 301.599 7.86452 318.865 8.35823 320.825C8.85193 322.785 13.7745 323.279 15.2411 321.319C16.7077 319.358 22.1385 299.189 22.1385 299.189Z" fill="white" stroke="#263238" stroke-linecap="round" stroke-linejoin="round"/>
<path d="M72.3225 314.015L60.7059 312.693C60.0491 311.906 59.3304 311.173 58.5568 310.501C56.3647 309.137 54.0508 307.98 51.6449 307.045C51.6449 307.045 30.9817 299.654 26.5529 296.706C22.124 293.758 19.67 299.61 18.2034 303.11C16.7368 306.609 13.2808 318.85 13.2808 322.292C13.2808 325.733 18.6826 327.2 19.67 323.264C20.6574 319.329 28.5277 306.551 28.5277 306.551L38.852 310.486C38.852 310.486 39.8394 311.938 35.4106 314.915C30.9817 317.892 24.5926 324.252 26.5529 325.239C28.5132 326.227 34.4232 325.733 36.398 323.787C38.3728 321.841 48.6971 319.431 48.6971 319.431C48.6971 319.431 58.0485 325.341 60.0089 325.835C61.2778 326.02 62.5603 326.098 63.8424 326.067H75.8366C76.3506 323.926 76.2968 321.688 75.6805 319.574C75.0642 317.46 73.9067 315.544 72.3225 314.015V314.015Z" fill="white" stroke="#263238" stroke-linecap="round" stroke-linejoin="round"/>
<path d="M36.6739 314.015C36.6739 314.015 41.0301 309.049 44.5587 308.453" stroke="#263238" stroke-linecap="round" stroke-linejoin="round"/>
<path d="M322.429 273.807C327.687 275.514 332.841 277.526 337.865 279.833C345.024 283.216 347.667 291.449 346.577 301.687C345.488 311.924 338.286 319.779 327.7 316.759C317.115 313.739 311.495 305.142 311.118 298.289C310.74 291.435 307.676 276.057 322.429 273.807Z" fill="white" stroke="#263238" stroke-linecap="round" stroke-linejoin="round"/>
<path d="M210.488 215.07C185.57 214.184 169.409 198.835 159.752 184.779C169.467 181.527 178.223 182.311 185.019 180.191C193.876 177.417 199.409 175.21 199.975 170.229C200.541 165.249 200.527 141.986 200.527 141.986L242.056 138.661C242.056 138.661 238.179 165.234 242.056 170.229C245.934 175.225 254.791 179.087 267.526 182.964C273.102 184.649 277.821 184.01 282.41 183.923C274.932 192.083 249.259 216.449 210.488 215.07Z" fill="white" stroke="#263238" stroke-linecap="round" stroke-linejoin="round"/>
<path d="M200.454 158.627C203.579 161.648 207.038 164.303 210.764 166.541C217.415 170.287 228.799 166.962 232.124 162.809C233.751 160.776 237.105 156.769 240.692 151.948C241.2 144.934 242.144 138.661 242.144 138.661L200.614 141.986C200.614 141.986 200.527 150.713 200.454 158.627Z" fill="#263238" stroke="#263238" stroke-linecap="round" stroke-linejoin="round"/>
<path d="M327.279 225.191C327.279 225.191 304.67 254.959 302.405 267.403C300.14 279.847 292.981 309.949 292.981 309.949C292.981 309.949 271.127 319.373 257.187 319.75C243.247 320.128 219.128 317.863 219.128 317.863C219.128 317.863 234.578 278.003 240.604 257.979C246.631 237.955 248.141 226.701 248.141 226.701C248.141 226.701 282.439 231.217 302.028 226.701L331.418 219.92L327.279 225.191Z" fill="white" stroke="#263238" stroke-linecap="round" stroke-linejoin="round"/>
<path d="M326.205 287.601C326.205 287.601 323.446 252.751 320.121 251.619C316.795 250.486 296.887 247.742 291.326 248.845C285.764 249.949 284.065 252.171 288.567 253.274C293.068 254.378 300.735 255.496 304.06 256.048C307.815 256.94 311.514 258.051 315.14 259.373C315.14 259.373 302.957 261.028 297.976 261.028C292.996 261.028 281.364 266.009 280.813 268.289C280.486 269.604 280.684 270.994 281.364 272.166C281.072 273.308 281.102 274.51 281.452 275.636C282.003 277.858 295.203 276.754 298.528 277.306C301.853 277.858 308.489 279.455 308.489 279.455C308.489 279.455 289.119 278.352 289.119 282.229C289.119 286.106 297.41 285.539 300.735 285.539C304.762 285.984 308.591 287.514 311.815 289.968C313.47 291.638 312.918 300.322 317.899 301.992C320.034 302.83 322.27 303.386 324.549 303.647" fill="white"/>
<path d="M326.205 287.601C326.205 287.601 323.446 252.751 320.121 251.619C316.795 250.486 296.887 247.742 291.326 248.845C285.764 249.949 284.065 252.171 288.567 253.274C293.068 254.378 300.735 255.496 304.06 256.048C307.815 256.94 311.514 258.051 315.14 259.373C315.14 259.373 302.957 261.028 297.976 261.028C292.996 261.028 281.364 266.009 280.813 268.289C280.486 269.604 280.684 270.994 281.364 272.166C281.072 273.308 281.102 274.51 281.452 275.636C282.003 277.858 295.203 276.754 298.528 277.306C301.853 277.858 308.489 279.455 308.489 279.455C308.489 279.455 289.119 278.352 289.119 282.229C289.119 286.106 297.41 285.539 300.735 285.539C304.762 285.984 308.591 287.514 311.815 289.968C313.47 291.638 312.918 300.322 317.899 301.992C320.034 302.83 322.27 303.386 324.549 303.647" stroke="#263238" stroke-linecap="round" stroke-linejoin="round"/>
<path d="M281.364 272.108C281.364 272.108 303.509 267.112 314.588 272.659" stroke="#263238" stroke-linecap="round" stroke-linejoin="round"/>
<path d="M161.248 242.209C161.248 242.209 152.39 273.211 154.06 284.32C155.73 295.428 160.696 308.119 161.248 309.789C161.8 311.459 159.302 324.586 159.302 324.586" stroke="#263238" stroke-linecap="round" stroke-linejoin="round"/>
<path d="M142.995 70.5585C147.976 65.5778 142.995 62.8043 143.547 57.2719C144.099 51.7394 149.631 48.966 152.405 47.8624C155.178 46.7588 154.06 43.9853 154.627 37.8866C155.193 31.7879 161.814 29.5807 166.243 27.9253C170.672 26.2699 167.913 23.569 170.12 19.0676C172.327 14.5661 184.525 15.7423 184.525 15.7423C184.525 15.7423 187.284 10.7617 190.609 10.7617C193.934 10.7617 196.142 15.1905 200.571 11.3135C204.999 7.43639 208.876 5.78101 214.975 7.98817C216.945 8.77203 218.968 9.41263 221.03 9.90493C223.098 9.41488 225.126 8.77425 227.1 7.98817C233.184 5.78101 237.061 7.43639 241.49 11.3135C245.919 15.1905 248.141 10.7617 251.466 10.7617C254.791 10.7617 257.55 15.7423 257.55 15.7423C257.55 15.7423 269.733 14.6387 271.955 19.0676C274.177 23.4964 271.389 26.2554 275.817 27.9253C280.246 29.5952 286.897 31.8024 287.434 37.8866C287.971 43.9708 286.882 46.7443 289.656 47.8624C292.429 48.9805 297.962 51.7249 298.514 57.2719C299.065 62.8188 294.157 65.5778 299.065 70.5585C303.973 75.5391 309.027 79.4162 304.598 82.7414C300.169 86.0667 295.74 87.1703 296.292 92.1509C296.844 97.1316 302.391 103.23 297.962 105.989C293.533 108.748 289.104 108.763 289.104 113.743C289.104 118.724 290.759 125.926 285.779 127.03C280.798 128.134 273.596 127.03 273.596 130.355C273.596 133.681 273.044 139.765 265.29 138.661C257.536 137.558 254.777 135.336 253.107 139.765C251.437 144.194 247.574 147.025 243.146 146.415C238.717 145.805 232.618 145.312 228.741 148.622C226.83 150.11 224.552 151.053 222.148 151.352V151.541C221.771 151.541 221.393 151.541 221.016 151.541C220.638 151.541 220.261 151.541 219.883 151.541V151.352C217.481 151.048 215.205 150.105 213.291 148.622C209.414 145.312 203.329 145.863 198.901 146.415C194.472 146.967 190.595 144.194 188.939 139.765C187.284 135.336 184.51 137.558 176.756 138.661C169.002 139.765 168.45 133.681 168.45 130.355C168.45 127.03 161.19 128.148 156.267 127.03C151.345 125.912 152.942 118.724 152.942 113.743C152.942 108.763 148.586 108.763 144.084 105.989C139.583 103.216 145.188 97.1316 145.74 92.1509C146.292 87.1703 141.863 86.0667 137.434 82.7414C133.005 79.4162 138.015 75.5391 142.995 70.5585Z" fill="#263238" stroke="#263238" stroke-linecap="round" stroke-linejoin="round"/>
<path d="M187.386 101.154C187.386 101.154 181.084 91.7008 177.294 96.1151C173.504 100.529 174.781 111.87 179.82 117.548C184.859 123.226 190.522 121.323 190.522 121.323" fill="white"/>
<path d="M187.386 101.154C187.386 101.154 181.084 91.7008 177.294 96.1151C173.504 100.529 174.781 111.87 179.82 117.548C184.859 123.226 190.522 121.323 190.522 121.323" stroke="#263238" stroke-linecap="round" stroke-linejoin="round"/>
<path d="M254.777 100.675C254.777 100.675 262.139 91.9621 265.377 96.8412C268.615 101.72 266.03 112.814 260.367 117.824C254.704 122.834 249.288 120.336 249.288 120.336" fill="white"/>
<path d="M254.777 100.675C254.777 100.675 262.139 91.9621 265.377 96.8412C268.615 101.72 266.03 112.814 260.367 117.824C254.704 122.834 249.288 120.336 249.288 120.336" stroke="#263238" stroke-linecap="round" stroke-linejoin="round"/>
<path d="M252.149 78.3126C251.038 79.3211 249.715 80.0677 248.278 80.4974C246.84 80.9271 245.325 81.029 243.843 80.7956C241.098 80.3971 238.436 79.5586 235.958 78.3126C235.958 78.3126 230.977 81.6379 227.245 80.3891C223.513 79.1403 219.346 77.8915 219.346 77.8915C216.616 79.567 213.359 80.1625 210.212 79.5614C204.404 78.7192 202.734 77.4849 202.734 77.4849C202.734 77.4849 199.409 80.3891 196.098 80.3891C194.015 80.3818 191.934 80.2412 189.869 79.9679C188.959 80.4193 187.975 80.6998 186.964 80.7956H184.06C184.06 80.7956 182.826 105.713 186.964 123.574C191.103 141.435 207.294 154.721 213.959 158.424C220.624 162.127 232.008 158.845 235.333 154.692C238.659 150.539 249.259 138.08 254.21 127.277C259.162 116.473 260.861 84.9196 260.861 82.8431C260.861 80.7666 254.181 83.2932 252.149 78.3126Z" fill="white" stroke="#263238" stroke-linecap="round" stroke-linejoin="round"/>
<path d="M228.712 92.8479C228.147 93.0885 227.668 93.4949 227.339 94.0135C227.009 94.532 226.845 95.1382 226.868 95.7521C227.013 100.457 227.71 111.638 230.977 113.598C235.13 116.081 254.515 117.954 259.22 114.832C261.703 113.177 267.105 98.6417 265.028 94.5033C262.952 90.3649 245.324 86.0231 228.712 92.8479Z" stroke="#263238" stroke-linecap="round" stroke-linejoin="round"/>
<path d="M215.89 92.8479C216.455 93.0885 216.934 93.4949 217.263 94.0135C217.593 94.532 217.757 95.1382 217.734 95.7521C217.589 100.457 216.892 111.638 213.625 113.598C209.472 116.081 190.086 117.954 185.382 114.832C182.899 113.177 177.497 98.6417 179.573 94.5033C181.65 90.3649 199.278 86.0231 215.89 92.8479Z" stroke="#263238" stroke-linecap="round" stroke-linejoin="round"/>
<path d="M228.712 92.8479C228.712 92.8479 221.016 91.178 216.021 93.6756" stroke="#263238" stroke-linecap="round" stroke-linejoin="round"/>
<path d="M225.997 97.8286H218.097" stroke="#263238" stroke-linecap="round" stroke-linejoin="round"/>
<path d="M238.455 108.632C239.835 108.632 240.953 106.584 240.953 104.058C240.953 101.532 239.835 99.4839 238.455 99.4839C237.076 99.4839 235.958 101.532 235.958 104.058C235.958 106.584 237.076 108.632 238.455 108.632Z" fill="#263238"/>
<path d="M210.212 108.632C211.592 108.632 212.71 106.584 212.71 104.058C212.71 101.532 211.592 99.4839 210.212 99.4839C208.833 99.4839 207.715 101.532 207.715 104.058C207.715 106.584 208.833 108.632 210.212 108.632Z" fill="#263238"/>
<path d="M225.14 106.962C225.14 106.962 224.719 112.771 226.795 114.847C228.872 116.923 231.355 118.593 228.451 120.655C225.546 122.717 223.063 124.387 218.91 120.655" stroke="#263238" stroke-linecap="round" stroke-linejoin="round"/>
<path d="M232.633 129.382C232.633 129.382 222.25 134.377 213.117 127.727" stroke="#263238" stroke-linecap="round" stroke-linejoin="round"/>
<path d="M246.34 94.9244C244.698 93.6966 242.774 92.9003 240.745 92.6085C238.715 92.3168 236.645 92.5389 234.723 93.2545" stroke="#263238" stroke-linecap="round" stroke-linejoin="round"/>
<path d="M212.289 94.5033C212.289 94.5033 202.734 89.5226 197.332 97.4075" stroke="#263238" stroke-linecap="round" stroke-linejoin="round"/>
<path d="M246.761 173.816L214.365 253.55L195.256 177.141" stroke="#263238" stroke-linecap="round" stroke-linejoin="round"/>
<path d="M210.212 257.296C210.212 258.201 210.481 259.085 210.983 259.838C211.486 260.59 212.2 261.176 213.036 261.522C213.872 261.868 214.791 261.959 215.679 261.782C216.566 261.606 217.381 261.17 218.021 260.531C218.66 259.891 219.096 259.076 219.273 258.189C219.449 257.301 219.358 256.382 219.012 255.546C218.666 254.71 218.08 253.996 217.328 253.493C216.575 252.99 215.691 252.722 214.786 252.722C213.573 252.722 212.41 253.204 211.552 254.062C210.694 254.92 210.212 256.083 210.212 257.296V257.296Z" fill="#263238" stroke="#263238" stroke-linecap="round" stroke-linejoin="round"/>
<path d="M111.572 325.82H236.713V321.943H111.572V325.82Z" fill="#808080" stroke="#263238" stroke-linecap="round" stroke-linejoin="round"/>
<path d="M20.2218 240.539H145.9L171.369 325.806H45.6913L20.2218 240.539Z" fill="#808080" stroke="#263238" stroke-linecap="round" stroke-linejoin="round"/>
</svg>
