<svg width="783" height="783" viewBox="0 0 783 783" fill="none" xmlns="http://www.w3.org/2000/svg">
<path d="M367.89 428.278C367.89 428.278 351.697 428.811 328.207 423.063C304.717 417.316 285.409 421.497 281.76 443.938C278.111 466.379 338.136 489.352 379.885 497.715C421.635 506.077 463.416 509.71 483.774 500.847C504.132 491.983 503.599 460.131 495.769 445.504C487.939 430.878 461.85 428.811 448.273 430.972C434.695 433.133 367.89 428.278 367.89 428.278Z" fill="#263238"/>
<path d="M449.948 506.766C425.941 506.766 398.082 502.146 379.744 498.482C337.697 490.072 277.234 466.88 280.977 443.813C282.386 435.184 286.16 428.779 292.174 424.802C300.364 419.368 312.892 418.538 328.395 422.296C351.494 427.949 367.702 427.511 367.859 427.495C368.532 427.495 434.742 432.193 448.069 430.126C460.205 428.247 487.986 429.468 496.38 445.144C501.266 454.258 503.725 470.638 498.98 484.294C496.114 492.531 490.93 498.497 484.009 501.52C475.396 505.341 463.259 506.766 449.948 506.766ZM310.95 421.576C303.684 421.576 297.623 423.142 293.035 426.133C287.397 429.875 283.858 435.92 282.527 444.095C279.098 465.189 336.961 488.35 380.042 496.978C408.387 502.647 459.516 510.587 483.398 500.11C489.912 497.26 494.798 491.638 497.492 483.808C502.049 470.685 499.606 454.462 495.002 445.864C487 430.925 460.08 429.844 448.32 431.645C434.868 433.728 371.022 429.28 367.796 429.045C366.841 429.045 350.695 429.374 327.941 423.815C322.387 422.395 316.683 421.643 310.95 421.576Z" fill="#263238"/>
<path d="M473.329 330.153C471.094 315.098 468.855 300.054 466.61 285.02C464.528 271.052 463.651 256.096 460.018 242.457C455.32 222.099 448.273 211.137 427.132 207.222C405.991 203.307 382.501 226.014 382.501 236.193C382.501 246.372 389.767 269.345 378.586 305.488C374.765 317.844 389.548 319.582 407.416 314.117L473.329 330.153Z" fill="#263238"/>
<path d="M473.329 330.936H473.141L407.369 314.962C394.058 319.018 383.55 318.862 379.181 314.555C376.973 312.347 376.472 309.215 377.693 305.284C386.353 277.284 383.863 257.036 382.391 244.931C381.957 242.046 381.69 239.139 381.592 236.224C381.592 231.291 386.682 223.696 394.261 217.432C399.304 213.251 412.584 203.792 427.147 206.47C449.197 210.541 456.134 222.694 460.66 242.284C462.972 251.946 464.605 261.757 465.546 271.647C466.078 276.032 466.611 280.573 467.268 284.926C468.479 293.049 469.69 301.176 470.901 309.309L474.033 330.043C474.056 330.171 474.046 330.302 474.005 330.425C473.964 330.548 473.893 330.659 473.798 330.748C473.664 330.856 473.501 330.921 473.329 330.936ZM407.416 313.334H407.604L472.389 329.182L469.476 309.591C468.255 301.469 467.044 293.336 465.843 285.193C465.185 280.824 464.653 276.282 464.121 271.882C463.186 262.06 461.564 252.317 459.266 242.723C454.772 223.273 448.304 211.998 426.991 208.052C417.344 206.266 405.537 210.228 395.389 218.669C388.264 224.604 383.284 231.823 383.284 236.255C383.386 239.107 383.647 241.951 384.067 244.774C385.633 257.005 388.091 277.457 379.369 305.77C378.335 309.121 378.695 311.705 380.465 313.475C384.302 317.327 394.559 317.311 407.212 313.475C407.27 313.415 407.339 313.367 407.416 313.334Z" fill="#263238"/>
<path d="M416.561 298.833C416.561 298.833 390.722 302.356 378.586 305.488C366.449 308.62 362.143 313.067 357.773 321.352C353.404 329.636 346.905 360.408 340.641 373.327C334.377 386.247 322.993 389.66 321.035 403.363C319.078 417.065 330.04 421.763 338.261 423.329C344.348 424.367 350.493 425.021 356.662 425.287C356.662 425.287 369.973 456.607 395.812 458.956C421.651 461.305 440.834 443.296 452.579 436.64C464.324 429.985 465.107 414.716 465.499 397.099C465.89 379.481 476.304 339.862 473.564 328.9C470.823 317.938 466.72 316.137 448.93 306.976C441.32 303.108 427.523 298.05 416.561 298.833Z" fill="#AD667E"/>
<path d="M400.463 459.943C398.897 459.943 397.331 459.943 395.765 459.739C371.476 457.531 357.946 429.985 356.16 426.039C350.118 425.768 344.098 425.12 338.136 424.097C330.556 422.656 318.169 418.021 320.268 403.253C321.442 395.11 325.827 390.475 330.462 385.558C334.289 381.886 337.494 377.618 339.952 372.92C343.272 366.077 346.733 353.924 349.803 343.166C352.496 333.77 355.049 324.797 357.084 320.897C361.391 312.692 365.87 307.931 378.413 304.689C390.44 301.557 416.217 298.05 416.467 298.018C427.226 297.235 440.881 301.996 449.259 306.287L450.825 307.085C467.159 315.448 471.559 317.703 474.315 328.68C475.881 335.085 473.282 350.197 470.51 366.264C468.505 377.743 466.454 389.598 466.282 397.146C465.921 413.401 465.546 430.22 452.971 437.345C450.606 438.676 447.991 440.477 444.953 442.497C433.912 449.936 419.098 459.943 400.463 459.943ZM416.639 299.6C415.7 299.741 390.566 303.202 378.789 306.24C366.747 309.372 362.628 313.694 358.431 321.649C356.458 325.408 353.937 334.255 351.259 343.573C348.127 354.363 344.697 366.593 341.315 373.562C338.785 378.402 335.49 382.801 331.559 386.591C326.861 391.524 322.867 395.768 321.787 403.426C319.955 416.236 329.789 420.871 338.371 422.515C344.421 423.544 350.53 424.192 356.662 424.457C356.809 424.462 356.952 424.509 357.074 424.593C357.196 424.676 357.292 424.792 357.351 424.927C357.476 425.24 370.787 455.84 395.843 458.126C416.201 459.974 432.284 449.075 444.044 441.135C447.176 439.052 449.745 437.267 452.156 435.904C463.118 429.64 464.262 415.875 464.684 397.036C464.857 389.379 466.924 377.446 468.928 365.92C471.559 350.777 474.284 335.117 472.765 329.041C470.197 318.752 466.329 316.779 450.105 308.463L448.539 307.665C440.443 303.515 427.1 298.864 416.639 299.6Z" fill="#263238"/>
<path d="M335.333 381.345C329.366 388.486 322.507 393.012 321.035 403.363C320.696 405.437 320.696 407.553 321.035 409.627C322.601 412.039 327.55 417.755 337.102 415.03C349.067 411.6 347.782 394.938 340.516 384.681C339.946 383.782 339.187 383.017 338.292 382.441C337.397 381.865 336.387 381.491 335.333 381.345Z" fill="white"/>
<path d="M332.279 416.471C329.925 416.466 327.61 415.871 325.544 414.741C323.479 413.612 321.73 411.983 320.456 410.003C320.392 409.915 320.349 409.813 320.33 409.705C319.958 407.573 319.932 405.394 320.252 403.253C321.427 395.11 325.811 390.459 330.463 385.558C331.872 383.992 333.328 382.52 334.722 380.86C334.805 380.756 334.914 380.675 335.037 380.625C335.161 380.576 335.295 380.56 335.427 380.578C336.595 380.724 337.718 381.122 338.718 381.744C339.719 382.366 340.572 383.197 341.221 384.18C346.31 391.368 348.237 401.014 345.919 407.67C345.283 409.619 344.171 411.379 342.684 412.79C341.196 414.201 339.38 415.218 337.4 415.75C335.735 416.228 334.011 416.471 332.279 416.471ZM321.85 409.267C323.416 411.71 328.114 416.721 336.946 414.215C338.689 413.76 340.288 412.871 341.594 411.63C342.9 410.39 343.871 408.839 344.416 407.121C346.592 400.857 344.76 391.869 339.952 385.072C339.46 384.33 338.826 383.692 338.087 383.195C337.348 382.698 336.519 382.352 335.646 382.175C334.315 383.741 332.937 385.213 331.59 386.623C326.892 391.555 322.899 395.815 321.818 403.473C321.514 405.393 321.525 407.35 321.85 409.267Z" fill="#263238"/>
<path d="M414.729 351.701C425.691 346.69 431.61 338.03 436.653 321.602C438.498 315.678 439.989 309.648 441.116 303.546C433.678 300.696 424.422 298.269 416.592 298.848C416.592 298.848 405.443 300.414 394.34 302.293C393.416 308.056 391.208 324.468 393.792 336.745C396.955 351.701 403.783 356.712 414.729 351.701Z" fill="white"/>
<path d="M407.275 354.363C405.569 354.382 403.884 353.996 402.358 353.235C397.926 351.012 394.856 345.64 392.961 336.824C390.378 324.625 392.476 308.526 393.51 302.153C393.533 301.993 393.607 301.846 393.719 301.73C393.832 301.615 393.977 301.538 394.136 301.51C405.098 299.6 416.311 298.065 416.42 298.05C425.581 297.408 435.964 300.759 441.335 302.748C441.504 302.816 441.644 302.941 441.733 303.1C441.821 303.26 441.852 303.445 441.821 303.625C440.68 309.779 439.174 315.861 437.311 321.837C432.096 338.875 425.848 347.441 414.995 352.421C412.588 353.606 409.957 354.268 407.275 354.363ZM395.029 302.951C393.995 309.575 392.1 324.875 394.559 336.495C396.297 344.701 399.163 349.869 403.094 351.842C406.147 353.408 409.859 353.094 414.447 350.996C424.83 346.298 430.843 337.92 435.901 321.383C437.655 315.716 439.087 309.954 440.192 304.126C434.805 302.106 425.127 299.083 416.702 299.694C416.561 299.616 405.771 301.088 395.029 302.951Z" fill="#263238"/>
<path d="M362.926 409.627C362.828 409.648 362.726 409.648 362.628 409.627C362.532 409.589 362.445 409.533 362.372 409.461C362.299 409.389 362.241 409.303 362.201 409.208C362.162 409.113 362.142 409.011 362.142 408.908C362.143 408.805 362.165 408.704 362.205 408.609C362.284 408.421 370.035 389.112 370.035 383.851C370.035 380.155 368.344 376.412 366.387 372.074C365.525 370.18 364.648 368.238 363.818 366.124C361.109 359.139 367.263 348.224 368.109 346.783C368.485 343.949 372.697 312.504 376.769 306.631C376.827 306.547 376.901 306.475 376.987 306.42C377.073 306.365 377.169 306.328 377.27 306.31C377.371 306.293 377.474 306.295 377.573 306.318C377.673 306.341 377.767 306.384 377.85 306.443C378.019 306.56 378.135 306.74 378.173 306.942C378.211 307.144 378.168 307.353 378.053 307.524C374.107 313.224 369.675 346.815 369.644 347.144C369.624 347.248 369.587 347.349 369.534 347.441C369.534 347.566 362.722 358.951 365.29 365.56C366.089 367.627 366.966 369.553 367.812 371.432C369.847 375.927 371.601 379.826 371.601 383.851C371.601 389.41 364.038 408.39 363.771 409.189C363.703 409.348 363.581 409.479 363.427 409.559C363.273 409.639 363.096 409.663 362.926 409.627Z" fill="#263238"/>
<path d="M325.733 370.477L331.606 364.213C335.466 366.321 339.533 368.026 343.742 369.303C359.606 374.58 366.841 377.916 367.624 387.312C367.624 387.312 378.194 380.656 388.765 381.831C399.335 383.005 408.731 387.312 411.863 387.703L414.995 388.095L415.778 393.576L409.906 424.504L364.1 419.806L332.78 392.401L325.733 370.477Z" fill="white"/>
<path d="M409.906 425.287H409.827L364.022 420.589C363.86 420.574 363.706 420.508 363.583 420.401L332.263 392.996C332.154 392.906 332.073 392.786 332.028 392.652L324.981 370.728C324.942 370.592 324.939 370.449 324.972 370.311C325.005 370.174 325.073 370.048 325.169 369.945L331.042 363.681C331.165 363.553 331.329 363.47 331.505 363.448C331.682 363.425 331.861 363.463 332.013 363.555C335.825 365.63 339.839 367.309 343.993 368.567C359.653 373.781 366.95 377.133 368.266 386.043C371.241 384.383 379.964 380.077 388.859 381.063C394.989 381.894 401.015 383.369 406.836 385.464C408.506 386.075 410.217 386.567 411.957 386.936L415.089 387.327C415.262 387.349 415.422 387.427 415.547 387.548C415.671 387.67 415.752 387.829 415.778 388.001L416.561 393.482C416.569 393.565 416.569 393.649 416.561 393.732L410.689 424.708C410.645 424.88 410.544 425.032 410.401 425.137C410.258 425.243 410.083 425.296 409.906 425.287ZM364.492 419.023L409.326 423.611L415.042 393.513L414.369 388.815L411.832 388.486C409.987 388.11 408.175 387.586 406.413 386.92C400.689 384.857 394.763 383.403 388.733 382.582C378.554 381.439 368.203 387.891 368.109 387.954C367.992 388.019 367.86 388.054 367.725 388.054C367.591 388.054 367.459 388.019 367.342 387.954C367.22 387.897 367.116 387.809 367.039 387.699C366.962 387.589 366.915 387.461 366.903 387.327C366.167 378.432 359.214 375.206 343.554 369.992C339.508 368.717 335.579 367.098 331.809 365.153L326.688 370.618L333.516 391.9L364.492 419.023Z" fill="#263238"/>
<path d="M323.776 369.303L360.968 401.014L364.883 394.75L418.127 393.576L414.995 428.028L364.492 425.679L360.968 428.028L333.563 407.67L323.776 369.303Z" fill="#263238"/>
<path d="M414.995 428.811L364.742 426.462L361.438 428.67C361.304 428.762 361.146 428.811 360.984 428.811C360.822 428.811 360.663 428.762 360.53 428.67L333.125 408.312C332.98 408.205 332.88 408.049 332.843 407.873L322.993 369.49C322.948 369.329 322.958 369.157 323.02 369.002C323.082 368.846 323.194 368.715 323.337 368.629C323.476 368.541 323.64 368.501 323.805 368.515C323.969 368.529 324.124 368.597 324.245 368.707L360.749 399.824L364.194 394.327C364.262 394.218 364.357 394.128 364.469 394.065C364.581 394.002 364.708 393.968 364.836 393.967L418.08 392.793C418.191 392.791 418.302 392.812 418.404 392.855C418.507 392.898 418.599 392.962 418.675 393.043C418.747 393.124 418.802 393.218 418.837 393.32C418.872 393.422 418.886 393.53 418.879 393.638L415.747 428.09C415.728 428.28 415.642 428.458 415.504 428.59C415.367 428.722 415.186 428.8 414.995 428.811ZM364.492 424.896L414.243 427.213L417.234 394.327L365.29 395.47L361.595 401.374C361.538 401.47 361.461 401.552 361.369 401.614C361.277 401.676 361.172 401.717 361.062 401.734C360.951 401.751 360.839 401.745 360.731 401.715C360.623 401.685 360.522 401.633 360.436 401.562L325.138 371.464L334.252 407.168L360.999 427.041L364.053 424.99C364.188 424.919 364.34 424.887 364.492 424.896Z" fill="#263238"/>
<path d="M453.362 358.732L452.579 403.363C452.579 403.363 429.481 416.283 416.561 419.806C409.439 421.934 402.068 423.118 394.637 423.33C393.463 423.33 388.373 415.108 385.633 412.367C382.892 409.627 380.684 409.58 375.673 407.074C368.689 403.582 365.666 402.971 366.058 404.537C366.449 406.103 366.841 407.669 370.364 409.627C373.888 411.584 376.237 413.15 376.237 413.15L377.02 414.716C377.02 414.716 368.407 413.542 364.883 412.759C361.36 411.976 352.355 405.712 352.355 405.712C352.355 405.712 348.518 405.477 351.259 410.175C353.999 414.873 356.662 415.108 356.662 415.108C357.187 417.925 358.552 420.518 360.577 422.547C362.317 424.089 364.147 425.527 366.058 426.853C366.058 426.853 358.619 424.896 359.402 426.853C360.185 428.811 364.883 429.594 370.756 432.334C376.628 435.075 389.939 435.466 397.378 436.641C410.881 438.383 424.534 438.646 438.094 437.424C453.754 435.858 477.244 425.287 481.55 421.764C485.857 418.24 483.116 378.698 481.942 369.694C480.767 360.689 478.418 343.855 476.852 336.025C475.286 328.195 469.022 317.233 465.107 314.884C461.192 312.535 454.145 319.973 453.362 358.732Z" fill="white"/>
<path d="M421.651 438.958C413.496 439.01 405.349 438.486 397.268 437.392C395.013 437.032 392.178 436.75 389.172 436.453C382.36 435.764 374.624 434.981 370.38 433.023C368.25 432.037 366.308 431.316 364.586 430.674C361.375 429.468 359.261 428.685 358.635 427.119C358.529 426.901 358.491 426.657 358.524 426.417C358.557 426.178 358.661 425.953 358.823 425.773C359.402 425.099 360.937 425.083 362.675 425.334C361.892 424.708 360.999 423.972 360.013 423.11C357.959 421.107 356.542 418.541 355.941 415.734C354.908 415.39 352.715 414.278 350.539 410.551C349.395 408.578 349.145 407.121 349.787 406.072C350.081 405.677 350.471 405.362 350.921 405.16C351.37 404.957 351.864 404.872 352.355 404.913C352.503 404.915 352.646 404.964 352.762 405.054C352.841 405.054 361.673 411.24 365.008 411.976C367.577 412.555 372.995 413.338 375.61 413.714C375.015 413.323 372.885 411.96 369.973 410.332C366.152 408.218 365.682 406.37 365.275 404.757C365.184 404.502 365.175 404.225 365.248 403.964C365.321 403.704 365.472 403.472 365.682 403.3C366.199 402.893 367.248 402.032 375.986 406.432C377.693 407.294 379.118 407.857 380.277 408.343C382.474 409.062 384.481 410.266 386.149 411.866C387.784 413.683 389.301 415.603 390.691 417.614C391.875 419.417 393.239 421.096 394.762 422.625C402.07 422.363 409.315 421.179 416.326 419.101C428.087 415.969 448.68 404.663 451.765 402.956L452.548 358.779C453.065 333.504 456.478 317.264 461.944 314.258C462.479 313.931 463.094 313.758 463.721 313.758C464.348 313.758 464.963 313.931 465.499 314.258C469.711 316.779 476.053 328.117 477.604 335.915C479.154 343.714 481.55 360.846 482.709 369.631C483.226 373.625 487.219 418.177 482.036 422.406C477.541 426.086 453.707 436.688 438.188 438.238C432.613 438.802 427.006 438.958 421.651 438.958ZM360.279 426.79C360.874 427.605 362.8 428.356 365.196 429.218C366.95 429.86 368.923 430.596 371.1 431.614C375.046 433.462 382.642 434.229 389.328 434.902C392.351 435.216 395.201 435.497 397.519 435.858C410.953 437.6 424.539 437.863 438.031 436.641C453.315 435.075 476.68 424.739 481.065 421.153C484.745 418.146 482.631 381.345 481.174 369.788C480.031 361.018 477.682 344.074 476.1 336.166C474.519 328.258 468.27 317.672 464.716 315.557C464.418 315.37 464.073 315.27 463.721 315.27C463.369 315.27 463.024 315.37 462.727 315.557C460.91 316.575 454.897 322.667 454.161 358.748L453.378 403.379C453.376 403.515 453.337 403.648 453.265 403.764C453.194 403.88 453.092 403.974 452.971 404.036C452.751 404.177 429.653 417.05 416.78 420.558C409.589 422.691 402.151 423.886 394.653 424.113C393.729 424.113 392.774 422.969 389.485 418.475C388.136 416.536 386.671 414.68 385.1 412.916C383.565 411.485 381.73 410.415 379.729 409.784C378.492 409.267 377.098 408.703 375.328 407.826C369.393 404.851 367.498 404.569 366.872 404.538C367.248 406.01 367.686 407.278 370.756 408.985C374.263 410.943 376.659 412.524 376.691 412.54C376.799 412.619 376.89 412.721 376.957 412.837L377.74 414.403C377.81 414.528 377.847 414.668 377.847 414.811C377.847 414.953 377.81 415.093 377.74 415.218C377.657 415.335 377.542 415.427 377.409 415.482C377.276 415.538 377.13 415.554 376.988 415.531C376.644 415.531 368.313 414.341 364.789 413.573C361.266 412.806 353.608 407.513 352.261 406.542C352.081 406.54 351.902 406.576 351.737 406.649C351.572 406.722 351.425 406.83 351.306 406.965C351.165 407.184 350.977 407.92 352.073 409.815C354.532 414.028 356.865 414.372 356.881 414.372C357.049 414.392 357.206 414.465 357.33 414.581C357.454 414.696 357.538 414.848 357.57 415.014C358.074 417.653 359.349 420.084 361.234 421.998C362.947 423.522 364.751 424.939 366.637 426.242C366.794 426.345 366.91 426.5 366.962 426.68C367.015 426.86 367.001 427.053 366.923 427.224C366.845 427.394 366.709 427.531 366.539 427.61C366.368 427.689 366.175 427.703 365.995 427.652C364.139 427.075 362.207 426.785 360.263 426.79H360.279Z" fill="#263238"/>
<path d="M356.662 415.108C356.662 415.108 365.979 420.636 372.964 422.186L356.662 415.108Z" fill="white"/>
<path d="M372.964 422.954H372.791C365.776 421.388 356.646 416.016 356.27 415.797C356.091 415.69 355.962 415.516 355.909 415.314C355.856 415.112 355.885 414.898 355.988 414.717C356.04 414.628 356.109 414.551 356.19 414.49C356.272 414.429 356.365 414.384 356.465 414.359C356.564 414.335 356.667 414.33 356.768 414.345C356.869 414.361 356.966 414.397 357.053 414.45C357.147 414.45 366.355 419.931 373.12 421.435C373.328 421.455 373.519 421.558 373.651 421.719C373.783 421.881 373.846 422.088 373.825 422.296C373.804 422.504 373.702 422.695 373.54 422.827C373.379 422.959 373.171 423.021 372.964 423.001V422.954Z" fill="#263238"/>
<path d="M366.058 426.853C369.015 427.961 372.127 428.606 375.281 428.764L366.058 426.853Z" fill="white"/>
<path d="M375.281 429.547C372.029 429.392 368.821 428.726 365.776 427.573C365.584 427.5 365.428 427.353 365.343 427.166C365.258 426.978 365.25 426.764 365.322 426.571C365.358 426.474 365.413 426.385 365.485 426.31C365.556 426.234 365.641 426.174 365.736 426.131C365.83 426.089 365.932 426.066 366.036 426.064C366.14 426.061 366.243 426.079 366.34 426.117C369.208 427.189 372.223 427.818 375.281 427.981C375.489 427.981 375.688 428.063 375.835 428.21C375.982 428.357 376.064 428.556 376.064 428.764C376.064 428.971 375.982 429.17 375.835 429.317C375.688 429.464 375.489 429.547 375.281 429.547Z" fill="#263238"/>
<path d="M357.852 419.086C362.764 422.54 368.284 425.038 374.122 426.446L357.852 419.086Z" fill="white"/>
<path d="M374.123 427.229H373.935C368.009 425.789 362.412 423.233 357.445 419.696C357.281 419.569 357.174 419.383 357.148 419.177C357.121 418.972 357.177 418.764 357.304 418.6C357.431 418.436 357.617 418.33 357.823 418.303C358.028 418.277 358.236 418.333 358.4 418.459C363.228 421.84 368.646 424.288 374.373 425.678C374.474 425.701 374.569 425.743 374.653 425.802C374.737 425.862 374.808 425.938 374.862 426.025C374.916 426.113 374.952 426.211 374.968 426.313C374.983 426.414 374.978 426.518 374.953 426.618C374.912 426.803 374.805 426.967 374.652 427.079C374.5 427.192 374.311 427.245 374.123 427.229Z" fill="#263238"/>
<path d="M442.76 436.734C458.06 433.9 477.651 424.942 481.55 421.764C485.857 418.24 483.116 378.698 481.942 369.694C480.767 360.689 478.418 343.855 476.852 336.025C475.286 328.195 469.022 317.233 465.107 314.884C461.192 312.535 454.145 319.973 453.362 358.732L452.579 403.363C452.579 403.363 443.606 408.374 433.709 413.01C437.53 417.159 443.966 425.929 442.76 436.734Z" fill="#AD667E"/>
<path d="M442.76 437.517C442.565 437.512 442.377 437.44 442.228 437.314C442.142 437.229 442.075 437.126 442.035 437.012C441.994 436.898 441.98 436.776 441.993 436.656C443.152 426.18 436.935 417.676 433.129 413.542C433.05 413.451 432.992 413.343 432.96 413.227C432.927 413.11 432.921 412.988 432.942 412.869C432.963 412.746 433.015 412.631 433.091 412.533C433.168 412.434 433.267 412.356 433.38 412.305C441.977 408.28 449.964 403.911 451.796 402.909L452.579 358.732C453.096 333.457 456.51 317.217 461.975 314.211C462.511 313.884 463.126 313.711 463.753 313.711C464.38 313.711 464.995 313.884 465.53 314.211C469.742 316.732 476.085 328.07 477.635 335.868C479.185 343.667 481.581 360.799 482.74 369.584C483.257 373.578 487.25 418.13 482.067 422.359C477.901 425.772 458.06 434.699 442.917 437.502L442.76 437.517ZM434.93 413.276C438.798 417.692 444.326 425.804 443.575 435.779C459.235 432.647 477.557 423.956 480.986 421.153C484.667 418.146 482.552 381.345 481.096 369.788C479.953 361.018 477.604 344.074 476.022 336.166C474.441 328.258 468.192 317.672 464.637 315.557C464.34 315.37 463.995 315.27 463.643 315.27C463.291 315.27 462.946 315.37 462.649 315.557C460.832 316.575 454.819 322.667 454.083 358.748L453.3 403.379C453.298 403.515 453.259 403.648 453.187 403.764C453.115 403.88 453.013 403.974 452.892 404.036C452.877 404.083 444.42 408.813 434.993 413.276H434.93Z" fill="#263238"/>
<path d="M402.671 294.181C402.671 294.181 399.163 314.539 398.818 327.067C398.474 339.595 407.917 352.264 421.212 336.166C434.508 320.067 432.409 293.461 432.409 293.461C427.773 295.635 422.735 296.821 417.616 296.945C412.496 297.069 407.407 296.128 402.671 294.181Z" fill="white"/>
<path d="M409.326 344.575C408.309 344.579 407.3 344.393 406.351 344.027C401.308 342.148 397.816 335.007 398.035 327.068C398.38 314.54 401.856 294.182 401.888 294.041C401.913 293.928 401.96 293.821 402.028 293.727C402.095 293.633 402.181 293.553 402.279 293.493C402.387 293.442 402.505 293.416 402.624 293.416C402.743 293.416 402.86 293.442 402.968 293.493C407.602 295.384 412.575 296.301 417.579 296.185C422.582 296.069 427.508 294.923 432.049 292.819C432.163 292.759 432.29 292.729 432.419 292.73C432.548 292.731 432.675 292.764 432.788 292.826C432.901 292.888 432.997 292.977 433.068 293.085C433.138 293.193 433.181 293.317 433.192 293.446C433.286 294.542 435.165 320.553 421.823 336.714C416.749 342.821 412.505 344.575 409.326 344.575ZM403.281 295.262C402.592 299.428 399.899 316.246 399.601 327.099C399.398 334.396 402.467 340.895 406.899 342.571C410.908 344.137 415.653 341.694 420.617 335.681C432.002 321.884 431.892 299.944 431.689 294.698C422.655 298.581 412.462 298.783 403.281 295.262Z" fill="#263238"/>
<path d="M403.36 320.522H403.234C403.132 320.505 403.035 320.468 402.947 320.413C402.86 320.358 402.784 320.286 402.724 320.201C402.664 320.117 402.622 320.021 402.6 319.92C402.577 319.82 402.575 319.715 402.592 319.613C403.61 313.819 402.937 303.108 402.937 302.998C402.928 302.896 402.94 302.793 402.972 302.696C403.004 302.599 403.055 302.509 403.122 302.431C403.189 302.354 403.271 302.291 403.363 302.246C403.455 302.2 403.555 302.174 403.657 302.168C403.864 302.159 404.066 302.231 404.221 302.369C404.376 302.506 404.471 302.698 404.487 302.904C404.487 303.343 405.192 313.866 404.127 319.88C404.097 320.061 404.003 320.225 403.862 320.343C403.722 320.461 403.543 320.524 403.36 320.522Z" fill="#263238"/>
<path d="M324.825 399.198C324.551 400.086 324.462 401.021 324.564 401.945C324.667 402.869 324.958 403.762 325.42 404.569C326.986 407.153 335.364 412.117 335.364 410.128C335.364 408.139 331.183 405.43 330.979 403.974C330.699 402.781 330.234 401.64 329.601 400.591C329.601 400.591 326.61 396.817 324.825 399.198Z" fill="white"/>
<path d="M334.832 411.365C332.404 411.365 326.172 407.294 324.762 404.976C324.235 404.074 323.902 403.071 323.786 402.033C323.67 400.994 323.773 399.943 324.089 398.947C324.116 398.869 324.153 398.796 324.198 398.728C324.425 398.395 324.728 398.121 325.082 397.931C325.437 397.74 325.832 397.637 326.234 397.631C328.16 397.631 329.977 399.855 330.181 400.106C330.904 401.265 331.433 402.534 331.747 403.864C332.16 404.606 332.688 405.278 333.313 405.853C334.659 407.247 336.069 408.687 336.069 410.128C336.077 410.398 335.994 410.664 335.831 410.88C335.669 411.096 335.438 411.251 335.176 411.318C335.063 411.345 334.948 411.361 334.832 411.365ZM325.53 399.652C325.314 400.415 325.252 401.215 325.349 402.003C325.446 402.79 325.699 403.551 326.093 404.24C327.362 406.307 332.843 409.58 334.503 409.878C333.933 408.805 333.181 407.841 332.279 407.027C331.34 406.28 330.624 405.289 330.212 404.162C329.949 403.058 329.515 402.001 328.928 401.03C328.263 400.145 327.32 399.511 326.25 399.229C326.105 399.236 325.964 399.279 325.838 399.352C325.713 399.426 325.607 399.529 325.53 399.652Z" fill="#263238"/>
<path d="M320.816 387.593C320.816 387.593 320.44 393.403 321.427 396.112C322.413 398.822 332.89 406.057 335.521 404.678C338.152 403.3 329.93 396.112 327.973 393.857C325.738 391.603 323.347 389.509 320.816 387.593Z" fill="white"/>
<path d="M334.722 405.634C333.772 405.586 332.839 405.369 331.966 404.992C328.004 403.426 321.568 398.806 320.691 396.379C319.657 393.544 320.033 387.781 320.049 387.546C320.055 387.403 320.101 387.265 320.181 387.146C320.262 387.028 320.373 386.933 320.503 386.873C320.633 386.818 320.774 386.798 320.914 386.815C321.054 386.831 321.188 386.884 321.301 386.967C323.892 388.933 326.341 391.078 328.63 393.388C329.037 393.857 329.726 394.546 330.525 395.345C334.315 399.135 337.181 402.188 336.867 404.146C336.837 404.422 336.734 404.684 336.569 404.907C336.404 405.13 336.183 405.305 335.928 405.414C335.549 405.583 335.136 405.658 334.722 405.634ZM321.552 389.144C321.413 391.396 321.619 393.656 322.163 395.846C322.773 397.506 328.427 401.922 332.545 403.535C334.409 404.271 335.067 404.052 335.223 403.974C335.536 402.533 331.402 398.399 329.429 396.41C328.583 395.58 327.863 394.844 327.44 394.374C325.603 392.494 323.635 390.746 321.552 389.144Z" fill="#263238"/>
<path d="M320.847 380.531C320.847 380.531 320.064 386.294 320.847 389.065C321.63 391.837 331.574 399.793 334.362 398.602C337.149 397.412 329.398 389.661 327.612 387.28C325.518 384.875 323.258 382.619 320.847 380.531Z" fill="white"/>
<path d="M333.688 399.511C332.658 399.442 331.654 399.154 330.744 398.665C326.892 396.833 320.8 391.759 320.096 389.269C319.266 386.372 320.096 380.656 320.096 380.405C320.113 380.265 320.169 380.132 320.258 380.022C320.346 379.911 320.464 379.827 320.597 379.779C320.728 379.732 320.87 379.72 321.007 379.745C321.144 379.77 321.273 379.83 321.38 379.92C323.828 382.049 326.125 384.346 328.254 386.795C328.615 387.296 329.257 388.032 330.008 388.893C333.516 392.933 336.147 396.175 335.709 398.117C335.65 398.384 335.526 398.632 335.349 398.84C335.171 399.047 334.945 399.208 334.691 399.307C334.375 399.444 334.033 399.514 333.688 399.511ZM321.427 382.128C321.136 384.367 321.183 386.637 321.568 388.862C322.053 390.553 327.409 395.361 331.386 397.256C333.203 398.117 333.861 397.96 334.017 397.882C334.44 396.457 330.619 392.056 328.771 389.927C328.004 389.034 327.33 388.267 326.955 387.75C325.249 385.746 323.402 383.867 321.427 382.128Z" fill="#263238"/>
<path d="M325.624 373.969C325.624 373.969 319.657 370.837 318.67 374.768C317.684 378.699 322.241 382.911 326.422 386.294C330.603 389.676 332.373 389.065 332.373 385.886C332.373 382.707 325.624 373.969 325.624 373.969Z" fill="white"/>
<path d="M330.729 389.347C328.909 389.06 327.226 388.205 325.921 386.904C321.129 383.021 316.838 378.839 317.903 374.58C317.998 374.084 318.212 373.619 318.525 373.224C318.839 372.828 319.243 372.515 319.704 372.309C322.069 371.26 325.592 373.077 325.968 373.28C326.072 373.326 326.159 373.403 326.219 373.499C326.939 374.408 333.14 382.551 333.14 385.887C333.14 387.593 332.655 388.674 331.715 389.128C331.408 389.278 331.07 389.353 330.729 389.347ZM321.333 373.546C320.974 373.539 320.617 373.603 320.284 373.734C320.043 373.849 319.833 374.02 319.672 374.232C319.511 374.445 319.404 374.693 319.36 374.956C318.514 378.385 322.664 382.3 326.845 385.683C329.742 388.016 330.744 387.828 330.995 387.719C331.245 387.609 331.527 386.889 331.527 385.887C331.527 383.553 326.955 377.07 325.044 374.596C323.921 374.005 322.691 373.648 321.427 373.546H321.333Z" fill="#263238"/>
<path d="M325.075 498.31C325.075 498.31 317.245 502.491 302.635 503.008C288.024 503.524 276.013 495.694 282.793 489.43C286.352 486.179 290.579 483.747 295.179 482.305C299.778 480.863 304.638 480.446 309.415 481.084C318.811 482.65 332.905 486.298 332.905 486.298L325.075 498.31Z" fill="white"/>
<path d="M301.272 503.744C291.485 503.744 282.48 500.095 280.476 495.162C280.043 494.05 279.983 492.827 280.305 491.677C280.627 490.528 281.314 489.514 282.261 488.788C285.903 485.446 290.238 482.947 294.955 481.469C299.673 479.991 304.658 479.571 309.556 480.238C318.952 481.804 333.046 485.437 333.046 485.468C333.165 485.5 333.275 485.559 333.368 485.641C333.46 485.722 333.532 485.824 333.579 485.938C333.625 486.056 333.642 486.183 333.628 486.308C333.614 486.433 333.571 486.554 333.501 486.659L325.671 498.654C325.601 498.766 325.504 498.857 325.389 498.92C325.06 499.093 317.23 503.196 302.603 503.712L301.272 503.744ZM304.937 481.428C296.936 481.526 289.248 484.551 283.326 489.932C282.598 490.443 282.064 491.185 281.811 492.038C281.558 492.891 281.601 493.804 281.932 494.63C283.498 498.576 291.923 502.601 302.603 502.209C315.679 501.739 323.322 498.278 324.527 497.683L331.637 486.721C328.192 485.86 317.058 483.088 309.275 481.788C307.841 481.551 306.39 481.43 304.937 481.428Z" fill="#263238"/>
<path d="M327.174 485.187C327.879 485.265 328.63 485.312 329.382 485.343C324.59 484.153 315.899 482.086 309.415 481.005C304.638 480.368 299.778 480.784 295.179 482.226C290.579 483.669 286.352 486.101 282.793 489.352C279.348 492.484 280.773 496.149 284.923 498.842C284.66 496.643 285.131 494.418 286.264 492.514C287.397 490.611 289.128 489.136 291.187 488.319C300.019 484.216 318.295 484.216 327.174 485.187Z" fill="white"/>
<path d="M284.923 499.625C284.774 499.622 284.627 499.579 284.5 499.5C281.791 497.746 280.272 495.694 280.084 493.58C280.048 492.667 280.226 491.758 280.604 490.926C280.982 490.094 281.549 489.362 282.261 488.788C285.903 485.446 290.237 482.947 294.955 481.469C299.673 479.991 304.658 479.571 309.556 480.238C316.04 481.319 324.887 483.37 329.57 484.576C329.759 484.624 329.924 484.74 330.034 484.901C330.143 485.063 330.19 485.259 330.165 485.453C330.123 485.64 330.021 485.807 329.873 485.929C329.726 486.051 329.542 486.12 329.351 486.126C328.583 486.126 327.785 486.048 327.08 485.954C317.684 484.858 299.894 485.061 291.485 489.086C289.577 489.838 287.974 491.203 286.928 492.967C285.882 494.73 285.452 496.792 285.706 498.826C285.72 498.974 285.692 499.123 285.625 499.256C285.559 499.388 285.457 499.5 285.33 499.578C285.2 499.624 285.061 499.64 284.923 499.625ZM304.937 481.428C296.936 481.526 289.248 484.551 283.326 489.932C282.789 490.345 282.357 490.88 282.066 491.493C281.775 492.105 281.632 492.777 281.65 493.455C281.934 495.003 282.817 496.377 284.109 497.276C284.16 495.187 284.822 493.158 286.013 491.441C287.204 489.724 288.872 488.394 290.811 487.614C298.078 484.184 310.731 483.589 319.829 483.887C316.259 483.088 312.485 482.321 309.29 481.773C307.851 481.539 306.395 481.424 304.937 481.428Z" fill="#263238"/>
<path d="M488.472 454.9C488.472 454.9 472.812 478.39 457.152 487.786C441.492 497.182 369.973 498.31 355.362 498.31H325.075V487.348C325.075 487.348 373.105 480.489 399.727 465.424C426.349 450.359 440.443 433.587 461.317 426.79C482.192 419.994 500.467 431.488 499.951 459.676" fill="#263238"/>
<path d="M355.362 499.014H325.075C324.868 499.014 324.669 498.932 324.522 498.785C324.375 498.638 324.292 498.439 324.292 498.231V487.269C324.294 487.082 324.363 486.902 324.487 486.761C324.61 486.62 324.78 486.528 324.966 486.502C325.451 486.502 373.152 479.549 399.335 464.672C409.155 458.925 418.605 452.57 427.633 445.645C439.018 437.22 448.852 429.985 461.083 425.976C471.575 422.562 481.362 423.658 488.66 429.108C496.693 435.059 500.984 445.911 500.734 459.661C500.736 459.765 500.717 459.868 500.677 459.965C500.637 460.061 500.578 460.148 500.503 460.22C500.428 460.292 500.339 460.348 500.241 460.384C500.143 460.419 500.039 460.435 499.935 460.428C499.832 460.426 499.731 460.404 499.637 460.363C499.542 460.321 499.457 460.262 499.386 460.188C499.315 460.114 499.259 460.026 499.221 459.93C499.184 459.835 499.166 459.732 499.168 459.629C499.418 446.412 495.347 436.014 487.72 430.361C480.846 425.271 471.559 424.253 461.568 427.511C449.588 431.41 439.848 438.614 428.557 446.96C419.486 453.917 409.988 460.298 400.118 466.066C375.375 480.16 331.809 487.097 325.858 487.99V497.495H355.362C356.192 497.495 439.722 497.386 456.745 487.16C472.076 477.967 487.658 454.759 487.814 454.524C487.929 454.353 488.107 454.233 488.309 454.192C488.512 454.151 488.722 454.192 488.895 454.305C488.981 454.36 489.056 454.433 489.114 454.518C489.172 454.602 489.213 454.698 489.233 454.799C489.254 454.9 489.254 455.004 489.233 455.104C489.213 455.205 489.172 455.301 489.114 455.386C488.957 455.62 473.188 479.126 457.543 488.506C440.161 498.889 356.208 499.014 355.362 499.014Z" fill="#263238"/>
<path d="M432.284 496.243C432.181 496.252 432.077 496.241 431.979 496.21C431.88 496.179 431.789 496.129 431.709 496.063C431.63 495.997 431.565 495.916 431.517 495.824C431.469 495.733 431.44 495.633 431.43 495.53C431.421 495.427 431.432 495.324 431.463 495.225C431.494 495.127 431.544 495.035 431.61 494.956C431.676 494.877 431.757 494.811 431.849 494.763C431.94 494.715 432.04 494.686 432.143 494.677C449.08 491.766 464.805 483.99 477.4 472.298C477.473 472.225 477.56 472.167 477.655 472.127C477.75 472.087 477.853 472.067 477.956 472.067C478.06 472.067 478.162 472.087 478.257 472.127C478.353 472.167 478.439 472.225 478.512 472.298C478.585 472.37 478.643 472.455 478.683 472.549C478.722 472.643 478.742 472.744 478.742 472.847C478.742 472.949 478.722 473.05 478.683 473.144C478.643 473.238 478.585 473.323 478.512 473.395C465.699 485.302 449.695 493.219 432.456 496.18L432.284 496.243Z" fill="white"/>
<path d="M483.805 467.35C483.629 467.348 483.458 467.287 483.32 467.178C483.158 467.048 483.055 466.861 483.031 466.655C483.008 466.45 483.066 466.244 483.194 466.081C484.826 464.135 486.268 462.037 487.501 459.817C487.598 459.636 487.761 459.499 487.957 459.435C488.152 459.37 488.365 459.384 488.55 459.473C488.643 459.518 488.726 459.581 488.794 459.658C488.862 459.735 488.915 459.825 488.948 459.923C488.982 460.02 488.996 460.123 488.989 460.226C488.983 460.329 488.956 460.43 488.91 460.522C487.633 462.857 486.127 465.061 484.416 467.099C484.34 467.185 484.245 467.252 484.14 467.295C484.034 467.339 483.919 467.357 483.805 467.35Z" fill="white"/>
<path d="M384.067 472.658C383.859 472.658 383.66 472.576 383.513 472.429C383.366 472.282 383.284 472.083 383.284 471.875C383.284 471.668 383.366 471.469 383.513 471.322C383.66 471.175 383.859 471.092 384.067 471.092C392.993 470.504 401.549 467.301 408.668 461.884C408.745 461.816 408.834 461.764 408.931 461.731C409.028 461.698 409.131 461.685 409.233 461.692C409.335 461.7 409.435 461.727 409.526 461.774C409.617 461.82 409.699 461.884 409.765 461.963C409.897 462.124 409.962 462.33 409.944 462.538C409.926 462.746 409.828 462.938 409.671 463.075C402.296 468.775 393.372 472.115 384.067 472.658Z" fill="white"/>
<path d="M315.836 432.632L314.113 432.459L315.836 432.632Z" fill="#263238"/>
<path d="M315.836 433.415H315.758L314.051 433.258C313.844 433.238 313.654 433.139 313.52 432.981C313.385 432.823 313.317 432.619 313.33 432.412C313.354 432.208 313.454 432.019 313.611 431.886C313.768 431.752 313.97 431.683 314.176 431.692L315.93 431.864C316.138 431.877 316.332 431.971 316.47 432.127C316.608 432.282 316.679 432.487 316.666 432.694C316.654 432.902 316.559 433.096 316.403 433.234C316.248 433.372 316.044 433.443 315.836 433.43V433.415Z" fill="#263238"/>
<path d="M462.883 500.314C470.699 497.55 478.736 495.454 486.906 494.05C497.868 492.484 506.731 494.05 509.863 500.847C512.995 507.643 510.913 515.974 499.951 518.073C488.989 520.171 469.147 515.974 467.065 515.974C465.247 515.766 463.481 515.236 461.85 514.408L462.883 500.314Z" fill="white"/>
<path d="M492.543 519.435C485.245 519.24 477.97 518.517 470.776 517.274C468.928 516.992 467.472 516.757 467.065 516.757C465.127 516.574 463.239 516.043 461.49 515.191C461.352 515.123 461.238 515.014 461.163 514.88C461.087 514.746 461.054 514.593 461.067 514.44L462.1 500.345C462.115 500.194 462.171 500.05 462.262 499.929C462.354 499.807 462.476 499.713 462.617 499.656C470.486 496.891 478.574 494.796 486.796 493.392C499.324 491.592 507.561 494.097 510.584 500.627C511.471 502.39 511.944 504.331 511.969 506.304C511.993 508.276 511.568 510.229 510.725 512.012C509.456 514.502 506.575 517.712 500.092 518.95C497.596 519.341 495.069 519.504 492.543 519.435ZM462.664 513.97C464.047 514.639 465.536 515.063 467.065 515.223C468.388 515.334 469.705 515.511 471.011 515.755C477.651 516.789 491.463 518.887 499.81 517.321C504.508 516.428 507.734 514.314 509.331 511.198C510.064 509.626 510.43 507.909 510.4 506.175C510.37 504.441 509.946 502.736 509.159 501.191C505.76 493.815 495.237 493.674 487.015 494.849C479.064 496.201 471.242 498.229 463.635 500.909L462.664 513.97Z" fill="#263238"/>
<path d="M497.226 493.612C500.561 494.896 506.857 498.419 505.698 506.547C504.132 517.509 491.071 517.509 482.208 517.509C481.551 517.515 480.898 517.61 480.266 517.791C486.843 518.558 494.501 519.075 499.951 518.041C510.913 515.943 512.995 507.596 509.863 500.815C507.781 496.368 503.239 494.175 497.226 493.612Z" fill="white"/>
<path d="M492.528 519.435C488.396 519.392 484.271 519.109 480.172 518.589C479.991 518.568 479.824 518.484 479.698 518.353C479.572 518.221 479.496 518.05 479.483 517.869C479.475 517.688 479.528 517.51 479.633 517.362C479.738 517.215 479.889 517.107 480.062 517.055C480.762 516.866 481.483 516.766 482.208 516.757C491.165 516.757 503.443 516.757 504.915 506.468C505.98 499.03 500.373 495.694 496.944 494.363C496.769 494.293 496.624 494.164 496.535 493.998C496.446 493.832 496.419 493.639 496.458 493.455C496.503 493.273 496.611 493.113 496.763 493.003C496.915 492.894 497.102 492.843 497.288 492.86C504.038 493.455 508.517 495.992 510.584 500.518C511.471 502.28 511.945 504.221 511.969 506.194C511.993 508.166 511.568 510.119 510.725 511.902C509.456 514.392 506.575 517.603 500.092 518.84C497.595 519.275 495.062 519.474 492.528 519.435ZM492.371 517.869C494.862 517.894 497.351 517.706 499.81 517.305C504.508 516.412 507.734 514.298 509.331 511.182C510.064 509.611 510.43 507.893 510.4 506.159C510.37 504.425 509.946 502.721 509.159 501.175C508.442 499.71 507.41 498.422 506.138 497.401C504.866 496.381 503.384 495.654 501.799 495.271C503.582 496.534 504.971 498.278 505.802 500.299C506.634 502.32 506.875 504.535 506.497 506.688C505.369 514.361 499.105 516.976 492.371 517.869Z" fill="#263238"/>
<path d="M309.948 420.98C309.948 420.98 292.189 417.849 280.711 426.712C269.232 435.576 270.798 444.987 281.76 458.565C292.722 472.142 320.91 496.149 381.984 507.111C443.058 518.073 461.85 514.408 461.85 514.408L462.883 500.314C436.656 500.404 411.076 492.18 389.814 476.824C355.628 451.768 340.391 435.309 315.836 432.632" fill="#263238"/>
<path d="M451.248 515.802C439.926 515.802 418.55 514.471 381.843 507.878C317.183 496.274 289.887 469.871 281.149 459.05C274.212 450.468 271.424 444.095 272.098 438.347C272.614 433.931 275.23 429.922 280.225 426.101C291.861 417.113 309.337 420.072 310.073 420.213C310.175 420.226 310.274 420.26 310.363 420.313C310.451 420.366 310.528 420.436 310.588 420.52C310.648 420.604 310.691 420.699 310.713 420.8C310.735 420.9 310.735 421.005 310.715 421.106C310.698 421.208 310.661 421.305 310.606 421.393C310.551 421.481 310.479 421.556 310.395 421.616C310.31 421.676 310.215 421.718 310.114 421.741C310.013 421.763 309.909 421.766 309.807 421.748C309.635 421.748 292.268 418.788 281.196 427.339C276.592 430.893 274.118 434.558 273.648 438.535C273.037 443.75 275.809 449.952 282.371 458.063C290.984 468.744 317.966 494.817 382.109 506.343C436.528 516.099 457.481 514.173 461.114 513.735L462.038 501.128C435.948 500.914 410.561 492.651 389.344 477.466C381.608 471.797 374.749 466.504 368.704 461.806C348.127 445.927 334.534 435.419 315.758 433.368C315.55 433.345 315.36 433.24 315.229 433.077C315.099 432.914 315.038 432.706 315.061 432.498C315.084 432.291 315.188 432.101 315.351 431.97C315.514 431.839 315.722 431.779 315.93 431.802C335.145 433.9 348.816 444.502 369.659 460.553C375.704 465.251 382.548 470.497 390.268 476.213C411.425 491.395 436.812 499.556 462.852 499.547C462.962 499.542 463.072 499.56 463.175 499.601C463.277 499.641 463.37 499.703 463.447 499.782C463.524 499.863 463.583 499.959 463.62 500.064C463.658 500.169 463.674 500.281 463.666 500.392L462.633 514.486C462.616 514.657 462.544 514.818 462.429 514.945C462.313 515.072 462.159 515.158 461.991 515.191C458.434 515.704 454.84 515.908 451.248 515.802Z" fill="#263238"/>
<path d="M303.418 434.292C303.234 434.294 303.056 434.231 302.915 434.113C302.774 433.995 302.68 433.831 302.65 433.65C302.63 433.549 302.63 433.445 302.651 433.344C302.672 433.243 302.712 433.147 302.771 433.063C302.829 432.978 302.904 432.906 302.991 432.85C303.078 432.795 303.175 432.758 303.277 432.741C305.16 432.387 307.064 432.157 308.977 432.052C309.186 432.044 309.391 432.118 309.546 432.258C309.701 432.399 309.795 432.595 309.807 432.804C309.811 432.907 309.795 433.009 309.76 433.106C309.724 433.203 309.67 433.291 309.6 433.367C309.53 433.443 309.446 433.504 309.353 433.547C309.259 433.59 309.158 433.614 309.055 433.618C307.211 433.719 305.375 433.939 303.559 434.276L303.418 434.292Z" fill="white"/>
<path d="M455.32 500.846C454.959 500.846 418.581 499.688 378.132 468.571C349.944 446.929 332.874 437.016 319.031 434.338C318.928 434.319 318.83 434.279 318.742 434.222C318.655 434.165 318.579 434.09 318.521 434.004C318.462 433.917 318.42 433.82 318.399 433.718C318.378 433.615 318.377 433.509 318.396 433.407C318.416 433.304 318.456 433.206 318.513 433.118C318.57 433.031 318.644 432.955 318.731 432.897C318.818 432.838 318.915 432.796 319.017 432.775C319.12 432.754 319.225 432.753 319.328 432.772C333.422 435.497 350.742 445.504 379.071 467.303C419.129 498.106 454.991 499.234 455.351 499.249C455.454 499.249 455.557 499.27 455.652 499.31C455.747 499.351 455.833 499.41 455.905 499.485C455.977 499.56 456.032 499.648 456.069 499.745C456.106 499.841 456.123 499.944 456.118 500.048C456.118 500.26 456.034 500.463 455.884 500.613C455.735 500.762 455.531 500.846 455.32 500.846Z" fill="white"/>
<path d="M454.975 272.414C445.36 277.488 444.013 267.309 444.091 261.17C444.186 261.106 444.258 261.012 444.295 260.904C444.984 258.085 444.295 244.023 436.199 238.385C429.058 233.421 419.599 229.146 410.767 229.13C404.503 229.13 399.022 233.092 395.686 238.134C391.724 244.132 392.053 251.085 391.74 258.007C391.427 264.929 390.753 272.571 392.132 279.508C393.979 288.748 402.608 308.15 413.085 308.15C422.59 308.15 439.472 293.931 445.266 285.553C446.578 285.117 447.787 284.419 448.821 283.501C450.982 281.654 455.288 278.584 454.975 272.414Z" fill="white"/>
<path d="M413.085 308.933C401.794 308.933 393.087 288.278 391.364 279.649C390.143 273.526 390.487 267.027 390.816 260.732L390.957 257.976L391.051 255.219C391.27 249.253 391.474 243.083 395.044 237.696C398.912 231.839 404.785 228.3 410.704 228.3C418.534 228.3 428.009 231.745 436.575 237.696C445.141 243.647 445.751 258.054 444.984 261.045C444.946 261.178 444.888 261.305 444.812 261.421C444.812 264.882 445.297 270.629 448.226 272.383C449.792 273.322 451.874 273.072 454.49 271.662C454.604 271.596 454.734 271.562 454.865 271.562C454.997 271.562 455.127 271.596 455.241 271.662C455.356 271.727 455.453 271.82 455.521 271.932C455.59 272.045 455.628 272.173 455.633 272.304C455.946 278.381 452.047 281.7 449.713 283.595L449.197 284.018C448.156 284.949 446.943 285.667 445.626 286.132C440.145 294.15 423.342 308.933 413.085 308.933ZM410.689 229.913C405.255 229.913 399.868 233.155 396.281 238.557C392.962 243.584 392.774 249.269 392.554 255.282L392.46 258.054L392.319 260.81C391.991 267.074 391.646 273.338 392.836 279.351C394.794 289.123 403.454 307.367 413.022 307.367C421.933 307.367 438.485 293.9 444.561 285.099C444.657 284.954 444.801 284.848 444.968 284.801C446.18 284.407 447.296 283.761 448.241 282.906L448.774 282.468C450.841 280.745 453.879 278.193 454.129 273.667C453.106 274.239 451.958 274.549 450.786 274.571C449.614 274.593 448.455 274.325 447.411 273.792C443.935 271.678 443.23 265.759 443.246 261.17C443.249 261.061 443.274 260.953 443.32 260.853C443.366 260.754 443.431 260.665 443.512 260.591C444.154 257.976 443.308 244.336 435.682 239.027C427.382 233.248 418.268 229.929 410.704 229.913H410.689Z" fill="#263238"/>
<path d="M410.689 282.515C410.098 282.551 409.508 282.426 408.982 282.155C408.805 282.054 408.653 281.916 408.534 281.752C408.415 281.587 408.333 281.399 408.293 281.199C407.979 279.633 411.299 269.172 412.317 266.009C412.385 265.814 412.526 265.653 412.71 265.56C412.894 265.467 413.107 265.448 413.304 265.508C413.403 265.538 413.494 265.588 413.574 265.654C413.653 265.721 413.718 265.802 413.765 265.895C413.811 265.987 413.839 266.087 413.846 266.19C413.853 266.294 413.839 266.397 413.805 266.495C411.753 272.759 409.702 279.915 409.827 280.902C411.373 281.026 412.926 280.818 414.384 280.291C414.483 280.26 414.587 280.249 414.69 280.26C414.793 280.27 414.893 280.301 414.983 280.35C415.074 280.4 415.154 280.468 415.218 280.549C415.282 280.63 415.328 280.724 415.355 280.824C415.384 280.922 415.393 281.026 415.382 281.128C415.371 281.23 415.34 281.329 415.29 281.419C415.241 281.509 415.174 281.589 415.094 281.653C415.014 281.718 414.922 281.766 414.823 281.794C413.481 282.207 412.092 282.449 410.689 282.515Z" fill="#263238"/>
<path d="M414.024 288.732C412.1 288.777 410.209 288.23 408.606 287.166C408.44 287.041 408.33 286.856 408.301 286.65C408.271 286.445 408.325 286.236 408.449 286.07C408.574 285.903 408.759 285.794 408.965 285.764C409.17 285.735 409.379 285.788 409.545 285.913C409.765 286.07 414.932 289.734 423.404 283.454C423.487 283.393 423.58 283.348 423.68 283.322C423.78 283.297 423.883 283.291 423.985 283.306C424.087 283.32 424.185 283.355 424.273 283.407C424.362 283.459 424.439 283.529 424.501 283.611C424.62 283.78 424.668 283.989 424.636 284.194C424.604 284.398 424.494 284.582 424.328 284.707C421.426 287.139 417.807 288.553 414.024 288.732Z" fill="#263238"/>
<path d="M430.311 275.562C428.695 275.643 427.087 275.28 425.663 274.512C424.238 273.745 423.051 272.602 422.23 271.208C422.185 271.116 422.16 271.016 422.155 270.913C422.149 270.811 422.165 270.709 422.2 270.612C422.235 270.516 422.289 270.428 422.359 270.352C422.428 270.277 422.512 270.217 422.606 270.175C422.697 270.13 422.797 270.103 422.898 270.097C423 270.091 423.102 270.105 423.198 270.138C423.294 270.172 423.383 270.224 423.459 270.292C423.534 270.36 423.596 270.443 423.639 270.535C423.765 270.786 426.599 276.298 435.604 272.915C435.797 272.844 436.01 272.852 436.198 272.937C436.386 273.022 436.532 273.177 436.606 273.369C436.644 273.466 436.662 273.569 436.659 273.673C436.657 273.776 436.634 273.879 436.592 273.973C436.549 274.068 436.489 274.153 436.413 274.224C436.338 274.295 436.249 274.351 436.152 274.387C434.291 275.126 432.312 275.524 430.311 275.562Z" fill="#263238"/>
<path d="M402.498 268.515C395.718 268.515 394.167 263.457 394.152 263.394C394.098 263.193 394.126 262.978 394.228 262.797C394.331 262.616 394.5 262.481 394.7 262.423C394.897 262.37 395.107 262.395 395.286 262.495C395.464 262.594 395.597 262.76 395.655 262.955C395.655 263.206 397.472 268.656 406.429 266.416C406.637 266.366 406.856 266.401 407.038 266.513C407.22 266.624 407.35 266.804 407.4 267.011C407.45 267.219 407.415 267.438 407.304 267.62C407.192 267.802 407.013 267.932 406.805 267.982C405.397 268.335 403.95 268.514 402.498 268.515Z" fill="#263238"/>
<path d="M412.364 259.04C412.194 259.037 412.028 258.979 411.893 258.874C411.758 258.77 411.66 258.625 411.613 258.461C411.613 258.461 410.047 253.246 406.1 251.571C403.751 250.6 400.933 250.991 397.754 252.776C397.57 252.872 397.356 252.893 397.158 252.835C396.959 252.777 396.791 252.643 396.689 252.463C396.587 252.282 396.562 252.069 396.617 251.869C396.673 251.67 396.806 251.5 396.986 251.398C400.619 249.378 403.892 248.955 406.711 250.13C411.409 252.103 413.053 257.803 413.132 258.054C413.184 258.253 413.157 258.465 413.054 258.644C412.951 258.823 412.782 258.954 412.584 259.009L412.364 259.04Z" fill="#263238"/>
<path d="M428.181 284.911C425.589 284.911 423.054 284.142 420.899 282.702C418.743 281.261 417.063 279.214 416.071 276.819C415.079 274.424 414.82 271.789 415.325 269.246C415.831 266.704 417.079 264.368 418.913 262.535C420.746 260.702 423.081 259.454 425.624 258.948C428.166 258.442 430.802 258.702 433.197 259.694C435.592 260.686 437.639 262.366 439.079 264.521C440.52 266.677 441.288 269.211 441.288 271.803C441.284 275.278 439.902 278.61 437.445 281.067C434.987 283.524 431.656 284.907 428.181 284.911ZM428.181 260.262C425.898 260.262 423.667 260.939 421.769 262.207C419.871 263.475 418.392 265.278 417.518 267.387C416.645 269.496 416.416 271.816 416.861 274.055C417.307 276.294 418.406 278.35 420.02 279.964C421.634 281.578 423.69 282.678 425.929 283.123C428.168 283.568 430.489 283.34 432.598 282.466C434.707 281.593 436.509 280.113 437.777 278.215C439.045 276.317 439.722 274.086 439.722 271.803C439.714 268.746 438.495 265.817 436.332 263.657C434.169 261.497 431.238 260.282 428.181 260.278V260.262Z" fill="#263238"/>
<path d="M399.836 279.367C397.244 279.367 394.71 278.598 392.554 277.158C390.399 275.718 388.719 273.671 387.727 271.276C386.735 268.881 386.475 266.245 386.981 263.703C387.486 261.16 388.735 258.824 390.568 256.991C392.401 255.158 394.737 253.91 397.279 253.404C399.822 252.898 402.457 253.158 404.852 254.15C407.247 255.142 409.294 256.822 410.735 258.978C412.175 261.133 412.944 263.667 412.944 266.26C412.935 269.733 411.552 273.063 409.095 275.519C406.639 277.975 403.31 279.359 399.836 279.367ZM399.836 254.718C397.554 254.718 395.322 255.395 393.424 256.663C391.526 257.932 390.047 259.734 389.173 261.843C388.3 263.952 388.071 266.273 388.517 268.511C388.962 270.75 390.061 272.807 391.675 274.421C393.289 276.035 395.346 277.134 397.585 277.579C399.824 278.025 402.144 277.796 404.253 276.923C406.362 276.049 408.164 274.57 409.433 272.672C410.701 270.774 411.378 268.542 411.378 266.26C411.374 263.2 410.156 260.267 407.993 258.103C405.829 255.94 402.896 254.722 399.836 254.718Z" fill="#263238"/>
<path d="M439.879 275.045C439.697 275.041 439.522 274.976 439.382 274.859C439.243 274.742 439.147 274.581 439.112 274.403C439.075 274.2 439.12 273.99 439.238 273.82C439.355 273.65 439.535 273.533 439.738 273.495L449.917 271.647C450.12 271.61 450.33 271.655 450.5 271.773C450.67 271.89 450.787 272.07 450.825 272.273C450.862 272.477 450.817 272.686 450.699 272.856C450.582 273.027 450.402 273.143 450.199 273.181L440.02 275.029L439.879 275.045Z" fill="#263238"/>
<path d="M387.825 263.958C387.704 263.957 387.584 263.928 387.476 263.873C387.367 263.819 387.272 263.741 387.199 263.645C387.074 263.478 387.02 263.27 387.05 263.064C387.079 262.858 387.189 262.673 387.355 262.548L391.051 259.776C391.217 259.652 391.426 259.598 391.632 259.628C391.837 259.657 392.023 259.767 392.147 259.933C392.268 260.101 392.319 260.308 392.29 260.513C392.261 260.717 392.153 260.902 391.991 261.029L388.295 263.801C388.16 263.904 387.995 263.959 387.825 263.958Z" fill="#263238"/>
<path d="M399.962 233.812C399.962 233.812 410.924 227.141 414.745 233.468C418.566 239.794 436.121 281.826 454.975 272.414C473.83 263.002 454.834 232.058 436.543 222.208C418.252 212.358 402.859 220.799 399.962 233.812Z" fill="#263238"/>
<path d="M449.369 274.575C434.899 274.575 422.261 249.77 416.483 238.401C415.449 236.365 414.619 234.752 414.087 233.875C413.764 233.328 413.332 232.853 412.817 232.482C412.303 232.11 411.716 231.848 411.096 231.714C406.727 230.649 400.447 234.454 400.384 234.486C400.254 234.565 400.103 234.605 399.95 234.6C399.797 234.595 399.649 234.545 399.524 234.457C399.399 234.369 399.303 234.246 399.247 234.103C399.191 233.961 399.178 233.805 399.21 233.656C399.891 230.513 401.3 227.574 403.324 225.074C405.347 222.575 407.929 220.585 410.861 219.264C418.472 215.756 427.727 216.555 436.935 221.519C449.682 228.394 463.792 246.293 463.557 259.996C463.617 262.747 462.871 265.456 461.41 267.788C459.949 270.12 457.837 271.973 455.335 273.119C453.488 274.064 451.444 274.563 449.369 274.575ZM409.42 229.96C410.105 229.954 410.788 230.027 411.456 230.179C412.275 230.365 413.048 230.717 413.726 231.212C414.405 231.708 414.975 232.337 415.402 233.06C415.966 233.984 416.812 235.613 417.861 237.758C424.234 250.286 439.143 279.508 454.631 271.772C456.874 270.757 458.769 269.103 460.078 267.017C461.388 264.931 462.053 262.505 461.991 260.043C462.194 246.888 448.539 229.615 436.183 222.96C427.413 218.262 418.644 217.463 411.503 220.752C409.07 221.853 406.895 223.452 405.117 225.445C403.34 227.438 402 229.782 401.183 232.324C403.727 230.955 406.537 230.148 409.42 229.96Z" fill="#263238"/>
<path d="M397.44 232.497C397.233 232.497 397.034 232.414 396.887 232.267C396.74 232.121 396.657 231.921 396.657 231.714C396.784 230.466 397.209 229.267 397.896 228.218C398.583 227.169 399.511 226.3 400.604 225.685C404.628 222.991 411.002 228.316 411.268 228.535C411.428 228.668 411.529 228.859 411.548 229.066C411.567 229.273 411.503 229.479 411.37 229.639C411.304 229.718 411.223 229.783 411.132 229.831C411.041 229.879 410.941 229.909 410.839 229.918C410.632 229.937 410.426 229.874 410.266 229.741C408.7 228.394 404.002 225.293 401.465 226.984C400.595 227.46 399.849 228.132 399.286 228.948C398.723 229.764 398.359 230.701 398.223 231.682C398.23 231.788 398.214 231.895 398.178 231.994C398.141 232.094 398.084 232.185 398.011 232.261C397.937 232.338 397.848 232.398 397.75 232.439C397.652 232.479 397.547 232.499 397.44 232.497Z" fill="white"/>
<path d="M460.19 264.177H459.986C458.323 263.712 456.739 262.999 455.288 262.063C455.196 262.01 455.115 261.939 455.051 261.854C454.987 261.77 454.941 261.673 454.916 261.569C454.89 261.466 454.886 261.359 454.904 261.254C454.921 261.149 454.96 261.049 455.018 260.959C455.075 260.87 455.15 260.793 455.238 260.734C455.326 260.674 455.426 260.633 455.53 260.613C455.635 260.594 455.742 260.595 455.846 260.618C455.95 260.641 456.048 260.685 456.134 260.747C457.47 261.599 458.927 262.243 460.456 262.658C460.559 262.671 460.658 262.705 460.748 262.756C460.838 262.808 460.917 262.877 460.98 262.959C461.043 263.041 461.09 263.135 461.117 263.235C461.144 263.335 461.151 263.44 461.137 263.543C461.124 263.646 461.09 263.745 461.039 263.835C460.987 263.924 460.918 264.003 460.836 264.067C460.754 264.13 460.66 264.176 460.56 264.203C460.46 264.23 460.355 264.237 460.253 264.224L460.19 264.177Z" fill="white"/>
<path d="M449.134 255.783C449.012 255.784 448.892 255.757 448.783 255.702C448.674 255.648 448.58 255.568 448.508 255.47C445.221 250.661 442.315 245.604 439.816 240.342C436.92 234.442 433.727 228.693 430.248 223.116C426.208 216.852 421.917 213.485 417.501 213.141C415.884 213.085 414.273 213.366 412.771 213.967C411.269 214.569 409.909 215.477 408.778 216.633C408.708 216.708 408.623 216.768 408.529 216.809C408.434 216.849 408.333 216.87 408.23 216.87C408.127 216.87 408.026 216.849 407.931 216.809C407.837 216.768 407.752 216.708 407.682 216.633C407.609 216.562 407.551 216.476 407.512 216.382C407.472 216.288 407.452 216.187 407.452 216.085C407.452 215.983 407.472 215.882 407.512 215.788C407.551 215.694 407.609 215.608 407.682 215.537C408.961 214.185 410.518 213.125 412.245 212.43C413.972 211.736 415.829 211.423 417.689 211.512C422.622 211.904 427.304 215.506 431.626 222.208C435.132 227.783 438.352 233.532 441.273 239.434C443.729 244.619 446.588 249.604 449.823 254.342C449.944 254.51 449.995 254.718 449.966 254.922C449.936 255.126 449.829 255.312 449.666 255.439C449.607 255.531 449.529 255.609 449.437 255.668C449.346 255.728 449.242 255.767 449.134 255.783Z" fill="white"/>
<path d="M441.821 259.776C441.622 259.775 441.431 259.697 441.288 259.557C439.324 257.646 436.813 256.395 434.105 255.976C431.397 255.558 428.626 255.994 426.176 257.224C425.991 257.319 425.776 257.337 425.577 257.276C425.378 257.215 425.211 257.078 425.112 256.895C425.063 256.804 425.032 256.704 425.022 256.6C425.012 256.497 425.023 256.393 425.053 256.294C425.084 256.195 425.134 256.103 425.2 256.023C425.267 255.944 425.348 255.878 425.44 255.83C428.191 254.487 431.286 254.016 434.312 254.48C437.337 254.945 440.148 256.323 442.369 258.43C442.482 258.538 442.559 258.678 442.592 258.831C442.624 258.984 442.61 259.144 442.551 259.289C442.492 259.434 442.391 259.558 442.261 259.645C442.13 259.731 441.977 259.777 441.821 259.776Z" fill="white"/>
<path d="M441.038 391.822C421.4 391.822 409.248 376.913 409.123 376.772C409.024 376.607 408.989 376.411 409.024 376.221C409.058 376.031 409.16 375.86 409.311 375.74C409.462 375.62 409.651 375.558 409.844 375.566C410.037 375.575 410.22 375.653 410.36 375.786C410.469 375.927 422.167 390.256 441.038 390.256C441.245 390.256 441.445 390.338 441.591 390.485C441.738 390.632 441.821 390.831 441.821 391.039C441.821 391.246 441.738 391.445 441.591 391.592C441.445 391.739 441.245 391.822 441.038 391.822Z" fill="#263238"/>
</svg>
