<svg width="653" height="584" viewBox="0 0 653 584" fill="none" xmlns="http://www.w3.org/2000/svg">
<path d="M424.006 545.982C420.744 545.817 417.539 545.055 414.551 543.736C413.754 543.39 413.127 542.741 412.809 541.933C412.491 541.124 412.506 540.223 412.853 539.426C413.199 538.63 413.848 538.003 414.656 537.685C415.464 537.366 416.366 537.382 417.163 537.728C420.179 539.034 424.045 539.792 425.09 539.348C426.984 537.219 429.922 524.29 426.135 518.125C425.934 517.691 425.633 517.31 425.256 517.015C424.879 516.719 424.437 516.518 423.967 516.428C421.812 516.14 418.625 518.347 417.502 519.405C416.868 519.996 416.026 520.31 415.16 520.28C414.294 520.249 413.476 519.876 412.885 519.242C412.295 518.608 411.98 517.766 412.011 516.9C412.042 516.034 412.415 515.216 413.049 514.625C413.649 514.064 419.069 509.166 424.803 509.95C426.233 510.165 427.595 510.705 428.784 511.53C429.972 512.354 430.956 513.44 431.659 514.704C437.236 523.767 433.409 541.046 429.139 544.467C427.647 545.537 425.839 546.071 424.006 545.982Z" fill="#263238" stroke="#263238" stroke-linecap="round" stroke-linejoin="round"/>
<path d="M418.22 507.273H382.136V555.164H418.22V507.273Z" fill="#263238" stroke="#263238" stroke-linecap="round" stroke-linejoin="round"/>
<path d="M385.414 504.647C385.414 504.647 385.414 500.664 392.714 496.681C400.015 492.698 404.024 486.703 400.028 475.406C396.031 464.109 396.711 456.13 404.69 449.482" stroke="#263238" stroke-linecap="round" stroke-linejoin="round"/>
<path d="M387.072 462.137C387.438 457.279 389.619 453.178 394.046 449.482" stroke="#263238" stroke-linecap="round" stroke-linejoin="round"/>
<path d="M389.397 475.406C388.673 473.393 388.084 471.333 387.634 469.242" stroke="#263238" stroke-linecap="round" stroke-linejoin="round"/>
<path d="M415.099 479.298C414.814 477.969 414.444 476.661 413.989 475.38C413.78 474.766 413.571 474.165 413.388 473.578" stroke="#263238" stroke-linecap="round" stroke-linejoin="round"/>
<path d="M399.362 504.647C399.362 504.647 399.362 500.664 406.675 496.681C411.482 494.069 414.838 490.582 415.465 485.319" stroke="#263238" stroke-linecap="round" stroke-linejoin="round"/>
<path d="M479.916 497.804C479.916 497.804 475.867 492.658 471.466 490.464C467.065 488.27 457.884 486.416 457.884 486.416C457.884 486.416 465.955 484.587 472.25 486.05C478.545 487.513 482.907 493.769 482.907 493.769C482.907 493.769 481.065 491.156 478.492 483.477C475.919 475.798 475.88 459.251 475.88 459.251C479.794 463.827 482.887 469.045 485.022 474.675C486.8 479.794 488.03 485.086 488.692 490.464C488.692 490.464 487.961 477.613 490.168 470.274C492.375 462.934 498.605 453.753 498.605 453.753C498.605 453.753 498.97 469.895 496.411 478.71C493.851 487.526 492.728 491.561 492.728 491.561C494.338 486.984 496.979 482.837 500.446 479.442C505.944 474.309 519.161 469.895 519.161 469.895C519.161 469.895 512.918 481.283 508.883 484.953C504.847 488.623 500.812 492.658 500.812 492.658C504.425 490.368 508.643 489.216 512.918 489.354C520.637 489.354 529.805 494.5 529.805 494.5C529.805 494.5 503.019 494.134 497.873 498.535L479.916 497.804Z" fill="#AD667E" stroke="#263238" stroke-miterlimit="10"/>
<path d="M484.892 495.819L480.373 492.698" stroke="#263238" stroke-linecap="round" stroke-linejoin="round"/>
<path d="M489.763 498.261L483.507 481.557" stroke="#263238" stroke-linecap="round" stroke-linejoin="round"/>
<path d="M489.071 500.351L493.25 475.994" stroke="#263238" stroke-linecap="round" stroke-linejoin="round"/>
<path d="M489.763 498.261L501.595 483.647" stroke="#263238" stroke-linecap="round" stroke-linejoin="round"/>
<path d="M487.451 496.759L504.73 492.345" stroke="#263238" stroke-linecap="round" stroke-linejoin="round"/>
<path d="M510.711 555.164H474.078L472.419 541.855C471.214 532.14 471.157 522.317 472.25 512.588L474.078 496.328H510.777L512.579 512.235C513.691 521.953 513.647 531.769 512.448 541.477L510.711 555.164Z" fill="#263238"/>
<path d="M513.14 530.167L507.642 496.759L500.289 554.393L487.451 496.759L479.733 555.137L474.013 496.328" fill="#263238"/>
<path d="M513.14 530.167L507.642 496.759L500.289 554.393L487.451 496.759L479.733 555.137L474.013 496.328" stroke="white" stroke-linecap="round" stroke-linejoin="round"/>
<path d="M510.711 555.164H474.078L472.419 541.855C471.214 532.14 471.157 522.317 472.25 512.588L474.078 496.328H510.777L512.579 512.235C513.691 521.953 513.647 531.769 512.448 541.477L510.711 555.164Z" stroke="#263238" stroke-miterlimit="10"/>
<path d="M570.722 555.164H15.7112" stroke="#263238" stroke-linecap="round" stroke-linejoin="round"/>
<path d="M271.191 386.794C271.191 386.794 267.704 410.694 271.191 415.186C274.678 419.679 282.645 423.153 294.098 426.64C305.552 430.127 313.022 422.644 323.966 435.103C334.911 447.562 343.896 479.415 349.864 489.38C355.833 499.345 362.82 514.782 364.374 526.288C365.928 537.794 360.887 544.206 350.922 545.708C340.957 547.21 323.496 522.801 321.55 519.314C319.604 515.827 310.031 504.334 310.031 504.334C310.031 504.334 304.546 544.676 304.546 546.661C304.546 548.647 305.042 555.124 305.042 555.124H161.631C161.631 555.124 172.588 495.375 175.566 474.453C178.543 453.531 177.067 439.596 189.017 432.125C200.967 424.655 211.925 426.653 219.891 424.159C227.858 421.664 232.834 419.679 233.343 415.2C233.852 410.72 233.839 389.798 233.839 389.798L271.191 386.794Z" fill="#AD667E" stroke="#263238" stroke-linecap="round" stroke-linejoin="round"/>
<path d="M166.802 531.603L101.215 548.869L106.4 555.19H181.194" fill="#AD667E"/>
<path d="M166.802 531.603L101.215 548.869L106.4 555.19H181.194" stroke="#263238" stroke-linecap="round" stroke-linejoin="round"/>
<path d="M92.8566 542.273C89.9816 540.488 86.761 539.332 83.4068 538.882C80.0527 538.432 76.6412 538.697 73.3972 539.661C62.7794 542.757 57.464 552.055 57.464 555.15H102.155C101.603 552.469 100.488 549.935 98.8857 547.716C97.2829 545.496 95.2281 543.641 92.8566 542.273Z" fill="#808080" stroke="#263238" stroke-linecap="round" stroke-linejoin="round"/>
<path d="M65.4306 531.656C65.4306 531.656 59.6712 540.066 59.6712 543.161C59.6712 546.257 56.5759 549.352 60.9772 550.684C65.3784 552.016 68.0557 536.527 68.0557 534.764C68.0557 533.001 65.4306 531.656 65.4306 531.656Z" fill="white" stroke="#263238" stroke-linecap="round" stroke-linejoin="round"/>
<path d="M73.3972 531.225C73.3972 531.225 67.1937 529.919 65.4306 531.656C63.6675 533.393 60.5592 548.921 61.0033 550.684C61.4473 552.447 65.8747 552.891 67.1937 551.128C68.5128 549.365 73.3972 531.225 73.3972 531.225Z" fill="white" stroke="#263238" stroke-linecap="round" stroke-linejoin="round"/>
<path d="M118.533 544.559L108.085 543.37C107.494 542.663 106.848 542.003 106.152 541.398C104.18 540.172 102.099 539.131 99.9351 538.29C99.9351 538.29 81.3507 531.642 77.3674 528.991C73.3841 526.34 71.177 531.603 69.8579 534.751C68.5389 537.898 65.4306 548.908 65.4306 552.003C65.4306 555.098 70.2889 556.417 71.177 552.878C72.0651 549.339 79.1436 537.846 79.1436 537.846L88.4293 541.385C88.4293 541.385 89.3173 542.691 85.334 545.369C81.3507 548.046 75.6043 553.766 77.3674 554.654C79.1305 555.542 84.446 555.098 86.2221 553.348C87.9983 551.598 97.2839 549.43 97.2839 549.43C97.2839 549.43 105.695 554.746 107.458 555.19C108.599 555.357 109.752 555.427 110.906 555.399H121.693C122.155 553.473 122.107 551.46 121.553 549.559C120.998 547.658 119.957 545.934 118.533 544.559Z" fill="white" stroke="#263238" stroke-linecap="round" stroke-linejoin="round"/>
<path d="M86.4703 544.559C86.4703 544.559 90.3883 540.092 93.5619 539.557" stroke="#263238" stroke-linecap="round" stroke-linejoin="round"/>
<path d="M343.478 508.396C348.207 509.931 352.842 511.741 357.361 513.816C363.799 516.859 366.176 524.264 365.197 533.471C364.217 542.678 357.74 549.744 348.219 547.027C338.698 544.311 333.644 536.579 333.304 530.415C332.965 524.251 330.209 510.42 343.478 508.396Z" fill="white" stroke="#263238" stroke-linecap="round" stroke-linejoin="round"/>
<path d="M242.798 455.568C220.387 454.771 205.852 440.967 197.167 428.325C205.904 425.399 213.779 426.105 219.891 424.198C227.858 421.703 232.834 419.718 233.343 415.239C233.852 410.759 233.839 389.837 233.839 389.837L271.191 386.846C271.191 386.846 267.704 410.746 271.191 415.239C274.678 419.731 282.645 423.205 294.098 426.692C299.113 428.207 303.358 427.633 307.485 427.554C300.759 434.894 277.669 456.809 242.798 455.568Z" fill="white" stroke="#263238" stroke-linecap="round" stroke-linejoin="round"/>
<path d="M233.774 404.804C236.585 407.521 239.696 409.909 243.047 411.921C249.028 415.291 259.267 412.3 262.258 408.565C263.721 406.737 266.737 403.132 269.963 398.796C270.42 392.488 271.269 386.846 271.269 386.846L233.918 389.837C233.918 389.837 233.839 397.686 233.774 404.804Z" fill="#263238" stroke="#263238" stroke-linecap="round" stroke-linejoin="round"/>
<path d="M347.84 464.671C347.84 464.671 327.506 491.444 325.468 502.636C323.431 513.829 316.992 540.902 316.992 540.902C316.992 540.902 297.337 549.378 284.799 549.717C272.262 550.057 250.569 548.02 250.569 548.02C250.569 548.02 264.465 512.17 269.885 494.16C275.305 476.151 276.663 466.029 276.663 466.029C276.663 466.029 307.511 470.091 325.129 466.029L351.562 459.93L347.84 464.671Z" fill="white" stroke="#263238" stroke-linecap="round" stroke-linejoin="round"/>
<path d="M346.874 520.803C346.874 520.803 344.392 489.459 341.401 488.44C338.411 487.421 320.505 484.953 315.503 485.946C310.501 486.938 308.973 488.936 313.022 489.929C317.071 490.921 323.966 491.927 326.957 492.423C330.334 493.226 333.661 494.225 336.922 495.414C336.922 495.414 325.965 496.903 321.485 496.903C317.005 496.903 306.544 501.382 306.048 503.433C305.754 504.616 305.932 505.866 306.544 506.92C306.281 507.948 306.308 509.028 306.623 510.041C307.119 512.039 318.99 511.047 321.981 511.543C324.972 512.039 330.94 513.476 330.94 513.476C330.94 513.476 313.518 512.483 313.518 515.971C313.518 519.458 320.976 518.948 323.966 518.948C327.588 519.348 331.032 520.725 333.931 522.931C335.42 524.433 334.924 532.243 339.403 533.745C341.324 534.499 343.335 535 345.385 535.234" fill="white"/>
<path d="M346.874 520.803C346.874 520.803 344.392 489.459 341.401 488.44C338.411 487.421 320.505 484.953 315.503 485.946C310.501 486.938 308.973 488.936 313.022 489.929C317.071 490.921 323.966 491.927 326.957 492.423C330.334 493.226 333.661 494.225 336.922 495.414C336.922 495.414 325.965 496.903 321.485 496.903C317.005 496.903 306.544 501.382 306.048 503.433C305.754 504.616 305.932 505.866 306.544 506.92C306.281 507.948 306.308 509.028 306.623 510.041C307.119 512.039 318.99 511.047 321.981 511.543C324.972 512.039 330.94 513.476 330.94 513.476C330.94 513.476 313.518 512.483 313.518 515.971C313.518 519.458 320.976 518.948 323.966 518.948C327.588 519.348 331.032 520.725 333.931 522.931C335.42 524.433 334.924 532.243 339.403 533.745C341.324 534.499 343.335 535 345.385 535.234" stroke="#263238" stroke-linecap="round" stroke-linejoin="round"/>
<path d="M306.544 506.868C306.544 506.868 326.461 502.375 336.426 507.364" stroke="#263238" stroke-linecap="round" stroke-linejoin="round"/>
<path d="M198.512 479.977C198.512 479.977 190.545 507.86 192.047 517.851C193.549 527.842 198.016 539.256 198.512 540.758C199.008 542.26 196.762 554.066 196.762 554.066" stroke="#263238" stroke-linecap="round" stroke-linejoin="round"/>
<path d="M182.096 325.595C186.575 321.115 182.096 318.621 182.592 313.645C183.088 308.669 188.064 306.175 190.558 305.182C193.053 304.19 192.047 301.695 192.557 296.21C193.066 290.725 199.021 288.74 203.005 287.251C206.988 285.762 204.507 283.333 206.492 279.284C208.477 275.235 219.447 276.293 219.447 276.293C219.447 276.293 221.929 271.814 224.919 271.814C227.91 271.814 229.895 275.797 233.878 272.31C237.862 268.823 241.349 267.334 246.834 269.319C248.605 270.024 250.426 270.6 252.28 271.043C254.139 270.602 255.964 270.026 257.739 269.319C263.211 267.334 266.698 268.823 270.682 272.31C274.665 275.797 276.663 271.814 279.654 271.814C282.645 271.814 285.126 276.293 285.126 276.293C285.126 276.293 296.083 275.301 298.081 279.284C300.08 283.267 297.572 285.749 301.555 287.251C305.539 288.753 311.52 290.738 312.003 296.21C312.487 301.682 311.507 304.176 314.002 305.182C316.496 306.188 321.472 308.656 321.968 313.645C322.464 318.634 318.05 321.115 322.464 325.595C326.879 330.074 331.424 333.561 327.44 336.552C323.457 339.543 319.474 340.536 319.97 345.015C320.466 349.495 325.455 354.98 321.472 357.461C317.489 359.943 313.505 359.956 313.505 364.435C313.505 368.915 314.994 375.393 310.515 376.385C306.035 377.378 299.557 376.385 299.557 379.376C299.557 382.367 299.061 387.839 292.087 386.846C285.113 385.854 282.631 383.855 281.13 387.839C279.628 391.822 276.154 394.369 272.17 393.82C268.187 393.272 262.702 392.828 259.215 395.805C257.496 397.143 255.447 397.992 253.286 398.261V398.43C252.946 398.43 252.607 398.43 252.267 398.43C251.927 398.43 251.588 398.43 251.248 398.43V398.261C249.088 397.987 247.041 397.139 245.319 395.805C241.832 392.828 236.36 393.324 232.377 393.82C228.393 394.317 224.906 391.822 223.417 387.839C221.929 383.855 219.434 385.854 212.46 386.846C205.486 387.839 204.99 382.367 204.99 379.376C204.99 376.385 198.46 377.391 194.032 376.385C189.605 375.38 191.042 368.915 191.042 364.435C191.042 359.956 187.124 359.956 183.075 357.461C179.026 354.967 184.068 349.495 184.564 345.015C185.06 340.536 181.077 339.543 177.094 336.552C173.11 333.561 177.616 330.074 182.096 325.595Z" fill="#263238" stroke="#263238" stroke-linecap="round" stroke-linejoin="round"/>
<path d="M222.02 353.112C222.02 353.112 216.352 344.61 212.943 348.58C209.535 352.551 210.684 362.751 215.216 367.857C219.748 372.963 224.841 371.253 224.841 371.253" fill="white"/>
<path d="M222.02 353.112C222.02 353.112 216.352 344.61 212.943 348.58C209.535 352.551 210.684 362.751 215.216 367.857C219.748 372.963 224.841 371.253 224.841 371.253" stroke="#263238" stroke-linecap="round" stroke-linejoin="round"/>
<path d="M282.632 352.681C282.632 352.681 289.253 344.845 292.165 349.233C295.078 353.622 292.753 363.599 287.66 368.105C282.566 372.611 277.695 370.365 277.695 370.365" fill="white"/>
<path d="M282.632 352.681C282.632 352.681 289.253 344.845 292.165 349.233C295.078 353.622 292.753 363.599 287.66 368.105C282.566 372.611 277.695 370.365 277.695 370.365" stroke="#263238" stroke-linecap="round" stroke-linejoin="round"/>
<path d="M280.268 332.569C279.269 333.476 278.079 334.147 276.786 334.534C275.493 334.92 274.13 335.012 272.797 334.802C270.329 334.444 267.934 333.69 265.706 332.569C265.706 332.569 261.226 335.56 257.87 334.436C254.513 333.313 250.765 332.19 250.765 332.19C248.31 333.697 245.38 334.233 242.55 333.692C237.326 332.935 235.824 331.824 235.824 331.824C235.824 331.824 232.834 334.436 229.856 334.436C227.982 334.43 226.111 334.303 224.253 334.058C223.436 334.464 222.55 334.716 221.641 334.802H219.029C219.029 334.802 217.919 357.213 221.641 373.277C225.363 389.341 239.925 401.291 245.92 404.621C251.914 407.951 262.153 405 265.144 401.264C268.135 397.529 277.669 386.324 282.122 376.607C286.576 366.891 288.104 338.511 288.104 336.644C288.104 334.776 282.096 337.048 280.268 332.569Z" fill="white" stroke="#263238" stroke-linecap="round" stroke-linejoin="round"/>
<path d="M259.189 345.642C258.68 345.858 258.25 346.224 257.954 346.69C257.657 347.157 257.51 347.702 257.53 348.254C257.661 352.485 258.288 362.542 261.226 364.305C264.961 366.538 282.396 368.223 286.628 365.415C288.861 363.926 293.719 350.853 291.852 347.131C289.984 343.409 274.129 339.504 259.189 345.642Z" stroke="#263238" stroke-linecap="round" stroke-linejoin="round"/>
<path d="M247.657 345.642C248.165 345.858 248.596 346.224 248.892 346.69C249.188 347.157 249.336 347.702 249.315 348.254C249.185 352.485 248.558 362.542 245.619 364.305C241.884 366.538 224.449 368.223 220.218 365.415C217.984 363.926 213.126 350.853 214.994 347.131C216.861 343.409 232.716 339.504 247.657 345.642Z" stroke="#263238" stroke-linecap="round" stroke-linejoin="round"/>
<path d="M259.189 345.642C259.189 345.642 252.267 344.14 247.774 346.386" stroke="#263238" stroke-linecap="round" stroke-linejoin="round"/>
<path d="M256.747 350.122H249.642" stroke="#263238" stroke-linecap="round" stroke-linejoin="round"/>
<path d="M267.952 359.838C269.193 359.838 270.198 357.996 270.198 355.724C270.198 353.452 269.193 351.61 267.952 351.61C266.711 351.61 265.706 353.452 265.706 355.724C265.706 357.996 266.711 359.838 267.952 359.838Z" fill="#263238"/>
<path d="M242.55 359.838C243.791 359.838 244.797 357.996 244.797 355.724C244.797 353.452 243.791 351.61 242.55 351.61C241.31 351.61 240.304 353.452 240.304 355.724C240.304 357.996 241.31 359.838 242.55 359.838Z" fill="#263238"/>
<path d="M255.976 358.336C255.976 358.336 255.597 363.56 257.465 365.428C259.332 367.295 261.566 368.797 258.954 370.652C256.342 372.506 254.108 374.008 250.373 370.652" stroke="#263238" stroke-linecap="round" stroke-linejoin="round"/>
<path d="M262.715 378.501C262.715 378.501 253.377 382.994 245.162 377.012" stroke="#263238" stroke-linecap="round" stroke-linejoin="round"/>
<path d="M275.044 347.51C273.567 346.405 271.836 345.689 270.011 345.427C268.186 345.164 266.324 345.364 264.596 346.008" stroke="#263238" stroke-linecap="round" stroke-linejoin="round"/>
<path d="M244.418 347.131C244.418 347.131 235.824 342.651 230.966 349.743" stroke="#263238" stroke-linecap="round" stroke-linejoin="round"/>
<path d="M275.422 418.465L246.285 490.177L229.099 421.455" stroke="#263238" stroke-linecap="round" stroke-linejoin="round"/>
<path d="M242.55 493.546C242.55 494.36 242.792 495.155 243.244 495.832C243.696 496.509 244.338 497.036 245.09 497.347C245.842 497.659 246.669 497.74 247.467 497.581C248.265 497.423 248.998 497.031 249.573 496.455C250.149 495.88 250.54 495.147 250.699 494.349C250.858 493.551 250.776 492.724 250.465 491.972C250.154 491.22 249.626 490.578 248.95 490.126C248.273 489.674 247.478 489.432 246.664 489.432C245.573 489.432 244.527 489.866 243.755 490.637C242.984 491.409 242.55 492.455 242.55 493.546Z" fill="#263238" stroke="#263238" stroke-linecap="round" stroke-linejoin="round"/>
<path d="M153.834 555.177H266.385V551.69H153.834V555.177Z" fill="#808080" stroke="#263238" stroke-linecap="round" stroke-linejoin="round"/>
<path d="M71.6733 478.475H184.708L207.615 555.164H94.5805L71.6733 478.475Z" fill="#808080" stroke="#263238" stroke-linecap="round" stroke-linejoin="round"/>
</svg>
