<svg width="369" height="326" viewBox="0 0 369 326" fill="none" xmlns="http://www.w3.org/2000/svg">
<path d="M145.89 233.278C145.89 233.278 129.697 233.811 106.207 228.063C82.7174 222.316 63.4086 226.497 59.7598 248.938C56.1111 271.379 116.136 294.352 157.885 302.715C199.635 311.077 241.416 314.71 261.774 305.847C282.132 296.983 281.599 265.131 273.769 250.504C265.939 235.878 239.85 233.811 226.273 235.972C212.695 238.133 145.89 233.278 145.89 233.278Z" fill="#263238"/>
<path d="M227.948 311.766C203.941 311.766 176.082 307.146 157.744 303.482C115.697 295.072 55.2341 271.88 58.9769 248.813C60.3863 240.184 64.1603 233.779 70.1738 229.802C78.3639 224.368 90.8919 223.538 106.395 227.296C129.494 232.949 145.702 232.511 145.859 232.495C146.532 232.495 212.742 237.193 226.069 235.126C238.205 233.247 265.986 234.468 274.38 250.144C279.266 259.258 281.725 275.638 276.98 289.294C274.114 297.531 268.93 303.497 262.009 306.52C253.396 310.341 241.259 311.766 227.948 311.766ZM88.9501 226.576C81.6839 226.576 75.6234 228.142 71.0351 231.133C65.3975 234.875 61.8583 240.92 60.5272 249.095C57.0977 270.189 114.961 293.35 158.042 301.978C186.387 307.647 237.516 315.587 261.398 305.11C267.912 302.26 272.798 296.638 275.492 288.808C280.049 275.685 277.606 259.462 273.002 250.864C265 235.925 238.08 234.844 226.32 236.645C212.868 238.728 149.022 234.28 145.796 234.045C144.841 234.045 128.695 234.374 105.941 228.815C100.387 227.395 94.6827 226.643 88.9501 226.576Z" fill="#263238"/>
<path d="M251.329 135.153C249.094 120.098 246.855 105.054 244.61 90.0204C242.528 76.0517 241.651 61.0964 238.018 47.4565C233.32 27.0985 226.273 16.1366 205.132 12.2216C183.991 8.30655 160.501 31.0135 160.501 41.1925C160.501 51.3715 167.767 74.3448 156.586 110.488C152.765 122.844 167.548 124.582 185.416 119.117L251.329 135.153Z" fill="#263238"/>
<path d="M251.329 135.936H251.141L185.369 119.962C172.058 124.018 161.55 123.862 157.181 119.555C154.973 117.347 154.472 114.215 155.693 110.284C164.353 82.2844 161.863 62.036 160.391 49.9308C159.957 47.0464 159.69 44.1392 159.592 41.2238C159.592 36.2909 164.682 28.6958 172.261 22.4318C177.304 18.2506 190.584 8.79198 205.147 11.4698C227.197 15.5414 234.134 27.6936 238.66 47.2843C240.972 56.9457 242.605 66.7572 243.546 76.6468C244.078 81.0316 244.611 85.573 245.268 89.9265C246.479 98.0488 247.69 106.176 248.901 114.309L252.033 135.043C252.056 135.171 252.046 135.302 252.005 135.425C251.964 135.548 251.893 135.659 251.798 135.748C251.664 135.856 251.501 135.921 251.329 135.936ZM185.416 118.334H185.604L250.389 134.182L247.476 114.591C246.255 106.469 245.044 98.3359 243.843 90.1927C243.185 85.8235 242.653 81.2821 242.121 76.8817C241.186 67.0605 239.564 57.3169 237.266 47.7227C232.772 28.273 226.304 16.9978 204.991 13.0515C195.344 11.2663 183.537 15.2282 173.389 23.669C166.264 29.6041 161.284 36.8234 161.284 41.2552C161.386 44.1072 161.647 46.9513 162.067 49.7742C163.633 62.0047 166.091 82.4566 157.369 110.77C156.335 114.121 156.695 116.705 158.465 118.475C162.302 122.327 172.559 122.311 185.212 118.475C185.27 118.415 185.339 118.367 185.416 118.334Z" fill="#263238"/>
<path d="M194.561 103.833C194.561 103.833 168.722 107.356 156.586 110.488C144.449 113.62 140.143 118.067 135.773 126.352C131.404 134.636 124.905 165.408 118.641 178.327C112.377 191.247 100.993 194.66 99.0351 208.363C97.0776 222.065 108.04 226.763 116.261 228.329C122.348 229.367 128.493 230.021 134.662 230.287C134.662 230.287 147.973 261.607 173.812 263.956C199.651 266.305 218.834 248.296 230.579 241.64C242.324 234.985 243.107 219.716 243.499 202.099C243.89 184.481 254.304 144.862 251.564 133.9C248.823 122.938 244.72 121.137 226.93 111.976C219.32 108.108 205.523 103.05 194.561 103.833Z" fill="#AD667E"/>
<path d="M178.463 264.943C176.897 264.943 175.331 264.943 173.765 264.739C149.476 262.531 135.946 234.985 134.16 231.039C128.118 230.768 122.098 230.12 116.136 229.097C108.556 227.656 96.1693 223.021 98.2678 208.253C99.4423 200.11 103.827 195.475 108.462 190.558C112.289 186.886 115.494 182.618 117.952 177.92C121.272 171.077 124.733 158.924 127.803 148.166C130.496 138.77 133.049 129.797 135.084 125.897C139.391 117.692 143.87 112.931 156.413 109.689C168.44 106.557 194.217 103.05 194.467 103.018C205.226 102.235 218.881 106.996 227.259 111.287L228.825 112.085C245.159 120.448 249.559 122.703 252.315 133.68C253.881 140.085 251.282 155.197 248.51 171.264C246.505 182.743 244.454 194.598 244.282 202.146C243.921 218.401 243.546 235.22 230.971 242.345C228.606 243.676 225.991 245.477 222.953 247.497C211.912 254.936 197.098 264.943 178.463 264.943ZM194.639 104.6C193.7 104.741 168.566 108.202 156.789 111.24C144.747 114.372 140.628 118.694 136.431 126.649C134.458 130.408 131.937 139.255 129.259 148.573C126.127 159.363 122.697 171.593 119.315 178.562C116.785 183.402 113.49 187.801 109.559 191.591C104.861 196.524 100.867 200.768 99.7868 208.426C97.9546 221.236 107.789 225.871 116.371 227.515C122.421 228.544 128.53 229.192 134.662 229.457C134.809 229.462 134.952 229.509 135.074 229.593C135.196 229.676 135.292 229.792 135.351 229.927C135.476 230.24 148.787 260.84 173.843 263.126C194.201 264.974 210.284 254.075 222.044 246.135C225.176 244.052 227.745 242.267 230.156 240.904C241.118 234.64 242.262 220.875 242.684 202.036C242.857 194.379 244.924 182.446 246.928 170.92C249.559 155.777 252.284 140.117 250.765 134.041C248.197 123.752 244.329 121.779 228.105 113.463L226.539 112.665C218.443 108.515 205.1 103.864 194.639 104.6Z" fill="#263238"/>
<path d="M113.333 186.345C107.366 193.486 100.507 198.012 99.0351 208.363C98.6959 210.437 98.6959 212.553 99.0351 214.627C100.601 217.039 105.55 222.755 115.102 220.03C127.067 216.6 125.782 199.938 118.516 189.681C117.946 188.782 117.187 188.017 116.292 187.441C115.397 186.865 114.387 186.491 113.333 186.345Z" fill="white"/>
<path d="M110.279 221.471C107.925 221.466 105.61 220.871 103.544 219.741C101.479 218.612 99.7296 216.983 98.4558 215.003C98.392 214.915 98.3492 214.813 98.3305 214.705C97.9583 212.573 97.9319 210.394 98.2522 208.253C99.4267 200.11 103.811 195.459 108.463 190.558C109.872 188.992 111.328 187.52 112.722 185.86C112.805 185.756 112.914 185.675 113.037 185.625C113.161 185.576 113.295 185.56 113.427 185.578C114.595 185.724 115.718 186.122 116.718 186.744C117.719 187.366 118.572 188.197 119.221 189.18C124.31 196.368 126.237 206.014 123.919 212.67C123.283 214.619 122.171 216.379 120.684 217.79C119.196 219.201 117.38 220.218 115.4 220.75C113.735 221.228 112.011 221.471 110.279 221.471ZM99.8495 214.267C101.416 216.71 106.114 221.721 114.946 219.215C116.689 218.76 118.288 217.871 119.594 216.63C120.9 215.39 121.871 213.839 122.416 212.121C124.592 205.857 122.76 196.869 117.952 190.072C117.46 189.33 116.826 188.692 116.087 188.195C115.348 187.698 114.519 187.352 113.646 187.175C112.315 188.741 110.937 190.213 109.59 191.623C104.892 196.555 100.899 200.815 99.8182 208.473C99.5144 210.393 99.525 212.35 99.8495 214.267Z" fill="#263238"/>
<path d="M192.729 156.701C203.691 151.69 209.61 143.03 214.653 126.602C216.498 120.678 217.989 114.648 219.116 108.546C211.678 105.696 202.422 103.269 194.592 103.848C194.592 103.848 183.443 105.414 172.34 107.293C171.416 113.056 169.208 129.468 171.792 141.745C174.955 156.701 181.783 161.712 192.729 156.701Z" fill="white"/>
<path d="M185.275 159.363C183.569 159.382 181.884 158.996 180.358 158.235C175.926 156.012 172.856 150.64 170.961 141.824C168.378 129.625 170.476 113.526 171.51 107.153C171.533 106.993 171.607 106.846 171.719 106.73C171.832 106.615 171.977 106.538 172.136 106.51C183.098 104.6 194.311 103.065 194.42 103.05C203.581 102.408 213.964 105.759 219.335 107.748C219.504 107.816 219.644 107.941 219.733 108.1C219.821 108.26 219.852 108.445 219.821 108.625C218.68 114.779 217.174 120.861 215.311 126.837C210.096 143.875 203.848 152.441 192.995 157.421C190.588 158.606 187.957 159.268 185.275 159.363ZM173.029 107.951C171.995 114.575 170.1 129.875 172.559 141.495C174.297 149.701 177.163 154.869 181.094 156.842C184.147 158.408 187.859 158.094 192.447 155.996C202.83 151.298 208.843 142.92 213.901 126.383C215.655 120.716 217.087 114.954 218.192 109.126C212.805 107.106 203.127 104.083 194.702 104.694C194.561 104.616 183.771 106.088 173.029 107.951Z" fill="#263238"/>
<path d="M140.926 214.627C140.828 214.648 140.726 214.648 140.628 214.627C140.532 214.589 140.445 214.533 140.372 214.461C140.299 214.389 140.241 214.303 140.201 214.208C140.162 214.113 140.142 214.011 140.142 213.908C140.143 213.805 140.165 213.704 140.205 213.609C140.284 213.421 148.035 194.112 148.035 188.851C148.035 185.155 146.344 181.412 144.387 177.074C143.525 175.18 142.648 173.238 141.818 171.124C139.109 164.139 145.263 153.224 146.109 151.783C146.485 148.949 150.697 117.504 154.769 111.631C154.827 111.547 154.901 111.475 154.987 111.42C155.073 111.365 155.169 111.328 155.27 111.31C155.371 111.293 155.474 111.295 155.573 111.318C155.673 111.341 155.767 111.384 155.85 111.443C156.019 111.56 156.135 111.74 156.173 111.942C156.211 112.144 156.168 112.353 156.053 112.524C152.107 118.224 147.675 151.815 147.644 152.144C147.624 152.248 147.587 152.349 147.534 152.441C147.534 152.566 140.722 163.951 143.29 170.56C144.089 172.627 144.966 174.553 145.812 176.432C147.847 180.927 149.601 184.826 149.601 188.851C149.601 194.41 142.038 213.39 141.771 214.189C141.703 214.348 141.581 214.479 141.427 214.559C141.273 214.639 141.096 214.663 140.926 214.627Z" fill="#263238"/>
<path d="M103.733 175.477L109.606 169.213C113.466 171.321 117.533 173.026 121.742 174.303C137.606 179.58 144.841 182.916 145.624 192.312C145.624 192.312 156.194 185.656 166.765 186.831C177.335 188.005 186.731 192.312 189.863 192.703L192.995 193.095L193.778 198.576L187.906 229.504L142.1 224.806L110.78 197.401L103.733 175.477Z" fill="white"/>
<path d="M187.906 230.287H187.827L142.022 225.589C141.86 225.574 141.706 225.508 141.583 225.401L110.263 197.996C110.154 197.906 110.073 197.786 110.028 197.652L102.981 175.728C102.942 175.592 102.939 175.449 102.972 175.311C103.005 175.174 103.073 175.048 103.169 174.945L109.042 168.681C109.165 168.553 109.329 168.47 109.505 168.448C109.682 168.425 109.861 168.463 110.013 168.555C113.825 170.63 117.839 172.309 121.993 173.567C137.653 178.781 144.95 182.133 146.266 191.043C149.241 189.383 157.964 185.077 166.859 186.063C172.989 186.894 179.015 188.369 184.836 190.464C186.506 191.075 188.217 191.567 189.957 191.936L193.089 192.327C193.262 192.349 193.422 192.427 193.547 192.548C193.671 192.67 193.752 192.829 193.778 193.001L194.561 198.482C194.569 198.565 194.569 198.649 194.561 198.732L188.689 229.708C188.645 229.88 188.544 230.032 188.401 230.137C188.258 230.243 188.083 230.296 187.906 230.287ZM142.492 224.023L187.326 228.611L193.042 198.513L192.369 193.815L189.832 193.486C187.987 193.11 186.175 192.586 184.413 191.92C178.689 189.857 172.763 188.403 166.733 187.582C156.554 186.439 146.203 192.891 146.109 192.954C145.992 193.019 145.86 193.054 145.725 193.054C145.591 193.054 145.459 193.019 145.342 192.954C145.22 192.897 145.116 192.809 145.039 192.699C144.962 192.589 144.915 192.461 144.903 192.327C144.167 183.432 137.214 180.206 121.554 174.992C117.508 173.717 113.579 172.098 109.809 170.153L104.688 175.618L111.516 196.9L142.492 224.023Z" fill="#263238"/>
<path d="M101.776 174.303L138.968 206.014L142.883 199.75L196.127 198.576L192.995 233.028L142.492 230.679L138.968 233.028L111.563 212.67L101.776 174.303Z" fill="#263238"/>
<path d="M192.995 233.811L142.742 231.462L139.438 233.67C139.304 233.762 139.146 233.811 138.984 233.811C138.822 233.811 138.663 233.762 138.53 233.67L111.125 213.312C110.98 213.205 110.88 213.049 110.843 212.873L100.993 174.49C100.948 174.329 100.958 174.157 101.02 174.002C101.082 173.846 101.194 173.715 101.337 173.629C101.476 173.541 101.64 173.501 101.805 173.515C101.969 173.529 102.124 173.597 102.245 173.707L138.749 204.824L142.194 199.327C142.262 199.218 142.357 199.128 142.469 199.065C142.581 199.002 142.708 198.968 142.836 198.967L196.08 197.793C196.191 197.791 196.302 197.812 196.404 197.855C196.507 197.898 196.599 197.962 196.675 198.043C196.747 198.124 196.802 198.218 196.837 198.32C196.872 198.422 196.886 198.53 196.879 198.638L193.747 233.09C193.728 233.28 193.642 233.458 193.504 233.59C193.367 233.722 193.186 233.8 192.995 233.811ZM142.492 229.896L192.243 232.213L195.234 199.327L143.29 200.47L139.595 206.374C139.538 206.47 139.461 206.552 139.369 206.614C139.277 206.676 139.172 206.717 139.062 206.734C138.951 206.751 138.839 206.745 138.731 206.715C138.623 206.685 138.522 206.633 138.436 206.562L103.138 176.464L112.252 212.168L138.999 232.041L142.053 229.99C142.188 229.919 142.34 229.887 142.492 229.896Z" fill="#263238"/>
<path d="M231.362 163.732L230.579 208.363C230.579 208.363 207.481 221.283 194.561 224.806C187.439 226.934 180.068 228.118 172.637 228.33C171.463 228.33 166.373 220.108 163.633 217.367C160.892 214.627 158.684 214.58 153.673 212.074C146.689 208.582 143.666 207.971 144.058 209.537C144.449 211.103 144.841 212.669 148.364 214.627C151.888 216.584 154.237 218.15 154.237 218.15L155.02 219.716C155.02 219.716 146.407 218.542 142.883 217.759C139.36 216.976 130.355 210.712 130.355 210.712C130.355 210.712 126.518 210.477 129.259 215.175C131.999 219.873 134.662 220.108 134.662 220.108C135.187 222.925 136.552 225.518 138.577 227.547C140.317 229.089 142.147 230.527 144.058 231.853C144.058 231.853 136.619 229.896 137.402 231.853C138.185 233.811 142.883 234.594 148.756 237.334C154.628 240.075 167.939 240.466 175.378 241.641C188.881 243.383 202.534 243.646 216.094 242.424C231.754 240.858 255.244 230.287 259.55 226.764C263.857 223.24 261.116 183.698 259.942 174.694C258.767 165.689 256.418 148.855 254.852 141.025C253.286 133.195 247.022 122.233 243.107 119.884C239.192 117.535 232.145 124.973 231.362 163.732Z" fill="white"/>
<path d="M199.651 243.958C191.496 244.01 183.349 243.486 175.268 242.392C173.013 242.032 170.178 241.75 167.172 241.453C160.36 240.764 152.624 239.981 148.38 238.023C146.25 237.037 144.308 236.316 142.586 235.674C139.375 234.468 137.261 233.685 136.635 232.119C136.529 231.901 136.491 231.657 136.524 231.417C136.557 231.178 136.661 230.953 136.823 230.773C137.402 230.099 138.937 230.083 140.675 230.334C139.892 229.708 138.999 228.972 138.013 228.11C135.959 226.107 134.542 223.541 133.941 220.734C132.908 220.39 130.715 219.278 128.539 215.551C127.395 213.578 127.145 212.121 127.787 211.072C128.081 210.677 128.471 210.362 128.921 210.16C129.37 209.957 129.864 209.872 130.355 209.913C130.503 209.915 130.646 209.964 130.762 210.054C130.841 210.054 139.673 216.24 143.008 216.976C145.577 217.555 150.995 218.338 153.61 218.714C153.015 218.323 150.885 216.96 147.973 215.332C144.152 213.218 143.682 211.37 143.275 209.757C143.184 209.502 143.175 209.225 143.248 208.964C143.321 208.704 143.472 208.472 143.682 208.3C144.199 207.893 145.248 207.032 153.986 211.432C155.693 212.294 157.118 212.857 158.277 213.343C160.474 214.062 162.481 215.266 164.149 216.866C165.784 218.683 167.301 220.603 168.691 222.614C169.875 224.417 171.239 226.096 172.762 227.625C180.07 227.363 187.315 226.179 194.326 224.101C206.087 220.969 226.68 209.663 229.765 207.956L230.548 163.779C231.065 138.504 234.478 122.264 239.944 119.258C240.479 118.931 241.094 118.758 241.721 118.758C242.348 118.758 242.963 118.931 243.499 119.258C247.711 121.779 254.053 133.117 255.604 140.915C257.154 148.714 259.55 165.846 260.709 174.631C261.226 178.625 265.219 223.177 260.036 227.406C255.541 231.086 231.707 241.688 216.188 243.238C210.613 243.802 205.006 243.958 199.651 243.958ZM138.279 231.79C138.874 232.605 140.8 233.356 143.196 234.218C144.95 234.86 146.923 235.596 149.1 236.614C153.046 238.462 160.642 239.229 167.328 239.902C170.351 240.216 173.201 240.497 175.519 240.858C188.953 242.6 202.539 242.863 216.031 241.641C231.315 240.075 254.68 229.739 259.065 226.153C262.745 223.146 260.631 186.345 259.174 174.788C258.031 166.018 255.682 149.074 254.1 141.166C252.519 133.258 246.27 122.672 242.716 120.557C242.418 120.37 242.073 120.27 241.721 120.27C241.369 120.27 241.024 120.37 240.727 120.557C238.91 121.575 232.897 127.667 232.161 163.748L231.378 208.379C231.376 208.515 231.337 208.648 231.265 208.764C231.194 208.88 231.092 208.974 230.971 209.036C230.751 209.177 207.653 222.05 194.78 225.558C187.589 227.691 180.151 228.886 172.653 229.113C171.729 229.113 170.774 227.969 167.485 223.475C166.136 221.536 164.671 219.68 163.1 217.916C161.565 216.485 159.73 215.415 157.729 214.784C156.492 214.267 155.098 213.703 153.328 212.826C147.393 209.851 145.498 209.569 144.872 209.538C145.248 211.01 145.686 212.278 148.756 213.985C152.263 215.943 154.659 217.524 154.691 217.54C154.799 217.619 154.89 217.721 154.957 217.837L155.74 219.403C155.81 219.528 155.847 219.668 155.847 219.811C155.847 219.953 155.81 220.093 155.74 220.218C155.657 220.335 155.542 220.427 155.409 220.482C155.276 220.538 155.13 220.554 154.988 220.531C154.644 220.531 146.313 219.341 142.789 218.573C139.266 217.806 131.608 212.513 130.261 211.542C130.081 211.54 129.902 211.576 129.737 211.649C129.572 211.722 129.425 211.83 129.306 211.965C129.165 212.184 128.977 212.92 130.073 214.815C132.532 219.028 134.865 219.372 134.881 219.372C135.049 219.392 135.206 219.465 135.33 219.581C135.454 219.696 135.538 219.848 135.57 220.014C136.074 222.653 137.349 225.084 139.234 226.998C140.947 228.522 142.751 229.939 144.637 231.242C144.794 231.345 144.91 231.5 144.962 231.68C145.015 231.86 145.001 232.053 144.923 232.224C144.845 232.394 144.709 232.531 144.539 232.61C144.368 232.689 144.175 232.703 143.995 232.652C142.139 232.075 140.207 231.785 138.263 231.79H138.279Z" fill="#263238"/>
<path d="M134.662 220.108C134.662 220.108 143.979 225.636 150.964 227.186L134.662 220.108Z" fill="white"/>
<path d="M150.964 227.954H150.791C143.776 226.388 134.646 221.016 134.27 220.797C134.091 220.69 133.962 220.516 133.909 220.314C133.856 220.112 133.885 219.898 133.988 219.717C134.04 219.628 134.109 219.551 134.19 219.49C134.272 219.429 134.365 219.384 134.465 219.359C134.564 219.335 134.667 219.33 134.768 219.345C134.869 219.361 134.966 219.397 135.053 219.45C135.147 219.45 144.355 224.931 151.12 226.435C151.328 226.455 151.519 226.558 151.651 226.719C151.783 226.881 151.846 227.088 151.825 227.296C151.804 227.504 151.702 227.695 151.54 227.827C151.379 227.959 151.171 228.021 150.964 228.001V227.954Z" fill="#263238"/>
<path d="M144.058 231.853C147.015 232.961 150.127 233.606 153.281 233.764L144.058 231.853Z" fill="white"/>
<path d="M153.281 234.547C150.029 234.392 146.821 233.726 143.776 232.573C143.584 232.5 143.428 232.353 143.343 232.166C143.258 231.978 143.25 231.764 143.322 231.571C143.358 231.474 143.413 231.385 143.485 231.31C143.556 231.234 143.641 231.174 143.736 231.131C143.83 231.089 143.932 231.066 144.036 231.064C144.14 231.061 144.243 231.079 144.34 231.117C147.208 232.189 150.223 232.818 153.281 232.981C153.489 232.981 153.688 233.063 153.835 233.21C153.982 233.357 154.064 233.556 154.064 233.764C154.064 233.971 153.982 234.17 153.835 234.317C153.688 234.464 153.489 234.547 153.281 234.547Z" fill="#263238"/>
<path d="M135.852 224.086C140.764 227.54 146.284 230.038 152.122 231.446L135.852 224.086Z" fill="white"/>
<path d="M152.123 232.229H151.935C146.009 230.789 140.412 228.233 135.445 224.696C135.281 224.569 135.174 224.383 135.148 224.177C135.121 223.972 135.177 223.764 135.304 223.6C135.431 223.436 135.617 223.33 135.823 223.303C136.028 223.277 136.236 223.333 136.4 223.459C141.228 226.84 146.646 229.288 152.373 230.678C152.474 230.701 152.569 230.743 152.653 230.802C152.737 230.862 152.808 230.938 152.862 231.025C152.916 231.113 152.952 231.211 152.968 231.313C152.983 231.414 152.978 231.518 152.953 231.618C152.912 231.803 152.805 231.967 152.652 232.079C152.5 232.192 152.311 232.245 152.123 232.229Z" fill="#263238"/>
<path d="M220.76 241.734C236.06 238.9 255.651 229.942 259.55 226.764C263.857 223.24 261.116 183.698 259.942 174.694C258.767 165.689 256.418 148.855 254.852 141.025C253.286 133.195 247.022 122.233 243.107 119.884C239.192 117.535 232.145 124.973 231.362 163.732L230.579 208.363C230.579 208.363 221.606 213.374 211.709 218.01C215.53 222.159 221.966 230.929 220.76 241.734Z" fill="#AD667E"/>
<path d="M220.76 242.517C220.565 242.512 220.377 242.44 220.228 242.314C220.142 242.229 220.075 242.126 220.035 242.012C219.994 241.898 219.98 241.776 219.993 241.656C221.152 231.18 214.935 222.676 211.129 218.542C211.05 218.451 210.992 218.343 210.96 218.227C210.927 218.11 210.921 217.988 210.942 217.869C210.963 217.746 211.015 217.631 211.091 217.533C211.168 217.434 211.267 217.356 211.38 217.305C219.977 213.28 227.964 208.911 229.796 207.909L230.579 163.732C231.096 138.457 234.51 122.217 239.975 119.211C240.511 118.884 241.126 118.711 241.753 118.711C242.38 118.711 242.995 118.884 243.53 119.211C247.742 121.732 254.085 133.07 255.635 140.868C257.185 148.667 259.581 165.799 260.74 174.584C261.257 178.578 265.25 223.13 260.067 227.359C255.901 230.772 236.06 239.699 220.917 242.502L220.76 242.517ZM212.93 218.276C216.798 222.692 222.326 230.804 221.575 240.779C237.235 237.647 255.557 228.956 258.986 226.153C262.667 223.146 260.552 186.345 259.096 174.788C257.953 166.018 255.604 149.074 254.022 141.166C252.441 133.258 246.192 122.672 242.637 120.557C242.34 120.37 241.995 120.27 241.643 120.27C241.291 120.27 240.946 120.37 240.649 120.557C238.832 121.575 232.819 127.667 232.083 163.748L231.3 208.379C231.298 208.515 231.259 208.648 231.187 208.764C231.115 208.88 231.013 208.974 230.892 209.036C230.877 209.083 222.42 213.813 212.993 218.276H212.93Z" fill="#263238"/>
<path d="M180.671 99.1815C180.671 99.1815 177.163 119.539 176.818 132.067C176.474 144.595 185.917 157.264 199.212 141.166C212.508 125.067 210.409 98.4611 210.409 98.4611C205.773 100.635 200.735 101.821 195.616 101.945C190.496 102.069 185.407 101.128 180.671 99.1815Z" fill="white"/>
<path d="M187.326 149.575C186.309 149.579 185.3 149.393 184.351 149.027C179.308 147.148 175.816 140.007 176.035 132.068C176.38 119.54 179.856 99.1815 179.888 99.0406C179.913 98.9276 179.96 98.8209 180.028 98.7267C180.095 98.6325 180.181 98.5529 180.279 98.4925C180.387 98.4421 180.505 98.416 180.624 98.416C180.743 98.416 180.86 98.4421 180.968 98.4925C185.602 100.384 190.575 101.301 195.579 101.185C200.582 101.069 205.508 99.9231 210.049 97.8191C210.163 97.7593 210.29 97.7287 210.419 97.7299C210.548 97.7311 210.675 97.7642 210.788 97.8262C210.901 97.8882 210.997 97.9771 211.068 98.0852C211.138 98.1932 211.181 98.317 211.192 98.4455C211.286 99.5417 213.165 125.553 199.823 141.714C194.749 147.821 190.505 149.575 187.326 149.575ZM181.281 100.262C180.592 104.428 177.899 121.246 177.601 132.099C177.398 139.396 180.467 145.895 184.899 147.571C188.908 149.137 193.653 146.694 198.617 140.681C210.002 126.884 209.892 104.944 209.689 99.6983C200.655 103.581 190.462 103.783 181.281 100.262Z" fill="#263238"/>
<path d="M181.36 125.522H181.234C181.132 125.505 181.035 125.468 180.947 125.413C180.86 125.358 180.784 125.286 180.724 125.201C180.664 125.117 180.622 125.021 180.6 124.92C180.577 124.82 180.575 124.715 180.592 124.613C181.61 118.819 180.937 108.108 180.937 107.998C180.928 107.896 180.94 107.793 180.972 107.696C181.004 107.599 181.055 107.509 181.122 107.431C181.189 107.354 181.271 107.291 181.363 107.246C181.455 107.2 181.555 107.174 181.657 107.168C181.864 107.159 182.066 107.231 182.221 107.369C182.376 107.506 182.471 107.698 182.487 107.904C182.487 108.343 183.192 118.866 182.127 124.88C182.097 125.061 182.003 125.225 181.862 125.343C181.722 125.461 181.543 125.524 181.36 125.522Z" fill="#263238"/>
<path d="M102.825 204.198C102.551 205.086 102.462 206.021 102.564 206.945C102.667 207.869 102.958 208.762 103.42 209.569C104.986 212.153 113.364 217.117 113.364 215.128C113.364 213.139 109.183 210.43 108.979 208.974C108.699 207.781 108.234 206.64 107.601 205.591C107.601 205.591 104.61 201.817 102.825 204.198Z" fill="white"/>
<path d="M112.832 216.365C110.404 216.365 104.172 212.294 102.762 209.976C102.235 209.074 101.902 208.071 101.786 207.033C101.67 205.994 101.773 204.943 102.089 203.947C102.116 203.869 102.153 203.796 102.198 203.728C102.425 203.395 102.728 203.121 103.082 202.931C103.437 202.74 103.832 202.637 104.234 202.631C106.16 202.631 107.977 204.855 108.181 205.106C108.904 206.265 109.433 207.534 109.747 208.864C110.16 209.606 110.688 210.278 111.313 210.853C112.659 212.247 114.069 213.687 114.069 215.128C114.077 215.398 113.994 215.664 113.831 215.88C113.669 216.096 113.438 216.251 113.176 216.318C113.063 216.345 112.948 216.361 112.832 216.365ZM103.53 204.652C103.314 205.415 103.252 206.215 103.349 207.003C103.446 207.79 103.699 208.551 104.093 209.24C105.362 211.307 110.843 214.58 112.503 214.878C111.933 213.805 111.181 212.841 110.279 212.027C109.34 211.28 108.624 210.289 108.212 209.162C107.949 208.058 107.515 207.001 106.928 206.03C106.263 205.145 105.32 204.511 104.25 204.229C104.105 204.236 103.964 204.279 103.838 204.352C103.713 204.426 103.607 204.529 103.53 204.652Z" fill="#263238"/>
<path d="M98.8159 192.593C98.8159 192.593 98.4401 198.403 99.4267 201.112C100.413 203.822 110.89 211.057 113.521 209.678C116.152 208.3 107.93 201.112 105.973 198.857C103.738 196.603 101.347 194.509 98.8159 192.593Z" fill="white"/>
<path d="M112.722 210.634C111.772 210.586 110.839 210.369 109.966 209.992C106.004 208.426 99.5676 203.806 98.6906 201.379C97.657 198.544 98.0329 192.781 98.0485 192.546C98.0554 192.403 98.1014 192.265 98.1815 192.146C98.2615 192.028 98.3727 191.933 98.5027 191.873C98.6326 191.818 98.7744 191.798 98.9144 191.815C99.0544 191.831 99.1877 191.884 99.3013 191.967C101.892 193.933 104.341 196.078 106.63 198.388C107.037 198.857 107.726 199.546 108.525 200.345C112.315 204.135 115.181 207.188 114.867 209.146C114.837 209.422 114.734 209.684 114.569 209.907C114.404 210.13 114.183 210.305 113.928 210.414C113.549 210.583 113.136 210.658 112.722 210.634ZM99.5519 194.144C99.4133 196.396 99.6192 198.656 100.163 200.846C100.773 202.506 106.427 206.922 110.545 208.535C112.409 209.271 113.067 209.052 113.223 208.974C113.536 207.533 109.402 203.399 107.429 201.41C106.583 200.58 105.863 199.844 105.44 199.374C103.603 197.494 101.635 195.746 99.5519 194.144Z" fill="#263238"/>
<path d="M98.8472 185.531C98.8472 185.531 98.0642 191.294 98.8472 194.065C99.6302 196.837 109.574 204.793 112.362 203.602C115.149 202.412 107.398 194.661 105.612 192.28C103.518 189.875 101.258 187.619 98.8472 185.531Z" fill="white"/>
<path d="M111.688 204.511C110.658 204.442 109.654 204.154 108.744 203.665C104.892 201.833 98.8003 196.759 98.0956 194.269C97.2656 191.372 98.0956 185.656 98.0956 185.405C98.1132 185.265 98.1693 185.132 98.2578 185.022C98.3462 184.911 98.4635 184.827 98.5967 184.779C98.7281 184.732 98.8696 184.72 99.007 184.745C99.1444 184.77 99.2729 184.83 99.3797 184.92C101.828 187.049 104.125 189.346 106.254 191.795C106.615 192.296 107.257 193.032 108.008 193.893C111.516 197.933 114.147 201.175 113.709 203.117C113.65 203.384 113.526 203.632 113.349 203.84C113.171 204.047 112.945 204.208 112.691 204.307C112.375 204.444 112.033 204.514 111.688 204.511ZM99.4267 187.128C99.1358 189.367 99.1833 191.637 99.5676 193.862C100.053 195.553 105.409 200.361 109.386 202.256C111.203 203.117 111.861 202.96 112.017 202.882C112.44 201.457 108.619 197.056 106.771 194.927C106.004 194.034 105.33 193.267 104.955 192.75C103.249 190.746 101.402 188.867 99.4267 187.128Z" fill="#263238"/>
<path d="M103.624 178.969C103.624 178.969 97.6571 175.837 96.6705 179.768C95.6839 183.699 100.241 187.911 104.422 191.294C108.603 194.676 110.373 194.065 110.373 190.886C110.373 187.707 103.624 178.969 103.624 178.969Z" fill="white"/>
<path d="M108.729 194.347C106.909 194.06 105.226 193.205 103.921 191.904C99.1291 188.021 94.8383 183.839 95.9032 179.58C95.9982 179.084 96.2116 178.619 96.5252 178.224C96.8388 177.828 97.2432 177.515 97.7041 177.309C100.069 176.26 103.592 178.077 103.968 178.28C104.072 178.326 104.159 178.403 104.219 178.499C104.939 179.408 111.14 187.551 111.14 190.887C111.14 192.593 110.655 193.674 109.715 194.128C109.408 194.278 109.07 194.353 108.729 194.347ZM99.3327 178.546C98.974 178.539 98.6175 178.603 98.2835 178.734C98.0427 178.849 97.8331 179.02 97.6722 179.232C97.5114 179.445 97.4042 179.693 97.3595 179.956C96.5139 183.385 100.664 187.3 104.845 190.683C107.742 193.016 108.744 192.828 108.995 192.719C109.245 192.609 109.527 191.889 109.527 190.887C109.527 188.553 104.955 182.07 103.044 179.596C101.921 179.005 100.691 178.648 99.4267 178.546H99.3327Z" fill="#263238"/>
<path d="M103.075 303.31C103.075 303.31 95.2454 307.491 80.6347 308.008C66.0239 308.524 54.0127 300.694 60.7934 294.43C64.3519 291.179 68.5795 288.747 73.1788 287.305C77.7782 285.863 82.6377 285.446 87.4154 286.084C96.8114 287.65 110.905 291.298 110.905 291.298L103.075 303.31Z" fill="white"/>
<path d="M79.2723 308.744C69.4848 308.744 60.4803 305.095 58.4758 300.162C58.0432 299.05 57.9834 297.827 58.3053 296.677C58.6272 295.528 59.3135 294.514 60.261 293.788C63.9034 290.446 68.2375 287.947 72.9551 286.469C77.6727 284.991 82.658 284.571 87.5564 285.238C96.9524 286.804 111.046 290.437 111.046 290.468C111.165 290.5 111.275 290.559 111.368 290.641C111.46 290.722 111.532 290.824 111.579 290.938C111.625 291.056 111.642 291.183 111.628 291.308C111.614 291.433 111.571 291.554 111.501 291.659L103.671 303.654C103.601 303.766 103.504 303.857 103.389 303.92C103.06 304.093 95.2298 308.196 80.6034 308.712L79.2723 308.744ZM82.9367 286.428C74.9359 286.526 67.2479 289.551 61.3259 294.932C60.5981 295.443 60.0645 296.185 59.8115 297.038C59.5585 297.891 59.601 298.804 59.9322 299.63C61.4982 303.576 69.9232 307.601 80.6034 307.209C93.6795 306.739 101.322 303.278 102.527 302.683L109.637 291.721C106.192 290.86 95.0576 288.088 87.2745 286.788C85.8408 286.551 84.39 286.43 82.9367 286.428Z" fill="#263238"/>
<path d="M105.174 290.187C105.879 290.265 106.63 290.312 107.382 290.343C102.59 289.153 93.8987 287.086 87.4154 286.005C82.6377 285.368 77.7782 285.784 73.1788 287.226C68.5794 288.669 64.3518 291.101 60.7934 294.352C57.3482 297.484 58.7733 301.149 62.9232 303.842C62.6598 301.643 63.1314 299.418 64.2644 297.514C65.3974 295.611 67.1282 294.136 69.1872 293.319C78.0194 289.216 96.2946 289.216 105.174 290.187Z" fill="white"/>
<path d="M62.9232 304.625C62.7735 304.622 62.6274 304.579 62.5004 304.5C59.7912 302.746 58.2722 300.694 58.0842 298.58C58.048 297.667 58.226 296.758 58.604 295.926C58.982 295.094 59.5494 294.362 60.261 293.788C63.9034 290.446 68.2374 287.947 72.9551 286.469C77.6727 284.991 82.6579 284.571 87.5563 285.238C94.0396 286.319 102.887 288.37 107.57 289.576C107.759 289.624 107.924 289.74 108.034 289.901C108.143 290.063 108.19 290.259 108.165 290.453C108.123 290.64 108.021 290.807 107.873 290.929C107.726 291.051 107.542 291.12 107.351 291.126C106.583 291.126 105.785 291.048 105.08 290.954C95.6839 289.858 77.8941 290.061 69.4847 294.086C67.5773 294.838 65.9742 296.203 64.928 297.967C63.8818 299.73 63.452 301.792 63.7062 303.826C63.7196 303.974 63.6915 304.123 63.6251 304.256C63.5587 304.388 63.4566 304.5 63.3303 304.578C63.1998 304.624 63.0607 304.64 62.9232 304.625ZM82.9367 286.428C74.9358 286.526 67.2479 289.551 61.3259 294.932C60.7889 295.345 60.3573 295.88 60.0661 296.493C59.775 297.105 59.6325 297.777 59.6502 298.455C59.9338 300.003 60.8174 301.377 62.1089 302.276C62.1599 300.187 62.8219 298.158 64.0131 296.441C65.2042 294.724 66.8724 293.394 68.8113 292.614C76.0776 289.184 88.7308 288.589 97.8293 288.887C94.2588 288.088 90.4848 287.321 87.2901 286.773C85.8508 286.539 84.3948 286.424 82.9367 286.428Z" fill="#263238"/>
<path d="M266.472 259.9C266.472 259.9 250.812 283.39 235.152 292.786C219.492 302.182 147.973 303.31 133.362 303.31H103.075V292.348C103.075 292.348 151.105 285.489 177.727 270.424C204.349 255.359 218.443 238.587 239.317 231.79C260.192 224.994 278.467 236.488 277.951 264.676" fill="#263238"/>
<path d="M133.362 304.014H103.075C102.868 304.014 102.669 303.932 102.522 303.785C102.375 303.638 102.292 303.439 102.292 303.231V292.269C102.294 292.082 102.363 291.902 102.487 291.761C102.61 291.62 102.78 291.528 102.966 291.502C103.451 291.502 151.152 284.549 177.335 269.672C187.155 263.925 196.605 257.57 205.633 250.645C217.018 242.22 226.852 234.985 239.083 230.976C249.575 227.562 259.362 228.658 266.66 234.108C274.693 240.059 278.984 250.911 278.734 264.661C278.736 264.765 278.717 264.868 278.677 264.965C278.637 265.061 278.578 265.148 278.503 265.22C278.428 265.292 278.339 265.348 278.241 265.384C278.143 265.419 278.039 265.435 277.935 265.428C277.832 265.426 277.731 265.404 277.637 265.363C277.542 265.321 277.457 265.262 277.386 265.188C277.315 265.114 277.259 265.026 277.221 264.93C277.184 264.835 277.166 264.732 277.168 264.629C277.418 251.412 273.347 241.014 265.72 235.361C258.846 230.271 249.559 229.253 239.568 232.511C227.588 236.41 217.848 243.614 206.557 251.96C197.486 258.917 187.988 265.298 178.118 271.066C153.375 285.16 109.809 292.097 103.858 292.99V302.495H133.362C134.192 302.495 217.722 302.386 234.745 292.16C250.076 282.967 265.658 259.759 265.814 259.524C265.929 259.353 266.107 259.233 266.309 259.192C266.512 259.151 266.722 259.192 266.895 259.305C266.981 259.36 267.056 259.433 267.114 259.518C267.172 259.602 267.213 259.698 267.233 259.799C267.254 259.9 267.254 260.004 267.233 260.104C267.213 260.205 267.172 260.301 267.114 260.386C266.957 260.62 251.188 284.126 235.543 293.506C218.161 303.889 134.208 304.014 133.362 304.014Z" fill="#263238"/>
<path d="M210.284 301.243C210.181 301.252 210.077 301.241 209.979 301.21C209.88 301.179 209.789 301.129 209.709 301.063C209.63 300.997 209.565 300.916 209.517 300.824C209.469 300.733 209.44 300.633 209.43 300.53C209.421 300.427 209.432 300.324 209.463 300.225C209.494 300.127 209.544 300.035 209.61 299.956C209.676 299.877 209.757 299.811 209.849 299.763C209.94 299.715 210.04 299.686 210.143 299.677C227.08 296.766 242.805 288.99 255.4 277.298C255.473 277.225 255.56 277.167 255.655 277.127C255.75 277.087 255.853 277.067 255.956 277.067C256.06 277.067 256.162 277.087 256.257 277.127C256.353 277.167 256.439 277.225 256.512 277.298C256.585 277.37 256.643 277.455 256.683 277.549C256.722 277.643 256.742 277.744 256.742 277.847C256.742 277.949 256.722 278.05 256.683 278.144C256.643 278.238 256.585 278.323 256.512 278.395C243.699 290.302 227.695 298.219 210.456 301.18L210.284 301.243Z" fill="white"/>
<path d="M261.805 272.35C261.629 272.348 261.458 272.287 261.32 272.178C261.158 272.048 261.055 271.861 261.031 271.655C261.008 271.45 261.066 271.244 261.194 271.081C262.826 269.135 264.268 267.037 265.501 264.817C265.598 264.636 265.761 264.499 265.957 264.435C266.152 264.37 266.365 264.384 266.55 264.473C266.643 264.518 266.726 264.581 266.794 264.658C266.862 264.735 266.915 264.825 266.948 264.923C266.982 265.02 266.996 265.123 266.989 265.226C266.983 265.329 266.956 265.43 266.91 265.522C265.633 267.857 264.127 270.061 262.416 272.099C262.34 272.185 262.245 272.252 262.14 272.295C262.034 272.339 261.919 272.357 261.805 272.35Z" fill="white"/>
<path d="M162.067 277.658C161.859 277.658 161.66 277.576 161.513 277.429C161.366 277.282 161.284 277.083 161.284 276.875C161.284 276.668 161.366 276.469 161.513 276.322C161.66 276.175 161.859 276.092 162.067 276.092C170.993 275.504 179.549 272.301 186.668 266.884C186.745 266.816 186.834 266.764 186.931 266.731C187.028 266.698 187.131 266.685 187.233 266.692C187.335 266.7 187.435 266.727 187.526 266.774C187.617 266.82 187.699 266.884 187.765 266.963C187.897 267.124 187.962 267.33 187.944 267.538C187.926 267.746 187.828 267.938 187.671 268.075C180.296 273.775 171.372 277.115 162.067 277.658Z" fill="white"/>
<path d="M93.836 237.632L92.1134 237.459L93.836 237.632Z" fill="#263238"/>
<path d="M93.836 238.415H93.7578L92.0508 238.258C91.8445 238.238 91.654 238.139 91.5195 237.981C91.3851 237.823 91.3173 237.619 91.3305 237.412C91.354 237.208 91.4544 237.019 91.6114 236.886C91.7683 236.752 91.9701 236.683 92.1761 236.692L93.93 236.864C94.1377 236.877 94.3319 236.971 94.4699 237.127C94.6079 237.282 94.6785 237.487 94.666 237.694C94.6536 237.902 94.5591 238.096 94.4035 238.234C94.2478 238.372 94.0437 238.443 93.836 238.43V238.415Z" fill="#263238"/>
<path d="M240.883 305.314C248.699 302.55 256.736 300.454 264.906 299.05C275.868 297.484 284.731 299.05 287.863 305.847C290.995 312.643 288.913 320.974 277.951 323.073C266.989 325.171 247.147 320.974 245.065 320.974C243.247 320.766 241.481 320.236 239.85 319.408L240.883 305.314Z" fill="white"/>
<path d="M270.543 324.435C263.245 324.24 255.97 323.517 248.776 322.274C246.928 321.992 245.472 321.757 245.065 321.757C243.127 321.574 241.239 321.043 239.49 320.191C239.352 320.123 239.238 320.014 239.163 319.88C239.087 319.746 239.054 319.593 239.067 319.44L240.1 305.345C240.115 305.194 240.171 305.05 240.262 304.929C240.354 304.807 240.476 304.713 240.617 304.656C248.486 301.891 256.574 299.796 264.796 298.392C277.324 296.592 285.561 299.097 288.584 305.627C289.471 307.39 289.944 309.331 289.969 311.304C289.993 313.276 289.568 315.229 288.725 317.012C287.456 319.502 284.575 322.712 278.092 323.95C275.596 324.341 273.069 324.504 270.543 324.435ZM240.664 318.97C242.047 319.639 243.536 320.063 245.065 320.223C246.388 320.334 247.705 320.511 249.011 320.755C255.651 321.789 269.463 323.887 277.81 322.321C282.508 321.428 285.734 319.314 287.331 316.198C288.064 314.626 288.43 312.909 288.4 311.175C288.37 309.441 287.946 307.736 287.159 306.191C283.76 298.815 273.237 298.674 265.015 299.849C257.064 301.201 249.242 303.229 241.635 305.909L240.664 318.97Z" fill="#263238"/>
<path d="M275.226 298.612C278.561 299.896 284.857 303.419 283.698 311.547C282.132 322.509 269.071 322.509 260.208 322.509C259.551 322.515 258.898 322.61 258.266 322.791C264.843 323.558 272.501 324.075 277.951 323.041C288.913 320.943 290.995 312.596 287.863 305.815C285.781 301.368 281.239 299.175 275.226 298.612Z" fill="white"/>
<path d="M270.528 324.435C266.396 324.392 262.271 324.109 258.172 323.589C257.991 323.568 257.824 323.484 257.698 323.353C257.572 323.221 257.496 323.05 257.483 322.869C257.475 322.688 257.528 322.51 257.633 322.362C257.738 322.215 257.889 322.107 258.062 322.055C258.762 321.866 259.483 321.766 260.208 321.757C269.165 321.757 281.443 321.757 282.915 311.468C283.98 304.03 278.373 300.694 274.944 299.363C274.769 299.293 274.624 299.164 274.535 298.998C274.446 298.832 274.419 298.639 274.458 298.455C274.503 298.273 274.611 298.113 274.763 298.003C274.915 297.894 275.102 297.843 275.288 297.86C282.038 298.455 286.517 300.992 288.584 305.518C289.471 307.28 289.945 309.221 289.969 311.194C289.993 313.166 289.568 315.119 288.725 316.902C287.456 319.392 284.575 322.603 278.092 323.84C275.595 324.275 273.062 324.474 270.528 324.435ZM270.371 322.869C272.862 322.894 275.351 322.706 277.81 322.305C282.508 321.412 285.734 319.298 287.331 316.182C288.064 314.611 288.43 312.893 288.4 311.159C288.37 309.425 287.946 307.721 287.159 306.175C286.442 304.71 285.41 303.422 284.138 302.401C282.866 301.381 281.384 300.654 279.799 300.271C281.582 301.534 282.971 303.278 283.802 305.299C284.634 307.32 284.875 309.535 284.497 311.688C283.369 319.361 277.105 321.976 270.371 322.869Z" fill="#263238"/>
<path d="M87.9479 225.98C87.9479 225.98 70.1894 222.849 58.7106 231.712C47.2319 240.576 48.7979 249.987 59.7599 263.565C70.7219 277.142 98.9099 301.149 159.984 312.111C221.058 323.073 239.85 319.408 239.85 319.408L240.883 305.314C214.656 305.404 189.076 297.18 167.814 281.824C133.628 256.768 118.391 240.309 93.836 237.632" fill="#263238"/>
<path d="M229.248 320.802C217.926 320.802 196.55 319.471 159.843 312.878C95.1828 301.274 67.8874 274.871 59.1491 264.05C52.2117 255.468 49.4243 249.095 50.0976 243.347C50.6144 238.931 53.2296 234.922 58.2252 231.101C69.8606 222.113 87.3371 225.072 88.0732 225.213C88.1755 225.226 88.274 225.26 88.3626 225.313C88.4512 225.366 88.528 225.436 88.5883 225.52C88.6485 225.604 88.6908 225.699 88.7127 225.8C88.7345 225.9 88.7354 226.005 88.7152 226.106C88.6982 226.208 88.6611 226.305 88.6061 226.393C88.5511 226.481 88.4793 226.556 88.3949 226.616C88.3105 226.676 88.215 226.718 88.1141 226.741C88.0132 226.763 87.9088 226.766 87.8069 226.748C87.6347 226.748 70.2677 223.788 59.1961 232.339C54.5921 235.893 52.1178 239.558 51.648 243.535C51.0372 248.75 53.8091 254.952 60.3706 263.063C68.9836 273.744 95.9658 299.817 160.109 311.343C214.528 321.099 235.481 319.173 239.114 318.735L240.038 306.128C213.948 305.914 188.561 297.651 167.344 282.466C159.608 276.797 152.749 271.504 146.704 266.806C126.127 250.927 112.534 240.419 93.7577 238.368C93.5501 238.345 93.36 238.24 93.2293 238.077C93.0986 237.914 93.038 237.706 93.0609 237.498C93.0837 237.291 93.1881 237.101 93.3511 236.97C93.5141 236.839 93.7223 236.779 93.93 236.802C113.145 238.9 126.816 249.502 147.659 265.553C153.704 270.251 160.548 275.497 168.268 281.213C189.425 296.395 214.812 304.556 240.852 304.547C240.962 304.542 241.072 304.56 241.175 304.601C241.277 304.641 241.37 304.703 241.447 304.782C241.524 304.863 241.583 304.959 241.62 305.064C241.658 305.169 241.674 305.281 241.666 305.392L240.633 319.486C240.616 319.657 240.544 319.818 240.429 319.945C240.313 320.072 240.159 320.158 239.991 320.191C236.434 320.704 232.84 320.908 229.248 320.802Z" fill="#263238"/>
<path d="M81.4177 239.292C81.2341 239.294 81.0557 239.231 80.915 239.113C80.7742 238.995 80.6803 238.831 80.6503 238.65C80.63 238.549 80.6302 238.445 80.651 238.344C80.6717 238.243 80.7125 238.147 80.7709 238.063C80.8294 237.978 80.9043 237.906 80.9912 237.85C81.0781 237.795 81.1752 237.758 81.2767 237.741C83.1597 237.387 85.0639 237.157 86.977 237.052C87.1863 237.044 87.3905 237.118 87.5458 237.258C87.701 237.399 87.7948 237.595 87.807 237.804C87.8112 237.907 87.795 238.009 87.7595 238.106C87.724 238.203 87.6698 238.291 87.6 238.367C87.5301 238.443 87.4461 238.504 87.3526 238.547C87.2592 238.59 87.1581 238.614 87.0553 238.618C85.2108 238.719 83.3748 238.939 81.5586 239.276L81.4177 239.292Z" fill="white"/>
<path d="M233.32 305.846C232.959 305.846 196.581 304.688 156.132 273.571C127.944 251.929 110.874 242.016 97.0307 239.338C96.9279 239.319 96.8299 239.279 96.7424 239.222C96.6548 239.165 96.5795 239.09 96.5206 239.004C96.4617 238.917 96.4204 238.82 96.3991 238.718C96.3778 238.615 96.3769 238.509 96.3965 238.407C96.416 238.304 96.4556 238.206 96.513 238.118C96.5704 238.031 96.6445 237.955 96.731 237.897C96.8175 237.838 96.9148 237.796 97.0173 237.775C97.1197 237.754 97.2254 237.753 97.3282 237.772C111.422 240.497 128.742 250.504 157.071 272.303C197.129 303.106 232.991 304.234 233.351 304.249C233.454 304.249 233.557 304.27 233.652 304.31C233.747 304.351 233.833 304.41 233.905 304.485C233.977 304.56 234.032 304.648 234.069 304.745C234.106 304.841 234.123 304.944 234.118 305.048C234.118 305.26 234.034 305.463 233.884 305.613C233.735 305.762 233.531 305.846 233.32 305.846Z" fill="white"/>
<path d="M232.975 77.4141C223.36 82.488 222.013 72.309 222.091 66.1703C222.186 66.1057 222.258 66.0124 222.295 65.904C222.984 63.0852 222.295 49.0226 214.199 43.385C207.058 38.4207 197.599 34.1455 188.767 34.1299C182.503 34.1299 177.022 38.0919 173.686 43.1344C169.724 49.1322 170.053 56.0852 169.74 63.0069C169.427 69.9287 168.753 77.5707 170.132 84.5081C171.979 93.7475 180.608 113.15 191.085 113.15C200.59 113.15 217.472 98.931 223.266 90.5529C224.578 90.1171 225.787 89.4192 226.821 88.5014C228.982 86.6535 233.288 83.5842 232.975 77.4141Z" fill="white"/>
<path d="M191.085 113.933C179.794 113.933 171.087 93.2777 169.364 84.649C168.143 78.526 168.487 72.0271 168.816 65.7317L168.957 62.9756L169.051 60.2194C169.27 54.253 169.474 48.083 173.044 42.6959C176.912 36.8391 182.785 33.2999 188.704 33.2999C196.534 33.2999 206.009 36.7451 214.575 42.6959C223.141 48.6467 223.751 63.0539 222.984 66.045C222.946 66.1784 222.888 66.3051 222.812 66.4208C222.812 69.8816 223.297 75.6289 226.226 77.3828C227.792 78.3224 229.874 78.0718 232.49 76.6624C232.604 76.5965 232.734 76.5617 232.865 76.5617C232.997 76.5617 233.127 76.5965 233.241 76.6624C233.356 76.7269 233.453 76.8198 233.521 76.9322C233.59 77.0447 233.628 77.1729 233.633 77.3045C233.946 83.3806 230.047 86.7005 227.713 88.5953L227.197 89.0182C226.156 89.9489 224.943 90.667 223.626 91.1323C218.145 99.1502 201.342 113.933 191.085 113.933ZM188.689 34.9129C183.255 34.9129 177.868 38.1545 174.281 43.5572C170.962 48.5841 170.774 54.2686 170.554 60.2821L170.46 63.0539L170.319 65.8101C169.991 72.074 169.646 78.338 170.836 84.3515C172.794 94.1233 181.454 112.367 191.022 112.367C199.933 112.367 216.485 98.8996 222.561 90.0987C222.657 89.9537 222.801 89.848 222.968 89.8012C224.18 89.4066 225.296 88.7609 226.241 87.9063L226.774 87.4678C228.841 85.7452 231.879 83.1926 232.129 78.6669C231.106 79.2387 229.958 79.5493 228.786 79.5712C227.614 79.593 226.455 79.3255 225.411 78.7922C221.935 76.6781 221.23 70.7586 221.246 66.1702C221.249 66.0607 221.274 65.953 221.32 65.8534C221.366 65.7538 221.431 65.6645 221.512 65.5908C222.154 62.9756 221.308 49.3357 213.682 44.027C205.382 38.2485 196.268 34.9286 188.704 34.9129H188.689Z" fill="#263238"/>
<path d="M188.689 87.5148C188.098 87.5506 187.508 87.4262 186.982 87.1547C186.805 87.0538 186.653 86.9163 186.534 86.7516C186.415 86.5868 186.333 86.3985 186.293 86.1994C185.979 84.6334 189.299 74.1725 190.317 71.0092C190.385 70.8144 190.526 70.6535 190.71 70.56C190.894 70.4666 191.107 70.448 191.304 70.508C191.403 70.5381 191.494 70.5879 191.574 70.6543C191.653 70.7207 191.718 70.8025 191.765 70.8946C191.811 70.9867 191.839 71.0874 191.846 71.1905C191.853 71.2936 191.839 71.397 191.805 71.4946C189.753 77.7586 187.702 84.9153 187.827 85.9019C189.373 86.0261 190.926 85.8178 192.384 85.2911C192.483 85.2601 192.587 85.2494 192.69 85.2596C192.793 85.2698 192.893 85.3006 192.983 85.3504C193.074 85.4001 193.154 85.4677 193.218 85.549C193.282 85.6303 193.328 85.7237 193.355 85.8236C193.384 85.9223 193.393 86.0257 193.382 86.1279C193.371 86.2301 193.34 86.3291 193.29 86.4193C193.241 86.5094 193.174 86.589 193.094 86.6534C193.014 86.7177 192.922 86.7657 192.823 86.7945C191.481 87.2074 190.092 87.4494 188.689 87.5148Z" fill="#263238"/>
<path d="M192.024 93.7318C190.1 93.777 188.209 93.2304 186.606 92.1658C186.44 92.0412 186.33 91.8557 186.301 91.6501C186.271 91.4446 186.325 91.2357 186.449 91.0696C186.574 90.9035 186.759 90.7936 186.965 90.7643C187.17 90.7349 187.379 90.7884 187.545 90.913C187.765 91.0696 192.932 94.7341 201.404 88.4544C201.487 88.3927 201.58 88.3478 201.68 88.3223C201.78 88.2968 201.883 88.2911 201.985 88.3057C202.087 88.3202 202.185 88.3546 202.273 88.407C202.362 88.4594 202.439 88.5287 202.501 88.611C202.62 88.7804 202.668 88.9894 202.636 89.1939C202.604 89.3984 202.494 89.5824 202.328 89.7072C199.426 92.1391 195.807 93.5527 192.024 93.7318Z" fill="#263238"/>
<path d="M208.311 80.5618C206.695 80.6428 205.087 80.2799 203.663 79.5125C202.238 78.745 201.051 77.6024 200.23 76.2083C200.185 76.116 200.16 76.0157 200.155 75.9133C200.149 75.811 200.165 75.7086 200.2 75.6122C200.235 75.5159 200.289 75.4275 200.359 75.3524C200.428 75.2773 200.512 75.2169 200.606 75.1748C200.697 75.1297 200.797 75.1032 200.898 75.0969C201 75.0906 201.102 75.1047 201.198 75.1382C201.294 75.1717 201.383 75.2241 201.459 75.2922C201.534 75.3603 201.596 75.4428 201.639 75.535C201.765 75.7855 204.599 81.2978 213.604 77.9153C213.797 77.8439 214.01 77.8516 214.198 77.9366C214.386 78.0216 214.532 78.1771 214.606 78.3694C214.644 78.466 214.662 78.5691 214.659 78.6728C214.657 78.7764 214.634 78.8786 214.592 78.9733C214.549 79.068 214.489 79.1533 214.413 79.2244C214.338 79.2955 214.249 79.3508 214.152 79.3873C212.291 80.1262 210.312 80.524 208.311 80.5618Z" fill="#263238"/>
<path d="M180.498 73.5147C173.718 73.5147 172.167 68.4566 172.152 68.3939C172.098 68.1926 172.126 67.9784 172.228 67.797C172.331 67.6156 172.5 67.4814 172.7 67.423C172.897 67.3696 173.107 67.3954 173.286 67.4948C173.464 67.5943 173.597 67.7596 173.655 67.9555C173.655 68.206 175.472 73.6557 184.429 71.4163C184.637 71.3665 184.856 71.4012 185.038 71.5128C185.22 71.6244 185.35 71.8037 185.4 72.0114C185.45 72.219 185.415 72.438 185.304 72.6201C185.192 72.8022 185.013 72.9325 184.805 72.9823C183.397 73.335 181.95 73.5138 180.498 73.5147Z" fill="#263238"/>
<path d="M190.364 64.0405C190.194 64.037 190.028 63.9788 189.893 63.8745C189.758 63.7702 189.66 63.6253 189.613 63.461C189.613 63.461 188.047 58.2462 184.1 56.5706C181.751 55.5997 178.933 55.9912 175.754 57.7764C175.57 57.8725 175.356 57.8935 175.158 57.835C174.959 57.7766 174.791 57.6433 174.689 57.4632C174.587 57.2825 174.562 57.0689 174.617 56.8693C174.673 56.6697 174.806 56.5003 174.986 56.3983C178.619 54.3782 181.892 53.9554 184.711 55.1299C189.409 57.103 191.053 62.8033 191.132 63.0539C191.184 63.2532 191.157 63.4653 191.054 63.6441C190.951 63.823 190.782 63.9541 190.584 64.0091L190.364 64.0405Z" fill="#263238"/>
<path d="M206.181 89.9108C203.589 89.9108 201.054 89.142 198.899 87.7018C196.743 86.2615 195.063 84.2144 194.071 81.8193C193.079 79.4243 192.82 76.7888 193.325 74.2462C193.831 71.7036 195.079 69.3681 196.913 67.535C198.746 65.7019 201.081 64.4535 203.624 63.9478C206.166 63.442 208.802 63.7016 211.197 64.6937C213.592 65.6857 215.639 67.3658 217.079 69.5213C218.52 71.6768 219.288 74.2109 219.288 76.8033C219.284 80.2784 217.902 83.6099 215.445 86.0671C212.987 88.5243 209.656 89.9066 206.181 89.9108ZM206.181 65.2619C203.898 65.2619 201.667 65.9388 199.769 67.207C197.871 68.4752 196.392 70.2777 195.518 72.3866C194.645 74.4956 194.416 76.8162 194.861 79.055C195.307 81.2938 196.406 83.3503 198.02 84.9644C199.634 86.5785 201.69 87.6777 203.929 88.123C206.168 88.5683 208.489 88.3398 210.598 87.4662C212.707 86.5927 214.509 85.1134 215.777 83.2154C217.045 81.3174 217.722 79.086 217.722 76.8033C217.714 73.7464 216.495 70.8172 214.332 68.657C212.169 66.4969 209.238 65.2817 206.181 65.2776V65.2619Z" fill="#263238"/>
<path d="M177.836 84.3671C175.244 84.3671 172.71 83.5984 170.554 82.1581C168.399 80.7179 166.719 78.6708 165.727 76.2757C164.735 73.8806 164.475 71.2452 164.981 68.7026C165.486 66.16 166.735 63.8245 168.568 61.9914C170.401 60.1583 172.737 58.9099 175.279 58.4041C177.822 57.8984 180.457 58.158 182.852 59.15C185.247 60.1421 187.294 61.8221 188.735 63.9776C190.175 66.1331 190.944 68.6673 190.944 71.2597C190.935 74.7335 189.552 78.0626 187.095 80.5189C184.639 82.9752 181.31 84.3589 177.836 84.3671ZM177.836 59.7183C175.554 59.7183 173.322 60.3952 171.424 61.6634C169.526 62.9315 168.047 64.7341 167.173 66.843C166.3 68.9519 166.071 71.2725 166.517 73.5113C166.962 75.7501 168.061 77.8066 169.675 79.4207C171.289 81.0348 173.346 82.134 175.585 82.5794C177.824 83.0247 180.144 82.7961 182.253 81.9226C184.362 81.0491 186.164 79.5697 187.433 77.6718C188.701 75.7738 189.378 73.5424 189.378 71.2597C189.374 68.2 188.156 65.2668 185.993 63.1033C183.829 60.9397 180.896 59.7224 177.836 59.7183Z" fill="#263238"/>
<path d="M217.879 80.045C217.697 80.0414 217.522 79.9758 217.382 79.859C217.243 79.7422 217.147 79.5814 217.112 79.4029C217.075 79.1995 217.12 78.9899 217.238 78.8197C217.355 78.6496 217.535 78.5327 217.738 78.4946L227.917 76.6467C228.12 76.6101 228.33 76.6554 228.5 76.7728C228.67 76.8901 228.787 77.07 228.825 77.2731C228.862 77.4766 228.817 77.6862 228.699 77.8564C228.582 78.0265 228.402 78.1434 228.199 78.1814L218.02 80.0293L217.879 80.045Z" fill="#263238"/>
<path d="M165.825 68.9577C165.704 68.9566 165.584 68.9277 165.476 68.8735C165.367 68.8192 165.272 68.7409 165.199 68.6445C165.074 68.4784 165.02 68.2696 165.05 68.064C165.079 67.8584 165.189 67.6729 165.355 67.5483L169.051 64.7765C169.217 64.6519 169.426 64.5984 169.632 64.6277C169.837 64.6571 170.023 64.7669 170.147 64.9331C170.268 65.1006 170.319 65.3084 170.29 65.5127C170.261 65.7171 170.153 65.9022 169.991 66.0293L166.295 68.8011C166.16 68.9038 165.995 68.9589 165.825 68.9577Z" fill="#263238"/>
<path d="M177.962 38.8122C177.962 38.8122 188.924 32.1411 192.745 38.4677C196.566 44.7943 214.121 86.8258 232.975 77.4141C251.83 68.0025 232.834 37.0583 214.543 27.2081C196.252 17.358 180.859 25.7988 177.962 38.8122Z" fill="#263238"/>
<path d="M227.369 79.5752C212.899 79.5752 200.261 54.7697 194.483 43.4006C193.449 41.3648 192.619 39.7518 192.087 38.8748C191.764 38.3278 191.332 37.8534 190.817 37.4815C190.303 37.1096 189.716 36.8482 189.096 36.7137C184.727 35.6489 178.447 39.4542 178.384 39.4856C178.254 39.5654 178.103 39.6052 177.95 39.6001C177.797 39.595 177.649 39.5453 177.524 39.457C177.399 39.3687 177.303 39.2458 177.247 39.1033C177.191 38.9609 177.178 38.8053 177.21 38.6556C177.891 35.5127 179.3 32.5735 181.324 30.0741C183.347 27.5746 185.929 25.5847 188.861 24.264C196.472 20.7562 205.727 21.5549 214.935 26.5191C227.682 33.3938 241.792 51.2932 241.557 64.9957C241.617 67.7469 240.871 70.4556 239.41 72.7876C237.949 75.1196 235.837 76.9728 233.335 78.1188C231.488 79.0638 229.444 79.5626 227.369 79.5752ZM187.42 34.9598C188.105 34.9536 188.788 35.0272 189.456 35.1791C190.275 35.3653 191.048 35.717 191.726 36.2125C192.405 36.708 192.975 37.3368 193.402 38.0605C193.966 38.9844 194.812 40.6131 195.861 42.7585C202.234 55.2865 217.143 84.5081 232.631 76.772C234.874 75.7569 236.769 74.1028 238.078 72.0167C239.388 69.9305 240.053 67.5048 239.991 65.0427C240.194 51.8883 226.539 34.6153 214.183 27.9598C205.413 23.2618 196.644 22.4631 189.503 25.7517C187.07 26.8531 184.895 28.4519 183.117 30.4451C181.34 32.4383 180 34.7818 179.183 37.3245C181.727 35.9549 184.537 35.1484 187.42 34.9598Z" fill="#263238"/>
<path d="M175.44 37.4968C175.233 37.4968 175.034 37.4143 174.887 37.2674C174.74 37.1206 174.657 36.9214 174.657 36.7138C174.784 35.4662 175.209 34.2675 175.896 33.2183C176.583 32.1691 177.511 31.3002 178.604 30.6847C182.628 27.9912 189.002 33.3155 189.268 33.5348C189.428 33.6677 189.529 33.8587 189.548 34.0657C189.567 34.2728 189.503 34.4789 189.37 34.6388C189.304 34.718 189.223 34.7834 189.132 34.8314C189.041 34.8794 188.941 34.9089 188.839 34.9184C188.632 34.9375 188.426 34.8735 188.266 34.7406C186.7 33.3939 182.002 30.2932 179.465 31.9845C178.595 32.4598 177.849 33.1323 177.286 33.9482C176.723 34.764 176.359 35.7005 176.223 36.6825C176.23 36.7884 176.214 36.8946 176.178 36.9943C176.141 37.094 176.084 37.1849 176.011 37.2615C175.937 37.338 175.848 37.3984 175.75 37.4389C175.652 37.4794 175.547 37.4991 175.44 37.4968Z" fill="white"/>
<path d="M238.19 69.1769H237.986C236.323 68.7117 234.739 67.9991 233.288 67.0629C233.196 67.0102 233.115 66.9393 233.051 66.8544C232.987 66.7695 232.941 66.6725 232.916 66.5692C232.89 66.466 232.886 66.3587 232.904 66.2538C232.921 66.1489 232.96 66.0488 233.018 65.9593C233.075 65.8699 233.15 65.7931 233.238 65.7336C233.326 65.6742 233.426 65.6333 233.53 65.6135C233.635 65.5936 233.742 65.5953 233.846 65.6183C233.95 65.6413 234.048 65.6853 234.134 65.7474C235.47 66.5992 236.927 67.2434 238.456 67.6579C238.559 67.6713 238.658 67.7048 238.748 67.7565C238.838 67.8082 238.917 67.8771 238.98 67.9592C239.043 68.0414 239.09 68.1352 239.117 68.2353C239.144 68.3354 239.151 68.4399 239.137 68.5427C239.124 68.6455 239.09 68.7447 239.039 68.8346C238.987 68.9245 238.918 69.0033 238.836 69.0666C238.754 69.1298 238.66 69.1763 238.56 69.2033C238.46 69.2303 238.355 69.2373 238.253 69.2239L238.19 69.1769Z" fill="white"/>
<path d="M227.134 60.7832C227.012 60.7844 226.892 60.7566 226.783 60.7022C226.674 60.6477 226.58 60.5681 226.508 60.4699C223.221 55.6614 220.315 50.6036 217.816 45.3424C214.92 39.4423 211.727 33.6929 208.248 28.1164C204.208 21.8524 199.917 18.4855 195.501 18.141C193.884 18.0847 192.273 18.3662 190.771 18.9675C189.269 19.5688 187.909 20.4767 186.778 21.6332C186.708 21.7081 186.623 21.7678 186.529 21.8086C186.434 21.8494 186.333 21.8704 186.23 21.8704C186.127 21.8704 186.026 21.8494 185.931 21.8086C185.837 21.7678 185.752 21.7081 185.682 21.6332C185.609 21.5617 185.551 21.4764 185.512 21.3823C185.472 21.2882 185.452 21.1871 185.452 21.085C185.452 20.983 185.472 20.8819 185.512 20.7878C185.551 20.6937 185.609 20.6084 185.682 20.5369C186.961 19.1848 188.518 18.1251 190.245 17.4304C191.972 16.7358 193.829 16.4226 195.689 16.5123C200.622 16.9038 205.304 20.5056 209.626 27.2081C213.132 32.7825 216.352 38.532 219.273 44.4341C221.729 49.6194 224.588 54.6042 227.823 59.3424C227.944 59.51 227.995 59.7177 227.966 59.9221C227.936 60.1264 227.829 60.3116 227.666 60.4386C227.607 60.5307 227.529 60.609 227.437 60.6685C227.346 60.7279 227.242 60.767 227.134 60.7832Z" fill="white"/>
<path d="M219.821 64.7765C219.622 64.7753 219.431 64.6967 219.288 64.5573C217.324 62.6462 214.813 61.3946 212.105 60.9764C209.397 60.5582 206.626 60.9943 204.176 62.2239C203.991 62.3187 203.776 62.3374 203.577 62.276C203.378 62.2145 203.211 62.0779 203.112 61.8951C203.063 61.8037 203.032 61.7035 203.022 61.6003C203.012 61.4971 203.023 61.393 203.053 61.2939C203.084 61.1948 203.134 61.1028 203.2 61.0232C203.267 60.9436 203.348 60.878 203.44 60.8302C206.191 59.4867 209.286 59.0157 212.312 59.4803C215.337 59.9449 218.148 61.3229 220.369 63.4298C220.482 63.5384 220.559 63.6782 220.592 63.8313C220.624 63.9844 220.61 64.1437 220.551 64.2887C220.492 64.4336 220.391 64.5576 220.261 64.6445C220.13 64.7315 219.977 64.7774 219.821 64.7765Z" fill="white"/>
<path d="M219.038 196.822C199.4 196.822 187.248 181.913 187.123 181.772C187.024 181.607 186.989 181.411 187.024 181.221C187.058 181.031 187.16 180.86 187.311 180.74C187.462 180.62 187.651 180.558 187.844 180.566C188.037 180.575 188.22 180.653 188.36 180.786C188.469 180.927 200.167 195.256 219.038 195.256C219.245 195.256 219.445 195.338 219.591 195.485C219.738 195.632 219.821 195.831 219.821 196.039C219.821 196.246 219.738 196.445 219.591 196.592C219.445 196.739 219.245 196.822 219.038 196.822Z" fill="#263238"/>
</svg>
