<svg width="369" height="318" viewBox="0 0 369 318" fill="none" xmlns="http://www.w3.org/2000/svg">
<g clip-path="url(#clip0)">
<path d="M59.9921 121.186H59.7386C59.5415 121.117 59.3787 120.975 59.2842 120.788C59.1896 120.602 59.1708 120.387 59.2315 120.187C60.9976 114.694 63.2293 109.361 65.9024 104.247C65.9469 104.148 66.0113 104.059 66.0916 103.986C66.1718 103.913 66.2663 103.857 66.3691 103.822C66.4719 103.786 66.5808 103.773 66.6891 103.782C66.7973 103.79 66.9026 103.821 66.9984 103.872C67.0942 103.924 67.1785 103.994 67.246 104.079C67.3135 104.164 67.3627 104.262 67.3907 104.367C67.4187 104.472 67.4248 104.582 67.4087 104.689C67.3925 104.797 67.3544 104.9 67.2968 104.992C64.6714 110.026 62.4769 115.274 60.7368 120.678C60.6809 120.83 60.579 120.96 60.4455 121.051C60.3121 121.142 60.1536 121.189 59.9921 121.186V121.186Z" fill="#407BFF"/>
<path d="M67.1859 206.861C67.0465 206.857 66.9104 206.817 66.791 206.745C66.6716 206.673 66.5729 206.571 66.5046 206.449C54.3037 184.598 50.6593 156.822 56.5062 130.217C56.5588 130.015 56.6863 129.84 56.8628 129.729C57.0393 129.617 57.2516 129.576 57.4569 129.615C57.5591 129.638 57.6558 129.68 57.7415 129.74C57.8272 129.8 57.9001 129.877 57.9561 129.965C58.0121 130.053 58.05 130.152 58.0677 130.255C58.0853 130.358 58.0824 130.464 58.059 130.566C52.2914 156.79 55.8724 184.155 67.8831 205.673C67.9361 205.763 67.9704 205.863 67.9839 205.966C67.9974 206.07 67.9899 206.175 67.9618 206.276C67.9337 206.376 67.8856 206.47 67.8203 206.552C67.7551 206.633 67.674 206.701 67.5821 206.75C67.4638 206.825 67.326 206.864 67.1859 206.861V206.861Z" fill="#407BFF"/>
<path d="M45.1611 177.579C44.9828 177.581 44.8092 177.522 44.6683 177.413C44.5274 177.304 44.4275 177.15 44.3847 176.977C39.2575 154.946 42.0629 131.813 52.3074 111.647C52.4051 111.463 52.5713 111.325 52.7699 111.263C52.9686 111.2 53.1838 111.219 53.369 111.314C53.4615 111.361 53.5437 111.426 53.6108 111.505C53.6778 111.584 53.7284 111.675 53.7594 111.774C53.7904 111.873 53.8013 111.978 53.7914 112.081C53.7815 112.184 53.751 112.284 53.7017 112.375C43.6595 132.215 40.9273 154.959 45.9851 176.612C46.0084 176.714 46.0114 176.82 45.9937 176.923C45.976 177.026 45.9381 177.125 45.8821 177.213C45.8262 177.302 45.7532 177.378 45.6675 177.438C45.5819 177.498 45.4851 177.541 45.383 177.563L45.1611 177.579Z" fill="#407BFF"/>
<path d="M53.4637 199.287C53.3227 199.289 53.1838 199.253 53.0613 199.184C52.9387 199.114 52.837 199.013 52.7665 198.891C50.7479 195.26 49.0155 191.478 47.5851 187.577C47.5343 187.478 47.5051 187.369 47.4993 187.258C47.4936 187.146 47.5114 187.035 47.5517 186.931C47.5919 186.827 47.6537 186.733 47.733 186.654C47.8122 186.576 47.9071 186.515 48.0115 186.475C48.1159 186.436 48.2274 186.419 48.3388 186.426C48.4501 186.433 48.5587 186.463 48.6576 186.515C48.7564 186.566 48.8433 186.638 48.9124 186.726C48.9815 186.814 49.0314 186.915 49.0587 187.023C50.4694 190.847 52.1752 194.555 54.1609 198.115C54.227 198.235 54.2605 198.371 54.258 198.509C54.2555 198.647 54.2172 198.781 54.1468 198.9C54.0764 199.018 53.9764 199.116 53.8566 199.184C53.7368 199.252 53.6014 199.287 53.4637 199.287Z" fill="#407BFF"/>
<path d="M32.9919 137.205H32.8018C32.5971 137.153 32.4211 137.022 32.3115 136.841C32.2019 136.661 32.1675 136.444 32.2155 136.239C33.6005 130.233 35.7352 124.425 38.5695 118.951C38.6092 118.847 38.6707 118.752 38.7499 118.672C38.8291 118.593 38.9241 118.532 39.0288 118.492C39.1334 118.452 39.2453 118.435 39.3571 118.442C39.4688 118.448 39.5779 118.479 39.6771 118.531C39.7763 118.582 39.8634 118.655 39.9327 118.743C40.0019 118.831 40.0517 118.932 40.0788 119.041C40.1059 119.15 40.1097 119.263 40.0899 119.373C40.07 119.483 40.0271 119.588 39.9639 119.68C37.2234 125.04 35.1583 130.719 33.8159 136.587C33.7747 136.771 33.6691 136.935 33.518 137.048C33.367 137.162 33.1804 137.217 32.9919 137.205V137.205Z" fill="#407BFF"/>
<path d="M39.7259 191.729C39.5876 191.728 39.452 191.691 39.3324 191.622C39.2129 191.552 39.1137 191.452 39.0445 191.333C31.7674 177.722 28.7738 162.229 30.4564 146.887C30.4753 146.677 30.5769 146.483 30.7388 146.347C30.9008 146.212 31.1098 146.147 31.3199 146.166C31.5301 146.185 31.7241 146.286 31.8593 146.448C31.9945 146.61 32.0598 146.819 32.0409 147.029C30.3854 162.051 33.3071 177.223 40.4231 190.556C40.5257 190.739 40.5517 190.955 40.4952 191.157C40.4388 191.359 40.3046 191.531 40.122 191.634C39.9995 191.697 39.8636 191.73 39.7259 191.729Z" fill="#407BFF"/>
<path d="M297.529 185.391H297.323C297.222 185.365 297.128 185.319 297.045 185.257C296.962 185.194 296.893 185.115 296.841 185.025C296.789 184.935 296.756 184.835 296.744 184.732C296.731 184.629 296.74 184.524 296.768 184.424C304.112 157.872 301.24 129.531 288.719 104.992C288.669 104.899 288.639 104.798 288.628 104.693C288.618 104.589 288.629 104.484 288.66 104.383C288.691 104.283 288.742 104.19 288.809 104.109C288.876 104.029 288.959 103.963 289.052 103.914C289.237 103.819 289.452 103.801 289.651 103.863C289.849 103.925 290.016 104.063 290.113 104.247C302.824 129.141 305.741 157.896 298.289 184.836C298.239 184.998 298.137 185.139 298 185.239C297.864 185.338 297.698 185.392 297.529 185.391V185.391Z" fill="#407BFF"/>
<path d="M288.83 206.861C288.69 206.864 288.552 206.825 288.434 206.75C288.342 206.701 288.261 206.633 288.196 206.552C288.131 206.47 288.082 206.376 288.054 206.276C288.026 206.175 288.019 206.07 288.032 205.966C288.046 205.863 288.08 205.763 288.133 205.673C290.252 201.867 292.099 197.917 293.663 193.852C293.698 193.755 293.753 193.665 293.823 193.589C293.893 193.512 293.978 193.451 294.073 193.408C294.167 193.365 294.27 193.342 294.373 193.339C294.477 193.337 294.58 193.355 294.677 193.393C294.775 193.43 294.865 193.486 294.942 193.557C295.018 193.629 295.079 193.716 295.122 193.812C295.165 193.907 295.188 194.011 295.191 194.116C295.193 194.221 295.175 194.325 295.137 194.423C293.548 198.559 291.668 202.578 289.511 206.449C289.443 206.571 289.344 206.673 289.225 206.745C289.106 206.817 288.97 206.857 288.83 206.861V206.861Z" fill="#407BFF"/>
<path d="M313.137 161.258C312.928 161.242 312.734 161.146 312.595 160.989C312.456 160.832 312.383 160.628 312.392 160.419C313.449 143.772 310.001 127.149 302.41 112.296C302.341 112.115 302.341 111.915 302.41 111.734C302.479 111.552 302.612 111.403 302.783 111.313C302.955 111.223 303.154 111.199 303.342 111.246C303.53 111.293 303.695 111.407 303.804 111.567C311.537 126.67 315.051 143.58 313.977 160.514C313.961 160.722 313.864 160.917 313.707 161.056C313.551 161.195 313.346 161.267 313.137 161.258V161.258Z" fill="#407BFF"/>
<path d="M302.552 199.287C302.414 199.287 302.279 199.252 302.159 199.184C302.039 199.116 301.939 199.018 301.869 198.9C301.798 198.781 301.76 198.647 301.758 198.509C301.755 198.371 301.789 198.235 301.855 198.115C306.503 189.682 309.66 180.51 311.188 171.003C311.221 170.793 311.337 170.605 311.509 170.48C311.682 170.355 311.897 170.304 312.107 170.338C312.317 170.371 312.505 170.487 312.63 170.659C312.755 170.832 312.806 171.047 312.772 171.257C311.221 180.948 308.004 190.297 303.265 198.891C303.193 199.015 303.089 199.118 302.963 199.188C302.838 199.258 302.696 199.292 302.552 199.287Z" fill="#407BFF"/>
<path d="M321.804 132.658C321.635 132.657 321.47 132.601 321.336 132.498C321.201 132.395 321.104 132.25 321.059 132.087C319.769 127.791 318.077 123.627 316.005 119.649C315.959 119.554 315.932 119.451 315.926 119.346C315.92 119.241 315.935 119.136 315.969 119.037C316.004 118.937 316.058 118.846 316.128 118.767C316.198 118.689 316.282 118.625 316.377 118.579C316.472 118.533 316.574 118.507 316.679 118.5C316.784 118.494 316.89 118.509 316.989 118.544C317.088 118.578 317.18 118.632 317.258 118.702C317.337 118.772 317.401 118.857 317.447 118.951C319.577 122.998 321.307 127.244 322.612 131.628C322.672 131.829 322.651 132.046 322.553 132.233C322.456 132.419 322.289 132.56 322.089 132.626L321.804 132.658Z" fill="#407BFF"/>
<path d="M316.29 191.729C316.152 191.729 316.017 191.697 315.894 191.634C315.712 191.531 315.577 191.359 315.521 191.157C315.464 190.955 315.49 190.739 315.593 190.556C323.357 176.66 326.114 159.484 323.357 142.212C323.329 142.003 323.383 141.791 323.507 141.62C323.63 141.449 323.815 141.332 324.023 141.293C324.23 141.266 324.44 141.32 324.609 141.444C324.777 141.568 324.891 141.752 324.926 141.959C327.731 159.595 324.926 177.119 317.003 191.333C316.932 191.457 316.827 191.56 316.702 191.63C316.576 191.699 316.434 191.734 316.29 191.729Z" fill="#407BFF"/>
<path d="M146.682 39.7248C146.578 39.7383 146.472 39.7312 146.371 39.7039C146.27 39.6765 146.175 39.6295 146.092 39.5655C145.924 39.4363 145.814 39.2456 145.787 39.0355C145.759 38.8254 145.817 38.613 145.946 38.4451C146.075 38.2772 146.266 38.1675 146.476 38.1402C164.515 33.1335 183.511 32.66 201.776 36.7617C201.878 36.7841 201.975 36.8266 202.061 36.8867C202.146 36.9467 202.219 37.0232 202.275 37.1116C202.331 37.1999 202.369 37.2986 202.387 37.4017C202.405 37.5048 202.402 37.6104 202.378 37.7124C202.358 37.814 202.317 37.9104 202.258 37.9959C202.2 38.0815 202.125 38.1545 202.038 38.2106C201.951 38.2667 201.853 38.3048 201.751 38.3227C201.649 38.3405 201.544 38.3377 201.443 38.3145C183.439 34.2787 164.718 34.7413 146.935 39.6614L146.682 39.7248Z" fill="#407BFF"/>
<path d="M125.908 48.2337C125.737 48.2286 125.572 48.1679 125.438 48.0608C125.303 47.9537 125.208 47.8059 125.165 47.6397C125.122 47.4735 125.134 47.2979 125.2 47.1392C125.265 46.9806 125.381 46.8475 125.528 46.7601C129.384 44.6061 133.387 42.7264 137.507 41.135C137.703 41.0628 137.919 41.0706 138.109 41.1566C138.298 41.2426 138.447 41.3999 138.521 41.5945C138.56 41.6901 138.579 41.7924 138.577 41.8954C138.575 41.9984 138.553 42.1001 138.512 42.1945C138.471 42.2889 138.411 42.3741 138.336 42.4452C138.262 42.5163 138.174 42.5718 138.078 42.6086C134.028 44.1715 130.093 46.0195 126.305 48.1386C126.182 48.2017 126.046 48.2343 125.908 48.2337V48.2337Z" fill="#407BFF"/>
<path d="M177.96 267.786C240.269 267.786 290.779 217.276 290.779 154.968C290.779 92.6597 240.269 42.1491 177.96 42.1491C115.652 42.1491 65.1418 92.6597 65.1418 154.968C65.1418 217.276 115.652 267.786 177.96 267.786Z" fill="#407BFF"/>
<path opacity="0.9" d="M177.96 267.786C240.269 267.786 290.779 217.276 290.779 154.968C290.779 92.6597 240.269 42.1491 177.96 42.1491C115.652 42.1491 65.1418 92.6597 65.1418 154.968C65.1418 217.276 115.652 267.786 177.96 267.786Z" fill="white"/>
<path d="M178.229 270.052C155.603 270.052 133.484 263.343 114.67 250.772C95.8569 238.201 81.1936 220.334 72.5347 199.429C63.8757 178.525 61.6102 155.522 66.0244 133.33C70.4387 111.138 81.3346 90.7534 97.3341 74.7538C113.334 58.7542 133.718 47.8584 155.91 43.4441C178.102 39.0299 201.105 41.2954 222.01 49.9543C242.914 58.6132 260.781 73.2766 273.352 92.0901C285.923 110.904 292.633 133.022 292.633 155.649C292.599 185.98 280.535 215.06 259.088 236.507C237.64 257.955 208.561 270.019 178.229 270.052V270.052ZM178.229 44.415C156.229 44.415 134.723 50.9387 116.431 63.1613C98.1387 75.3839 83.8815 92.7563 75.4625 113.082C67.0434 133.407 64.8406 155.772 69.1326 177.35C73.4246 198.927 84.0186 218.747 99.575 234.303C115.131 249.86 134.951 260.454 156.529 264.746C178.106 269.038 200.471 266.835 220.797 258.416C241.122 249.997 258.495 235.74 270.717 217.447C282.94 199.155 289.464 177.649 289.464 155.649C289.413 126.169 277.676 97.9122 256.824 77.0727C235.973 56.2332 207.709 44.5119 178.229 44.4783V44.415Z" fill="#407BFF"/>
<path d="M119.903 114.863C119.571 114.039 111.981 94.5179 122.755 79.4807C130.963 67.9612 147.221 62.6688 171.115 63.7305C190.272 64.5861 203.281 69.6883 209.762 78.8944C217.558 89.9862 213.502 103.074 211.965 108.002L211.79 108.589L204.216 106.275L204.406 105.657C205.737 101.379 208.827 91.3964 203.281 83.4737C198.29 76.375 187.341 72.382 170.751 71.6531C149.756 70.7182 135.749 74.8222 129.22 84.0917C120.965 95.6588 127.208 111.805 127.271 111.964L119.903 114.863Z" fill="#263238"/>
<path d="M202.79 124.925C202.79 136.349 206.894 145.619 211.949 145.619C217.004 145.619 221.123 136.349 221.123 124.925C221.123 113.501 217.019 104.215 211.949 104.215C206.878 104.215 202.79 113.485 202.79 124.925Z" fill="#263238"/>
<path opacity="0.2" d="M202.79 124.925C202.79 136.349 206.894 145.619 211.949 145.619C217.004 145.619 221.123 136.349 221.123 124.925C221.123 113.501 217.019 104.215 211.949 104.215C206.878 104.215 202.79 113.485 202.79 124.925Z" fill="white"/>
<path d="M204.644 151.941C211.251 151.941 216.607 139.846 216.607 124.925C216.607 110.004 211.251 97.9088 204.644 97.9088C198.037 97.9088 192.681 110.004 192.681 124.925C192.681 139.846 198.037 151.941 204.644 151.941Z" fill="#263238"/>
<path d="M225.195 213.786C225.195 213.786 215.498 206.338 193.758 200.571C180.892 197.148 167.328 196.673 154.018 197.275C140.708 197.877 127.35 200.856 115.815 207.479C110.776 210.363 91.2546 220.425 91.2546 226.208L91.5557 227.492C110.685 250.286 138.045 264.599 167.679 267.314C197.312 270.03 226.818 260.928 249.771 241.99C242.609 224.608 233.292 221.502 225.195 213.786Z" fill="#407BFF"/>
<path d="M182.175 175.107C177.596 187.07 176.297 200.016 198.464 205.435C198.464 205.435 209.207 221.93 174.253 224.45C136.953 227.032 136.05 201.997 136.05 201.997C150.706 192.284 148.298 163.255 145.287 147.425L182.175 175.107Z" fill="#FF8B7B"/>
<path opacity="0.2" d="M154.24 175.424C154.795 182.364 166.029 193.599 179.386 187.371C179.876 184.384 180.683 181.457 181.795 178.641L159.944 162.257C159.168 163.857 154.066 171.637 154.24 175.424Z" fill="black"/>
<path d="M131.169 113.041C133.784 140.168 133.895 156.204 148.14 169.72C169.452 190.097 202.695 176.422 208.352 149.121C213.343 124.434 208.352 84.1551 181.256 74.2201C175.307 72.0045 168.889 71.3464 162.614 72.3081C156.338 73.2699 150.412 75.8197 145.399 79.7153C140.386 83.611 136.451 88.7234 133.969 94.567C131.487 100.411 130.54 106.792 131.217 113.104L131.169 113.041Z" fill="#FF8B7B"/>
<path d="M123.437 131.453C124.244 134.77 125.702 137.894 127.726 140.644C129.75 143.394 132.299 145.715 135.225 147.473C143.037 152.116 149.312 145.698 149.122 137.094C148.963 129.314 144.638 117.636 135.796 116.495C126.954 115.354 121.472 123.309 123.437 131.453Z" fill="#FF8B7B"/>
<path d="M172.747 119.237C172.747 121.455 174.062 123.214 175.473 123.135C176.883 123.055 178.039 121.281 177.976 119.046C177.913 116.812 176.661 115.069 175.362 115.006C174.062 114.943 172.541 117.098 172.747 119.237Z" fill="#263238"/>
<path d="M197.751 118.413C197.751 120.647 199.035 122.406 200.35 122.421C201.665 122.437 202.917 120.552 202.838 118.318C202.758 116.083 201.523 114.34 200.065 114.404C198.607 114.467 197.72 116.163 197.751 118.413Z" fill="#263238"/>
<path d="M189.844 119.76C192.732 126.434 196.511 132.687 201.079 138.346C199.596 139.506 197.876 140.323 196.04 140.74C194.205 141.156 192.3 141.161 190.462 140.755L189.844 119.76Z" fill="#FF5652"/>
<path d="M205.975 106.655C206.232 106.429 206.389 106.111 206.413 105.77C206.436 105.429 206.325 105.093 206.102 104.833C205.903 104.594 205.619 104.44 205.309 104.405C203.27 104.054 201.175 104.199 199.204 104.828C197.232 105.457 195.44 106.551 193.98 108.018C193.75 108.274 193.63 108.61 193.645 108.953C193.66 109.297 193.808 109.621 194.059 109.856V109.856C194.323 110.078 194.664 110.188 195.007 110.161C195.351 110.134 195.671 109.974 195.897 109.714C197.059 108.544 198.483 107.671 200.052 107.166C201.621 106.661 203.288 106.541 204.913 106.814C205.091 106.868 205.278 106.882 205.462 106.854C205.646 106.827 205.821 106.759 205.975 106.655Z" fill="#263238"/>
<path d="M180.923 109.65C181.091 109.611 181.25 109.539 181.39 109.438C181.529 109.336 181.647 109.208 181.735 109.06C181.824 108.912 181.882 108.748 181.906 108.577C181.93 108.406 181.919 108.232 181.874 108.066C181.8 107.769 181.626 107.506 181.383 107.321C179.733 106.07 177.806 105.234 175.766 104.884C173.725 104.534 171.63 104.679 169.657 105.309C169.35 105.423 169.098 105.651 168.954 105.946C168.809 106.241 168.783 106.58 168.881 106.893V106.893C169.012 107.217 169.264 107.476 169.584 107.616C169.904 107.755 170.266 107.763 170.592 107.638C172.161 107.132 173.828 107.013 175.453 107.288C177.077 107.564 178.611 108.228 179.925 109.222C180.047 109.366 180.201 109.479 180.374 109.553C180.547 109.628 180.735 109.661 180.923 109.65V109.65Z" fill="#263238"/>
<path d="M197.497 149.454C197.497 149.454 189.115 146.697 166.108 145.635C169.53 154.35 175.14 161.48 186.929 162.051C198.718 162.621 197.497 149.454 197.497 149.454Z" fill="#263238"/>
<path d="M180.876 155.015C185.679 154.984 190.343 156.631 194.059 159.674C193.088 160.5 191.96 161.122 190.743 161.503C189.527 161.884 188.246 162.016 186.977 161.892C182.186 161.937 177.533 160.287 173.841 157.234C174.807 156.414 175.926 155.795 177.135 155.414C178.343 155.033 179.615 154.898 180.876 155.015Z" fill="#FF5652"/>
<path d="M196.436 149.153C196.382 150.086 196.041 150.98 195.459 151.711C194.878 152.443 194.084 152.977 193.187 153.241C186.261 152.853 179.389 151.791 172.668 150.072C171.457 149.81 170.325 149.268 169.362 148.489C168.398 147.71 167.631 146.716 167.122 145.587C176.983 145.861 186.797 147.055 196.436 149.153V149.153Z" fill="white"/>
<path d="M219.285 240.96L208.399 225.115C208.136 224.737 207.737 224.475 207.286 224.383C206.834 224.292 206.365 224.378 205.975 224.624L187.388 236.429L185.519 228.015C185.454 227.744 185.301 227.502 185.082 227.33C184.863 227.157 184.593 227.064 184.314 227.064H181.019C180.705 227.068 180.405 227.195 180.183 227.417C179.961 227.639 179.834 227.938 179.83 228.252L179.402 257.503L169.388 267.359C172.224 267.565 175.077 267.707 177.961 267.707C180.844 267.707 184.077 267.565 187.087 267.311C190.098 267.058 193.536 266.661 196.69 266.138C200.551 263.831 204.108 261.047 207.274 257.851V257.74L219.127 243.02C219.367 242.737 219.512 242.386 219.54 242.016C219.569 241.646 219.479 241.276 219.285 240.96V240.96Z" fill="#FF8B7B"/>
<path d="M130.963 151.941C137.57 151.941 142.926 139.846 142.926 124.925C142.926 110.004 137.57 97.9088 130.963 97.9088C124.356 97.9088 119 110.004 119 124.925C119 139.846 124.356 151.941 130.963 151.941Z" fill="#263238"/>
<path d="M132.817 124.925C132.817 136.349 128.713 145.619 123.642 145.619C118.572 145.619 114.484 136.349 114.484 124.925C114.484 113.501 118.588 104.215 123.642 104.215C128.697 104.215 132.817 113.485 132.817 124.925Z" fill="#263238"/>
<path opacity="0.2" d="M132.817 124.925C132.817 136.349 128.713 145.619 123.642 145.619C118.572 145.619 114.484 136.349 114.484 124.925C114.484 113.501 118.588 104.215 123.642 104.215C128.697 104.215 132.817 113.485 132.817 124.925Z" fill="white"/>
<path d="M238.379 234.622C219.364 234.622 209.192 219.918 208.7 192.077C208.7 191.657 208.867 191.254 209.165 190.957C209.462 190.66 209.865 190.493 210.285 190.493C210.705 190.493 211.108 190.66 211.405 190.957C211.703 191.254 211.87 191.657 211.87 192.077C212.329 218.238 221.25 231.501 238.379 231.501C255.809 231.501 264.46 218.603 264.872 192.077C264.872 191.657 265.039 191.254 265.336 190.957C265.633 190.66 266.036 190.493 266.457 190.493C266.877 190.493 267.28 190.66 267.577 190.957C267.874 191.254 268.041 191.657 268.041 192.077C267.613 220.361 257.631 234.622 238.379 234.622Z" fill="#263238"/>
<path d="M266.457 193.678H210.285C209.865 193.678 209.462 193.511 209.165 193.214C208.867 192.917 208.7 192.514 208.7 192.093C208.7 191.673 208.867 191.27 209.165 190.973C209.462 190.676 209.865 190.509 210.285 190.509H266.457C266.877 190.509 267.28 190.676 267.577 190.973C267.874 191.27 268.041 191.673 268.041 192.093C268.041 192.514 267.874 192.917 267.577 193.214C267.28 193.511 266.877 193.678 266.457 193.678Z" fill="#263238"/>
<path d="M253.796 180.748H222.945L223.896 147.378L224.53 147.077C228.816 144.89 233.559 143.75 238.371 143.75C243.182 143.75 247.926 144.89 252.212 147.077L252.861 147.378L253.796 180.748Z" fill="#263238"/>
<g opacity="0.1">
<path opacity="0.1" d="M253.796 180.748H222.945L223.896 147.378L224.53 147.077C228.816 144.89 233.559 143.75 238.371 143.75C243.182 143.75 247.926 144.89 252.212 147.077L252.861 147.378L253.796 180.748Z" fill="#FAFAFA"/>
</g>
<path d="M222.945 180.748H253.796L252.861 214.023L252.212 214.356C247.923 216.535 243.181 217.671 238.371 217.671C233.56 217.671 228.818 216.535 224.53 214.356L223.959 214.023L222.945 180.748Z" fill="#263238"/>
<path d="M254.731 178.07H222.121V183.68H254.731V178.07Z" fill="#263238"/>
<path opacity="0.12" d="M254.731 178.07H222.121V183.68H254.731V178.07Z" fill="white"/>
<path d="M242.214 196.371C241.612 197.117 240.803 197.668 239.889 197.955C238.974 198.241 237.996 198.25 237.076 197.981C236.156 197.711 235.337 197.176 234.722 196.441C234.107 195.706 233.723 194.806 233.619 193.853C233.515 192.901 233.696 191.939 234.138 191.089C234.581 190.239 235.265 189.539 236.105 189.078C236.945 188.617 237.903 188.415 238.857 188.497C239.812 188.58 240.721 188.943 241.469 189.542C242.472 190.35 243.113 191.523 243.253 192.803C243.392 194.083 243.019 195.366 242.214 196.371V196.371Z" fill="#263238"/>
<path opacity="0.2" d="M238.426 198.178C241.104 198.178 243.275 196.007 243.275 193.329C243.275 190.651 241.104 188.481 238.426 188.481C235.748 188.481 233.577 190.651 233.577 193.329C233.577 196.007 235.748 198.178 238.426 198.178Z" fill="white"/>
<path d="M240.502 191.048C240.502 191.321 240.393 191.583 240.2 191.776C240.007 191.969 239.745 192.077 239.472 192.077C239.197 192.077 238.933 191.969 238.738 191.777C238.542 191.584 238.43 191.322 238.426 191.048C238.43 190.771 238.541 190.508 238.737 190.313C238.932 190.117 239.195 190.006 239.472 190.002C239.746 190.006 240.008 190.118 240.201 190.314C240.394 190.509 240.502 190.773 240.502 191.048Z" fill="#407BFF"/>
<path d="M238.379 276.089C237.958 276.089 237.555 275.923 237.258 275.625C236.961 275.328 236.794 274.925 236.794 274.505V233.038C236.794 232.617 236.961 232.214 237.258 231.917C237.555 231.62 237.958 231.453 238.379 231.453C238.799 231.453 239.202 231.62 239.499 231.917C239.796 232.214 239.963 232.617 239.963 233.038V274.473C239.967 274.684 239.93 274.893 239.852 275.089C239.774 275.285 239.658 275.464 239.51 275.614C239.363 275.765 239.187 275.884 238.993 275.966C238.798 276.047 238.589 276.089 238.379 276.089Z" fill="#263238"/>
</g>
<defs>
<clipPath id="clip0">
<rect width="500" height="500" fill="white" transform="translate(-72)"/>
</clipPath>
</defs>
</svg>
