<svg width="26" height="299" viewBox="0 0 26 299" fill="none" xmlns="http://www.w3.org/2000/svg">
<circle cx="13" cy="286" r="13" fill="#F9FBFF"/>
<circle cx="13" cy="286" r="13" fill="#F9FBFF"/>
<circle cx="13" cy="286" r="13" fill="#F9FBFF"/>
<circle cx="13" cy="286" r="13" fill="#F9FBFF"/>
<circle cx="13" cy="286" r="13" fill="#F9FBFF"/>
<circle cx="13" cy="286" r="13" fill="#F9FBFF"/>
<circle cx="13" cy="247" r="13" fill="#F9FBFF"/>
<circle cx="13" cy="247" r="13" fill="#F9FBFF"/>
<circle cx="13" cy="247" r="13" fill="#F9FBFF"/>
<circle cx="13" cy="247" r="13" fill="#F9FBFF"/>
<circle cx="13" cy="247" r="13" fill="#F9FBFF"/>
<circle cx="13" cy="247" r="13" fill="#F9FBFF"/>
<circle cx="13" cy="209" r="13" fill="#F9FBFF"/>
<circle cx="13" cy="209" r="13" fill="#F9FBFF"/>
<circle cx="13" cy="209" r="13" fill="#F9FBFF"/>
<circle cx="13" cy="209" r="13" fill="#F9FBFF"/>
<circle cx="13" cy="209" r="13" fill="#F9FBFF"/>
<circle cx="13" cy="209" r="13" fill="#F9FBFF"/>
<ellipse cx="13" cy="169.5" rx="13" ry="13.5" fill="white"/>
<circle cx="13" cy="130" r="13" fill="#F9FBFF"/>
<circle cx="13" cy="130" r="13" fill="#F9FBFF"/>
<circle cx="13" cy="130" r="13" fill="#F9FBFF"/>
<circle cx="13" cy="130" r="13" fill="#F9FBFF"/>
<circle cx="13" cy="130" r="13" fill="#F9FBFF"/>
<circle cx="13" cy="130" r="13" fill="#F9FBFF"/>
<circle cx="13" cy="91" r="13" fill="#F9FBFF"/>
<circle cx="13" cy="91" r="13" fill="#F9FBFF"/>
<circle cx="13" cy="91" r="13" fill="#F9FBFF"/>
<circle cx="13" cy="91" r="13" fill="#F9FBFF"/>
<circle cx="13" cy="91" r="13" fill="#F9FBFF"/>
<circle cx="13" cy="91" r="13" fill="#F9FBFF"/>
<circle cx="13" cy="53" r="13" fill="#F9FBFF"/>
<circle cx="13" cy="53" r="13" fill="#F9FBFF"/>
<circle cx="13" cy="53" r="13" fill="#F9FBFF"/>
<circle cx="13" cy="53" r="13" fill="#F9FBFF"/>
<circle cx="13" cy="53" r="13" fill="#F9FBFF"/>
<circle cx="13" cy="53" r="13" fill="#F9FBFF"/>
<ellipse cx="13" cy="13.5" rx="13" ry="13.5" fill="#494949"/>
</svg>
