<svg width="299" height="26" viewBox="0 0 299 26" fill="none" xmlns="http://www.w3.org/2000/svg">
<circle r="13" transform="matrix(0 1 1 0 286 13)" fill="#F9FBFF"/>
<circle r="13" transform="matrix(0 1 1 0 286 13)" fill="#F9FBFF"/>
<circle r="13" transform="matrix(0 1 1 0 286 13)" fill="#F9FBFF"/>
<circle r="13" transform="matrix(0 1 1 0 286 13)" fill="#F9FBFF"/>
<circle r="13" transform="matrix(0 1 1 0 286 13)" fill="#F9FBFF"/>
<circle r="13" transform="matrix(0 1 1 0 286 13)" fill="#F9FBFF"/>
<circle r="13" transform="matrix(0 1 1 0 247 13)" fill="#F9FBFF"/>
<circle r="13" transform="matrix(0 1 1 0 247 13)" fill="#F9FBFF"/>
<circle r="13" transform="matrix(0 1 1 0 247 13)" fill="#F9FBFF"/>
<circle r="13" transform="matrix(0 1 1 0 247 13)" fill="#F9FBFF"/>
<circle r="13" transform="matrix(0 1 1 0 247 13)" fill="#F9FBFF"/>
<circle r="13" transform="matrix(0 1 1 0 247 13)" fill="#F9FBFF"/>
<circle r="13" transform="matrix(0 1 1 0 209 13)" fill="#F9FBFF"/>
<circle r="13" transform="matrix(0 1 1 0 209 13)" fill="#F9FBFF"/>
<circle r="13" transform="matrix(0 1 1 0 209 13)" fill="#F9FBFF"/>
<circle r="13" transform="matrix(0 1 1 0 209 13)" fill="#F9FBFF"/>
<circle r="13" transform="matrix(0 1 1 0 209 13)" fill="#F9FBFF"/>
<circle r="13" transform="matrix(0 1 1 0 209 13)" fill="#F9FBFF"/>
<ellipse rx="13" ry="13.5" transform="matrix(0 1 1 0 169.5 13)" fill="white"/>
<circle r="13" transform="matrix(0 1 1 0 130 13)" fill="#F9FBFF"/>
<circle r="13" transform="matrix(0 1 1 0 130 13)" fill="#F9FBFF"/>
<circle r="13" transform="matrix(0 1 1 0 130 13)" fill="#F9FBFF"/>
<circle r="13" transform="matrix(0 1 1 0 130 13)" fill="#F9FBFF"/>
<circle r="13" transform="matrix(0 1 1 0 130 13)" fill="#F9FBFF"/>
<circle r="13" transform="matrix(0 1 1 0 130 13)" fill="#F9FBFF"/>
<circle r="13" transform="matrix(0 1 1 0 91 13)" fill="#F9FBFF"/>
<circle r="13" transform="matrix(0 1 1 0 91 13)" fill="#F9FBFF"/>
<circle r="13" transform="matrix(0 1 1 0 91 13)" fill="#F9FBFF"/>
<circle r="13" transform="matrix(0 1 1 0 91 13)" fill="#F9FBFF"/>
<circle r="13" transform="matrix(0 1 1 0 91 13)" fill="#F9FBFF"/>
<circle r="13" transform="matrix(0 1 1 0 91 13)" fill="#F9FBFF"/>
<circle r="13" transform="matrix(0 1 1 0 53 13)" fill="#F9FBFF"/>
<circle r="13" transform="matrix(0 1 1 0 53 13)" fill="#F9FBFF"/>
<circle r="13" transform="matrix(0 1 1 0 53 13)" fill="#F9FBFF"/>
<circle r="13" transform="matrix(0 1 1 0 53 13)" fill="#F9FBFF"/>
<circle r="13" transform="matrix(0 1 1 0 53 13)" fill="#F9FBFF"/>
<circle r="13" transform="matrix(0 1 1 0 53 13)" fill="#F9FBFF"/>
<ellipse rx="13" ry="13.5" transform="matrix(0 1 1 0 13.5 13)" fill="#494949"/>
</svg>
