<svg width="331" height="63" viewBox="0 0 331 63" fill="none" xmlns="http://www.w3.org/2000/svg">
<rect width="331" height="62.16" rx="16" fill="#0A0A22"/>
<path d="M73.886 37.1095C73.99 37.2481 74.0767 37.4215 74.146 37.6295C74.2153 37.8201 74.25 38.0021 74.25 38.1755C74.25 38.6435 74.068 39.0335 73.704 39.3455C73.3573 39.6575 72.95 39.8135 72.482 39.8135C72.2567 39.8135 72.04 39.7615 71.832 39.6575C71.624 39.5535 71.4507 39.4061 71.312 39.2155L65.67 31.7795L63.2 34.1455V38.2275C63.2 38.6955 63.044 39.0768 62.732 39.3715C62.4373 39.6661 62.0473 39.8135 61.562 39.8135C61.094 39.8135 60.704 39.6661 60.392 39.3715C60.0973 39.0595 59.95 38.6781 59.95 38.2275V23.1995C59.95 22.7488 60.106 22.3761 60.418 22.0815C60.73 21.7695 61.1287 21.6135 61.614 21.6135C62.082 21.6135 62.4633 21.7608 62.758 22.0555C63.0527 22.3501 63.2 22.7315 63.2 23.1995V30.2715L71.52 22.0815C71.9187 21.6828 72.3433 21.4835 72.794 21.4835C73.1927 21.4835 73.5307 21.6481 73.808 21.9775C74.0853 22.3068 74.224 22.6535 74.224 23.0175C74.224 23.3815 74.068 23.7195 73.756 24.0315L68.088 29.4395L73.886 37.1095ZM88.6485 32.5335C88.6312 32.9495 88.4665 33.2875 88.1545 33.5475C87.8425 33.8075 87.4785 33.9375 87.0625 33.9375H78.4825C78.6905 34.9601 79.1672 35.7661 79.9125 36.3555C80.6578 36.9275 81.4985 37.2135 82.4345 37.2135C83.1452 37.2135 83.6998 37.1528 84.0985 37.0315C84.4972 36.8928 84.8092 36.7541 85.0345 36.6155C85.2772 36.4595 85.4418 36.3555 85.5285 36.3035C85.8405 36.1475 86.1352 36.0695 86.4125 36.0695C86.7765 36.0695 87.0885 36.1995 87.3485 36.4595C87.6085 36.7195 87.7385 37.0228 87.7385 37.3695C87.7385 37.8375 87.4959 38.2621 87.0105 38.6435C86.5252 39.0421 85.8752 39.3801 85.0605 39.6575C84.2458 39.9348 83.4225 40.0735 82.5905 40.0735C81.1345 40.0735 79.8605 39.7701 78.7685 39.1635C77.6938 38.5568 76.8618 37.7248 76.2725 36.6675C75.6832 35.5928 75.3885 34.3881 75.3885 33.0535C75.3885 31.5628 75.7005 30.2541 76.3245 29.1275C76.9485 28.0008 77.7718 27.1428 78.7945 26.5535C79.8172 25.9468 80.9092 25.6435 82.0705 25.6435C83.2145 25.6435 84.2892 25.9555 85.2945 26.5795C86.3172 27.2035 87.1318 28.0441 87.7385 29.1015C88.3452 30.1588 88.6485 31.3028 88.6485 32.5335ZM82.0705 28.5035C80.0598 28.5035 78.8725 29.4481 78.5085 31.3375H85.3205V31.1555C85.2512 30.4275 84.8958 29.8035 84.2545 29.2835C83.6132 28.7635 82.8852 28.5035 82.0705 28.5035ZM107.293 25.6435C109.009 25.6435 110.196 26.1721 110.855 27.2295C111.513 28.2695 111.843 29.7168 111.843 31.5715V38.2275C111.843 38.6781 111.695 39.0595 111.401 39.3715C111.106 39.6661 110.733 39.8135 110.283 39.8135C109.832 39.8135 109.459 39.6661 109.165 39.3715C108.87 39.0595 108.723 38.6781 108.723 38.2275V31.5715C108.723 30.6181 108.532 29.8728 108.151 29.3355C107.787 28.7808 107.137 28.5035 106.201 28.5035C105.23 28.5035 104.467 28.7981 103.913 29.3875C103.375 29.9595 103.107 30.6875 103.107 31.5715V38.2275C103.107 38.6781 102.959 39.0595 102.665 39.3715C102.37 39.6661 101.997 39.8135 101.547 39.8135C101.096 39.8135 100.723 39.6661 100.429 39.3715C100.134 39.0595 99.9865 38.6781 99.9865 38.2275V31.5715C99.9865 30.6181 99.7959 29.8728 99.4145 29.3355C99.0505 28.7808 98.4005 28.5035 97.4645 28.5035C96.4939 28.5035 95.7312 28.7981 95.1765 29.3875C94.6392 29.9595 94.3705 30.6875 94.3705 31.5715V38.2275C94.3705 38.6781 94.2232 39.0595 93.9285 39.3715C93.6339 39.6661 93.2612 39.8135 92.8105 39.8135C92.3599 39.8135 91.9872 39.6661 91.6925 39.3715C91.3979 39.0595 91.2505 38.6781 91.2505 38.2275V27.4895C91.2505 27.0388 91.3979 26.6661 91.6925 26.3715C91.9872 26.0595 92.3599 25.9035 92.8105 25.9035C93.2612 25.9035 93.6339 26.0595 93.9285 26.3715C94.2232 26.6661 94.3705 27.0388 94.3705 27.4895V27.9055C94.8385 27.2815 95.4279 26.7528 96.1385 26.3195C96.8665 25.8688 97.6725 25.6435 98.5565 25.6435C100.741 25.6435 102.136 26.5968 102.743 28.5035C103.141 27.7755 103.739 27.1168 104.537 26.5275C105.351 25.9381 106.27 25.6435 107.293 25.6435ZM122.421 25.6435C123.617 25.6435 124.701 25.9555 125.671 26.5795C126.642 27.1861 127.405 28.0355 127.959 29.1275C128.531 30.2195 128.817 31.4588 128.817 32.8455C128.817 34.2321 128.54 35.4801 127.985 36.5895C127.431 37.6815 126.668 38.5395 125.697 39.1635C124.744 39.7701 123.687 40.0735 122.525 40.0735C121.693 40.0735 120.905 39.9088 120.159 39.5795C119.431 39.2328 118.825 38.8168 118.339 38.3315V38.4875C118.339 38.9381 118.192 39.3195 117.897 39.6315C117.603 39.9261 117.23 40.0735 116.779 40.0735C116.329 40.0735 115.956 39.9261 115.661 39.6315C115.367 39.3368 115.219 38.9555 115.219 38.4875V22.1595C115.219 21.7088 115.367 21.3361 115.661 21.0415C115.956 20.7295 116.329 20.5735 116.779 20.5735C117.23 20.5735 117.603 20.7295 117.897 21.0415C118.192 21.3361 118.339 21.7088 118.339 22.1595V27.5935C118.755 27.0735 119.336 26.6228 120.081 26.2415C120.827 25.8428 121.607 25.6435 122.421 25.6435ZM122.031 37.2135C123.141 37.2135 124.051 36.7975 124.761 35.9655C125.472 35.1335 125.827 34.0935 125.827 32.8455C125.827 31.5975 125.472 30.5661 124.761 29.7515C124.068 28.9195 123.158 28.5035 122.031 28.5035C120.905 28.5035 119.986 28.9195 119.275 29.7515C118.565 30.5661 118.209 31.5975 118.209 32.8455C118.209 34.0935 118.565 35.1335 119.275 35.9655C119.986 36.7975 120.905 37.2135 122.031 37.2135ZM142.677 25.6435C143.127 25.6435 143.5 25.7908 143.795 26.0855C144.089 26.3801 144.237 26.7615 144.237 27.2295V38.2275C144.237 38.6781 144.089 39.0595 143.795 39.3715C143.5 39.6661 143.127 39.8135 142.677 39.8135C142.226 39.8135 141.853 39.6661 141.559 39.3715C141.281 39.0768 141.134 38.7041 141.117 38.2535C140.683 38.7561 140.094 39.1895 139.349 39.5535C138.621 39.9001 137.849 40.0735 137.035 40.0735C135.839 40.0735 134.755 39.7701 133.785 39.1635C132.814 38.5395 132.043 37.6815 131.471 36.5895C130.916 35.4975 130.639 34.2581 130.639 32.8715C130.639 31.4848 130.916 30.2455 131.471 29.1535C132.025 28.0441 132.779 27.1861 133.733 26.5795C134.703 25.9555 135.769 25.6435 136.931 25.6435C137.763 25.6435 138.543 25.7995 139.271 26.1115C139.999 26.4061 140.614 26.7875 141.117 27.2555V27.2295C141.117 26.7788 141.264 26.4061 141.559 26.1115C141.853 25.7995 142.226 25.6435 142.677 25.6435ZM137.425 37.2135C138.551 37.2135 139.47 36.8061 140.181 35.9915C140.891 35.1595 141.247 34.1195 141.247 32.8715C141.247 31.6235 140.891 30.5835 140.181 29.7515C139.47 28.9195 138.551 28.5035 137.425 28.5035C136.315 28.5035 135.405 28.9195 134.695 29.7515C133.984 30.5835 133.629 31.6235 133.629 32.8715C133.629 34.1195 133.975 35.1595 134.669 35.9915C135.379 36.8061 136.298 37.2135 137.425 37.2135ZM150.998 38.2275C150.998 38.6781 150.842 39.0595 150.53 39.3715C150.235 39.6661 149.862 39.8135 149.412 39.8135C148.978 39.8135 148.614 39.6661 148.32 39.3715C148.025 39.0595 147.878 38.6781 147.878 38.2275V22.1595C147.878 21.7088 148.025 21.3361 148.32 21.0415C148.632 20.7295 149.013 20.5735 149.464 20.5735C149.897 20.5735 150.261 20.7295 150.556 21.0415C150.85 21.3361 150.998 21.7088 150.998 22.1595V38.2275ZM157.564 38.2275C157.564 38.6781 157.416 39.0595 157.122 39.3715C156.827 39.6661 156.454 39.8135 156.004 39.8135C155.553 39.8135 155.18 39.6661 154.886 39.3715C154.591 39.0595 154.444 38.6781 154.444 38.2275V27.4895C154.444 27.0388 154.591 26.6661 154.886 26.3715C155.18 26.0595 155.553 25.9035 156.004 25.9035C156.454 25.9035 156.827 26.0595 157.122 26.3715C157.416 26.6661 157.564 27.0388 157.564 27.4895V38.2275ZM155.978 24.2135C155.388 24.2135 154.972 24.1181 154.73 23.9275C154.487 23.7368 154.366 23.3988 154.366 22.9135V22.4195C154.366 21.9341 154.496 21.5961 154.756 21.4055C155.016 21.2148 155.432 21.1195 156.004 21.1195C156.61 21.1195 157.035 21.2148 157.278 21.4055C157.52 21.5961 157.642 21.9341 157.642 22.4195V22.9135C157.642 23.4161 157.512 23.7628 157.252 23.9535C157.009 24.1268 156.584 24.2135 155.978 24.2135ZM179.627 37.0835C179.957 37.4301 180.121 37.8201 180.121 38.2535C180.121 38.6868 179.948 39.0508 179.601 39.3455C179.272 39.6401 178.917 39.7875 178.535 39.7875C178.085 39.7875 177.703 39.6141 177.391 39.2675L172.711 34.3275L171.437 35.4975V38.2275C171.437 38.6781 171.29 39.0595 170.995 39.3715C170.701 39.6661 170.328 39.8135 169.877 39.8135C169.427 39.8135 169.054 39.6661 168.759 39.3715C168.465 39.0595 168.317 38.6781 168.317 38.2275V22.1595C168.317 21.7088 168.465 21.3361 168.759 21.0415C169.054 20.7295 169.427 20.5735 169.877 20.5735C170.328 20.5735 170.701 20.7295 170.995 21.0415C171.29 21.3361 171.437 21.7088 171.437 22.1595V31.7795L177.001 26.3975C177.331 26.0681 177.712 25.9035 178.145 25.9035C178.527 25.9035 178.865 26.0681 179.159 26.3975C179.471 26.7095 179.627 27.0301 179.627 27.3595C179.627 27.7755 179.419 28.1655 179.003 28.5295L175.077 32.1435L179.627 37.0835ZM194.756 32.5335C194.739 32.9495 194.574 33.2875 194.262 33.5475C193.95 33.8075 193.586 33.9375 193.17 33.9375H184.59C184.798 34.9601 185.275 35.7661 186.02 36.3555C186.765 36.9275 187.606 37.2135 188.542 37.2135C189.253 37.2135 189.807 37.1528 190.206 37.0315C190.605 36.8928 190.917 36.7541 191.142 36.6155C191.385 36.4595 191.549 36.3555 191.636 36.3035C191.948 36.1475 192.243 36.0695 192.52 36.0695C192.884 36.0695 193.196 36.1995 193.456 36.4595C193.716 36.7195 193.846 37.0228 193.846 37.3695C193.846 37.8375 193.603 38.2621 193.118 38.6435C192.633 39.0421 191.983 39.3801 191.168 39.6575C190.353 39.9348 189.53 40.0735 188.698 40.0735C187.242 40.0735 185.968 39.7701 184.876 39.1635C183.801 38.5568 182.969 37.7248 182.38 36.6675C181.791 35.5928 181.496 34.3881 181.496 33.0535C181.496 31.5628 181.808 30.2541 182.432 29.1275C183.056 28.0008 183.879 27.1428 184.902 26.5535C185.925 25.9468 187.017 25.6435 188.178 25.6435C189.322 25.6435 190.397 25.9555 191.402 26.5795C192.425 27.2035 193.239 28.0441 193.846 29.1015C194.453 30.1588 194.756 31.3028 194.756 32.5335ZM188.178 28.5035C186.167 28.5035 184.98 29.4481 184.616 31.3375H191.428V31.1555C191.359 30.4275 191.003 29.8035 190.362 29.2835C189.721 28.7635 188.993 28.5035 188.178 28.5035ZM220.687 21.5875C221.12 21.5875 221.493 21.7435 221.805 22.0555C222.134 22.3501 222.299 22.7228 222.299 23.1735V38.2275C222.299 38.6781 222.152 39.0595 221.857 39.3715C221.562 39.6661 221.172 39.8135 220.687 39.8135C220.202 39.8135 219.803 39.6661 219.491 39.3715C219.196 39.0768 219.049 38.6955 219.049 38.2275V27.7495L214.759 34.3015C214.586 34.5095 214.386 34.6828 214.161 34.8215C213.936 34.9428 213.702 34.9948 213.459 34.9775C213.234 34.9948 213.008 34.9428 212.783 34.8215C212.558 34.6828 212.358 34.5095 212.185 34.3015L207.895 27.5155V38.2275C207.895 38.6955 207.756 39.0768 207.479 39.3715C207.202 39.6661 206.838 39.8135 206.387 39.8135C205.954 39.8135 205.598 39.6661 205.321 39.3715C205.044 39.0595 204.905 38.6781 204.905 38.2275V23.1735C204.905 22.7401 205.061 22.3675 205.373 22.0555C205.702 21.7435 206.092 21.5875 206.543 21.5875C206.803 21.5875 207.063 21.6568 207.323 21.7955C207.583 21.9168 207.782 22.0815 207.921 22.2895L213.589 30.9995L219.413 22.2895C219.552 22.0815 219.734 21.9168 219.959 21.7955C220.202 21.6568 220.444 21.5875 220.687 21.5875ZM238.428 32.5335C238.41 32.9495 238.246 33.2875 237.934 33.5475C237.622 33.8075 237.258 33.9375 236.842 33.9375H228.262C228.47 34.9601 228.946 35.7661 229.692 36.3555C230.437 36.9275 231.278 37.2135 232.214 37.2135C232.924 37.2135 233.479 37.1528 233.878 37.0315C234.276 36.8928 234.588 36.7541 234.814 36.6155C235.056 36.4595 235.221 36.3555 235.308 36.3035C235.62 36.1475 235.914 36.0695 236.192 36.0695C236.556 36.0695 236.868 36.1995 237.128 36.4595C237.388 36.7195 237.518 37.0228 237.518 37.3695C237.518 37.8375 237.275 38.2621 236.79 38.6435C236.304 39.0421 235.654 39.3801 234.84 39.6575C234.025 39.9348 233.202 40.0735 232.37 40.0735C230.914 40.0735 229.64 39.7701 228.548 39.1635C227.473 38.5568 226.641 37.7248 226.052 36.6675C225.462 35.5928 225.168 34.3881 225.168 33.0535C225.168 31.5628 225.48 30.2541 226.104 29.1275C226.728 28.0008 227.551 27.1428 228.574 26.5535C229.596 25.9468 230.688 25.6435 231.85 25.6435C232.994 25.6435 234.068 25.9555 235.074 26.5795C236.096 27.2035 236.911 28.0441 237.518 29.1015C238.124 30.1588 238.428 31.3028 238.428 32.5335ZM231.85 28.5035C229.839 28.5035 228.652 29.4481 228.288 31.3375H235.1V31.1555C235.03 30.4275 234.675 29.8035 234.034 29.2835C233.392 28.7635 232.664 28.5035 231.85 28.5035ZM248.466 25.6435C250.234 25.6435 251.456 26.1721 252.132 27.2295C252.808 28.2695 253.146 29.7168 253.146 31.5715V38.2275C253.146 38.6781 252.999 39.0595 252.704 39.3715C252.409 39.6661 252.037 39.8135 251.586 39.8135C251.135 39.8135 250.763 39.6661 250.468 39.3715C250.173 39.0595 250.026 38.6781 250.026 38.2275V31.5715C250.026 30.6181 249.827 29.8728 249.428 29.3355C249.029 28.7808 248.345 28.5035 247.374 28.5035C246.369 28.5035 245.58 28.7981 245.008 29.3875C244.436 29.9595 244.15 30.6875 244.15 31.5715V38.2275C244.15 38.6781 244.003 39.0595 243.708 39.3715C243.413 39.6661 243.041 39.8135 242.59 39.8135C242.139 39.8135 241.767 39.6661 241.472 39.3715C241.177 39.0595 241.03 38.6781 241.03 38.2275V27.4895C241.03 27.0388 241.177 26.6661 241.472 26.3715C241.767 26.0595 242.139 25.9035 242.59 25.9035C243.041 25.9035 243.413 26.0595 243.708 26.3715C244.003 26.6661 244.15 27.0388 244.15 27.4895V27.9315C244.618 27.3075 245.225 26.7701 245.97 26.3195C246.733 25.8688 247.565 25.6435 248.466 25.6435ZM266.84 25.9035C267.291 25.9035 267.663 26.0595 267.958 26.3715C268.253 26.6661 268.4 27.0388 268.4 27.4895V34.0935C268.4 35.9655 267.88 37.4301 266.84 38.4875C265.817 39.5448 264.353 40.0735 262.446 40.0735C260.539 40.0735 259.075 39.5448 258.052 38.4875C257.029 37.4301 256.518 35.9655 256.518 34.0935V27.4895C256.518 27.0388 256.665 26.6661 256.96 26.3715C257.255 26.0595 257.627 25.9035 258.078 25.9035C258.529 25.9035 258.901 26.0595 259.196 26.3715C259.491 26.6661 259.638 27.0388 259.638 27.4895V34.0935C259.638 35.1508 259.872 35.9395 260.34 36.4595C260.808 36.9621 261.51 37.2135 262.446 37.2135C263.399 37.2135 264.11 36.9621 264.578 36.4595C265.046 35.9395 265.28 35.1508 265.28 34.0935V27.4895C265.28 27.0388 265.427 26.6661 265.722 26.3715C266.017 26.0595 266.389 25.9035 266.84 25.9035Z" fill="white"/>
</svg>
