<svg width="311" height="55" viewBox="0 0 311 55" fill="none" xmlns="http://www.w3.org/2000/svg">
<path d="M77.7391 21.56C79.5525 21.56 81.0138 21.848 82.1231 22.424C83.2325 22.9787 83.7871 23.7253 83.7871 24.664C83.7871 25.1333 83.6485 25.5493 83.3711 25.912C83.0938 26.2533 82.7311 26.424 82.2831 26.424C81.9418 26.424 81.6645 26.3813 81.4511 26.296C81.2378 26.1893 81.0245 26.0613 80.8111 25.912C80.6191 25.7413 80.4271 25.6027 80.2351 25.496C80.0218 25.3893 79.7018 25.2933 79.2751 25.208C78.8698 25.1227 78.5391 25.08 78.2831 25.08C76.6831 25.08 75.4245 25.5813 74.5071 26.584C73.6111 27.5653 73.1631 28.856 73.1631 30.456C73.1631 31.992 73.6218 33.272 74.5391 34.296C75.4565 35.2987 76.6298 35.8 78.0591 35.8C79.1045 35.8 79.8831 35.672 80.3951 35.416C80.5231 35.352 80.6938 35.2453 80.9071 35.096C81.1418 34.9253 81.3551 34.7973 81.5471 34.712C81.7391 34.6267 81.9738 34.584 82.2511 34.584C82.7845 34.584 83.2005 34.7547 83.4991 35.096C83.8191 35.4373 83.9791 35.8747 83.9791 36.408C83.9791 36.92 83.6805 37.4 83.0831 37.848C82.4858 38.296 81.6965 38.6587 80.7151 38.936C79.7338 39.192 78.6885 39.32 77.5791 39.32C75.9365 39.32 74.4858 38.936 73.2271 38.168C71.9898 37.4 71.0298 36.344 70.3471 35C69.6645 33.6347 69.3231 32.12 69.3231 30.456C69.3231 28.728 69.6751 27.192 70.3791 25.848C71.1045 24.504 72.1071 23.4587 73.3871 22.712C74.6671 21.944 76.1178 21.56 77.7391 21.56ZM95.6479 21.56C96.2879 21.56 96.8212 21.7413 97.2479 22.104C97.6959 22.4667 97.9199 22.8933 97.9199 23.384C97.9199 24.0453 97.7492 24.5467 97.4079 24.888C97.0665 25.208 96.6612 25.368 96.1919 25.368C95.8719 25.368 95.5092 25.2933 95.1039 25.144C95.0399 25.1227 94.8905 25.08 94.6559 25.016C94.4425 24.952 94.2079 24.92 93.9519 24.92C93.3972 24.92 92.8639 25.0907 92.3519 25.432C91.8399 25.7733 91.4132 26.296 91.0719 27C90.7519 27.6827 90.5919 28.504 90.5919 29.464V37.048C90.5919 37.6027 90.4105 38.072 90.0479 38.456C89.6852 38.8187 89.2265 39 88.6719 39C88.1172 39 87.6585 38.8187 87.2959 38.456C86.9332 38.072 86.7519 37.6027 86.7519 37.048V23.832C86.7519 23.2773 86.9332 22.8187 87.2959 22.456C87.6585 22.072 88.1172 21.88 88.6719 21.88C89.2265 21.88 89.6852 22.072 90.0479 22.456C90.4105 22.8187 90.5919 23.2773 90.5919 23.832V24.248C91.0825 23.3733 91.7865 22.712 92.7039 22.264C93.6212 21.7947 94.6025 21.56 95.6479 21.56ZM115.268 30.04C115.247 30.552 115.044 30.968 114.66 31.288C114.276 31.608 113.828 31.768 113.316 31.768H102.756C103.012 33.0267 103.599 34.0187 104.516 34.744C105.433 35.448 106.468 35.8 107.62 35.8C108.495 35.8 109.177 35.7253 109.668 35.576C110.159 35.4053 110.543 35.2347 110.82 35.064C111.119 34.872 111.321 34.744 111.428 34.68C111.812 34.488 112.175 34.392 112.516 34.392C112.964 34.392 113.348 34.552 113.668 34.872C113.988 35.192 114.148 35.5653 114.148 35.992C114.148 36.568 113.849 37.0907 113.252 37.56C112.655 38.0507 111.855 38.4667 110.852 38.808C109.849 39.1493 108.836 39.32 107.812 39.32C106.02 39.32 104.452 38.9467 103.108 38.2C101.785 37.4533 100.761 36.4293 100.036 35.128C99.3108 33.8053 98.9481 32.3227 98.9481 30.68C98.9481 28.8453 99.3321 27.2347 100.1 25.848C100.868 24.4613 101.881 23.4053 103.14 22.68C104.399 21.9333 105.743 21.56 107.172 21.56C108.58 21.56 109.903 21.944 111.14 22.712C112.399 23.48 113.401 24.5147 114.148 25.816C114.895 27.1173 115.268 28.5253 115.268 30.04ZM107.172 25.08C104.697 25.08 103.236 26.2427 102.788 28.568H111.172V28.344C111.087 27.448 110.649 26.68 109.86 26.04C109.071 25.4 108.175 25.08 107.172 25.08ZM132.452 21.56C133.006 21.56 133.465 21.7413 133.828 22.104C134.19 22.4667 134.372 22.936 134.372 23.512V37.048C134.372 37.6027 134.19 38.072 133.828 38.456C133.465 38.8187 133.006 39 132.452 39C131.897 39 131.438 38.8187 131.076 38.456C130.734 38.0933 130.553 37.6347 130.532 37.08C129.998 37.6987 129.273 38.232 128.356 38.68C127.46 39.1067 126.51 39.32 125.508 39.32C124.036 39.32 122.702 38.9467 121.508 38.2C120.313 37.432 119.364 36.376 118.66 35.032C117.977 33.688 117.636 32.1627 117.636 30.456C117.636 28.7493 117.977 27.224 118.66 25.88C119.342 24.5147 120.27 23.4587 121.444 22.712C122.638 21.944 123.95 21.56 125.38 21.56C126.404 21.56 127.364 21.752 128.26 22.136C129.156 22.4987 129.913 22.968 130.532 23.544V23.512C130.532 22.9573 130.713 22.4987 131.076 22.136C131.438 21.752 131.897 21.56 132.452 21.56ZM125.988 35.8C127.374 35.8 128.505 35.2987 129.38 34.296C130.254 33.272 130.692 31.992 130.692 30.456C130.692 28.92 130.254 27.64 129.38 26.616C128.505 25.592 127.374 25.08 125.988 25.08C124.622 25.08 123.502 25.592 122.628 26.616C121.753 27.64 121.316 28.92 121.316 30.456C121.316 31.992 121.742 33.272 122.596 34.296C123.47 35.2987 124.601 35.8 125.988 35.8ZM146.789 35.384C147.088 35.384 147.354 35.5333 147.589 35.832C147.845 36.1093 147.973 36.4827 147.973 36.952C147.973 37.528 147.653 38.0187 147.013 38.424C146.394 38.808 145.69 39 144.901 39C143.578 39 142.458 38.7227 141.541 38.168C140.645 37.592 140.197 36.3867 140.197 34.552V25.72H138.725C138.213 25.72 137.786 25.5493 137.445 25.208C137.104 24.8667 136.933 24.44 136.933 23.928C136.933 23.4373 137.104 23.032 137.445 22.712C137.786 22.3707 138.213 22.2 138.725 22.2H140.197V20.152C140.197 19.5973 140.378 19.1387 140.741 18.776C141.125 18.392 141.594 18.2 142.149 18.2C142.682 18.2 143.13 18.392 143.493 18.776C143.856 19.1387 144.037 19.5973 144.037 20.152V22.2H146.309C146.821 22.2 147.248 22.3707 147.589 22.712C147.93 23.0533 148.101 23.48 148.101 23.992C148.101 24.4827 147.93 24.8987 147.589 25.24C147.248 25.56 146.821 25.72 146.309 25.72H144.037V34.392C144.037 34.84 144.154 35.1707 144.389 35.384C144.624 35.576 144.944 35.672 145.349 35.672C145.52 35.672 145.754 35.6293 146.053 35.544C146.309 35.4373 146.554 35.384 146.789 35.384ZM155.243 37.048C155.243 37.6027 155.062 38.072 154.699 38.456C154.336 38.8187 153.878 39 153.323 39C152.768 39 152.31 38.8187 151.947 38.456C151.584 38.072 151.403 37.6027 151.403 37.048V23.832C151.403 23.2773 151.584 22.8187 151.947 22.456C152.31 22.072 152.768 21.88 153.323 21.88C153.878 21.88 154.336 22.072 154.699 22.456C155.062 22.8187 155.243 23.2773 155.243 23.832V37.048ZM153.291 19.8C152.566 19.8 152.054 19.6827 151.755 19.448C151.456 19.2133 151.307 18.7973 151.307 18.2V17.592C151.307 16.9947 151.467 16.5787 151.787 16.344C152.107 16.1093 152.619 15.992 153.323 15.992C154.07 15.992 154.592 16.1093 154.891 16.344C155.19 16.5787 155.339 16.9947 155.339 17.592V18.2C155.339 18.8187 155.179 19.2453 154.859 19.48C154.56 19.6933 154.038 19.8 153.291 19.8ZM172.341 21.912C172.853 21.912 173.28 22.0827 173.621 22.424C173.963 22.744 174.133 23.1493 174.133 23.64C174.133 23.896 174.048 24.216 173.877 24.6L167.893 37.784C167.744 38.1467 167.52 38.4347 167.221 38.648C166.944 38.8613 166.624 38.9787 166.261 39L165.973 39.032C165.611 39.032 165.269 38.9253 164.949 38.712C164.651 38.4773 164.416 38.168 164.245 37.784L158.293 24.6C158.144 24.2587 158.069 23.9173 158.069 23.576C158.069 23.1493 158.251 22.7653 158.613 22.424C158.976 22.0613 159.424 21.88 159.957 21.88C160.363 21.88 160.736 21.9867 161.077 22.2C161.419 22.4133 161.675 22.712 161.845 23.096L166.261 33.208L170.645 23.128C170.816 22.7227 171.051 22.4133 171.349 22.2C171.648 21.9867 171.979 21.8907 172.341 21.912ZM192.362 30.04C192.341 30.552 192.138 30.968 191.754 31.288C191.37 31.608 190.922 31.768 190.41 31.768H179.85C180.106 33.0267 180.693 34.0187 181.61 34.744C182.527 35.448 183.562 35.8 184.714 35.8C185.589 35.8 186.271 35.7253 186.762 35.576C187.253 35.4053 187.637 35.2347 187.914 35.064C188.213 34.872 188.415 34.744 188.522 34.68C188.906 34.488 189.269 34.392 189.61 34.392C190.058 34.392 190.442 34.552 190.762 34.872C191.082 35.192 191.242 35.5653 191.242 35.992C191.242 36.568 190.943 37.0907 190.346 37.56C189.749 38.0507 188.949 38.4667 187.946 38.808C186.943 39.1493 185.93 39.32 184.906 39.32C183.114 39.32 181.546 38.9467 180.202 38.2C178.879 37.4533 177.855 36.4293 177.13 35.128C176.405 33.8053 176.042 32.3227 176.042 30.68C176.042 28.8453 176.426 27.2347 177.194 25.848C177.962 24.4613 178.975 23.4053 180.234 22.68C181.493 21.9333 182.837 21.56 184.266 21.56C185.674 21.56 186.997 21.944 188.234 22.712C189.493 23.48 190.495 24.5147 191.242 25.816C191.989 27.1173 192.362 28.5253 192.362 30.04ZM184.266 25.08C181.791 25.08 180.33 26.2427 179.882 28.568H188.266V28.344C188.181 27.448 187.743 26.68 186.954 26.04C186.165 25.4 185.269 25.08 184.266 25.08ZM214.604 32.728C214.583 32.856 214.572 33.0267 214.572 33.24C214.572 33.752 214.69 34.136 214.924 34.392C215.18 34.648 215.5 34.776 215.884 34.776C216.716 34.776 217.484 34.3707 218.188 33.56C218.892 32.728 219.458 31.6613 219.884 30.36C220.311 29.0373 220.524 27.6933 220.524 26.328C220.524 24.8347 220.172 23.5227 219.468 22.392C218.764 21.24 217.762 20.3547 216.46 19.736C215.159 19.096 213.644 18.776 211.916 18.776C209.186 18.776 206.711 19.32 204.492 20.408C202.274 21.496 200.524 23.0747 199.244 25.144C197.964 27.192 197.324 29.6133 197.324 32.408C197.324 34.0293 197.655 35.544 198.316 36.952C198.978 38.36 200.012 39.5013 201.42 40.376C202.828 41.2507 204.599 41.688 206.732 41.688C208.354 41.688 209.676 41.528 210.7 41.208C211.724 40.9093 212.802 40.44 213.932 39.8C214.167 39.672 214.37 39.608 214.54 39.608C214.967 39.608 215.287 39.8747 215.5 40.408C215.564 40.536 215.596 40.664 215.596 40.792C215.596 41.2613 215.191 41.7093 214.38 42.136C213.079 42.7973 211.874 43.2987 210.764 43.64C209.655 44.0027 208.311 44.184 206.732 44.184C204.002 44.184 201.74 43.6293 199.948 42.52C198.156 41.4107 196.844 39.9707 196.012 38.2C195.18 36.408 194.764 34.4773 194.764 32.408C194.764 29.1653 195.522 26.328 197.036 23.896C198.551 21.4427 200.61 19.5653 203.212 18.264C205.815 16.9413 208.716 16.28 211.916 16.28C214.263 16.28 216.279 16.728 217.964 17.624C219.65 18.52 220.919 19.7253 221.772 21.24C222.647 22.7547 223.084 24.4507 223.084 26.328C223.084 28.12 222.732 29.8587 222.028 31.544C221.324 33.208 220.322 34.5733 219.02 35.64C217.719 36.7067 216.215 37.24 214.508 37.24C213.634 37.24 212.844 36.9947 212.14 36.504C211.458 36.0133 211.031 35.384 210.86 34.616C209.858 36.3653 208.279 37.24 206.124 37.24C205.314 37.24 204.535 37.0267 203.788 36.6C203.063 36.1733 202.476 35.5547 202.028 34.744C201.58 33.9333 201.356 33.0053 201.356 31.96C201.356 30.616 201.698 29.2187 202.38 27.768C203.084 26.3173 204.023 25.112 205.196 24.152C206.391 23.1707 207.66 22.68 209.004 22.68C209.73 22.68 210.38 22.8827 210.956 23.288C211.554 23.672 212.002 24.216 212.3 24.92L212.428 24.056C212.492 23.7147 212.663 23.416 212.94 23.16C213.239 22.904 213.655 22.776 214.188 22.776C215.34 22.776 215.916 23.2347 215.916 24.152C215.916 24.3653 215.906 24.536 215.884 24.664L214.604 32.728ZM211.18 30.584C211.522 29.56 211.692 28.7067 211.692 28.024C211.692 27.1493 211.458 26.52 210.988 26.136C210.519 25.752 209.911 25.56 209.164 25.56C208.354 25.56 207.618 25.8907 206.956 26.552C206.316 27.2133 205.815 28.0453 205.452 29.048C205.111 30.0293 204.94 30.9787 204.94 31.896C204.94 32.7067 205.132 33.3253 205.516 33.752C205.9 34.1573 206.434 34.36 207.116 34.36C207.799 34.36 208.418 34.1573 208.972 33.752C209.548 33.3253 210.018 32.824 210.38 32.248C210.764 31.6507 211.031 31.096 211.18 30.584ZM235.4 21.56C237.512 21.56 238.973 22.2107 239.784 23.512C240.595 24.792 241 26.5733 241 28.856V37.048C241 37.6027 240.819 38.072 240.456 38.456C240.093 38.8187 239.635 39 239.08 39C238.525 39 238.067 38.8187 237.704 38.456C237.341 38.072 237.16 37.6027 237.16 37.048V28.856C237.16 27.6827 236.925 26.7653 236.456 26.104C236.008 25.4213 235.208 25.08 234.056 25.08C232.861 25.08 231.923 25.4427 231.24 26.168C230.579 26.872 230.248 27.768 230.248 28.856V37.048C230.248 37.6027 230.067 38.072 229.704 38.456C229.341 38.8187 228.883 39 228.328 39C227.773 39 227.315 38.8187 226.952 38.456C226.589 38.072 226.408 37.6027 226.408 37.048V17.272C226.408 16.7173 226.589 16.2587 226.952 15.896C227.315 15.512 227.773 15.32 228.328 15.32C228.883 15.32 229.341 15.512 229.704 15.896C230.067 16.2587 230.248 16.7173 230.248 17.272V24.344C230.824 23.576 231.549 22.9253 232.424 22.392C233.32 21.8373 234.312 21.56 235.4 21.56ZM261.606 30.456C261.606 32.1627 261.222 33.6987 260.454 35.064C259.686 36.408 258.63 37.4533 257.286 38.2C255.963 38.9467 254.502 39.32 252.902 39.32C251.281 39.32 249.809 38.9467 248.486 38.2C247.163 37.4533 246.118 36.408 245.35 35.064C244.582 33.6987 244.198 32.1627 244.198 30.456C244.198 28.7493 244.582 27.224 245.35 25.88C246.118 24.5147 247.163 23.4587 248.486 22.712C249.809 21.944 251.281 21.56 252.902 21.56C254.502 21.56 255.963 21.944 257.286 22.712C258.63 23.4587 259.686 24.5147 260.454 25.88C261.222 27.224 261.606 28.7493 261.606 30.456ZM257.766 30.456C257.766 29.4107 257.542 28.4827 257.094 27.672C256.667 26.84 256.081 26.2 255.334 25.752C254.609 25.304 253.798 25.08 252.902 25.08C252.006 25.08 251.185 25.304 250.438 25.752C249.713 26.2 249.126 26.84 248.678 27.672C248.251 28.4827 248.038 29.4107 248.038 30.456C248.038 31.5013 248.251 32.4293 248.678 33.24C249.126 34.0507 249.713 34.68 250.438 35.128C251.185 35.576 252.006 35.8 252.902 35.8C253.798 35.8 254.609 35.576 255.334 35.128C256.081 34.68 256.667 34.0507 257.094 33.24C257.542 32.4293 257.766 31.5013 257.766 30.456ZM284.558 21.56C286.67 21.56 288.132 22.2107 288.942 23.512C289.753 24.792 290.158 26.5733 290.158 28.856V37.048C290.158 37.6027 289.977 38.072 289.614 38.456C289.252 38.8187 288.793 39 288.238 39C287.684 39 287.225 38.8187 286.862 38.456C286.5 38.072 286.318 37.6027 286.318 37.048V28.856C286.318 27.6827 286.084 26.7653 285.614 26.104C285.166 25.4213 284.366 25.08 283.214 25.08C282.02 25.08 281.081 25.4427 280.398 26.168C279.737 26.872 279.406 27.768 279.406 28.856V37.048C279.406 37.6027 279.225 38.072 278.862 38.456C278.5 38.8187 278.041 39 277.486 39C276.932 39 276.473 38.8187 276.11 38.456C275.748 38.072 275.566 37.6027 275.566 37.048V28.856C275.566 27.6827 275.332 26.7653 274.862 26.104C274.414 25.4213 273.614 25.08 272.462 25.08C271.268 25.08 270.329 25.4427 269.646 26.168C268.985 26.872 268.654 27.768 268.654 28.856V37.048C268.654 37.6027 268.473 38.072 268.11 38.456C267.748 38.8187 267.289 39 266.734 39C266.18 39 265.721 38.8187 265.358 38.456C264.996 38.072 264.814 37.6027 264.814 37.048V23.832C264.814 23.2773 264.996 22.8187 265.358 22.456C265.721 22.072 266.18 21.88 266.734 21.88C267.289 21.88 267.748 22.072 268.11 22.456C268.473 22.8187 268.654 23.2773 268.654 23.832V24.344C269.23 23.576 269.956 22.9253 270.83 22.392C271.726 21.8373 272.718 21.56 273.806 21.56C276.494 21.56 278.212 22.7333 278.958 25.08C279.449 24.184 280.185 23.3733 281.166 22.648C282.169 21.9227 283.3 21.56 284.558 21.56ZM309.674 30.04C309.653 30.552 309.45 30.968 309.066 31.288C308.682 31.608 308.234 31.768 307.722 31.768H297.162C297.418 33.0267 298.005 34.0187 298.922 34.744C299.84 35.448 300.874 35.8 302.026 35.8C302.901 35.8 303.584 35.7253 304.074 35.576C304.565 35.4053 304.949 35.2347 305.226 35.064C305.525 34.872 305.728 34.744 305.834 34.68C306.218 34.488 306.581 34.392 306.922 34.392C307.37 34.392 307.754 34.552 308.074 34.872C308.394 35.192 308.554 35.5653 308.554 35.992C308.554 36.568 308.256 37.0907 307.658 37.56C307.061 38.0507 306.261 38.4667 305.258 38.808C304.256 39.1493 303.242 39.32 302.218 39.32C300.426 39.32 298.858 38.9467 297.514 38.2C296.192 37.4533 295.168 36.4293 294.442 35.128C293.717 33.8053 293.354 32.3227 293.354 30.68C293.354 28.8453 293.738 27.2347 294.506 25.848C295.274 24.4613 296.288 23.4053 297.546 22.68C298.805 21.9333 300.149 21.56 301.578 21.56C302.986 21.56 304.309 21.944 305.546 22.712C306.805 23.48 307.808 24.5147 308.554 25.816C309.301 27.1173 309.674 28.5253 309.674 30.04ZM301.578 25.08C299.104 25.08 297.642 26.2427 297.194 28.568H305.578V28.344C305.493 27.448 305.056 26.68 304.266 26.04C303.477 25.4 302.581 25.08 301.578 25.08Z" fill="#F9FBFF"/>
<circle cx="27.5" cy="27.5" r="27.5" fill="#F9FBFF"/>
</svg>
