<svg width="331" height="63" viewBox="0 0 331 63" fill="none" xmlns="http://www.w3.org/2000/svg">
<rect width="331" height="63" rx="20" fill="#0B1D52"/>
<path d="M135.732 22.774C136.165 22.774 136.538 22.93 136.85 23.242C137.179 23.5367 137.344 23.9093 137.344 24.36V39.414C137.344 39.8647 137.197 40.246 136.902 40.558C136.607 40.8527 136.217 41 135.732 41C135.247 41 134.848 40.8527 134.536 40.558C134.241 40.2633 134.094 39.882 134.094 39.414V28.936L129.804 35.488C129.631 35.696 129.431 35.8693 129.206 36.008C128.981 36.1293 128.747 36.1813 128.504 36.164C128.279 36.1813 128.053 36.1293 127.828 36.008C127.603 35.8693 127.403 35.696 127.23 35.488L122.94 28.702V39.414C122.94 39.882 122.801 40.2633 122.524 40.558C122.247 40.8527 121.883 41 121.432 41C120.999 41 120.643 40.8527 120.366 40.558C120.089 40.246 119.95 39.8647 119.95 39.414V24.36C119.95 23.9267 120.106 23.554 120.418 23.242C120.747 22.93 121.137 22.774 121.588 22.774C121.848 22.774 122.108 22.8433 122.368 22.982C122.628 23.1033 122.827 23.268 122.966 23.476L128.634 32.186L134.458 23.476C134.597 23.268 134.779 23.1033 135.004 22.982C135.247 22.8433 135.489 22.774 135.732 22.774ZM154.175 22.774C154.625 22.774 154.989 22.9213 155.267 23.216C155.544 23.5107 155.683 23.892 155.683 24.36V33.772C155.683 35.2107 155.379 36.4847 154.773 37.594C154.166 38.7033 153.317 39.57 152.225 40.194C151.133 40.818 149.885 41.13 148.481 41.13C147.077 41.13 145.82 40.818 144.711 40.194C143.619 39.57 142.769 38.7033 142.163 37.594C141.556 36.4847 141.253 35.2107 141.253 33.772V24.36C141.253 23.9093 141.409 23.5367 141.721 23.242C142.033 22.93 142.431 22.774 142.917 22.774C143.333 22.774 143.697 22.93 144.009 23.242C144.321 23.5367 144.477 23.9093 144.477 24.36V33.772C144.477 34.604 144.659 35.3493 145.023 36.008C145.387 36.6493 145.872 37.1433 146.479 37.49C147.103 37.8367 147.77 38.01 148.481 38.01C149.226 38.01 149.919 37.8367 150.561 37.49C151.219 37.1433 151.739 36.6493 152.121 36.008C152.519 35.3493 152.719 34.604 152.719 33.772V24.36C152.719 23.892 152.849 23.5107 153.109 23.216C153.369 22.9213 153.724 22.774 154.175 22.774ZM169.621 37.958C170.071 37.958 170.444 38.1053 170.739 38.4C171.051 38.6773 171.207 39.0413 171.207 39.492C171.207 39.9253 171.051 40.2893 170.739 40.584C170.444 40.8613 170.071 41 169.621 41H161.171C160.72 41 160.339 40.8527 160.027 40.558C159.732 40.246 159.585 39.8647 159.585 39.414V24.386C159.585 23.9353 159.741 23.5627 160.053 23.268C160.365 22.956 160.763 22.8 161.249 22.8C161.682 22.8 162.055 22.956 162.367 23.268C162.679 23.5627 162.835 23.9353 162.835 24.386V37.958H169.621ZM188.458 38.972C188.545 39.1973 188.588 39.4053 188.588 39.596C188.588 40.0467 188.441 40.4193 188.146 40.714C187.852 40.9913 187.514 41.13 187.132 41.13C186.82 41.13 186.534 41.0347 186.274 40.844C186.032 40.6533 185.841 40.3933 185.702 40.064L184.35 36.918H176.602L175.25 40.09C175.129 40.4193 174.938 40.6793 174.678 40.87C174.436 41.0433 174.167 41.13 173.872 41.13C173.422 41.13 173.075 41.0087 172.832 40.766C172.607 40.5233 172.494 40.194 172.494 39.778C172.494 39.622 172.52 39.4573 172.572 39.284L179.046 23.736C179.185 23.3893 179.393 23.1207 179.67 22.93C179.948 22.7393 180.26 22.6613 180.606 22.696C180.918 22.696 181.204 22.7913 181.464 22.982C181.742 23.1553 181.941 23.4067 182.062 23.736L188.458 38.972ZM183.076 33.928L180.45 27.844L177.876 33.928H183.076ZM194.04 39.414C194.04 39.8647 193.875 40.246 193.546 40.558C193.217 40.8527 192.835 41 192.402 41C191.934 41 191.544 40.8527 191.232 40.558C190.937 40.246 190.79 39.8647 190.79 39.414V24.386C190.79 23.9353 190.946 23.5627 191.258 23.268C191.57 22.956 191.969 22.8 192.454 22.8C192.887 22.8 193.26 22.956 193.572 23.268C193.884 23.5627 194.04 23.9353 194.04 24.386V39.414ZM199.484 35.254C198.895 35.254 198.574 34.9247 198.522 34.266L197.768 24.698C197.733 24.1607 197.872 23.71 198.184 23.346C198.513 22.982 198.938 22.8 199.458 22.8C199.978 22.8 200.403 22.982 200.732 23.346C201.061 23.71 201.2 24.1607 201.148 24.698L200.42 34.266C200.368 34.9247 200.056 35.254 199.484 35.254ZM199.302 41C198.799 41 198.409 40.87 198.132 40.61C197.872 40.3327 197.742 39.9427 197.742 39.44V38.998C197.742 38.4953 197.872 38.114 198.132 37.854C198.409 37.5767 198.799 37.438 199.302 37.438H199.64C200.143 37.438 200.524 37.5767 200.784 37.854C201.061 38.114 201.2 38.4953 201.2 38.998V39.44C201.2 39.9427 201.061 40.3327 200.784 40.61C200.524 40.87 200.143 41 199.64 41H199.302Z" fill="white"/>
</svg>
