<svg width="331" height="63" viewBox="0 0 331 63" fill="none" xmlns="http://www.w3.org/2000/svg">
<rect width="331" height="62.16" rx="16" fill="#0A0A22"/>
<path d="M101.732 23.5606C102.165 23.5606 102.538 23.7166 102.85 24.0286C103.179 24.3233 103.344 24.696 103.344 25.1466V40.2006C103.344 40.6513 103.197 41.0326 102.902 41.3446C102.607 41.6393 102.217 41.7866 101.732 41.7866C101.247 41.7866 100.848 41.6393 100.536 41.3446C100.241 41.05 100.094 40.6686 100.094 40.2006V29.7226L95.804 36.2746C95.6307 36.4826 95.4313 36.656 95.206 36.7946C94.9807 36.916 94.7467 36.968 94.504 36.9506C94.2787 36.968 94.0533 36.916 93.828 36.7946C93.6027 36.656 93.4033 36.4826 93.23 36.2746L88.94 29.4886V40.2006C88.94 40.6686 88.8013 41.05 88.524 41.3446C88.2467 41.6393 87.8827 41.7866 87.432 41.7866C86.9987 41.7866 86.6433 41.6393 86.366 41.3446C86.0887 41.0326 85.95 40.6513 85.95 40.2006V25.1466C85.95 24.7133 86.106 24.3406 86.418 24.0286C86.7473 23.7166 87.1373 23.5606 87.588 23.5606C87.848 23.5606 88.108 23.63 88.368 23.7686C88.628 23.89 88.8273 24.0546 88.966 24.2626L94.634 32.9726L100.458 24.2626C100.597 24.0546 100.779 23.89 101.004 23.7686C101.247 23.63 101.489 23.5606 101.732 23.5606ZM117.315 27.8766C117.765 27.8766 118.138 28.0326 118.433 28.3446C118.727 28.6393 118.875 29.012 118.875 29.4626V36.0666C118.875 37.9386 118.355 39.4033 117.315 40.4606C116.292 41.518 114.827 42.0466 112.921 42.0466C111.014 42.0466 109.549 41.518 108.527 40.4606C107.504 39.4033 106.993 37.9386 106.993 36.0666V29.4626C106.993 29.012 107.14 28.6393 107.435 28.3446C107.729 28.0326 108.102 27.8766 108.553 27.8766C109.003 27.8766 109.376 28.0326 109.671 28.3446C109.965 28.6393 110.113 29.012 110.113 29.4626V36.0666C110.113 37.124 110.347 37.9126 110.815 38.4326C111.283 38.9353 111.985 39.1866 112.921 39.1866C113.874 39.1866 114.585 38.9353 115.053 38.4326C115.521 37.9126 115.755 37.124 115.755 36.0666V29.4626C115.755 29.012 115.902 28.6393 116.197 28.3446C116.491 28.0326 116.864 27.8766 117.315 27.8766ZM125.633 40.2006C125.633 40.6513 125.477 41.0326 125.165 41.3446C124.87 41.6393 124.497 41.7866 124.047 41.7866C123.613 41.7866 123.249 41.6393 122.955 41.3446C122.66 41.0326 122.513 40.6513 122.513 40.2006V24.1326C122.513 23.682 122.66 23.3093 122.955 23.0146C123.267 22.7026 123.648 22.5466 124.099 22.5466C124.532 22.5466 124.896 22.7026 125.191 23.0146C125.485 23.3093 125.633 23.682 125.633 24.1326V40.2006ZM140.518 27.6166C140.969 27.6166 141.342 27.764 141.636 28.0586C141.931 28.3533 142.078 28.7346 142.078 29.2026V40.2006C142.078 40.6513 141.931 41.0326 141.636 41.3446C141.342 41.6393 140.969 41.7866 140.518 41.7866C140.068 41.7866 139.695 41.6393 139.4 41.3446C139.123 41.05 138.976 40.6773 138.958 40.2266C138.525 40.7293 137.936 41.1626 137.19 41.5266C136.462 41.8733 135.691 42.0466 134.876 42.0466C133.68 42.0466 132.597 41.7433 131.626 41.1366C130.656 40.5126 129.884 39.6546 129.312 38.5626C128.758 37.4706 128.48 36.2313 128.48 34.8446C128.48 33.458 128.758 32.2186 129.312 31.1266C129.867 30.0173 130.621 29.1593 131.574 28.5526C132.545 27.9286 133.611 27.6166 134.772 27.6166C135.604 27.6166 136.384 27.7726 137.112 28.0846C137.84 28.3793 138.456 28.7606 138.958 29.2286V29.2026C138.958 28.752 139.106 28.3793 139.4 28.0846C139.695 27.7726 140.068 27.6166 140.518 27.6166ZM135.266 39.1866C136.393 39.1866 137.312 38.7793 138.022 37.9646C138.733 37.1326 139.088 36.0926 139.088 34.8446C139.088 33.5966 138.733 32.5566 138.022 31.7246C137.312 30.8926 136.393 30.4766 135.266 30.4766C134.157 30.4766 133.247 30.8926 132.536 31.7246C131.826 32.5566 131.47 33.5966 131.47 34.8446C131.47 36.0926 131.817 37.1326 132.51 37.9646C133.221 38.7793 134.14 39.1866 135.266 39.1866ZM148.398 40.2006C148.398 40.6513 148.25 41.0326 147.956 41.3446C147.661 41.6393 147.288 41.7866 146.838 41.7866C146.387 41.7866 146.014 41.6393 145.72 41.3446C145.425 41.0326 145.278 40.6513 145.278 40.2006V29.4626C145.278 29.012 145.425 28.6393 145.72 28.3446C146.014 28.0326 146.387 27.8766 146.838 27.8766C147.288 27.8766 147.661 28.0326 147.956 28.3446C148.25 28.6393 148.398 29.012 148.398 29.4626V40.2006ZM146.812 26.1866C146.222 26.1866 145.806 26.0913 145.564 25.9006C145.321 25.71 145.2 25.372 145.2 24.8866V24.3926C145.2 23.9073 145.33 23.5693 145.59 23.3786C145.85 23.188 146.266 23.0926 146.838 23.0926C147.444 23.0926 147.869 23.188 148.112 23.3786C148.354 23.5693 148.476 23.9073 148.476 24.3926V24.8866C148.476 25.3893 148.346 25.736 148.086 25.9266C147.843 26.1 147.418 26.1866 146.812 26.1866ZM170.071 31.6986C170.99 32.0626 171.735 32.6173 172.307 33.3626C172.897 34.108 173.191 35.07 173.191 36.2486C173.191 38.3113 172.602 39.75 171.423 40.5646C170.245 41.3793 168.841 41.7866 167.211 41.7866H160.737C160.287 41.7866 159.905 41.6393 159.593 41.3446C159.299 41.0326 159.151 40.6513 159.151 40.2006V25.1726C159.151 24.722 159.299 24.3493 159.593 24.0546C159.905 23.7426 160.287 23.5866 160.737 23.5866H167.289C170.583 23.5866 172.229 25.1293 172.229 28.2146C172.229 28.9946 172.039 29.688 171.657 30.2946C171.293 30.884 170.765 31.352 170.071 31.6986ZM168.849 28.7866C168.849 28.076 168.667 27.5473 168.303 27.2006C167.957 26.8366 167.463 26.6546 166.821 26.6546H162.531V30.7106H166.899C167.419 30.7106 167.87 30.5373 168.251 30.1906C168.65 29.844 168.849 29.376 168.849 28.7866ZM167.211 38.7966C168.026 38.7966 168.659 38.58 169.109 38.1466C169.577 37.7133 169.811 37.0806 169.811 36.2486C169.811 35.226 169.543 34.5586 169.005 34.2466C168.468 33.9346 167.809 33.7786 167.029 33.7786H162.531V38.7966H167.211ZM188.383 34.5066C188.366 34.9226 188.201 35.2606 187.889 35.5206C187.577 35.7806 187.213 35.9106 186.797 35.9106H178.217C178.425 36.9333 178.902 37.7393 179.647 38.3286C180.392 38.9006 181.233 39.1866 182.169 39.1866C182.88 39.1866 183.434 39.126 183.833 39.0046C184.232 38.866 184.544 38.7273 184.769 38.5886C185.012 38.4326 185.176 38.3286 185.263 38.2766C185.575 38.1206 185.87 38.0426 186.147 38.0426C186.511 38.0426 186.823 38.1726 187.083 38.4326C187.343 38.6926 187.473 38.996 187.473 39.3426C187.473 39.8106 187.23 40.2353 186.745 40.6166C186.26 41.0153 185.61 41.3533 184.795 41.6306C183.98 41.908 183.157 42.0466 182.325 42.0466C180.869 42.0466 179.595 41.7433 178.503 41.1366C177.428 40.53 176.596 39.698 176.007 38.6406C175.418 37.566 175.123 36.3613 175.123 35.0266C175.123 33.536 175.435 32.2273 176.059 31.1006C176.683 29.974 177.506 29.116 178.529 28.5266C179.552 27.92 180.644 27.6166 181.805 27.6166C182.949 27.6166 184.024 27.9286 185.029 28.5526C186.052 29.1766 186.866 30.0173 187.473 31.0746C188.08 32.132 188.383 33.276 188.383 34.5066ZM181.805 30.4766C179.794 30.4766 178.607 31.4213 178.243 33.3106H185.055V33.1286C184.986 32.4006 184.63 31.7766 183.989 31.2566C183.348 30.7366 182.62 30.4766 181.805 30.4766ZM194.365 40.2006C194.365 40.6513 194.209 41.0326 193.897 41.3446C193.602 41.6393 193.23 41.7866 192.779 41.7866C192.346 41.7866 191.982 41.6393 191.687 41.3446C191.392 41.0326 191.245 40.6513 191.245 40.2006V24.1326C191.245 23.682 191.392 23.3093 191.687 23.0146C191.999 22.7026 192.38 22.5466 192.831 22.5466C193.264 22.5466 193.628 22.7026 193.923 23.0146C194.218 23.3093 194.365 23.682 194.365 24.1326V40.2006ZM209.251 27.6166C209.701 27.6166 210.074 27.764 210.369 28.0586C210.663 28.3533 210.811 28.7346 210.811 29.2026V40.2006C210.811 40.6513 210.663 41.0326 210.369 41.3446C210.074 41.6393 209.701 41.7866 209.251 41.7866C208.8 41.7866 208.427 41.6393 208.133 41.3446C207.855 41.05 207.708 40.6773 207.691 40.2266C207.257 40.7293 206.668 41.1626 205.923 41.5266C205.195 41.8733 204.423 42.0466 203.609 42.0466C202.413 42.0466 201.329 41.7433 200.359 41.1366C199.388 40.5126 198.617 39.6546 198.045 38.5626C197.49 37.4706 197.213 36.2313 197.213 34.8446C197.213 33.458 197.49 32.2186 198.045 31.1266C198.599 30.0173 199.353 29.1593 200.307 28.5526C201.277 27.9286 202.343 27.6166 203.505 27.6166C204.337 27.6166 205.117 27.7726 205.845 28.0846C206.573 28.3793 207.188 28.7606 207.691 29.2286V29.2026C207.691 28.752 207.838 28.3793 208.133 28.0846C208.427 27.7726 208.8 27.6166 209.251 27.6166ZM203.999 39.1866C205.125 39.1866 206.044 38.7793 206.755 37.9646C207.465 37.1326 207.821 36.0926 207.821 34.8446C207.821 33.5966 207.465 32.5566 206.755 31.7246C206.044 30.8926 205.125 30.4766 203.999 30.4766C202.889 30.4766 201.979 30.8926 201.269 31.7246C200.558 32.5566 200.203 33.5966 200.203 34.8446C200.203 36.0926 200.549 37.1326 201.243 37.9646C201.953 38.7793 202.872 39.1866 203.999 39.1866ZM213.438 46.8826C213.022 46.8826 212.675 46.744 212.398 46.4666C212.121 46.1893 211.982 45.8426 211.982 45.4266V45.1406C211.982 44.4473 212.424 43.9706 213.308 43.7106C213.863 43.5373 214.209 43.2426 214.348 42.8266C214.504 42.428 214.582 41.8646 214.582 41.1366V29.4626C214.582 29.012 214.729 28.6393 215.024 28.3446C215.319 28.0326 215.691 27.8766 216.142 27.8766C216.593 27.8766 216.965 28.0326 217.26 28.3446C217.555 28.6393 217.702 29.012 217.702 29.4626V42.0466C217.702 43.0173 217.511 43.8666 217.13 44.5946C216.766 45.3226 216.255 45.886 215.596 46.2846C214.955 46.6833 214.235 46.8826 213.438 46.8826ZM216.09 26.1866C215.501 26.1866 215.085 26.0913 214.842 25.9006C214.599 25.71 214.478 25.372 214.478 24.8866V24.3926C214.478 23.9073 214.608 23.5693 214.868 23.3786C215.128 23.188 215.544 23.0926 216.116 23.0926C216.723 23.0926 217.147 23.188 217.39 23.3786C217.633 23.5693 217.754 23.9073 217.754 24.3926V24.8866C217.754 25.3893 217.624 25.736 217.364 25.9266C217.121 26.1 216.697 26.1866 216.09 26.1866ZM232.61 27.6166C233.061 27.6166 233.433 27.764 233.728 28.0586C234.023 28.3533 234.17 28.7346 234.17 29.2026V40.2006C234.17 40.6513 234.023 41.0326 233.728 41.3446C233.433 41.6393 233.061 41.7866 232.61 41.7866C232.159 41.7866 231.787 41.6393 231.492 41.3446C231.215 41.05 231.067 40.6773 231.05 40.2266C230.617 40.7293 230.027 41.1626 229.282 41.5266C228.554 41.8733 227.783 42.0466 226.968 42.0466C225.772 42.0466 224.689 41.7433 223.718 41.1366C222.747 40.5126 221.976 39.6546 221.404 38.5626C220.849 37.4706 220.572 36.2313 220.572 34.8446C220.572 33.458 220.849 32.2186 221.404 31.1266C221.959 30.0173 222.713 29.1593 223.666 28.5526C224.637 27.9286 225.703 27.6166 226.864 27.6166C227.696 27.6166 228.476 27.7726 229.204 28.0846C229.932 28.3793 230.547 28.7606 231.05 29.2286V29.2026C231.05 28.752 231.197 28.3793 231.492 28.0846C231.787 27.7726 232.159 27.6166 232.61 27.6166ZM227.358 39.1866C228.485 39.1866 229.403 38.7793 230.114 37.9646C230.825 37.1326 231.18 36.0926 231.18 34.8446C231.18 33.5966 230.825 32.5566 230.114 31.7246C229.403 30.8926 228.485 30.4766 227.358 30.4766C226.249 30.4766 225.339 30.8926 224.628 31.7246C223.917 32.5566 223.562 33.5966 223.562 34.8446C223.562 36.0926 223.909 37.1326 224.602 37.9646C225.313 38.7793 226.231 39.1866 227.358 39.1866ZM244.779 27.6166C245.299 27.6166 245.733 27.764 246.079 28.0586C246.443 28.3533 246.625 28.7 246.625 29.0986C246.625 29.636 246.487 30.0433 246.209 30.3206C245.932 30.5806 245.603 30.7106 245.221 30.7106C244.961 30.7106 244.667 30.65 244.337 30.5286C244.285 30.5113 244.164 30.4766 243.973 30.4246C243.8 30.3726 243.609 30.3466 243.401 30.3466C242.951 30.3466 242.517 30.4853 242.101 30.7626C241.685 31.04 241.339 31.4646 241.061 32.0366C240.801 32.5913 240.671 33.2586 240.671 34.0386V40.2006C240.671 40.6513 240.524 41.0326 240.229 41.3446C239.935 41.6393 239.562 41.7866 239.111 41.7866C238.661 41.7866 238.288 41.6393 237.993 41.3446C237.699 41.0326 237.551 40.6513 237.551 40.2006V29.4626C237.551 29.012 237.699 28.6393 237.993 28.3446C238.288 28.0326 238.661 27.8766 239.111 27.8766C239.562 27.8766 239.935 28.0326 240.229 28.3446C240.524 28.6393 240.671 29.012 240.671 29.4626V29.8006C241.07 29.09 241.642 28.5526 242.387 28.1886C243.133 27.8073 243.93 27.6166 244.779 27.6166Z" fill="white"/>
</svg>
