<svg width="369" height="318" viewBox="0 0 369 318" fill="none" xmlns="http://www.w3.org/2000/svg">
<path d="M177.96 267.786C240.269 267.786 290.779 217.276 290.779 154.968C290.779 92.6596 240.269 42.149 177.96 42.149C115.652 42.149 65.1416 92.6596 65.1416 154.968C65.1416 217.276 115.652 267.786 177.96 267.786Z" fill="#407BFF"/>
<path opacity="0.9" d="M177.96 267.786C240.269 267.786 290.779 217.276 290.779 154.968C290.779 92.6596 240.269 42.149 177.96 42.149C115.652 42.149 65.1416 92.6596 65.1416 154.968C65.1416 217.276 115.652 267.786 177.96 267.786Z" fill="white"/>
<path d="M178.229 270.052C155.603 270.052 133.484 263.343 114.67 250.772C95.8569 238.201 81.1936 220.334 72.5347 199.429C63.8757 178.525 61.6102 155.522 66.0244 133.33C70.4387 111.138 81.3346 90.7534 97.3341 74.7538C113.334 58.7542 133.718 47.8584 155.91 43.4441C178.102 39.0299 201.105 41.2954 222.01 49.9543C242.914 58.6132 260.781 73.2766 273.352 92.0901C285.923 110.904 292.633 133.022 292.633 155.649C292.599 185.98 280.535 215.06 259.088 236.507C237.64 257.955 208.561 270.019 178.229 270.052ZM178.229 44.415C156.229 44.415 134.723 50.9387 116.431 63.1613C98.1387 75.3839 83.8815 92.7563 75.4625 113.082C67.0434 133.407 64.8406 155.772 69.1326 177.35C73.4246 198.927 84.0186 218.747 99.575 234.303C115.131 249.86 134.951 260.454 156.529 264.746C178.106 269.038 200.471 266.835 220.797 258.416C241.122 249.997 258.495 235.74 270.717 217.447C282.94 199.155 289.464 177.649 289.464 155.649C289.413 126.169 277.676 97.9122 256.824 77.0727C235.973 56.2332 207.709 44.5119 178.229 44.4783V44.415Z" fill="#838383"/>
<path d="M225.195 213.786C225.195 213.786 215.498 206.338 193.758 200.571C180.892 197.148 167.328 196.673 154.018 197.275C140.708 197.877 127.35 200.856 115.815 207.479C110.776 210.363 91.2544 220.425 91.2544 226.208L91.5555 227.492C110.685 250.286 138.045 264.599 167.679 267.314C197.312 270.03 226.818 260.928 249.771 241.99C242.609 224.608 233.292 221.502 225.195 213.786Z" fill="#407BFF"/>
<path d="M182.175 175.107C177.596 187.07 176.297 200.016 198.464 205.435C198.464 205.435 209.207 221.93 174.253 224.45C136.953 227.032 136.05 201.997 136.05 201.997C150.706 192.284 148.298 163.255 145.287 147.425L182.175 175.107Z" fill="#FF8B7B"/>
<path opacity="0.2" d="M154.24 175.424C154.795 182.364 166.029 193.599 179.386 187.371C179.876 184.384 180.683 181.457 181.795 178.641L159.944 162.257C159.168 163.857 154.066 171.637 154.24 175.424Z" fill="black"/>
<path d="M131.169 113.041C133.784 140.168 133.895 156.204 148.14 169.72C169.452 190.097 202.695 176.422 208.352 149.121C213.343 124.434 208.352 84.1551 181.256 74.2201C175.307 72.0045 168.889 71.3463 162.614 72.308C156.338 73.2698 150.412 75.8197 145.399 79.7153C140.386 83.611 136.451 88.7234 133.969 94.567C131.487 100.411 130.54 106.792 131.217 113.104L131.169 113.041Z" fill="#FF8B7B"/>
<path d="M123.437 131.453C124.244 134.77 125.702 137.894 127.726 140.644C129.75 143.394 132.299 145.715 135.225 147.473C143.037 152.116 149.312 145.698 149.122 137.094C148.963 129.314 144.638 117.636 135.796 116.495C126.954 115.354 121.472 123.309 123.437 131.453Z" fill="#FF8B7B"/>
<path d="M172.747 119.237C172.747 121.455 174.062 123.214 175.473 123.135C176.883 123.055 178.039 121.281 177.976 119.046C177.913 116.812 176.661 115.069 175.362 115.006C174.062 114.943 172.541 117.098 172.747 119.237Z" fill="#263238"/>
<path d="M197.751 118.413C197.751 120.647 199.035 122.406 200.35 122.421C201.665 122.437 202.917 120.552 202.838 118.318C202.758 116.083 201.523 114.34 200.065 114.404C198.607 114.467 197.72 116.163 197.751 118.413Z" fill="#263238"/>
<path d="M189.844 119.76C192.732 126.434 196.511 132.687 201.079 138.346C199.596 139.506 197.876 140.323 196.04 140.74C194.205 141.156 192.3 141.161 190.462 140.755L189.844 119.76Z" fill="#FF5652"/>
<path d="M205.975 106.655C206.232 106.429 206.389 106.111 206.413 105.77C206.436 105.429 206.325 105.093 206.102 104.833C205.903 104.594 205.619 104.44 205.309 104.405C203.27 104.054 201.175 104.199 199.204 104.828C197.232 105.457 195.44 106.551 193.98 108.018C193.75 108.274 193.63 108.61 193.645 108.953C193.66 109.297 193.808 109.621 194.059 109.856C194.323 110.078 194.664 110.188 195.007 110.161C195.351 110.134 195.671 109.974 195.897 109.714C197.059 108.544 198.483 107.671 200.052 107.166C201.621 106.661 203.288 106.541 204.913 106.814C205.091 106.868 205.278 106.882 205.462 106.854C205.646 106.827 205.821 106.759 205.975 106.655Z" fill="#263238"/>
<path d="M180.923 109.65C181.091 109.611 181.25 109.539 181.39 109.438C181.529 109.336 181.647 109.208 181.735 109.06C181.824 108.912 181.882 108.748 181.906 108.577C181.93 108.406 181.919 108.232 181.874 108.066C181.8 107.769 181.626 107.506 181.383 107.321C179.733 106.07 177.806 105.234 175.766 104.884C173.725 104.534 171.63 104.679 169.657 105.309C169.35 105.423 169.098 105.651 168.954 105.946C168.809 106.241 168.783 106.58 168.881 106.893C169.012 107.217 169.264 107.476 169.584 107.616C169.904 107.755 170.266 107.763 170.592 107.638C172.161 107.132 173.828 107.013 175.453 107.288C177.077 107.564 178.611 108.228 179.925 109.222C180.047 109.366 180.201 109.479 180.374 109.553C180.547 109.628 180.735 109.661 180.923 109.65Z" fill="#263238"/>
<path d="M197.497 149.454C197.497 149.454 189.115 146.697 166.108 145.635C169.53 154.35 175.14 161.48 186.929 162.051C198.718 162.621 197.497 149.454 197.497 149.454Z" fill="#263238"/>
<path d="M180.876 155.015C185.679 154.984 190.343 156.631 194.059 159.674C193.088 160.5 191.96 161.122 190.743 161.503C189.527 161.884 188.246 162.016 186.977 161.892C182.186 161.937 177.533 160.287 173.841 157.234C174.807 156.414 175.926 155.795 177.135 155.414C178.343 155.033 179.615 154.898 180.876 155.015Z" fill="#FF5652"/>
<path d="M196.436 149.153C196.382 150.086 196.041 150.98 195.459 151.711C194.878 152.443 194.084 152.977 193.187 153.241C186.261 152.853 179.389 151.791 172.668 150.072C171.457 149.81 170.325 149.268 169.362 148.489C168.398 147.71 167.631 146.716 167.122 145.587C176.983 145.861 186.797 147.055 196.436 149.153Z" fill="white"/>
<path d="M219.285 240.96L208.399 225.115C208.136 224.737 207.737 224.475 207.286 224.383C206.834 224.292 206.365 224.378 205.975 224.624L187.388 236.429L185.519 228.015C185.454 227.744 185.301 227.502 185.082 227.33C184.863 227.157 184.593 227.064 184.314 227.064H181.019C180.705 227.068 180.405 227.195 180.183 227.417C179.961 227.639 179.834 227.938 179.83 228.252L179.402 257.503L169.388 267.359C172.224 267.565 175.077 267.707 177.961 267.707C180.844 267.707 184.077 267.565 187.087 267.311C190.098 267.058 193.536 266.661 196.69 266.138C200.551 263.831 204.108 261.047 207.274 257.851V257.74L219.127 243.02C219.367 242.737 219.512 242.386 219.54 242.016C219.569 241.646 219.479 241.276 219.285 240.96Z" fill="#FF8B7B"/>
<path d="M266.457 193.678H210.285C209.865 193.678 209.462 193.511 209.165 193.214C208.867 192.917 208.7 192.514 208.7 192.093C208.7 191.673 208.867 191.27 209.165 190.973C209.462 190.676 209.865 190.509 210.285 190.509H266.457C266.877 190.509 267.28 190.676 267.577 190.973C267.874 191.27 268.041 191.673 268.041 192.093C268.041 192.514 267.874 192.917 267.577 193.214C267.28 193.511 266.877 193.678 266.457 193.678Z" fill="#263238"/>
<path d="M238.379 234.622C219.364 234.622 209.192 219.918 208.7 192.077C208.7 191.657 208.867 191.254 209.165 190.957C209.462 190.66 209.865 190.493 210.285 190.493C210.705 190.493 211.108 190.66 211.405 190.957C211.703 191.254 211.87 191.657 211.87 192.077C212.329 218.238 221.25 231.501 238.379 231.501C255.809 231.501 264.46 218.603 264.872 192.077C264.872 191.657 265.039 191.254 265.336 190.957C265.633 190.66 266.036 190.493 266.457 190.493C266.877 190.493 267.28 190.66 267.577 190.957C267.874 191.254 268.041 191.657 268.041 192.077C267.613 220.361 257.631 234.622 238.379 234.622Z" fill="#263238"/>
<path d="M253.796 180.748H222.945L223.896 147.378L224.53 147.077C228.816 144.89 233.559 143.75 238.371 143.75C243.182 143.75 247.926 144.89 252.212 147.077L252.861 147.378L253.796 180.748Z" fill="#263238"/>
<g opacity="0.1">
<path opacity="0.1" d="M253.796 180.748H222.945L223.896 147.378L224.53 147.077C228.816 144.89 233.559 143.75 238.371 143.75C243.182 143.75 247.926 144.89 252.212 147.077L252.861 147.378L253.796 180.748Z" fill="#FAFAFA"/>
</g>
<path d="M222.945 180.748H253.796L252.861 214.023L252.212 214.356C247.923 216.535 243.181 217.671 238.371 217.671C233.56 217.671 228.818 216.535 224.53 214.356L223.959 214.023L222.945 180.748Z" fill="#263238"/>
<path d="M254.731 178.07H222.121V183.68H254.731V178.07Z" fill="#263238"/>
<path opacity="0.12" d="M254.731 178.07H222.121V183.68H254.731V178.07Z" fill="white"/>
<path d="M242.214 196.371C241.612 197.117 240.803 197.668 239.889 197.955C238.974 198.241 237.996 198.25 237.076 197.981C236.156 197.711 235.337 197.176 234.722 196.441C234.107 195.706 233.723 194.806 233.619 193.853C233.515 192.901 233.696 191.939 234.138 191.089C234.581 190.239 235.265 189.539 236.105 189.078C236.945 188.617 237.903 188.415 238.857 188.497C239.812 188.58 240.721 188.943 241.469 189.542C242.472 190.35 243.113 191.523 243.253 192.803C243.392 194.083 243.019 195.366 242.214 196.371Z" fill="#263238"/>
<path opacity="0.2" d="M238.426 198.178C241.104 198.178 243.275 196.007 243.275 193.329C243.275 190.651 241.104 188.481 238.426 188.481C235.748 188.481 233.577 190.651 233.577 193.329C233.577 196.007 235.748 198.178 238.426 198.178Z" fill="white"/>
<path d="M240.502 191.048C240.502 191.321 240.393 191.583 240.2 191.776C240.007 191.969 239.745 192.077 239.472 192.077C239.197 192.077 238.933 191.969 238.738 191.777C238.542 191.584 238.43 191.322 238.426 191.048C238.43 190.771 238.541 190.508 238.737 190.313C238.932 190.117 239.195 190.006 239.472 190.002C239.746 190.006 240.008 190.118 240.201 190.314C240.394 190.509 240.502 190.773 240.502 191.048Z" fill="#407BFF"/>
<path d="M238.379 276.089C237.958 276.089 237.555 275.923 237.258 275.625C236.961 275.328 236.794 274.925 236.794 274.505V233.038C236.794 232.617 236.961 232.214 237.258 231.917C237.555 231.62 237.958 231.453 238.379 231.453C238.799 231.453 239.202 231.62 239.499 231.917C239.796 232.214 239.963 232.617 239.963 233.038V274.473C239.967 274.684 239.93 274.893 239.852 275.089C239.774 275.285 239.658 275.464 239.51 275.614C239.363 275.765 239.187 275.884 238.993 275.966C238.798 276.047 238.589 276.089 238.379 276.089Z" fill="#263238"/>
<path d="M134.979 234.367C134.527 233.786 124.035 219.95 129.203 205.511C133.126 194.461 144.883 186.543 164.173 181.953C179.639 178.277 191.171 179.384 198.432 185.249C207.17 192.318 206.915 203.674 206.81 207.953L206.804 208.46L200.24 208.339L200.251 207.803C200.339 204.09 200.531 195.428 194.307 190.374C188.713 185.851 179.076 185.158 165.685 188.352C148.735 192.383 138.502 198.841 135.406 207.716C131.457 218.816 140.107 230.267 140.193 230.38L134.979 234.367Z" fill="#263238"/>
<path opacity="0.2" d="M203.346 223.531C205.946 232.638 211.326 239.095 215.356 237.945C219.386 236.795 220.561 228.467 217.962 219.36C215.363 210.253 209.978 203.784 205.936 204.937C201.894 206.091 200.744 214.411 203.346 223.531Z" fill="white"/>
<path d="M210.97 244.647C216.237 243.143 217.756 232.283 214.361 220.388C210.966 208.493 203.945 200.069 198.678 201.572C193.41 203.075 191.892 213.936 195.287 225.831C198.682 237.726 205.703 246.15 210.97 244.647Z" fill="#263238"/>
<path d="M152.232 261.41C157.499 259.906 159.017 249.046 155.623 237.151C152.228 225.256 145.206 216.832 139.939 218.335C134.672 219.838 133.154 230.699 136.549 242.594C139.943 254.489 146.965 262.913 152.232 261.41Z" fill="#263238"/>
<path opacity="0.2" d="M147.563 239.45C150.162 248.558 148.999 256.882 144.957 258.035C140.915 259.189 135.547 252.729 132.948 243.621C130.349 234.514 131.508 226.178 135.537 225.028C139.567 223.878 144.96 230.33 147.563 239.45Z" fill="white"/>
<path d="M183.125 175.682C178.546 187.645 177.247 200.591 199.414 206.01C199.414 206.01 210.157 222.505 175.203 225.025C137.903 227.607 137 202.572 137 202.572C151.656 192.859 149.248 163.83 146.237 148L183.125 175.682Z" fill="#FF8B7B"/>
<path d="M207.56 243.778C212.975 242.952 215.852 232.369 213.987 220.141C212.121 207.913 206.219 198.67 200.804 199.496C195.389 200.322 192.512 210.904 194.378 223.133C196.244 235.361 202.146 244.604 207.56 243.778Z" fill="#263238"/>
<path d="M219.897 240.612L209.011 224.767C208.748 224.389 208.349 224.127 207.898 224.035C207.446 223.944 206.977 224.03 206.587 224.276L188 236.081L186.131 227.667C186.066 227.396 185.913 227.154 185.694 226.982C185.475 226.809 185.205 226.716 184.926 226.716H181.631C181.317 226.72 181.017 226.847 180.795 227.069C180.573 227.291 180.446 227.59 180.442 227.904L180.014 257.155L170 267.011C172.836 267.217 175.689 267.359 178.573 267.359C181.456 267.359 184.689 267.217 187.699 266.963C190.71 266.71 194.148 266.313 197.302 265.79C201.163 263.483 204.72 260.699 207.886 257.503V257.392L219.739 242.672C219.979 242.389 220.124 242.038 220.152 241.668C220.181 241.298 220.091 240.928 219.897 240.612Z" fill="#FF8B7B"/>
</svg>
