<svg width="114" height="92" viewBox="0 0 114 92" fill="none" xmlns="http://www.w3.org/2000/svg">
<path d="M18.0497 36.36C16.2977 36.36 14.7497 36.12 13.4057 35.64C12.0617 35.136 10.7777 34.332 9.55369 33.228C9.04969 32.796 8.79769 32.304 8.79769 31.752C8.79769 31.32 8.96569 30.936 9.30169 30.6C9.63769 30.24 10.0337 30.06 10.4897 30.06C10.8977 30.06 11.2457 30.192 11.5337 30.456C12.4937 31.344 13.4777 32.004 14.4857 32.436C15.5177 32.844 16.6817 33.048 17.9777 33.048C19.4897 33.048 20.7617 32.7 21.7937 32.004C22.8497 31.308 23.3777 30.432 23.3777 29.376C23.3537 28.128 22.8257 27.168 21.7937 26.496C20.7857 25.8 19.2377 25.224 17.1497 24.768C14.6777 24.264 12.7697 23.436 11.4257 22.284C10.1057 21.132 9.44569 19.536 9.44569 17.496C9.44569 16.08 9.81769 14.844 10.5617 13.788C11.3057 12.708 12.3377 11.88 13.6577 11.304C14.9777 10.728 16.4657 10.44 18.1217 10.44C19.6097 10.44 21.0137 10.68 22.3337 11.16C23.6537 11.64 24.7217 12.276 25.5377 13.068C26.0897 13.548 26.3657 14.064 26.3657 14.616C26.3657 15.048 26.1977 15.432 25.8617 15.768C25.5497 16.104 25.1657 16.272 24.7097 16.272C24.3737 16.272 24.0977 16.176 23.8817 15.984C23.2577 15.36 22.3937 14.832 21.2897 14.4C20.1857 13.968 19.1297 13.752 18.1217 13.752C16.5137 13.752 15.2297 14.088 14.2697 14.76C13.3337 15.408 12.8657 16.272 12.8657 17.352C12.8657 18.528 13.3337 19.428 14.2697 20.052C15.2297 20.676 16.6457 21.204 18.5177 21.636C20.3897 22.044 21.9137 22.524 23.0897 23.076C24.2897 23.628 25.2137 24.396 25.8617 25.38C26.5097 26.364 26.8337 27.648 26.8337 29.232C26.8337 30.624 26.4377 31.86 25.6457 32.94C24.8777 34.02 23.8217 34.86 22.4777 35.46C21.1337 36.06 19.6577 36.36 18.0497 36.36ZM52.9708 16.956C53.4268 16.956 53.8108 17.124 54.1228 17.46C54.4588 17.772 54.6268 18.18 54.6268 18.684C54.6268 18.852 54.5788 19.08 54.4828 19.368L48.9748 34.92C48.8308 35.304 48.5908 35.592 48.2548 35.784C47.9188 35.976 47.5588 36.048 47.1748 36C46.5268 35.952 46.0348 35.592 45.6988 34.92L41.9548 25.128L38.4988 34.92C38.3548 35.256 38.1508 35.52 37.8868 35.712C37.6228 35.88 37.3348 35.976 37.0228 36C36.6628 36.048 36.3028 35.976 35.9428 35.784C35.6068 35.568 35.3788 35.28 35.2588 34.92L29.6788 19.368C29.6068 19.152 29.5708 18.924 29.5708 18.684C29.5708 18.204 29.7268 17.796 30.0388 17.46C30.3508 17.124 30.7588 16.956 31.2628 16.956C32.0788 16.956 32.6068 17.316 32.8468 18.036L37.1308 30.168L40.5508 21.204C40.8388 20.484 41.3668 20.124 42.1348 20.124C42.8548 20.124 43.3468 20.484 43.6108 21.204L47.1028 30.024L51.3148 18.036C51.5788 17.316 52.1308 16.956 52.9708 16.956ZM61.5655 34.272C61.5655 34.752 61.3975 35.16 61.0615 35.496C60.7495 35.832 60.3415 36 59.8375 36C59.3575 36 58.9495 35.832 58.6135 35.496C58.3015 35.16 58.1455 34.752 58.1455 34.272V18.684C58.1455 18.204 58.3015 17.796 58.6135 17.46C58.9495 17.124 59.3575 16.956 59.8375 16.956C60.3415 16.956 60.7495 17.124 61.0615 17.46C61.3975 17.796 61.5655 18.204 61.5655 18.684V34.272ZM59.8375 14.58C59.1415 14.58 58.6375 14.46 58.3255 14.22C58.0375 13.956 57.8935 13.548 57.8935 12.996V12.42C57.8935 11.844 58.0495 11.436 58.3615 11.196C58.6975 10.956 59.2015 10.836 59.8735 10.836C60.5455 10.836 61.0255 10.968 61.3135 11.232C61.6255 11.472 61.7815 11.868 61.7815 12.42V12.996C61.7815 13.572 61.6255 13.98 61.3135 14.22C61.0015 14.46 60.5095 14.58 59.8375 14.58ZM75.9498 16.812C77.5818 16.812 79.0578 17.232 80.3778 18.072C81.6978 18.888 82.7298 20.04 83.4738 21.528C84.2418 23.016 84.6258 24.696 84.6258 26.568C84.6258 28.44 84.2418 30.12 83.4738 31.608C82.7298 33.072 81.6978 34.224 80.3778 35.064C79.0578 35.904 77.6058 36.324 76.0218 36.324C74.7738 36.324 73.6098 36.048 72.5298 35.496C71.4498 34.944 70.5738 34.272 69.9018 33.48V41.472C69.9018 41.952 69.7338 42.36 69.3978 42.696C69.0858 43.032 68.6778 43.2 68.1738 43.2C67.6938 43.2 67.2858 43.032 66.9498 42.696C66.6378 42.384 66.4818 41.976 66.4818 41.472V18.828C66.4818 18.324 66.6378 17.904 66.9498 17.568C67.2618 17.232 67.6698 17.064 68.1738 17.064C68.6778 17.064 69.0858 17.232 69.3978 17.568C69.7338 17.904 69.9018 18.324 69.9018 18.828V19.872C70.4778 19.032 71.3178 18.312 72.4218 17.712C73.5258 17.112 74.7018 16.812 75.9498 16.812ZM75.5538 33.156C76.6578 33.156 77.6538 32.868 78.5418 32.292C79.4298 31.716 80.1138 30.936 80.5938 29.952C81.0978 28.944 81.3498 27.816 81.3498 26.568C81.3498 25.32 81.0978 24.204 80.5938 23.22C80.1138 22.212 79.4298 21.42 78.5418 20.844C77.6538 20.268 76.6578 19.98 75.5538 19.98C74.4258 19.98 73.4178 20.268 72.5298 20.844C71.6418 21.396 70.9458 22.176 70.4418 23.184C69.9618 24.192 69.7218 25.32 69.7218 26.568C69.7218 27.816 69.9618 28.944 70.4418 29.952C70.9458 30.96 71.6418 31.752 72.5298 32.328C73.4178 32.88 74.4258 33.156 75.5538 33.156ZM105.155 25.848C105.131 26.28 104.951 26.652 104.615 26.964C104.279 27.252 103.883 27.396 103.427 27.396H90.7551C90.9231 29.148 91.5831 30.552 92.7351 31.608C93.9111 32.664 95.3391 33.192 97.0191 33.192C98.1711 33.192 99.1071 33.024 99.8271 32.688C100.547 32.352 101.183 31.92 101.735 31.392C102.095 31.176 102.443 31.068 102.779 31.068C103.187 31.068 103.523 31.212 103.787 31.5C104.075 31.788 104.219 32.124 104.219 32.508C104.219 33.012 103.979 33.468 103.499 33.876C102.803 34.572 101.879 35.16 100.727 35.64C99.5751 36.12 98.3991 36.36 97.1991 36.36C95.2551 36.36 93.5391 35.952 92.0511 35.136C90.5871 34.32 89.4471 33.18 88.6311 31.716C87.8391 30.252 87.4431 28.596 87.4431 26.748C87.4431 24.732 87.8511 22.968 88.6671 21.456C89.5071 19.92 90.5991 18.744 91.9431 17.928C93.3111 17.112 94.7751 16.704 96.3351 16.704C97.8711 16.704 99.3111 17.1 100.655 17.892C101.999 18.684 103.079 19.776 103.895 21.168C104.711 22.56 105.131 24.12 105.155 25.848ZM96.3351 19.872C94.9911 19.872 93.8271 20.256 92.8431 21.024C91.8591 21.768 91.2111 22.932 90.8991 24.516H101.519V24.228C101.399 22.956 100.823 21.912 99.7911 21.096C98.7831 20.28 97.6311 19.872 96.3351 19.872Z" fill="white"/>
<path d="M55.2322 90.7678C56.2085 91.7441 57.7915 91.7441 58.7678 90.7678L74.6777 74.8579C75.654 73.8816 75.654 72.2986 74.6777 71.3223C73.7014 70.346 72.1184 70.346 71.1421 71.3223L57 85.4645L42.8579 71.3223C41.8816 70.346 40.2986 70.346 39.3223 71.3223C38.346 72.2986 38.346 73.8816 39.3223 74.8579L55.2322 90.7678ZM54.5 50V89H59.5V50H54.5Z" fill="white"/>
</svg>
