<svg width="359" height="206" viewBox="0 0 359 206" fill="none" xmlns="http://www.w3.org/2000/svg">
<g clip-path="url(#clip0)">
<rect width="359" height="206" fill="white"/>
<rect width="359" height="206" rx="19" fill="#02B099"/>
<path d="M282.616 62.3386C283.323 58.5472 282.895 54.6316 281.388 51.0819C279.88 47.5321 277.358 44.5061 274.139 42.3824C270.92 40.2588 267.145 39.1321 263.289 39.1432C259.432 39.1543 255.664 40.3028 252.457 42.4449C250.137 36.7658 245.914 32.07 240.513 29.1615C235.111 26.2529 228.866 25.3126 222.848 26.5014C216.829 27.6903 211.411 30.9344 207.521 35.6783C203.631 40.4222 201.511 46.3709 201.524 52.5057C201.524 52.828 201.524 53.1503 201.524 53.4804C197.72 54.5576 194.402 56.9119 192.129 60.1475C189.855 63.3831 188.766 67.3026 189.042 71.2472C189.319 75.1918 190.945 78.9209 193.648 81.8074C196.35 84.694 199.964 86.5621 203.882 87.0976V87.2784H281.775C285.082 87.3899 288.298 86.1831 290.716 83.9234C293.133 81.6637 294.554 78.5362 294.665 75.229C294.777 71.9218 293.57 68.7057 291.31 66.2883C289.051 63.8709 285.923 62.4501 282.616 62.3386V62.3386Z" stroke="#263238" stroke-miterlimit="10"/>
<path d="M341.873 140.797V139.618" stroke="#263238" stroke-linecap="round" stroke-linejoin="round"/>
<path d="M341.873 137.292V54.5022" stroke="#263238" stroke-linecap="round" stroke-linejoin="round" stroke-dasharray="2.97 2.97"/>
<path d="M341.872 53.3389V52.1599H340.693" stroke="#263238" stroke-linecap="round" stroke-linejoin="round"/>
<path d="M338.32 52.1599H291.954" stroke="#263238" stroke-linecap="round" stroke-linejoin="round" stroke-dasharray="3.02 3.02"/>
<path d="M290.767 52.1599H289.588" stroke="#263238" stroke-linecap="round" stroke-linejoin="round"/>
<path d="M345.795 139.657L341.873 146.441L337.958 139.657H345.795Z" fill="#263238"/>
<path d="M356.005 109.821H326.797V69.2554H347.5L356.005 77.6891V109.821Z" fill="white" stroke="#263238" stroke-linecap="round" stroke-linejoin="round"/>
<path d="M347.5 69.2554V77.5398H356.005L347.5 69.2554Z" fill="white" stroke="#263238" stroke-linecap="round" stroke-linejoin="round"/>
<path d="M331.309 82.9082H351.485" stroke="#263238" stroke-linecap="round" stroke-linejoin="round"/>
<path d="M331.309 88.4102H351.485" stroke="#263238" stroke-linecap="round" stroke-linejoin="round"/>
<path d="M331.309 93.9124H351.485" stroke="#263238" stroke-linecap="round" stroke-linejoin="round"/>
<path d="M331.309 99.4143H351.485" stroke="#263238" stroke-linecap="round" stroke-linejoin="round"/>
<path d="M299.601 70.5601H270.394V29.9946H291.097L299.601 38.4284V70.5601Z" fill="white" stroke="#263238" stroke-linecap="round" stroke-linejoin="round"/>
<path d="M291.097 29.9946V38.2791H299.601L291.097 29.9946Z" fill="white" stroke="#263238" stroke-linecap="round" stroke-linejoin="round"/>
<path d="M274.905 43.6475H295.082" stroke="#263238" stroke-linecap="round" stroke-linejoin="round"/>
<path d="M274.905 49.1494H295.082" stroke="#263238" stroke-linecap="round" stroke-linejoin="round"/>
<path d="M274.905 54.6516H295.082" stroke="#263238" stroke-linecap="round" stroke-linejoin="round"/>
<path d="M274.905 60.1536H295.082" stroke="#263238" stroke-linecap="round" stroke-linejoin="round"/>
<path d="M226.833 328.007V104.107" stroke="#263238" stroke-linecap="round" stroke-linejoin="round" stroke-dasharray="3 3"/>
<path d="M230.748 105.254L226.834 98.4631L222.911 105.254H230.748Z" fill="#263238"/>
<path d="M241.862 183.053H212.662V142.487H233.357L241.862 150.921V183.053Z" fill="white" stroke="#263238" stroke-linecap="round" stroke-linejoin="round"/>
<path d="M233.357 142.487V150.771H241.862L233.357 142.487Z" fill="white" stroke="#263238" stroke-linecap="round" stroke-linejoin="round"/>
<path d="M217.174 156.14H237.35" stroke="#263238" stroke-linecap="round" stroke-linejoin="round"/>
<path d="M217.174 161.642H237.35" stroke="#263238" stroke-linecap="round" stroke-linejoin="round"/>
<path d="M217.174 167.144H237.35" stroke="#263238" stroke-linecap="round" stroke-linejoin="round"/>
<path d="M217.174 172.646H237.35" stroke="#263238" stroke-linecap="round" stroke-linejoin="round"/>
<path d="M260.807 131.098C260.807 131.098 239.774 139.084 236.551 142.031C233.329 144.979 214.724 204.872 214.724 204.872H344.414C344.414 204.872 334.801 164.644 332.443 151.062C330.085 137.48 319.663 134.556 314.365 133.487C309.068 132.418 260.807 131.098 260.807 131.098Z" fill="#263238" stroke="#263238" stroke-linecap="round" stroke-linejoin="round"/>
<path d="M296.225 142.455L293.442 204.848H315.93L306.891 136.993L296.225 142.455Z" fill="#92E3A9" stroke="#263238" stroke-linecap="round" stroke-linejoin="round"/>
<path d="M262.599 125.863C262.599 125.863 259.125 130.964 259.817 132.591C260.509 134.218 268.4 146.503 276.284 147.895C284.167 149.286 294.134 144.876 299.471 141.607C304.808 138.337 311.756 135.814 312.911 135.114C314.067 134.415 309.901 128.826 308.046 127.93C306.191 127.034 303.872 125.572 303.872 125.572C303.872 125.572 301.326 122.326 300.862 121.642C300.398 120.958 300.162 119.787 299.471 118.86C299.214 118.468 298.873 118.139 298.471 117.898C298.07 117.657 297.618 117.51 297.152 117.468C295.989 117.241 294.369 123.033 287.413 124.197C280.457 125.36 263.527 126.052 263.527 126.052L262.599 125.863Z" fill="#92E3A9" stroke="#263238" stroke-linecap="round" stroke-linejoin="round"/>
<path d="M284.167 147.895C284.167 147.895 297.616 141.167 299.235 135.837C300.854 130.508 300.862 121.689 300.862 121.689" stroke="#263238" stroke-linecap="round" stroke-linejoin="round"/>
<path d="M294.369 142.094C294.369 142.094 300.162 139.547 302.017 136.065C303.872 132.583 303.872 125.635 303.872 125.635" stroke="#263238" stroke-linecap="round" stroke-linejoin="round"/>
<path d="M255.14 97.0404C254.889 97.9836 260.32 124.912 264.211 131.719C268.101 138.525 276.197 142.408 281.063 140.145C286.69 137.512 292.892 132.348 295.58 126.618C296.075 125.556 298.818 114.089 298.237 113.892C298.237 113.892 302.127 115.189 303.739 108.06C305.35 100.931 306.655 96.7181 304.713 92.8274C302.772 88.9367 291.76 79.8663 281.707 81.509C271.654 83.1518 256.759 90.886 255.14 97.0404Z" fill="white" stroke="#263238" stroke-linecap="round" stroke-linejoin="round"/>
<path d="M282.037 88.583C282.037 88.583 267.779 99.587 258.056 100.577C248.334 101.568 248.341 97.0404 248.341 97.0404C248.341 97.0404 235.702 100.609 236.999 90.886C238.296 81.1632 257.773 73.3818 257.773 73.3818C257.773 73.3818 250.967 71.4404 254.205 67.8798C257.443 64.3192 269.76 60.4206 277.864 61.3953C285.967 62.3699 289.528 64.3113 289.528 64.3113C289.528 64.3113 287.256 58.4792 292.122 60.3813C296.987 62.2835 301.153 71.7626 301.153 71.7626C301.153 71.7626 309.579 72.415 310.231 74.6787C310.883 76.9424 305.366 77.579 305.366 77.579C305.366 77.579 310.553 87.3018 307.96 92.8117C305.366 98.3216 299.856 99.9407 299.534 100.915C299.211 101.89 300.508 105.451 297.914 104.154C295.321 102.857 294.346 97.3469 294.346 97.3469C294.346 97.3469 290.463 93.4641 290.133 91.8449C289.803 90.2258 289.488 88.2844 289.488 88.2844C289.488 88.2844 287.217 95.0911 282.037 96.0579C276.857 97.0247 282.037 88.583 282.037 88.583Z" fill="#263238" stroke="#263238" stroke-linecap="round" stroke-linejoin="round"/>
<path d="M270.349 111.951C270.349 111.951 263.873 126.209 267.433 126.531C270.994 126.853 274.24 122.963 274.24 122.963" fill="white"/>
<path d="M270.349 111.951C270.349 111.951 263.873 126.209 267.433 126.531C270.994 126.853 274.24 122.963 274.24 122.963" stroke="#263238" stroke-linecap="round" stroke-linejoin="round"/>
<path d="M270.695 128.803C270.695 128.803 274.908 133.338 282.682 127.176" stroke="#263238" stroke-linecap="round" stroke-linejoin="round"/>
<path d="M279.184 114.796C279.184 114.796 279.97 117.728 285.841 117.193" stroke="#263238" stroke-linecap="round" stroke-linejoin="round"/>
<path d="M266.93 114.262C266.93 114.262 265.067 116.659 262.937 116.659" stroke="#263238" stroke-linecap="round" stroke-linejoin="round"/>
<path d="M291.87 107.447C291.87 107.447 276.85 107.125 275.23 107.777C273.611 108.43 273.289 112.312 274.256 114.906C275.223 117.5 277.502 121.061 283.334 121.061C289.166 121.061 292.082 118.144 294.024 112.635C295.965 107.125 291.87 107.447 291.87 107.447Z" stroke="#263238" stroke-linecap="round" stroke-linejoin="round"/>
<path d="M254.802 107.447C254.802 107.447 266.364 107.125 267.614 107.777C268.864 108.43 269.107 112.312 268.4 114.906C267.693 117.5 265.901 121.061 261.412 121.061C256.924 121.061 254.676 118.144 253.183 112.635C251.69 107.125 254.802 107.447 254.802 107.447Z" stroke="#263238" stroke-linecap="round" stroke-linejoin="round"/>
<path d="M294.731 109.278L299.667 102.755" stroke="#263238" stroke-linecap="round" stroke-linejoin="round"/>
<path d="M275.23 107.738H267.535" stroke="#263238" stroke-linecap="round" stroke-linejoin="round"/>
<path d="M273.258 110.866H268.487" stroke="#263238" stroke-linecap="round" stroke-linejoin="round"/>
<path d="M253.057 108.956L256.72 106.574" stroke="#263238" stroke-linecap="round" stroke-linejoin="round"/>
<path d="M282.776 113.232C282.776 114.442 282.202 115.433 281.495 115.433C280.787 115.433 280.221 114.442 280.221 113.232C280.221 112.022 280.795 111.031 281.495 111.031C282.194 111.031 282.776 112.014 282.776 113.232Z" fill="#263238"/>
<path d="M265.845 112.305C265.845 113.523 265.28 114.505 264.572 114.505C263.865 114.505 263.299 113.523 263.299 112.305C263.299 111.086 263.873 110.104 264.572 110.104C265.272 110.104 265.845 111.086 265.845 112.305Z" fill="#263238"/>
<path d="M259.817 104.767C259.817 104.767 264.454 102.912 266.773 104.303" stroke="#263238" stroke-width="2" stroke-linecap="round" stroke-linejoin="round"/>
<path d="M277.423 104.539C280.595 103.617 284 103.949 286.934 105.466" stroke="#263238" stroke-width="2" stroke-linecap="round" stroke-linejoin="round"/>
<path d="M203.343 197.09C201.611 196.016 199.672 195.32 197.652 195.049C195.632 194.778 193.577 194.938 191.624 195.518C185.233 197.381 182.042 202.978 182.042 204.84H208.931C208.599 203.227 207.93 201.703 206.966 200.367C206.003 199.032 204.768 197.915 203.343 197.09Z" fill="#808080" stroke="#263238" stroke-linecap="round" stroke-linejoin="round"/>
<path d="M186.829 190.7C186.829 190.7 183.371 195.762 183.371 197.625C183.371 199.488 181.508 201.351 184.157 202.152C186.806 202.954 188.417 193.632 188.417 192.571C188.417 191.51 186.829 190.7 186.829 190.7Z" fill="white" stroke="#263238" stroke-linecap="round" stroke-linejoin="round"/>
<path d="M191.624 190.433C191.624 190.433 187.898 189.647 186.829 190.7C185.76 191.753 183.905 201.091 184.172 202.152C184.439 203.213 187.096 203.481 187.898 202.419C188.7 201.358 191.624 190.433 191.624 190.433Z" fill="white" stroke="#263238" stroke-linecap="round" stroke-linejoin="round"/>
<path d="M207.603 194.693C207.603 194.693 196.418 190.692 194.021 189.097C191.623 187.501 190.295 190.669 189.493 192.563C188.692 194.457 186.829 201.083 186.829 202.946C186.829 204.809 189.761 205.603 190.295 203.473C190.83 201.343 195.09 194.426 195.09 194.426L200.678 196.556C200.678 196.556 201.213 197.342 198.815 198.953C196.418 200.564 192.96 204.007 194.021 204.542C195.082 205.076 198.281 204.809 199.35 203.756C200.419 202.702 205.999 201.358 205.999 201.358C205.999 201.358 211.061 204.557 212.13 204.825C213.199 205.092 219.849 203.756 219.849 203.756C219.849 203.756 212.39 197.365 211.328 196.572C210.146 195.833 208.899 195.204 207.603 194.693Z" fill="white" stroke="#263238" stroke-linecap="round" stroke-linejoin="round"/>
<path d="M308.47 190.559H302.882C300.485 190.559 295.69 188.987 295.423 191.62C295.156 194.253 300.752 195.88 303.409 195.88C306.065 195.88 307.669 194.819 310.868 196.414C314.067 198.01 315.93 199.079 315.93 199.079L312.196 193.215L308.47 190.559Z" fill="white" stroke="#263238" stroke-linecap="round" stroke-linejoin="round"/>
<path d="M330.573 204.4C330.573 204.4 325.511 193.482 323.114 190.024C320.716 186.566 306.608 183.901 305.036 183.901C303.464 183.901 299.439 192.689 299.974 194.819C300.508 196.949 301.546 194.551 302.332 193.247C303.118 191.942 306.057 188.193 306.057 188.193C306.057 188.193 310.585 195.644 312.448 199.637C314.31 203.63 318.044 204.164 320.174 204.699C322.304 205.233 330.573 204.4 330.573 204.4Z" fill="white" stroke="#263238" stroke-linecap="round" stroke-linejoin="round"/>
<path d="M317.509 188.405C317.509 188.405 312.447 181.748 309.783 182.809C307.118 183.87 302.866 196.658 302.331 198.254C301.797 199.849 304.996 198.788 305.523 197.468C306.049 196.147 310.852 189.215 310.852 189.215L315.112 191.879" fill="white"/>
<path d="M317.509 188.405C317.509 188.405 312.447 181.748 309.783 182.809C307.118 183.87 302.866 196.658 302.331 198.254C301.797 199.849 304.996 198.788 305.523 197.468C306.049 196.147 310.852 189.215 310.852 189.215L315.112 191.879" stroke="#263238" stroke-linecap="round" stroke-linejoin="round"/>
<path d="M321.251 188.405C321.251 188.405 315.929 183.878 314.059 184.404C312.188 184.931 305.539 197.986 306.608 198.552C307.676 199.118 309.799 198.018 310.868 196.422C311.937 194.827 314.059 191.093 314.059 191.093L318.06 194.025" fill="white"/>
<path d="M321.251 188.405C321.251 188.405 315.929 183.878 314.059 184.404C312.188 184.931 305.539 197.986 306.608 198.552C307.676 199.118 309.799 198.018 310.868 196.422C311.937 194.827 314.059 191.093 314.059 191.093L318.06 194.025" stroke="#263238" stroke-linecap="round" stroke-linejoin="round"/>
<path d="M323.852 192.068C323.852 192.068 321.251 186.825 319.388 187.627C317.525 188.429 311.135 198.277 312.998 198.277C314.86 198.277 320.457 192.421 320.457 192.421C320.457 192.421 319.922 196.949 320.457 199.338" fill="white"/>
<path d="M323.852 192.068C323.852 192.068 321.251 186.825 319.388 187.627C317.525 188.429 311.135 198.277 312.998 198.277C314.86 198.277 320.457 192.421 320.457 192.421C320.457 192.421 319.922 196.949 320.457 199.338" stroke="#263238" stroke-linecap="round" stroke-linejoin="round"/>
<path d="M246.518 204.848H316.385V202.687H246.518V204.848Z" fill="#808080" stroke="#263238" stroke-linecap="round" stroke-linejoin="round"/>
<path d="M195.514 157.24H265.688L279.907 204.848H209.733L195.514 157.24Z" fill="#808080" stroke="#263238" stroke-linecap="round" stroke-linejoin="round"/>
<path d="M62.16 33.504C62.5653 33.504 62.9387 33.6533 63.28 33.952C63.6213 34.2507 63.792 34.6453 63.792 35.136C63.792 35.3067 63.76 35.488 63.696 35.68L57.072 55.04C56.9867 55.3387 56.8053 55.5733 56.528 55.744C56.272 55.8933 55.9947 55.9787 55.696 56C55.3973 56 55.1093 55.9147 54.832 55.744C54.5547 55.5733 54.352 55.328 54.224 55.008L49.232 43.328L44.272 55.008C44.144 55.328 43.9413 55.5733 43.664 55.744C43.3867 55.9147 43.088 56 42.768 56C42.4693 55.9787 42.192 55.8827 41.936 55.712C41.68 55.5413 41.5093 55.3173 41.424 55.04L34.8 35.68C34.736 35.488 34.704 35.3067 34.704 35.136C34.704 34.6667 34.8747 34.2827 35.216 33.984C35.5787 33.664 35.9627 33.504 36.368 33.504C36.7093 33.504 37.0187 33.6 37.296 33.792C37.5733 33.9627 37.7547 34.1973 37.84 34.496L43.248 50.528L47.888 39.136C48.016 38.8373 48.208 38.6027 48.464 38.432C48.72 38.2613 49.008 38.176 49.328 38.176C49.648 38.176 49.936 38.2613 50.192 38.432C50.448 38.6027 50.64 38.8373 50.768 39.136L55.28 50.528L60.656 34.496C60.7413 34.176 60.9227 33.9307 61.2 33.76C61.4773 33.5893 61.7973 33.504 62.16 33.504ZM81.0233 46.976C81.0019 47.36 80.8419 47.6907 80.5433 47.968C80.2446 48.224 79.8926 48.352 79.4873 48.352H68.2233C68.3726 49.9093 68.9593 51.1573 69.9833 52.096C71.0286 53.0347 72.2979 53.504 73.7913 53.504C74.8153 53.504 75.6473 53.3547 76.2873 53.056C76.9273 52.7573 77.4926 52.3733 77.9833 51.904C78.3033 51.712 78.6126 51.616 78.9113 51.616C79.2739 51.616 79.5726 51.744 79.8073 52C80.0633 52.256 80.1912 52.5547 80.1912 52.896C80.1912 53.344 79.9779 53.7493 79.5513 54.112C78.9326 54.7307 78.1113 55.2533 77.0873 55.68C76.0633 56.1067 75.0179 56.32 73.9513 56.32C72.2233 56.32 70.6979 55.9573 69.3753 55.232C68.0739 54.5067 67.0606 53.4933 66.3353 52.192C65.6313 50.8907 65.2793 49.4187 65.2793 47.776C65.2793 45.984 65.6419 44.416 66.3673 43.072C67.1139 41.7067 68.0846 40.6613 69.2793 39.936C70.4953 39.2107 71.7966 38.848 73.1833 38.848C74.5486 38.848 75.8286 39.2 77.0233 39.904C78.2179 40.608 79.1779 41.5787 79.9033 42.816C80.6286 44.0533 81.0019 45.44 81.0233 46.976ZM73.1833 41.664C71.9886 41.664 70.9539 42.0053 70.0793 42.688C69.2046 43.3493 68.6286 44.384 68.3513 45.792H77.7913V45.536C77.6846 44.4053 77.1726 43.4773 76.2553 42.752C75.3593 42.0267 74.3353 41.664 73.1833 41.664ZM92.9693 38.848C94.4199 38.848 95.7319 39.2213 96.9053 39.968C98.0786 40.7147 98.9959 41.7493 99.6573 43.072C100.34 44.3947 100.681 45.888 100.681 47.552C100.681 49.216 100.34 50.72 99.6573 52.064C98.9959 53.408 98.0786 54.4533 96.9053 55.2C95.7319 55.9467 94.4413 56.32 93.0333 56.32C91.9239 56.32 90.8893 56.0747 89.9293 55.584C88.9693 55.0933 88.1906 54.4853 87.5933 53.76V54.688C87.5933 55.1147 87.4439 55.4773 87.1453 55.776C86.8679 56.0747 86.5053 56.224 86.0573 56.224C85.6306 56.224 85.2679 56.0853 84.9693 55.808C84.6919 55.5093 84.5533 55.136 84.5533 54.688V33.856C84.5533 33.408 84.6919 33.0453 84.9693 32.768C85.2466 32.4693 85.6093 32.32 86.0573 32.32C86.5053 32.32 86.8679 32.4693 87.1453 32.768C87.4439 33.0667 87.5933 33.4293 87.5933 33.856V41.664C88.1053 40.896 88.8519 40.2347 89.8333 39.68C90.8146 39.1253 91.8599 38.848 92.9693 38.848ZM92.6173 53.504C93.5986 53.504 94.4839 53.248 95.2733 52.736C96.0626 52.2027 96.6706 51.488 97.0973 50.592C97.5453 49.6747 97.7693 48.6613 97.7693 47.552C97.7693 46.4427 97.5453 45.44 97.0973 44.544C96.6706 43.648 96.0626 42.944 95.2733 42.432C94.4839 41.92 93.5986 41.664 92.6173 41.664C91.6146 41.664 90.7186 41.92 89.9293 42.432C89.1399 42.944 88.5213 43.648 88.0733 44.544C87.6466 45.4187 87.4333 46.4213 87.4333 47.552C87.4333 48.6827 87.6466 49.696 88.0733 50.592C88.5213 51.488 89.1399 52.2027 89.9293 52.736C90.7186 53.248 91.6146 53.504 92.6173 53.504ZM46.064 73.6C48.0693 73.6 49.7867 74.1013 51.216 75.104C52.6453 76.1067 53.7227 77.4613 54.448 79.168C55.1733 80.8533 55.536 82.7307 55.536 84.8C55.536 86.8907 55.1733 88.7893 54.448 90.496C53.7227 92.1813 52.6453 93.5253 51.216 94.528C49.7867 95.5093 48.0693 96 46.064 96H38.192C37.7653 96 37.4027 95.8507 37.104 95.552C36.8053 95.2533 36.656 94.8907 36.656 94.464V75.136C36.656 74.7093 36.8053 74.3467 37.104 74.048C37.4027 73.7493 37.7653 73.6 38.192 73.6H46.064ZM45.744 93.056C47.92 93.056 49.552 92.288 50.64 90.752C51.728 89.1947 52.272 87.2107 52.272 84.8C52.272 82.4107 51.7173 80.4373 50.608 78.88C49.52 77.3227 47.8987 76.544 45.744 76.544H39.824V93.056H45.744ZM74.1795 86.976C74.1582 87.36 73.9982 87.6907 73.6995 87.968C73.4008 88.224 73.0488 88.352 72.6435 88.352H61.3795C61.5288 89.9093 62.1155 91.1573 63.1395 92.096C64.1848 93.0347 65.4542 93.504 66.9475 93.504C67.9715 93.504 68.8035 93.3547 69.4435 93.056C70.0835 92.7573 70.6488 92.3733 71.1395 91.904C71.4595 91.712 71.7688 91.616 72.0675 91.616C72.4302 91.616 72.7288 91.744 72.9635 92C73.2195 92.256 73.3475 92.5547 73.3475 92.896C73.3475 93.344 73.1342 93.7493 72.7075 94.112C72.0888 94.7307 71.2675 95.2533 70.2435 95.68C69.2195 96.1067 68.1742 96.32 67.1075 96.32C65.3795 96.32 63.8542 95.9573 62.5315 95.232C61.2302 94.5067 60.2168 93.4933 59.4915 92.192C58.7875 90.8907 58.4355 89.4187 58.4355 87.776C58.4355 85.984 58.7982 84.416 59.5235 83.072C60.2702 81.7067 61.2408 80.6613 62.4355 79.936C63.6515 79.2107 64.9528 78.848 66.3395 78.848C67.7048 78.848 68.9848 79.2 70.1795 79.904C71.3742 80.608 72.3342 81.5787 73.0595 82.816C73.7848 84.0533 74.1582 85.44 74.1795 86.976ZM66.3395 81.664C65.1448 81.664 64.1102 82.0053 63.2355 82.688C62.3608 83.3493 61.7848 84.384 61.5075 85.792H70.9475V85.536C70.8408 84.4053 70.3288 83.4773 69.4115 82.752C68.5155 82.0267 67.4915 81.664 66.3395 81.664ZM90.3533 79.072C90.7586 79.072 91.0999 79.2107 91.3773 79.488C91.6546 79.744 91.7933 80.0533 91.7933 80.416C91.7933 80.608 91.7186 80.8747 91.5693 81.216L85.4893 95.04C85.3613 95.3173 85.1799 95.5413 84.9453 95.712C84.7106 95.8827 84.4546 95.9787 84.1773 96C83.8359 96.0427 83.5159 95.9787 83.2173 95.808C82.9399 95.6373 82.7266 95.3813 82.5773 95.04L76.4973 81.216C76.3906 80.896 76.3372 80.6293 76.3372 80.416C76.3372 80.0747 76.4759 79.7653 76.7533 79.488C77.0306 79.2107 77.3933 79.072 77.8413 79.072C78.1613 79.072 78.4493 79.1573 78.7053 79.328C78.9613 79.4773 79.1639 79.712 79.3133 80.032L84.1453 91.264L88.9773 80.032C89.2759 79.392 89.7346 79.072 90.3533 79.072ZM109.648 86.976C109.627 87.36 109.467 87.6907 109.168 87.968C108.87 88.224 108.518 88.352 108.112 88.352H96.8483C96.9976 89.9093 97.5843 91.1573 98.6083 92.096C99.6536 93.0347 100.923 93.504 102.416 93.504C103.44 93.504 104.272 93.3547 104.912 93.056C105.552 92.7573 106.118 92.3733 106.608 91.904C106.928 91.712 107.238 91.616 107.536 91.616C107.899 91.616 108.198 91.744 108.432 92C108.688 92.256 108.816 92.5547 108.816 92.896C108.816 93.344 108.603 93.7493 108.176 94.112C107.558 94.7307 106.736 95.2533 105.712 95.68C104.688 96.1067 103.643 96.32 102.576 96.32C100.848 96.32 99.3229 95.9573 98.0003 95.232C96.6989 94.5067 95.6856 93.4933 94.9603 92.192C94.2563 90.8907 93.9043 89.4187 93.9043 87.776C93.9043 85.984 94.2669 84.416 94.9923 83.072C95.7389 81.7067 96.7096 80.6613 97.9043 79.936C99.1203 79.2107 100.422 78.848 101.808 78.848C103.174 78.848 104.454 79.2 105.648 79.904C106.843 80.608 107.803 81.5787 108.528 82.816C109.254 84.0533 109.627 85.44 109.648 86.976ZM101.808 81.664C100.614 81.664 99.5789 82.0053 98.7043 82.688C97.8296 83.3493 97.2536 84.384 96.9763 85.792H106.416V85.536C106.31 84.4053 105.798 83.4773 104.88 82.752C103.984 82.0267 102.96 81.664 101.808 81.664ZM116.474 94.464C116.474 94.8907 116.325 95.2533 116.026 95.552C115.728 95.8507 115.365 96 114.938 96C114.512 96 114.149 95.8507 113.85 95.552C113.573 95.2533 113.434 94.8907 113.434 94.464V73.856C113.434 73.4293 113.584 73.0667 113.882 72.768C114.181 72.4693 114.544 72.32 114.97 72.32C115.397 72.32 115.749 72.4693 116.026 72.768C116.325 73.0667 116.474 73.4293 116.474 73.856V94.464ZM136.832 87.616C136.832 89.28 136.458 90.7733 135.712 92.096C134.965 93.4187 133.941 94.4533 132.64 95.2C131.36 95.9467 129.941 96.32 128.384 96.32C126.826 96.32 125.397 95.9467 124.096 95.2C122.816 94.4533 121.802 93.4187 121.056 92.096C120.309 90.7733 119.936 89.28 119.936 87.616C119.936 85.952 120.309 84.448 121.056 83.104C121.802 81.76 122.816 80.7147 124.096 79.968C125.397 79.2213 126.826 78.848 128.384 78.848C129.941 78.848 131.36 79.2213 132.64 79.968C133.941 80.7147 134.965 81.76 135.712 83.104C136.458 84.448 136.832 85.952 136.832 87.616ZM133.792 87.616C133.792 86.464 133.546 85.44 133.056 84.544C132.586 83.6267 131.936 82.9227 131.104 82.432C130.293 81.92 129.386 81.664 128.384 81.664C127.381 81.664 126.464 81.92 125.632 82.432C124.821 82.9227 124.17 83.6267 123.68 84.544C123.21 85.44 122.976 86.464 122.976 87.616C122.976 88.7467 123.21 89.76 123.68 90.656C124.17 91.552 124.821 92.256 125.632 92.768C126.464 93.2587 127.381 93.504 128.384 93.504C129.386 93.504 130.293 93.2587 131.104 92.768C131.936 92.256 132.586 91.552 133.056 90.656C133.546 89.76 133.792 88.7467 133.792 87.616ZM148.782 78.944C150.232 78.944 151.544 79.3173 152.718 80.064C153.891 80.7893 154.808 81.8133 155.47 83.136C156.152 84.4587 156.494 85.952 156.494 87.616C156.494 89.28 156.152 90.7733 155.47 92.096C154.808 93.3973 153.891 94.4213 152.718 95.168C151.544 95.9147 150.254 96.288 148.846 96.288C147.736 96.288 146.702 96.0427 145.742 95.552C144.782 95.0613 144.003 94.464 143.406 93.76V100.864C143.406 101.291 143.256 101.653 142.958 101.952C142.68 102.251 142.318 102.4 141.87 102.4C141.443 102.4 141.08 102.251 140.782 101.952C140.504 101.675 140.366 101.312 140.366 100.864V80.736C140.366 80.288 140.504 79.9147 140.782 79.616C141.059 79.3173 141.422 79.168 141.87 79.168C142.318 79.168 142.68 79.3173 142.958 79.616C143.256 79.9147 143.406 80.288 143.406 80.736V81.664C143.918 80.9173 144.664 80.2773 145.646 79.744C146.627 79.2107 147.672 78.944 148.782 78.944ZM148.43 93.472C149.411 93.472 150.296 93.216 151.086 92.704C151.875 92.192 152.483 91.4987 152.91 90.624C153.358 89.728 153.582 88.7253 153.582 87.616C153.582 86.5067 153.358 85.5147 152.91 84.64C152.483 83.744 151.875 83.04 151.086 82.528C150.296 82.016 149.411 81.76 148.43 81.76C147.427 81.76 146.531 82.016 145.742 82.528C144.952 83.0187 144.334 83.712 143.886 84.608C143.459 85.504 143.246 86.5067 143.246 87.616C143.246 88.7253 143.459 89.728 143.886 90.624C144.334 91.52 144.952 92.224 145.742 92.736C146.531 93.2267 147.427 93.472 148.43 93.472ZM179.254 78.944C182.987 78.944 184.854 81.2693 184.854 85.92V94.464C184.854 94.912 184.715 95.2853 184.438 95.584C184.161 95.8613 183.798 96 183.35 96C182.902 96 182.529 95.8507 182.23 95.552C181.953 95.2533 181.814 94.8907 181.814 94.464V85.952C181.814 83.1573 180.641 81.76 178.294 81.76C177.462 81.76 176.705 81.952 176.022 82.336C175.361 82.6987 174.838 83.2 174.454 83.84C174.091 84.48 173.91 85.184 173.91 85.952V94.464C173.91 94.8907 173.761 95.2533 173.462 95.552C173.185 95.8507 172.822 96 172.374 96C171.926 96 171.563 95.8613 171.286 95.584C171.009 95.2853 170.87 94.912 170.87 94.464V85.92C170.87 84.6613 170.603 83.6587 170.07 82.912C169.537 82.144 168.651 81.76 167.414 81.76C166.155 81.76 165.11 82.1653 164.278 82.976C163.467 83.7653 163.062 84.7467 163.062 85.92V94.464C163.062 94.8907 162.913 95.2533 162.614 95.552C162.337 95.8507 161.974 96 161.526 96C161.078 96 160.715 95.8613 160.438 95.584C160.161 95.2853 160.022 94.912 160.022 94.464V80.768C160.022 80.3413 160.161 79.9787 160.438 79.68C160.737 79.3813 161.099 79.232 161.526 79.232C161.974 79.232 162.337 79.3813 162.614 79.68C162.913 79.9787 163.062 80.3413 163.062 80.768V81.888C163.617 81.056 164.353 80.3627 165.27 79.808C166.209 79.232 167.222 78.944 168.31 78.944C170.955 78.944 172.673 80.1173 173.462 82.464C173.931 81.568 174.71 80.7573 175.798 80.032C176.886 79.3067 178.038 78.944 179.254 78.944ZM204.117 86.976C204.096 87.36 203.936 87.6907 203.637 87.968C203.338 88.224 202.986 88.352 202.581 88.352H191.317C191.466 89.9093 192.053 91.1573 193.077 92.096C194.122 93.0347 195.392 93.504 196.885 93.504C197.909 93.504 198.741 93.3547 199.381 93.056C200.021 92.7573 200.586 92.3733 201.077 91.904C201.397 91.712 201.706 91.616 202.005 91.616C202.368 91.616 202.666 91.744 202.901 92C203.157 92.256 203.285 92.5547 203.285 92.896C203.285 93.344 203.072 93.7493 202.645 94.112C202.026 94.7307 201.205 95.2533 200.181 95.68C199.157 96.1067 198.112 96.32 197.045 96.32C195.317 96.32 193.792 95.9573 192.469 95.232C191.168 94.5067 190.154 93.4933 189.429 92.192C188.725 90.8907 188.373 89.4187 188.373 87.776C188.373 85.984 188.736 84.416 189.461 83.072C190.208 81.7067 191.178 80.6613 192.373 79.936C193.589 79.2107 194.89 78.848 196.277 78.848C197.642 78.848 198.922 79.2 200.117 79.904C201.312 80.608 202.272 81.5787 202.997 82.816C203.722 84.0533 204.096 85.44 204.117 86.976ZM196.277 81.664C195.082 81.664 194.048 82.0053 193.173 82.688C192.298 83.3493 191.722 84.384 191.445 85.792H200.885V85.536C200.778 84.4053 200.266 83.4773 199.349 82.752C198.453 82.0267 197.429 81.664 196.277 81.664ZM216.191 78.848C220.031 78.848 221.951 81.152 221.951 85.76V94.464C221.951 94.8907 221.802 95.2533 221.503 95.552C221.226 95.8507 220.863 96 220.415 96C219.988 96 219.626 95.8507 219.327 95.552C219.05 95.2533 218.911 94.8907 218.911 94.464V85.792C218.911 84.5333 218.623 83.5307 218.047 82.784C217.471 82.0373 216.532 81.664 215.231 81.664C214.378 81.664 213.599 81.856 212.895 82.24C212.212 82.6027 211.668 83.104 211.263 83.744C210.879 84.3627 210.687 85.0453 210.687 85.792V94.464C210.687 94.8907 210.538 95.2533 210.239 95.552C209.962 95.8507 209.599 96 209.151 96C208.703 96 208.34 95.8613 208.063 95.584C207.786 95.2853 207.647 94.912 207.647 94.464V80.768C207.647 80.3413 207.786 79.9787 208.063 79.68C208.362 79.3813 208.724 79.232 209.151 79.232C209.599 79.232 209.962 79.3813 210.239 79.68C210.538 79.9787 210.687 80.3413 210.687 80.768V81.888C211.242 81.0347 212.01 80.32 212.991 79.744C213.994 79.1467 215.06 78.848 216.191 78.848ZM231.035 82.208V91.744C231.035 92.8107 231.515 93.344 232.475 93.344C232.624 93.344 232.827 93.312 233.083 93.248C233.339 93.1627 233.541 93.12 233.691 93.12C233.968 93.12 234.203 93.2373 234.395 93.472C234.587 93.7067 234.683 94.0053 234.683 94.368C234.683 94.816 234.427 95.2 233.915 95.52C233.403 95.84 232.827 96 232.187 96C231.483 96 230.832 95.9253 230.235 95.776C229.659 95.6267 229.136 95.2533 228.667 94.656C228.219 94.0373 227.995 93.1093 227.995 91.872V82.208H226.139C225.733 82.208 225.392 82.08 225.115 81.824C224.859 81.5467 224.731 81.2053 224.731 80.8C224.731 80.3947 224.859 80.064 225.115 79.808C225.392 79.552 225.733 79.424 226.139 79.424H227.995V76.736C227.995 76.3093 228.133 75.9467 228.411 75.648C228.709 75.3493 229.083 75.2 229.531 75.2C229.957 75.2 230.309 75.3493 230.587 75.648C230.885 75.9467 231.035 76.3093 231.035 76.736V79.424H233.691C234.096 79.424 234.427 79.5627 234.683 79.84C234.96 80.096 235.099 80.4267 235.099 80.832C235.099 81.2373 234.96 81.568 234.683 81.824C234.427 82.08 234.096 82.208 233.691 82.208H231.035Z" fill="white"/>
<path d="M38.356 119.6C38.78 119.6 39.172 119.716 39.532 119.948C39.892 120.172 40.176 120.48 40.384 120.872C40.6 121.264 40.708 121.696 40.708 122.168C40.708 122.64 40.6 123.076 40.384 123.476C40.176 123.876 39.892 124.192 39.532 124.424C39.172 124.656 38.78 124.772 38.356 124.772H36.1V127.424C36.1 127.584 36.048 127.72 35.944 127.832C35.84 127.944 35.708 128 35.548 128C35.38 128 35.244 127.948 35.14 127.844C35.044 127.732 34.996 127.592 34.996 127.424V120.176C34.996 120.016 35.052 119.88 35.164 119.768C35.276 119.656 35.412 119.6 35.572 119.6H38.356ZM38.356 123.68C38.572 123.68 38.772 123.612 38.956 123.476C39.14 123.332 39.284 123.144 39.388 122.912C39.5 122.68 39.556 122.432 39.556 122.168C39.556 121.76 39.436 121.416 39.196 121.136C38.964 120.848 38.684 120.704 38.356 120.704H36.1V123.68H38.356ZM47.4501 124.616C47.4421 124.76 47.3821 124.884 47.2701 124.988C47.1581 125.084 47.0261 125.132 46.8741 125.132H42.6501C42.7061 125.716 42.9261 126.184 43.3101 126.536C43.7021 126.888 44.1781 127.064 44.7381 127.064C45.1221 127.064 45.4341 127.008 45.6741 126.896C45.9141 126.784 46.1261 126.64 46.3101 126.464C46.4301 126.392 46.5461 126.356 46.6581 126.356C46.7941 126.356 46.9061 126.404 46.9941 126.5C47.0901 126.596 47.1381 126.708 47.1381 126.836C47.1381 127.004 47.0581 127.156 46.8981 127.292C46.6661 127.524 46.3581 127.72 45.9741 127.88C45.5901 128.04 45.1981 128.12 44.7981 128.12C44.1501 128.12 43.5781 127.984 43.0821 127.712C42.5941 127.44 42.2141 127.06 41.9421 126.572C41.6781 126.084 41.5461 125.532 41.5461 124.916C41.5461 124.244 41.6821 123.656 41.9541 123.152C42.2341 122.64 42.5981 122.248 43.0461 121.976C43.5021 121.704 43.9901 121.568 44.5101 121.568C45.0221 121.568 45.5021 121.7 45.9501 121.964C46.3981 122.228 46.7581 122.592 47.0301 123.056C47.3021 123.52 47.4421 124.04 47.4501 124.616ZM44.5101 122.624C44.0621 122.624 43.6741 122.752 43.3461 123.008C43.0181 123.256 42.8021 123.644 42.6981 124.172H46.2381V124.076C46.1981 123.652 46.0061 123.304 45.6621 123.032C45.3261 122.76 44.9421 122.624 44.5101 122.624ZM50.0099 127.424C50.0099 127.584 49.9539 127.72 49.8419 127.832C49.7299 127.944 49.5939 128 49.4339 128C49.2739 128 49.1379 127.944 49.0259 127.832C48.9219 127.72 48.8699 127.584 48.8699 127.424V119.696C48.8699 119.536 48.9259 119.4 49.0379 119.288C49.1499 119.176 49.2859 119.12 49.4459 119.12C49.6059 119.12 49.7379 119.176 49.8419 119.288C49.9539 119.4 50.0099 119.536 50.0099 119.696V127.424ZM56.909 121.628C57.077 121.628 57.213 121.684 57.317 121.796C57.429 121.9 57.485 122.04 57.485 122.216V127.424C57.485 127.584 57.429 127.72 57.317 127.832C57.213 127.944 57.077 128 56.909 128C56.741 128 56.605 127.948 56.501 127.844C56.397 127.732 56.345 127.592 56.345 127.424V127.112C56.137 127.392 55.853 127.632 55.493 127.832C55.133 128.024 54.745 128.12 54.329 128.12C53.785 128.12 53.289 127.98 52.841 127.7C52.401 127.42 52.053 127.032 51.797 126.536C51.549 126.032 51.425 125.468 51.425 124.844C51.425 124.22 51.549 123.66 51.797 123.164C52.053 122.66 52.401 122.268 52.841 121.988C53.281 121.708 53.765 121.568 54.293 121.568C54.717 121.568 55.109 121.656 55.469 121.832C55.837 122.008 56.129 122.232 56.345 122.504V122.216C56.345 122.048 56.397 121.908 56.501 121.796C56.605 121.684 56.741 121.628 56.909 121.628ZM54.461 127.064C54.837 127.064 55.169 126.968 55.457 126.776C55.753 126.584 55.981 126.32 56.141 125.984C56.309 125.648 56.393 125.268 56.393 124.844C56.393 124.428 56.309 124.052 56.141 123.716C55.981 123.38 55.753 123.116 55.457 122.924C55.169 122.724 54.837 122.624 54.461 122.624C54.085 122.624 53.749 122.72 53.453 122.912C53.165 123.104 52.937 123.368 52.769 123.704C52.609 124.04 52.529 124.42 52.529 124.844C52.529 125.268 52.609 125.648 52.769 125.984C52.937 126.32 53.165 126.584 53.453 126.776C53.749 126.968 54.085 127.064 54.461 127.064ZM58.6161 130.364C58.4641 130.364 58.3401 130.312 58.2441 130.208C58.1401 130.104 58.0881 129.98 58.0881 129.836V129.728C58.0881 129.464 58.2521 129.292 58.5801 129.212C59.0921 129.068 59.3481 128.668 59.3481 128.012V122.288C59.3481 122.128 59.4001 121.992 59.5041 121.88C59.6161 121.768 59.7561 121.712 59.9241 121.712C60.0841 121.712 60.2161 121.768 60.3201 121.88C60.4321 121.992 60.4881 122.128 60.4881 122.288V128.3C60.4881 128.716 60.4001 129.08 60.2241 129.392C60.0561 129.704 59.8281 129.944 59.5401 130.112C59.2521 130.28 58.9441 130.364 58.6161 130.364ZM59.9121 120.86C59.6801 120.86 59.5121 120.82 59.4081 120.74C59.3121 120.652 59.2641 120.516 59.2641 120.332V120.14C59.2641 119.948 59.3161 119.812 59.4201 119.732C59.5321 119.652 59.7001 119.612 59.9241 119.612C60.1481 119.612 60.3081 119.656 60.4041 119.744C60.5081 119.824 60.5601 119.956 60.5601 120.14V120.332C60.5601 120.524 60.5081 120.66 60.4041 120.74C60.3001 120.82 60.1361 120.86 59.9121 120.86ZM67.5614 121.628C67.7294 121.628 67.8654 121.684 67.9694 121.796C68.0814 121.9 68.1374 122.04 68.1374 122.216V127.424C68.1374 127.584 68.0814 127.72 67.9694 127.832C67.8654 127.944 67.7294 128 67.5614 128C67.3934 128 67.2574 127.948 67.1534 127.844C67.0494 127.732 66.9974 127.592 66.9974 127.424V127.112C66.7894 127.392 66.5054 127.632 66.1454 127.832C65.7854 128.024 65.3974 128.12 64.9814 128.12C64.4374 128.12 63.9414 127.98 63.4934 127.7C63.0534 127.42 62.7054 127.032 62.4494 126.536C62.2014 126.032 62.0774 125.468 62.0774 124.844C62.0774 124.22 62.2014 123.66 62.4494 123.164C62.7054 122.66 63.0534 122.268 63.4934 121.988C63.9334 121.708 64.4174 121.568 64.9454 121.568C65.3694 121.568 65.7614 121.656 66.1214 121.832C66.4894 122.008 66.7814 122.232 66.9974 122.504V122.216C66.9974 122.048 67.0494 121.908 67.1534 121.796C67.2574 121.684 67.3934 121.628 67.5614 121.628ZM65.1134 127.064C65.4894 127.064 65.8214 126.968 66.1094 126.776C66.4054 126.584 66.6334 126.32 66.7934 125.984C66.9614 125.648 67.0454 125.268 67.0454 124.844C67.0454 124.428 66.9614 124.052 66.7934 123.716C66.6334 123.38 66.4054 123.116 66.1094 122.924C65.8214 122.724 65.4894 122.624 65.1134 122.624C64.7374 122.624 64.4014 122.72 64.1054 122.912C63.8174 123.104 63.5894 123.368 63.4214 123.704C63.2614 124.04 63.1814 124.42 63.1814 124.844C63.1814 125.268 63.2614 125.648 63.4214 125.984C63.5894 126.32 63.8174 126.584 64.1054 126.776C64.4014 126.968 64.7374 127.064 65.1134 127.064ZM72.9645 121.568C73.1725 121.568 73.3525 121.624 73.5045 121.736C73.6565 121.84 73.7325 121.972 73.7325 122.132C73.7325 122.324 73.6805 122.472 73.5765 122.576C73.4805 122.672 73.3605 122.72 73.2165 122.72C73.1445 122.72 73.0365 122.696 72.8925 122.648C72.7245 122.592 72.5925 122.564 72.4965 122.564C72.2485 122.564 72.0045 122.652 71.7645 122.828C71.5325 122.996 71.3405 123.232 71.1885 123.536C71.0445 123.832 70.9725 124.164 70.9725 124.532V127.424C70.9725 127.584 70.9165 127.72 70.8045 127.832C70.7005 127.944 70.5645 128 70.3965 128C70.2285 128 70.0925 127.948 69.9885 127.844C69.8845 127.732 69.8325 127.592 69.8325 127.424V122.288C69.8325 122.128 69.8845 121.992 69.9885 121.88C70.1005 121.768 70.2365 121.712 70.3965 121.712C70.5645 121.712 70.7005 121.768 70.8045 121.88C70.9165 121.992 70.9725 122.128 70.9725 122.288V122.9C71.1485 122.508 71.4125 122.192 71.7645 121.952C72.1165 121.704 72.5165 121.576 72.9645 121.568ZM75.8695 127.424C75.8695 127.584 75.8135 127.72 75.7015 127.832C75.5975 127.944 75.4615 128 75.2935 128C75.1335 128 74.9975 127.944 74.8855 127.832C74.7815 127.72 74.7295 127.584 74.7295 127.424V122.228C74.7295 122.068 74.7815 121.932 74.8855 121.82C74.9975 121.708 75.1335 121.652 75.2935 121.652C75.4615 121.652 75.5975 121.708 75.7015 121.82C75.8135 121.932 75.8695 122.068 75.8695 122.228V127.424ZM75.2935 120.86C75.0615 120.86 74.8935 120.82 74.7895 120.74C74.6935 120.652 74.6455 120.516 74.6455 120.332V120.14C74.6455 119.948 74.6975 119.812 74.8015 119.732C74.9135 119.652 75.0815 119.612 75.3055 119.612C75.5295 119.612 75.6895 119.656 75.7855 119.744C75.8895 119.824 75.9415 119.956 75.9415 120.14V120.332C75.9415 120.524 75.8895 120.66 75.7855 120.74C75.6815 120.82 75.5175 120.86 75.2935 120.86ZM83.5724 121.568C84.2044 121.568 84.7284 121.668 85.1444 121.868C85.5684 122.068 85.7804 122.324 85.7804 122.636C85.7804 122.772 85.7364 122.896 85.6484 123.008C85.5604 123.112 85.4484 123.164 85.3124 123.164C85.2084 123.164 85.1244 123.148 85.0604 123.116C85.0044 123.084 84.9244 123.032 84.8204 122.96C84.7724 122.912 84.6964 122.856 84.5924 122.792C84.4964 122.744 84.3604 122.704 84.1844 122.672C84.0084 122.64 83.8484 122.624 83.7044 122.624C83.2884 122.624 82.9204 122.72 82.6004 122.912C82.2804 123.104 82.0324 123.372 81.8564 123.716C81.6804 124.052 81.5924 124.428 81.5924 124.844C81.5924 125.268 81.6764 125.648 81.8444 125.984C82.0204 126.32 82.2644 126.584 82.5764 126.776C82.8884 126.968 83.2444 127.064 83.6444 127.064C84.0604 127.064 84.3964 127 84.6524 126.872C84.7084 126.84 84.7844 126.788 84.8804 126.716C84.9604 126.652 85.0284 126.604 85.0844 126.572C85.1484 126.54 85.2244 126.524 85.3124 126.524C85.4724 126.524 85.5964 126.576 85.6844 126.68C85.7804 126.776 85.8284 126.904 85.8284 127.064C85.8284 127.232 85.7204 127.4 85.5044 127.568C85.2964 127.728 85.0124 127.86 84.6524 127.964C84.3004 128.068 83.9204 128.12 83.5124 128.12C82.9044 128.12 82.3684 127.98 81.9044 127.7C81.4404 127.412 81.0804 127.02 80.8244 126.524C80.5764 126.02 80.4524 125.46 80.4524 124.844C80.4524 124.228 80.5844 123.672 80.8484 123.176C81.1124 122.672 81.4804 122.28 81.9524 122C82.4244 121.712 82.9644 121.568 83.5724 121.568ZM92.1004 121.628C92.2684 121.628 92.4044 121.684 92.5084 121.796C92.6204 121.9 92.6764 122.04 92.6764 122.216V127.424C92.6764 127.584 92.6204 127.72 92.5084 127.832C92.4044 127.944 92.2684 128 92.1004 128C91.9324 128 91.7964 127.948 91.6924 127.844C91.5884 127.732 91.5364 127.592 91.5364 127.424V127.112C91.3284 127.392 91.0444 127.632 90.6844 127.832C90.3244 128.024 89.9364 128.12 89.5204 128.12C88.9764 128.12 88.4804 127.98 88.0324 127.7C87.5924 127.42 87.2444 127.032 86.9884 126.536C86.7404 126.032 86.6164 125.468 86.6164 124.844C86.6164 124.22 86.7404 123.66 86.9884 123.164C87.2444 122.66 87.5924 122.268 88.0324 121.988C88.4724 121.708 88.9564 121.568 89.4844 121.568C89.9084 121.568 90.3004 121.656 90.6604 121.832C91.0284 122.008 91.3204 122.232 91.5364 122.504V122.216C91.5364 122.048 91.5884 121.908 91.6924 121.796C91.7964 121.684 91.9324 121.628 92.1004 121.628ZM89.6524 127.064C90.0284 127.064 90.3604 126.968 90.6484 126.776C90.9444 126.584 91.1724 126.32 91.3324 125.984C91.5004 125.648 91.5844 125.268 91.5844 124.844C91.5844 124.428 91.5004 124.052 91.3324 123.716C91.1724 123.38 90.9444 123.116 90.6484 122.924C90.3604 122.724 90.0284 122.624 89.6524 122.624C89.2764 122.624 88.9404 122.72 88.6444 122.912C88.3564 123.104 88.1284 123.368 87.9604 123.704C87.8004 124.04 87.7204 124.42 87.7204 124.844C87.7204 125.268 87.8004 125.648 87.9604 125.984C88.1284 126.32 88.3564 126.584 88.6444 126.776C88.9404 126.968 89.2764 127.064 89.6524 127.064ZM97.5035 121.568C97.7115 121.568 97.8915 121.624 98.0435 121.736C98.1955 121.84 98.2715 121.972 98.2715 122.132C98.2715 122.324 98.2195 122.472 98.1155 122.576C98.0195 122.672 97.8995 122.72 97.7555 122.72C97.6835 122.72 97.5755 122.696 97.4315 122.648C97.2635 122.592 97.1315 122.564 97.0355 122.564C96.7875 122.564 96.5435 122.652 96.3035 122.828C96.0715 122.996 95.8795 123.232 95.7275 123.536C95.5835 123.832 95.5115 124.164 95.5115 124.532V127.424C95.5115 127.584 95.4555 127.72 95.3435 127.832C95.2395 127.944 95.1035 128 94.9355 128C94.7675 128 94.6315 127.948 94.5275 127.844C94.4235 127.732 94.3715 127.592 94.3715 127.424V122.288C94.3715 122.128 94.4235 121.992 94.5275 121.88C94.6395 121.768 94.7755 121.712 94.9355 121.712C95.1035 121.712 95.2395 121.768 95.3435 121.88C95.4555 121.992 95.5115 122.128 95.5115 122.288V122.9C95.6875 122.508 95.9515 122.192 96.3035 121.952C96.6555 121.704 97.0555 121.576 97.5035 121.568ZM104.288 121.628C104.456 121.628 104.592 121.684 104.696 121.796C104.808 121.9 104.864 122.04 104.864 122.216V127.424C104.864 127.584 104.808 127.72 104.696 127.832C104.592 127.944 104.456 128 104.288 128C104.12 128 103.984 127.948 103.88 127.844C103.776 127.732 103.724 127.592 103.724 127.424V127.112C103.516 127.392 103.232 127.632 102.872 127.832C102.512 128.024 102.124 128.12 101.708 128.12C101.164 128.12 100.668 127.98 100.22 127.7C99.7799 127.42 99.4319 127.032 99.1759 126.536C98.9279 126.032 98.8039 125.468 98.8039 124.844C98.8039 124.22 98.9279 123.66 99.1759 123.164C99.4319 122.66 99.7799 122.268 100.22 121.988C100.66 121.708 101.144 121.568 101.672 121.568C102.096 121.568 102.488 121.656 102.848 121.832C103.216 122.008 103.508 122.232 103.724 122.504V122.216C103.724 122.048 103.776 121.908 103.88 121.796C103.984 121.684 104.12 121.628 104.288 121.628ZM101.84 127.064C102.216 127.064 102.548 126.968 102.836 126.776C103.132 126.584 103.36 126.32 103.52 125.984C103.688 125.648 103.772 125.268 103.772 124.844C103.772 124.428 103.688 124.052 103.52 123.716C103.36 123.38 103.132 123.116 102.836 122.924C102.548 122.724 102.216 122.624 101.84 122.624C101.464 122.624 101.128 122.72 100.832 122.912C100.544 123.104 100.316 123.368 100.148 123.704C99.9879 124.04 99.9079 124.42 99.9079 124.844C99.9079 125.268 99.9879 125.648 100.148 125.984C100.316 126.32 100.544 126.584 100.832 126.776C101.128 126.968 101.464 127.064 101.84 127.064ZM117.099 121.604C118.499 121.604 119.199 122.476 119.199 124.22V127.424C119.199 127.592 119.147 127.732 119.043 127.844C118.939 127.948 118.803 128 118.635 128C118.467 128 118.327 127.944 118.215 127.832C118.111 127.72 118.059 127.584 118.059 127.424V124.232C118.059 123.184 117.619 122.66 116.739 122.66C116.427 122.66 116.143 122.732 115.887 122.876C115.639 123.012 115.443 123.2 115.299 123.44C115.163 123.68 115.095 123.944 115.095 124.232V127.424C115.095 127.584 115.039 127.72 114.927 127.832C114.823 127.944 114.687 128 114.519 128C114.351 128 114.215 127.948 114.111 127.844C114.007 127.732 113.955 127.592 113.955 127.424V124.22C113.955 123.748 113.855 123.372 113.655 123.092C113.455 122.804 113.123 122.66 112.659 122.66C112.187 122.66 111.795 122.812 111.483 123.116C111.179 123.412 111.027 123.78 111.027 124.22V127.424C111.027 127.584 110.971 127.72 110.859 127.832C110.755 127.944 110.619 128 110.451 128C110.283 128 110.147 127.948 110.043 127.844C109.939 127.732 109.887 127.592 109.887 127.424V122.288C109.887 122.128 109.939 121.992 110.043 121.88C110.155 121.768 110.291 121.712 110.451 121.712C110.619 121.712 110.755 121.768 110.859 121.88C110.971 121.992 111.027 122.128 111.027 122.288V122.708C111.235 122.396 111.511 122.136 111.855 121.928C112.207 121.712 112.587 121.604 112.995 121.604C113.987 121.604 114.631 122.044 114.927 122.924C115.103 122.588 115.395 122.284 115.803 122.012C116.211 121.74 116.643 121.604 117.099 121.604ZM126.423 124.616C126.415 124.76 126.355 124.884 126.243 124.988C126.131 125.084 125.999 125.132 125.847 125.132H121.623C121.679 125.716 121.899 126.184 122.283 126.536C122.675 126.888 123.151 127.064 123.711 127.064C124.095 127.064 124.407 127.008 124.647 126.896C124.887 126.784 125.099 126.64 125.283 126.464C125.403 126.392 125.519 126.356 125.631 126.356C125.767 126.356 125.879 126.404 125.967 126.5C126.063 126.596 126.111 126.708 126.111 126.836C126.111 127.004 126.031 127.156 125.871 127.292C125.639 127.524 125.331 127.72 124.947 127.88C124.563 128.04 124.171 128.12 123.771 128.12C123.123 128.12 122.551 127.984 122.055 127.712C121.567 127.44 121.187 127.06 120.915 126.572C120.651 126.084 120.519 125.532 120.519 124.916C120.519 124.244 120.655 123.656 120.927 123.152C121.207 122.64 121.571 122.248 122.019 121.976C122.475 121.704 122.963 121.568 123.483 121.568C123.995 121.568 124.475 121.7 124.923 121.964C125.371 122.228 125.731 122.592 126.003 123.056C126.275 123.52 126.415 124.04 126.423 124.616ZM123.483 122.624C123.035 122.624 122.647 122.752 122.319 123.008C121.991 123.256 121.775 123.644 121.671 124.172H125.211V124.076C125.171 123.652 124.979 123.304 124.635 123.032C124.299 122.76 123.915 122.624 123.483 122.624ZM134.959 121.604C136.359 121.604 137.059 122.476 137.059 124.22V127.424C137.059 127.592 137.007 127.732 136.903 127.844C136.799 127.948 136.663 128 136.495 128C136.327 128 136.187 127.944 136.075 127.832C135.971 127.72 135.919 127.584 135.919 127.424V124.232C135.919 123.184 135.479 122.66 134.599 122.66C134.287 122.66 134.003 122.732 133.747 122.876C133.499 123.012 133.303 123.2 133.159 123.44C133.023 123.68 132.955 123.944 132.955 124.232V127.424C132.955 127.584 132.899 127.72 132.787 127.832C132.683 127.944 132.547 128 132.379 128C132.211 128 132.075 127.948 131.971 127.844C131.867 127.732 131.815 127.592 131.815 127.424V124.22C131.815 123.748 131.715 123.372 131.515 123.092C131.315 122.804 130.983 122.66 130.519 122.66C130.047 122.66 129.655 122.812 129.343 123.116C129.039 123.412 128.887 123.78 128.887 124.22V127.424C128.887 127.584 128.831 127.72 128.719 127.832C128.615 127.944 128.479 128 128.311 128C128.143 128 128.007 127.948 127.903 127.844C127.799 127.732 127.747 127.592 127.747 127.424V122.288C127.747 122.128 127.799 121.992 127.903 121.88C128.015 121.768 128.151 121.712 128.311 121.712C128.479 121.712 128.615 121.768 128.719 121.88C128.831 121.992 128.887 122.128 128.887 122.288V122.708C129.095 122.396 129.371 122.136 129.715 121.928C130.067 121.712 130.447 121.604 130.855 121.604C131.847 121.604 132.491 122.044 132.787 122.924C132.963 122.588 133.255 122.284 133.663 122.012C134.071 121.74 134.503 121.604 134.959 121.604ZM141.918 121.568C142.462 121.568 142.954 121.708 143.394 121.988C143.834 122.268 144.178 122.656 144.426 123.152C144.682 123.648 144.81 124.208 144.81 124.832C144.81 125.456 144.682 126.02 144.426 126.524C144.178 127.028 143.834 127.42 143.394 127.7C142.954 127.98 142.47 128.12 141.942 128.12C141.526 128.12 141.138 128.028 140.778 127.844C140.418 127.66 140.126 127.432 139.902 127.16V127.508C139.902 127.668 139.846 127.804 139.734 127.916C139.63 128.028 139.494 128.084 139.326 128.084C139.166 128.084 139.03 128.032 138.918 127.928C138.814 127.816 138.762 127.676 138.762 127.508V119.696C138.762 119.528 138.814 119.392 138.918 119.288C139.022 119.176 139.158 119.12 139.326 119.12C139.494 119.12 139.63 119.176 139.734 119.288C139.846 119.4 139.902 119.536 139.902 119.696V122.624C140.094 122.336 140.374 122.088 140.742 121.88C141.11 121.672 141.502 121.568 141.918 121.568ZM141.786 127.064C142.154 127.064 142.486 126.968 142.782 126.776C143.078 126.576 143.306 126.308 143.466 125.972C143.634 125.628 143.718 125.248 143.718 124.832C143.718 124.416 143.634 124.04 143.466 123.704C143.306 123.368 143.078 123.104 142.782 122.912C142.486 122.72 142.154 122.624 141.786 122.624C141.41 122.624 141.074 122.72 140.778 122.912C140.482 123.104 140.25 123.368 140.082 123.704C139.922 124.032 139.842 124.408 139.842 124.832C139.842 125.256 139.922 125.636 140.082 125.972C140.25 126.308 140.482 126.576 140.778 126.776C141.074 126.968 141.41 127.064 141.786 127.064ZM150.813 121.712C150.981 121.712 151.117 121.768 151.221 121.88C151.333 121.992 151.389 122.128 151.389 122.288V125.48C151.389 126.312 151.157 126.96 150.693 127.424C150.237 127.88 149.589 128.108 148.749 128.108C147.917 128.108 147.273 127.88 146.817 127.424C146.361 126.96 146.133 126.312 146.133 125.48V122.288C146.133 122.128 146.185 121.992 146.289 121.88C146.401 121.768 146.537 121.712 146.697 121.712C146.865 121.712 147.001 121.768 147.105 121.88C147.217 121.992 147.273 122.128 147.273 122.288V125.48C147.273 126.528 147.765 127.052 148.749 127.052C149.237 127.052 149.609 126.92 149.865 126.656C150.121 126.392 150.249 126 150.249 125.48V122.288C150.249 122.128 150.301 121.992 150.405 121.88C150.517 121.768 150.653 121.712 150.813 121.712ZM158.194 121.628C158.362 121.628 158.498 121.684 158.602 121.796C158.714 121.9 158.77 122.04 158.77 122.216V127.424C158.77 127.584 158.714 127.72 158.602 127.832C158.498 127.944 158.362 128 158.194 128C158.026 128 157.89 127.948 157.786 127.844C157.682 127.732 157.63 127.592 157.63 127.424V127.112C157.422 127.392 157.138 127.632 156.778 127.832C156.418 128.024 156.03 128.12 155.614 128.12C155.07 128.12 154.574 127.98 154.126 127.7C153.686 127.42 153.338 127.032 153.082 126.536C152.834 126.032 152.71 125.468 152.71 124.844C152.71 124.22 152.834 123.66 153.082 123.164C153.338 122.66 153.686 122.268 154.126 121.988C154.566 121.708 155.05 121.568 155.578 121.568C156.002 121.568 156.394 121.656 156.754 121.832C157.122 122.008 157.414 122.232 157.63 122.504V122.216C157.63 122.048 157.682 121.908 157.786 121.796C157.89 121.684 158.026 121.628 158.194 121.628ZM155.746 127.064C156.122 127.064 156.454 126.968 156.742 126.776C157.038 126.584 157.266 126.32 157.426 125.984C157.594 125.648 157.678 125.268 157.678 124.844C157.678 124.428 157.594 124.052 157.426 123.716C157.266 123.38 157.038 123.116 156.742 122.924C156.454 122.724 156.122 122.624 155.746 122.624C155.37 122.624 155.034 122.72 154.738 122.912C154.45 123.104 154.222 123.368 154.054 123.704C153.894 124.04 153.814 124.42 153.814 124.844C153.814 125.268 153.894 125.648 154.054 125.984C154.222 126.32 154.45 126.584 154.738 126.776C155.034 126.968 155.37 127.064 155.746 127.064ZM162.169 122.828V126.404C162.169 126.804 162.349 127.004 162.709 127.004C162.765 127.004 162.841 126.992 162.937 126.968C163.033 126.936 163.109 126.92 163.165 126.92C163.269 126.92 163.357 126.964 163.429 127.052C163.501 127.14 163.537 127.252 163.537 127.388C163.537 127.556 163.441 127.7 163.249 127.82C163.057 127.94 162.841 128 162.601 128C162.337 128 162.093 127.972 161.869 127.916C161.653 127.86 161.457 127.72 161.281 127.496C161.113 127.264 161.029 126.916 161.029 126.452V122.828H160.333C160.181 122.828 160.053 122.78 159.949 122.684C159.853 122.58 159.805 122.452 159.805 122.3C159.805 122.148 159.853 122.024 159.949 121.928C160.053 121.832 160.181 121.784 160.333 121.784H161.029V120.776C161.029 120.616 161.081 120.48 161.185 120.368C161.297 120.256 161.437 120.2 161.605 120.2C161.765 120.2 161.897 120.256 162.001 120.368C162.113 120.48 162.169 120.616 162.169 120.776V121.784H163.165C163.317 121.784 163.441 121.836 163.537 121.94C163.641 122.036 163.693 122.16 163.693 122.312C163.693 122.464 163.641 122.588 163.537 122.684C163.441 122.78 163.317 122.828 163.165 122.828H162.169ZM175.696 121.652C175.848 121.652 175.976 121.708 176.08 121.82C176.192 121.924 176.248 122.06 176.248 122.228C176.248 122.284 176.232 122.36 176.2 122.456L174.364 127.64C174.316 127.768 174.236 127.864 174.124 127.928C174.012 127.992 173.892 128.016 173.764 128C173.548 127.984 173.384 127.864 173.272 127.64L172.024 124.376L170.872 127.64C170.824 127.752 170.756 127.84 170.668 127.904C170.58 127.96 170.484 127.992 170.38 128C170.26 128.016 170.14 127.992 170.02 127.928C169.908 127.856 169.832 127.76 169.792 127.64L167.932 122.456C167.908 122.384 167.896 122.308 167.896 122.228C167.896 122.068 167.948 121.932 168.052 121.82C168.156 121.708 168.292 121.652 168.46 121.652C168.732 121.652 168.908 121.772 168.988 122.012L170.416 126.056L171.556 123.068C171.652 122.828 171.828 122.708 172.084 122.708C172.324 122.708 172.488 122.828 172.576 123.068L173.74 126.008L175.144 122.012C175.232 121.772 175.416 121.652 175.696 121.652ZM183.001 124.616C182.993 124.76 182.933 124.884 182.821 124.988C182.709 125.084 182.577 125.132 182.425 125.132H178.201C178.257 125.716 178.477 126.184 178.861 126.536C179.253 126.888 179.729 127.064 180.289 127.064C180.673 127.064 180.985 127.008 181.225 126.896C181.465 126.784 181.677 126.64 181.861 126.464C181.981 126.392 182.097 126.356 182.209 126.356C182.345 126.356 182.457 126.404 182.545 126.5C182.641 126.596 182.689 126.708 182.689 126.836C182.689 127.004 182.609 127.156 182.449 127.292C182.217 127.524 181.909 127.72 181.525 127.88C181.141 128.04 180.749 128.12 180.349 128.12C179.701 128.12 179.129 127.984 178.633 127.712C178.145 127.44 177.765 127.06 177.493 126.572C177.229 126.084 177.097 125.532 177.097 124.916C177.097 124.244 177.233 123.656 177.505 123.152C177.785 122.64 178.149 122.248 178.597 121.976C179.053 121.704 179.541 121.568 180.061 121.568C180.573 121.568 181.053 121.7 181.501 121.964C181.949 122.228 182.309 122.592 182.581 123.056C182.853 123.52 182.993 124.04 183.001 124.616ZM180.061 122.624C179.613 122.624 179.225 122.752 178.897 123.008C178.569 123.256 178.353 123.644 178.249 124.172H181.789V124.076C181.749 123.652 181.557 123.304 181.213 123.032C180.877 122.76 180.493 122.624 180.061 122.624ZM187.481 121.568C188.025 121.568 188.517 121.708 188.957 121.988C189.397 122.268 189.741 122.656 189.989 123.152C190.245 123.648 190.373 124.208 190.373 124.832C190.373 125.456 190.245 126.02 189.989 126.524C189.741 127.028 189.397 127.42 188.957 127.7C188.517 127.98 188.033 128.12 187.505 128.12C187.089 128.12 186.701 128.028 186.341 127.844C185.981 127.66 185.689 127.432 185.465 127.16V127.508C185.465 127.668 185.409 127.804 185.297 127.916C185.193 128.028 185.057 128.084 184.889 128.084C184.729 128.084 184.593 128.032 184.481 127.928C184.377 127.816 184.325 127.676 184.325 127.508V119.696C184.325 119.528 184.377 119.392 184.481 119.288C184.585 119.176 184.721 119.12 184.889 119.12C185.057 119.12 185.193 119.176 185.297 119.288C185.409 119.4 185.465 119.536 185.465 119.696V122.624C185.657 122.336 185.937 122.088 186.305 121.88C186.673 121.672 187.065 121.568 187.481 121.568ZM187.349 127.064C187.717 127.064 188.049 126.968 188.345 126.776C188.641 126.576 188.869 126.308 189.029 125.972C189.197 125.628 189.281 125.248 189.281 124.832C189.281 124.416 189.197 124.04 189.029 123.704C188.869 123.368 188.641 123.104 188.345 122.912C188.049 122.72 187.717 122.624 187.349 122.624C186.973 122.624 186.637 122.72 186.341 122.912C186.045 123.104 185.813 123.368 185.645 123.704C185.485 124.032 185.405 124.408 185.405 124.832C185.405 125.256 185.485 125.636 185.645 125.972C185.813 126.308 186.045 126.576 186.341 126.776C186.637 126.968 186.973 127.064 187.349 127.064ZM191.336 127.016C191.264 126.904 191.228 126.796 191.228 126.692C191.228 126.532 191.312 126.396 191.48 126.284C191.56 126.228 191.652 126.2 191.756 126.2C191.9 126.2 192.032 126.26 192.152 126.38C192.392 126.652 192.648 126.856 192.92 126.992C193.2 127.128 193.532 127.196 193.916 127.196C194.22 127.188 194.488 127.12 194.72 126.992C194.952 126.856 195.068 126.64 195.068 126.344C195.068 126.072 194.948 125.864 194.708 125.72C194.476 125.576 194.132 125.444 193.676 125.324C193.228 125.204 192.856 125.08 192.56 124.952C192.264 124.816 192.012 124.624 191.804 124.376C191.604 124.12 191.504 123.788 191.504 123.38C191.504 123.02 191.604 122.704 191.804 122.432C192.012 122.16 192.284 121.948 192.62 121.796C192.964 121.644 193.336 121.568 193.736 121.568C194.12 121.568 194.5 121.64 194.876 121.784C195.26 121.928 195.572 122.148 195.812 122.444C195.908 122.556 195.956 122.672 195.956 122.792C195.956 122.92 195.892 123.044 195.764 123.164C195.684 123.236 195.584 123.272 195.464 123.272C195.32 123.272 195.204 123.224 195.116 123.128C194.948 122.936 194.74 122.788 194.492 122.684C194.252 122.58 193.984 122.528 193.688 122.528C193.384 122.528 193.124 122.592 192.908 122.72C192.7 122.84 192.596 123.048 192.596 123.344C192.604 123.624 192.724 123.832 192.956 123.968C193.196 124.104 193.56 124.236 194.048 124.364C194.472 124.476 194.824 124.596 195.104 124.724C195.384 124.852 195.62 125.044 195.812 125.3C196.004 125.548 196.1 125.876 196.1 126.284C196.1 126.66 195.992 126.988 195.776 127.268C195.56 127.54 195.276 127.752 194.924 127.904C194.58 128.048 194.212 128.12 193.82 128.12C193.316 128.12 192.848 128.032 192.416 127.856C191.992 127.68 191.632 127.4 191.336 127.016ZM198.495 127.424C198.495 127.584 198.439 127.72 198.326 127.832C198.223 127.944 198.087 128 197.919 128C197.759 128 197.623 127.944 197.511 127.832C197.407 127.72 197.354 127.584 197.354 127.424V122.228C197.354 122.068 197.407 121.932 197.511 121.82C197.623 121.708 197.759 121.652 197.919 121.652C198.087 121.652 198.223 121.708 198.326 121.82C198.439 121.932 198.495 122.068 198.495 122.228V127.424ZM197.919 120.86C197.687 120.86 197.519 120.82 197.415 120.74C197.319 120.652 197.271 120.516 197.271 120.332V120.14C197.271 119.948 197.323 119.812 197.427 119.732C197.539 119.652 197.707 119.612 197.931 119.612C198.155 119.612 198.315 119.656 198.411 119.744C198.515 119.824 198.567 119.956 198.567 120.14V120.332C198.567 120.524 198.515 120.66 198.411 120.74C198.307 120.82 198.143 120.86 197.919 120.86ZM201.837 122.828V126.404C201.837 126.804 202.017 127.004 202.377 127.004C202.433 127.004 202.509 126.992 202.605 126.968C202.701 126.936 202.777 126.92 202.833 126.92C202.937 126.92 203.025 126.964 203.097 127.052C203.169 127.14 203.205 127.252 203.205 127.388C203.205 127.556 203.109 127.7 202.917 127.82C202.725 127.94 202.509 128 202.269 128C202.005 128 201.761 127.972 201.537 127.916C201.321 127.86 201.125 127.72 200.949 127.496C200.781 127.264 200.697 126.916 200.697 126.452V122.828H200.001C199.849 122.828 199.721 122.78 199.617 122.684C199.521 122.58 199.473 122.452 199.473 122.3C199.473 122.148 199.521 122.024 199.617 121.928C199.721 121.832 199.849 121.784 200.001 121.784H200.697V120.776C200.697 120.616 200.749 120.48 200.853 120.368C200.965 120.256 201.105 120.2 201.273 120.2C201.433 120.2 201.565 120.256 201.669 120.368C201.781 120.48 201.837 120.616 201.837 120.776V121.784H202.833C202.985 121.784 203.109 121.836 203.205 121.94C203.309 122.036 203.361 122.16 203.361 122.312C203.361 122.464 203.309 122.588 203.205 122.684C203.109 122.78 202.985 122.828 202.833 122.828H201.837ZM210.153 124.616C210.145 124.76 210.085 124.884 209.973 124.988C209.861 125.084 209.729 125.132 209.577 125.132H205.353C205.409 125.716 205.629 126.184 206.013 126.536C206.405 126.888 206.881 127.064 207.441 127.064C207.825 127.064 208.137 127.008 208.377 126.896C208.617 126.784 208.829 126.64 209.013 126.464C209.133 126.392 209.249 126.356 209.361 126.356C209.497 126.356 209.609 126.404 209.697 126.5C209.793 126.596 209.841 126.708 209.841 126.836C209.841 127.004 209.761 127.156 209.601 127.292C209.369 127.524 209.061 127.72 208.677 127.88C208.293 128.04 207.901 128.12 207.501 128.12C206.853 128.12 206.281 127.984 205.785 127.712C205.297 127.44 204.917 127.06 204.645 126.572C204.381 126.084 204.249 125.532 204.249 124.916C204.249 124.244 204.385 123.656 204.657 123.152C204.937 122.64 205.301 122.248 205.749 121.976C206.205 121.704 206.693 121.568 207.213 121.568C207.725 121.568 208.205 121.7 208.653 121.964C209.101 122.228 209.461 122.592 209.733 123.056C210.005 123.52 210.145 124.04 210.153 124.616ZM207.213 122.624C206.765 122.624 206.377 122.752 206.049 123.008C205.721 123.256 205.505 123.644 205.401 124.172H208.941V124.076C208.901 123.652 208.709 123.304 208.365 123.032C208.029 122.76 207.645 122.624 207.213 122.624ZM39.952 134.12C40.12 134.12 40.256 134.176 40.36 134.288C40.472 134.392 40.528 134.528 40.528 134.696V142.424C40.528 142.584 40.472 142.72 40.36 142.832C40.256 142.944 40.12 143 39.952 143C39.784 143 39.648 142.948 39.544 142.844C39.44 142.732 39.388 142.592 39.388 142.424V142.088C39.188 142.376 38.904 142.62 38.536 142.82C38.176 143.02 37.788 143.12 37.372 143.12C36.828 143.12 36.336 142.98 35.896 142.7C35.456 142.42 35.108 142.032 34.852 141.536C34.596 141.032 34.468 140.468 34.468 139.844C34.468 139.22 34.592 138.66 34.84 138.164C35.096 137.66 35.444 137.268 35.884 136.988C36.324 136.708 36.808 136.568 37.336 136.568C37.76 136.568 38.152 136.656 38.512 136.832C38.872 137.008 39.164 137.236 39.388 137.516V134.696C39.388 134.528 39.44 134.392 39.544 134.288C39.648 134.176 39.784 134.12 39.952 134.12ZM37.504 142.064C37.88 142.064 38.212 141.968 38.5 141.776C38.796 141.584 39.024 141.32 39.184 140.984C39.352 140.648 39.436 140.268 39.436 139.844C39.436 139.428 39.352 139.052 39.184 138.716C39.024 138.372 38.796 138.104 38.5 137.912C38.212 137.72 37.88 137.624 37.504 137.624C37.128 137.624 36.792 137.72 36.496 137.912C36.208 138.104 35.98 138.372 35.812 138.716C35.652 139.052 35.572 139.428 35.572 139.844C35.572 140.268 35.652 140.648 35.812 140.984C35.98 141.32 36.208 141.584 36.496 141.776C36.792 141.968 37.128 142.064 37.504 142.064ZM47.3231 136.628C47.4911 136.628 47.6271 136.684 47.7311 136.796C47.8431 136.9 47.8991 137.04 47.8991 137.216V142.424C47.8991 142.584 47.8431 142.72 47.7311 142.832C47.6271 142.944 47.4911 143 47.3231 143C47.1551 143 47.0191 142.948 46.9151 142.844C46.8111 142.732 46.7591 142.592 46.7591 142.424V142.112C46.5511 142.392 46.2671 142.632 45.9071 142.832C45.5471 143.024 45.1591 143.12 44.7431 143.12C44.1991 143.12 43.7031 142.98 43.2551 142.7C42.8151 142.42 42.4671 142.032 42.2111 141.536C41.9631 141.032 41.8391 140.468 41.8391 139.844C41.8391 139.22 41.9631 138.66 42.2111 138.164C42.4671 137.66 42.8151 137.268 43.2551 136.988C43.6951 136.708 44.1791 136.568 44.7071 136.568C45.1311 136.568 45.5231 136.656 45.8831 136.832C46.2511 137.008 46.5431 137.232 46.7591 137.504V137.216C46.7591 137.048 46.8111 136.908 46.9151 136.796C47.0191 136.684 47.1551 136.628 47.3231 136.628ZM44.8751 142.064C45.2511 142.064 45.5831 141.968 45.8711 141.776C46.1671 141.584 46.3951 141.32 46.5551 140.984C46.7231 140.648 46.8071 140.268 46.8071 139.844C46.8071 139.428 46.7231 139.052 46.5551 138.716C46.3951 138.38 46.1671 138.116 45.8711 137.924C45.5831 137.724 45.2511 137.624 44.8751 137.624C44.4991 137.624 44.1631 137.72 43.8671 137.912C43.5791 138.104 43.3511 138.368 43.1831 138.704C43.0231 139.04 42.9431 139.42 42.9431 139.844C42.9431 140.268 43.0231 140.648 43.1831 140.984C43.3511 141.32 43.5791 141.584 43.8671 141.776C44.1631 141.968 44.4991 142.064 44.8751 142.064ZM52.7982 136.568C54.2382 136.568 54.9582 137.432 54.9582 139.16V142.424C54.9582 142.584 54.9022 142.72 54.7902 142.832C54.6862 142.944 54.5502 143 54.3822 143C54.2222 143 54.0862 142.944 53.9742 142.832C53.8702 142.72 53.8182 142.584 53.8182 142.424V139.172C53.8182 138.7 53.7102 138.324 53.4942 138.044C53.2782 137.764 52.9262 137.624 52.4382 137.624C52.1182 137.624 51.8262 137.696 51.5622 137.84C51.3062 137.976 51.1022 138.164 50.9502 138.404C50.8062 138.636 50.7342 138.892 50.7342 139.172V142.424C50.7342 142.584 50.6782 142.72 50.5662 142.832C50.4622 142.944 50.3262 143 50.1582 143C49.9902 143 49.8542 142.948 49.7502 142.844C49.6462 142.732 49.5942 142.592 49.5942 142.424V137.288C49.5942 137.128 49.6462 136.992 49.7502 136.88C49.8622 136.768 49.9982 136.712 50.1582 136.712C50.3262 136.712 50.4622 136.768 50.5662 136.88C50.6782 136.992 50.7342 137.128 50.7342 137.288V137.708C50.9422 137.388 51.2302 137.12 51.5982 136.904C51.9742 136.68 52.3742 136.568 52.7982 136.568ZM63.1447 136.604C63.6887 136.604 64.1807 136.744 64.6207 137.024C65.0607 137.296 65.4047 137.68 65.6527 138.176C65.9087 138.672 66.0367 139.232 66.0367 139.856C66.0367 140.48 65.9087 141.04 65.6527 141.536C65.4047 142.024 65.0607 142.408 64.6207 142.688C64.1807 142.968 63.6967 143.108 63.1687 143.108C62.7527 143.108 62.3647 143.016 62.0047 142.832C61.6447 142.648 61.3527 142.424 61.1287 142.16V144.824C61.1287 144.984 61.0727 145.12 60.9607 145.232C60.8567 145.344 60.7207 145.4 60.5527 145.4C60.3927 145.4 60.2567 145.344 60.1447 145.232C60.0407 145.128 59.9887 144.992 59.9887 144.824V137.276C59.9887 137.108 60.0407 136.968 60.1447 136.856C60.2487 136.744 60.3847 136.688 60.5527 136.688C60.7207 136.688 60.8567 136.744 60.9607 136.856C61.0727 136.968 61.1287 137.108 61.1287 137.276V137.624C61.3207 137.344 61.6007 137.104 61.9687 136.904C62.3367 136.704 62.7287 136.604 63.1447 136.604ZM63.0127 142.052C63.3807 142.052 63.7127 141.956 64.0087 141.764C64.3047 141.572 64.5327 141.312 64.6927 140.984C64.8607 140.648 64.9447 140.272 64.9447 139.856C64.9447 139.44 64.8607 139.068 64.6927 138.74C64.5327 138.404 64.3047 138.14 64.0087 137.948C63.7127 137.756 63.3807 137.66 63.0127 137.66C62.6367 137.66 62.3007 137.756 62.0047 137.948C61.7087 138.132 61.4767 138.392 61.3087 138.728C61.1487 139.064 61.0687 139.44 61.0687 139.856C61.0687 140.272 61.1487 140.648 61.3087 140.984C61.4767 141.32 61.7087 141.584 62.0047 141.776C62.3007 141.96 62.6367 142.052 63.0127 142.052ZM72.8798 139.616C72.8718 139.76 72.8118 139.884 72.6998 139.988C72.5878 140.084 72.4558 140.132 72.3038 140.132H68.0798C68.1358 140.716 68.3558 141.184 68.7398 141.536C69.1318 141.888 69.6078 142.064 70.1678 142.064C70.5518 142.064 70.8638 142.008 71.1038 141.896C71.3438 141.784 71.5558 141.64 71.7398 141.464C71.8598 141.392 71.9758 141.356 72.0878 141.356C72.2238 141.356 72.3358 141.404 72.4238 141.5C72.5198 141.596 72.5678 141.708 72.5678 141.836C72.5678 142.004 72.4878 142.156 72.3278 142.292C72.0958 142.524 71.7878 142.72 71.4038 142.88C71.0198 143.04 70.6278 143.12 70.2278 143.12C69.5798 143.12 69.0078 142.984 68.5118 142.712C68.0238 142.44 67.6438 142.06 67.3718 141.572C67.1078 141.084 66.9758 140.532 66.9758 139.916C66.9758 139.244 67.1118 138.656 67.3838 138.152C67.6638 137.64 68.0278 137.248 68.4758 136.976C68.9318 136.704 69.4198 136.568 69.9398 136.568C70.4518 136.568 70.9318 136.7 71.3798 136.964C71.8278 137.228 72.1878 137.592 72.4598 138.056C72.7318 138.52 72.8718 139.04 72.8798 139.616ZM69.9398 137.624C69.4918 137.624 69.1038 137.752 68.7758 138.008C68.4478 138.256 68.2318 138.644 68.1278 139.172H71.6678V139.076C71.6278 138.652 71.4358 138.304 71.0918 138.032C70.7558 137.76 70.3718 137.624 69.9398 137.624ZM77.4076 136.568C78.8476 136.568 79.5676 137.432 79.5676 139.16V142.424C79.5676 142.584 79.5116 142.72 79.3996 142.832C79.2956 142.944 79.1596 143 78.9916 143C78.8316 143 78.6956 142.944 78.5836 142.832C78.4796 142.72 78.4276 142.584 78.4276 142.424V139.172C78.4276 138.7 78.3196 138.324 78.1036 138.044C77.8876 137.764 77.5356 137.624 77.0476 137.624C76.7276 137.624 76.4356 137.696 76.1716 137.84C75.9156 137.976 75.7116 138.164 75.5596 138.404C75.4156 138.636 75.3436 138.892 75.3436 139.172V142.424C75.3436 142.584 75.2876 142.72 75.1756 142.832C75.0716 142.944 74.9356 143 74.7676 143C74.5996 143 74.4636 142.948 74.3596 142.844C74.2556 142.732 74.2036 142.592 74.2036 142.424V137.288C74.2036 137.128 74.2556 136.992 74.3596 136.88C74.4716 136.768 74.6076 136.712 74.7676 136.712C74.9356 136.712 75.0716 136.768 75.1756 136.88C75.2876 136.992 75.3436 137.128 75.3436 137.288V137.708C75.5516 137.388 75.8396 137.12 76.2076 136.904C76.5836 136.68 76.9836 136.568 77.4076 136.568ZM86.526 136.628C86.694 136.628 86.83 136.684 86.934 136.796C87.046 136.9 87.102 137.04 87.102 137.216V142.496C87.102 143.144 86.962 143.684 86.682 144.116C86.41 144.556 86.038 144.88 85.566 145.088C85.094 145.296 84.562 145.4 83.97 145.4C83.65 145.4 83.274 145.344 82.842 145.232C82.418 145.12 82.146 145.004 82.026 144.884C81.778 144.756 81.654 144.596 81.654 144.404C81.654 144.356 81.67 144.292 81.702 144.212C81.79 144.012 81.938 143.912 82.146 143.912C82.25 143.912 82.362 143.936 82.482 143.984C83.122 144.232 83.622 144.356 83.982 144.356C84.622 144.356 85.11 144.2 85.446 143.888C85.79 143.584 85.962 143.164 85.962 142.628V141.98C85.794 142.292 85.51 142.56 85.11 142.784C84.718 143.008 84.302 143.12 83.862 143.12C83.31 143.12 82.806 142.98 82.35 142.7C81.894 142.42 81.534 142.032 81.27 141.536C81.014 141.032 80.886 140.468 80.886 139.844C80.886 139.22 81.014 138.66 81.27 138.164C81.534 137.66 81.89 137.268 82.338 136.988C82.794 136.708 83.294 136.568 83.838 136.568C84.278 136.568 84.686 136.668 85.062 136.868C85.446 137.068 85.746 137.312 85.962 137.6V137.216C85.962 137.048 86.014 136.908 86.118 136.796C86.222 136.684 86.358 136.628 86.526 136.628ZM83.994 142.064C84.386 142.064 84.734 141.972 85.038 141.788C85.342 141.596 85.578 141.332 85.746 140.996C85.922 140.652 86.01 140.268 86.01 139.844C86.01 139.42 85.922 139.04 85.746 138.704C85.578 138.368 85.342 138.104 85.038 137.912C84.734 137.72 84.386 137.624 83.994 137.624C83.61 137.624 83.266 137.72 82.962 137.912C82.658 138.104 82.418 138.372 82.242 138.716C82.074 139.052 81.99 139.428 81.99 139.844C81.99 140.26 82.074 140.64 82.242 140.984C82.418 141.32 82.658 141.584 82.962 141.776C83.266 141.968 83.61 142.064 83.994 142.064ZM94.079 139.616C94.071 139.76 94.011 139.884 93.899 139.988C93.787 140.084 93.655 140.132 93.503 140.132H89.279C89.335 140.716 89.555 141.184 89.939 141.536C90.331 141.888 90.807 142.064 91.367 142.064C91.751 142.064 92.063 142.008 92.303 141.896C92.543 141.784 92.755 141.64 92.939 141.464C93.059 141.392 93.175 141.356 93.287 141.356C93.423 141.356 93.535 141.404 93.623 141.5C93.719 141.596 93.767 141.708 93.767 141.836C93.767 142.004 93.687 142.156 93.527 142.292C93.295 142.524 92.987 142.72 92.603 142.88C92.219 143.04 91.827 143.12 91.427 143.12C90.779 143.12 90.207 142.984 89.711 142.712C89.223 142.44 88.843 142.06 88.571 141.572C88.307 141.084 88.175 140.532 88.175 139.916C88.175 139.244 88.311 138.656 88.583 138.152C88.863 137.64 89.227 137.248 89.675 136.976C90.131 136.704 90.619 136.568 91.139 136.568C91.651 136.568 92.131 136.7 92.579 136.964C93.027 137.228 93.387 137.592 93.659 138.056C93.931 138.52 94.071 139.04 94.079 139.616ZM91.139 137.624C90.691 137.624 90.303 137.752 89.975 138.008C89.647 138.256 89.431 138.644 89.327 139.172H92.867V139.076C92.827 138.652 92.635 138.304 92.291 138.032C91.955 137.76 91.571 137.624 91.139 137.624ZM102.615 136.604C104.015 136.604 104.715 137.476 104.715 139.22V142.424C104.715 142.592 104.663 142.732 104.559 142.844C104.455 142.948 104.319 143 104.151 143C103.983 143 103.843 142.944 103.731 142.832C103.627 142.72 103.575 142.584 103.575 142.424V139.232C103.575 138.184 103.135 137.66 102.255 137.66C101.943 137.66 101.659 137.732 101.403 137.876C101.155 138.012 100.959 138.2 100.815 138.44C100.679 138.68 100.611 138.944 100.611 139.232V142.424C100.611 142.584 100.555 142.72 100.443 142.832C100.339 142.944 100.203 143 100.035 143C99.8668 143 99.7308 142.948 99.6268 142.844C99.5228 142.732 99.4708 142.592 99.4708 142.424V139.22C99.4708 138.748 99.3708 138.372 99.1708 138.092C98.9708 137.804 98.6388 137.66 98.1748 137.66C97.7028 137.66 97.3108 137.812 96.9988 138.116C96.6948 138.412 96.5428 138.78 96.5428 139.22V142.424C96.5428 142.584 96.4868 142.72 96.3748 142.832C96.2708 142.944 96.1348 143 95.9668 143C95.7988 143 95.6628 142.948 95.5588 142.844C95.4548 142.732 95.4028 142.592 95.4028 142.424V137.288C95.4028 137.128 95.4548 136.992 95.5588 136.88C95.6708 136.768 95.8068 136.712 95.9668 136.712C96.1348 136.712 96.2708 136.768 96.3748 136.88C96.4868 136.992 96.5428 137.128 96.5428 137.288V137.708C96.7508 137.396 97.0268 137.136 97.3708 136.928C97.7228 136.712 98.1028 136.604 98.5108 136.604C99.5028 136.604 100.147 137.044 100.443 137.924C100.619 137.588 100.911 137.284 101.319 137.012C101.727 136.74 102.159 136.604 102.615 136.604ZM109.574 136.568C110.118 136.568 110.61 136.708 111.05 136.988C111.49 137.268 111.834 137.656 112.082 138.152C112.338 138.648 112.466 139.208 112.466 139.832C112.466 140.456 112.338 141.02 112.082 141.524C111.834 142.028 111.49 142.42 111.05 142.7C110.61 142.98 110.126 143.12 109.598 143.12C109.182 143.12 108.794 143.028 108.434 142.844C108.074 142.66 107.782 142.432 107.558 142.16V142.508C107.558 142.668 107.502 142.804 107.39 142.916C107.286 143.028 107.15 143.084 106.982 143.084C106.822 143.084 106.686 143.032 106.574 142.928C106.47 142.816 106.418 142.676 106.418 142.508V134.696C106.418 134.528 106.47 134.392 106.574 134.288C106.678 134.176 106.814 134.12 106.982 134.12C107.15 134.12 107.286 134.176 107.39 134.288C107.502 134.4 107.558 134.536 107.558 134.696V137.624C107.75 137.336 108.03 137.088 108.398 136.88C108.766 136.672 109.158 136.568 109.574 136.568ZM109.442 142.064C109.81 142.064 110.142 141.968 110.438 141.776C110.734 141.576 110.962 141.308 111.122 140.972C111.29 140.628 111.374 140.248 111.374 139.832C111.374 139.416 111.29 139.04 111.122 138.704C110.962 138.368 110.734 138.104 110.438 137.912C110.142 137.72 109.81 137.624 109.442 137.624C109.066 137.624 108.73 137.72 108.434 137.912C108.138 138.104 107.906 138.368 107.738 138.704C107.578 139.032 107.498 139.408 107.498 139.832C107.498 140.256 107.578 140.636 107.738 140.972C107.906 141.308 108.138 141.576 108.434 141.776C108.73 141.968 109.066 142.064 109.442 142.064ZM118.89 136.628C119.058 136.628 119.194 136.684 119.298 136.796C119.41 136.9 119.466 137.04 119.466 137.216V142.424C119.466 142.584 119.41 142.72 119.298 142.832C119.194 142.944 119.058 143 118.89 143C118.722 143 118.586 142.948 118.482 142.844C118.378 142.732 118.326 142.592 118.326 142.424V142.112C118.118 142.392 117.834 142.632 117.474 142.832C117.114 143.024 116.726 143.12 116.31 143.12C115.766 143.12 115.27 142.98 114.822 142.7C114.382 142.42 114.034 142.032 113.778 141.536C113.53 141.032 113.406 140.468 113.406 139.844C113.406 139.22 113.53 138.66 113.778 138.164C114.034 137.66 114.382 137.268 114.822 136.988C115.262 136.708 115.746 136.568 116.274 136.568C116.698 136.568 117.09 136.656 117.45 136.832C117.818 137.008 118.11 137.232 118.326 137.504V137.216C118.326 137.048 118.378 136.908 118.482 136.796C118.586 136.684 118.722 136.628 118.89 136.628ZM116.442 142.064C116.818 142.064 117.15 141.968 117.438 141.776C117.734 141.584 117.962 141.32 118.122 140.984C118.29 140.648 118.374 140.268 118.374 139.844C118.374 139.428 118.29 139.052 118.122 138.716C117.962 138.38 117.734 138.116 117.438 137.924C117.15 137.724 116.818 137.624 116.442 137.624C116.066 137.624 115.73 137.72 115.434 137.912C115.146 138.104 114.918 138.368 114.75 138.704C114.59 139.04 114.51 139.42 114.51 139.844C114.51 140.268 114.59 140.648 114.75 140.984C114.918 141.32 115.146 141.584 115.434 141.776C115.73 141.968 116.066 142.064 116.442 142.064ZM124.365 136.568C125.805 136.568 126.525 137.432 126.525 139.16V142.424C126.525 142.584 126.469 142.72 126.357 142.832C126.253 142.944 126.117 143 125.949 143C125.789 143 125.653 142.944 125.541 142.832C125.437 142.72 125.385 142.584 125.385 142.424V139.172C125.385 138.7 125.277 138.324 125.061 138.044C124.845 137.764 124.493 137.624 124.005 137.624C123.685 137.624 123.393 137.696 123.129 137.84C122.873 137.976 122.669 138.164 122.517 138.404C122.373 138.636 122.301 138.892 122.301 139.172V142.424C122.301 142.584 122.245 142.72 122.133 142.832C122.029 142.944 121.893 143 121.725 143C121.557 143 121.421 142.948 121.317 142.844C121.213 142.732 121.161 142.592 121.161 142.424V137.288C121.161 137.128 121.213 136.992 121.317 136.88C121.429 136.768 121.565 136.712 121.725 136.712C121.893 136.712 122.029 136.768 122.133 136.88C122.245 136.992 122.301 137.128 122.301 137.288V137.708C122.509 137.388 122.797 137.12 123.165 136.904C123.541 136.68 123.941 136.568 124.365 136.568ZM133.483 136.628C133.651 136.628 133.787 136.684 133.891 136.796C134.003 136.9 134.059 137.04 134.059 137.216V142.496C134.059 143.144 133.919 143.684 133.639 144.116C133.367 144.556 132.995 144.88 132.523 145.088C132.051 145.296 131.519 145.4 130.927 145.4C130.607 145.4 130.231 145.344 129.799 145.232C129.375 145.12 129.103 145.004 128.983 144.884C128.735 144.756 128.611 144.596 128.611 144.404C128.611 144.356 128.627 144.292 128.659 144.212C128.747 144.012 128.895 143.912 129.103 143.912C129.207 143.912 129.319 143.936 129.439 143.984C130.079 144.232 130.579 144.356 130.939 144.356C131.579 144.356 132.067 144.2 132.403 143.888C132.747 143.584 132.919 143.164 132.919 142.628V141.98C132.751 142.292 132.467 142.56 132.067 142.784C131.675 143.008 131.259 143.12 130.819 143.12C130.267 143.12 129.763 142.98 129.307 142.7C128.851 142.42 128.491 142.032 128.227 141.536C127.971 141.032 127.843 140.468 127.843 139.844C127.843 139.22 127.971 138.66 128.227 138.164C128.491 137.66 128.847 137.268 129.295 136.988C129.751 136.708 130.251 136.568 130.795 136.568C131.235 136.568 131.643 136.668 132.019 136.868C132.403 137.068 132.703 137.312 132.919 137.6V137.216C132.919 137.048 132.971 136.908 133.075 136.796C133.179 136.684 133.315 136.628 133.483 136.628ZM130.951 142.064C131.343 142.064 131.691 141.972 131.995 141.788C132.299 141.596 132.535 141.332 132.703 140.996C132.879 140.652 132.967 140.268 132.967 139.844C132.967 139.42 132.879 139.04 132.703 138.704C132.535 138.368 132.299 138.104 131.995 137.912C131.691 137.72 131.343 137.624 130.951 137.624C130.567 137.624 130.223 137.72 129.919 137.912C129.615 138.104 129.375 138.372 129.199 138.716C129.031 139.052 128.947 139.428 128.947 139.844C128.947 140.26 129.031 140.64 129.199 140.984C129.375 141.32 129.615 141.584 129.919 141.776C130.223 141.968 130.567 142.064 130.951 142.064ZM140.792 136.628C140.96 136.628 141.096 136.684 141.2 136.796C141.312 136.9 141.368 137.04 141.368 137.216V142.424C141.368 142.584 141.312 142.72 141.2 142.832C141.096 142.944 140.96 143 140.792 143C140.624 143 140.488 142.948 140.384 142.844C140.28 142.732 140.228 142.592 140.228 142.424V142.112C140.02 142.392 139.736 142.632 139.376 142.832C139.016 143.024 138.628 143.12 138.212 143.12C137.668 143.12 137.172 142.98 136.724 142.7C136.284 142.42 135.936 142.032 135.68 141.536C135.432 141.032 135.308 140.468 135.308 139.844C135.308 139.22 135.432 138.66 135.68 138.164C135.936 137.66 136.284 137.268 136.724 136.988C137.164 136.708 137.648 136.568 138.176 136.568C138.6 136.568 138.992 136.656 139.352 136.832C139.72 137.008 140.012 137.232 140.228 137.504V137.216C140.228 137.048 140.28 136.908 140.384 136.796C140.488 136.684 140.624 136.628 140.792 136.628ZM138.344 142.064C138.72 142.064 139.052 141.968 139.34 141.776C139.636 141.584 139.864 141.32 140.024 140.984C140.192 140.648 140.276 140.268 140.276 139.844C140.276 139.428 140.192 139.052 140.024 138.716C139.864 138.38 139.636 138.116 139.34 137.924C139.052 137.724 138.72 137.624 138.344 137.624C137.968 137.624 137.632 137.72 137.336 137.912C137.048 138.104 136.82 138.368 136.652 138.704C136.492 139.04 136.412 139.42 136.412 139.844C136.412 140.268 136.492 140.648 136.652 140.984C136.82 141.32 137.048 141.584 137.336 141.776C137.632 141.968 137.968 142.064 138.344 142.064ZM146.267 136.568C147.707 136.568 148.427 137.432 148.427 139.16V142.424C148.427 142.584 148.371 142.72 148.259 142.832C148.155 142.944 148.019 143 147.851 143C147.691 143 147.555 142.944 147.443 142.832C147.339 142.72 147.287 142.584 147.287 142.424V139.172C147.287 138.7 147.179 138.324 146.963 138.044C146.747 137.764 146.395 137.624 145.907 137.624C145.587 137.624 145.295 137.696 145.031 137.84C144.775 137.976 144.571 138.164 144.419 138.404C144.275 138.636 144.203 138.892 144.203 139.172V142.424C144.203 142.584 144.147 142.72 144.035 142.832C143.931 142.944 143.795 143 143.627 143C143.459 143 143.323 142.948 143.219 142.844C143.115 142.732 143.063 142.592 143.063 142.424V137.288C143.063 137.128 143.115 136.992 143.219 136.88C143.331 136.768 143.467 136.712 143.627 136.712C143.795 136.712 143.931 136.768 144.035 136.88C144.147 136.992 144.203 137.128 144.203 137.288V137.708C144.411 137.388 144.699 137.12 145.067 136.904C145.443 136.68 145.843 136.568 146.267 136.568ZM156.661 136.568C158.101 136.568 158.821 137.432 158.821 139.16V142.424C158.821 142.584 158.765 142.72 158.653 142.832C158.549 142.944 158.413 143 158.245 143C158.085 143 157.949 142.944 157.837 142.832C157.733 142.72 157.681 142.584 157.681 142.424V139.172C157.681 138.7 157.573 138.324 157.357 138.044C157.141 137.764 156.789 137.624 156.301 137.624C155.981 137.624 155.689 137.696 155.425 137.84C155.169 137.976 154.965 138.164 154.813 138.404C154.669 138.636 154.597 138.892 154.597 139.172V142.424C154.597 142.584 154.541 142.72 154.429 142.832C154.325 142.944 154.189 143 154.021 143C153.853 143 153.717 142.948 153.613 142.844C153.509 142.732 153.457 142.592 153.457 142.424V137.288C153.457 137.128 153.509 136.992 153.613 136.88C153.725 136.768 153.861 136.712 154.021 136.712C154.189 136.712 154.325 136.768 154.429 136.88C154.541 136.992 154.597 137.128 154.597 137.288V137.708C154.805 137.388 155.093 137.12 155.461 136.904C155.837 136.68 156.237 136.568 156.661 136.568ZM165.145 136.652C165.313 136.652 165.449 136.708 165.553 136.82C165.665 136.932 165.721 137.068 165.721 137.228V142.412C165.721 143.412 165.445 144.16 164.893 144.656C164.341 145.152 163.613 145.4 162.709 145.4C162.413 145.4 162.121 145.372 161.833 145.316C161.545 145.26 161.309 145.184 161.125 145.088C160.829 144.952 160.681 144.768 160.681 144.536C160.681 144.496 160.689 144.444 160.705 144.38C160.753 144.244 160.821 144.14 160.909 144.068C160.997 143.996 161.097 143.96 161.209 143.96C161.273 143.96 161.333 143.972 161.389 143.996C161.637 144.108 161.857 144.196 162.049 144.26C162.241 144.324 162.465 144.356 162.721 144.356C163.961 144.356 164.581 143.72 164.581 142.448V142.208C164.365 142.496 164.085 142.72 163.741 142.88C163.405 143.04 163.017 143.12 162.577 143.12C161.913 143.12 161.393 142.908 161.017 142.484C160.649 142.06 160.465 141.504 160.465 140.816V137.228C160.465 137.06 160.517 136.924 160.621 136.82C160.725 136.708 160.861 136.652 161.029 136.652C161.197 136.652 161.333 136.708 161.437 136.82C161.549 136.932 161.605 137.068 161.605 137.228V140.516C161.605 141.044 161.721 141.436 161.953 141.692C162.185 141.94 162.537 142.064 163.009 142.064C163.465 142.064 163.841 141.92 164.137 141.632C164.433 141.344 164.581 140.972 164.581 140.516V137.228C164.581 137.06 164.633 136.924 164.737 136.82C164.841 136.708 164.977 136.652 165.145 136.652ZM172.995 136.628C173.163 136.628 173.299 136.684 173.403 136.796C173.515 136.9 173.571 137.04 173.571 137.216V142.424C173.571 142.584 173.515 142.72 173.403 142.832C173.299 142.944 173.163 143 172.995 143C172.827 143 172.691 142.948 172.587 142.844C172.483 142.732 172.431 142.592 172.431 142.424V142.112C172.223 142.392 171.939 142.632 171.579 142.832C171.219 143.024 170.831 143.12 170.415 143.12C169.871 143.12 169.375 142.98 168.927 142.7C168.487 142.42 168.139 142.032 167.883 141.536C167.635 141.032 167.511 140.468 167.511 139.844C167.511 139.22 167.635 138.66 167.883 138.164C168.139 137.66 168.487 137.268 168.927 136.988C169.367 136.708 169.851 136.568 170.379 136.568C170.803 136.568 171.195 136.656 171.555 136.832C171.923 137.008 172.215 137.232 172.431 137.504V137.216C172.431 137.048 172.483 136.908 172.587 136.796C172.691 136.684 172.827 136.628 172.995 136.628ZM170.547 142.064C170.923 142.064 171.255 141.968 171.543 141.776C171.839 141.584 172.067 141.32 172.227 140.984C172.395 140.648 172.479 140.268 172.479 139.844C172.479 139.428 172.395 139.052 172.227 138.716C172.067 138.38 171.839 138.116 171.543 137.924C171.255 137.724 170.923 137.624 170.547 137.624C170.171 137.624 169.835 137.72 169.539 137.912C169.251 138.104 169.023 138.368 168.855 138.704C168.695 139.04 168.615 139.42 168.615 139.844C168.615 140.268 168.695 140.648 168.855 140.984C169.023 141.32 169.251 141.584 169.539 141.776C169.835 141.968 170.171 142.064 170.547 142.064ZM175.818 140.48C175.594 140.48 175.474 140.352 175.458 140.096L175.194 135.32C175.178 135.112 175.226 134.94 175.338 134.804C175.458 134.668 175.614 134.6 175.806 134.6C176.006 134.6 176.162 134.668 176.274 134.804C176.386 134.94 176.434 135.112 176.418 135.32L176.166 140.096C176.158 140.224 176.122 140.32 176.058 140.384C176.002 140.448 175.922 140.48 175.818 140.48ZM175.746 143C175.554 143 175.406 142.948 175.302 142.844C175.206 142.732 175.158 142.58 175.158 142.388V142.16C175.158 141.968 175.206 141.82 175.302 141.716C175.406 141.604 175.554 141.548 175.746 141.548H175.878C176.07 141.548 176.214 141.604 176.31 141.716C176.414 141.82 176.466 141.968 176.466 142.16V142.388C176.466 142.58 176.414 142.732 176.31 142.844C176.214 142.948 176.07 143 175.878 143H175.746Z" fill="#FCF7F8"/>
<rect x="34" y="161" width="71" height="26" rx="6" fill="white" fill-opacity="0.15"/>
<path d="M55.84 173.18C56.2067 173.307 56.5067 173.517 56.74 173.81C56.98 174.097 57.1 174.473 57.1 174.94C57.1 175.68 56.8833 176.21 56.45 176.53C56.0233 176.843 55.5 177 54.88 177H52.31C52.1767 177 52.0633 176.953 51.97 176.86C51.8767 176.767 51.83 176.653 51.83 176.52V170.48C51.83 170.347 51.8767 170.233 51.97 170.14C52.0633 170.047 52.1767 170 52.31 170H54.88C55.4867 170 55.9467 170.15 56.26 170.45C56.58 170.75 56.74 171.183 56.74 171.75C56.74 172.07 56.6633 172.357 56.51 172.61C56.3567 172.857 56.1333 173.047 55.84 173.18ZM55.71 171.9C55.71 171.587 55.6233 171.35 55.45 171.19C55.2833 171.023 55.0467 170.94 54.74 170.94H52.85V172.89H54.76C55.0333 172.883 55.26 172.797 55.44 172.63C55.62 172.457 55.71 172.213 55.71 171.9ZM54.87 176.08C55.2367 176.08 55.53 175.987 55.75 175.8C55.97 175.607 56.08 175.32 56.08 174.94C56.08 174.2 55.66 173.83 54.82 173.83H52.85V176.08H54.87ZM62.4932 171.69C62.6332 171.69 62.7465 171.737 62.8332 171.83C62.9265 171.917 62.9732 172.033 62.9732 172.18V176.52C62.9732 176.653 62.9265 176.767 62.8332 176.86C62.7465 176.953 62.6332 177 62.4932 177C62.3532 177 62.2399 176.957 62.1532 176.87C62.0665 176.777 62.0232 176.66 62.0232 176.52V176.26C61.8499 176.493 61.6132 176.693 61.3132 176.86C61.0132 177.02 60.6899 177.1 60.3432 177.1C59.8899 177.1 59.4765 176.983 59.1032 176.75C58.7365 176.517 58.4465 176.193 58.2332 175.78C58.0265 175.36 57.9232 174.89 57.9232 174.37C57.9232 173.85 58.0265 173.383 58.2332 172.97C58.4465 172.55 58.7365 172.223 59.1032 171.99C59.4699 171.757 59.8732 171.64 60.3132 171.64C60.6665 171.64 60.9932 171.713 61.2932 171.86C61.5999 172.007 61.8432 172.193 62.0232 172.42V172.18C62.0232 172.04 62.0665 171.923 62.1532 171.83C62.2399 171.737 62.3532 171.69 62.4932 171.69ZM60.4532 176.22C60.7665 176.22 61.0432 176.14 61.2832 175.98C61.5299 175.82 61.7199 175.6 61.8532 175.32C61.9932 175.04 62.0632 174.723 62.0632 174.37C62.0632 174.023 61.9932 173.71 61.8532 173.43C61.7199 173.15 61.5299 172.93 61.2832 172.77C61.0432 172.603 60.7665 172.52 60.4532 172.52C60.1399 172.52 59.8599 172.6 59.6132 172.76C59.3732 172.92 59.1832 173.14 59.0432 173.42C58.9099 173.7 58.8432 174.017 58.8432 174.37C58.8432 174.723 58.9099 175.04 59.0432 175.32C59.1832 175.6 59.3732 175.82 59.6132 175.98C59.8599 176.14 60.1399 176.22 60.4532 176.22ZM66.6658 171.64C67.1924 171.64 67.6291 171.723 67.9758 171.89C68.3291 172.057 68.5058 172.27 68.5058 172.53C68.5058 172.643 68.4691 172.747 68.3958 172.84C68.3224 172.927 68.2291 172.97 68.1158 172.97C68.0291 172.97 67.9591 172.957 67.9058 172.93C67.8591 172.903 67.7924 172.86 67.7058 172.8C67.6658 172.76 67.6024 172.713 67.5158 172.66C67.4358 172.62 67.3224 172.587 67.1758 172.56C67.0291 172.533 66.8958 172.52 66.7758 172.52C66.4291 172.52 66.1224 172.6 65.8558 172.76C65.5891 172.92 65.3824 173.143 65.2358 173.43C65.0891 173.71 65.0158 174.023 65.0158 174.37C65.0158 174.723 65.0858 175.04 65.2258 175.32C65.3724 175.6 65.5758 175.82 65.8358 175.98C66.0958 176.14 66.3924 176.22 66.7258 176.22C67.0724 176.22 67.3524 176.167 67.5658 176.06C67.6124 176.033 67.6758 175.99 67.7558 175.93C67.8224 175.877 67.8791 175.837 67.9258 175.81C67.9791 175.783 68.0424 175.77 68.1158 175.77C68.2491 175.77 68.3524 175.813 68.4258 175.9C68.5058 175.98 68.5458 176.087 68.5458 176.22C68.5458 176.36 68.4558 176.5 68.2758 176.64C68.1024 176.773 67.8658 176.883 67.5658 176.97C67.2724 177.057 66.9558 177.1 66.6158 177.1C66.1091 177.1 65.6624 176.983 65.2758 176.75C64.8891 176.51 64.5891 176.183 64.3758 175.77C64.1691 175.35 64.0658 174.883 64.0658 174.37C64.0658 173.857 64.1758 173.393 64.3958 172.98C64.6158 172.56 64.9224 172.233 65.3158 172C65.7091 171.76 66.1591 171.64 66.6658 171.64ZM73.7725 171.69C73.9125 171.69 74.0258 171.737 74.1125 171.83C74.2058 171.917 74.2525 172.033 74.2525 172.18V176.52C74.2525 176.653 74.2058 176.767 74.1125 176.86C74.0258 176.953 73.9125 177 73.7725 177C73.6325 177 73.5192 176.957 73.4325 176.87C73.3458 176.777 73.3025 176.66 73.3025 176.52V176.26C73.1292 176.493 72.8925 176.693 72.5925 176.86C72.2925 177.02 71.9692 177.1 71.6225 177.1C71.1692 177.1 70.7558 176.983 70.3825 176.75C70.0158 176.517 69.7258 176.193 69.5125 175.78C69.3058 175.36 69.2025 174.89 69.2025 174.37C69.2025 173.85 69.3058 173.383 69.5125 172.97C69.7258 172.55 70.0158 172.223 70.3825 171.99C70.7492 171.757 71.1525 171.64 71.5925 171.64C71.9458 171.64 72.2725 171.713 72.5725 171.86C72.8792 172.007 73.1225 172.193 73.3025 172.42V172.18C73.3025 172.04 73.3458 171.923 73.4325 171.83C73.5192 171.737 73.6325 171.69 73.7725 171.69ZM71.7325 176.22C72.0458 176.22 72.3225 176.14 72.5625 175.98C72.8092 175.82 72.9992 175.6 73.1325 175.32C73.2725 175.04 73.3425 174.723 73.3425 174.37C73.3425 174.023 73.2725 173.71 73.1325 173.43C72.9992 173.15 72.8092 172.93 72.5625 172.77C72.3225 172.603 72.0458 172.52 71.7325 172.52C71.4192 172.52 71.1392 172.6 70.8925 172.76C70.6525 172.92 70.4625 173.14 70.3225 173.42C70.1892 173.7 70.1225 174.017 70.1225 174.37C70.1225 174.723 70.1892 175.04 70.3225 175.32C70.4625 175.6 70.6525 175.82 70.8925 175.98C71.1392 176.14 71.4192 176.22 71.7325 176.22Z" fill="#D8D8D9"/>
</g>
<defs>
<clipPath id="clip0">
<rect width="359" height="206" fill="white"/>
</clipPath>
</defs>
</svg>
