<svg width="368" height="320" viewBox="0 0 368 320" fill="none" xmlns="http://www.w3.org/2000/svg">
<g clip-path="url(#clip0)">
<path d="M99.6251 66.3011C99.8859 65.1865 100.017 64.0455 100.015 62.9008C100.015 58.8927 98.4234 55.0486 95.5899 52.2138C92.7565 49.3789 88.9132 47.7853 84.9051 47.7834C83.5723 47.7825 82.2454 47.9607 80.9601 48.3133C79.4266 45.589 77.0532 43.4336 74.1942 42.1689C71.3352 40.9042 68.1438 40.5979 65.0965 41.2958C62.0491 41.9937 59.3091 43.6583 57.2855 46.0412C55.2618 48.4242 54.063 51.3976 53.8679 54.5178C53.1401 54.3784 52.401 54.307 51.6599 54.3043C48.7472 54.3023 45.9358 55.3739 43.7634 57.3142C41.591 59.2544 40.2098 61.9273 39.8839 64.8218C38.2434 64.9935 36.726 65.7712 35.6286 67.0026C34.5311 68.234 33.9326 69.8306 33.9501 71.48C33.9676 73.1293 34.5998 74.7129 35.7231 75.9207C36.8464 77.1286 38.38 77.8739 40.0238 78.0109H95.4593C96.8135 77.995 98.1303 77.5643 99.2323 76.777C100.334 75.9897 101.168 74.8835 101.622 73.6075C102.076 72.3315 102.128 70.9471 101.771 69.6407C101.414 68.3343 100.665 67.1687 99.6251 66.3011V66.3011Z" stroke="#263238" stroke-linecap="round" stroke-linejoin="round"/>
<path d="M59.3218 89.2202V104.492" stroke="#263238" stroke-linecap="round" stroke-linejoin="round"/>
<path d="M59.3218 80.0569V86.1657" stroke="#263238" stroke-linecap="round" stroke-linejoin="round"/>
<path d="M59.3218 74.353V77.6208" stroke="#263238" stroke-linecap="round" stroke-linejoin="round"/>
<path d="M56.4365 102.704L59.3143 106.273L62.1994 102.704" stroke="#263238" stroke-linecap="round" stroke-linejoin="round"/>
<path d="M69.1621 95.7632V111.035" stroke="#263238" stroke-linecap="round" stroke-linejoin="round"/>
<path d="M69.1621 86.6V92.7088" stroke="#263238" stroke-linecap="round" stroke-linejoin="round"/>
<path d="M69.1621 80.896V84.1638" stroke="#263238" stroke-linecap="round" stroke-linejoin="round"/>
<path d="M66.2769 109.247L69.162 112.816L72.0471 109.247" stroke="#263238" stroke-linecap="round" stroke-linejoin="round"/>
<path d="M78.3545 82.9274V98.1994" stroke="#263238" stroke-linecap="round" stroke-linejoin="round"/>
<path d="M78.3545 73.7642V79.873" stroke="#263238" stroke-linecap="round" stroke-linejoin="round"/>
<path d="M78.3545 68.0602V71.328" stroke="#263238" stroke-linecap="round" stroke-linejoin="round"/>
<path d="M75.4697 96.4109L78.3548 99.9805L81.24 96.4109" stroke="#263238" stroke-linecap="round" stroke-linejoin="round"/>
<path d="M224.568 169.466C223.982 166.922 224.065 164.27 224.809 161.767C225.553 159.264 226.932 156.997 228.812 155.186C230.692 153.375 233.009 152.081 235.538 151.431C238.066 150.782 240.72 150.798 243.241 151.478C244.775 148.754 247.149 146.598 250.008 145.334C252.868 144.069 256.06 143.764 259.108 144.462C262.155 145.161 264.895 146.827 266.918 149.211C268.941 151.595 270.139 154.569 270.333 157.69C271.061 157.551 271.8 157.479 272.541 157.477C275.452 157.475 278.263 158.545 280.435 160.484C282.607 162.423 283.989 165.094 284.317 167.987C285.957 168.159 287.475 168.936 288.572 170.168C289.67 171.399 290.268 172.996 290.251 174.645C290.233 176.294 289.601 177.878 288.478 179.086C287.354 180.294 285.821 181.039 284.177 181.176H228.741C227.387 181.162 226.069 180.732 224.966 179.945C223.863 179.158 223.027 178.052 222.572 176.776C222.118 175.5 222.065 174.115 222.422 172.808C222.779 171.5 223.528 170.334 224.568 169.466V169.466Z" stroke="#263238" stroke-linecap="round" stroke-linejoin="round"/>
<path d="M262.524 186.792V171.52" stroke="#263238" stroke-linecap="round" stroke-linejoin="round"/>
<path d="M262.524 195.955V189.846" stroke="#263238" stroke-linecap="round" stroke-linejoin="round"/>
<path d="M262.524 201.659V198.398" stroke="#263238" stroke-linecap="round" stroke-linejoin="round"/>
<path d="M265.409 173.308L262.524 169.739L259.639 173.308" stroke="#263238" stroke-linecap="round" stroke-linejoin="round"/>
<path d="M252.684 180.249V164.984" stroke="#263238" stroke-linecap="round" stroke-linejoin="round"/>
<path d="M252.684 189.412V183.303" stroke="#263238" stroke-linecap="round" stroke-linejoin="round"/>
<path d="M252.684 195.123V191.855" stroke="#263238" stroke-linecap="round" stroke-linejoin="round"/>
<path d="M255.569 166.765L252.684 163.196L249.799 166.765" stroke="#263238" stroke-linecap="round" stroke-linejoin="round"/>
<path d="M243.484 193.084V177.812" stroke="#263238" stroke-linecap="round" stroke-linejoin="round"/>
<path d="M243.484 202.248V196.139" stroke="#263238" stroke-linecap="round" stroke-linejoin="round"/>
<path d="M243.484 207.952V204.684" stroke="#263238" stroke-linecap="round" stroke-linejoin="round"/>
<path d="M246.369 179.601L243.484 176.031L240.606 179.601" stroke="#263238" stroke-linecap="round" stroke-linejoin="round"/>
<path d="M25.2671 294.873H344.669" stroke="#263238" stroke-miterlimit="10"/>
<path d="M267.013 249.624C267.013 249.624 279.702 250.625 280.261 259.98C280.232 259.98 267.381 265.897 267.013 249.624Z" fill="#6692D8" stroke="#263238" stroke-linecap="round" stroke-linejoin="round"/>
<path d="M292.111 251.942C292.111 251.942 299.199 242.374 310.651 247.276C310.651 247.276 303.659 258.861 292.111 251.942Z" fill="#6692D8" stroke="#263238" stroke-linecap="round" stroke-linejoin="round"/>
<path d="M309.679 221.693C309.679 221.693 311.718 240.093 294.959 235.051C294.937 235.051 300.288 221.494 309.679 221.693Z" fill="#6692D8" stroke="#263238" stroke-linecap="round" stroke-linejoin="round"/>
<path d="M289.079 211.426C289.079 211.426 302.327 218.587 292.59 229.443C292.59 229.443 283.279 221.656 289.079 211.426Z" fill="#6692D8" stroke="#263238" stroke-linecap="round" stroke-linejoin="round"/>
<path d="M272.747 227.905C272.747 227.905 287.18 226.433 287.18 239.806C287.18 239.806 272.747 240.372 272.747 227.905Z" fill="#6692D8" stroke="#263238" stroke-linecap="round" stroke-linejoin="round"/>
<path d="M286.356 279.064C286.356 279.064 279.776 265.257 286.091 251.199C292.405 237.141 294.54 225.292 291.243 216.946" stroke="#263238" stroke-linecap="round" stroke-linejoin="round"/>
<path d="M277.472 231.489C277.472 231.489 286.12 234.926 289.064 243.839" stroke="#263238" stroke-linecap="round" stroke-linejoin="round"/>
<path d="M305.116 229.068C305.116 229.068 300.119 235.876 291.655 235.14" stroke="#263238" stroke-linecap="round" stroke-linejoin="round"/>
<path d="M305.116 249.234C305.116 249.234 291.272 253.223 285.774 251.92" stroke="#263238" stroke-linecap="round" stroke-linejoin="round"/>
<path d="M271.15 253.834C271.15 253.834 277.34 260.627 283.559 260.524" stroke="#263238" stroke-linecap="round" stroke-linejoin="round"/>
<path d="M270.45 268.112H299.5L296.461 294.66H273.497L270.45 268.112Z" fill="#263238"/>
<path d="M300.023 267.524H269.935C269.533 267.524 269.207 267.85 269.207 268.252V270.541C269.207 270.944 269.533 271.27 269.935 271.27H300.023C300.425 271.27 300.752 270.944 300.752 270.541V268.252C300.752 267.85 300.425 267.524 300.023 267.524Z" fill="#263238"/>
<path d="M272.747 271.27H290.242" stroke="white" stroke-linecap="round" stroke-linejoin="round"/>
<path d="M293.546 271.27H296.174" stroke="white" stroke-linecap="round" stroke-linejoin="round"/>
<path d="M338.877 45.5974V153.053C338.877 154.361 338.357 155.616 337.433 156.54C336.508 157.465 335.254 157.985 333.946 157.985H125.857C124.548 157.985 123.293 157.465 122.367 156.541C121.441 155.616 120.92 154.362 120.918 153.053V45.5974C120.92 44.2889 121.441 43.0347 122.367 42.1101C123.293 41.1855 124.548 40.6662 125.857 40.6662H333.946C335.254 40.6662 336.508 41.1858 337.433 42.1105C338.357 43.0353 338.877 44.2896 338.877 45.5974V45.5974Z" fill="white"/>
<path opacity="0.2" d="M338.877 51.3088V153.076C338.877 154.383 338.357 155.638 337.432 156.562C336.508 157.487 335.253 158.007 333.945 158.007H203.018V51.2867L338.877 51.3088Z" fill="#6692D8"/>
<path d="M338.877 45.5974V153.053C338.877 154.361 338.357 155.616 337.433 156.54C336.508 157.465 335.254 157.985 333.946 157.985H125.857C124.548 157.985 123.293 157.465 122.367 156.541C121.441 155.616 120.92 154.362 120.918 153.053V45.5974C120.92 44.2889 121.441 43.0347 122.367 42.1101C123.293 41.1855 124.548 40.6662 125.857 40.6662H333.946C335.254 40.6662 336.508 41.1858 337.433 42.1105C338.357 43.0353 338.877 44.2896 338.877 45.5974V45.5974Z" stroke="#263238" stroke-linecap="round" stroke-linejoin="round"/>
<path d="M320.646 94.7917H293.568C292.118 94.7917 290.727 95.3678 289.702 96.3934C288.676 97.4189 288.1 98.8098 288.1 100.26C288.102 101.709 288.679 103.098 289.704 104.122C290.729 105.146 292.119 105.721 293.568 105.721H320.646C321.364 105.722 322.074 105.582 322.738 105.308C323.401 105.034 324.004 104.632 324.512 104.124C325.02 103.617 325.423 103.015 325.698 102.352C325.973 101.689 326.114 100.978 326.114 100.26C326.115 99.5417 325.974 98.8302 325.7 98.1663C325.425 97.5024 325.023 96.8992 324.515 96.3912C324.007 95.8832 323.403 95.4804 322.74 95.206C322.076 94.9315 321.364 94.7907 320.646 94.7917Z" fill="#6692D8" stroke="#263238" stroke-linecap="round" stroke-linejoin="round"/>
<path d="M338.877 45.5974V55.6659H120.903V45.5974C120.905 44.2889 121.426 43.0347 122.352 42.1101C123.278 41.1855 124.533 40.6662 125.841 40.6662H333.945C335.253 40.6662 336.507 41.1858 337.432 42.1105C338.357 43.0353 338.877 44.2896 338.877 45.5974V45.5974Z" fill="#999999" stroke="#263238" stroke-linecap="round" stroke-linejoin="round"/>
<path d="M130.125 51.3088C132.003 51.3088 133.525 49.7864 133.525 47.9085C133.525 46.0305 132.003 44.5081 130.125 44.5081C128.247 44.5081 126.725 46.0305 126.725 47.9085C126.725 49.7864 128.247 51.3088 130.125 51.3088Z" fill="#6692D8" stroke="#263238" stroke-linecap="round" stroke-linejoin="round"/>
<path d="M139.325 51.3088C141.203 51.3088 142.725 49.7864 142.725 47.9085C142.725 46.0305 141.203 44.5081 139.325 44.5081C137.447 44.5081 135.925 46.0305 135.925 47.9085C135.925 49.7864 137.447 51.3088 139.325 51.3088Z" fill="#757575" stroke="#263238" stroke-linecap="round" stroke-linejoin="round"/>
<path d="M148.525 51.3088C150.403 51.3088 151.925 49.7864 151.925 47.9085C151.925 46.0305 150.403 44.5081 148.525 44.5081C146.647 44.5081 145.125 46.0305 145.125 47.9085C145.125 49.7864 146.647 51.3088 148.525 51.3088Z" fill="white" stroke="#263238" stroke-linecap="round" stroke-linejoin="round"/>
<path d="M203.018 55.6659V158.102" stroke="#263238" stroke-linecap="round" stroke-linejoin="round"/>
<path d="M331.458 51.3088H283.802C282.901 51.3068 282.038 50.9477 281.402 50.3103C280.766 49.6728 280.409 48.809 280.409 47.9085C280.411 47.0092 280.769 46.1473 281.405 45.5114C282.041 44.8755 282.902 44.5174 283.802 44.5155H331.458C332.358 44.5155 333.222 44.8727 333.859 45.5088C334.497 46.1449 334.856 47.0079 334.858 47.9085V47.9085C334.858 48.355 334.77 48.7972 334.599 49.2097C334.428 49.6223 334.178 49.9971 333.862 50.3128C333.546 50.6286 333.171 50.8791 332.759 51.05C332.346 51.2208 331.904 51.3088 331.458 51.3088V51.3088Z" fill="white" stroke="#263238" stroke-linecap="round" stroke-linejoin="round"/>
<path d="M322.765 87.2182H219.637C218.749 87.2182 217.897 86.8654 217.269 86.2374C216.641 85.6094 216.288 84.7576 216.288 83.8694C216.288 83.4297 216.375 82.9942 216.543 82.5879C216.712 82.1816 216.958 81.8125 217.269 81.5015C217.58 81.1905 217.949 80.9439 218.356 80.7756C218.762 80.6073 219.197 80.5207 219.637 80.5207H322.765C323.205 80.5207 323.641 80.6073 324.047 80.7756C324.453 80.9439 324.822 81.1905 325.133 81.5015C325.444 81.8125 325.691 82.1816 325.859 82.5879C326.028 82.9942 326.114 83.4297 326.114 83.8694C326.114 84.7576 325.761 85.6094 325.133 86.2374C324.505 86.8654 323.654 87.2182 322.765 87.2182V87.2182Z" fill="#BFBFBF" stroke="#263238" stroke-miterlimit="10"/>
<path d="M274.925 87.2182H219.637C218.749 87.2182 217.897 86.8654 217.269 86.2374C216.641 85.6094 216.288 84.7576 216.288 83.8694C216.288 83.4297 216.375 82.9942 216.543 82.5879C216.712 82.1816 216.958 81.8125 217.269 81.5015C217.58 81.1905 217.949 80.9439 218.356 80.7756C218.762 80.6073 219.197 80.5207 219.637 80.5207H274.925C275.365 80.5207 275.801 80.6073 276.207 80.7756C276.613 80.9439 276.982 81.1905 277.293 81.5015C277.604 81.8125 277.851 82.1816 278.019 82.5879C278.188 82.9942 278.274 83.4297 278.274 83.8694V83.8694C278.274 84.7576 277.921 85.6094 277.293 86.2374C276.665 86.8654 275.814 87.2182 274.925 87.2182V87.2182Z" fill="#6692D8" stroke="#263238" stroke-linecap="round" stroke-linejoin="round"/>
<path d="M223.877 134.779H219.335V139.32H223.877V134.779Z" stroke="#263238" stroke-linecap="round" stroke-linejoin="round"/>
<path d="M220.719 136.736L221.389 137.649L222.5 136.067" stroke="#263238" stroke-linecap="round" stroke-linejoin="round"/>
<path opacity="0.3" d="M263.26 135.728H232.333C231.602 135.728 231.009 136.319 231.009 137.049C231.009 137.779 231.602 138.37 232.333 138.37H263.26C263.992 138.37 264.585 137.779 264.585 137.049C264.585 136.319 263.992 135.728 263.26 135.728Z" fill="black"/>
<path d="M152.22 139.761L152.956 134.72H153.846L152.889 140.895H151.417L150.46 134.72H151.439L152.22 139.761Z" fill="#263238"/>
<path d="M155.296 137.325H156.628V138.208H155.296V140.019H156.974V140.895H154.325V134.72H156.974V135.603H155.296V137.325Z" fill="#263238"/>
<path d="M159.594 140.895C159.517 140.658 159.487 140.407 159.506 140.159V139.187C159.506 138.62 159.307 138.407 158.866 138.407H158.535V140.917H157.563V134.742H159.035C160.043 134.742 160.507 135.213 160.507 136.162V136.648C160.542 136.896 160.499 137.149 160.384 137.371C160.269 137.594 160.089 137.776 159.867 137.892V137.892C160.352 138.091 160.514 138.547 160.514 139.195V140.151C160.498 140.401 160.533 140.652 160.617 140.887L159.594 140.895ZM158.535 135.603V137.502H158.91C159.278 137.502 159.499 137.34 159.499 136.847V136.236C159.499 135.794 159.344 135.603 158.998 135.603H158.535Z" fill="#263238"/>
<path d="M162.052 139.96V140.895H161.11V139.96H162.052Z" fill="#263238"/>
<path d="M165.548 135.544C165.239 135.544 165.041 135.713 165.041 136.155V136.817H164.128V136.214C164.128 135.228 164.621 134.661 165.6 134.661C166.579 134.661 167.072 135.228 167.072 136.214C167.052 136.683 166.935 137.143 166.728 137.565C166.522 137.986 166.23 138.361 165.872 138.665C165.298 139.283 165.136 139.57 165.136 139.901C165.133 139.945 165.133 139.99 165.136 140.034H166.976V140.909H164.128V140.173C164.141 139.796 164.233 139.426 164.4 139.088C164.566 138.749 164.802 138.449 165.092 138.208C165.381 137.973 165.615 137.678 165.78 137.344C165.945 137.01 166.037 136.645 166.049 136.273C166.049 135.684 165.858 135.544 165.548 135.544Z" fill="#263238"/>
<path d="M168.544 139.96V140.895H167.609V139.96H168.544Z" fill="#263238"/>
<path d="M169.185 136.199C169.185 135.809 169.34 135.434 169.616 135.158C169.892 134.882 170.266 134.727 170.657 134.727C171.047 134.727 171.421 134.882 171.697 135.158C171.974 135.434 172.129 135.809 172.129 136.199V139.415C172.129 139.806 171.974 140.18 171.697 140.456C171.421 140.732 171.047 140.887 170.657 140.887C170.266 140.887 169.892 140.732 169.616 140.456C169.34 140.18 169.185 139.806 169.185 139.415V136.199ZM170.156 139.474C170.156 139.916 170.355 140.085 170.657 140.085C170.958 140.085 171.164 139.916 171.164 139.474V136.14C171.164 135.699 170.966 135.529 170.657 135.529C170.347 135.529 170.156 135.699 170.156 136.14V139.474Z" fill="#263238"/>
<path d="M173.637 138.9V139.474C173.637 139.916 173.828 140.078 174.138 140.078C174.447 140.078 174.645 139.916 174.645 139.474V138.12C174.645 137.678 174.447 137.509 174.138 137.509C173.828 137.509 173.637 137.678 173.637 138.12V138.304H172.717L172.894 134.72H175.455V135.603H173.762L173.681 137.075C173.767 136.931 173.89 136.813 174.038 136.733C174.186 136.654 174.353 136.617 174.52 136.626C175.256 136.626 175.602 137.126 175.602 138.039V139.415C175.634 139.619 175.618 139.828 175.556 140.025C175.494 140.222 175.389 140.402 175.246 140.552C175.104 140.702 174.93 140.818 174.737 140.89C174.543 140.962 174.336 140.989 174.13 140.968C173.173 140.968 172.658 140.402 172.658 139.415V138.9H173.637Z" fill="#263238"/>
<path d="M147.2 116.261C144.892 114.067 143.061 111.421 141.82 108.489" stroke="#263238" stroke-linecap="round" stroke-linejoin="round"/>
<path d="M168.404 76.929C172.074 77.7879 175.479 79.5284 178.325 81.9996C181.171 84.4709 183.371 87.5985 184.736 91.1117" stroke="#263238" stroke-linecap="round" stroke-linejoin="round"/>
<path d="M170.362 93.592V86.968L165.416 86.5411C165.128 85.5147 164.717 84.5263 164.194 83.5971L167.389 79.8067L162.722 75.192L158.932 78.3789C158.001 77.8602 157.013 77.4503 155.988 77.1571L155.561 72.2186H148.937L148.51 77.1571C147.485 77.4476 146.496 77.8577 145.566 78.3789L141.769 75.192L137.11 79.8582L140.297 83.6486C139.777 84.5794 139.367 85.5673 139.075 86.5927L134.136 87.0195V93.6435L139.075 94.0704C139.367 95.0957 139.777 96.0837 140.297 97.0144L137.11 100.805L141.769 105.471L145.566 102.284C146.496 102.805 147.485 103.215 148.51 103.506L148.937 108.444H155.561L155.988 103.506C157.013 103.213 158.001 102.803 158.932 102.284L162.722 105.471L167.389 100.805L164.194 97.0144C164.717 96.0852 165.128 95.0969 165.416 94.0704L170.362 93.592ZM152.249 98.008C150.734 98.008 149.253 97.5587 147.993 96.7168C146.733 95.8749 145.751 94.6783 145.171 93.2783C144.591 91.8783 144.439 90.3378 144.735 88.8515C145.03 87.3653 145.76 86.0001 146.832 84.9286C147.903 83.857 149.268 83.1273 150.754 82.8317C152.241 82.5361 153.781 82.6878 155.181 83.2677C156.581 83.8476 157.778 84.8296 158.62 86.0896C159.462 87.3496 159.911 88.8309 159.911 90.3462C159.909 92.3777 159.101 94.3253 157.665 95.7618C156.228 97.1982 154.281 98.0061 152.249 98.008V98.008Z" fill="#6692D8" stroke="#263238" stroke-linecap="round" stroke-linejoin="round"/>
<path d="M192.184 108.312V103.624L188.666 103.322C188.458 102.587 188.167 101.878 187.798 101.21L190.065 98.5158L186.745 95.1965L184.052 97.4634C183.383 97.0944 182.674 96.8031 181.939 96.5949L181.637 93.0842H176.949L176.64 96.6096C175.908 96.8192 175.202 97.1105 174.535 97.4781L171.841 95.2112L168.544 98.5306L170.811 101.224C170.442 101.893 170.151 102.602 169.942 103.337L166.424 103.638V108.312L169.942 108.621C170.152 109.353 170.443 110.059 170.811 110.726L168.544 113.464L171.863 116.783L174.557 114.516C175.222 114.887 175.929 115.179 176.662 115.385L176.971 118.903H181.66L181.961 115.385C182.697 115.18 183.406 114.888 184.074 114.516L186.767 116.783L190.087 113.464L187.82 110.77C188.187 110.103 188.479 109.397 188.688 108.665L192.184 108.312ZM179.29 111.425C178.211 111.425 177.157 111.105 176.26 110.506C175.363 109.907 174.664 109.055 174.251 108.059C173.838 107.062 173.73 105.965 173.941 104.908C174.151 103.85 174.67 102.878 175.433 102.115C176.196 101.352 177.168 100.833 178.226 100.623C179.284 100.412 180.38 100.52 181.377 100.933C182.373 101.346 183.225 102.045 183.824 102.942C184.423 103.838 184.743 104.893 184.743 105.972C184.745 106.689 184.606 107.4 184.332 108.063C184.059 108.726 183.658 109.329 183.151 109.837C182.645 110.345 182.043 110.748 181.38 111.023C180.717 111.298 180.007 111.44 179.29 111.44V111.425Z" fill="#6692D8"/>
<path opacity="0.3" d="M192.184 108.312V103.624L188.666 103.322C188.458 102.587 188.167 101.878 187.798 101.21L190.065 98.5158L186.745 95.1965L184.052 97.4634C183.383 97.0944 182.674 96.8031 181.939 96.5949L181.637 93.0842H176.949L176.64 96.6096C175.908 96.8192 175.202 97.1105 174.535 97.4781L171.841 95.2112L168.544 98.5306L170.811 101.224C170.442 101.893 170.151 102.602 169.942 103.337L166.424 103.638V108.312L169.942 108.621C170.152 109.353 170.443 110.059 170.811 110.726L168.544 113.464L171.863 116.783L174.557 114.516C175.222 114.887 175.929 115.179 176.662 115.385L176.971 118.903H181.66L181.961 115.385C182.697 115.18 183.406 114.888 184.074 114.516L186.767 116.783L190.087 113.464L187.82 110.77C188.187 110.103 188.479 109.397 188.688 108.665L192.184 108.312ZM179.29 111.425C178.211 111.425 177.157 111.105 176.26 110.506C175.363 109.907 174.664 109.055 174.251 108.059C173.838 107.062 173.73 105.965 173.941 104.908C174.151 103.85 174.67 102.878 175.433 102.115C176.196 101.352 177.168 100.833 178.226 100.623C179.284 100.412 180.38 100.52 181.377 100.933C182.373 101.346 183.225 102.045 183.824 102.942C184.423 103.838 184.743 104.893 184.743 105.972C184.745 106.689 184.606 107.4 184.332 108.063C184.059 108.726 183.658 109.329 183.151 109.837C182.645 110.345 182.043 110.748 181.38 111.023C180.717 111.298 180.007 111.44 179.29 111.44V111.425Z" fill="white"/>
<path d="M192.184 108.312V103.624L188.666 103.322C188.458 102.587 188.167 101.878 187.798 101.21L190.065 98.5158L186.745 95.1965L184.052 97.4634C183.383 97.0944 182.674 96.8031 181.939 96.5949L181.637 93.0842H176.949L176.64 96.6096C175.908 96.8192 175.202 97.1105 174.535 97.4781L171.841 95.2112L168.544 98.5306L170.811 101.224C170.442 101.893 170.151 102.602 169.942 103.337L166.424 103.638V108.312L169.942 108.621C170.152 109.353 170.443 110.059 170.811 110.726L168.544 113.464L171.863 116.783L174.557 114.516C175.222 114.887 175.929 115.179 176.662 115.385L176.971 118.903H181.66L181.961 115.385C182.697 115.18 183.406 114.888 184.074 114.516L186.767 116.783L190.087 113.464L187.82 110.77C188.187 110.103 188.479 109.397 188.688 108.665L192.184 108.312ZM179.29 111.425C178.211 111.425 177.157 111.105 176.26 110.506C175.363 109.907 174.664 109.055 174.251 108.059C173.838 107.062 173.73 105.965 173.941 104.908C174.151 103.85 174.67 102.878 175.433 102.115C176.196 101.352 177.168 100.833 178.226 100.623C179.284 100.412 180.38 100.52 181.377 100.933C182.373 101.346 183.225 102.045 183.824 102.942C184.423 103.838 184.743 104.893 184.743 105.972C184.745 106.689 184.606 107.4 184.332 108.063C184.059 108.726 183.658 109.329 183.151 109.837C182.645 110.345 182.043 110.748 181.38 111.023C180.717 111.298 180.007 111.44 179.29 111.44V111.425Z" stroke="#263238" stroke-linecap="round" stroke-linejoin="round"/>
<path d="M169.221 119.264V115.922L166.719 115.709C166.572 115.195 166.364 114.701 166.101 114.237L167.72 112.316L165.357 109.953L163.436 111.572C162.972 111.309 162.478 111.101 161.964 110.954L161.751 108.452H158.409L158.196 110.954C157.682 111.101 157.188 111.309 156.724 111.572L154.81 109.953L152.448 112.316L154.06 114.237C153.796 114.701 153.588 115.195 153.441 115.709L150.939 115.922V119.264L153.441 119.477C153.588 119.991 153.796 120.485 154.06 120.949L152.448 122.863L154.81 125.225L156.724 123.613C157.188 123.877 157.682 124.085 158.196 124.232L158.409 126.734H161.751L161.964 124.232C162.478 124.085 162.972 123.877 163.436 123.613L165.357 125.225L167.72 122.863L166.101 120.949C166.364 120.485 166.572 119.991 166.719 119.477L169.221 119.264ZM160.051 121.472C159.284 121.472 158.534 121.244 157.896 120.818C157.258 120.392 156.761 119.786 156.467 119.077C156.174 118.369 156.097 117.589 156.246 116.836C156.396 116.084 156.766 115.393 157.308 114.85C157.85 114.308 158.542 113.938 159.294 113.789C160.046 113.639 160.826 113.716 161.535 114.009C162.244 114.303 162.849 114.8 163.276 115.438C163.702 116.076 163.929 116.826 163.929 117.593C163.929 118.102 163.829 118.607 163.634 119.077C163.439 119.548 163.153 119.975 162.793 120.336C162.433 120.696 162.006 120.982 161.535 121.176C161.064 121.371 160.56 121.472 160.051 121.472V121.472Z" fill="#6692D8"/>
<path opacity="0.5" d="M169.221 119.264V115.922L166.719 115.709C166.572 115.195 166.364 114.701 166.101 114.237L167.72 112.316L165.357 109.953L163.436 111.572C162.972 111.309 162.478 111.101 161.964 110.954L161.751 108.452H158.409L158.196 110.954C157.682 111.101 157.188 111.309 156.724 111.572L154.81 109.953L152.448 112.316L154.06 114.237C153.796 114.701 153.588 115.195 153.441 115.709L150.939 115.922V119.264L153.441 119.477C153.588 119.991 153.796 120.485 154.06 120.949L152.448 122.863L154.81 125.225L156.724 123.613C157.188 123.877 157.682 124.085 158.196 124.232L158.409 126.734H161.751L161.964 124.232C162.478 124.085 162.972 123.877 163.436 123.613L165.357 125.225L167.72 122.863L166.101 120.949C166.364 120.485 166.572 119.991 166.719 119.477L169.221 119.264ZM160.051 121.472C159.284 121.472 158.534 121.244 157.896 120.818C157.258 120.392 156.761 119.786 156.467 119.077C156.174 118.369 156.097 117.589 156.246 116.836C156.396 116.084 156.766 115.393 157.308 114.85C157.85 114.308 158.542 113.938 159.294 113.789C160.046 113.639 160.826 113.716 161.535 114.009C162.244 114.303 162.849 114.8 163.276 115.438C163.702 116.076 163.929 116.826 163.929 117.593C163.929 118.102 163.829 118.607 163.634 119.077C163.439 119.548 163.153 119.975 162.793 120.336C162.433 120.696 162.006 120.982 161.535 121.176C161.064 121.371 160.56 121.472 160.051 121.472V121.472Z" fill="white"/>
<path d="M169.221 119.264V115.922L166.719 115.709C166.572 115.195 166.364 114.701 166.101 114.237L167.72 112.316L165.357 109.953L163.436 111.572C162.972 111.309 162.478 111.101 161.964 110.954L161.751 108.452H158.409L158.196 110.954C157.682 111.101 157.188 111.309 156.724 111.572L154.81 109.953L152.448 112.316L154.06 114.237C153.796 114.701 153.588 115.195 153.441 115.709L150.939 115.922V119.264L153.441 119.477C153.588 119.991 153.796 120.485 154.06 120.949L152.448 122.863L154.81 125.225L156.724 123.613C157.188 123.877 157.682 124.085 158.196 124.232L158.409 126.734H161.751L161.964 124.232C162.478 124.085 162.972 123.877 163.436 123.613L165.357 125.225L167.72 122.863L166.101 120.949C166.364 120.485 166.572 119.991 166.719 119.477L169.221 119.264ZM160.051 121.472C159.284 121.472 158.534 121.244 157.896 120.818C157.258 120.392 156.761 119.786 156.467 119.077C156.174 118.369 156.097 117.589 156.246 116.836C156.396 116.084 156.766 115.393 157.308 114.85C157.85 114.308 158.542 113.938 159.294 113.789C160.046 113.639 160.826 113.716 161.535 114.009C162.244 114.303 162.849 114.8 163.276 115.438C163.702 116.076 163.929 116.826 163.929 117.593C163.929 118.102 163.829 118.607 163.634 119.077C163.439 119.548 163.153 119.975 162.793 120.336C162.433 120.696 162.006 120.982 161.535 121.176C161.064 121.371 160.56 121.472 160.051 121.472V121.472Z" stroke="#263238" stroke-linecap="round" stroke-linejoin="round"/>
<path d="M182.977 90.3094L184.751 91.1117L185.45 89.5146" stroke="#263238" stroke-linecap="round" stroke-linejoin="round"/>
<path d="M143.564 109.225L141.783 108.422L141.084 110.027" stroke="#263238" stroke-linecap="round" stroke-linejoin="round"/>
<path d="M217.26 72.248V75.8617C217.26 76.2003 217.407 76.3181 217.643 76.3181C217.878 76.3181 218.025 76.2003 218.025 75.8617V72.248H218.725V75.8176C218.747 75.9711 218.735 76.1278 218.689 76.2759C218.642 76.424 218.563 76.5598 218.457 76.673C218.351 76.7862 218.22 76.874 218.076 76.9298C217.931 76.9856 217.775 77.0079 217.621 76.9952C216.885 76.9952 216.524 76.5683 216.524 75.8176V72.248H217.26Z" fill="#263238"/>
<path d="M221.404 73.3961V74.007C221.404 74.743 221.043 75.1699 220.307 75.1699H219.961V76.9289H219.225V72.248H220.307C221.043 72.248 221.404 72.6528 221.404 73.3961ZM219.932 72.9104V74.5001H220.278C220.513 74.5001 220.638 74.3898 220.638 74.0586V73.3226C220.638 72.9914 220.513 72.8809 220.278 72.8809L219.932 72.9104Z" fill="#263238"/>
<path d="M224.039 76.929H223.303L223.177 76.0752H222.272L222.147 76.929H221.47L222.206 72.2406H223.281L224.039 76.929ZM222.361 75.457H223.097L222.751 73.087L222.361 75.457Z" fill="#263238"/>
<path d="M224.377 72.248H225.547C226.283 72.248 226.644 72.6602 226.644 73.4035V75.7734C226.644 76.5094 226.283 76.9363 225.547 76.9363H224.377V72.248ZM225.113 72.9177V76.2666H225.533C225.768 76.2666 225.908 76.1414 225.908 75.8102V73.3741C225.908 73.0355 225.768 72.9177 225.533 72.9177H225.113Z" fill="#263238"/>
<path d="M229.485 76.929H228.749L228.624 76.0752H227.719L227.593 76.929H226.916L227.652 72.2406H228.727L229.485 76.929ZM227.807 75.457H228.543L228.197 73.087L227.807 75.457Z" fill="#263238"/>
<path d="M229.36 72.248H231.634V72.9177H230.861V76.9363H230.125V72.9104H229.389L229.36 72.248Z" fill="#263238"/>
<path d="M231.95 72.248H232.686V76.9363H231.95V72.248Z" fill="#263238"/>
<path d="M233.894 73.536V76.9289H233.231V72.248H234.159L234.895 75.0521V72.248H235.52V76.9363H234.784L233.894 73.536Z" fill="#263238"/>
<path d="M237.183 74.3161H238.214V75.7881C238.214 76.5241 237.838 76.9657 237.117 76.9657C236.396 76.9657 236.021 76.5389 236.021 75.7881V73.352C236.021 72.616 236.396 72.1744 237.117 72.1744C237.838 72.1744 238.214 72.6013 238.214 73.352V73.8083H237.478V73.3078C237.478 72.9693 237.331 72.8441 237.102 72.8441C236.874 72.8441 236.72 72.9693 236.72 73.3078V75.8323C236.72 76.1709 236.867 76.2886 237.102 76.2886C237.338 76.2886 237.478 76.1709 237.478 75.8323V74.9712H237.147L237.183 74.3161Z" fill="#263238"/>
<path d="M332.738 108.732L320.506 100.01L323.987 114.62L326.497 110.895L328.808 114.332L330.656 113.089L328.345 109.652L332.738 108.732Z" fill="#263238"/>
<path d="M186.944 174.287C188.453 172.16 198.389 178.077 197.167 182.28C195.945 186.483 191.971 186.026 189.645 183.796C187.319 181.566 185.332 176.561 186.944 174.287Z" fill="#6692D8"/>
<path opacity="0.3" d="M186.944 174.287C188.453 172.16 198.389 178.077 197.167 182.28C195.945 186.483 191.971 186.026 189.645 183.796C187.319 181.566 185.332 176.561 186.944 174.287Z" fill="black" fill-opacity="0.7"/>
<path d="M186.944 174.287C188.453 172.16 198.389 178.077 197.167 182.28C195.945 186.483 191.971 186.026 189.645 183.796C187.319 181.566 185.332 176.561 186.944 174.287Z" stroke="#263238" stroke-linecap="round" stroke-linejoin="round"/>
<path d="M191.662 157.97C191.662 157.97 193.134 157.97 195.577 163.644C196.595 166.124 196.852 168.85 196.313 171.476L192.729 188.749L184 183.502L189.071 170.828C189.071 170.828 186.414 162.636 191.662 157.97Z" fill="white" stroke="#263238" stroke-linecap="round" stroke-linejoin="round"/>
<path d="M188.129 169.084L182.535 170.938C181.939 171.093 180.769 170.107 180.82 169.466L182.484 149.903C182.517 149.519 182.669 149.153 182.918 148.858C183.167 148.563 183.501 148.352 183.875 148.255L190.079 146.908C190.668 146.753 192.162 147.46 192.111 148.071L189.527 167.405C189.499 167.796 189.348 168.168 189.097 168.469C188.847 168.77 188.508 168.985 188.129 169.084V169.084Z" fill="#6692D8"/>
<path opacity="0.3" d="M188.129 169.084L182.535 170.938C181.939 171.093 180.769 170.107 180.82 169.466L182.484 149.903C182.517 149.519 182.669 149.153 182.918 148.858C183.167 148.563 183.501 148.352 183.875 148.255L190.079 146.908C190.668 146.753 192.162 147.46 192.111 148.071L189.527 167.405C189.499 167.796 189.348 168.168 189.097 168.469C188.847 168.77 188.508 168.985 188.129 169.084V169.084Z" fill="black" fill-opacity="0.7"/>
<path d="M188.129 169.084L182.535 170.938C181.939 171.093 180.769 170.107 180.82 169.466L182.484 149.903C182.517 149.519 182.669 149.153 182.918 148.858C183.167 148.563 183.501 148.352 183.875 148.255L190.079 146.908C190.668 146.753 192.162 147.46 192.111 148.071L189.527 167.405C189.499 167.796 189.348 168.168 189.097 168.469C188.847 168.77 188.508 168.985 188.129 169.084V169.084Z" stroke="#263238" stroke-linecap="round" stroke-linejoin="round"/>
<path d="M189.049 169.569L182.852 170.916C182.715 170.95 182.572 170.952 182.434 170.92C182.296 170.888 182.168 170.823 182.06 170.732C181.952 170.641 181.868 170.525 181.813 170.394C181.759 170.264 181.737 170.122 181.748 169.981L183.404 150.411C183.438 150.025 183.59 149.66 183.841 149.364C184.091 149.069 184.427 148.859 184.802 148.763L190.999 147.416C191.137 147.381 191.28 147.38 191.418 147.412C191.555 147.444 191.683 147.509 191.791 147.6C191.899 147.691 191.984 147.807 192.038 147.937C192.092 148.068 192.115 148.209 192.103 148.35L190.447 167.928C190.412 168.312 190.259 168.677 190.009 168.971C189.758 169.264 189.423 169.474 189.049 169.569V169.569Z" fill="#6692D8" stroke="#263238" stroke-linecap="round" stroke-linejoin="round"/>
<path opacity="0.3" d="M185.612 154.032L184.611 154.253C184.588 154.258 184.565 154.257 184.543 154.251C184.521 154.246 184.501 154.235 184.484 154.22C184.467 154.205 184.453 154.186 184.445 154.165C184.436 154.144 184.432 154.121 184.434 154.099L184.706 150.948C184.71 150.886 184.733 150.826 184.773 150.777C184.813 150.728 184.867 150.693 184.927 150.676L185.928 150.463C185.95 150.457 185.973 150.456 185.995 150.461C186.017 150.466 186.038 150.476 186.055 150.49C186.072 150.505 186.086 150.523 186.095 150.544C186.103 150.565 186.107 150.587 186.105 150.61L185.84 153.767C185.833 153.829 185.807 153.888 185.767 153.935C185.726 153.982 185.672 154.016 185.612 154.032V154.032Z" fill="black" fill-opacity="0.7"/>
<path d="M194.304 163.843C194.547 161.098 192.052 156.984 190.388 156.984C188.725 156.984 183.669 160.877 183.669 160.877C181.718 162.298 182.682 163.644 182.682 163.644C181.534 164.38 181.21 165.433 181.74 165.911C182.27 166.39 183.948 165.911 183.948 165.911C183.948 165.911 182.27 167.14 182.69 167.737C183.676 169.164 186.929 167.288 186.929 167.288C186.929 167.288 185.045 168.532 185.148 168.76C185.884 170.313 188.946 168.502 188.946 168.502L191.11 169.613C191.108 169.868 191.159 170.119 191.259 170.353C191.359 170.586 191.506 170.797 191.691 170.971C191.876 171.145 192.096 171.279 192.335 171.365C192.574 171.45 192.828 171.485 193.082 171.468" fill="white"/>
<path d="M194.304 163.843C194.547 161.098 192.052 156.984 190.388 156.984C188.725 156.984 183.669 160.877 183.669 160.877C181.718 162.298 182.682 163.644 182.682 163.644C181.534 164.38 181.21 165.433 181.74 165.911C182.27 166.39 183.948 165.911 183.948 165.911C183.948 165.911 182.27 167.14 182.69 167.737C183.676 169.164 186.929 167.288 186.929 167.288C186.929 167.288 185.045 168.532 185.148 168.76C185.884 170.313 188.946 168.502 188.946 168.502L191.11 169.613C191.108 169.868 191.159 170.119 191.259 170.353C191.359 170.586 191.506 170.797 191.691 170.971C191.876 171.145 192.096 171.279 192.335 171.365C192.574 171.45 192.828 171.485 193.082 171.468" stroke="#263238" stroke-linecap="round" stroke-linejoin="round"/>
<path d="M182.712 163.644C182.712 163.644 187.444 160.583 188.048 160.502C188.651 160.421 190.837 159.942 190.837 159.942" fill="white"/>
<path d="M182.712 163.644C182.712 163.644 187.444 160.583 188.048 160.502C188.651 160.421 190.837 159.942 190.837 159.942" stroke="#263238" stroke-linecap="round" stroke-linejoin="round"/>
<path d="M184 165.911C184 165.911 187.849 163.924 188.556 163.924C189.611 163.808 190.658 163.629 191.691 163.387" fill="white"/>
<path d="M184 165.911C184 165.911 187.849 163.924 188.556 163.924C189.611 163.808 190.658 163.629 191.691 163.387" stroke="#263238" stroke-linecap="round" stroke-linejoin="round"/>
<path d="M186.944 167.288C187.392 166.966 187.867 166.686 188.364 166.449C189.283 166.382 190.206 166.382 191.124 166.449" fill="white"/>
<path d="M186.944 167.288C187.392 166.966 187.867 166.686 188.364 166.449C189.283 166.382 190.206 166.382 191.124 166.449" stroke="#263238" stroke-linecap="round" stroke-linejoin="round"/>
<path d="M149.077 167.192C156.437 167.302 173.365 193.688 173.365 193.688L184 180.44L186.944 174.302C186.944 174.302 188.416 185.342 197.167 182.295C197.167 182.295 189.461 211.278 180.813 214.774C172.165 218.27 148.186 193.688 148.186 193.688L149.077 167.192Z" fill="#6692D8"/>
<path opacity="0.2" d="M149.68 195.16C152.72 198.141 159.918 204.956 166.932 209.792C164.871 202.895 159.226 195.55 159.226 195.55C157.474 194.969 155.001 189.721 155.001 189.721C153.839 190.163 152.19 186.519 152.19 186.519C150.836 187.668 150.078 191.06 149.68 195.16Z" fill="black" fill-opacity="0.7"/>
<path opacity="0.2" d="M172.857 200.422C172.574 198.099 172.782 195.742 173.468 193.504L173.342 193.666C173.342 193.666 172.194 191.877 170.398 189.25C169.891 192.665 169.648 198.391 172.857 200.422Z" fill="black" fill-opacity="0.7"/>
<path d="M149.077 167.192C156.437 167.302 173.365 193.688 173.365 193.688L184 180.44L186.944 174.302C186.944 174.302 188.416 185.342 197.167 182.295C197.167 182.295 189.461 211.278 180.813 214.774C172.165 218.27 148.186 193.688 148.186 193.688L149.077 167.192Z" stroke="#263238" stroke-linecap="round" stroke-linejoin="round"/>
<path d="M72.7976 280.72C72.7976 280.72 68.1388 290.104 68.1388 292.312C68.1388 294.52 67.3586 295.514 63.2812 295.514C59.2037 295.514 49.1132 295.602 47.5602 294.881H38.1247C35.9167 294.881 35.0188 292.761 36.373 293.048C37.7272 293.335 47.7442 290.568 50.4674 289.449C53.1906 288.33 57.6655 287.005 60.0796 284.672C62.4936 282.339 65.4156 273.632 65.4156 273.632L72.7976 280.72Z" fill="white" stroke="#263238" stroke-linecap="round" stroke-linejoin="round"/>
<path d="M47.5601 294.873C47.5601 292.135 50.5041 293.445 54.9201 292.305C57.7684 291.569 58.0701 290.575 58.0701 290.575" stroke="#263238" stroke-linecap="round" stroke-linejoin="round"/>
<path d="M152.072 184.12C152.367 189.478 152.492 195.042 152.705 199.193C153.235 209.225 159.948 238.547 159.948 238.547C159.948 238.547 167.308 242.963 167.676 251.059C168.044 259.155 123.067 281.971 111.004 275.465C98.9405 268.959 100.56 250.058 100.56 250.058C100.56 250.058 82.7044 177.93 90.0128 172.131C97.3213 166.331 99.7869 167.052 118.496 164.461C137.205 161.871 149.077 167.192 149.077 167.192C150.139 168.219 150.882 169.529 151.219 170.968" fill="#6692D8"/>
<path opacity="0.2" d="M100.552 250.014C100.552 250.014 98.9254 268.915 110.996 275.421C123.066 281.927 168.065 259.104 167.668 251.015C167.27 242.926 159.947 238.503 159.947 238.503C159.947 238.503 159.285 235.596 158.35 231.305C151.969 235.441 137.426 244.023 127.961 243.081C127.961 243.081 143.718 248.667 153.794 243.868C163.87 239.07 149.606 250.183 146.699 250.007C143.792 249.83 122.095 245.907 118.164 247.946C114.234 249.985 105.498 264.977 105.498 264.977C105.498 264.977 100.199 253.068 101.376 245.76C101.376 245.76 101.531 223.003 98.999 209.696C98.999 209.696 105.056 199.245 98.3587 191.127C95.8857 188.131 93.2067 194.299 90.7632 203.271C94.3696 225.027 100.552 250.014 100.552 250.014Z" fill="black" fill-opacity="0.7"/>
<path d="M152.072 184.12C152.367 189.478 152.492 195.042 152.705 199.193C153.235 209.225 159.948 238.547 159.948 238.547C159.948 238.547 167.308 242.963 167.676 251.059C168.044 259.155 123.067 281.971 111.004 275.465C98.9405 268.959 100.56 250.058 100.56 250.058C100.56 250.058 82.7044 177.93 90.0128 172.131C97.3213 166.331 99.7869 167.052 118.496 164.461C137.205 161.871 149.077 167.192 149.077 167.192C150.139 168.219 150.882 169.529 151.219 170.968" stroke="#263238" stroke-linecap="round" stroke-linejoin="round"/>
<path d="M161.118 245.429C162.251 245.282 165.32 247.225 165.32 247.225C165.32 247.225 214.956 234.477 222.419 238.525C237.397 246.621 229.411 262.644 226.305 267.229C223.199 271.814 177.376 293.519 161.471 293.931C145.566 294.343 116.391 289.949 110.687 280.58C104.983 271.211 110.82 260.819 118.783 253.194C126.879 245.429 142.762 252.222 148.223 250.669C155.2 248.667 157.651 245.863 161.118 245.429Z" fill="#263238"/>
<path d="M119.6 289.037L118.864 292.238C118.864 292.238 120.814 297.78 129.403 298.678C137.992 299.576 143.071 301.49 147.192 301.733C149.367 301.902 151.553 301.867 153.721 301.63L154.56 300.408L119.6 289.037Z" fill="white" stroke="#263238" stroke-linecap="round" stroke-linejoin="round"/>
<path d="M169.434 288.698L154.56 300.408C147.385 299.799 140.256 298.734 133.216 297.221V297.221C126.172 295.587 120.019 293.247 119.681 290.045C119.166 285.165 124.369 283.833 130.566 284.025C131.722 284.025 132.907 284.135 134.106 284.26C144.02 285.327 156.613 279.844 156.613 279.844L169.434 288.698Z" fill="#6692D8"/>
<path opacity="0.2" d="M119.696 289.891C122.583 290.965 125.355 292.329 127.968 293.961C127.968 293.961 141.783 301.07 163.009 293.747L169.442 288.698L156.635 279.8C156.635 279.8 144.042 285.276 134.129 284.216C132.929 284.091 131.744 284.003 130.588 283.98C124.443 283.789 119.269 285.099 119.696 289.891Z" fill="black" fill-opacity="0.7"/>
<path d="M169.434 288.698L154.56 300.408C147.385 299.799 140.256 298.734 133.216 297.221V297.221C126.172 295.587 120.019 293.247 119.681 290.045C119.166 285.165 124.369 283.833 130.566 284.025C131.722 284.025 132.907 284.135 134.106 284.26C144.02 285.327 156.613 279.844 156.613 279.844L169.434 288.698Z" stroke="#263238" stroke-linecap="round" stroke-linejoin="round"/>
<path d="M155.575 293.298C158.254 293.732 155.31 299.223 151.675 297.552C148.039 295.882 152.889 292.864 155.575 293.298Z" fill="white"/>
<path opacity="0.2" d="M150.541 296.669C152.483 296.432 154.411 296.095 156.319 295.661C156.834 294.586 156.716 293.453 155.583 293.298C153.323 292.93 149.54 295.006 150.541 296.669Z" fill="black" fill-opacity="0.7"/>
<path d="M155.575 293.298C158.254 293.732 155.31 299.223 151.675 297.552C148.039 295.882 152.889 292.864 155.575 293.298Z" stroke="#263238" stroke-linecap="round" stroke-linejoin="round"/>
<path d="M133.216 297.177C126.172 295.543 120.019 293.203 119.681 290.001C119.166 285.121 124.369 283.789 130.566 283.98C130.861 284.216 136.896 290.045 133.216 297.177Z" fill="white"/>
<path opacity="0.2" d="M119.696 289.891C122.583 290.965 125.355 292.329 127.968 293.961C129.829 294.82 131.779 295.472 133.783 295.904C136.16 289.368 130.839 284.223 130.588 283.98C124.443 283.789 119.269 285.099 119.696 289.891Z" fill="black" fill-opacity="0.7"/>
<path d="M133.216 297.177C126.172 295.543 120.019 293.203 119.681 290.001C119.166 285.121 124.369 283.789 130.566 283.98C130.861 284.216 136.896 290.045 133.216 297.177Z" stroke="#263238" stroke-linecap="round" stroke-linejoin="round"/>
<path d="M138.265 291.12H138.221C138.032 291.12 137.85 291.047 137.713 290.917C137.576 290.787 137.494 290.609 137.485 290.42C137.338 287.344 134.968 284.849 134.946 284.82C134.827 284.676 134.768 284.494 134.779 284.308C134.789 284.123 134.87 283.948 135.004 283.82C135.138 283.691 135.316 283.618 135.502 283.615C135.687 283.612 135.867 283.68 136.005 283.804C136.123 283.922 138.78 286.711 138.95 290.347C138.96 290.54 138.894 290.729 138.765 290.873C138.637 291.018 138.458 291.106 138.265 291.12Z" fill="white" stroke="#263238" stroke-linecap="round" stroke-linejoin="round"/>
<path d="M141.209 291.296H141.15C140.955 291.296 140.767 291.219 140.629 291.081C140.491 290.943 140.414 290.756 140.414 290.56C140.348 287.454 138.206 284.768 138.162 284.739C138.052 284.587 138.004 284.399 138.027 284.213C138.051 284.028 138.145 283.858 138.289 283.739C138.434 283.62 138.618 283.56 138.805 283.572C138.992 283.584 139.167 283.667 139.295 283.804C140.814 285.736 141.717 288.079 141.886 290.531C141.894 290.721 141.828 290.908 141.702 291.05C141.575 291.193 141.399 291.281 141.209 291.296Z" fill="white" stroke="#263238" stroke-linecap="round" stroke-linejoin="round"/>
<path d="M144.734 290.928C144.54 290.945 144.347 290.883 144.198 290.758C144.049 290.632 143.956 290.453 143.939 290.259C143.711 287.683 141.518 284.371 141.496 284.371C141.436 284.291 141.393 284.199 141.369 284.102C141.345 284.005 141.342 283.904 141.359 283.805C141.375 283.706 141.412 283.612 141.466 283.528C141.521 283.444 141.592 283.372 141.675 283.316C141.758 283.261 141.852 283.223 141.95 283.204C142.049 283.186 142.15 283.188 142.247 283.21C142.345 283.233 142.437 283.275 142.518 283.334C142.599 283.393 142.667 283.467 142.718 283.554C142.821 283.701 145.147 287.189 145.404 290.178C145.409 290.364 145.342 290.546 145.218 290.685C145.093 290.825 144.92 290.912 144.734 290.928V290.928Z" fill="white" stroke="#263238" stroke-linecap="round" stroke-linejoin="round"/>
<path d="M148.061 290.575C147.995 290.586 147.928 290.586 147.862 290.575C147.67 290.543 147.499 290.435 147.386 290.277C147.273 290.118 147.227 289.921 147.259 289.729C147.782 286.601 144.882 283.922 144.852 283.9C144.707 283.769 144.619 283.586 144.609 283.39C144.599 283.195 144.666 283.003 144.797 282.858C144.928 282.713 145.111 282.625 145.306 282.615C145.502 282.604 145.693 282.672 145.838 282.803C145.978 282.935 149.371 286.041 148.716 289.972C148.688 290.13 148.609 290.275 148.49 290.384C148.372 290.493 148.221 290.56 148.061 290.575V290.575Z" fill="white" stroke="#263238" stroke-linecap="round" stroke-linejoin="round"/>
<path d="M151.682 289.707C151.602 289.718 151.52 289.718 151.439 289.707C151.345 289.685 151.256 289.645 151.177 289.589C151.098 289.533 151.032 289.461 150.98 289.379C150.929 289.297 150.894 289.206 150.878 289.111C150.862 289.015 150.866 288.918 150.887 288.823C151.528 286.034 148.782 282.884 148.753 282.854C148.683 282.783 148.627 282.699 148.591 282.606C148.554 282.513 148.537 282.414 148.54 282.314C148.543 282.214 148.566 282.116 148.608 282.025C148.651 281.935 148.711 281.854 148.785 281.787C148.86 281.721 148.947 281.67 149.042 281.638C149.137 281.606 149.237 281.594 149.337 281.603C149.436 281.611 149.533 281.639 149.621 281.686C149.709 281.733 149.787 281.798 149.85 281.876C149.989 282.03 153.132 285.622 152.323 289.155C152.285 289.301 152.204 289.433 152.09 289.532C151.975 289.63 151.833 289.692 151.682 289.707Z" fill="white" stroke="#263238" stroke-linecap="round" stroke-linejoin="round"/>
<path d="M228.16 284.216L229.227 287.322C229.227 287.322 227.865 293.041 219.424 294.844C210.982 296.647 206.124 299.069 202.047 299.746C199.903 300.144 197.727 300.338 195.548 300.327L194.576 299.164L228.16 284.216Z" fill="white" stroke="#263238" stroke-linecap="round" stroke-linejoin="round"/>
<path d="M178.583 289.147L194.598 299.194C201.663 297.833 208.635 296.027 215.471 293.784V293.784C222.309 291.421 228.182 288.448 228.182 285.224C228.182 280.323 222.861 279.542 216.723 280.381C215.574 280.529 214.404 280.742 213.227 280.992C203.482 283.09 190.411 278.968 190.411 278.968L178.583 289.147Z" fill="#6692D8"/>
<path opacity="0.2" d="M178.583 289.147L188.004 295.035C195.642 292.67 202.339 287.954 207.14 281.559C201.464 281.437 195.83 280.556 190.388 278.939L178.583 289.147Z" fill="black" fill-opacity="0.7"/>
<path d="M178.583 289.147L194.598 299.194C201.663 297.833 208.635 296.027 215.471 293.784V293.784C222.309 291.421 228.182 288.448 228.182 285.224C228.182 280.323 222.861 279.542 216.723 280.381C215.574 280.529 214.404 280.742 213.227 280.992C203.482 283.09 190.411 278.968 190.411 278.968L178.583 289.147Z" stroke="#263238" stroke-linecap="round" stroke-linejoin="round"/>
<path d="M215.471 293.784C222.309 291.421 228.182 288.448 228.182 285.224C228.182 280.323 222.861 279.542 216.722 280.381C216.479 280.661 211.121 287.064 215.471 293.784Z" fill="white" stroke="#263238" stroke-linecap="round" stroke-linejoin="round"/>
<path d="M209.834 288.286H209.878C209.974 288.28 210.069 288.256 210.156 288.214C210.243 288.171 210.321 288.112 210.386 288.04C210.45 287.967 210.499 287.883 210.531 287.791C210.562 287.7 210.575 287.603 210.57 287.506C210.393 284.437 212.483 281.699 212.505 281.677C212.565 281.6 212.608 281.513 212.634 281.42C212.66 281.327 212.667 281.229 212.655 281.133C212.643 281.037 212.612 280.944 212.564 280.86C212.517 280.776 212.453 280.702 212.376 280.643C212.3 280.583 212.213 280.539 212.119 280.514C212.026 280.488 211.929 280.481 211.833 280.493C211.737 280.505 211.644 280.536 211.56 280.583C211.476 280.631 211.402 280.695 211.342 280.772C211.239 280.897 208.891 283.958 209.134 287.587C209.143 287.769 209.22 287.942 209.349 288.071C209.478 288.201 209.651 288.277 209.834 288.286Z" fill="white" stroke="#263238" stroke-linecap="round" stroke-linejoin="round"/>
<path d="M206.926 288.772H206.985C207.179 288.755 207.359 288.662 207.484 288.513C207.61 288.364 207.671 288.171 207.655 287.977C207.598 285.853 208.166 283.76 209.289 281.956C209.343 281.875 209.379 281.785 209.398 281.689C209.416 281.594 209.415 281.496 209.395 281.4C209.375 281.305 209.337 281.215 209.282 281.135C209.227 281.055 209.157 280.986 209.076 280.933C208.912 280.828 208.714 280.791 208.524 280.831C208.333 280.871 208.167 280.984 208.06 281.147C206.752 283.225 206.1 285.648 206.19 288.102C206.207 288.286 206.292 288.456 206.428 288.58C206.564 288.704 206.742 288.773 206.926 288.772Z" fill="white" stroke="#263238" stroke-linecap="round" stroke-linejoin="round"/>
<path d="M203.379 288.772C203.574 288.772 203.761 288.694 203.899 288.556C204.037 288.418 204.115 288.231 204.115 288.036C204.071 285.445 205.903 281.934 205.925 281.898C205.973 281.812 206.003 281.717 206.014 281.62C206.024 281.522 206.015 281.424 205.987 281.33C205.959 281.236 205.913 281.148 205.85 281.072C205.788 280.997 205.711 280.934 205.624 280.889C205.538 280.843 205.442 280.815 205.345 280.807C205.247 280.798 205.149 280.81 205.055 280.84C204.962 280.87 204.876 280.919 204.801 280.983C204.727 281.047 204.666 281.125 204.623 281.213C204.542 281.368 202.591 285.092 202.643 288.058C202.649 288.249 202.729 288.431 202.866 288.564C203.003 288.697 203.187 288.772 203.379 288.772Z" fill="white" stroke="#263238" stroke-linecap="round" stroke-linejoin="round"/>
<path d="M200.03 288.772C200.096 288.779 200.163 288.779 200.229 288.772C200.322 288.746 200.409 288.703 200.486 288.643C200.562 288.584 200.626 288.51 200.674 288.426C200.722 288.342 200.753 288.249 200.765 288.153C200.777 288.057 200.77 287.96 200.744 287.867C199.898 284.812 202.503 281.846 202.525 281.817C202.656 281.672 202.723 281.482 202.714 281.287C202.704 281.093 202.618 280.91 202.474 280.779C202.402 280.713 202.318 280.662 202.226 280.629C202.135 280.596 202.037 280.582 201.94 280.587C201.843 280.591 201.748 280.615 201.66 280.657C201.572 280.699 201.493 280.758 201.428 280.83C201.303 280.978 198.256 284.422 199.323 288.257C199.371 288.407 199.465 288.538 199.592 288.631C199.719 288.723 199.873 288.773 200.03 288.772V288.772Z" fill="white" stroke="#263238" stroke-linecap="round" stroke-linejoin="round"/>
<path d="M196.343 288.286C196.426 288.285 196.508 288.27 196.586 288.242C196.77 288.178 196.922 288.044 197.007 287.869C197.093 287.694 197.105 287.492 197.042 287.307C196.115 284.606 198.514 281.184 198.514 281.147C198.608 280.988 198.639 280.801 198.601 280.62C198.563 280.44 198.459 280.281 198.309 280.173C198.159 280.066 197.975 280.019 197.792 280.041C197.609 280.063 197.441 280.153 197.322 280.293C197.204 280.462 194.451 284.363 195.629 287.786C195.679 287.934 195.775 288.063 195.904 288.153C196.032 288.243 196.186 288.29 196.343 288.286V288.286Z" fill="white" stroke="#263238" stroke-linecap="round" stroke-linejoin="round"/>
<path d="M192.832 292.268C190.212 293.004 193.715 298.156 197.152 296.088C200.59 294.02 195.474 291.576 192.832 292.268Z" fill="white" stroke="#263238" stroke-linecap="round" stroke-linejoin="round"/>
<path d="M122.912 249.308C132.612 247.607 158.38 261.164 174.167 270.195C175.717 269.336 177.194 268.351 178.583 267.251C182.219 264.013 196.092 246.18 205.66 242.102L223.133 264.962C219.195 270.475 207.544 276.562 195.901 281.581C193.826 285.01 191.383 288.201 188.614 291.098C181.468 298.458 178.553 294.329 178.553 294.329C178.553 294.329 174.034 293.821 167.366 292.908C167.094 293.554 166.616 294.091 166.006 294.434C165.395 294.778 164.688 294.909 163.995 294.807C163.127 294.667 161.456 293.431 159.579 291.789C142.74 289.258 119.894 285.033 113.719 280.058C103.658 271.947 114.308 250.809 122.912 249.308Z" fill="#263238"/>
<path d="M96.8722 184.12C98.6975 190.008 98.8447 198.443 97.3506 205.022C97.3506 205.022 90.8149 233.932 89.9906 240.225C89.1663 246.518 78.1337 270.968 77.5522 278.961L72.4665 286.277C72.4665 286.277 65.0329 285.717 60.0796 280.08L63.5756 272.33C63.5756 272.33 66.7772 260.414 67.9401 258.758C69.1029 257.102 72.9301 234.624 74.2181 230.952C75.5061 227.279 83.2489 178.328 90.0054 172.072C90.0054 172.072 91.8085 171.924 92.5445 173.345" fill="#6692D8"/>
<path d="M96.8722 184.12C98.6975 190.008 98.8447 198.443 97.3506 205.022C97.3506 205.022 90.8149 233.932 89.9906 240.225C89.1663 246.518 78.1337 270.968 77.5522 278.961L72.4665 286.277C72.4665 286.277 65.0329 285.717 60.0796 280.08L63.5756 272.33C63.5756 272.33 66.7772 260.414 67.9401 258.758C69.1029 257.102 72.9301 234.624 74.2181 230.952C75.5061 227.279 83.2489 178.328 90.0054 172.072C90.0054 172.072 91.8085 171.924 92.5445 173.345" stroke="#263238" stroke-linecap="round" stroke-linejoin="round"/>
<path d="M195.128 277.187C191.684 275.759 186.738 277.187 186.738 277.187C186.738 277.187 170.494 270.114 159.366 263.38C148.238 256.645 132.289 251.604 132.289 251.604C126.172 251.17 123.265 251.309 120.351 254.548" stroke="white" stroke-linecap="round" stroke-linejoin="round"/>
<path d="M112.924 273.625C112.924 273.625 112.843 278.556 119.835 281.979" stroke="white" stroke-linecap="round" stroke-linejoin="round"/>
<path d="M190.087 253.046C190.087 253.046 179.047 261.032 176.839 266.294C174.667 267.207 172.571 268.287 170.568 269.525" stroke="white" stroke-linecap="round" stroke-linejoin="round"/>
<path d="M176.037 259.685C175.221 261.978 175.086 264.457 175.646 266.824" stroke="white" stroke-linecap="round" stroke-linejoin="round"/>
<path d="M178.583 254.504C177.982 255.379 177.453 256.302 177 257.264" stroke="white" stroke-linecap="round" stroke-linejoin="round"/>
<path d="M162.862 253.775C162.862 253.775 159.182 258.706 158.247 262.717" stroke="white" stroke-linecap="round" stroke-linejoin="round"/>
<path d="M142.291 283.62C140.915 283.542 139.546 283.374 138.191 283.119" stroke="white" stroke-linecap="round" stroke-linejoin="round"/>
<path d="M176.934 280.08C166.47 282.164 155.854 283.395 145.19 283.76" stroke="white" stroke-linecap="round" stroke-linejoin="round"/>
<path d="M173.343 193.688C172.713 194.9 172.384 196.245 172.384 197.611C172.384 198.976 172.713 200.322 173.343 201.534" stroke="#263238" stroke-linecap="round" stroke-linejoin="round"/>
<path d="M115.007 171.608C120.086 174.758 127.21 177.422 132.539 173.33" stroke="#263238" stroke-linecap="round" stroke-linejoin="round"/>
<path d="M110.996 168.752C111.688 169.341 112.409 169.886 113.145 170.408" stroke="#263238" stroke-linecap="round" stroke-linejoin="round"/>
<path d="M154.678 188.389C154.376 191.193 154.118 194.534 152.609 196.993" stroke="#263238" stroke-linecap="round" stroke-linejoin="round"/>
<path d="M155.001 184.333C155.001 185.069 154.906 185.857 154.847 186.622" stroke="#263238" stroke-linecap="round" stroke-linejoin="round"/>
<path d="M157.74 196.993C157.74 196.993 155.981 198.855 152.654 198.001" stroke="#263238" stroke-linecap="round" stroke-linejoin="round"/>
<path d="M101.134 189.714C101.134 189.714 100.913 201.799 96.8721 207.113" stroke="#263238" stroke-linecap="round" stroke-linejoin="round"/>
<path d="M124.134 242.264L121.263 241.58" stroke="#263238" stroke-linecap="round" stroke-linejoin="round"/>
<path d="M159.947 238.525C155.818 238.584 152.138 241.528 148.458 244.472C141.098 248.888 133.738 243 126.084 242.669" stroke="#263238" stroke-linecap="round" stroke-linejoin="round"/>
<path d="M102.878 236.199C102.238 240.829 101.531 245.451 100.552 250.014" stroke="#263238" stroke-linecap="round" stroke-linejoin="round"/>
<path d="M103.607 230.488C103.481 231.607 103.342 232.696 103.194 233.837" stroke="#263238" stroke-linecap="round" stroke-linejoin="round"/>
<path d="M143.976 214.377C139.332 222.267 132.664 231.268 123.265 233.513" stroke="#263238" stroke-linecap="round" stroke-linejoin="round"/>
<path d="M149.032 204.272C147.885 207.06 146.571 209.776 145.095 212.404" stroke="#263238" stroke-linecap="round" stroke-linejoin="round"/>
<path d="M88.8203 199.782C85.2949 208.408 81.6958 218.712 75.3662 225.763" stroke="#263238" stroke-linecap="round" stroke-linejoin="round"/>
<path d="M91.264 193.688C90.7782 194.976 90.2704 196.264 89.792 197.552" stroke="#263238" stroke-linecap="round" stroke-linejoin="round"/>
<path d="M79.8779 251.412C79.8779 251.412 71.4359 258.353 67.9399 258.772" stroke="#263238" stroke-linecap="round" stroke-linejoin="round"/>
<path d="M65.6732 280.882C64.0761 280.006 62.1919 278.902 61.3823 277.202" stroke="#263238" stroke-linecap="round" stroke-linejoin="round"/>
<path d="M71.4874 283.436C70.2215 282.994 68.9776 282.486 67.7559 281.927" stroke="#263238" stroke-linecap="round" stroke-linejoin="round"/>
<path d="M187.746 185.931C188.661 186.876 189.842 187.52 191.132 187.778" stroke="#263238" stroke-linecap="round" stroke-linejoin="round"/>
<path d="M184 180.44C184.576 181.69 185.274 182.881 186.083 183.995" stroke="#263238" stroke-linecap="round" stroke-linejoin="round"/>
<path d="M112.085 165.58C112.085 165.58 117.237 173.006 126.069 171.991C130.942 171.424 130.441 167.67 130.441 167.67C129.75 167.229 129.23 166.564 128.969 165.786C128.447 164.454 128.233 162.283 129.462 158.89C129.462 158.794 129.529 158.691 129.565 158.596C130.949 154.916 114.279 149.712 114.279 149.712C114.279 149.712 116.288 159.324 112.085 165.58Z" fill="white" stroke="#263238" stroke-linecap="round" stroke-linejoin="round"/>
<path d="M120.159 156.329C120.159 156.329 123.25 164.035 128.991 165.786C128.469 164.454 128.255 162.283 129.484 158.89L120.159 156.329Z" fill="#263238"/>
<path d="M118.636 154.518C118.246 157.823 126.666 162.82 131.597 162.805C133.849 162.805 136.97 158.456 138.294 152.045C138.957 148.807 136.977 145.635 138.581 141.123C139.95 137.266 137.271 125.763 125.915 124.82C109.686 123.474 107.795 140.873 114.985 152.612" fill="white"/>
<path d="M118.636 154.518C118.246 157.823 126.666 162.82 131.597 162.805C133.849 162.805 136.97 158.456 138.294 152.045C138.957 148.807 136.977 145.635 138.581 141.123C139.95 137.266 137.271 125.763 125.915 124.82C109.686 123.474 107.795 140.873 114.985 152.612" stroke="#263238" stroke-linecap="round" stroke-linejoin="round"/>
<path d="M138.912 140.254C138.47 139.645 137.858 139.179 137.152 138.918C136.446 138.656 135.678 138.609 134.945 138.782" stroke="#263238" stroke-linecap="round" stroke-linejoin="round"/>
<path d="M129.536 138.694C129.536 138.694 126.187 138.356 124.148 140.254" stroke="#263238" stroke-linecap="round" stroke-linejoin="round"/>
<path d="M134.069 140.976C133.775 144.324 137.565 149.933 136.616 150.735C135.667 151.537 133.414 150.441 132.539 149.999" stroke="#263238" stroke-linecap="round" stroke-linejoin="round"/>
<path d="M128.174 144.84C128.536 144.84 128.829 144.431 128.829 143.927C128.829 143.423 128.536 143.014 128.174 143.014C127.812 143.014 127.519 143.423 127.519 143.927C127.519 144.431 127.812 144.84 128.174 144.84Z" fill="#263238"/>
<path d="M136.115 144.84C136.477 144.84 136.771 144.431 136.771 143.927C136.771 143.423 136.477 143.014 136.115 143.014C135.754 143.014 135.46 143.423 135.46 143.927C135.46 144.431 135.754 144.84 136.115 144.84Z" fill="#263238"/>
<path d="M133.996 154.297C133.996 154.297 130.139 154.812 128.174 152.774" stroke="#263238" stroke-linecap="round" stroke-linejoin="round"/>
<path d="M128.8 153.318C128.9 153.89 129.168 154.42 129.568 154.84C129.969 155.261 130.485 155.553 131.052 155.681C133.091 156.189 133.017 154.356 133.017 154.356" stroke="#263238" stroke-linecap="round" stroke-linejoin="round"/>
<path d="M123.074 132.247C123.074 132.247 141.128 137.193 143.02 129.553C143.02 129.553 139.737 129.943 136.116 125.983C131.7 121.126 124.531 119.867 118.489 122.053C112.446 124.239 112.814 127.404 112.814 127.404C112.814 127.404 109.245 127.875 107.662 132.173C106.08 136.471 108.59 151.655 114.647 154.879L116.325 152.774C116.325 152.774 115.655 148.439 118.533 145.2L120.137 145.612C120.137 145.612 118.393 141.859 120.211 139.813C122.114 137.76 123.142 135.045 123.074 132.247Z" fill="#263238"/>
<path d="M118.496 144.84C118.496 144.84 116.678 139.599 114.352 140.976C112.026 142.352 114.566 152.406 118.496 150.154" fill="white"/>
<path d="M118.496 144.84C118.496 144.84 116.678 139.599 114.352 140.976C112.026 142.352 114.566 152.406 118.496 150.154" stroke="#263238" stroke-linecap="round" stroke-linejoin="round"/>
<path opacity="0.3" d="M118.496 127.993C118.496 127.993 129.72 129.884 133.054 125.372" stroke="white" stroke-linecap="round" stroke-linejoin="round"/>
<path opacity="0.3" d="M125.768 130.613C125.768 130.613 133.569 133.233 138.913 130.613" stroke="white" stroke-linecap="round" stroke-linejoin="round"/>
<path opacity="0.3" d="M115.971 131.776C115.971 131.776 115.861 138.245 109.892 140.254" stroke="white" stroke-linecap="round" stroke-linejoin="round"/>
</g>
<defs>
<clipPath id="clip0">
<rect width="368" height="368" fill="white" transform="translate(0 -33)"/>
</clipPath>
</defs>
</svg>
