<svg width="298" height="298" viewBox="0 0 298 298" fill="none" xmlns="http://www.w3.org/2000/svg">
<g clip-path="url(#clip0)">
<path d="M187.512 22.9659C187.512 22.9659 142.454 6.94514 98.228 32.455C54.002 57.9648 31.6708 108.594 12.5064 149.153C-6.658 189.711 4.35627 230.974 38.121 249.783C71.8857 268.593 94.8399 240.865 142.204 239.514C189.567 238.164 202.322 244.934 241.652 218.178C280.982 191.423 288.055 128.23 257.056 81.4778C226.056 34.7253 187.512 22.9659 187.512 22.9659Z" fill="#6692D8"/>
<path opacity="0.7" d="M187.512 22.9659C187.512 22.9659 142.454 6.94514 98.228 32.455C54.002 57.9648 31.6708 108.594 12.5064 149.153C-6.658 189.711 4.35627 230.974 38.121 249.783C71.8857 268.593 94.8399 240.865 142.204 239.514C189.567 238.164 202.322 244.934 241.652 218.178C280.982 191.423 288.055 128.23 257.056 81.4778C226.056 34.7253 187.512 22.9659 187.512 22.9659Z" fill="white"/>
<path d="M16.9011 167.758C16.9011 167.758 17.9839 169.813 17.0234 171.74C16.0628 173.667 14.8519 175.6 15.5738 176.566C16.2957 177.533 18.4846 178.738 18.2284 180.787C17.9723 182.836 15.0906 186.94 16.9011 189.234C18.7116 191.528 21.7271 191.405 21.8494 193.938C21.9716 196.47 18.9386 198.519 19.7944 200.813C20.6502 203.106 25.6159 203.59 25.6159 205.156C25.6159 206.722 23.6832 208.416 25.255 210.104C26.8268 211.792 34.4064 216.199 35.4659 214.389C36.5254 212.578 38.7376 207.572 37.2997 200.464C37.0551 199.27 35.3553 199.002 35.1166 197.314C34.8779 195.626 35.5998 192.61 34.3947 190.91C33.1897 189.211 29.3242 188.617 29.0855 187.289C28.8468 185.962 30.5292 182.708 28.841 180.659C27.1528 178.61 23.1709 177.655 23.1709 176.316C23.1709 174.977 24.3817 173.3 22.6935 171.49C21.0053 169.679 16.9011 167.758 16.9011 167.758Z" fill="#6692D8"/>
<path d="M22.6758 181.974C25.1907 189.542 29.5917 199.829 31.3789 204.795C33.5503 210.826 35.454 215.192 36.4029 221.223C37.3518 227.254 37.899 267.649 37.899 267.649" stroke="#263238" stroke-linecap="round" stroke-linejoin="round"/>
<path d="M17.5239 168.486C17.5239 168.486 19.5731 170.174 21.3836 177.533C21.5 178.004 21.6339 178.505 21.7794 179.035" stroke="#263238" stroke-linecap="round" stroke-linejoin="round"/>
<path d="M54.6069 181.503C54.3614 181.996 54.226 182.537 54.2099 183.088C54.1938 183.639 54.2975 184.186 54.5138 184.693C55.2822 186.236 56.2602 187.779 55.6781 188.553C55.0959 189.327 53.3495 190.299 53.5532 191.929C53.757 193.559 56.0623 196.854 54.6127 198.688C53.1632 200.522 50.7531 200.434 50.6541 202.455C50.5551 204.475 52.9827 206.122 52.2958 207.956C51.6088 209.79 47.6386 210.18 47.6386 211.449C47.6386 212.718 49.1871 214.057 47.9296 215.407C46.6722 216.758 40.6178 220.268 39.7504 218.813C38.883 217.358 37.1366 213.358 38.2834 207.671C38.4755 206.716 39.8378 206.506 40.0299 205.15C40.222 203.793 39.6456 201.383 40.612 200.033C41.5784 198.682 44.6871 198.199 44.8559 197.122C45.0247 196.045 43.6916 193.454 45.048 191.813C46.4044 190.171 49.5888 189.397 49.5888 188.32C49.5888 187.243 48.6224 185.904 49.973 184.454C51.3236 183.005 54.6069 181.503 54.6069 181.503Z" fill="#6692D8"/>
<path d="M49.9846 192.878C47.9762 198.95 44.4542 207.17 42.9988 211.14C41.2524 215.972 39.7504 219.465 38.982 224.291C38.2135 229.117 37.7886 261.444 37.7886 261.444" stroke="#263238" stroke-linecap="round" stroke-linejoin="round"/>
<path d="M54.1239 182.085C54.1239 182.085 52.4822 183.436 51.0384 189.327C50.9453 189.705 50.8347 190.107 50.7183 190.526" stroke="#263238" stroke-linecap="round" stroke-linejoin="round"/>
<path d="M21.4126 208.841C21.6169 209.252 21.73 209.703 21.7441 210.162C21.7581 210.621 21.6729 211.078 21.4941 211.501C20.8479 212.793 20.0387 214.08 20.5219 214.726C21.0051 215.372 22.4605 216.181 22.2975 217.55C22.1345 218.918 20.2017 221.665 21.4126 223.196C22.6235 224.727 24.6377 224.646 24.7192 226.34C24.8007 228.034 22.7632 229.408 23.3453 230.939C23.9275 232.47 27.2166 232.796 27.2166 233.85C27.2166 234.903 25.9301 236.027 26.978 237.156C28.0258 238.286 33.0964 241.231 33.824 240.021C34.5517 238.81 36.0129 235.462 35.0466 230.706C34.8894 229.909 33.7542 229.728 33.5912 228.599C33.4282 227.469 33.9114 225.455 33.108 224.326C32.3046 223.196 29.7199 222.795 29.5569 221.904C29.3939 221.013 30.5233 218.842 29.3939 217.468C28.2645 216.094 25.6041 215.454 25.6041 214.557C25.6041 213.661 26.4133 212.537 25.2839 211.326C24.1545 210.115 21.4126 208.841 21.4126 208.841Z" fill="#6692D8"/>
<path d="M25.2725 218.347C26.9549 223.417 29.8947 230.281 31.094 233.599C32.5493 237.634 33.8126 240.585 34.453 244.584C35.0933 248.584 35.4543 263.586 35.4543 263.586" stroke="#263238" stroke-linecap="round" stroke-linejoin="round"/>
<path d="M21.814 209.324C21.814 209.324 23.1878 210.453 24.3929 215.372C24.4744 215.692 24.5617 216.024 24.6607 216.374" stroke="#263238" stroke-linecap="round" stroke-linejoin="round"/>
<path d="M62.9313 206.832C62.6371 207.186 62.4234 207.599 62.3047 208.043C62.1861 208.487 62.1655 208.952 62.2443 209.405C62.5762 210.808 63.071 212.246 62.4481 212.764C61.8252 213.282 60.2359 213.736 60.0787 215.093C59.9216 216.449 61.179 219.575 59.6479 220.792C58.1169 222.009 56.155 221.461 55.7068 223.121C55.2585 224.78 56.8711 226.544 55.992 227.906C55.113 229.268 51.8006 228.826 51.5561 229.85C51.3116 230.875 52.3187 232.26 51.0379 233.122C49.7572 233.984 44.1686 235.695 43.7203 234.339C43.2721 232.982 42.6375 229.402 44.6576 224.995C45.0011 224.256 46.1479 224.343 46.5612 223.278C46.9745 222.212 46.9687 220.146 48.0108 219.232C49.0528 218.318 51.6608 218.51 52.0218 217.683C52.3827 216.857 51.7773 214.481 53.1861 213.404C54.5949 212.328 57.3368 212.31 57.5406 211.443C57.7443 210.575 57.2146 209.3 58.5943 208.381C59.9739 207.461 62.9313 206.832 62.9313 206.832Z" fill="#6692D8"/>
<path d="M57.0228 215.198C54.2285 219.75 49.7925 225.764 47.8714 228.721C45.5428 232.313 42.731 234.612 42.0848 238.647C41.4386 242.681 41.0894 257.648 41.0894 257.648" stroke="#263238" stroke-linecap="round" stroke-linejoin="round"/>
<path d="M62.4548 207.21C62.4548 207.21 60.8597 207.996 58.5603 212.508C58.4089 212.799 58.2459 213.09 58.0654 213.422" stroke="#263238" stroke-linecap="round" stroke-linejoin="round"/>
<path d="M34.3073 272.196H43.2783C47.9995 269.762 51.3527 263.603 51.3527 256.379C51.4294 252.047 50.1064 247.807 47.5803 244.288H30.0052C27.4875 247.81 26.1727 252.05 26.2562 256.379C26.2562 263.603 29.5861 269.762 34.3073 272.196Z" fill="white" stroke="#263238" stroke-linecap="round" stroke-linejoin="round"/>
<path d="M43.4411 272.196H34.3071V273.535H43.4411V272.196Z" fill="white" stroke="#263238" stroke-linecap="round" stroke-linejoin="round"/>
<path d="M167.94 46.4963H24.9409V154.73H167.94V46.4963Z" stroke="#263238" stroke-linecap="round" stroke-linejoin="round"/>
<path d="M164.599 49.3665H28.2769V151.866H164.599V49.3665Z" stroke="#263238" stroke-linecap="round" stroke-linejoin="round"/>
<path d="M69.8303 64.4092C69.8303 64.4092 47.5572 62.7967 45.6827 66.2896C43.8082 69.7825 45.1413 133.644 46.2183 134.448C47.2952 135.251 77.3458 135.787 80.2973 134.716C83.2488 133.644 79.232 68.6997 79.232 66.8193C79.232 64.939 72.2462 64.1356 72.2462 64.1356" stroke="#263238" stroke-width="2" stroke-linecap="round" stroke-linejoin="round"/>
<path d="M47.9824 117.268C48.029 125.686 48.2095 131.857 48.6344 132.026C49.9734 132.561 78.4172 134.977 79.2206 132.294C80.024 129.61 77.0725 68.9673 77.0725 68.9673" stroke="#263238" stroke-width="2" stroke-linecap="round" stroke-linejoin="round"/>
<path d="M76.0013 68.6996C76.0013 68.6996 48.9022 67.6284 48.6403 68.9674C48.4656 69.8231 47.9708 94.9662 47.9766 113.246" stroke="#263238" stroke-width="2" stroke-linecap="round" stroke-linejoin="round"/>
<path d="M49.438 73.5315H75.7337" stroke="#263238" stroke-width="2" stroke-linecap="round" stroke-linejoin="round"/>
<path d="M73.3175 72.3146C71.7107 74.0145 73.3175 72.3146 74.3944 69.8871C75.4714 67.4595 73.3175 70.3703 70.9015 72.3146C68.4856 74.259 69.8304 72.8036 70.6338 70.1316C71.4371 67.4595 69.8304 70.1316 67.6823 71.8315C65.5341 73.5313 66.6111 72.8036 67.4145 69.8871C68.2178 66.9705 67.4145 69.8871 64.1952 71.8315C60.9759 73.7758 62.5826 73.77 64.1952 70.8593C65.8077 67.9485 63.124 70.8593 60.1725 71.8315C57.221 72.8036 60.1725 71.8315 61.2437 69.1594C62.3148 66.4873 59.3633 69.8871 57.221 71.3425C55.0787 72.7978 57.221 71.3425 57.7566 69.6426C58.2922 67.9427 56.4118 70.1316 54.2637 72.3146C52.1156 74.4977 54.2637 72.3146 54.5315 70.3703C54.7993 68.4259 52.1156 73.5313 52.1156 73.5313C52.1156 73.5313 52.9189 68.6704 52.3833 69.8871C52.0261 70.6671 51.5745 71.4002 51.0386 72.0701" stroke="#6692D8" stroke-width="2" stroke-linecap="round" stroke-linejoin="round"/>
<path d="M63.9276 78.0896H50.7769V91.7759H63.9276V78.0896Z" stroke="#6692D8" stroke-width="2" stroke-linecap="round" stroke-linejoin="round"/>
<path d="M53.4606 78.0896L51.3183 80.5055L55.8765 78.8988L51.3183 83.1892L58.828 78.3574L51.3183 86.4085L61.5117 78.8988L50.7769 88.8244L63.6598 79.9699L50.7769 91.7759L63.6598 83.1892L54.5375 91.2404L63.9276 86.1407L58.0246 90.9726L63.6598 89.0922L62.5829 90.9726" stroke="#6692D8" stroke-width="2" stroke-linecap="round" stroke-linejoin="round"/>
<path d="M75.2622 119.952H65.2085V130.419H75.2622V119.952Z" stroke="#6692D8" stroke-width="2" stroke-linecap="round" stroke-linejoin="round"/>
<path d="M67.2577 119.952L65.616 121.798L69.1031 120.569L65.616 123.853L71.3618 120.156L65.616 126.315L73.411 120.569L65.2085 128.16L75.0527 121.39L65.2085 130.419L75.0527 123.853L68.0785 130.006L75.2622 126.105L70.7447 129.802L75.0527 128.364L74.2318 129.802" stroke="#6692D8" stroke-width="2" stroke-linecap="round" stroke-linejoin="round"/>
<path d="M50.5088 96.8757H76.2689" stroke="#263238" stroke-width="2" stroke-linecap="round" stroke-linejoin="round"/>
<path d="M50.2417 99.2915L75.7341 99.5593" stroke="#263238" stroke-width="2" stroke-linecap="round" stroke-linejoin="round"/>
<path d="M66.6113 78.8987H74.9303" stroke="#263238" stroke-width="2" stroke-linecap="round" stroke-linejoin="round"/>
<path d="M66.6113 82.1182H74.9303" stroke="#263238" stroke-width="2" stroke-linecap="round" stroke-linejoin="round"/>
<path d="M66.6113 85.3372H74.9303" stroke="#263238" stroke-width="2" stroke-linecap="round" stroke-linejoin="round"/>
<path d="M66.6113 88.5566H74.9303" stroke="#263238" stroke-width="2" stroke-linecap="round" stroke-linejoin="round"/>
<path d="M75.7336 100.898H50.7769V112.972H75.7336V100.898Z" stroke="#6692D8" stroke-width="2" stroke-linecap="round" stroke-linejoin="round"/>
<path d="M50.5092 103.314L53.9963 101.166L49.9736 107.337L56.68 101.166L50.777 110.026L61.2441 100.898L52.1218 111.633L63.3922 101.166L54.8055 111.633L67.1471 100.898L57.2214 112.704L69.563 101.166L60.1729 112.169L72.7823 100.898L63.1244 112.704L75.7338 100.898L66.6115 112.436L75.1982 104.927L69.563 111.901L75.1982 108.146L74.0921 109.939L73.0501 111.633" stroke="#6692D8" stroke-width="2" stroke-linecap="round" stroke-linejoin="round"/>
<path d="M51.8535 116.197H74.93" stroke="#263238" stroke-width="2" stroke-linecap="round" stroke-linejoin="round"/>
<path d="M51.3179 119.149H58.8276" stroke="#263238" stroke-width="2" stroke-linecap="round" stroke-linejoin="round"/>
<path d="M80.2979 70.3122L98.7171 68.0476" stroke="#263238" stroke-width="2" stroke-linecap="round" stroke-linejoin="round"/>
<path d="M77.3457 83.457H96.6615" stroke="#263238" stroke-width="2" stroke-linecap="round" stroke-linejoin="round"/>
<path d="M46.754 107.878L38.4351 110.83" stroke="#263238" stroke-width="2" stroke-linecap="round" stroke-linejoin="round"/>
<path d="M70.3659 132.294C70.3659 132.294 68.7591 140.613 79.7559 142.772" stroke="#263238" stroke-width="2" stroke-linecap="round" stroke-linejoin="round"/>
<path d="M78.1497 140.613L80.8334 143.029L77.0728 144.1" stroke="#263238" stroke-width="2" stroke-linecap="round" stroke-linejoin="round"/>
<path d="M94.2461 81.041L98.5424 83.7247L94.7875 85.3373" stroke="#263238" stroke-width="2" stroke-linecap="round" stroke-linejoin="round"/>
<path d="M95.23 67.2441L99.7882 67.7797L96.5689 70.7312" stroke="#263238" stroke-width="2" stroke-linecap="round" stroke-linejoin="round"/>
<path d="M39.5065 108.146L34.9482 111.901L40.5834 112.169" stroke="#263238" stroke-width="2" stroke-linecap="round" stroke-linejoin="round"/>
<path d="M110.081 81.041H99.8813V91.7759H110.081V81.041Z" fill="#6692D8"/>
<path d="M102.297 83.457L108.2 83.7248" stroke="#263238" stroke-width="2" stroke-linecap="round" stroke-linejoin="round"/>
<path d="M102.297 85.6052L108.2 85.873" stroke="#263238" stroke-width="2" stroke-linecap="round" stroke-linejoin="round"/>
<path d="M102.297 87.7532L108.2 88.0209" stroke="#263238" stroke-width="2" stroke-linecap="round" stroke-linejoin="round"/>
<path d="M93.8604 95.5047L83.7314 96.7L84.9895 107.361L95.1184 106.166L93.8604 95.5047Z" fill="#6692D8"/>
<path d="M86.4102 98.8202L92.3015 98.3953" stroke="#263238" stroke-width="2" stroke-linecap="round" stroke-linejoin="round"/>
<path d="M86.6606 100.951L92.552 100.526" stroke="#263238" stroke-width="2" stroke-linecap="round" stroke-linejoin="round"/>
<path d="M86.9106 103.081L92.8078 102.656" stroke="#263238" stroke-width="2" stroke-linecap="round" stroke-linejoin="round"/>
<path d="M41.0064 113.752L30.8774 114.947L32.1355 125.608L42.2645 124.413L41.0064 113.752Z" fill="#6692D8"/>
<path d="M33.5449 117.065L39.4421 116.64" stroke="#263238" stroke-width="2" stroke-linecap="round" stroke-linejoin="round"/>
<path d="M33.7954 119.201L39.6926 118.776" stroke="#263238" stroke-width="2" stroke-linecap="round" stroke-linejoin="round"/>
<path d="M34.0513 121.332L39.9426 120.907" stroke="#263238" stroke-width="2" stroke-linecap="round" stroke-linejoin="round"/>
<path d="M93.708 136.087L83.5659 135.009L82.4308 145.683L92.5729 146.762L93.708 136.087Z" fill="#6692D8"/>
<path d="M85.7236 137.661L91.5626 138.552" stroke="#263238" stroke-width="2" stroke-linecap="round" stroke-linejoin="round"/>
<path d="M85.4966 139.798L91.3356 140.688" stroke="#263238" stroke-width="2" stroke-linecap="round" stroke-linejoin="round"/>
<path d="M85.269 141.934L91.108 142.825" stroke="#263238" stroke-width="2" stroke-linecap="round" stroke-linejoin="round"/>
<path d="M167.934 154.73H24.9409V158.386H167.934V154.73Z" fill="#263238" stroke="#263238" stroke-linecap="round" stroke-linejoin="round"/>
<path d="M225.317 180.932V174.109H204.785V180.932C204.783 183.167 204.012 185.334 202.602 187.068L201.705 188.18H228.397L227.5 187.068C226.09 185.334 225.319 183.167 225.317 180.932Z" fill="#263238" stroke="#263238" stroke-linecap="round" stroke-linejoin="round"/>
<path d="M224.153 180.932V174.109H203.62V180.932C203.618 183.167 202.848 185.334 201.437 187.068L200.541 188.18H227.232L226.336 187.068C224.926 185.334 224.155 183.167 224.153 180.932V180.932Z" fill="white" stroke="#263238" stroke-linecap="round" stroke-linejoin="round"/>
<path d="M224.316 176.036H203.702V178.126H224.316V176.036Z" fill="#263238"/>
<path d="M250.21 115.662H177.557C174.831 115.662 172.621 117.872 172.621 120.598V171.321C172.621 174.047 174.831 176.258 177.557 176.258H250.21C252.936 176.258 255.146 174.047 255.146 171.321V120.598C255.146 117.872 252.936 115.662 250.21 115.662Z" fill="#263238" stroke="#263238" stroke-linecap="round" stroke-linejoin="round"/>
<path d="M252.428 115.662H179.775C177.049 115.662 174.839 117.872 174.839 120.598V171.321C174.839 174.047 177.049 176.258 179.775 176.258H252.428C255.154 176.258 257.364 174.047 257.364 171.321V120.598C257.364 117.872 255.154 115.662 252.428 115.662Z" fill="#263238" stroke="#263238" stroke-linecap="round" stroke-linejoin="round"/>
<path d="M172.621 166.838H255.152V171.321C255.152 172.63 254.632 173.886 253.706 174.812C252.781 175.737 251.525 176.258 250.216 176.258H177.563C176.254 176.258 174.998 175.737 174.073 174.812C173.147 173.886 172.627 172.63 172.627 171.321V166.838H172.621Z" fill="white" stroke="#263238" stroke-linecap="round" stroke-linejoin="round"/>
<path d="M250.996 119.434H176.772V162.245H250.996V119.434Z" fill="white"/>
<path d="M202.602 123.893H188.001C187.024 123.893 186.231 124.685 186.231 125.663V155.818C186.231 156.796 187.024 157.588 188.001 157.588H202.602C203.579 157.588 204.371 156.796 204.371 155.818V125.663C204.371 124.685 203.579 123.893 202.602 123.893Z" fill="#263238"/>
<path d="M202.852 126.717H187.757V154.753H202.852V126.717Z" fill="#6692D8"/>
<path d="M222.75 127.188H209.087V128.603H222.75V127.188Z" fill="#263238"/>
<path d="M215.689 130.256H209.326V136.852H215.689V130.256Z" fill="#6692D8"/>
<path d="M221.807 150.515H218.401V154.049H221.807V150.515Z" fill="#6692D8"/>
<path d="M222.441 141.562H209.482V148.157H222.441V141.562Z" fill="#6692D8"/>
<path d="M216.864 130.728H222.045" stroke="#263238" stroke-linecap="round" stroke-linejoin="round"/>
<path d="M216.864 132.375H222.045" stroke="#263238" stroke-linecap="round" stroke-linejoin="round"/>
<path d="M216.864 134.023H222.045" stroke="#263238" stroke-linecap="round" stroke-linejoin="round"/>
<path d="M216.864 135.67H222.045" stroke="#263238" stroke-linecap="round" stroke-linejoin="round"/>
<path d="M209.715 139.442H222.202" stroke="#263238" stroke-linecap="round" stroke-linejoin="round"/>
<path d="M209.715 149.811H222.202" stroke="#263238" stroke-linecap="round" stroke-linejoin="round"/>
<path d="M223.932 125.779H207.911V155.469H223.932V125.779Z" stroke="#263238" stroke-linecap="round" stroke-linejoin="round"/>
<path d="M243.486 125.779H228.408V136.852H243.486V125.779Z" fill="#BFBFBF"/>
<path d="M243.486 125.779H228.408V128.137H243.486V125.779Z" fill="#263238"/>
<path d="M233.52 129.849H229.578V133.662H233.52V129.849Z" stroke="#263238" stroke-linecap="round" stroke-linejoin="round"/>
<path d="M241.402 129.849H237.461V133.662H241.402V129.849Z" stroke="#263238" stroke-linecap="round" stroke-linejoin="round"/>
<path d="M242.036 127.119C242.036 127.234 242.002 127.346 241.938 127.442C241.874 127.538 241.783 127.612 241.677 127.656C241.571 127.7 241.454 127.712 241.341 127.689C241.228 127.667 241.124 127.612 241.043 127.53C240.961 127.449 240.906 127.345 240.883 127.232C240.861 127.119 240.872 127.002 240.916 126.896C240.96 126.789 241.035 126.698 241.131 126.634C241.227 126.571 241.339 126.536 241.454 126.536C241.609 126.536 241.757 126.598 241.866 126.707C241.975 126.816 242.036 126.964 242.036 127.119Z" fill="white"/>
<path d="M238.73 127.689C239.045 127.689 239.3 127.433 239.3 127.118C239.3 126.803 239.045 126.548 238.73 126.548C238.415 126.548 238.159 126.803 238.159 127.118C238.159 127.433 238.415 127.689 238.73 127.689Z" fill="white"/>
<path d="M242.281 142.854H230.737V151.336H242.281V142.854Z" fill="#BFBFBF"/>
<path d="M242.281 142.854H230.737V144.658H242.281V142.854Z" fill="#263238"/>
<path d="M241.175 143.879C241.176 143.966 241.151 144.052 241.103 144.126C241.055 144.199 240.986 144.257 240.906 144.291C240.825 144.326 240.736 144.335 240.65 144.319C240.563 144.303 240.484 144.261 240.421 144.199C240.359 144.138 240.316 144.059 240.299 143.973C240.281 143.887 240.29 143.798 240.323 143.716C240.356 143.635 240.413 143.566 240.486 143.517C240.559 143.468 240.644 143.442 240.732 143.442C240.849 143.442 240.96 143.488 241.043 143.569C241.126 143.651 241.173 143.762 241.175 143.879V143.879Z" fill="white"/>
<path d="M239.079 143.879C239.079 143.994 239.033 144.105 238.951 144.187C238.869 144.269 238.758 144.315 238.642 144.315C238.526 144.315 238.415 144.269 238.333 144.187C238.252 144.105 238.206 143.994 238.206 143.879C238.206 143.763 238.252 143.652 238.333 143.57C238.415 143.488 238.526 143.442 238.642 143.442C238.758 143.442 238.869 143.488 238.951 143.57C239.033 143.652 239.079 143.763 239.079 143.879V143.879Z" fill="white"/>
<path d="M184.066 121.681H179.217V159.713H184.066V121.681Z" fill="#BFBFBF"/>
<path d="M184.066 121.681H179.217V123.428H184.066V121.681Z" fill="#263238"/>
<path d="M182.709 124.592H180.381V127.31H182.709V124.592Z" stroke="#263238" stroke-linecap="round" stroke-linejoin="round"/>
<path d="M182.709 129.051H180.381V131.77H182.709V129.051Z" stroke="#263238" stroke-linecap="round" stroke-linejoin="round"/>
<path d="M182.709 133.516H180.381V136.235H182.709V133.516Z" stroke="#263238" stroke-linecap="round" stroke-linejoin="round"/>
<path d="M182.709 137.981H180.381V140.7H182.709V137.981Z" stroke="#263238" stroke-linecap="round" stroke-linejoin="round"/>
<path d="M182.709 142.44H180.381V145.159H182.709V142.44Z" stroke="#263238" stroke-linecap="round" stroke-linejoin="round"/>
<path d="M182.709 146.906H180.381V149.624H182.709V146.906Z" stroke="#263238" stroke-linecap="round" stroke-linejoin="round"/>
<path d="M182.709 151.371H180.381V154.089H182.709V151.371Z" stroke="#263238" stroke-linecap="round" stroke-linejoin="round"/>
<path d="M182.709 155.83H180.381V158.548H182.709V155.83Z" stroke="#263238" stroke-linecap="round" stroke-linejoin="round"/>
<path d="M248.883 121.291H187.175V122.845H248.883V121.291Z" fill="#BFBFBF"/>
<path d="M248.883 158.939H187.175V160.493H248.883V158.939Z" fill="#BFBFBF"/>
<path d="M227.238 188.18H200.541V189.397H227.238V188.18Z" fill="#263238" stroke="#263238" stroke-linecap="round" stroke-linejoin="round"/>
<path d="M244.691 187.185H182.71V189.397H244.691V187.185Z" fill="white" stroke="#263238" stroke-linecap="round" stroke-linejoin="round"/>
<path d="M127.167 273.535H124.647L123.383 196.301H128.431L127.167 273.535Z" fill="white" stroke="#263238" stroke-linecap="round" stroke-linejoin="round"/>
<path d="M127.167 273.535H126.055L126.207 196.301H128.43L127.167 273.535Z" fill="#263238" stroke="#263238" stroke-linecap="round" stroke-linejoin="round"/>
<path d="M163.103 273.535H160.582L159.319 196.301H164.366L163.103 273.535Z" fill="white" stroke="#263238" stroke-linecap="round" stroke-linejoin="round"/>
<path d="M163.103 273.535H161.991L162.142 196.301H164.366L163.103 273.535Z" fill="#263238" stroke="#263238" stroke-linecap="round" stroke-linejoin="round"/>
<path d="M150.237 273.535H147.711L146.453 196.301H151.495L150.237 273.535Z" fill="#263238" stroke="#263238" stroke-linecap="round" stroke-linejoin="round"/>
<path d="M150.237 273.535H149.125L149.271 196.301H151.495L150.237 273.535Z" fill="#263238" stroke="#263238" stroke-linecap="round" stroke-linejoin="round"/>
<path d="M174.519 273.535H171.992L170.735 196.301H175.776L174.519 273.535Z" fill="#263238" stroke="#263238" stroke-linecap="round" stroke-linejoin="round"/>
<path d="M174.519 273.535H173.401L173.552 196.301H175.776L174.519 273.535Z" fill="#263238" stroke="#263238" stroke-linecap="round" stroke-linejoin="round"/>
<path d="M176.411 197.483H136.836V245.801H176.411V197.483Z" fill="#263238" stroke="#263238" stroke-linecap="round" stroke-linejoin="round"/>
<path d="M165.484 197.483H125.909V245.801H165.484V197.483Z" fill="white" stroke="#263238" stroke-linecap="round" stroke-linejoin="round"/>
<path d="M245.413 273.535H242.892L241.629 196.301H246.676L245.413 273.535Z" fill="white" stroke="#263238" stroke-linecap="round" stroke-linejoin="round"/>
<path d="M245.413 273.535H244.301L244.453 196.301H246.676L245.413 273.535Z" fill="#263238" stroke="#263238" stroke-linecap="round" stroke-linejoin="round"/>
<path d="M268.484 273.535H265.957L264.7 196.301H269.741L268.484 273.535Z" fill="#263238" stroke="#263238" stroke-linecap="round" stroke-linejoin="round"/>
<path d="M268.483 273.535H267.372L267.517 196.301H269.741L268.483 273.535Z" fill="#263238" stroke="#263238" stroke-linecap="round" stroke-linejoin="round"/>
<path d="M271.336 193.39H120.059V198.705H271.336V193.39Z" fill="white" stroke="#263238" stroke-linecap="round" stroke-linejoin="round"/>
<path d="M271.336 193.39H120.059V196.045H271.336V193.39Z" fill="#263238" stroke="#263238" stroke-linecap="round" stroke-linejoin="round"/>
<path d="M271.336 193.39H249.005V198.705H271.336V193.39Z" fill="#263238" stroke="#263238" stroke-linecap="round" stroke-linejoin="round"/>
<path d="M276.226 189.123H115.955V194.438H276.226V189.123Z" fill="white" stroke="#263238" stroke-linecap="round" stroke-linejoin="round"/>
<path d="M276.226 189.123H253.895V194.438H276.226V189.123Z" fill="#263238" stroke="#263238" stroke-linecap="round" stroke-linejoin="round"/>
<path d="M163.062 202.122H128.424V219.005H163.062V202.122Z" fill="white" stroke="#263238" stroke-linecap="round" stroke-linejoin="round"/>
<path d="M149.527 208.817H141.959V211.437H149.527V208.817Z" fill="#263238" stroke="#263238" stroke-linecap="round" stroke-linejoin="round"/>
<path d="M163.062 223.371H128.424V240.253H163.062V223.371Z" fill="white" stroke="#263238" stroke-linecap="round" stroke-linejoin="round"/>
<path d="M149.527 230.066H141.959V232.685H149.527V230.066Z" fill="#263238" stroke="#263238" stroke-linecap="round" stroke-linejoin="round"/>
<path d="M216.381 228.401H226.731V207.583H216.381V228.401Z" fill="#263238"/>
<path d="M218.971 249.835H224.147V221.007H218.971V249.835Z" fill="#263238"/>
<path d="M223.663 247.618C223.663 247.618 228.012 252.554 239.189 254.272C245.092 255.18 251.24 256.309 256.572 259.133C260.001 260.949 266.83 264.925 266.83 269.466C266.835 270.133 266.677 270.791 266.368 271.382C266.06 271.973 265.611 272.48 265.062 272.858C264.512 273.235 263.878 273.472 263.215 273.547C262.552 273.622 261.881 273.534 261.261 273.29C260.64 273.045 260.089 272.652 259.656 272.145C259.223 271.638 258.921 271.032 258.777 270.381C258.632 269.73 258.65 269.053 258.828 268.411C259.006 267.768 259.339 267.179 259.797 266.695C257.005 262.494 252.676 259.557 247.741 258.516C239.242 256.664 233.036 257.421 221.079 249.469L223.663 247.618Z" fill="#263238"/>
<path d="M219.967 247.618C219.967 247.618 215.618 252.554 204.441 254.272C198.538 255.18 192.39 256.309 187.058 259.133C183.623 260.949 176.8 264.925 176.8 269.466C176.794 270.133 176.952 270.792 177.26 271.384C177.568 271.977 178.017 272.484 178.567 272.862C179.117 273.24 179.751 273.478 180.414 273.553C181.078 273.629 181.749 273.54 182.37 273.295C182.991 273.05 183.543 272.657 183.976 272.149C184.409 271.641 184.711 271.034 184.855 270.382C184.998 269.731 184.98 269.053 184.801 268.41C184.622 267.767 184.287 267.178 183.827 266.695C186.621 262.496 190.949 259.559 195.883 258.516C204.389 256.664 210.594 257.421 222.552 249.469L219.967 247.618Z" fill="#263238"/>
<path d="M219.792 273.535H223.698C223.91 273.535 224.083 273.363 224.083 273.15V266.281C224.083 266.069 223.91 265.897 223.698 265.897H219.792C219.58 265.897 219.408 266.069 219.408 266.281V273.15C219.408 273.363 219.58 273.535 219.792 273.535Z" fill="#263238"/>
<path d="M220.636 273.535H222.854V248.31H220.636V273.535Z" fill="#263238"/>
<path d="M246.623 147.476C245.331 154.367 244.553 161.345 244.295 168.352C244.126 173.754 244.039 178.382 243.957 182.463C243.713 195.148 243.573 202.181 241.576 204.073C241.32 204.247 239.667 205.266 236.209 205.557C235.242 205.639 232.169 205.679 227.989 205.703C214.733 205.662 200.802 205.551 200.581 205.551H199.772C199.737 205.551 199.708 205.615 199.679 205.644C191.715 205.598 189.666 205.551 189.52 205.551H188.711C187.04 207.001 188.036 208.864 189.491 208.875C190.58 208.875 209.552 209.044 222.528 209.044C224.822 209.044 226.982 209.044 228.897 209.044H237.664C244.458 209.044 250.087 208.998 251.636 208.87C256.439 208.474 258.592 206.85 258.82 206.663C262.021 203.822 262.144 197.588 262.44 182.533C262.516 178.458 262.609 173.836 262.772 168.457C263.034 161.42 263.832 154.414 265.159 147.499L246.623 147.476Z" fill="#263238"/>
<path d="M143.705 256.169L145.015 263.01C145.015 263.01 143.851 265.484 139.339 267.521C134.827 269.559 132.644 270.432 132.644 271.014C132.644 271.596 132.353 272.906 133.517 273.343C134.682 273.779 159.423 273.343 159.423 273.343C159.423 273.343 160.733 272.761 160.733 269.995C160.733 267.23 159.569 262.136 159.569 260.972C159.569 259.808 158.748 257.002 158.748 256.606C158.748 256.21 148.799 256.752 148.799 256.752C148.799 256.752 145.888 253.986 143.705 256.169Z" fill="white" stroke="#263238" stroke-linecap="round" stroke-linejoin="round"/>
<path d="M148.799 256.751C148.799 256.751 149.527 263.301 149.964 263.737C150.4 264.174 159.569 264.174 159.569 264.174" fill="white"/>
<path d="M148.799 256.751C148.799 256.751 149.527 263.301 149.964 263.737C150.4 264.174 159.569 264.174 159.569 264.174" stroke="#263238" stroke-linecap="round" stroke-linejoin="round"/>
<path d="M159.569 260.972L149.381 261.117" stroke="#263238" stroke-linecap="round" stroke-linejoin="round"/>
<path d="M132.644 272.178H160.442" stroke="#263238" stroke-linecap="round" stroke-linejoin="round"/>
<path d="M161.897 174.133C161.897 174.133 153.829 201.296 152.839 205.039C151.85 208.782 157.566 241.651 157.566 242.239C157.566 242.827 158.352 244.602 158.352 246.57C158.352 248.537 157.566 249.125 157.962 249.719C158.358 250.313 159.709 251.687 159.534 252.869C159.474 253.779 159.055 254.629 158.37 255.232C157.935 255.685 157.395 256.023 156.798 256.216H152.071C152.071 256.216 150.907 247.356 147.74 223.936C144.573 200.516 149.713 187.126 150.697 182.795C151.367 180.001 152.357 177.294 153.648 174.727L161.897 174.133Z" fill="#263238" stroke="#263238" stroke-linecap="round" stroke-linejoin="round"/>
<path d="M137.01 256.169L138.32 263.01C138.32 263.01 137.156 265.484 132.644 267.521C128.132 269.559 125.949 270.432 125.949 271.014C125.949 271.596 125.658 272.906 126.823 273.343C127.987 273.779 152.728 273.343 152.728 273.343C152.728 273.343 154.038 272.761 154.038 269.995C154.038 267.23 152.874 262.136 152.874 260.972C152.874 259.808 152.053 257.002 152.053 256.606C152.053 256.21 142.104 256.752 142.104 256.752C142.104 256.752 139.193 253.986 137.01 256.169Z" fill="white" stroke="#263238" stroke-linecap="round" stroke-linejoin="round"/>
<path d="M142.104 256.751C142.104 256.751 142.832 263.301 143.269 263.737C143.705 264.174 152.874 264.174 152.874 264.174" fill="white"/>
<path d="M142.104 256.751C142.104 256.751 142.832 263.301 143.269 263.737C143.705 264.174 152.874 264.174 152.874 264.174" stroke="#263238" stroke-linecap="round" stroke-linejoin="round"/>
<path d="M152.874 260.972L142.687 261.117" stroke="#263238" stroke-linecap="round" stroke-linejoin="round"/>
<path d="M125.95 272.178H153.747" stroke="#263238" stroke-linecap="round" stroke-linejoin="round"/>
<path d="M129.42 174.133C129.42 174.133 129.222 191.26 130.206 198.542C131.189 205.825 134.933 222.754 135.521 232.004C136.109 241.255 137.098 245.592 137.098 245.592C137.098 245.592 135.701 246.756 135.701 247.92C135.701 249.085 136.487 249.085 136.283 250.878C136.079 252.671 135.299 253.235 135.893 254.027C136.487 254.819 136.877 256.385 138.845 256.781C140.812 257.177 150.063 256.979 152.03 256.583C153.998 256.187 154.982 254.219 154.982 252.647C154.982 251.076 154.4 249.894 154.4 248.118C154.4 246.343 155.384 244.777 155.384 243.595C155.384 242.413 154.988 241.819 154.988 240.638C154.988 239.456 152.432 220.565 152.432 216.63C152.432 212.694 152.234 199.305 152.822 195.958C153.41 192.61 156.367 176.671 156.367 176.671L129.42 174.133Z" fill="#6692D8" stroke="#263238" stroke-linecap="round" stroke-linejoin="round"/>
<path d="M141.895 179.907C144.233 180.709 146.669 181.185 149.137 181.322C151.033 181.375 152.923 181.552 154.795 181.852L155.855 176.904L141.895 179.907Z" fill="#263238" stroke="#263238" stroke-linecap="round" stroke-linejoin="round"/>
<path d="M139.735 180.758C139.735 180.758 140.702 207.804 142.646 216.822C144.591 225.839 147.152 240.649 146.512 242.582C145.871 244.515 144.899 249.02 144.899 249.02C144.899 249.02 148.444 248.38 148.444 250.307C148.444 252.234 143.292 253.532 144.579 254.498C145.865 255.465 147.146 256.524 147.146 256.524" stroke="#263238" stroke-linecap="round" stroke-linejoin="round"/>
<path d="M151.174 249.882C151.174 249.882 140.486 251.629 143.519 252.211C146.552 252.793 152.333 252.065 152.624 251.344C152.915 250.622 152.042 249.737 151.174 249.882Z" fill="#263238" stroke="#263238" stroke-linecap="round" stroke-linejoin="round"/>
<path d="M103.997 62.8839L103.7 74.9693L115.099 74.8703L115.198 62.7849L103.997 62.8839Z" fill="#6692D8"/>
<path d="M116.967 85.186C116.967 85.186 114.51 82.7294 113.427 80.4706C112.344 78.2119 110.778 76.838 110.778 75.2662C110.778 73.6944 111.465 70.0269 111.168 68.5831C110.871 67.1394 111.168 64.0656 112.152 64.0656C112.381 64.0656 112.606 64.1173 112.812 64.2169C113.017 64.3165 113.198 64.4613 113.34 64.6405C113.481 64.8197 113.581 65.0287 113.63 65.2518C113.679 65.4748 113.678 65.7062 113.625 65.9285C113.427 66.9124 114.207 70.3529 114.207 70.3529C114.207 70.3529 114.993 63.7687 115.092 63.3671C115.191 62.9654 116.565 62.9712 117.159 63.2681C117.752 63.565 118.434 63.4602 118.434 64.7409C118.434 66.0217 118.137 67.4887 118.137 67.7856C118.137 68.0825 120.89 69.6543 120.989 70.8302C121.088 72.0062 120.791 74.8587 120.104 76.0696C119.635 76.8021 119.244 77.5827 118.94 78.3982C118.841 78.7882 121.595 82.9156 121.595 82.9156L116.967 85.186Z" fill="white" stroke="#263238" stroke-linecap="round" stroke-linejoin="round"/>
<path d="M121.548 81.0352L114.854 86.1523C114.854 86.1523 126.269 109.77 126.665 110.533C127.061 111.295 135.322 116.442 135.322 116.442L147.722 101.084C147.722 101.084 132.172 96.1652 131.782 95.5773C131.392 94.9893 121.548 81.0352 121.548 81.0352Z" fill="#263238" stroke="#263238" stroke-linecap="round" stroke-linejoin="round"/>
<path d="M129.443 167.828L128.86 176.997C128.86 176.997 136.428 180.199 144.578 180.053C152.729 179.908 163.644 176.706 163.644 176.706L165.245 167.682C165.245 167.682 145.597 169.283 139.63 168.701C133.663 168.119 129.443 167.828 129.443 167.828Z" fill="white" stroke="#263238" stroke-linecap="round" stroke-linejoin="round"/>
<path d="M123.621 164.917L123.185 167.537C123.185 167.537 129.35 170.902 142.978 172.194C151.365 172.967 159.822 172.077 167.865 169.574L168.01 165.063C160.763 166.79 153.339 167.67 145.888 167.682C138.394 167.488 130.936 166.562 123.621 164.917Z" fill="#263238" stroke="#263238" stroke-linecap="round" stroke-linejoin="round"/>
<path d="M134.682 110.777C134.682 110.777 129.879 119.219 128.278 125.768C126.677 132.317 123.476 162.589 123.039 164.335C122.602 166.082 132.79 169.575 139.485 169.72C146.179 169.866 161.17 170.157 163.789 169.138C166.409 168.119 168.883 166.664 168.883 165.063C168.883 163.462 169.029 157.495 169.029 152.692C169.029 147.889 167.573 122.566 166.264 116.744C164.954 110.923 164.081 106.848 163.644 106.12C163.207 105.392 160.005 101.9 153.456 102.336C148.345 102.713 143.377 104.203 138.903 106.702C137.242 107.771 135.808 109.156 134.682 110.777V110.777Z" fill="#263238" stroke="#263238" stroke-linecap="round" stroke-linejoin="round"/>
<path d="M90.7877 120.185C90.7877 120.185 88.4242 121.169 88.2263 123.532C88.0283 125.896 92.3654 128.254 94.921 131.799C97.4766 135.344 100.824 139.058 100.824 139.058L105.947 146.143L112.048 141.026L96.3007 122.758C96.3007 122.758 97.0866 121.012 96.1028 120.394C95.2749 120.009 94.3787 119.792 93.4663 119.756C92.5539 119.72 91.6434 119.866 90.7877 120.185V120.185Z" fill="white" stroke="#263238" stroke-linecap="round" stroke-linejoin="round"/>
<path d="M91.1836 125.698L108.922 119.789C108.922 119.789 110.086 124.714 115.413 129.831C118.606 132.908 122.03 135.738 125.653 138.296L109.708 147.348L91.1836 125.698Z" fill="white" stroke="#263238" stroke-linecap="round" stroke-linejoin="round"/>
<path d="M91.1831 125.698C91.9646 124.821 92.4458 123.718 92.557 122.549C92.6097 122.008 92.4603 121.468 92.1378 121.031C91.8152 120.595 91.3424 120.293 90.8105 120.185L108.327 115.068C108.327 115.068 111.675 116.232 108.91 119.789L91.1831 125.698Z" fill="white" stroke="#263238" stroke-linecap="round" stroke-linejoin="round"/>
<path d="M114.656 144.414C114.656 144.414 110.721 143.832 110.523 142.668C110.325 141.503 109.539 138.93 108.776 137.946C108.014 136.963 104.247 134.995 103.065 133.615C101.884 132.235 101.098 130.268 100.312 130.466C99.5259 130.664 98.3441 131.45 98.7341 132.212C99.1242 132.975 100.9 136.351 100.9 136.351L101.296 137.725C101.296 137.725 97.7503 137.143 97.1623 136.939C96.9908 136.891 96.81 136.885 96.6358 136.922C96.4615 136.96 96.2991 137.04 96.1629 137.154C96.0266 137.269 95.9207 137.416 95.8544 137.582C95.7881 137.747 95.7635 137.926 95.7826 138.104C95.7826 139.087 94.9967 139.087 95.9806 139.675C96.9644 140.263 98.1462 141.055 98.1462 141.055C98.1462 141.055 99.5259 144.204 99.8926 144.792C100.259 145.38 103.438 146.766 104.026 147.156C104.614 147.546 107.769 148.536 109.341 148.902C110.913 149.269 114.458 150.678 114.458 150.678L115.442 146.149L114.656 144.414Z" fill="white" stroke="#263238" stroke-linecap="round" stroke-linejoin="round"/>
<path d="M156.384 117.251C156.384 117.251 155.988 133.982 155.988 134.768C155.988 135.553 156.571 151.696 154.824 153.07C153.078 154.444 144.392 156.22 131.794 155.83C119.197 155.44 113.684 152.68 113.684 152.68L114.667 144.414L138.681 142.667C138.681 142.667 136.125 124.365 136.516 118.066C136.906 111.767 142.028 108.419 142.028 108.419" fill="#263238"/>
<path d="M156.384 117.251C156.384 117.251 155.988 133.982 155.988 134.768C155.988 135.553 156.571 151.696 154.824 153.07C153.078 154.444 144.392 156.22 131.794 155.83C119.197 155.44 113.684 152.68 113.684 152.68L114.667 144.414L138.681 142.667C138.681 142.667 136.125 124.365 136.516 118.066C136.906 111.767 142.028 108.419 142.028 108.419" stroke="#263238" stroke-linecap="round" stroke-linejoin="round"/>
<path d="M129.879 156.564C129.879 156.564 153.712 157.396 154.97 154.468C156.227 151.54 156.221 122.688 156.221 122.688" stroke="#707070" stroke-linecap="round" stroke-linejoin="round"/>
<path d="M140.357 111.813C140.357 111.813 135.334 117.251 136.172 124.359C137.01 131.467 138.687 142.638 138.687 142.638L129.483 143.18" stroke="#707070" stroke-linecap="round" stroke-linejoin="round"/>
<path d="M130.188 66.3592C130.188 66.3592 126.887 72.0701 127.522 72.8269C128.156 73.5836 127.65 74.9866 127.65 74.9866C127.65 74.9866 124.349 77.5248 124.605 78.4097C124.861 79.2945 127.516 81.7105 127.516 81.7105C127.516 81.7105 128.022 88.5624 128.68 89.1969C129.338 89.8315 133.628 90.5882 134.502 90.7163C134.983 90.7759 135.454 90.9053 135.899 91.1005L138.431 104.799L152.641 91.9912L150.359 85.9019C150.359 85.9019 149.09 77.7518 149.195 73.9795C149.3 70.2072 142.721 65.6024 138.792 64.4614C134.862 63.3203 130.188 66.3592 130.188 66.3592Z" fill="white" stroke="#263238" stroke-linecap="round" stroke-linejoin="round"/>
<path d="M132.848 58.6167C132.848 58.6167 129.553 55.1936 125.618 57.8599C121.682 60.5261 122.829 64.8457 126.38 66.3593C129.931 67.8729 134.117 66.7377 132.726 68.2629C131.334 69.7881 130.979 73.0831 133.104 73.7177C135.229 74.3522 134.88 76.7623 134.88 77.7927C134.88 78.8231 136.626 78.6834 137.039 77.7927C137.453 76.902 138.431 74.4977 140.841 75.5107C143.251 76.5236 143.129 82.1064 142.238 83.5036C141.347 84.9008 140.462 84.7727 140.462 84.7727C140.462 84.7727 141.86 85.2792 140.969 86.9266L140.084 88.5799C140.084 88.5799 142.11 90.99 147.186 90.0994C152.263 89.2087 153.404 86.9266 152.641 85.0288C151.878 83.131 150.103 82.8691 152.006 80.0806C153.91 77.2921 158.608 73.9854 158.224 67.6458C157.973 63.4602 148.077 59.4957 148.077 59.4957C148.077 59.4957 150.359 55.6885 145.166 53.2784C139.973 50.8683 134.006 53.6626 134.385 56.1891C134.763 58.7157 132.848 58.6167 132.848 58.6167Z" fill="#263238" stroke="#263238" stroke-linecap="round" stroke-linejoin="round"/>
<path d="M127.487 72.3729C127.487 72.3729 125.874 71.9421 125.74 72.7048C125.606 73.4674 125.74 77.2688 125.74 77.2688C126.308 77.6218 126.984 77.7583 127.644 77.653C128.534 77.3969 128.022 74.2242 128.022 74.2242" stroke="#263238" stroke-linecap="round" stroke-linejoin="round"/>
<path d="M137.547 76.6343L125.863 74.7015L125.874 73.968L137.547 76.6343Z" fill="#263238" stroke="#263238" stroke-linecap="round" stroke-linejoin="round"/>
<path d="M154.294 88.0558C154.294 88.0558 147.821 92.748 143.379 97.5682C138.937 102.388 133.61 107.721 133.372 109.368C133.133 111.016 133.622 113.554 136.16 110.888C138.698 108.222 143.391 104.676 146.948 104.42C150.504 104.164 155.953 105.945 158.742 106.324C161.53 106.702 163.312 107.488 164.325 105.945C165.338 104.403 162.677 100.997 162.677 99.2156C162.677 97.4343 163.056 94.3954 161.787 92.2298C160.517 90.0642 156.448 87.4213 154.294 88.0558Z" fill="#757575" stroke="#263238" stroke-linecap="round" stroke-linejoin="round"/>
<path d="M162.584 94.3374C162.224 95.5703 161.732 96.7608 161.117 97.8885C160.378 98.9888 149.975 101.073 149.975 101.073C149.975 101.073 158.544 100.584 160.134 100.584C161.723 100.584 163.563 102.051 163.563 102.051L162.707 99.7223C162.707 99.7223 163.062 95.4435 162.584 94.3374Z" fill="#263238" stroke="#263238" stroke-linecap="round" stroke-linejoin="round"/>
<path d="M11.7031 273.535H277.746" stroke="#263238" stroke-linecap="round" stroke-linejoin="round"/>
</g>
<defs>
<clipPath id="clip0">
<rect width="298" height="298" fill="white"/>
</clipPath>
</defs>
</svg>
