<svg width="567" height="352" viewBox="0 0 567 352" fill="none" xmlns="http://www.w3.org/2000/svg">
<path d="M317.426 37.7643L184.519 10.5033C181.021 9.78586 177.603 12.0399 176.886 15.5379L123.082 277.851C122.365 281.349 124.619 284.767 128.117 285.484L261.024 312.745C264.522 313.463 267.939 311.209 268.657 307.711L322.461 45.3971C323.178 41.8991 320.924 38.4818 317.426 37.7643Z" fill="white" stroke="#263238" stroke-width="2" stroke-linecap="round" stroke-linejoin="round"/>
<path d="M311.094 67.9258L178.458 40.7207L134.443 255.313L267.078 282.518L311.094 67.9258Z" fill="#263238"/>
<path opacity="0.3" d="M281.874 210.422L143.434 257.166L267.084 282.528L281.874 210.422Z" fill="white"/>
<path d="M311.094 67.9258L178.458 40.7207L134.443 255.313L267.078 282.518L311.094 67.9258Z" stroke="#263238" stroke-linecap="round" stroke-linejoin="round"/>
<path d="M262.273 42.2682L233.437 36.3536C232.916 36.2444 232.459 35.9329 232.166 35.4875C231.874 35.0421 231.77 34.4989 231.877 33.9769C231.986 33.4568 232.296 33.0008 232.739 32.7082C233.183 32.4156 233.724 32.3101 234.245 32.4147L263.081 38.3293C263.603 38.4364 264.061 38.7459 264.356 39.1901C264.65 39.6343 264.756 40.177 264.651 40.6995C264.544 41.2229 264.233 41.6822 263.787 41.9764C263.341 42.2706 262.796 42.3756 262.273 42.2682Z" fill="#263238"/>
<path d="M206.143 282.652C206.464 281.096 206.316 279.479 205.718 278.006C205.12 276.534 204.099 275.272 202.784 274.38C201.468 273.489 199.918 273.007 198.329 272.996C196.739 272.986 195.183 273.447 193.856 274.321C192.529 275.196 191.491 276.444 190.873 277.908C190.256 279.373 190.086 280.987 190.387 282.548C190.687 284.108 191.444 285.545 192.56 286.675C193.677 287.806 195.104 288.58 196.661 288.899C198.747 289.327 200.917 288.909 202.695 287.738C204.473 286.567 205.713 284.737 206.143 282.652Z" fill="white" stroke="#263238" stroke-width="0.704333" stroke-miterlimit="10"/>
<path d="M203.08 277.868L195.112 276.233L193.477 284.202L201.446 285.836L203.08 277.868Z" fill="#263238"/>
<path d="M260.593 80.6205L219.891 72.272C218.044 71.8932 216.24 73.0834 215.861 74.9304L207.016 118.052C206.637 119.899 207.827 121.704 209.674 122.082L250.377 130.431C252.224 130.81 254.028 129.62 254.407 127.773L263.252 84.6509C263.631 82.8038 262.44 80.9994 260.593 80.6205Z" fill="#6692D8"/>
<path opacity="0.22" d="M208.279 111.9L207.019 118.044C206.927 118.484 206.924 118.937 207.008 119.378C207.092 119.819 207.262 120.239 207.509 120.614C207.756 120.99 208.074 121.312 208.446 121.564C208.818 121.816 209.236 121.992 209.675 122.082L250.369 130.429C251.258 130.609 252.181 130.429 252.937 129.93C253.693 129.43 254.219 128.65 254.401 127.763L262.681 87.399C242.884 91.2101 224.253 99.6008 208.279 111.9Z" fill="black"/>
<path d="M255.907 102.342L252.348 101.612C252.369 100.739 252.321 99.8661 252.203 99.001L255.648 97.8574C255.732 97.8301 255.81 97.7863 255.877 97.7285C255.944 97.6707 255.999 97.6002 256.038 97.5209C256.078 97.4417 256.101 97.3554 256.107 97.267C256.113 97.1787 256.101 97.0901 256.072 97.0064L254.475 92.2043C254.417 92.0346 254.294 91.8948 254.133 91.8152C253.972 91.7355 253.786 91.7223 253.616 91.7785L250.172 92.9221C249.752 92.177 249.28 91.4621 248.76 90.7826L251.168 88.0666C251.286 87.932 251.347 87.7561 251.337 87.577C251.327 87.3978 251.247 87.2297 251.114 87.1091L247.329 83.7511C247.263 83.6916 247.186 83.6457 247.103 83.6162C247.019 83.5867 246.931 83.5741 246.842 83.5792C246.754 83.5843 246.668 83.607 246.588 83.6459C246.509 83.6849 246.438 83.7393 246.379 83.8059L243.972 86.5219C243.236 86.078 242.466 85.6928 241.67 85.3699L242.4 81.8108C242.436 81.6356 242.401 81.4533 242.302 81.304C242.204 81.1547 242.05 81.0506 241.875 81.0147L236.92 79.9984C236.833 79.9794 236.743 79.9779 236.655 79.994C236.567 80.01 236.483 80.0434 236.409 80.0921C236.334 80.1408 236.269 80.2038 236.219 80.2776C236.169 80.3514 236.134 80.4344 236.116 80.5219L235.386 84.0809C234.529 84.0648 233.673 84.1164 232.824 84.2353L231.681 80.791C231.653 80.7064 231.608 80.6281 231.55 80.5608C231.491 80.4935 231.42 80.4384 231.34 80.3988C231.26 80.3592 231.173 80.3358 231.084 80.3301C230.995 80.3243 230.906 80.3363 230.821 80.3652L226.028 81.9635C225.858 82.022 225.718 82.145 225.638 82.3058C225.559 82.4666 225.546 82.6523 225.602 82.8227L226.725 86.2801C225.979 86.6977 225.264 87.1693 224.586 87.6914L221.903 85.291C221.768 85.1722 221.593 85.1112 221.413 85.1212C221.234 85.1311 221.066 85.2112 220.946 85.3441L217.587 89.13C217.528 89.1961 217.483 89.2734 217.454 89.3573C217.425 89.4413 217.413 89.5301 217.419 89.6187C217.425 89.7073 217.448 89.7939 217.488 89.8733C217.528 89.9526 217.583 90.0232 217.651 90.0809L220.358 92.4864C219.916 93.2381 219.531 94.022 219.206 94.8316L215.655 94.1033C215.48 94.0673 215.298 94.1025 215.148 94.2009C214.999 94.2994 214.895 94.4532 214.859 94.6284L213.843 99.583C213.824 99.6702 213.822 99.7603 213.838 99.8482C213.854 99.936 213.888 100.02 213.937 100.095C213.985 100.169 214.048 100.234 214.122 100.284C214.196 100.334 214.279 100.369 214.366 100.387L217.925 101.117C217.911 101.973 217.959 102.829 218.071 103.677L214.635 104.823C214.55 104.85 214.471 104.894 214.403 104.952C214.335 105.01 214.279 105.081 214.239 105.16C214.198 105.24 214.174 105.327 214.168 105.417C214.162 105.506 214.173 105.595 214.201 105.68L215.8 110.474C215.858 110.644 215.981 110.783 216.142 110.863C216.303 110.943 216.488 110.956 216.659 110.9L220.103 109.756C220.506 110.497 220.965 111.207 221.475 111.879L219.068 114.595C218.949 114.729 218.888 114.905 218.898 115.085C218.908 115.264 218.988 115.432 219.121 115.552L222.898 118.909C222.965 118.968 223.043 119.014 223.128 119.043C223.212 119.073 223.302 119.085 223.391 119.079C223.48 119.073 223.567 119.05 223.647 119.01C223.728 118.97 223.799 118.915 223.858 118.847L226.263 116.14C226.999 116.577 227.766 116.958 228.559 117.282L227.829 120.841C227.811 120.928 227.81 121.018 227.828 121.106C227.845 121.194 227.879 121.277 227.929 121.351C227.978 121.425 228.042 121.489 228.117 121.538C228.191 121.588 228.274 121.622 228.362 121.639L233.317 122.655C233.492 122.691 233.674 122.656 233.824 122.557C233.973 122.459 234.077 122.305 234.113 122.13L234.843 118.571C235.701 118.586 236.56 118.538 237.411 118.426L238.556 121.862C238.583 121.947 238.626 122.026 238.683 122.093C238.74 122.161 238.811 122.217 238.89 122.257C238.969 122.298 239.055 122.322 239.144 122.328C239.233 122.334 239.321 122.323 239.406 122.295L244.208 120.698C244.377 120.64 244.517 120.517 244.597 120.356C244.676 120.195 244.69 120.009 244.633 119.839L243.515 116.4C244.261 115.982 244.976 115.51 245.654 114.988L248.37 117.396C248.505 117.514 248.681 117.575 248.86 117.565C249.039 117.555 249.207 117.475 249.328 117.342L252.684 113.565C252.744 113.499 252.79 113.421 252.82 113.337C252.849 113.253 252.862 113.164 252.857 113.075C252.852 112.986 252.83 112.899 252.791 112.818C252.752 112.738 252.698 112.666 252.631 112.607L249.915 110.2C250.358 109.467 250.743 108.7 251.065 107.906L254.624 108.636C254.712 108.654 254.802 108.655 254.889 108.637C254.977 108.62 255.06 108.586 255.135 108.536C255.209 108.487 255.272 108.423 255.322 108.348C255.371 108.274 255.405 108.19 255.422 108.103L256.438 103.148C256.457 103.06 256.459 102.969 256.442 102.881C256.426 102.792 256.392 102.708 256.342 102.633C256.293 102.558 256.229 102.494 256.154 102.444C256.079 102.394 255.995 102.359 255.907 102.342ZM232.312 115.091C229.592 114.535 227.098 113.185 225.145 111.21C223.193 109.236 221.87 106.727 221.343 104.001C220.817 101.275 221.111 98.4535 222.189 95.8944C223.266 93.3354 225.078 91.1534 227.396 89.6245C229.714 88.0957 232.433 87.2887 235.21 87.3057C237.986 87.3226 240.696 88.1628 242.995 89.7198C245.294 91.2769 247.079 93.4808 248.125 96.0528C249.171 98.6249 249.431 101.449 248.872 104.169C248.501 105.974 247.78 107.687 246.747 109.213C245.715 110.738 244.392 112.046 242.854 113.06C241.316 114.074 239.594 114.775 237.785 115.124C235.977 115.473 234.117 115.462 232.312 115.091Z" fill="#263238"/>
<path d="M272.648 184.332L167.991 162.865C166.865 162.635 165.877 161.966 165.244 161.007C164.612 160.047 164.386 158.876 164.617 157.75C164.848 156.625 165.516 155.637 166.476 155.004C167.435 154.371 168.606 154.146 169.732 154.377L274.39 175.843C275.515 176.074 276.503 176.743 277.136 177.702C277.769 178.661 277.994 179.833 277.764 180.958C277.533 182.084 276.864 183.072 275.905 183.705C274.945 184.337 273.774 184.563 272.648 184.332Z" fill="white" stroke="#263238" stroke-miterlimit="10"/>
<path d="M245.165 169.814L169.739 154.343C168.609 154.112 167.433 154.338 166.47 154.973C165.507 155.609 164.836 156.6 164.604 157.73C164.372 158.861 164.599 160.036 165.234 160.999C165.869 161.962 166.861 162.634 167.991 162.865L243.425 178.338L245.165 169.814Z" fill="#6692D8" stroke="#263238" stroke-miterlimit="10"/>
<path d="M261.315 169.358C261.09 169.206 260.913 168.993 260.804 168.745C260.691 168.483 260.666 168.191 260.733 167.913C260.789 167.614 260.945 167.342 261.175 167.143C261.415 166.94 261.722 166.834 262.036 166.847C261.758 166.742 261.529 166.535 261.398 166.268C261.302 166.047 261.268 165.805 261.297 165.566C261.326 165.327 261.419 165.1 261.565 164.909C261.682 164.759 261.834 164.64 262.006 164.56C262.184 164.484 262.374 164.438 262.567 164.426C262.778 164.41 262.989 164.424 263.195 164.469C263.478 164.522 263.748 164.627 263.992 164.778C264.207 164.917 264.378 165.113 264.487 165.344C264.595 165.593 264.619 165.87 264.558 166.133C264.516 166.417 264.369 166.675 264.148 166.857C263.926 167.039 263.644 167.132 263.358 167.118C263.648 167.23 263.886 167.444 264.028 167.721C264.169 167.998 264.204 168.317 264.126 168.618C264.078 168.899 263.94 169.158 263.733 169.355C263.535 169.54 263.289 169.665 263.022 169.717C262.738 169.762 262.448 169.755 262.166 169.696C261.863 169.641 261.573 169.526 261.315 169.358ZM263.076 169.16C263.201 169.095 263.309 169.001 263.391 168.886C263.473 168.771 263.527 168.639 263.547 168.499C263.584 168.358 263.588 168.21 263.56 168.067C263.531 167.924 263.47 167.789 263.381 167.673C263.188 167.449 262.926 167.296 262.636 167.236C262.346 167.177 262.045 167.215 261.779 167.345C261.655 167.419 261.548 167.52 261.467 167.64C261.386 167.76 261.332 167.897 261.31 168.04C261.274 168.176 261.271 168.319 261.301 168.457C261.331 168.595 261.393 168.724 261.483 168.833C261.684 169.042 261.944 169.186 262.229 169.244C262.513 169.303 262.809 169.273 263.076 169.16ZM263.596 166.625C263.709 166.562 263.806 166.475 263.88 166.369C263.954 166.264 264.003 166.142 264.023 166.015C264.052 165.895 264.053 165.769 264.026 165.649C263.998 165.528 263.943 165.415 263.864 165.32C263.674 165.113 263.42 164.977 263.143 164.931C262.966 164.894 262.784 164.889 262.605 164.915C262.436 164.941 262.28 165.017 262.155 165.133C262.015 165.261 261.922 165.433 261.892 165.621C261.859 165.745 261.855 165.875 261.88 166.001C261.904 166.127 261.958 166.245 262.035 166.347C262.24 166.547 262.497 166.683 262.777 166.74C263.056 166.798 263.346 166.774 263.613 166.671L263.596 166.625Z" fill="white"/>
<path d="M265.599 170.245C265.42 170.121 265.274 169.955 265.173 169.762C265.073 169.563 265.006 169.349 264.976 169.128C264.949 168.881 264.942 168.632 264.957 168.384C264.985 168.104 265.027 167.825 265.085 167.55C265.14 167.273 265.213 167.001 265.304 166.734C265.386 166.499 265.49 166.273 265.615 166.058C265.73 165.864 265.876 165.69 266.047 165.544C266.217 165.413 266.415 165.324 266.625 165.284C267.116 165.19 267.624 165.294 268.037 165.574C268.215 165.694 268.362 165.853 268.467 166.04C268.566 166.242 268.632 166.459 268.662 166.683C268.699 166.929 268.706 167.179 268.681 167.427C268.66 167.708 268.62 167.987 268.562 168.263C268.53 168.485 268.484 168.706 268.426 168.923C268.36 169.124 268.282 169.321 268.193 169.512C268.112 169.688 268.006 169.852 267.879 169.998C267.764 170.137 267.629 170.257 267.478 170.355C267.321 170.452 267.144 170.513 266.96 170.533C266.747 170.561 266.53 170.551 266.32 170.505C266.064 170.472 265.818 170.384 265.599 170.245ZM266.779 170.074C266.897 170.05 267.009 170.003 267.108 169.935C267.206 169.86 267.296 169.774 267.376 169.68C267.451 169.572 267.52 169.46 267.583 169.344C267.645 169.219 267.698 169.088 267.74 168.955C267.788 168.825 267.83 168.693 267.864 168.558C267.89 168.435 267.915 168.311 267.944 168.17C267.973 168.03 268.013 167.832 268.044 167.683C268.074 167.535 268.108 167.369 268.094 167.186C268.102 167.023 268.092 166.859 268.065 166.698C268.035 166.558 267.995 166.42 267.943 166.286C267.883 166.157 267.795 166.045 267.683 165.957C267.559 165.867 267.416 165.805 267.264 165.777C267.137 165.748 267.005 165.747 266.878 165.775C266.76 165.795 266.648 165.839 266.55 165.905C266.451 165.974 266.364 166.058 266.292 166.154C266.21 166.255 266.139 166.364 266.079 166.48C266.019 166.61 265.966 166.742 265.92 166.878C265.87 167.013 265.828 167.15 265.792 167.29C265.765 167.422 265.736 167.563 265.706 167.711C265.675 167.86 265.65 167.984 265.626 168.099C265.605 168.239 265.59 168.38 265.583 168.521C265.569 168.66 265.567 168.801 265.574 168.941C265.581 169.07 265.601 169.198 265.634 169.323C265.661 169.446 265.709 169.564 265.777 169.671C265.843 169.767 265.925 169.85 266.019 169.918C266.129 169.994 266.253 170.046 266.384 170.07C266.514 170.098 266.648 170.099 266.779 170.074Z" fill="white"/>
<path d="M270.111 168.426C269.964 168.102 269.924 167.74 269.995 167.391C270.067 167.043 270.246 166.725 270.509 166.485C270.635 166.385 270.781 166.313 270.937 166.275C271.094 166.237 271.257 166.234 271.415 166.267C271.651 166.31 271.868 166.426 272.034 166.6C272.187 166.761 272.292 166.962 272.337 167.179C272.381 167.409 272.379 167.645 272.332 167.875C272.271 168.229 272.084 168.548 271.804 168.773C271.67 168.873 271.516 168.943 271.353 168.979C271.19 169.015 271.021 169.016 270.857 168.983C270.694 168.949 270.539 168.881 270.403 168.784C270.268 168.687 270.154 168.562 270.07 168.418L270.111 168.426ZM271.333 168.634C271.442 168.595 271.539 168.529 271.614 168.442C271.686 168.345 271.75 168.243 271.805 168.137C271.842 168.021 271.867 167.902 271.878 167.782C271.916 167.664 271.941 167.542 271.953 167.418C271.944 167.301 271.925 167.185 271.895 167.071C271.86 166.961 271.798 166.862 271.713 166.784C271.616 166.707 271.503 166.655 271.383 166.63C271.262 166.605 271.138 166.609 271.019 166.642C270.911 166.68 270.814 166.746 270.739 166.834C270.666 166.925 270.605 167.025 270.557 167.132C270.502 167.244 270.463 167.364 270.441 167.487C270.413 167.606 270.403 167.728 270.41 167.85C270.411 167.969 270.43 168.086 270.468 168.198C270.499 168.309 270.563 168.409 270.65 168.485C270.737 168.57 270.849 168.626 270.97 168.645C271.082 168.668 271.199 168.662 271.309 168.629L271.333 168.634ZM270.359 171.497C270.343 171.477 270.331 171.454 270.326 171.429C270.321 171.404 270.321 171.378 270.328 171.353C270.327 171.328 270.332 171.302 270.343 171.279L274.229 166.853C274.253 166.817 274.287 166.789 274.327 166.773C274.368 166.756 274.412 166.752 274.454 166.761C274.479 166.765 274.503 166.775 274.524 166.79C274.545 166.804 274.562 166.824 274.574 166.846C274.59 166.868 274.601 166.892 274.606 166.919C274.611 166.945 274.61 166.972 274.603 166.998C274.606 167.033 274.599 167.067 274.583 167.097L270.679 171.529C270.66 171.555 270.632 171.575 270.601 171.586C270.57 171.596 270.536 171.597 270.504 171.587C270.472 171.584 270.441 171.574 270.413 171.558C270.385 171.542 270.361 171.52 270.342 171.494L270.359 171.497ZM272.936 171.518C272.791 171.195 272.751 170.835 272.822 170.488C272.893 170.141 273.072 169.826 273.332 169.586C273.462 169.478 273.616 169.402 273.781 169.364C273.945 169.326 274.117 169.327 274.281 169.367C274.518 169.41 274.735 169.527 274.901 169.701C275.053 169.866 275.157 170.068 275.202 170.288C275.244 170.515 275.24 170.748 275.191 170.974C275.129 171.326 274.944 171.644 274.67 171.874C274.537 171.976 274.383 172.048 274.22 172.086C274.056 172.123 273.887 172.125 273.722 172.092C273.558 172.058 273.402 171.989 273.267 171.89C273.131 171.791 273.018 171.664 272.936 171.518ZM274.159 171.726C274.268 171.684 274.365 171.615 274.441 171.526C274.513 171.434 274.575 171.334 274.622 171.227C274.677 171.118 274.715 171.001 274.736 170.881C274.765 170.759 274.776 170.634 274.77 170.509C274.768 170.392 274.751 170.276 274.72 170.163C274.683 170.054 274.62 169.956 274.538 169.876C274.442 169.8 274.329 169.747 274.208 169.722C274.088 169.697 273.963 169.701 273.844 169.734C273.737 169.775 273.641 169.841 273.564 169.926C273.492 170.018 273.431 170.118 273.382 170.224C273.331 170.338 273.292 170.457 273.266 170.579C273.243 170.699 273.232 170.821 273.235 170.943C273.236 171.061 273.255 171.178 273.293 171.29C273.323 171.404 273.386 171.506 273.473 171.585C273.564 171.665 273.675 171.718 273.795 171.737C273.916 171.77 274.044 171.77 274.165 171.736L274.159 171.726Z" fill="white"/>
<path d="M172.178 150.172C172.122 150.09 172.084 149.998 172.067 149.901C172.05 149.804 172.054 149.704 172.078 149.609L173.215 144.068C173.23 143.971 173.266 143.878 173.32 143.795C173.374 143.713 173.445 143.643 173.528 143.59C173.605 143.539 173.691 143.504 173.782 143.487C173.872 143.47 173.966 143.472 174.056 143.492C174.238 143.529 174.398 143.636 174.502 143.79C174.558 143.871 174.596 143.964 174.613 144.061C174.63 144.158 174.626 144.257 174.602 144.353L173.466 149.894C173.45 149.991 173.415 150.084 173.361 150.166C173.307 150.249 173.236 150.319 173.152 150.371C172.993 150.473 172.801 150.508 172.616 150.468C172.527 150.451 172.442 150.415 172.367 150.365C172.292 150.314 172.227 150.248 172.178 150.172Z" fill="white"/>
<path d="M175.028 150.791C174.982 150.711 174.952 150.623 174.939 150.532C174.927 150.441 174.933 150.348 174.956 150.26L175.69 146.684C175.702 146.601 175.732 146.521 175.778 146.45C175.823 146.379 175.884 146.319 175.955 146.274C176.099 146.189 176.271 146.162 176.434 146.2C176.593 146.229 176.734 146.317 176.832 146.445C176.878 146.515 176.908 146.594 176.921 146.677C176.934 146.759 176.928 146.844 176.905 146.925L176.871 147.09C177.066 146.852 177.33 146.681 177.626 146.599C177.959 146.512 178.309 146.507 178.644 146.584C178.867 146.63 179.08 146.714 179.273 146.834C179.46 146.951 179.625 147.102 179.759 147.278C179.894 147.477 179.983 147.704 180.018 147.942C180.06 148.226 180.05 148.516 179.989 148.796L179.498 151.191C179.485 151.282 179.453 151.37 179.406 151.448C179.359 151.527 179.297 151.596 179.223 151.651C179.153 151.697 179.074 151.728 178.991 151.742C178.908 151.756 178.823 151.753 178.742 151.733C178.661 151.719 178.585 151.688 178.517 151.643C178.45 151.598 178.392 151.54 178.348 151.472C178.261 151.309 178.238 151.12 178.284 150.942L178.775 148.547C178.849 148.271 178.814 147.978 178.677 147.727C178.608 147.623 178.519 147.533 178.415 147.465C178.311 147.396 178.193 147.349 178.07 147.327C177.913 147.298 177.751 147.303 177.595 147.34C177.439 147.378 177.292 147.448 177.165 147.546C176.868 147.769 176.668 148.097 176.607 148.464L176.187 150.512C176.175 150.603 176.145 150.69 176.1 150.769C176.054 150.849 175.993 150.918 175.92 150.974C175.851 151.019 175.773 151.05 175.692 151.064C175.611 151.079 175.527 151.076 175.447 151.057C175.362 151.045 175.281 151.015 175.209 150.969C175.136 150.923 175.075 150.862 175.028 150.791Z" fill="white"/>
<path d="M180.6 151.271C180.609 151.219 180.628 151.169 180.656 151.125C180.685 151.08 180.722 151.042 180.765 151.012C180.808 150.979 180.857 150.956 180.91 150.944C180.963 150.933 181.018 150.933 181.071 150.946C181.159 150.965 181.239 151.009 181.304 151.071L181.613 151.324C181.734 151.411 181.862 151.486 181.997 151.549C182.171 151.642 182.357 151.71 182.55 151.748C182.719 151.787 182.893 151.802 183.066 151.794C183.212 151.792 183.354 151.75 183.478 151.672C183.54 151.634 183.593 151.583 183.633 151.523C183.674 151.464 183.701 151.396 183.713 151.324C183.77 151.043 183.586 150.808 183.162 150.609L182.443 150.255L181.922 149.985C181.787 149.9 181.656 149.807 181.532 149.707C181.415 149.622 181.32 149.511 181.254 149.383C181.19 149.266 181.149 149.138 181.134 149.005C181.113 148.84 181.121 148.673 181.157 148.511C181.19 148.307 181.275 148.115 181.404 147.955C181.534 147.794 181.704 147.67 181.896 147.596C182.371 147.431 182.884 147.407 183.373 147.528C183.922 147.641 184.438 147.877 184.884 148.217C184.956 148.263 185.012 148.33 185.045 148.409C185.078 148.488 185.086 148.576 185.068 148.659C185.059 148.708 185.04 148.755 185.012 148.797C184.984 148.839 184.949 148.874 184.907 148.901C184.867 148.931 184.822 148.951 184.774 148.96C184.726 148.97 184.676 148.968 184.629 148.956C184.563 148.944 184.5 148.917 184.447 148.876L184.34 148.854L184.21 148.776L184.063 148.694L183.885 148.597L183.695 148.558L183.472 148.513L183.249 148.467C183.034 148.416 182.811 148.415 182.596 148.462C182.524 148.476 182.457 148.509 182.401 148.556C182.345 148.603 182.302 148.663 182.275 148.731C182.248 148.799 182.239 148.873 182.248 148.945C182.257 149.018 182.284 149.087 182.326 149.147C182.474 149.282 182.644 149.39 182.829 149.465L183.543 149.801C183.94 149.968 184.291 150.229 184.566 150.561C184.666 150.705 184.733 150.869 184.763 151.042C184.793 151.214 184.785 151.391 184.74 151.561C184.707 151.782 184.619 151.992 184.483 152.171C184.347 152.349 184.168 152.49 183.963 152.58C183.489 152.774 182.966 152.812 182.469 152.687C181.788 152.57 181.162 152.236 180.685 151.736C180.622 151.679 180.579 151.602 180.564 151.518C180.548 151.434 180.561 151.347 180.6 151.271Z" fill="white"/>
<path d="M186.256 152.895C186.061 152.519 186.016 152.082 186.128 151.673L186.636 149.196L186.166 149.099C186.108 149.094 186.051 149.075 186.001 149.046C185.951 149.017 185.907 148.977 185.874 148.929C185.84 148.881 185.817 148.827 185.807 148.769C185.796 148.712 185.798 148.653 185.813 148.597C185.82 148.543 185.839 148.491 185.868 148.445C185.896 148.399 185.934 148.36 185.979 148.33C186.029 148.3 186.085 148.28 186.143 148.273C186.201 148.265 186.259 148.27 186.315 148.287L186.827 148.392L187.213 147.223C187.256 147.066 187.351 146.927 187.483 146.831C187.548 146.783 187.622 146.751 187.701 146.736C187.78 146.721 187.862 146.723 187.94 146.744C188.002 146.754 188.062 146.778 188.114 146.814C188.166 146.85 188.209 146.897 188.241 146.952C188.298 147.093 188.309 147.249 188.27 147.397L188.016 148.635L188.801 148.796C188.858 148.803 188.913 148.822 188.962 148.853C189.011 148.884 189.052 148.925 189.083 148.975C189.112 149.022 189.131 149.075 189.139 149.13C189.147 149.184 189.144 149.24 189.129 149.294C189.122 149.348 189.103 149.4 189.075 149.446C189.046 149.492 189.008 149.531 188.962 149.561C188.913 149.591 188.857 149.611 188.799 149.618C188.741 149.626 188.682 149.621 188.627 149.604L187.85 149.445L187.398 151.65C187.338 151.884 187.329 152.129 187.371 152.367C187.396 152.448 187.444 152.521 187.509 152.575C187.574 152.63 187.654 152.664 187.739 152.675L187.796 152.686L188.135 152.756C188.195 152.764 188.252 152.786 188.302 152.82C188.351 152.854 188.392 152.9 188.422 152.952C188.483 153.057 188.5 153.181 188.471 153.298C188.47 153.369 188.456 153.439 188.429 153.505C188.39 153.557 188.337 153.597 188.276 153.62L188.086 153.667C188.006 153.68 187.925 153.681 187.844 153.669L187.588 153.616L187.2 153.537C187.006 153.505 186.821 153.431 186.658 153.32C186.495 153.209 186.358 153.064 186.256 152.895Z" fill="white"/>
<path d="M189.483 153.609C189.353 153.459 189.261 153.279 189.215 153.085C189.169 152.891 189.171 152.689 189.221 152.497C189.252 152.323 189.307 152.155 189.383 151.997C189.447 151.868 189.532 151.752 189.635 151.652C189.736 151.553 189.86 151.481 189.996 151.442C190.146 151.396 190.299 151.364 190.455 151.347C190.649 151.333 190.844 151.336 191.038 151.355C191.269 151.402 191.501 151.407 191.742 151.448L192.568 151.617L192.644 151.245C192.686 151.134 192.702 151.015 192.69 150.897C192.679 150.779 192.64 150.665 192.578 150.564C192.515 150.463 192.43 150.378 192.33 150.315C192.229 150.252 192.116 150.213 191.998 150.201L191.808 150.162L191.618 150.123L191.453 150.089L191.263 150.093L191.105 150.104L190.938 150.121L190.796 150.144L190.654 150.166L190.538 150.185C190.492 150.187 190.447 150.177 190.406 150.158C190.35 150.146 190.297 150.121 190.252 150.085C190.207 150.049 190.171 150.003 190.147 149.95C190.09 149.845 190.073 149.722 190.098 149.605C190.109 149.532 190.142 149.465 190.193 149.412C190.244 149.359 190.31 149.324 190.382 149.31C190.994 149.17 191.629 149.168 192.242 149.304C192.522 149.354 192.793 149.445 193.047 149.573C193.262 149.682 193.454 149.832 193.61 150.015C193.768 150.206 193.872 150.436 193.913 150.68C193.96 150.964 193.953 151.254 193.892 151.536L193.384 154.013C193.372 154.098 193.342 154.179 193.296 154.252C193.25 154.324 193.189 154.385 193.118 154.432C192.987 154.513 192.83 154.54 192.681 154.506C192.527 154.478 192.391 154.391 192.3 154.264C192.254 154.193 192.223 154.112 192.211 154.028C192.198 153.944 192.204 153.858 192.228 153.776L192.26 153.619C192.107 153.843 191.888 154.014 191.635 154.111C191.328 154.221 190.995 154.237 190.679 154.155C190.229 154.119 189.805 153.925 189.483 153.609ZM191.847 153.285C191.997 153.182 192.124 153.051 192.222 152.898C192.32 152.745 192.386 152.574 192.417 152.395L192.446 152.255L191.678 152.097C191.496 152.067 191.314 152.047 191.131 152.037C190.995 152.025 190.859 152.045 190.732 152.092C190.639 152.137 190.557 152.203 190.495 152.285C190.418 152.39 190.366 152.512 190.344 152.641C190.318 152.734 190.313 152.832 190.329 152.928C190.345 153.023 190.382 153.114 190.437 153.194C190.558 153.344 190.731 153.444 190.922 153.474C191.081 153.508 191.245 153.508 191.404 153.476C191.563 153.443 191.714 153.378 191.847 153.285Z" fill="white"/>
<path d="M194.69 154.823C194.604 154.657 194.582 154.466 194.628 154.285L195.78 148.67C195.807 148.484 195.906 148.316 196.056 148.202C196.124 148.156 196.2 148.125 196.28 148.11C196.36 148.095 196.442 148.097 196.521 148.117C196.604 148.13 196.683 148.161 196.754 148.207C196.825 148.252 196.885 148.312 196.932 148.381C197.025 148.545 197.05 148.739 197.002 148.921L195.85 154.536C195.838 154.628 195.806 154.716 195.758 154.795C195.709 154.874 195.644 154.942 195.567 154.994C195.426 155.084 195.256 155.116 195.093 155.082C194.929 155.049 194.785 154.953 194.691 154.815L194.69 154.823Z" fill="white"/>
<path d="M197.225 155.343C197.139 155.178 197.117 154.986 197.163 154.806L198.315 149.19C198.342 149.004 198.441 148.836 198.592 148.722C198.659 148.676 198.735 148.645 198.815 148.63C198.895 148.616 198.977 148.618 199.056 148.637C199.139 148.651 199.219 148.681 199.289 148.727C199.36 148.773 199.42 148.832 199.467 148.902C199.56 149.065 199.585 149.259 199.537 149.441L198.385 155.056C198.373 155.148 198.342 155.235 198.295 155.314C198.247 155.393 198.185 155.462 198.11 155.516C198.039 155.564 197.958 155.597 197.874 155.612C197.789 155.627 197.702 155.625 197.619 155.605C197.539 155.591 197.462 155.56 197.395 155.515C197.327 155.47 197.269 155.412 197.225 155.343Z" fill="white"/>
<path d="M200.889 150.02C200.837 149.944 200.801 149.857 200.784 149.766C200.767 149.675 200.769 149.582 200.791 149.492C200.805 149.4 200.84 149.313 200.891 149.236C200.943 149.159 201.01 149.094 201.089 149.045C201.255 148.948 201.452 148.921 201.638 148.969C201.828 148.999 201.998 149.101 202.113 149.255C202.164 149.332 202.198 149.419 202.213 149.509C202.229 149.6 202.225 149.692 202.203 149.782C202.188 149.873 202.153 149.96 202.102 150.037C202.05 150.114 201.983 150.179 201.905 150.228C201.825 150.277 201.735 150.309 201.642 150.322C201.55 150.336 201.455 150.33 201.364 150.307C201.174 150.278 201.003 150.175 200.889 150.02ZM199.768 155.865C199.674 155.701 199.649 155.508 199.698 155.326L200.414 151.833C200.427 151.74 200.458 151.651 200.506 151.571C200.553 151.491 200.616 151.421 200.691 151.365C200.759 151.317 200.837 151.284 200.919 151.268C201 151.252 201.085 151.254 201.166 151.273C201.247 151.289 201.325 151.321 201.394 151.367C201.463 151.414 201.521 151.474 201.566 151.544C201.654 151.709 201.676 151.901 201.628 152.082L200.912 155.575C200.885 155.757 200.79 155.923 200.645 156.036C200.504 156.126 200.334 156.158 200.171 156.124C200.007 156.091 199.863 155.995 199.77 155.857L199.768 155.865Z" fill="white"/>
<path d="M202.212 156.366C202.166 156.287 202.136 156.199 202.124 156.108C202.111 156.016 202.117 155.924 202.141 155.835L202.874 152.259C202.886 152.176 202.916 152.096 202.962 152.026C203.008 151.955 203.068 151.895 203.139 151.849C203.282 151.771 203.449 151.745 203.609 151.778C203.77 151.811 203.913 151.9 204.014 152.029C204.058 152.099 204.088 152.178 204.1 152.261C204.113 152.343 204.109 152.428 204.088 152.508L204.054 152.674C204.247 152.434 204.511 152.262 204.809 152.183C205.142 152.096 205.491 152.091 205.827 152.168C206.05 152.214 206.262 152.298 206.456 152.418C206.643 152.535 206.808 152.685 206.941 152.861C207.074 153.062 207.163 153.288 207.201 153.525C207.243 153.81 207.233 154.099 207.172 154.38L206.681 156.775C206.667 156.866 206.636 156.953 206.589 157.032C206.542 157.111 206.479 157.18 206.406 157.235C206.335 157.28 206.256 157.311 206.173 157.325C206.091 157.34 206.006 157.337 205.924 157.317C205.844 157.303 205.768 157.272 205.7 157.227C205.632 157.182 205.574 157.123 205.53 157.055C205.443 156.893 205.421 156.704 205.467 156.526L205.958 154.131C205.995 153.994 206.005 153.85 205.987 153.709C205.968 153.568 205.922 153.432 205.851 153.309C205.783 153.204 205.694 153.115 205.59 153.046C205.485 152.977 205.368 152.931 205.245 152.909C205.087 152.879 204.925 152.883 204.769 152.921C204.612 152.959 204.466 153.029 204.339 153.128C204.042 153.351 203.842 153.679 203.781 154.046L203.361 156.094C203.348 156.185 203.317 156.272 203.269 156.351C203.222 156.43 203.16 156.499 203.086 156.554C203.018 156.601 202.94 156.632 202.858 156.647C202.777 156.661 202.693 156.658 202.613 156.637C202.531 156.624 202.452 156.592 202.383 156.545C202.314 156.498 202.256 156.437 202.212 156.366Z" fill="white"/>
<path d="M211.428 157.628C211.236 157.857 210.983 158.025 210.697 158.111C210.412 158.198 210.108 158.2 209.822 158.116C209.514 158.064 209.221 157.95 208.96 157.779C208.698 157.608 208.475 157.386 208.304 157.125C208.138 156.845 208.029 156.535 207.983 156.212C207.937 155.89 207.955 155.561 208.036 155.246C208.143 154.58 208.493 153.977 209.019 153.554C209.273 153.365 209.566 153.234 209.876 153.171C210.187 153.108 210.507 153.115 210.815 153.191C211.137 153.239 211.44 153.375 211.689 153.586C211.895 153.782 212.051 154.023 212.147 154.291L212.193 154.068C212.21 153.996 212.243 153.929 212.287 153.87C212.332 153.811 212.388 153.762 212.452 153.725C212.577 153.66 212.721 153.64 212.859 153.671C212.937 153.686 213.011 153.718 213.075 153.764C213.14 153.81 213.194 153.869 213.235 153.937C213.319 154.1 213.339 154.288 213.29 154.465L212.475 158.437C212.431 158.762 212.317 159.074 212.141 159.351C211.966 159.629 211.732 159.865 211.457 160.044C210.866 160.364 210.175 160.447 209.525 160.276C209.191 160.21 208.866 160.106 208.556 159.965C208.309 159.86 208.08 159.717 207.877 159.542C207.817 159.494 207.771 159.431 207.745 159.358C207.719 159.286 207.713 159.208 207.729 159.133C207.75 159.025 207.813 158.93 207.904 158.867C207.945 158.831 207.995 158.806 208.049 158.793C208.102 158.78 208.158 158.78 208.212 158.793C208.265 158.797 208.318 158.807 208.368 158.825L208.606 158.968L208.908 159.134C208.999 159.183 209.094 159.225 209.191 159.261C209.321 159.299 209.453 159.326 209.588 159.342C209.965 159.442 210.367 159.399 210.714 159.22C210.875 159.114 211.011 158.975 211.113 158.812C211.215 158.648 211.28 158.465 211.304 158.274L211.428 157.628ZM211.177 157.129C211.503 156.83 211.711 156.424 211.765 155.985C211.995 154.862 211.691 154.249 210.873 154.081C210.707 154.041 210.535 154.038 210.367 154.072C210.219 154.095 210.078 154.151 209.955 154.237C209.83 154.322 209.721 154.427 209.633 154.549C209.543 154.685 209.465 154.827 209.399 154.975C209.337 155.141 209.288 155.313 209.251 155.487C209.133 155.913 209.174 156.368 209.367 156.767C209.455 156.921 209.574 157.055 209.717 157.16C209.86 157.265 210.024 157.339 210.197 157.376C210.372 157.408 210.552 157.399 210.723 157.351C210.894 157.302 211.052 157.215 211.184 157.096L211.177 157.129Z" fill="white"/>
<path d="M214.08 158.792C214.03 158.716 213.995 158.631 213.978 158.542C213.961 158.453 213.961 158.361 213.98 158.272C213.998 158.183 214.034 158.099 214.084 158.023C214.135 157.948 214.201 157.884 214.276 157.834C214.354 157.782 214.442 157.746 214.534 157.73C214.627 157.713 214.721 157.716 214.813 157.737C214.997 157.771 215.161 157.876 215.269 158.029C215.324 158.104 215.362 158.19 215.381 158.282C215.399 158.373 215.397 158.468 215.376 158.558C215.358 158.648 215.323 158.733 215.272 158.808C215.221 158.883 215.156 158.947 215.079 158.997C214.918 159.097 214.725 159.131 214.539 159.093C214.353 159.055 214.189 158.947 214.08 158.792Z" fill="white"/>
<path d="M217.094 159.41C217.044 159.334 217.009 159.249 216.992 159.16C216.975 159.071 216.976 158.979 216.994 158.89C217.012 158.801 217.048 158.717 217.099 158.642C217.15 158.566 217.215 158.502 217.291 158.452C217.369 158.4 217.456 158.365 217.549 158.348C217.641 158.331 217.735 158.334 217.827 158.356C218.011 158.389 218.175 158.494 218.283 158.647C218.338 158.722 218.377 158.809 218.395 158.9C218.413 158.992 218.412 159.086 218.39 159.177C218.372 159.266 218.337 159.351 218.286 159.426C218.235 159.501 218.17 159.566 218.093 159.615C217.932 159.715 217.739 159.75 217.553 159.711C217.367 159.673 217.203 159.565 217.094 159.41Z" fill="white"/>
<path d="M220.108 160.028C220.058 159.952 220.024 159.867 220.006 159.778C219.989 159.689 219.99 159.597 220.008 159.508C220.026 159.42 220.062 159.335 220.113 159.26C220.164 159.185 220.229 159.12 220.305 159.07C220.383 159.018 220.471 158.983 220.563 158.966C220.655 158.95 220.75 158.952 220.841 158.974C221.025 159.007 221.189 159.112 221.297 159.265C221.353 159.34 221.391 159.427 221.409 159.518C221.428 159.61 221.426 159.704 221.404 159.795C221.387 159.884 221.351 159.969 221.3 160.044C221.249 160.119 221.184 160.184 221.107 160.233C220.946 160.333 220.753 160.368 220.567 160.33C220.381 160.291 220.217 160.184 220.108 160.028Z" fill="white"/>
<path d="M218.719 169.681C218.719 169.681 202.528 120.243 243.27 116.78C284.012 113.317 288.78 151.255 292.514 170.275C295.434 185.148 323.242 212.348 301.714 232.648C279.256 253.853 224.546 246.772 221.393 216.638C218.24 186.505 221.096 180.328 218.719 169.681Z" fill="#263238" stroke="#263238" stroke-linecap="round" stroke-linejoin="round"/>
<path d="M266.219 177.576C266.219 177.576 264.449 199.543 275.755 218.344C275.755 218.344 260.52 223.319 244.627 218.59C245.286 212.771 244.963 206.883 243.671 201.171L243.128 198.781L254.68 188.792L266.219 177.576Z" fill="white"/>
<path d="M238.256 194.077C240.363 205.875 242.288 208.446 252.289 206.34C259.693 204.776 266.012 193.664 266.374 185.588C266.011 181.921 265.834 178.237 265.844 174.552L254.68 188.766L238.256 194.077Z" fill="#263238"/>
<path d="M266.219 177.576C266.219 177.576 264.449 199.543 275.755 218.344C275.755 218.344 260.52 223.319 244.627 218.59C245.286 212.771 244.963 206.883 243.671 201.171L243.128 198.781L254.68 188.792L266.219 177.576Z" stroke="#263238" stroke-linecap="round" stroke-linejoin="round"/>
<path d="M152.857 303.007C152.857 303.007 130.309 292.669 129.043 301.224C127.776 309.778 133.294 322.984 153.943 316.484L197.269 322.195C197.269 322.195 204.686 307.426 196.765 299.376C196.752 299.376 158.581 305.307 152.857 303.007Z" fill="white" stroke="#263238" stroke-linecap="round" stroke-linejoin="round"/>
<path d="M118.111 312.259C118.111 312.259 114.544 313.409 114.015 315.773C113.485 318.138 112.335 321.485 113.704 321.498C115.074 321.511 116.741 316.794 116.741 316.794L120.217 315.89L118.111 312.259Z" fill="white" stroke="#263238" stroke-linecap="round" stroke-linejoin="round"/>
<path d="M141.729 289.815L118.289 292.27L121.786 325.658L145.227 323.202L141.729 289.815Z" fill="white" stroke="#263238" stroke-linecap="round" stroke-linejoin="round"/>
<path d="M118.28 292.268L114.784 292.635L118.282 326.022L121.777 325.656L118.28 292.268Z" fill="#6692D8" stroke="#263238" stroke-linecap="round" stroke-linejoin="round"/>
<path d="M135.426 284.981C134.086 285.137 132.86 285.811 132.01 286.859C131.16 287.907 130.754 289.245 130.877 290.589C130.897 290.706 130.923 290.823 130.955 290.938L132.131 290.821L133.423 290.692C133.394 290.573 133.372 290.452 133.358 290.33C133.308 289.868 133.381 289.4 133.569 288.974C133.757 288.548 134.055 288.18 134.431 287.905C134.807 287.631 135.249 287.46 135.712 287.411C136.174 287.362 136.642 287.436 137.068 287.625C137.493 287.814 137.861 288.112 138.135 288.488C138.408 288.865 138.578 289.307 138.626 289.77C138.675 290.233 138.6 290.701 138.41 291.126C138.221 291.551 137.922 291.918 137.545 292.191C137.695 292.607 137.961 292.971 138.311 293.241C138.662 293.511 139.082 293.676 139.522 293.716C140.287 292.981 140.803 292.025 140.999 290.982C141.195 289.94 141.059 288.862 140.612 287.9C140.165 286.937 139.429 286.139 138.506 285.615C137.583 285.092 136.52 284.87 135.465 284.981H135.426Z" fill="white" stroke="#263238" stroke-linecap="round" stroke-linejoin="round"/>
<path d="M122.698 299.195L130.774 298.342" stroke="#263238" stroke-linecap="round" stroke-linejoin="round"/>
<path d="M123.086 302.865L138.76 301.223" stroke="#263238" stroke-linecap="round" stroke-linejoin="round"/>
<path d="M123.474 306.547L131.317 305.733" stroke="#263238" stroke-linecap="round" stroke-linejoin="round"/>
<path d="M123.861 310.23L136.951 308.86" stroke="#263238" stroke-linecap="round" stroke-linejoin="round"/>
<path d="M124.249 313.913L132.079 313.086" stroke="#263238" stroke-linecap="round" stroke-linejoin="round"/>
<path d="M124.636 317.582L141.822 315.786" stroke="#263238" stroke-linecap="round" stroke-linejoin="round"/>
<path d="M125.011 321.265L133.087 320.425" stroke="#263238" stroke-linecap="round" stroke-linejoin="round"/>
<path d="M131.084 285.433C129.747 285.593 128.524 286.268 127.677 287.315C126.83 288.363 126.425 289.7 126.549 291.041C126.564 291.163 126.586 291.284 126.613 291.403L127.802 291.274L129.094 291.145C129.055 291.027 129.029 290.906 129.017 290.783C128.991 290.107 129.224 289.447 129.667 288.936C130.111 288.425 130.732 288.103 131.405 288.033C132.078 287.964 132.752 288.154 133.29 288.564C133.828 288.974 134.19 289.573 134.302 290.24C134.352 290.702 134.276 291.17 134.083 291.593C133.89 292.016 133.586 292.379 133.203 292.643C133.354 293.059 133.62 293.424 133.97 293.694C134.32 293.964 134.74 294.128 135.181 294.168C135.946 293.433 136.462 292.478 136.658 291.435C136.853 290.392 136.718 289.314 136.271 288.352C135.824 287.39 135.088 286.591 134.165 286.068C133.242 285.545 132.178 285.323 131.123 285.433H131.084Z" fill="white" stroke="#263238" stroke-linecap="round" stroke-linejoin="round"/>
<path d="M126.743 285.885C125.405 286.045 124.182 286.72 123.335 287.768C122.488 288.815 122.083 290.152 122.207 291.493C122.207 291.623 122.207 291.726 122.207 291.855L123.396 291.726L124.688 291.597C124.656 291.482 124.63 291.366 124.61 291.248C124.558 290.782 124.629 290.311 124.816 289.881C125.004 289.452 125.302 289.08 125.68 288.802C126.058 288.525 126.502 288.352 126.968 288.302C127.434 288.251 127.905 288.324 128.334 288.514C128.762 288.704 129.133 289.004 129.409 289.383C129.684 289.762 129.855 290.207 129.903 290.673C129.951 291.14 129.876 291.61 129.684 292.038C129.492 292.466 129.19 292.835 128.81 293.109C128.956 293.524 129.219 293.887 129.568 294.156C129.917 294.424 130.336 294.585 130.774 294.62C131.339 294.09 131.773 293.436 132.042 292.71C132.312 291.983 132.408 291.204 132.325 290.434C132.168 289.099 131.498 287.877 130.456 287.028C129.414 286.179 128.082 285.769 126.743 285.885Z" fill="white" stroke="#263238" stroke-linecap="round" stroke-linejoin="round"/>
<path d="M122.414 286.338C121.074 286.494 119.848 287.168 118.998 288.216C118.148 289.264 117.742 290.602 117.866 291.946C117.884 292.068 117.91 292.189 117.943 292.308L119.119 292.178L120.411 292.049C120.383 291.934 120.362 291.818 120.347 291.7C120.296 291.237 120.369 290.77 120.557 290.344C120.746 289.918 121.043 289.549 121.419 289.275C121.795 289.001 122.237 288.83 122.7 288.781C123.163 288.732 123.63 288.805 124.056 288.994C124.481 289.184 124.849 289.481 125.123 289.858C125.397 290.235 125.566 290.677 125.615 291.14C125.663 291.603 125.589 292.07 125.399 292.495C125.209 292.921 124.91 293.288 124.533 293.561C124.684 293.975 124.951 294.338 125.301 294.605C125.651 294.873 126.071 295.035 126.51 295.073C127.07 294.539 127.501 293.885 127.77 293.159C128.039 292.433 128.138 291.656 128.061 290.886C127.905 289.539 127.225 288.307 126.169 287.456C125.112 286.605 123.764 286.203 122.414 286.338Z" fill="white" stroke="#263238" stroke-linecap="round" stroke-linejoin="round"/>
<path d="M115.966 292.153C115.911 291.686 115.981 291.213 116.169 290.783C116.356 290.352 116.654 289.978 117.032 289.7C117.41 289.422 117.856 289.248 118.323 289.198C118.79 289.147 119.262 289.221 119.691 289.412C120.12 289.602 120.491 289.903 120.766 290.284C121.042 290.664 121.211 291.111 121.258 291.578C121.305 292.046 121.228 292.517 121.033 292.945C120.839 293.372 120.535 293.741 120.152 294.013C120.304 294.427 120.57 294.79 120.92 295.058C121.27 295.326 121.69 295.488 122.129 295.525C122.863 294.822 123.37 293.916 123.585 292.922C123.799 291.929 123.711 290.894 123.333 289.951C122.954 289.008 122.302 288.199 121.46 287.63C120.618 287.061 119.625 286.757 118.608 286.757C117.592 286.757 116.599 287.061 115.757 287.63C114.915 288.199 114.263 289.008 113.884 289.951C113.505 290.894 113.417 291.929 113.632 292.922C113.846 293.916 114.353 294.822 115.087 295.525L114.79 292.618L116.082 292.488C116.032 292.381 115.993 292.268 115.966 292.153Z" fill="white" stroke="#263238" stroke-linecap="round" stroke-linejoin="round"/>
<path d="M112.076 301.624C112.296 302.111 112.551 302.582 112.839 303.033C112.59 303.923 112.544 304.858 112.705 305.768C112.866 306.678 113.23 307.541 113.769 308.292C113.769 308.292 113.873 311.974 115.178 312.556C116.483 313.137 118.563 313.848 118.524 312.814C118.486 311.781 117.878 308.692 115.526 308.007C115.526 308.007 118.227 308.537 117.93 307.038C117.633 305.539 117.116 303.369 115.462 302.748L114.57 302.361C114.57 302.361 116.715 302.748 116.534 301.133C116.353 299.518 116.173 297.618 114.945 297.166C114.661 297.063 114.338 296.972 114.002 296.882C112.193 296.455 111.03 299.298 112.076 301.624Z" fill="white" stroke="#263238" stroke-linecap="round" stroke-linejoin="round"/>
<path d="M150.324 302.723C150.324 302.723 147.804 297.14 143.683 294.233C139.561 291.326 138.01 285.666 136.33 287.036C134.65 288.405 136.175 294.414 138.785 296.469C141.395 298.523 138.475 303.11 144.897 308.77" fill="white"/>
<path d="M150.324 302.723C150.324 302.723 147.804 297.14 143.683 294.233C139.561 291.326 138.01 285.666 136.33 287.036C134.65 288.405 136.175 294.414 138.785 296.469C141.395 298.523 138.475 303.11 144.897 308.77" stroke="#263238" stroke-linecap="round" stroke-linejoin="round"/>
<path d="M302.115 319.017C301.547 322.531 300.939 326.179 300.293 329.961H211.677C211.534 328.772 212.374 326.382 213.176 322.208C203.303 325.555 186.04 320.36 186.04 320.36C188.185 314.714 186.699 300.371 186.699 300.371L196.752 298.239C196.752 298.239 200.926 254.537 204.105 242.016C207.477 228.733 225.929 214.235 287.992 218.512C287.992 218.512 316.626 217.969 321.071 236.951C325.258 254.667 303.304 318.202 302.115 319.017Z" fill="#6692D8"/>
<path opacity="0.2" d="M213.175 322.221C206.314 324.547 195.912 322.751 190.201 321.433C191.687 320.296 192.617 317.97 192.966 314.972C197.618 314.249 202.269 306.857 205.332 273.261C206.055 265.379 207.606 260.43 209.596 257.096C207.589 264.657 207.509 272.6 209.363 280.2C210.475 284.71 213.964 295.564 214.274 300.061C214.894 307.463 214.525 314.916 213.175 322.221Z" fill="black"/>
<path opacity="0.2" d="M302.102 319.029C301.551 322.544 300.948 326.188 300.293 329.961H211.677C213.266 325.103 217.168 301.973 211.677 287.914C211.457 287.346 230.71 279.257 243.606 282.565C298.265 296.585 279.438 251.411 295.047 243.192L281.583 296.003L274.23 298.342C290.15 299.324 285.55 323.19 285.55 323.19C291.396 323.967 297.318 322.478 302.102 319.029Z" fill="black"/>
<path d="M302.115 319.017C301.547 322.531 300.939 326.179 300.293 329.961H211.677C211.534 328.772 212.374 326.382 213.176 322.208C203.303 325.555 186.04 320.36 186.04 320.36C188.185 314.714 186.699 300.371 186.699 300.371L196.752 298.239C196.752 298.239 200.926 254.537 204.105 242.016C207.477 228.733 225.929 214.235 287.992 218.512C287.992 218.512 316.626 217.969 321.071 236.951C325.258 254.667 303.304 318.202 302.115 319.017Z" stroke="#263238" stroke-linecap="round" stroke-linejoin="round"/>
<path d="M188.353 297.916C188.353 297.916 191.713 299.712 192.811 307.607C193.909 315.502 192.217 322.299 187.836 322.195C183.456 322.092 182.668 320.374 183.572 318.745C184.477 317.117 186.389 314.933 184.929 308.175C183.094 299.712 179.321 300.487 179.321 300.487C179.321 300.487 184.347 295.667 188.353 297.916Z" fill="#6692D8" stroke="#263238" stroke-linecap="round" stroke-linejoin="round"/>
<path opacity="0.2" d="M192.966 315.024C192.617 317.97 191.674 320.296 190.201 321.485C189.528 322.011 188.69 322.281 187.836 322.247C183.443 322.144 182.668 320.425 183.572 318.797C184.477 317.169 186.389 314.985 184.929 308.227C183.094 299.763 179.321 300.539 179.321 300.539C179.321 300.539 184.36 295.719 188.366 297.954C188.366 297.954 191.726 299.75 192.824 307.646C193.174 310.09 193.221 312.568 192.966 315.024Z" fill="black"/>
<path d="M272.77 202.722C272.77 202.722 250.493 209.48 240.363 205.875L238.256 219.404C238.256 219.404 248.116 227.984 279.696 217.427L272.77 202.722Z" fill="#6692D8" stroke="#263238" stroke-linecap="round" stroke-linejoin="round"/>
<path d="M193.612 293.975C196.261 302.593 198.626 309.481 196.287 310.243C193.948 311.005 192.023 303.898 189.374 295.267C186.725 286.635 184.36 279.761 186.699 279.011C189.038 278.262 190.963 285.343 193.612 293.975Z" fill="#6692D8" stroke="#263238" stroke-linecap="round" stroke-linejoin="round"/>
<path d="M189.038 294.181L193.276 292.889C192.656 290.86 192.074 288.922 191.519 287.191L187.293 288.483C187.81 290.227 188.405 292.14 189.038 294.181Z" fill="#263238"/>
<path d="M188.65 283.094C188.65 283.094 190.627 279.127 192.449 281.931C194.271 284.735 194.646 293.251 195.938 293.264" stroke="#263238" stroke-linecap="round" stroke-linejoin="round"/>
<path d="M214.933 240.892C213.318 245.841 211.056 251.23 209.596 257.161C207.59 264.722 207.51 272.665 209.364 280.265C210.475 284.774 213.964 295.628 214.274 300.125C214.89 307.511 214.52 314.946 213.175 322.234C212.374 326.395 211.534 328.785 211.677 329.987" stroke="#263238" stroke-linecap="round" stroke-linejoin="round"/>
<path d="M269.785 299.815C269.785 299.815 233.734 304.738 221.574 304.984C219.714 304.984 214.132 304.338 214.132 304.338L205.487 298.562C205.487 298.562 198.832 297.58 195.563 298.316L191.842 303.188C191.842 303.188 187.203 304.687 189.852 308.201C189.576 309.026 189.545 309.913 189.763 310.754C189.981 311.596 190.438 312.356 191.079 312.943C191.079 312.943 191.286 316.006 193.328 317.233C193.328 317.233 193.728 320.089 195.977 320.903C198.225 321.717 212.297 319.469 216.587 318.254C220.877 317.04 262.484 323.552 278.805 323.152C278.805 323.177 292.786 306.793 269.785 299.815Z" fill="white" stroke="#263238" stroke-linecap="round" stroke-linejoin="round"/>
<path d="M270.341 163.362C270.341 163.362 260.831 167.071 255.197 156.811C252.755 152.366 247.819 143.101 247.819 143.101C246.41 146.732 248.142 152.263 248.142 152.263C244.911 150.854 238.683 150.518 238.683 150.518C236.474 146.823 235.827 138.423 235.827 138.423C232.765 143.592 233.644 150.88 233.644 150.88C228.645 151.361 223.914 153.363 220.089 156.617C220.903 159.912 221.187 165.055 220.916 175.741C220.567 189.684 227.273 193.508 233.837 198.729C240.402 203.949 258.272 206.637 264.449 179.346C264.449 179.346 277.371 174.527 271.065 164.409L270.341 163.362Z" fill="white" stroke="#263238" stroke-linecap="round" stroke-linejoin="round"/>
<path d="M259.745 146.564C261.669 150.719 264.475 154.405 267.967 157.366C271.459 160.327 275.554 162.492 279.967 163.711" stroke="#BFBFBF" stroke-miterlimit="10"/>
<path d="M256.347 136.227C256.649 137.924 257.081 139.596 257.639 141.228" stroke="#BFBFBF" stroke-miterlimit="10"/>
<path d="M262.808 136.86C262.808 136.86 270.147 150.867 281.622 151.203" stroke="#BFBFBF" stroke-miterlimit="10"/>
<path d="M285.304 172.485C285.304 172.485 303.976 202.722 303.976 220.295" stroke="#BFBFBF" stroke-miterlimit="10"/>
<path d="M280.368 180.548C280.368 180.548 284.981 197.411 292.411 205.875" stroke="#BFBFBF" stroke-miterlimit="10"/>
<path d="M221.691 136.705C221.132 139.193 220.765 141.72 220.593 144.264" stroke="#BFBFBF" stroke-miterlimit="10"/>
<path d="M236.977 120.863C236.977 120.863 228.281 122.491 222.608 132.738" stroke="#BFBFBF" stroke-miterlimit="10"/>
<path d="M225.968 199.156C225.968 199.156 225.684 212.723 232.61 220.347" stroke="#BFBFBF" stroke-miterlimit="10"/>
<path d="M238.256 157.638C247.676 155.79 251.798 160.584 251.798 160.584" stroke="#263238" stroke-linecap="round" stroke-linejoin="round"/>
<path d="M222.569 161.605C223.609 160.556 224.853 159.732 226.225 159.185C227.596 158.639 229.066 158.38 230.542 158.426" stroke="#263238" stroke-linecap="round" stroke-linejoin="round"/>
<path d="M244.394 189.206C247.302 187.552 248.917 183.236 248.917 183.236L248.31 183.572C244.519 185.598 240.389 186.912 236.125 187.448C237.121 188.606 238.469 189.405 239.963 189.722C241.457 190.04 243.014 189.858 244.394 189.206V189.206Z" stroke="#263238" stroke-linecap="round" stroke-linejoin="round"/>
<path d="M232.868 180.238C231.64 180.083 228.139 178.429 227.841 176.051C227.751 175.341 228.268 174.695 229.03 174.126C230.539 173.066 231.752 171.639 232.555 169.979C233.358 168.319 233.723 166.482 233.617 164.641C233.617 164.383 233.617 164.228 233.617 164.228" stroke="#263238" stroke-linecap="round" stroke-linejoin="round"/>
<path d="M244.911 161.424C245.803 161.308 246.72 162.794 246.953 164.719C247.185 166.644 246.668 168.285 245.764 168.402C244.859 168.518 243.968 167.032 243.722 165.107C243.477 163.181 244.019 161.527 244.911 161.424Z" fill="#263238"/>
<path d="M229.379 166.993C229.612 168.88 229.095 170.495 228.216 170.598C227.338 170.702 226.446 169.306 226.213 167.381C225.981 165.456 226.498 163.866 227.376 163.763C228.255 163.659 229.147 165.094 229.379 166.993Z" fill="#263238"/>
<path d="M258.298 163.039C258.298 163.039 257.096 159.628 258.466 157.871" stroke="#263238" stroke-linecap="round" stroke-linejoin="round"/>
<path d="M302.102 319.03C297.316 322.484 291.387 323.973 285.537 323.19C285.537 323.19 290.137 299.324 274.217 298.342L281.57 296.003L295.034 243.192" stroke="#263238" stroke-linecap="round" stroke-linejoin="round"/>
<path d="M285.537 296.003C285.537 296.003 294.065 298.251 296.456 305.591" stroke="#263238" stroke-linecap="round" stroke-linejoin="round"/>
<path d="M250.739 211.017C258.854 210.962 266.866 209.201 274.256 205.849" stroke="#263238" stroke-linecap="round" stroke-linejoin="round"/>
<path d="M239.755 209.751C241.578 210.226 243.436 210.555 245.312 210.733" stroke="#263238" stroke-linecap="round" stroke-linejoin="round"/>
<path d="M276.091 224.895C278.391 224.085 280.803 223.134 283.327 222.04" stroke="#263238" stroke-linecap="round" stroke-linejoin="round"/>
<path d="M236.176 225.089C236.176 225.089 244.847 233.32 267.783 227.441" stroke="#263238" stroke-linecap="round" stroke-linejoin="round"/>
<path d="M243.67 265.999C243.67 265.999 244.963 285.86 259.745 293.264" stroke="#263238" stroke-linecap="round" stroke-linejoin="round"/>
<path d="M269.424 300.125C269.424 300.125 272.318 293.742 280.976 296.895C280.976 296.895 289.155 299.712 291.61 308.124C294.065 316.536 290.99 324.043 285.02 324.353C279.05 324.663 277.965 324.198 278.973 322.363C280.032 320.36 280.624 318.143 280.705 315.878C280.785 313.614 280.352 311.36 279.438 309.287C275.729 300.409 269.424 300.125 269.424 300.125Z" fill="#6692D8"/>
<g opacity="0.2">
<path opacity="0.2" d="M269.424 300.125C269.424 300.125 272.318 293.742 280.976 296.895C280.976 296.895 289.155 299.712 291.61 308.124C294.065 316.536 290.99 324.043 285.02 324.353C279.05 324.663 277.965 324.198 278.973 322.363C280.032 320.36 280.624 318.143 280.705 315.878C280.785 313.614 280.352 311.36 279.438 309.287C275.729 300.409 269.424 300.125 269.424 300.125Z" fill="black"/>
</g>
<path d="M269.424 300.125C269.424 300.125 272.318 293.742 280.976 296.895C280.976 296.895 289.155 299.712 291.61 308.124C294.065 316.536 290.99 324.043 285.02 324.353C279.05 324.663 277.965 324.198 278.973 322.363C280.032 320.36 280.624 318.143 280.705 315.878C280.785 313.614 280.352 311.36 279.438 309.287C275.729 300.409 269.424 300.125 269.424 300.125Z" stroke="#263238" stroke-linecap="round" stroke-linejoin="round"/>
<path d="M233.984 292.825L222.226 197.075C222.002 195.578 221.26 194.206 220.129 193.2C218.998 192.194 217.549 191.617 216.036 191.57H202.572L218.155 298.29H229.178C229.87 298.304 230.557 298.166 231.191 297.886C231.825 297.607 232.391 297.192 232.848 296.672C233.306 296.152 233.644 295.538 233.841 294.874C234.037 294.209 234.086 293.51 233.984 292.825Z" fill="#6692D8" stroke="#263238" stroke-linecap="round" stroke-linejoin="round"/>
<path d="M226.231 298.29H90.7608C89.25 298.24 87.8044 297.662 86.6759 296.656C85.5473 295.65 84.8072 294.281 84.5843 292.786L72.8256 197.036C72.7217 196.35 72.7692 195.65 72.9645 194.985C73.1598 194.319 73.4984 193.705 73.9564 193.184C74.4144 192.663 74.9807 192.249 75.6157 191.97C76.2508 191.691 76.9391 191.555 77.6324 191.57H213.155C214.666 191.62 216.111 192.198 217.24 193.204C218.368 194.21 219.108 195.58 219.331 197.075L231.09 292.824C231.192 293.514 231.142 294.218 230.943 294.886C230.744 295.554 230.401 296.171 229.937 296.692C229.474 297.213 228.902 297.626 228.262 297.902C227.622 298.179 226.928 298.311 226.231 298.29Z" fill="#263238"/>
<path opacity="0.1" d="M226.231 298.29H90.7608C89.25 298.24 87.8044 297.662 86.6759 296.656C85.5473 295.65 84.8072 294.281 84.5843 292.786L72.8256 197.036C72.7217 196.35 72.7692 195.65 72.9645 194.985C73.1598 194.319 73.4984 193.705 73.9564 193.184C74.4144 192.663 74.9807 192.249 75.6157 191.97C76.2508 191.691 76.9391 191.555 77.6324 191.57H213.155C214.666 191.62 216.111 192.198 217.24 193.204C218.368 194.21 219.108 195.58 219.331 197.075L231.09 292.824C231.192 293.514 231.142 294.218 230.943 294.886C230.744 295.554 230.401 296.171 229.937 296.692C229.474 297.213 228.902 297.626 228.262 297.902C227.622 298.179 226.928 298.311 226.231 298.29Z" fill="white"/>
<path d="M226.231 298.29H90.7608C89.25 298.24 87.8044 297.662 86.6759 296.656C85.5473 295.65 84.8072 294.281 84.5843 292.786L72.8256 197.036C72.7217 196.35 72.7692 195.65 72.9645 194.985C73.1598 194.319 73.4984 193.705 73.9564 193.184C74.4144 192.663 74.9807 192.249 75.6157 191.97C76.2508 191.691 76.9391 191.555 77.6324 191.57H213.155C214.666 191.62 216.111 192.198 217.24 193.204C218.368 194.21 219.108 195.58 219.331 197.075L231.09 292.824C231.192 293.514 231.142 294.218 230.943 294.886C230.744 295.554 230.401 296.171 229.937 296.692C229.474 297.213 228.902 297.626 228.262 297.902C227.622 298.179 226.928 298.311 226.231 298.29V298.29Z" stroke="#263238" stroke-linecap="round" stroke-linejoin="round"/>
<path d="M163.083 320.089L168.498 258.414C168.521 258.061 168.471 257.707 168.351 257.373C168.232 257.04 168.045 256.735 167.803 256.477C167.56 256.219 167.268 256.013 166.943 255.873C166.618 255.733 166.267 255.661 165.913 255.662H131.761C131.12 255.658 130.501 255.893 130.024 256.32C129.546 256.748 129.244 257.337 129.177 257.975L123.285 325.167C123.262 325.52 123.312 325.875 123.431 326.208C123.551 326.541 123.737 326.846 123.98 327.104C124.222 327.362 124.515 327.568 124.84 327.708C125.165 327.848 125.515 327.92 125.869 327.919H193.63C194.316 327.919 194.973 327.647 195.458 327.162C195.942 326.678 196.215 326.021 196.215 325.335C196.215 324.65 195.942 323.992 195.458 323.508C194.973 323.023 194.316 322.751 193.63 322.751H165.603C165.263 322.742 164.927 322.667 164.616 322.528C164.305 322.39 164.024 322.191 163.79 321.944C163.556 321.696 163.373 321.405 163.251 321.087C163.13 320.769 163.073 320.429 163.083 320.089Z" fill="#263238" stroke="#263238" stroke-linecap="round" stroke-linejoin="round"/>
<path d="M196.163 325.426C196.163 324.74 195.89 324.083 195.406 323.598C194.921 323.114 194.264 322.841 193.578 322.841H165.603C165.248 322.842 164.896 322.77 164.57 322.629C164.244 322.488 163.951 322.281 163.709 322.022C163.466 321.762 163.28 321.456 163.161 321.121C163.042 320.786 162.994 320.431 163.019 320.076L168.433 258.401C168.544 258.033 168.572 257.645 168.514 257.265C168.457 256.885 168.315 256.523 168.099 256.204C167.884 255.886 167.6 255.62 167.269 255.425C166.937 255.23 166.567 255.112 166.184 255.078C165.801 255.045 165.415 255.097 165.055 255.232C164.695 255.366 164.369 255.58 164.102 255.856C163.835 256.132 163.632 256.464 163.51 256.829C163.387 257.193 163.347 257.58 163.393 257.962L157.501 325.154C157.478 325.502 157.526 325.851 157.642 326.18C157.757 326.509 157.938 326.811 158.174 327.068C158.409 327.325 158.694 327.532 159.012 327.676C159.329 327.82 159.672 327.899 160.021 327.907H193.617C194.278 327.897 194.911 327.635 195.384 327.173C195.858 326.712 196.136 326.087 196.163 325.426Z" fill="#6692D8" stroke="#263238" stroke-linecap="round" stroke-linejoin="round"/>
<path d="M40.8057 327.92H525.368" stroke="#263238" stroke-linecap="round" stroke-linejoin="round"/>
</svg>
