<svg width="360" height="360" viewBox="0 0 360 360" fill="none" xmlns="http://www.w3.org/2000/svg">
<path d="M240.48 24.8977C240.48 24.8977 184.752 5.08327 130.054 36.6337C75.3554 68.1841 47.7362 130.802 24.0338 180.965C0.331357 231.127 13.9538 282.161 55.7138 305.424C97.4738 328.687 125.863 294.394 184.443 292.723C243.022 291.053 258.797 299.426 307.44 266.335C356.083 233.244 364.831 155.088 326.491 97.2649C288.151 39.4417 240.48 24.8977 240.48 24.8977Z" fill="#6692D8"/>
<path opacity="0.7" d="M240.48 24.8977C240.48 24.8977 184.752 5.08327 130.054 36.6337C75.3554 68.1841 47.7362 130.802 24.0338 180.965C0.331357 231.127 13.9538 282.161 55.7138 305.424C97.4738 328.687 125.863 294.394 184.443 292.723C243.022 291.053 258.797 299.426 307.44 266.335C356.083 233.244 364.831 155.088 326.491 97.2649C288.151 39.4417 240.48 24.8977 240.48 24.8977Z" fill="white"/>
<path d="M29.4695 203.976C29.4695 203.976 30.8087 206.518 29.6207 208.901C28.4327 211.284 26.9351 213.674 27.8279 214.87C28.7207 216.065 31.4279 217.555 31.1111 220.09C30.7943 222.624 27.2303 227.7 29.4695 230.537C31.7087 233.374 35.4383 233.222 35.5895 236.354C35.7407 239.486 31.9895 242.021 33.0479 244.858C34.1063 247.694 40.2479 248.292 40.2479 250.229C40.2479 252.166 37.8575 254.261 39.8015 256.349C41.7455 258.437 51.1199 263.887 52.4303 261.648C53.7407 259.409 56.4767 253.217 54.6983 244.426C54.3959 242.95 52.2935 242.618 51.9983 240.53C51.7031 238.442 52.5959 234.713 51.1055 232.61C49.6151 230.508 44.8343 229.774 44.5391 228.132C44.2439 226.49 46.3247 222.466 44.2367 219.931C42.1487 217.397 37.2239 216.216 37.2239 214.56C37.2239 212.904 38.7215 210.83 36.6335 208.591C34.5455 206.352 29.4695 203.976 29.4695 203.976Z" fill="#6692D8"/>
<path d="M36.6118 221.559C39.7222 230.919 45.1654 243.641 47.3758 249.783C50.0614 257.242 52.4158 262.642 53.5894 270.101C54.763 277.56 55.4398 327.521 55.4398 327.521" stroke="#263238" stroke-linecap="round" stroke-linejoin="round"/>
<path d="M30.2397 204.876C30.2397 204.876 32.7741 206.964 35.0133 216.065C35.1573 216.648 35.3229 217.267 35.5029 217.922" stroke="#263238" stroke-linecap="round" stroke-linejoin="round"/>
<path d="M76.1037 220.975C75.8002 221.585 75.6326 222.254 75.6127 222.935C75.5929 223.617 75.7211 224.294 75.9885 224.921C76.9389 226.829 78.1485 228.737 77.4285 229.695C76.7085 230.652 74.5485 231.855 74.8005 233.871C75.0525 235.887 77.9037 239.962 76.1109 242.23C74.3181 244.498 71.3373 244.39 71.2149 246.888C71.0925 249.387 74.0949 251.424 73.2453 253.692C72.3957 255.96 67.4853 256.443 67.4853 258.012C67.4853 259.582 69.4005 261.238 67.8453 262.908C66.2901 264.579 58.8021 268.92 57.7293 267.12C56.6565 265.32 54.4965 260.374 55.9149 253.339C56.1525 252.159 57.8373 251.899 58.0749 250.222C58.3125 248.544 57.5997 245.563 58.7949 243.893C59.9901 242.223 63.8349 241.625 64.0437 240.293C64.2525 238.961 62.6037 235.757 64.2813 233.727C65.9589 231.696 69.8973 230.739 69.8973 229.407C69.8973 228.075 68.7021 226.419 70.3725 224.626C72.0429 222.833 76.1037 220.975 76.1037 220.975Z" fill="#6692D8"/>
<path d="M70.3872 235.044C67.9032 242.554 63.5472 252.72 61.7472 257.631C59.5872 263.607 57.7296 267.927 56.7792 273.895C55.8288 279.864 55.3032 319.846 55.3032 319.846" stroke="#263238" stroke-linecap="round" stroke-linejoin="round"/>
<path d="M75.5064 221.695C75.5064 221.695 73.476 223.366 71.6904 230.652C71.5752 231.12 71.4384 231.617 71.2944 232.135" stroke="#263238" stroke-linecap="round" stroke-linejoin="round"/>
<path d="M35.0494 254.787C35.3021 255.295 35.442 255.853 35.4594 256.421C35.4768 256.989 35.3713 257.554 35.1502 258.077C34.351 259.675 33.3502 261.267 33.9478 262.066C34.5454 262.865 36.3454 263.866 36.1438 265.558C35.9422 267.25 33.5518 270.648 35.0494 272.542C36.547 274.435 39.0382 274.335 39.139 276.43C39.2398 278.525 36.7198 280.224 37.4398 282.118C38.1598 284.011 42.2278 284.415 42.2278 285.718C42.2278 287.021 40.6366 288.411 41.9326 289.807C43.2286 291.204 49.4998 294.847 50.3998 293.35C51.2998 291.852 53.107 287.712 51.9118 281.83C51.7174 280.843 50.3134 280.62 50.1118 279.223C49.9102 277.827 50.5078 275.335 49.5142 273.939C48.5206 272.542 45.3238 272.045 45.1222 270.943C44.9206 269.842 46.3174 267.156 44.9206 265.457C43.5238 263.758 40.2334 262.966 40.2334 261.857C40.2334 260.748 41.2342 259.359 39.8374 257.861C38.4406 256.363 35.0494 254.787 35.0494 254.787Z" fill="#6692D8"/>
<path d="M39.8232 266.544C41.904 272.815 45.54 281.304 47.0232 285.408C48.8232 290.398 50.3856 294.048 51.1776 298.995C51.9696 303.941 52.416 322.495 52.416 322.495" stroke="#263238" stroke-linecap="round" stroke-linejoin="round"/>
<path d="M35.5464 255.384C35.5464 255.384 37.2456 256.781 38.736 262.865C38.8368 263.261 38.9448 263.671 39.0672 264.103" stroke="#263238" stroke-linecap="round" stroke-linejoin="round"/>
<path d="M86.3999 252.302C86.0361 252.74 85.7717 253.251 85.625 253.8C85.4783 254.35 85.4528 254.925 85.5503 255.485C85.9607 257.22 86.5727 258.998 85.8023 259.639C85.0319 260.28 83.0663 260.842 82.8719 262.519C82.6775 264.197 84.2327 268.063 82.3391 269.568C80.4455 271.073 78.0191 270.396 77.4647 272.448C76.9103 274.5 78.9047 276.682 77.8175 278.366C76.7303 280.051 72.6335 279.504 72.3311 280.771C72.0287 282.038 73.2743 283.752 71.6903 284.818C70.1063 285.883 63.1943 288 62.6399 286.322C62.0855 284.645 61.3007 280.217 63.7991 274.766C64.2239 273.852 65.6423 273.96 66.1535 272.642C66.6647 271.325 66.6575 268.769 67.9463 267.638C69.2351 266.508 72.4607 266.746 72.9071 265.723C73.3535 264.701 72.6047 261.763 74.3471 260.431C76.0895 259.099 79.4807 259.078 79.7327 258.005C79.9847 256.932 79.3295 255.355 81.0359 254.218C82.7423 253.08 86.3999 252.302 86.3999 252.302Z" fill="#6692D8"/>
<path d="M79.0921 262.649C75.6361 268.279 70.1497 275.717 67.7737 279.374C64.8937 283.817 61.4161 286.661 60.6169 291.651C59.8177 296.64 59.3857 315.151 59.3857 315.151" stroke="#263238" stroke-linecap="round" stroke-linejoin="round"/>
<path d="M85.8097 252.771C85.8097 252.771 83.8369 253.743 80.9929 259.322C80.8057 259.682 80.6041 260.042 80.3809 260.453" stroke="#263238" stroke-linecap="round" stroke-linejoin="round"/>
<path d="M50.9974 333.144H62.0926C67.9318 330.135 72.079 322.517 72.079 313.582C72.1739 308.225 70.5376 302.98 67.4134 298.627H45.6766C42.5626 302.984 40.9365 308.228 41.0398 313.582C41.0398 322.517 45.1582 330.135 50.9974 333.144Z" fill="white" stroke="#263238" stroke-linecap="round" stroke-linejoin="round"/>
<path d="M62.2944 333.144H50.9976V334.8H62.2944V333.144Z" fill="white" stroke="#263238" stroke-linecap="round" stroke-linejoin="round"/>
<path d="M216.273 54H39.4126V187.862H216.273V54Z" stroke="#263238" stroke-linecap="round" stroke-linejoin="round"/>
<path d="M212.141 57.5496H43.5381V184.32H212.141V57.5496Z" stroke="#263238" stroke-linecap="round" stroke-linejoin="round"/>
<path d="M94.9318 76.1545C94.9318 76.1545 67.3846 74.1601 65.0662 78.4801C62.7478 82.8001 64.3966 161.784 65.7286 162.778C67.0606 163.771 104.227 164.434 107.877 163.109C111.528 161.784 106.56 81.4609 106.56 79.1353C106.56 76.8097 97.9198 75.8161 97.9198 75.8161" stroke="#263238" stroke-width="2" stroke-linecap="round" stroke-linejoin="round"/>
<path d="M67.9102 141.53C67.9678 151.942 68.191 159.574 68.7166 159.782C70.3726 160.445 105.552 163.433 106.545 160.114C107.539 156.794 103.889 81.792 103.889 81.792" stroke="#263238" stroke-width="2" stroke-linecap="round" stroke-linejoin="round"/>
<path d="M102.564 81.4607C102.564 81.4607 69.0477 80.1359 68.7237 81.7919C68.5077 82.8503 67.8957 113.947 67.9029 136.555" stroke="#263238" stroke-width="2" stroke-linecap="round" stroke-linejoin="round"/>
<path d="M69.71 87.4368H102.232" stroke="#263238" stroke-width="2" stroke-linecap="round" stroke-linejoin="round"/>
<path d="M99.2443 85.932C97.2571 88.0344 99.2444 85.932 100.576 82.9296C101.908 79.9272 99.2444 83.5272 96.2564 85.932C93.2684 88.3368 94.9315 86.5368 95.9251 83.232C96.9187 79.9272 94.9316 83.232 92.2748 85.3344C89.618 87.4368 90.9499 86.5368 91.9435 82.9296C92.9371 79.3224 91.9435 82.9296 87.9619 85.3344C83.9803 87.7392 85.9675 87.732 87.9619 84.132C89.9563 80.532 86.6371 84.132 82.9867 85.3344C79.3363 86.5368 82.9867 85.3344 84.3115 82.0296C85.6363 78.7248 81.9859 82.9296 79.3363 84.7296C76.6867 86.5296 79.3363 84.7296 79.9987 82.6272C80.6611 80.5248 78.3355 83.232 75.6787 85.932C73.0219 88.632 75.6787 85.932 76.0099 83.5272C76.3411 81.1224 73.0219 87.4368 73.0219 87.4368C73.0219 87.4368 74.0155 81.4248 73.3531 82.9296C72.9114 83.8943 72.3528 84.8011 71.6899 85.6296" stroke="#6692D8" stroke-width="2" stroke-linecap="round" stroke-linejoin="round"/>
<path d="M87.631 93.0745H71.3662V110.002H87.631V93.0745Z" stroke="#6692D8" stroke-width="2" stroke-linecap="round" stroke-linejoin="round"/>
<path d="M74.6854 93.0745L72.0358 96.0625L77.6734 94.0753L72.0358 99.3817L81.3238 93.4057L72.0358 103.363L84.643 94.0753L71.3662 106.351L87.2998 95.4001L71.3662 110.002L87.2998 99.3817L76.0174 109.339L87.631 103.032L80.3302 109.008L87.2998 106.682L85.9678 109.008" stroke="#6692D8" stroke-width="2" stroke-linecap="round" stroke-linejoin="round"/>
<path d="M101.649 144.85H89.2148V157.795H101.649V144.85Z" stroke="#6692D8" stroke-width="2" stroke-linecap="round" stroke-linejoin="round"/>
<path d="M91.7492 144.85L89.7188 147.132L94.0316 145.613L89.7188 149.674L96.8252 145.102L89.7188 152.719L99.3596 145.613L89.2148 155.002L101.39 146.628L89.2148 157.795L101.39 149.674L92.7644 157.284L101.649 152.46L96.062 157.032L101.39 155.254L100.375 157.032" stroke="#6692D8" stroke-width="2" stroke-linecap="round" stroke-linejoin="round"/>
<path d="M71.0352 116.309H102.895" stroke="#263238" stroke-width="2" stroke-linecap="round" stroke-linejoin="round"/>
<path d="M70.7036 119.297L102.232 119.628" stroke="#263238" stroke-width="2" stroke-linecap="round" stroke-linejoin="round"/>
<path d="M90.9502 94.0752H101.239" stroke="#263238" stroke-width="2" stroke-linecap="round" stroke-linejoin="round"/>
<path d="M90.9502 98.0569H101.239" stroke="#263238" stroke-width="2" stroke-linecap="round" stroke-linejoin="round"/>
<path d="M90.9502 102.038H101.239" stroke="#263238" stroke-width="2" stroke-linecap="round" stroke-linejoin="round"/>
<path d="M90.9502 106.02H101.239" stroke="#263238" stroke-width="2" stroke-linecap="round" stroke-linejoin="round"/>
<path d="M102.233 121.284H71.3662V136.217H102.233V121.284Z" stroke="#6692D8" stroke-width="2" stroke-linecap="round" stroke-linejoin="round"/>
<path d="M71.035 124.272L75.3478 121.615L70.3726 129.247L78.667 121.615L71.3662 132.574L84.3118 121.284L73.0294 134.561L86.9686 121.615L76.3486 134.561L91.6126 121.284L79.3366 135.886L94.6006 121.615L82.987 135.223L98.5822 121.284L86.6374 135.886L102.233 121.284L90.9502 135.554L101.57 126.266L94.6006 134.892L101.57 130.248L100.202 132.466L98.9134 134.561" stroke="#6692D8" stroke-width="2" stroke-linecap="round" stroke-linejoin="round"/>
<path d="M72.6982 140.206H101.239" stroke="#263238" stroke-width="2" stroke-linecap="round" stroke-linejoin="round"/>
<path d="M72.0356 143.856H81.3236" stroke="#263238" stroke-width="2" stroke-linecap="round" stroke-linejoin="round"/>
<path d="M107.877 83.4551L130.658 80.6543" stroke="#263238" stroke-width="2" stroke-linecap="round" stroke-linejoin="round"/>
<path d="M104.227 99.7129H128.117" stroke="#263238" stroke-width="2" stroke-linecap="round" stroke-linejoin="round"/>
<path d="M66.3909 129.917L56.1021 133.567" stroke="#263238" stroke-width="2" stroke-linecap="round" stroke-linejoin="round"/>
<path d="M95.5943 160.114C95.5943 160.114 93.6071 170.402 107.208 173.074" stroke="#263238" stroke-width="2" stroke-linecap="round" stroke-linejoin="round"/>
<path d="M105.221 170.402L108.54 173.39L103.889 174.715" stroke="#263238" stroke-width="2" stroke-linecap="round" stroke-linejoin="round"/>
<path d="M125.128 96.7249L130.442 100.044L125.798 102.038" stroke="#263238" stroke-width="2" stroke-linecap="round" stroke-linejoin="round"/>
<path d="M126.345 79.6609L131.983 80.3233L128.001 83.9737" stroke="#263238" stroke-width="2" stroke-linecap="round" stroke-linejoin="round"/>
<path d="M57.4271 130.248L51.7896 134.892L58.7591 135.223" stroke="#263238" stroke-width="2" stroke-linecap="round" stroke-linejoin="round"/>
<path d="M144.713 96.7249H132.098V110.002H144.713V96.7249Z" fill="#6692D8"/>
<path d="M135.086 99.7129L142.387 100.044" stroke="#263238" stroke-width="2" stroke-linecap="round" stroke-linejoin="round"/>
<path d="M135.086 102.37L142.387 102.701" stroke="#263238" stroke-width="2" stroke-linecap="round" stroke-linejoin="round"/>
<path d="M135.086 105.026L142.387 105.358" stroke="#263238" stroke-width="2" stroke-linecap="round" stroke-linejoin="round"/>
<path d="M124.652 114.613L112.125 116.091L113.681 129.277L126.208 127.798L124.652 114.613Z" fill="#6692D8"/>
<path d="M115.438 118.714L122.724 118.188" stroke="#263238" stroke-width="2" stroke-linecap="round" stroke-linejoin="round"/>
<path d="M115.747 121.349L123.033 120.823" stroke="#263238" stroke-width="2" stroke-linecap="round" stroke-linejoin="round"/>
<path d="M116.057 123.984L123.35 123.458" stroke="#263238" stroke-width="2" stroke-linecap="round" stroke-linejoin="round"/>
<path d="M59.2824 137.181L46.7549 138.66L48.3108 151.845L60.8383 150.367L59.2824 137.181Z" fill="#6692D8"/>
<path d="M50.0542 141.279L57.3478 140.753" stroke="#263238" stroke-width="2" stroke-linecap="round" stroke-linejoin="round"/>
<path d="M50.3638 143.921L57.6574 143.395" stroke="#263238" stroke-width="2" stroke-linecap="round" stroke-linejoin="round"/>
<path d="M50.6807 146.556L57.9671 146.03" stroke="#263238" stroke-width="2" stroke-linecap="round" stroke-linejoin="round"/>
<path d="M124.463 164.805L111.919 163.471L110.515 176.674L123.059 178.007L124.463 164.805Z" fill="#6692D8"/>
<path d="M114.588 166.752L121.809 167.854" stroke="#263238" stroke-width="2" stroke-linecap="round" stroke-linejoin="round"/>
<path d="M114.307 169.394L121.529 170.496" stroke="#263238" stroke-width="2" stroke-linecap="round" stroke-linejoin="round"/>
<path d="M114.026 172.037L121.248 173.138" stroke="#263238" stroke-width="2" stroke-linecap="round" stroke-linejoin="round"/>
<path d="M216.266 187.862H39.4126V192.384H216.266V187.862Z" fill="#263238" stroke="#263238" stroke-linecap="round" stroke-linejoin="round"/>
<path d="M287.237 220.27V211.831H261.842V220.27C261.84 223.034 260.887 225.714 259.142 227.859L258.034 229.234H291.046L289.937 227.859C288.193 225.714 287.239 223.034 287.237 220.27Z" fill="#263238" stroke="#263238" stroke-linecap="round" stroke-linejoin="round"/>
<path d="M285.797 220.27V211.831H260.403V220.27C260.4 223.034 259.447 225.714 257.703 227.859L256.594 229.234H289.606L288.497 227.859C286.753 225.714 285.799 223.034 285.797 220.27Z" fill="white" stroke="#263238" stroke-linecap="round" stroke-linejoin="round"/>
<path d="M285.998 214.214H260.503V216.799H285.998V214.214Z" fill="#263238"/>
<path d="M318.024 139.543H228.168C224.796 139.543 222.062 142.277 222.062 145.649V208.382C222.062 211.754 224.796 214.488 228.168 214.488H318.024C321.396 214.488 324.13 211.754 324.13 208.382V145.649C324.13 142.277 321.396 139.543 318.024 139.543Z" fill="#263238" stroke="#263238" stroke-linecap="round" stroke-linejoin="round"/>
<path d="M320.767 139.543H230.911C227.539 139.543 224.806 142.277 224.806 145.649V208.382C224.806 211.754 227.539 214.488 230.911 214.488H320.767C324.139 214.488 326.873 211.754 326.873 208.382V145.649C326.873 142.277 324.139 139.543 320.767 139.543Z" fill="#263238" stroke="#263238" stroke-linecap="round" stroke-linejoin="round"/>
<path d="M222.062 202.838H324.137V208.382C324.137 210.002 323.494 211.555 322.349 212.7C321.204 213.845 319.651 214.488 318.031 214.488H228.175C226.556 214.488 225.003 213.845 223.858 212.7C222.713 211.555 222.07 210.002 222.07 208.382V202.838H222.062Z" fill="white" stroke="#263238" stroke-linecap="round" stroke-linejoin="round"/>
<path d="M318.996 144.209H227.196V197.158H318.996V144.209Z" fill="white"/>
<path d="M259.142 149.724H241.085C239.876 149.724 238.896 150.704 238.896 151.913V189.209C238.896 190.418 239.876 191.398 241.085 191.398H259.142C260.351 191.398 261.331 190.418 261.331 189.209V151.913C261.331 150.704 260.351 149.724 259.142 149.724Z" fill="#263238"/>
<path d="M259.452 153.216H240.782V187.891H259.452V153.216Z" fill="#6692D8"/>
<path d="M284.062 153.799H267.163V155.549H284.062V153.799Z" fill="#263238"/>
<path d="M275.328 157.594H267.458V165.751H275.328V157.594Z" fill="#6692D8"/>
<path d="M282.895 182.65H278.683V187.02H282.895V182.65Z" fill="#6692D8"/>
<path d="M283.68 171.576H267.653V179.734H283.68V171.576Z" fill="#6692D8"/>
<path d="M276.782 158.177H283.19" stroke="#263238" stroke-linecap="round" stroke-linejoin="round"/>
<path d="M276.782 160.214H283.19" stroke="#263238" stroke-linecap="round" stroke-linejoin="round"/>
<path d="M276.782 162.252H283.19" stroke="#263238" stroke-linecap="round" stroke-linejoin="round"/>
<path d="M276.782 164.29H283.19" stroke="#263238" stroke-linecap="round" stroke-linejoin="round"/>
<path d="M267.941 168.955H283.385" stroke="#263238" stroke-linecap="round" stroke-linejoin="round"/>
<path d="M267.941 181.778H283.385" stroke="#263238" stroke-linecap="round" stroke-linejoin="round"/>
<path d="M285.523 152.057H265.709V188.777H285.523V152.057Z" stroke="#263238" stroke-linecap="round" stroke-linejoin="round"/>
<path d="M309.708 152.057H291.06V165.751H309.708V152.057Z" fill="#BFBFBF"/>
<path d="M309.708 152.057H291.06V154.973H309.708V152.057Z" fill="#263238"/>
<path d="M297.382 157.09H292.507V161.806H297.382V157.09Z" stroke="#263238" stroke-linecap="round" stroke-linejoin="round"/>
<path d="M307.131 157.09H302.256V161.806H307.131V157.09Z" stroke="#263238" stroke-linecap="round" stroke-linejoin="round"/>
<path d="M307.915 153.713C307.915 153.855 307.873 153.995 307.794 154.113C307.715 154.231 307.602 154.324 307.471 154.378C307.339 154.433 307.195 154.447 307.055 154.419C306.915 154.391 306.787 154.323 306.686 154.222C306.586 154.121 306.517 153.993 306.489 153.853C306.461 153.714 306.476 153.569 306.53 153.437C306.585 153.306 306.677 153.193 306.795 153.114C306.914 153.035 307.053 152.993 307.195 152.993C307.386 152.993 307.569 153.069 307.704 153.204C307.839 153.339 307.915 153.522 307.915 153.713Z" fill="white"/>
<path d="M303.826 154.419C304.215 154.419 304.531 154.103 304.531 153.713C304.531 153.323 304.215 153.007 303.826 153.007C303.436 153.007 303.12 153.323 303.12 153.713C303.12 154.103 303.436 154.419 303.826 154.419Z" fill="white"/>
<path d="M308.218 173.174H293.94V183.665H308.218V173.174Z" fill="#BFBFBF"/>
<path d="M308.218 173.174H293.94V175.406H308.218V173.174Z" fill="#263238"/>
<path d="M306.85 174.442C306.851 174.55 306.82 174.657 306.761 174.748C306.702 174.839 306.617 174.91 306.517 174.952C306.417 174.995 306.307 175.007 306.2 174.986C306.094 174.966 305.995 174.915 305.918 174.838C305.841 174.762 305.788 174.665 305.766 174.558C305.745 174.452 305.755 174.342 305.796 174.241C305.838 174.141 305.908 174.055 305.998 173.994C306.088 173.934 306.194 173.902 306.303 173.902C306.446 173.902 306.585 173.958 306.687 174.059C306.789 174.16 306.848 174.298 306.85 174.442Z" fill="white"/>
<path d="M304.258 174.442C304.258 174.585 304.201 174.722 304.1 174.823C303.998 174.925 303.861 174.982 303.718 174.982C303.575 174.982 303.437 174.925 303.336 174.823C303.235 174.722 303.178 174.585 303.178 174.442C303.178 174.298 303.235 174.161 303.336 174.06C303.437 173.959 303.575 173.902 303.718 173.902C303.861 173.902 303.998 173.959 304.1 174.06C304.201 174.161 304.258 174.298 304.258 174.442Z" fill="white"/>
<path d="M236.218 146.988H230.22V194.026H236.218V146.988Z" fill="#BFBFBF"/>
<path d="M236.218 146.988H230.22V149.148H236.218V146.988Z" fill="#263238"/>
<path d="M234.54 150.588H231.66V153.95H234.54V150.588Z" stroke="#263238" stroke-linecap="round" stroke-linejoin="round"/>
<path d="M234.54 156.103H231.66V159.466H234.54V156.103Z" stroke="#263238" stroke-linecap="round" stroke-linejoin="round"/>
<path d="M234.54 161.625H231.66V164.988H234.54V161.625Z" stroke="#263238" stroke-linecap="round" stroke-linejoin="round"/>
<path d="M234.54 167.148H231.66V170.51H234.54V167.148Z" stroke="#263238" stroke-linecap="round" stroke-linejoin="round"/>
<path d="M234.54 172.663H231.66V176.025H234.54V172.663Z" stroke="#263238" stroke-linecap="round" stroke-linejoin="round"/>
<path d="M234.54 178.186H231.66V181.548H234.54V178.186Z" stroke="#263238" stroke-linecap="round" stroke-linejoin="round"/>
<path d="M234.54 183.708H231.66V187.07H234.54V183.708Z" stroke="#263238" stroke-linecap="round" stroke-linejoin="round"/>
<path d="M234.54 189.223H231.66V192.586H234.54V189.223Z" stroke="#263238" stroke-linecap="round" stroke-linejoin="round"/>
<path d="M316.382 146.506H240.062V148.428H316.382V146.506Z" fill="#BFBFBF"/>
<path d="M316.382 193.068H240.062V194.99H316.382V193.068Z" fill="#BFBFBF"/>
<path d="M289.613 229.234H256.594V230.738H289.613V229.234Z" fill="#263238" stroke="#263238" stroke-linecap="round" stroke-linejoin="round"/>
<path d="M311.198 228.002H234.54V230.738H311.198V228.002Z" fill="white" stroke="#263238" stroke-linecap="round" stroke-linejoin="round"/>
<path d="M165.845 334.8H162.727L161.165 239.278H167.407L165.845 334.8Z" fill="white" stroke="#263238" stroke-linecap="round" stroke-linejoin="round"/>
<path d="M165.845 334.8H164.47L164.657 239.278H167.407L165.845 334.8Z" fill="#263238" stroke="#263238" stroke-linecap="round" stroke-linejoin="round"/>
<path d="M210.29 334.8H207.173L205.61 239.278H211.853L210.29 334.8Z" fill="white" stroke="#263238" stroke-linecap="round" stroke-linejoin="round"/>
<path d="M210.29 334.8H208.915L209.102 239.278H211.853L210.29 334.8Z" fill="#263238" stroke="#263238" stroke-linecap="round" stroke-linejoin="round"/>
<path d="M194.378 334.8H191.253L189.698 239.278H195.933L194.378 334.8Z" fill="#263238" stroke="#263238" stroke-linecap="round" stroke-linejoin="round"/>
<path d="M194.378 334.8H193.003L193.183 239.278H195.934L194.378 334.8Z" fill="#263238" stroke="#263238" stroke-linecap="round" stroke-linejoin="round"/>
<path d="M224.41 334.8H221.285L219.729 239.278H225.965L224.41 334.8Z" fill="#263238" stroke="#263238" stroke-linecap="round" stroke-linejoin="round"/>
<path d="M224.409 334.8H223.027L223.214 239.278H225.965L224.409 334.8Z" fill="#263238" stroke="#263238" stroke-linecap="round" stroke-linejoin="round"/>
<path d="M226.749 240.739H177.804V300.499H226.749V240.739Z" fill="#263238" stroke="#263238" stroke-linecap="round" stroke-linejoin="round"/>
<path d="M213.235 240.739H164.29V300.499H213.235V240.739Z" fill="white" stroke="#263238" stroke-linecap="round" stroke-linejoin="round"/>
<path d="M312.091 334.8H308.974L307.411 239.278H313.654L312.091 334.8Z" fill="white" stroke="#263238" stroke-linecap="round" stroke-linejoin="round"/>
<path d="M312.091 334.8H310.716L310.903 239.278H313.653L312.091 334.8Z" fill="#263238" stroke="#263238" stroke-linecap="round" stroke-linejoin="round"/>
<path d="M340.625 334.8H337.5L335.945 239.278H342.18L340.625 334.8Z" fill="#263238" stroke="#263238" stroke-linecap="round" stroke-linejoin="round"/>
<path d="M340.625 334.8H339.25L339.43 239.278H342.18L340.625 334.8Z" fill="#263238" stroke="#263238" stroke-linecap="round" stroke-linejoin="round"/>
<path d="M344.153 235.677H157.054V242.251H344.153V235.677Z" fill="white" stroke="#263238" stroke-linecap="round" stroke-linejoin="round"/>
<path d="M344.153 235.677H157.054V238.961H344.153V235.677Z" fill="#263238" stroke="#263238" stroke-linecap="round" stroke-linejoin="round"/>
<path d="M344.153 235.677H316.534V242.251H344.153V235.677Z" fill="#263238" stroke="#263238" stroke-linecap="round" stroke-linejoin="round"/>
<path d="M350.201 230.4H151.978V236.974H350.201V230.4Z" fill="white" stroke="#263238" stroke-linecap="round" stroke-linejoin="round"/>
<path d="M350.201 230.4H322.582V236.974H350.201V230.4Z" fill="#263238" stroke="#263238" stroke-linecap="round" stroke-linejoin="round"/>
<path d="M210.24 246.478H167.4V267.358H210.24V246.478Z" fill="white" stroke="#263238" stroke-linecap="round" stroke-linejoin="round"/>
<path d="M193.5 254.758H184.14V257.998H193.5V254.758Z" fill="#263238" stroke="#263238" stroke-linecap="round" stroke-linejoin="round"/>
<path d="M210.24 272.758H167.4V293.638H210.24V272.758Z" fill="white" stroke="#263238" stroke-linecap="round" stroke-linejoin="round"/>
<path d="M193.5 281.038H184.14V284.278H193.5V281.038Z" fill="#263238" stroke="#263238" stroke-linecap="round" stroke-linejoin="round"/>
<path d="M276.185 278.978H288.987V253.231H276.185V278.978Z" fill="#263238"/>
<path d="M279.389 305.489H285.79V269.834H279.389V305.489Z" fill="#263238"/>
<path d="M285.192 302.746C285.192 302.746 290.571 308.851 304.395 310.975C311.695 312.098 319.299 313.495 325.894 316.987C330.135 319.234 338.58 324.151 338.58 329.767C338.587 330.592 338.391 331.406 338.009 332.137C337.628 332.869 337.073 333.495 336.393 333.962C335.713 334.429 334.929 334.722 334.109 334.815C333.29 334.908 332.46 334.799 331.693 334.496C330.925 334.194 330.244 333.708 329.708 333.081C329.172 332.454 328.799 331.704 328.62 330.899C328.441 330.094 328.463 329.257 328.683 328.462C328.903 327.667 329.315 326.939 329.883 326.34C326.429 321.145 321.075 317.512 314.971 316.224C304.459 313.934 296.784 314.87 281.995 305.035L285.192 302.746Z" fill="#263238"/>
<path d="M280.62 302.746C280.62 302.746 275.242 308.851 261.418 310.975C254.117 312.098 246.514 313.495 239.919 316.987C235.671 319.234 227.232 324.151 227.232 329.767C227.224 330.593 227.419 331.408 227.8 332.14C228.181 332.873 228.736 333.5 229.417 333.968C230.097 334.436 230.882 334.729 231.702 334.823C232.522 334.916 233.353 334.806 234.121 334.503C234.889 334.201 235.571 333.714 236.107 333.085C236.642 332.457 237.016 331.707 237.194 330.901C237.371 330.095 237.349 329.257 237.127 328.462C236.905 327.667 236.492 326.938 235.923 326.34C239.378 321.147 244.731 317.515 250.834 316.224C261.353 313.934 269.028 314.87 283.817 305.035L280.62 302.746Z" fill="#263238"/>
<path d="M280.404 334.8H285.235C285.498 334.8 285.71 334.587 285.71 334.325V325.829C285.71 325.566 285.498 325.353 285.235 325.353H280.404C280.142 325.353 279.929 325.566 279.929 325.829V334.325C279.929 334.587 280.142 334.8 280.404 334.8Z" fill="#263238"/>
<path d="M281.448 334.8H284.191V303.602H281.448V334.8Z" fill="#263238"/>
<path d="M313.589 178.891C311.991 187.414 311.028 196.044 310.709 204.71C310.5 211.392 310.392 217.116 310.291 222.163C309.989 237.852 309.816 246.549 307.347 248.889C307.03 249.105 304.985 250.366 300.708 250.726C299.513 250.826 295.711 250.877 290.542 250.906C274.147 250.855 256.918 250.718 256.644 250.718H255.643C255.6 250.718 255.564 250.798 255.528 250.834C245.679 250.776 243.144 250.718 242.964 250.718H241.963C239.897 252.511 241.128 254.815 242.928 254.829C244.275 254.829 267.739 255.038 283.788 255.038C286.625 255.038 289.296 255.038 291.665 255.038H302.508C310.911 255.038 317.873 254.981 319.788 254.822C325.728 254.333 328.392 252.324 328.673 252.094C332.633 248.58 332.784 240.869 333.151 222.249C333.245 217.209 333.36 211.493 333.562 204.84C333.885 196.137 334.872 187.472 336.514 178.92L313.589 178.891Z" fill="#263238"/>
<path d="M186.3 313.322L187.92 321.782C187.92 321.782 186.48 324.842 180.9 327.362C175.32 329.882 172.62 330.962 172.62 331.682C172.62 332.402 172.26 334.022 173.7 334.562C175.14 335.102 205.74 334.562 205.74 334.562C205.74 334.562 207.36 333.842 207.36 330.422C207.36 327.002 205.92 320.702 205.92 319.262C205.92 317.822 204.904 314.352 204.904 313.862C204.904 313.373 192.6 314.042 192.6 314.042C192.6 314.042 189 310.622 186.3 313.322Z" fill="white" stroke="#263238" stroke-linecap="round" stroke-linejoin="round"/>
<path d="M192.6 314.042C192.6 314.042 193.5 322.142 194.04 322.682C194.58 323.222 205.92 323.222 205.92 323.222" fill="white"/>
<path d="M192.6 314.042C192.6 314.042 193.5 322.142 194.04 322.682C194.58 323.222 205.92 323.222 205.92 323.222" stroke="#263238" stroke-linecap="round" stroke-linejoin="round"/>
<path d="M205.92 319.262L193.32 319.442" stroke="#263238" stroke-linecap="round" stroke-linejoin="round"/>
<path d="M172.62 333.123H207" stroke="#263238" stroke-linecap="round" stroke-linejoin="round"/>
<path d="M208.8 211.86C208.8 211.86 198.821 245.455 197.597 250.085C196.373 254.715 203.443 295.366 203.443 296.093C203.443 296.82 204.415 299.016 204.415 301.45C204.415 303.883 203.443 304.61 203.933 305.345C204.422 306.079 206.093 307.778 205.877 309.24C205.802 310.367 205.284 311.418 204.437 312.163C203.9 312.724 203.231 313.142 202.493 313.38H196.646C196.646 313.38 195.206 302.422 191.289 273.456C187.373 244.49 193.73 227.931 194.947 222.574C195.776 219.118 197 215.769 198.597 212.594L208.8 211.86Z" fill="#263238" stroke="#263238" stroke-linecap="round" stroke-linejoin="round"/>
<path d="M178.02 313.322L179.64 321.782C179.64 321.782 178.2 324.842 172.62 327.362C167.04 329.882 164.34 330.962 164.34 331.682C164.34 332.402 163.98 334.022 165.42 334.562C166.86 335.102 197.46 334.562 197.46 334.562C197.46 334.562 199.08 333.842 199.08 330.422C199.08 327.002 197.64 320.702 197.64 319.262C197.64 317.822 196.625 314.352 196.625 313.862C196.625 313.373 184.32 314.042 184.32 314.042C184.32 314.042 180.72 310.622 178.02 313.322Z" fill="white" stroke="#263238" stroke-linecap="round" stroke-linejoin="round"/>
<path d="M184.32 314.042C184.32 314.042 185.22 322.142 185.76 322.682C186.3 323.222 197.64 323.222 197.64 323.222" fill="white"/>
<path d="M184.32 314.042C184.32 314.042 185.22 322.142 185.76 322.682C186.3 323.222 197.64 323.222 197.64 323.222" stroke="#263238" stroke-linecap="round" stroke-linejoin="round"/>
<path d="M197.64 319.262L185.04 319.442" stroke="#263238" stroke-linecap="round" stroke-linejoin="round"/>
<path d="M164.34 333.123H198.72" stroke="#263238" stroke-linecap="round" stroke-linejoin="round"/>
<path d="M168.631 211.86C168.631 211.86 168.386 233.043 169.603 242.05C170.82 251.057 175.449 271.995 176.177 283.435C176.904 294.876 178.128 300.24 178.128 300.24C178.128 300.24 176.4 301.68 176.4 303.12C176.4 304.56 177.372 304.56 177.12 306.778C176.868 308.995 175.903 309.694 176.637 310.673C177.372 311.652 177.854 313.589 180.288 314.079C182.721 314.568 194.162 314.323 196.596 313.834C199.029 313.344 200.246 310.911 200.246 308.967C200.246 307.023 199.526 305.561 199.526 303.365C199.526 301.169 200.743 299.232 200.743 297.771C200.743 296.309 200.253 295.575 200.253 294.113C200.253 292.651 197.093 269.287 197.093 264.42C197.093 259.553 196.848 242.993 197.575 238.853C198.302 234.713 201.96 214.999 201.96 214.999L168.631 211.86Z" fill="#6692D8" stroke="#263238" stroke-linecap="round" stroke-linejoin="round"/>
<path d="M184.061 219.002C186.952 219.994 189.966 220.583 193.018 220.752C195.362 220.817 197.7 221.036 200.016 221.407L201.326 215.287L184.061 219.002Z" fill="#263238" stroke="#263238" stroke-linecap="round" stroke-linejoin="round"/>
<path d="M181.389 220.054C181.389 220.054 182.585 253.505 184.989 264.658C187.394 275.81 190.562 294.127 189.77 296.518C188.978 298.908 187.776 304.481 187.776 304.481C187.776 304.481 192.161 303.689 192.161 306.072C192.161 308.455 185.789 310.061 187.38 311.256C188.971 312.451 190.555 313.762 190.555 313.762" stroke="#263238" stroke-linecap="round" stroke-linejoin="round"/>
<path d="M195.537 305.546C195.537 305.546 182.318 307.706 186.069 308.426C189.821 309.147 196.97 308.247 197.33 307.354C197.69 306.461 196.61 305.366 195.537 305.546Z" fill="#263238" stroke="#263238" stroke-linecap="round" stroke-linejoin="round"/>
<path d="M137.188 74.2679L136.821 89.2151L150.919 89.0927L151.041 74.1455L137.188 74.2679Z" fill="#6692D8"/>
<path d="M153.23 101.851C153.23 101.851 150.192 98.8128 148.853 96.0192C147.513 93.2256 145.577 91.5264 145.577 89.5824C145.577 87.6384 146.426 83.1024 146.059 81.3168C145.692 79.5312 146.059 75.7296 147.276 75.7296C147.558 75.7296 147.837 75.7936 148.092 75.9167C148.346 76.0399 148.569 76.219 148.744 76.4406C148.92 76.6623 149.043 76.9208 149.104 77.1967C149.165 77.4725 149.163 77.7587 149.097 78.0336C148.853 79.2504 149.817 83.5056 149.817 83.5056C149.817 83.5056 150.789 75.3625 150.912 74.8657C151.034 74.3689 152.733 74.376 153.468 74.7432C154.202 75.1104 155.045 74.9808 155.045 76.5648C155.045 78.1488 154.677 79.9632 154.677 80.3304C154.677 80.6976 158.083 82.6416 158.205 84.096C158.328 85.5504 157.961 89.0784 157.111 90.576C156.53 91.482 156.047 92.4475 155.671 93.456C155.549 93.9384 158.954 99.0432 158.954 99.0432L153.23 101.851Z" fill="white" stroke="#263238" stroke-linecap="round" stroke-linejoin="round"/>
<path d="M158.897 96.7175L150.617 103.046C150.617 103.046 164.736 132.257 165.225 133.2C165.715 134.143 175.932 140.508 175.932 140.508L191.268 121.514C191.268 121.514 172.037 115.43 171.554 114.703C171.072 113.976 158.897 96.7175 158.897 96.7175Z" fill="#263238" stroke="#263238" stroke-linecap="round" stroke-linejoin="round"/>
<path d="M168.66 204.062L167.94 215.402C167.94 215.402 177.3 219.362 187.38 219.182C197.46 219.002 210.96 215.042 210.96 215.042L212.94 203.882C212.94 203.882 188.64 205.862 181.26 205.142C173.88 204.422 168.66 204.062 168.66 204.062Z" fill="white" stroke="#263238" stroke-linecap="round" stroke-linejoin="round"/>
<path d="M161.46 200.462L160.92 203.702C160.92 203.702 168.545 207.864 185.4 209.462C195.773 210.419 206.233 209.318 216.18 206.222L216.36 200.642C207.396 202.779 198.215 203.867 189 203.882C179.73 203.642 170.507 202.497 161.46 200.462Z" fill="#263238" stroke="#263238" stroke-linecap="round" stroke-linejoin="round"/>
<path d="M175.14 133.502C175.14 133.502 169.2 143.942 167.22 152.042C165.24 160.142 161.28 197.582 160.74 199.742C160.2 201.902 172.8 206.222 181.08 206.402C189.36 206.582 207.9 206.942 211.14 205.682C214.38 204.422 217.44 202.622 217.44 200.642C217.44 198.662 217.62 191.282 217.62 185.342C217.62 179.402 215.82 148.082 214.2 140.882C212.58 133.682 211.5 128.642 210.96 127.742C210.42 126.842 206.46 122.522 198.36 123.062C192.038 123.528 185.894 125.371 180.36 128.462C178.307 129.784 176.533 131.497 175.14 133.502Z" fill="#263238" stroke="#263238" stroke-linecap="round" stroke-linejoin="round"/>
<path d="M120.852 145.138C120.852 145.138 117.929 146.354 117.684 149.278C117.439 152.201 122.803 155.117 125.964 159.502C129.125 163.886 133.265 168.48 133.265 168.48L139.601 177.242L147.146 170.914L127.67 148.32C127.67 148.32 128.642 146.16 127.425 145.397C126.402 144.92 125.293 144.652 124.165 144.607C123.036 144.563 121.91 144.743 120.852 145.138Z" fill="white" stroke="#263238" stroke-linecap="round" stroke-linejoin="round"/>
<path d="M121.341 151.956L143.28 144.648C143.28 144.648 144.72 150.739 151.308 157.068C155.258 160.874 159.492 164.373 163.973 167.537L144.252 178.733L121.341 151.956Z" fill="white" stroke="#263238" stroke-linecap="round" stroke-linejoin="round"/>
<path d="M121.342 151.956C122.308 150.872 122.903 149.507 123.041 148.061C123.106 147.393 122.921 146.724 122.522 146.184C122.123 145.644 121.539 145.272 120.881 145.138L142.546 138.809C142.546 138.809 146.686 140.249 143.266 144.648L121.342 151.956Z" fill="white" stroke="#263238" stroke-linecap="round" stroke-linejoin="round"/>
<path d="M150.372 175.104C150.372 175.104 145.504 174.384 145.26 172.944C145.015 171.504 144.043 168.322 143.1 167.105C142.156 165.888 137.498 163.454 136.036 161.748C134.575 160.042 133.603 157.608 132.631 157.853C131.659 158.098 130.197 159.07 130.68 160.013C131.162 160.956 133.358 165.132 133.358 165.132L133.848 166.831C133.848 166.831 129.463 166.111 128.736 165.859C128.524 165.799 128.3 165.792 128.084 165.838C127.869 165.885 127.668 165.983 127.5 166.125C127.331 166.268 127.2 166.449 127.118 166.654C127.036 166.858 127.006 167.08 127.029 167.299C127.029 168.516 126.057 168.516 127.274 169.243C128.491 169.97 129.953 170.95 129.953 170.95C129.953 170.95 131.659 174.845 132.113 175.572C132.566 176.299 136.497 178.013 137.224 178.495C137.952 178.978 141.854 180.202 143.798 180.655C145.742 181.109 150.127 182.851 150.127 182.851L151.344 177.25L150.372 175.104Z" fill="white" stroke="#263238" stroke-linecap="round" stroke-linejoin="round"/>
<path d="M201.981 141.509C201.981 141.509 201.492 162.202 201.492 163.174C201.492 164.146 202.212 184.111 200.052 185.81C197.892 187.51 187.149 189.706 171.569 189.223C155.988 188.741 149.169 185.328 149.169 185.328L150.386 175.104L180.086 172.944C180.086 172.944 176.925 150.307 177.408 142.517C177.89 134.726 184.226 130.586 184.226 130.586" fill="#263238"/>
<path d="M201.981 141.509C201.981 141.509 201.492 162.202 201.492 163.174C201.492 164.146 202.212 184.111 200.052 185.81C197.892 187.51 187.149 189.706 171.569 189.223C155.988 188.741 149.169 185.328 149.169 185.328L150.386 175.104L180.086 172.944C180.086 172.944 176.925 150.307 177.408 142.517C177.89 134.726 184.226 130.586 184.226 130.586" stroke="#263238" stroke-linecap="round" stroke-linejoin="round"/>
<path d="M169.2 190.13C169.2 190.13 198.677 191.16 200.232 187.538C201.787 183.917 201.78 148.234 201.78 148.234" stroke="#707070" stroke-linecap="round" stroke-linejoin="round"/>
<path d="M182.16 134.784C182.16 134.784 175.946 141.509 176.983 150.3C178.02 159.091 180.094 172.908 180.094 172.908L168.71 173.578" stroke="#707070" stroke-linecap="round" stroke-linejoin="round"/>
<path d="M169.582 78.5665C169.582 78.5665 165.499 85.6297 166.284 86.5657C167.069 87.5017 166.442 89.2369 166.442 89.2369C166.442 89.2369 162.36 92.3761 162.677 93.4705C162.994 94.5649 166.277 97.5529 166.277 97.5529C166.277 97.5529 166.903 106.027 167.717 106.812C168.53 107.597 173.837 108.533 174.917 108.691C175.513 108.765 176.095 108.925 176.645 109.166L179.777 126.108L197.352 110.268L194.529 102.737C194.529 102.737 192.96 92.6569 193.089 87.9913C193.219 83.3257 185.083 77.6305 180.223 76.2193C175.363 74.8081 169.582 78.5665 169.582 78.5665Z" fill="white" stroke="#263238" stroke-linecap="round" stroke-linejoin="round"/>
<path d="M172.872 68.9904C172.872 68.9904 168.796 64.7568 163.929 68.0544C159.062 71.352 160.48 76.6944 164.872 78.5664C169.264 80.4384 174.441 79.0344 172.72 80.9208C171 82.8072 170.56 86.8824 173.188 87.6672C175.816 88.452 175.384 91.4328 175.384 92.7072C175.384 93.9816 177.544 93.8088 178.056 92.7072C178.567 91.6056 179.776 88.632 182.757 89.8848C185.738 91.1376 185.587 98.0424 184.485 99.7704C183.384 101.498 182.289 101.34 182.289 101.34C182.289 101.34 184.017 101.966 182.916 104.004L181.821 106.049C181.821 106.049 184.327 109.03 190.605 107.928C196.884 106.826 198.295 104.004 197.352 101.657C196.408 99.3096 194.212 98.9856 196.567 95.5368C198.921 92.088 204.732 87.9984 204.256 80.1576C203.947 74.9808 191.707 70.0776 191.707 70.0776C191.707 70.0776 194.529 65.3688 188.107 62.388C181.684 59.4072 174.304 62.8632 174.772 65.988C175.24 69.1128 172.872 68.9904 172.872 68.9904Z" fill="#263238" stroke="#263238" stroke-linecap="round" stroke-linejoin="round"/>
<path d="M166.24 86.0039C166.24 86.0039 164.246 85.4711 164.08 86.4143C163.915 87.3575 164.08 92.0591 164.08 92.0591C164.782 92.4957 165.618 92.6645 166.435 92.5343C167.536 92.2175 166.903 88.2935 166.903 88.2935" stroke="#263238" stroke-linecap="round" stroke-linejoin="round"/>
<path d="M178.682 91.2744L164.232 88.884L164.246 87.9768L178.682 91.2744Z" fill="#263238" stroke="#263238" stroke-linecap="round" stroke-linejoin="round"/>
<path d="M199.397 105.401C199.397 105.401 191.39 111.204 185.897 117.166C180.403 123.127 173.815 129.722 173.52 131.76C173.225 133.798 173.829 136.937 176.969 133.639C180.108 130.342 185.911 125.957 190.31 125.64C194.709 125.323 201.449 127.526 204.897 127.994C208.346 128.462 210.549 129.434 211.802 127.526C213.055 125.618 209.765 121.406 209.765 119.203C209.765 117 210.233 113.242 208.663 110.563C207.093 107.885 202.061 104.616 199.397 105.401Z" fill="#757575" stroke="#263238" stroke-linecap="round" stroke-linejoin="round"/>
<path d="M209.65 113.17C209.204 114.694 208.596 116.167 207.835 117.562C206.921 118.922 194.054 121.5 194.054 121.5C194.054 121.5 204.653 120.895 206.618 120.895C208.584 120.895 210.859 122.71 210.859 122.71L209.801 119.83C209.801 119.83 210.24 114.538 209.65 113.17Z" fill="#263238" stroke="#263238" stroke-linecap="round" stroke-linejoin="round"/>
<path d="M23.04 334.8H352.08" stroke="#263238" stroke-linecap="round" stroke-linejoin="round"/>
</svg>
