<svg width="418" height="320" viewBox="0 0 418 320" fill="none" xmlns="http://www.w3.org/2000/svg">
<path d="M293.644 29.5601L160.736 2.29911C157.238 1.58163 153.821 3.83567 153.103 7.33364L99.2993 269.647C98.5818 273.145 100.836 276.563 104.334 277.28L237.241 304.541C240.739 305.258 244.157 303.004 244.874 299.506L298.678 37.1928C299.396 33.6949 297.142 30.2776 293.644 29.5601Z" fill="white" stroke="#263238" stroke-width="2" stroke-linecap="round" stroke-linejoin="round"/>
<path d="M287.311 59.7216L154.676 32.5165L110.66 247.109L243.295 274.314L287.311 59.7216Z" fill="#263238"/>
<path opacity="0.3" d="M258.092 202.218L119.651 248.961L243.302 274.324L258.092 202.218Z" fill="white"/>
<path d="M287.311 59.7216L154.676 32.5165L110.66 247.109L243.295 274.314L287.311 59.7216Z" stroke="#263238" stroke-linecap="round" stroke-linejoin="round"/>
<path d="M238.49 34.064L209.654 28.1494C209.133 28.0401 208.676 27.7287 208.383 27.2833C208.091 26.8378 207.987 26.2947 208.094 25.7727C208.203 25.2526 208.513 24.7966 208.957 24.504C209.4 24.2114 209.941 24.1059 210.462 24.2105L239.298 30.1251C239.82 30.2322 240.279 30.5417 240.573 30.9859C240.867 31.4301 240.974 31.9728 240.869 32.4952C240.761 33.0187 240.45 33.478 240.004 33.7722C239.558 34.0664 239.014 34.1714 238.49 34.064Z" fill="#263238"/>
<path d="M182.361 274.448C182.682 272.891 182.534 271.275 181.936 269.802C181.338 268.33 180.316 267.068 179.001 266.176C177.685 265.284 176.135 264.803 174.546 264.792C172.957 264.782 171.4 265.243 170.073 266.117C168.746 266.991 167.708 268.24 167.09 269.704C166.473 271.168 166.304 272.783 166.604 274.344C166.904 275.904 167.661 277.341 168.778 278.471C169.895 279.602 171.322 280.376 172.879 280.695C174.964 281.123 177.135 280.705 178.912 279.534C180.69 278.362 181.931 276.533 182.361 274.448Z" fill="white" stroke="#263238" stroke-width="0.704333" stroke-miterlimit="10"/>
<path d="M179.298 269.663L171.329 268.029L169.695 275.998L177.663 277.632L179.298 269.663Z" fill="#263238"/>
<path d="M236.811 72.4163L196.109 64.0678C194.261 63.689 192.457 64.8791 192.078 66.7262L183.233 109.848C182.855 111.695 184.045 113.499 185.892 113.878L226.594 122.227C228.441 122.606 230.245 121.415 230.624 119.568L239.469 76.4466C239.848 74.5996 238.658 72.7952 236.811 72.4163Z" fill="#6692D8"/>
<path opacity="0.22" d="M184.496 103.696L183.236 109.84C183.145 110.279 183.141 110.733 183.225 111.174C183.309 111.615 183.48 112.035 183.726 112.41C183.973 112.785 184.292 113.108 184.663 113.36C185.035 113.612 185.453 113.788 185.893 113.878L226.587 122.225C227.475 122.405 228.398 122.225 229.154 121.725C229.91 121.225 230.437 120.446 230.619 119.558L238.898 79.1948C219.101 83.0059 200.47 91.3966 184.496 103.696Z" fill="black"/>
<path d="M232.124 94.1379L228.565 93.4079C228.587 92.5351 228.538 91.6619 228.421 90.7968L231.865 89.6531C231.949 89.6259 232.027 89.582 232.094 89.5243C232.161 89.4665 232.216 89.3959 232.256 89.3167C232.295 89.2375 232.318 89.1511 232.324 89.0628C232.33 88.9745 232.318 88.8859 232.289 88.8022L230.692 84.0001C230.634 83.8304 230.511 83.6906 230.35 83.6109C230.189 83.5313 230.004 83.5181 229.833 83.5743L226.389 84.7179C225.969 83.9728 225.497 83.2578 224.978 82.5783L227.385 79.8624C227.504 79.7278 227.565 79.5519 227.555 79.3727C227.545 79.1936 227.465 79.0255 227.332 78.9049L223.546 75.5468C223.48 75.4873 223.404 75.4415 223.32 75.412C223.237 75.3825 223.148 75.3699 223.06 75.375C222.971 75.3801 222.885 75.4028 222.805 75.4417C222.726 75.4806 222.655 75.535 222.597 75.6017L220.189 78.3177C219.453 77.8738 218.684 77.4886 217.887 77.1657L218.617 73.6066C218.653 73.4314 218.618 73.2491 218.52 73.0998C218.421 72.9505 218.267 72.8464 218.092 72.8105L213.138 71.7942C213.05 71.7752 212.96 71.7737 212.872 71.7897C212.785 71.8058 212.701 71.8392 212.626 71.8878C212.551 71.9365 212.487 71.9996 212.436 72.0734C212.386 72.1472 212.351 72.2302 212.333 72.3176L211.603 75.8767C210.747 75.8606 209.89 75.9122 209.042 76.0311L207.898 72.5868C207.87 72.5022 207.825 72.4239 207.767 72.3566C207.708 72.2892 207.637 72.2342 207.557 72.1946C207.477 72.155 207.39 72.1316 207.301 72.1259C207.212 72.1201 207.123 72.1321 207.039 72.161L202.245 73.7593C202.075 73.8178 201.935 73.9408 201.856 74.1016C201.776 74.2624 201.763 74.4481 201.819 74.6185L202.943 78.0759C202.196 78.4934 201.481 78.9651 200.803 79.4871L198.12 77.0868C197.986 76.968 197.81 76.907 197.631 76.917C197.451 76.9269 197.283 77.007 197.163 77.1399L193.805 80.9258C193.745 80.9919 193.7 81.0692 193.671 81.1531C193.642 81.237 193.63 81.3259 193.636 81.4145C193.642 81.5031 193.665 81.5897 193.705 81.669C193.745 81.7484 193.8 81.819 193.868 81.8767L196.576 84.2822C196.133 85.0339 195.748 85.8178 195.423 86.6274L191.873 85.899C191.697 85.8631 191.515 85.8982 191.366 85.9967C191.216 86.0952 191.112 86.2489 191.076 86.4242L190.06 91.3788C190.041 91.466 190.04 91.5561 190.056 91.6439C190.072 91.7317 190.105 91.8155 190.154 91.8903C190.202 91.9651 190.266 92.0296 190.339 92.0798C190.413 92.1301 190.496 92.1652 190.584 92.1831L194.143 92.9131C194.128 93.7689 194.177 94.6245 194.289 95.473L190.853 96.6183C190.768 96.6455 190.689 96.6894 190.621 96.7474C190.552 96.8054 190.497 96.8764 190.456 96.9562C190.416 97.036 190.392 97.1231 190.385 97.2123C190.379 97.3015 190.39 97.3911 190.419 97.4759L192.017 102.27C192.076 102.439 192.198 102.579 192.359 102.659C192.52 102.739 192.706 102.752 192.876 102.696L196.32 101.552C196.723 102.293 197.182 103.003 197.692 103.675L195.285 106.391C195.166 106.525 195.105 106.701 195.115 106.88C195.125 107.06 195.205 107.228 195.338 107.348L199.116 110.705C199.182 110.764 199.26 110.81 199.345 110.839C199.429 110.868 199.519 110.88 199.608 110.875C199.697 110.869 199.785 110.846 199.865 110.806C199.945 110.766 200.016 110.711 200.075 110.643L202.48 107.935C203.216 108.372 203.984 108.754 204.776 109.077L204.046 112.637C204.028 112.724 204.028 112.814 204.045 112.902C204.062 112.989 204.096 113.073 204.146 113.147C204.196 113.221 204.259 113.285 204.334 113.334C204.408 113.383 204.492 113.418 204.579 113.434L209.534 114.451C209.709 114.487 209.892 114.451 210.041 114.353C210.19 114.254 210.294 114.101 210.33 113.925L211.06 110.366C211.919 110.382 212.777 110.333 213.628 110.222L214.774 113.658C214.8 113.743 214.843 113.821 214.9 113.889C214.958 113.957 215.028 114.013 215.107 114.053C215.186 114.093 215.273 114.117 215.361 114.124C215.45 114.13 215.539 114.119 215.623 114.09L220.425 112.494C220.595 112.435 220.734 112.312 220.814 112.152C220.894 111.991 220.907 111.805 220.851 111.635L219.732 108.195C220.479 107.778 221.194 107.306 221.871 106.784L224.587 109.191C224.722 109.31 224.898 109.371 225.077 109.361C225.256 109.351 225.424 109.271 225.545 109.138L228.901 105.361C228.961 105.294 229.007 105.217 229.037 105.133C229.067 105.049 229.079 104.96 229.075 104.871C229.07 104.782 229.047 104.694 229.008 104.614C228.969 104.534 228.915 104.462 228.848 104.403L226.132 101.996C226.575 101.263 226.96 100.496 227.282 99.702L230.842 100.432C230.929 100.45 231.019 100.45 231.107 100.433C231.194 100.416 231.278 100.382 231.352 100.332C231.426 100.282 231.49 100.219 231.539 100.144C231.588 100.07 231.622 99.9863 231.639 99.8986L232.656 94.944C232.675 94.8561 232.676 94.7652 232.66 94.6767C232.643 94.5883 232.609 94.504 232.56 94.4289C232.51 94.3537 232.446 94.2893 232.371 94.2393C232.296 94.1894 232.212 94.1549 232.124 94.1379ZM208.53 106.887C205.809 106.331 203.315 104.98 201.363 103.006C199.41 101.032 198.087 98.523 197.561 95.7967C197.034 93.0704 197.329 90.2493 198.406 87.6902C199.483 85.1311 201.296 82.9492 203.614 81.4203C205.931 79.8915 208.651 79.0845 211.427 79.1015C214.204 79.1184 216.913 79.9586 219.212 81.5156C221.511 83.0726 223.296 85.2766 224.343 87.8486C225.389 90.4207 225.648 93.2452 225.089 95.9649C224.719 97.7693 223.997 99.4832 222.964 101.009C221.932 102.534 220.609 103.841 219.071 104.856C217.534 105.87 215.811 106.571 214.003 106.92C212.194 107.268 210.334 107.257 208.53 106.887Z" fill="#263238"/>
<path d="M248.866 176.128L144.208 154.661C143.082 154.43 142.094 153.762 141.462 152.802C140.829 151.843 140.603 150.672 140.834 149.546C141.065 148.42 141.734 147.433 142.693 146.8C143.652 146.167 144.823 145.941 145.949 146.172L250.607 167.639C251.733 167.87 252.721 168.539 253.353 169.498C253.986 170.457 254.212 171.628 253.981 172.754C253.75 173.88 253.081 174.868 252.122 175.5C251.163 176.133 249.991 176.359 248.866 176.128Z" fill="white" stroke="#263238" stroke-miterlimit="10"/>
<path d="M221.382 161.61L145.956 146.139C144.826 145.907 143.65 146.134 142.687 146.769C141.724 147.404 141.053 148.396 140.821 149.526C140.59 150.656 140.816 151.832 141.451 152.795C142.087 153.758 143.078 154.429 144.208 154.661L219.642 170.134L221.382 161.61Z" fill="#6692D8" stroke="#263238" stroke-miterlimit="10"/>
<path d="M237.532 161.153C237.307 161.001 237.13 160.789 237.021 160.541C236.908 160.278 236.884 159.987 236.951 159.709C237.006 159.41 237.162 159.138 237.392 158.939C237.632 158.735 237.939 158.629 238.254 158.643C237.975 158.538 237.747 158.331 237.615 158.064C237.52 157.843 237.485 157.601 237.514 157.362C237.544 157.123 237.636 156.896 237.782 156.704C237.9 156.555 238.051 156.436 238.223 156.356C238.401 156.279 238.591 156.234 238.785 156.222C238.995 156.205 239.206 156.22 239.413 156.264C239.695 156.317 239.965 156.422 240.21 156.574C240.424 156.713 240.595 156.909 240.704 157.14C240.812 157.389 240.836 157.665 240.775 157.929C240.733 158.213 240.587 158.471 240.365 158.653C240.143 158.835 239.861 158.928 239.575 158.914C239.865 159.025 240.103 159.24 240.245 159.517C240.387 159.794 240.422 160.113 240.343 160.413C240.295 160.695 240.157 160.954 239.951 161.15C239.752 161.336 239.506 161.461 239.24 161.512C238.955 161.557 238.665 161.55 238.383 161.492C238.08 161.437 237.79 161.322 237.532 161.153ZM239.294 160.955C239.419 160.89 239.527 160.797 239.609 160.682C239.69 160.567 239.744 160.434 239.765 160.295C239.802 160.154 239.806 160.006 239.777 159.863C239.748 159.72 239.687 159.585 239.599 159.469C239.405 159.245 239.143 159.092 238.853 159.032C238.564 158.973 238.262 159.011 237.997 159.141C237.872 159.215 237.765 159.316 237.684 159.436C237.603 159.556 237.549 159.693 237.527 159.836C237.491 159.972 237.488 160.115 237.518 160.253C237.548 160.391 237.611 160.519 237.7 160.629C237.901 160.838 238.161 160.982 238.446 161.04C238.731 161.099 239.026 161.069 239.294 160.955ZM239.814 158.42C239.927 158.358 240.024 158.271 240.098 158.165C240.171 158.059 240.22 157.938 240.24 157.811C240.27 157.691 240.271 157.565 240.243 157.444C240.216 157.324 240.16 157.211 240.081 157.116C239.891 156.909 239.638 156.772 239.361 156.727C239.183 156.69 239.001 156.684 238.822 156.711C238.654 156.737 238.497 156.813 238.373 156.929C238.232 157.057 238.139 157.229 238.109 157.417C238.076 157.541 238.072 157.671 238.097 157.797C238.122 157.923 238.175 158.041 238.253 158.143C238.457 158.342 238.714 158.479 238.994 158.536C239.274 158.593 239.564 158.569 239.83 158.467L239.814 158.42Z" fill="white"/>
<path d="M241.817 162.041C241.637 161.917 241.491 161.751 241.391 161.558C241.29 161.359 241.224 161.144 241.194 160.924C241.166 160.677 241.159 160.428 241.174 160.18C241.202 159.899 241.245 159.621 241.302 159.345C241.358 159.069 241.431 158.797 241.521 158.53C241.603 158.295 241.707 158.069 241.832 157.853C241.947 157.66 242.093 157.486 242.264 157.34C242.434 157.209 242.632 157.12 242.843 157.08C243.333 156.986 243.841 157.09 244.255 157.369C244.432 157.489 244.579 157.649 244.684 157.836C244.784 158.038 244.85 158.255 244.879 158.479C244.916 158.725 244.923 158.975 244.899 159.223C244.877 159.503 244.837 159.783 244.779 160.058C244.747 160.281 244.702 160.502 244.643 160.719C244.577 160.92 244.5 161.117 244.411 161.308C244.329 161.484 244.223 161.648 244.096 161.794C243.981 161.933 243.846 162.053 243.696 162.151C243.538 162.248 243.361 162.308 243.177 162.329C242.964 162.357 242.748 162.347 242.538 162.301C242.281 162.268 242.035 162.179 241.817 162.041ZM242.996 161.87C243.114 161.846 243.226 161.798 243.326 161.731C243.424 161.656 243.513 161.57 243.593 161.476C243.669 161.368 243.738 161.256 243.8 161.14C243.863 161.014 243.915 160.884 243.957 160.75C244.005 160.621 244.047 160.488 244.081 160.354C244.107 160.23 244.132 160.107 244.161 159.966C244.19 159.826 244.23 159.628 244.261 159.479C244.291 159.33 244.325 159.165 244.311 158.982C244.319 158.818 244.31 158.655 244.282 158.494C244.253 158.353 244.212 158.215 244.16 158.082C244.101 157.953 244.012 157.841 243.901 157.753C243.776 157.663 243.633 157.601 243.482 157.572C243.354 157.543 243.222 157.543 243.095 157.57C242.978 157.59 242.866 157.635 242.767 157.701C242.669 157.77 242.582 157.854 242.509 157.949C242.427 158.051 242.356 158.16 242.296 158.276C242.237 158.405 242.184 158.538 242.137 158.673C242.087 158.809 242.045 158.946 242.01 159.086C241.982 159.218 241.954 159.358 241.923 159.507C241.893 159.656 241.867 159.78 241.844 159.895C241.822 160.035 241.808 160.175 241.8 160.317C241.787 160.456 241.784 160.596 241.791 160.736C241.798 160.866 241.818 160.994 241.851 161.119C241.878 161.242 241.926 161.36 241.995 161.467C242.06 161.562 242.142 161.646 242.236 161.714C242.346 161.789 242.47 161.841 242.601 161.866C242.731 161.894 242.865 161.895 242.996 161.87Z" fill="white"/>
<path d="M246.328 160.222C246.181 159.898 246.141 159.535 246.212 159.187C246.284 158.838 246.464 158.521 246.726 158.281C246.852 158.18 246.998 158.109 247.155 158.071C247.311 158.033 247.474 158.03 247.632 158.062C247.869 158.105 248.086 158.222 248.252 158.396C248.404 158.557 248.509 158.757 248.555 158.975C248.598 159.205 248.597 159.441 248.55 159.671C248.489 160.024 248.301 160.344 248.021 160.569C247.887 160.668 247.733 160.738 247.57 160.775C247.407 160.811 247.238 160.812 247.075 160.778C246.911 160.745 246.756 160.677 246.621 160.58C246.485 160.482 246.371 160.358 246.287 160.213L246.328 160.222ZM247.551 160.429C247.659 160.391 247.756 160.325 247.831 160.237C247.903 160.141 247.967 160.039 248.023 159.933C248.06 159.817 248.084 159.698 248.096 159.577C248.133 159.459 248.158 159.338 248.17 159.214C248.162 159.097 248.142 158.98 248.112 158.867C248.078 158.757 248.015 158.658 247.93 158.58C247.834 158.503 247.721 158.451 247.6 158.426C247.48 158.401 247.355 158.405 247.236 158.437C247.128 158.476 247.031 158.542 246.956 158.63C246.883 158.721 246.822 158.821 246.774 158.928C246.719 159.04 246.68 159.16 246.659 159.283C246.631 159.402 246.62 159.524 246.627 159.646C246.628 159.764 246.647 159.882 246.685 159.994C246.717 160.105 246.78 160.205 246.867 160.281C246.955 160.366 247.066 160.422 247.187 160.441C247.3 160.464 247.416 160.458 247.526 160.424L247.551 160.429ZM246.576 163.293C246.56 163.273 246.549 163.25 246.543 163.225C246.538 163.2 246.539 163.174 246.546 163.149C246.544 163.123 246.549 163.098 246.561 163.075L250.446 158.648C250.47 158.613 250.505 158.585 250.545 158.568C250.585 158.552 250.629 158.548 250.671 158.557C250.696 158.561 250.72 158.571 250.741 158.586C250.762 158.6 250.779 158.619 250.792 158.642C250.808 158.663 250.819 158.688 250.824 158.715C250.829 158.741 250.828 158.768 250.821 158.794C250.824 158.828 250.816 158.863 250.8 158.893L246.897 163.324C246.877 163.351 246.85 163.371 246.818 163.382C246.787 163.392 246.753 163.393 246.721 163.383C246.689 163.38 246.658 163.37 246.63 163.354C246.603 163.337 246.578 163.316 246.56 163.29L246.576 163.293ZM249.153 163.314C249.008 162.991 248.968 162.631 249.04 162.284C249.111 161.937 249.289 161.621 249.55 161.382C249.68 161.273 249.833 161.197 249.998 161.159C250.163 161.121 250.334 161.123 250.498 161.163C250.735 161.206 250.952 161.323 251.118 161.497C251.27 161.661 251.374 161.864 251.419 162.084C251.461 162.311 251.457 162.544 251.408 162.77C251.346 163.121 251.162 163.44 250.888 163.67C250.754 163.772 250.601 163.844 250.437 163.882C250.274 163.919 250.104 163.921 249.939 163.887C249.775 163.854 249.62 163.785 249.484 163.686C249.348 163.587 249.236 163.46 249.153 163.314ZM250.376 163.522C250.485 163.48 250.583 163.411 250.658 163.321C250.731 163.23 250.792 163.13 250.84 163.023C250.894 162.914 250.933 162.797 250.954 162.676C250.982 162.555 250.994 162.429 250.987 162.305C250.985 162.188 250.968 162.072 250.937 161.959C250.9 161.85 250.838 161.752 250.755 161.672C250.659 161.595 250.546 161.543 250.425 161.518C250.305 161.493 250.18 161.497 250.062 161.53C249.954 161.571 249.858 161.636 249.781 161.722C249.709 161.814 249.649 161.914 249.6 162.02C249.548 162.134 249.509 162.253 249.484 162.375C249.46 162.495 249.45 162.616 249.452 162.738C249.453 162.857 249.472 162.974 249.51 163.086C249.541 163.199 249.603 163.302 249.69 163.381C249.781 163.461 249.893 163.514 250.012 163.533C250.133 163.566 250.261 163.566 250.382 163.532L250.376 163.522Z" fill="white"/>
<path d="M148.395 141.967C148.339 141.886 148.302 141.794 148.285 141.697C148.267 141.6 148.271 141.5 148.296 141.405L149.432 135.864C149.447 135.766 149.483 135.673 149.537 135.591C149.591 135.509 149.662 135.439 149.745 135.386C149.822 135.335 149.908 135.3 149.999 135.283C150.09 135.266 150.183 135.268 150.273 135.288C150.455 135.325 150.616 135.432 150.72 135.586C150.775 135.667 150.813 135.759 150.83 135.856C150.848 135.953 150.844 136.053 150.819 136.148L149.683 141.689C149.668 141.787 149.632 141.88 149.578 141.962C149.524 142.045 149.453 142.114 149.37 142.167C149.211 142.269 149.018 142.303 148.834 142.264C148.744 142.246 148.659 142.211 148.584 142.16C148.509 142.109 148.445 142.044 148.395 141.967Z" fill="white"/>
<path d="M151.245 142.586C151.199 142.507 151.169 142.419 151.157 142.328C151.144 142.237 151.15 142.144 151.174 142.055L151.907 138.48C151.919 138.396 151.949 138.317 151.995 138.246C152.041 138.175 152.101 138.115 152.172 138.069C152.317 137.984 152.488 137.958 152.652 137.996C152.81 138.025 152.951 138.113 153.049 138.241C153.095 138.311 153.125 138.39 153.138 138.472C153.151 138.555 153.146 138.64 153.123 138.72L153.089 138.886C153.284 138.648 153.547 138.477 153.843 138.395C154.177 138.308 154.526 138.303 154.862 138.38C155.084 138.426 155.297 138.51 155.49 138.63C155.678 138.747 155.842 138.897 155.976 139.073C156.111 139.272 156.2 139.499 156.236 139.738C156.277 140.022 156.268 140.311 156.206 140.592L155.715 142.987C155.702 143.078 155.671 143.165 155.624 143.244C155.576 143.323 155.514 143.392 155.44 143.447C155.37 143.493 155.291 143.524 155.208 143.538C155.125 143.552 155.04 143.549 154.959 143.529C154.879 143.515 154.802 143.484 154.735 143.439C154.667 143.394 154.609 143.336 154.565 143.267C154.478 143.105 154.455 142.916 154.501 142.738L154.993 140.343C155.066 140.067 155.031 139.773 154.894 139.523C154.826 139.418 154.736 139.329 154.632 139.26C154.528 139.192 154.411 139.145 154.288 139.123C154.13 139.094 153.968 139.099 153.812 139.136C153.656 139.174 153.51 139.244 153.382 139.342C153.085 139.564 152.885 139.893 152.824 140.26L152.404 142.308C152.392 142.398 152.363 142.486 152.317 142.565C152.271 142.645 152.21 142.714 152.137 142.769C152.068 142.815 151.991 142.846 151.909 142.86C151.828 142.874 151.744 142.872 151.664 142.853C151.579 142.841 151.498 142.811 151.426 142.765C151.354 142.719 151.292 142.658 151.245 142.586Z" fill="white"/>
<path d="M156.817 143.067C156.826 143.015 156.845 142.965 156.874 142.921C156.902 142.876 156.939 142.838 156.982 142.808C157.025 142.775 157.075 142.751 157.128 142.74C157.181 142.728 157.236 142.729 157.288 142.742C157.376 142.761 157.456 142.804 157.521 142.867L157.83 143.12C157.951 143.207 158.08 143.282 158.215 143.345C158.388 143.438 158.574 143.505 158.767 143.544C158.936 143.582 159.11 143.598 159.283 143.59C159.429 143.588 159.572 143.545 159.695 143.468C159.757 143.43 159.81 143.379 159.85 143.319C159.891 143.259 159.918 143.191 159.93 143.12C159.988 142.839 159.804 142.604 159.38 142.405L158.661 142.051L158.14 141.78C158.004 141.696 157.873 141.603 157.749 141.502C157.632 141.418 157.537 141.307 157.471 141.179C157.408 141.062 157.367 140.933 157.351 140.801C157.33 140.636 157.338 140.469 157.375 140.307C157.407 140.103 157.492 139.911 157.622 139.751C157.751 139.59 157.921 139.466 158.113 139.391C158.589 139.226 159.102 139.203 159.59 139.324C160.139 139.437 160.655 139.672 161.101 140.013C161.173 140.059 161.229 140.126 161.262 140.205C161.295 140.284 161.303 140.371 161.286 140.455C161.276 140.504 161.257 140.551 161.23 140.593C161.202 140.634 161.166 140.67 161.124 140.697C161.085 140.727 161.039 140.747 160.991 140.756C160.943 140.766 160.893 140.764 160.846 140.752C160.78 140.74 160.718 140.713 160.665 140.672L160.557 140.65L160.427 140.572L160.28 140.49L160.102 140.393L159.912 140.354L159.689 140.308L159.466 140.263C159.252 140.212 159.029 140.211 158.813 140.258C158.742 140.272 158.675 140.304 158.619 140.351C158.563 140.398 158.519 140.459 158.492 140.527C158.465 140.595 158.456 140.669 158.465 140.741C158.474 140.814 158.501 140.883 158.544 140.942C158.691 141.078 158.861 141.185 159.046 141.261L159.761 141.596C160.158 141.764 160.509 142.025 160.784 142.357C160.883 142.501 160.951 142.665 160.981 142.838C161.011 143.01 161.003 143.187 160.957 143.356C160.925 143.578 160.836 143.788 160.7 143.967C160.564 144.145 160.385 144.286 160.18 144.376C159.707 144.57 159.183 144.608 158.687 144.483C158.005 144.365 157.38 144.032 156.903 143.532C156.839 143.474 156.796 143.398 156.781 143.314C156.765 143.23 156.778 143.143 156.817 143.067Z" fill="white"/>
<path d="M162.474 144.691C162.279 144.314 162.233 143.878 162.346 143.469L162.854 140.992L162.383 140.895C162.325 140.889 162.269 140.871 162.218 140.842C162.168 140.812 162.125 140.773 162.091 140.725C162.057 140.677 162.035 140.623 162.024 140.565C162.014 140.508 162.016 140.449 162.03 140.392C162.038 140.339 162.056 140.287 162.085 140.241C162.114 140.195 162.152 140.156 162.197 140.125C162.247 140.095 162.302 140.076 162.36 140.069C162.418 140.061 162.477 140.066 162.532 140.082L163.044 140.187L163.43 139.019C163.474 138.861 163.569 138.723 163.7 138.627C163.765 138.579 163.84 138.546 163.919 138.531C163.998 138.516 164.079 138.519 164.157 138.54C164.219 138.55 164.279 138.574 164.331 138.61C164.383 138.646 164.427 138.693 164.458 138.748C164.516 138.889 164.526 139.045 164.488 139.193L164.234 140.431L165.018 140.592C165.075 140.598 165.131 140.618 165.18 140.649C165.228 140.68 165.27 140.721 165.3 140.77C165.329 140.818 165.348 140.87 165.356 140.925C165.364 140.98 165.361 141.036 165.346 141.09C165.339 141.144 165.321 141.195 165.292 141.241C165.263 141.287 165.225 141.327 165.18 141.357C165.13 141.387 165.074 141.407 165.016 141.414C164.958 141.422 164.9 141.417 164.844 141.4L164.068 141.241L163.615 143.445C163.555 143.68 163.546 143.924 163.589 144.163C163.613 144.244 163.661 144.316 163.727 144.371C163.792 144.426 163.871 144.46 163.956 144.47L164.014 144.482L164.352 144.552C164.412 144.56 164.469 144.582 164.519 144.616C164.569 144.65 164.61 144.695 164.639 144.748C164.7 144.853 164.718 144.977 164.688 145.094C164.688 145.165 164.673 145.235 164.646 145.3C164.607 145.353 164.554 145.393 164.493 145.415L164.303 145.462C164.223 145.476 164.142 145.477 164.062 145.464L163.806 145.412L163.418 145.332C163.223 145.3 163.038 145.227 162.875 145.116C162.712 145.005 162.575 144.86 162.474 144.691Z" fill="white"/>
<path d="M165.7 145.405C165.57 145.254 165.478 145.075 165.432 144.881C165.386 144.687 165.388 144.485 165.438 144.292C165.469 144.119 165.524 143.951 165.601 143.792C165.664 143.664 165.749 143.548 165.852 143.448C165.953 143.349 166.077 143.277 166.213 143.238C166.363 143.192 166.516 143.16 166.672 143.143C166.866 143.129 167.061 143.132 167.255 143.151C167.487 143.198 167.718 143.203 167.959 143.243L168.785 143.413L168.861 143.041C168.903 142.93 168.919 142.811 168.907 142.693C168.896 142.575 168.857 142.461 168.795 142.36C168.733 142.259 168.648 142.174 168.547 142.111C168.447 142.048 168.333 142.009 168.215 141.997L168.025 141.958L167.835 141.919L167.67 141.885L167.48 141.889L167.323 141.9L167.156 141.917L167.013 141.939L166.871 141.962L166.755 141.981C166.71 141.982 166.665 141.973 166.623 141.954C166.567 141.942 166.514 141.917 166.469 141.881C166.424 141.844 166.389 141.798 166.365 141.746C166.308 141.64 166.29 141.518 166.315 141.4C166.326 141.328 166.359 141.261 166.41 141.208C166.461 141.155 166.527 141.119 166.599 141.106C167.211 140.965 167.846 140.963 168.459 141.1C168.739 141.15 169.01 141.241 169.265 141.369C169.48 141.477 169.671 141.628 169.828 141.811C169.985 142.002 170.089 142.231 170.13 142.475C170.177 142.76 170.17 143.05 170.11 143.332L169.601 145.809C169.59 145.894 169.56 145.975 169.514 146.047C169.468 146.12 169.407 146.181 169.335 146.228C169.205 146.309 169.048 146.336 168.898 146.302C168.745 146.274 168.608 146.187 168.517 146.06C168.471 145.989 168.44 145.908 168.428 145.824C168.416 145.74 168.421 145.654 168.445 145.572L168.478 145.415C168.324 145.639 168.106 145.81 167.852 145.906C167.545 146.017 167.212 146.032 166.896 145.951C166.446 145.915 166.023 145.721 165.7 145.405ZM168.064 145.081C168.214 144.978 168.341 144.846 168.439 144.693C168.537 144.541 168.603 144.37 168.634 144.191L168.663 144.05L167.895 143.893C167.714 143.863 167.531 143.843 167.348 143.832C167.213 143.821 167.076 143.84 166.949 143.888C166.856 143.933 166.775 143.998 166.712 144.08C166.635 144.186 166.583 144.308 166.561 144.437C166.535 144.53 166.53 144.628 166.546 144.724C166.562 144.819 166.599 144.91 166.655 144.989C166.776 145.14 166.948 145.24 167.139 145.27C167.298 145.303 167.462 145.304 167.621 145.272C167.781 145.239 167.931 145.174 168.064 145.081Z" fill="white"/>
<path d="M170.907 146.619C170.821 146.453 170.799 146.262 170.845 146.081L171.997 140.466C172.024 140.28 172.124 140.111 172.274 139.998C172.341 139.952 172.417 139.92 172.497 139.906C172.577 139.891 172.66 139.893 172.739 139.912C172.822 139.926 172.901 139.957 172.971 140.002C173.042 140.048 173.102 140.107 173.149 140.177C173.242 140.341 173.268 140.535 173.219 140.717L172.067 146.332C172.055 146.424 172.024 146.512 171.975 146.591C171.926 146.67 171.861 146.738 171.784 146.79C171.644 146.88 171.473 146.912 171.31 146.878C171.146 146.844 171.003 146.748 170.909 146.61L170.907 146.619Z" fill="white"/>
<path d="M173.442 147.139C173.356 146.974 173.334 146.782 173.38 146.601L174.532 140.986C174.559 140.8 174.659 140.632 174.809 140.518C174.876 140.472 174.952 140.441 175.032 140.426C175.112 140.411 175.195 140.414 175.274 140.433C175.357 140.447 175.436 140.477 175.506 140.523C175.577 140.568 175.637 140.628 175.684 140.698C175.777 140.861 175.803 141.055 175.754 141.237L174.602 146.852C174.59 146.943 174.559 147.031 174.512 147.11C174.465 147.189 174.402 147.258 174.327 147.312C174.256 147.36 174.176 147.392 174.091 147.408C174.006 147.423 173.92 147.42 173.836 147.401C173.756 147.386 173.68 147.356 173.612 147.311C173.544 147.266 173.486 147.207 173.442 147.139Z" fill="white"/>
<path d="M177.107 141.816C177.054 141.74 177.018 141.653 177.001 141.562C176.984 141.471 176.987 141.378 177.008 141.288C177.023 141.196 177.057 141.109 177.108 141.032C177.16 140.955 177.227 140.89 177.306 140.841C177.472 140.744 177.67 140.716 177.856 140.765C178.045 140.794 178.216 140.897 178.33 141.051C178.381 141.128 178.415 141.214 178.43 141.305C178.446 141.395 178.443 141.488 178.42 141.577C178.405 141.669 178.37 141.756 178.319 141.832C178.268 141.909 178.201 141.975 178.122 142.024C178.042 142.073 177.953 142.105 177.86 142.118C177.767 142.132 177.672 142.126 177.581 142.102C177.391 142.073 177.221 141.97 177.107 141.816ZM175.985 147.661C175.892 147.497 175.867 147.304 175.915 147.122L176.631 143.629C176.644 143.536 176.676 143.447 176.723 143.367C176.771 143.286 176.833 143.216 176.908 143.16C176.976 143.112 177.054 143.079 177.136 143.063C177.218 143.048 177.302 143.049 177.383 143.068C177.465 143.084 177.542 143.117 177.611 143.163C177.68 143.21 177.739 143.27 177.784 143.34C177.871 143.505 177.893 143.697 177.845 143.878L177.129 147.371C177.103 147.553 177.007 147.718 176.862 147.832C176.722 147.922 176.551 147.954 176.388 147.92C176.225 147.887 176.081 147.791 175.987 147.653L175.985 147.661Z" fill="white"/>
<path d="M178.43 148.162C178.383 148.082 178.353 147.994 178.341 147.903C178.329 147.812 178.334 147.72 178.358 147.631L179.091 144.055C179.104 143.972 179.134 143.892 179.179 143.821C179.225 143.751 179.285 143.69 179.356 143.645C179.5 143.566 179.666 143.541 179.827 143.574C179.987 143.607 180.13 143.696 180.231 143.824C180.276 143.895 180.305 143.974 180.318 144.057C180.33 144.139 180.326 144.223 180.305 144.304L180.271 144.469C180.464 144.23 180.729 144.058 181.026 143.979C181.359 143.892 181.709 143.887 182.044 143.964C182.267 144.01 182.48 144.094 182.673 144.213C182.86 144.331 183.025 144.481 183.159 144.657C183.291 144.857 183.38 145.084 183.418 145.321C183.46 145.606 183.45 145.895 183.389 146.176L182.898 148.571C182.885 148.662 182.853 148.749 182.806 148.828C182.759 148.907 182.697 148.976 182.623 149.03C182.552 149.076 182.473 149.107 182.391 149.121C182.308 149.135 182.223 149.132 182.141 149.112C182.061 149.098 181.985 149.068 181.917 149.023C181.849 148.978 181.792 148.919 181.748 148.851C181.661 148.689 181.638 148.5 181.684 148.322L182.175 145.927C182.213 145.79 182.222 145.646 182.204 145.505C182.186 145.364 182.14 145.228 182.069 145.105C182 145 181.911 144.911 181.807 144.842C181.703 144.773 181.585 144.726 181.462 144.705C181.304 144.675 181.142 144.679 180.986 144.717C180.83 144.754 180.683 144.825 180.557 144.924C180.259 145.146 180.059 145.475 179.998 145.842L179.578 147.89C179.565 147.981 179.534 148.068 179.487 148.147C179.439 148.226 179.377 148.295 179.303 148.35C179.235 148.396 179.157 148.428 179.076 148.443C178.994 148.457 178.91 148.454 178.83 148.433C178.748 148.419 178.669 148.388 178.6 148.341C178.531 148.294 178.473 148.233 178.43 148.162Z" fill="white"/>
<path d="M187.645 149.424C187.454 149.653 187.2 149.82 186.915 149.907C186.63 149.994 186.325 149.996 186.039 149.912C185.732 149.86 185.438 149.745 185.177 149.575C184.916 149.404 184.693 149.182 184.521 148.921C184.355 148.641 184.246 148.331 184.2 148.008C184.154 147.686 184.172 147.357 184.253 147.042C184.36 146.375 184.71 145.773 185.237 145.35C185.49 145.161 185.783 145.03 186.093 144.967C186.404 144.904 186.725 144.911 187.032 144.987C187.355 145.034 187.657 145.171 187.906 145.382C188.112 145.578 188.269 145.819 188.364 146.086L188.41 145.863C188.428 145.792 188.46 145.725 188.505 145.666C188.549 145.607 188.605 145.558 188.669 145.521C188.794 145.455 188.939 145.436 189.076 145.467C189.154 145.482 189.228 145.514 189.293 145.56C189.357 145.606 189.412 145.665 189.452 145.733C189.536 145.896 189.556 146.084 189.507 146.261L188.693 150.233C188.648 150.558 188.534 150.87 188.359 151.147C188.183 151.424 187.95 151.661 187.675 151.839C187.084 152.16 186.393 152.243 185.742 152.071C185.408 152.006 185.083 151.902 184.774 151.761C184.527 151.656 184.298 151.513 184.094 151.338C184.034 151.29 183.988 151.226 183.962 151.154C183.936 151.082 183.93 151.004 183.946 150.928C183.968 150.821 184.03 150.725 184.121 150.663C184.163 150.627 184.212 150.602 184.266 150.589C184.319 150.576 184.375 150.576 184.429 150.589C184.482 150.592 184.535 150.603 184.586 150.621L184.823 150.764L185.125 150.929C185.216 150.978 185.311 151.021 185.409 151.056C185.538 151.095 185.671 151.122 185.805 151.138C186.182 151.238 186.584 151.195 186.931 151.016C187.092 150.91 187.228 150.771 187.33 150.608C187.432 150.444 187.497 150.261 187.521 150.07L187.645 149.424ZM187.395 148.925C187.72 148.626 187.928 148.22 187.982 147.781C188.213 146.658 187.908 146.045 187.09 145.877C186.925 145.837 186.752 145.834 186.585 145.868C186.436 145.891 186.295 145.947 186.172 146.033C186.048 146.117 185.939 146.223 185.85 146.345C185.761 146.48 185.682 146.623 185.616 146.771C185.554 146.937 185.505 147.108 185.468 147.282C185.35 147.709 185.391 148.164 185.584 148.562C185.672 148.717 185.791 148.851 185.934 148.956C186.077 149.061 186.241 149.135 186.415 149.172C186.59 149.204 186.769 149.195 186.94 149.146C187.112 149.098 187.269 149.011 187.401 148.892L187.395 148.925Z" fill="white"/>
<path d="M190.297 150.588C190.247 150.512 190.213 150.427 190.195 150.338C190.178 150.249 190.179 150.157 190.197 150.068C190.215 149.979 190.251 149.894 190.302 149.819C190.353 149.744 190.418 149.68 190.494 149.63C190.572 149.578 190.659 149.542 190.752 149.526C190.844 149.509 190.939 149.512 191.03 149.533C191.214 149.567 191.378 149.672 191.486 149.825C191.542 149.9 191.58 149.986 191.598 150.078C191.617 150.169 191.615 150.264 191.593 150.354C191.576 150.444 191.54 150.528 191.489 150.604C191.438 150.679 191.373 150.743 191.296 150.793C191.135 150.893 190.942 150.927 190.756 150.889C190.57 150.851 190.406 150.743 190.297 150.588Z" fill="white"/>
<path d="M193.311 151.206C193.261 151.13 193.227 151.045 193.21 150.956C193.192 150.867 193.193 150.775 193.211 150.686C193.229 150.597 193.265 150.513 193.316 150.437C193.367 150.362 193.432 150.298 193.508 150.248C193.586 150.196 193.674 150.16 193.766 150.144C193.858 150.127 193.953 150.13 194.044 150.151C194.228 150.185 194.392 150.29 194.501 150.443C194.556 150.518 194.594 150.604 194.612 150.696C194.631 150.787 194.629 150.882 194.607 150.972C194.59 151.062 194.555 151.146 194.504 151.222C194.453 151.297 194.387 151.361 194.311 151.411C194.149 151.511 193.956 151.545 193.77 151.507C193.584 151.469 193.42 151.361 193.311 151.206Z" fill="white"/>
<path d="M196.326 151.824C196.276 151.748 196.241 151.663 196.224 151.574C196.207 151.485 196.207 151.393 196.225 151.304C196.244 151.215 196.279 151.131 196.33 151.056C196.381 150.98 196.446 150.916 196.522 150.866C196.6 150.814 196.688 150.779 196.78 150.762C196.872 150.745 196.967 150.748 197.058 150.769C197.243 150.803 197.406 150.908 197.515 151.061C197.57 151.136 197.608 151.222 197.626 151.314C197.645 151.405 197.643 151.5 197.621 151.591C197.604 151.68 197.569 151.765 197.518 151.84C197.467 151.915 197.401 151.979 197.325 152.029C197.164 152.129 196.97 152.163 196.784 152.125C196.598 152.087 196.434 151.979 196.326 151.824Z" fill="white"/>
<path d="M208.752 171.123C208.752 171.123 192.561 121.685 233.303 118.222C274.045 114.759 278.813 152.697 282.548 171.718C285.468 186.59 313.275 213.79 291.748 234.09C269.29 255.295 214.58 248.214 211.427 218.08C208.274 187.947 211.13 181.771 208.752 171.123Z" fill="#263238" stroke="#263238" stroke-linecap="round" stroke-linejoin="round"/>
<path d="M256.252 179.018C256.252 179.018 254.482 200.985 265.789 219.786C265.789 219.786 250.554 224.761 234.66 220.032C235.319 214.213 234.996 208.325 233.704 202.613L233.161 200.223L244.713 190.234L256.252 179.018Z" fill="white"/>
<path d="M228.29 195.519C230.396 207.317 232.321 209.888 242.323 207.782C249.727 206.218 256.046 195.106 256.407 187.03C256.044 183.363 255.867 179.68 255.878 175.995L244.713 190.208L228.29 195.519Z" fill="#263238"/>
<path d="M256.252 179.018C256.252 179.018 254.482 200.985 265.789 219.786C265.789 219.786 250.554 224.761 234.66 220.032C235.319 214.213 234.996 208.325 233.704 202.613L233.161 200.223L244.713 190.234L256.252 179.018Z" stroke="#263238" stroke-linecap="round" stroke-linejoin="round"/>
<path d="M142.891 304.449C142.891 304.449 120.343 294.112 119.076 302.666C117.81 311.22 123.328 324.426 143.976 317.926L187.303 323.638C187.303 323.638 194.72 308.868 186.799 300.818C186.786 300.818 148.615 306.749 142.891 304.449Z" fill="white" stroke="#263238" stroke-linecap="round" stroke-linejoin="round"/>
<path d="M108.144 313.701C108.144 313.701 104.578 314.851 104.048 317.216C103.519 319.58 102.368 322.927 103.738 322.94C105.108 322.953 106.775 318.236 106.775 318.236L110.251 317.332L108.144 313.701Z" fill="white" stroke="#263238" stroke-linecap="round" stroke-linejoin="round"/>
<path d="M131.763 291.257L108.322 293.712L111.82 327.1L135.261 324.645L131.763 291.257Z" fill="white" stroke="#263238" stroke-linecap="round" stroke-linejoin="round"/>
<path d="M108.313 293.71L104.818 294.077L108.315 327.465L111.811 327.098L108.313 293.71Z" fill="#6692D8" stroke="#263238" stroke-linecap="round" stroke-linejoin="round"/>
<path d="M125.459 286.423C124.119 286.579 122.893 287.253 122.044 288.301C121.194 289.349 120.787 290.687 120.911 292.031C120.931 292.149 120.956 292.265 120.988 292.38L122.164 292.264L123.457 292.134C123.428 292.015 123.406 291.894 123.392 291.773C123.342 291.31 123.415 290.842 123.603 290.416C123.791 289.99 124.088 289.622 124.464 289.347C124.841 289.073 125.282 288.903 125.745 288.853C126.208 288.804 126.676 288.878 127.101 289.067C127.527 289.256 127.895 289.554 128.169 289.93C128.442 290.307 128.612 290.749 128.66 291.212C128.708 291.675 128.634 292.143 128.444 292.568C128.254 292.993 127.956 293.36 127.579 293.633C127.729 294.049 127.995 294.413 128.345 294.683C128.695 294.953 129.115 295.118 129.556 295.158C130.321 294.423 130.837 293.467 131.033 292.425C131.228 291.382 131.093 290.304 130.646 289.342C130.199 288.379 129.463 287.581 128.54 287.058C127.617 286.534 126.553 286.312 125.498 286.423H125.459Z" fill="white" stroke="#263238" stroke-linecap="round" stroke-linejoin="round"/>
<path d="M112.731 300.637L120.807 299.784" stroke="#263238" stroke-linecap="round" stroke-linejoin="round"/>
<path d="M113.12 304.307L128.794 302.666" stroke="#263238" stroke-linecap="round" stroke-linejoin="round"/>
<path d="M113.507 307.989L121.351 307.175" stroke="#263238" stroke-linecap="round" stroke-linejoin="round"/>
<path d="M113.895 311.672L126.984 310.302" stroke="#263238" stroke-linecap="round" stroke-linejoin="round"/>
<path d="M114.282 315.355L122.113 314.528" stroke="#263238" stroke-linecap="round" stroke-linejoin="round"/>
<path d="M114.67 319.025L131.856 317.228" stroke="#263238" stroke-linecap="round" stroke-linejoin="round"/>
<path d="M121.118 286.875C119.78 287.035 118.558 287.71 117.71 288.758C116.863 289.805 116.459 291.142 116.582 292.483C116.598 292.605 116.619 292.726 116.647 292.845L117.836 292.716L119.128 292.587C119.089 292.469 119.063 292.348 119.051 292.225C119.025 291.549 119.257 290.889 119.701 290.378C120.144 289.867 120.766 289.545 121.439 289.476C122.111 289.406 122.785 289.596 123.323 290.006C123.862 290.416 124.223 291.015 124.335 291.682C124.386 292.145 124.31 292.612 124.117 293.035C123.923 293.458 123.62 293.821 123.237 294.086C123.388 294.501 123.654 294.866 124.004 295.136C124.354 295.406 124.774 295.57 125.214 295.61C125.979 294.875 126.496 293.92 126.691 292.877C126.887 291.834 126.752 290.756 126.305 289.794C125.858 288.832 125.121 288.033 124.198 287.51C123.275 286.987 122.212 286.765 121.157 286.875H121.118Z" fill="white" stroke="#263238" stroke-linecap="round" stroke-linejoin="round"/>
<path d="M116.776 287.328C115.438 287.487 114.216 288.162 113.369 289.21C112.521 290.257 112.117 291.594 112.241 292.936C112.241 293.065 112.241 293.168 112.241 293.297L113.429 293.168L114.722 293.039C114.69 292.924 114.664 292.808 114.644 292.69C114.591 292.224 114.662 291.753 114.85 291.324C115.038 290.894 115.336 290.522 115.714 290.244C116.091 289.967 116.536 289.794 117.002 289.744C117.468 289.693 117.939 289.767 118.367 289.956C118.796 290.146 119.167 290.446 119.442 290.825C119.718 291.204 119.888 291.649 119.937 292.116C119.985 292.582 119.909 293.053 119.717 293.48C119.526 293.908 119.224 294.277 118.844 294.551C118.99 294.966 119.253 295.329 119.602 295.598C119.95 295.866 120.369 296.028 120.808 296.063C121.373 295.533 121.807 294.879 122.076 294.152C122.345 293.425 122.442 292.646 122.358 291.876C122.202 290.541 121.532 289.319 120.49 288.47C119.447 287.621 118.115 287.211 116.776 287.328Z" fill="white" stroke="#263238" stroke-linecap="round" stroke-linejoin="round"/>
<path d="M112.448 287.78C111.108 287.936 109.882 288.61 109.032 289.658C108.182 290.706 107.775 292.044 107.899 293.388C107.918 293.51 107.943 293.631 107.977 293.75L109.153 293.621L110.445 293.491C110.417 293.376 110.395 293.26 110.38 293.142C110.33 292.68 110.403 292.212 110.591 291.786C110.779 291.36 111.077 290.992 111.453 290.717C111.829 290.443 112.271 290.272 112.733 290.223C113.196 290.174 113.664 290.248 114.09 290.437C114.515 290.626 114.883 290.924 115.157 291.3C115.43 291.677 115.6 292.119 115.648 292.582C115.697 293.045 115.622 293.513 115.432 293.938C115.242 294.363 114.944 294.73 114.567 295.003C114.718 295.417 114.984 295.78 115.335 296.048C115.685 296.315 116.104 296.478 116.544 296.515C117.104 295.981 117.535 295.327 117.804 294.601C118.073 293.876 118.172 293.098 118.094 292.328C117.938 290.981 117.259 289.749 116.202 288.898C115.146 288.047 113.797 287.646 112.448 287.78Z" fill="white" stroke="#263238" stroke-linecap="round" stroke-linejoin="round"/>
<path d="M105.999 293.595C105.945 293.128 106.015 292.656 106.202 292.225C106.39 291.794 106.687 291.421 107.066 291.142C107.444 290.864 107.889 290.69 108.356 290.64C108.823 290.589 109.295 290.663 109.724 290.854C110.154 291.044 110.525 291.345 110.8 291.726C111.075 292.106 111.245 292.553 111.292 293.02C111.339 293.488 111.261 293.959 111.067 294.387C110.873 294.814 110.569 295.183 110.186 295.455C110.337 295.87 110.604 296.232 110.954 296.5C111.304 296.768 111.724 296.93 112.163 296.967C112.897 296.264 113.404 295.358 113.618 294.364C113.833 293.371 113.745 292.336 113.366 291.393C112.988 290.45 112.335 289.642 111.493 289.072C110.651 288.503 109.658 288.199 108.642 288.199C107.626 288.199 106.633 288.503 105.791 289.072C104.949 289.642 104.296 290.45 103.918 291.393C103.539 292.336 103.451 293.371 103.665 294.364C103.88 295.358 104.387 296.264 105.121 296.967L104.824 294.06L106.116 293.931C106.065 293.823 106.026 293.71 105.999 293.595Z" fill="white" stroke="#263238" stroke-linecap="round" stroke-linejoin="round"/>
<path d="M102.11 303.066C102.33 303.554 102.584 304.024 102.872 304.475C102.623 305.365 102.577 306.3 102.738 307.21C102.9 308.121 103.263 308.983 103.803 309.734C103.803 309.734 103.906 313.417 105.211 313.998C106.516 314.579 108.597 315.29 108.558 314.256C108.519 313.223 107.912 310.134 105.56 309.45C105.56 309.45 108.261 309.979 107.964 308.48C107.666 306.982 107.15 304.811 105.496 304.19L104.604 303.803C104.604 303.803 106.749 304.19 106.568 302.575C106.387 300.96 106.206 299.06 104.979 298.608C104.694 298.505 104.371 298.414 104.035 298.324C102.226 297.898 101.063 300.74 102.11 303.066Z" fill="white" stroke="#263238" stroke-linecap="round" stroke-linejoin="round"/>
<path d="M140.358 304.165C140.358 304.165 137.838 298.583 133.716 295.675C129.594 292.768 128.044 287.108 126.364 288.478C124.684 289.848 126.209 295.856 128.819 297.911C131.429 299.965 128.509 304.552 134.931 310.212" fill="white"/>
<path d="M140.358 304.165C140.358 304.165 137.838 298.583 133.716 295.675C129.594 292.768 128.044 287.108 126.364 288.478C124.684 289.848 126.209 295.856 128.819 297.911C131.429 299.965 128.509 304.552 134.931 310.212" stroke="#263238" stroke-linecap="round" stroke-linejoin="round"/>
<path d="M292.149 320.459C291.581 323.973 290.973 327.622 290.327 331.403H201.71C201.568 330.215 202.408 327.824 203.209 323.65C193.337 326.997 176.074 321.803 176.074 321.803C178.219 316.156 176.733 301.813 176.733 301.813L186.786 299.681C186.786 299.681 190.96 255.98 194.138 243.459C197.511 230.175 215.963 215.677 278.026 219.954C278.026 219.954 306.66 219.411 311.105 238.393C315.292 256.109 293.338 319.645 292.149 320.459Z" fill="#6692D8"/>
<path opacity="0.2" d="M203.209 323.663C196.348 325.989 185.946 324.193 180.234 322.875C181.72 321.738 182.651 319.412 183 316.414C187.651 315.691 192.303 308.299 195.366 274.703C196.089 266.821 197.64 261.872 199.63 258.538C197.623 266.099 197.543 274.042 199.397 281.642C200.508 286.152 203.997 297.006 204.307 301.503C204.928 308.906 204.559 316.358 203.209 323.663Z" fill="black"/>
<path opacity="0.2" d="M292.136 320.472C291.585 323.986 290.982 327.63 290.327 331.403H201.71C203.3 326.545 207.202 303.415 201.71 289.356C201.491 288.788 220.744 280.699 233.64 284.007C288.298 298.027 269.472 252.853 285.081 244.635L271.617 297.445L264.264 299.784C280.184 300.766 275.584 324.632 275.584 324.632C281.43 325.409 287.352 323.92 292.136 320.472Z" fill="black"/>
<path d="M292.149 320.459C291.581 323.973 290.973 327.622 290.327 331.403H201.71C201.568 330.215 202.408 327.824 203.209 323.65C193.337 326.997 176.074 321.803 176.074 321.803C178.219 316.156 176.733 301.813 176.733 301.813L186.786 299.681C186.786 299.681 190.96 255.98 194.138 243.459C197.511 230.175 215.963 215.677 278.026 219.954C278.026 219.954 306.66 219.411 311.105 238.393C315.292 256.109 293.338 319.645 292.149 320.459Z" stroke="#263238" stroke-linecap="round" stroke-linejoin="round"/>
<path d="M178.387 299.358C178.387 299.358 181.746 301.154 182.845 309.049C183.943 316.944 182.25 323.741 177.87 323.638C173.489 323.534 172.701 321.816 173.606 320.188C174.51 318.559 176.423 316.376 174.963 309.618C173.128 301.154 169.354 301.929 169.354 301.929C169.354 301.929 174.381 297.109 178.387 299.358Z" fill="#6692D8" stroke="#263238" stroke-linecap="round" stroke-linejoin="round"/>
<path opacity="0.2" d="M183 316.466C182.651 319.412 181.708 321.738 180.235 322.927C179.562 323.453 178.724 323.723 177.87 323.689C173.477 323.586 172.701 321.867 173.606 320.239C174.51 318.611 176.423 316.427 174.963 309.669C173.128 301.205 169.354 301.981 169.354 301.981C169.354 301.981 174.394 297.161 178.4 299.396C178.4 299.396 181.759 301.193 182.858 309.088C183.207 311.532 183.255 314.01 183 316.466Z" fill="black"/>
<path d="M262.804 204.164C262.804 204.164 240.527 210.922 230.396 207.317L228.29 220.846C228.29 220.846 238.149 229.426 269.73 218.869L262.804 204.164Z" fill="#6692D8" stroke="#263238" stroke-linecap="round" stroke-linejoin="round"/>
<path d="M183.646 295.417C186.295 304.035 188.659 310.923 186.321 311.685C183.982 312.447 182.057 305.341 179.408 296.709C176.759 288.077 174.394 281.203 176.733 280.453C179.072 279.704 180.997 286.785 183.646 295.417Z" fill="#6692D8" stroke="#263238" stroke-linecap="round" stroke-linejoin="round"/>
<path d="M179.072 295.623L183.31 294.331C182.69 292.302 182.108 290.364 181.553 288.633L177.327 289.925C177.844 291.669 178.438 293.582 179.072 295.623Z" fill="#263238"/>
<path d="M178.684 284.537C178.684 284.537 180.661 280.57 182.483 283.374C184.305 286.178 184.679 294.693 185.971 294.706" stroke="#263238" stroke-linecap="round" stroke-linejoin="round"/>
<path d="M204.967 242.334C203.351 247.283 201.09 252.672 199.63 258.603C197.623 266.164 197.543 274.107 199.397 281.707C200.509 286.216 203.997 297.071 204.308 301.567C204.923 308.953 204.554 316.388 203.209 323.676C202.408 327.837 201.568 330.228 201.71 331.429" stroke="#263238" stroke-linecap="round" stroke-linejoin="round"/>
<path d="M259.819 301.257C259.819 301.257 223.767 306.18 211.608 306.426C209.747 306.426 204.165 305.78 204.165 305.78L195.521 300.004C195.521 300.004 188.866 299.022 185.597 299.758L181.875 304.63C181.875 304.63 177.237 306.129 179.886 309.643C179.61 310.468 179.579 311.355 179.797 312.196C180.015 313.038 180.472 313.798 181.113 314.386C181.113 314.386 181.32 317.448 183.361 318.676C183.361 318.676 183.762 321.531 186.01 322.345C188.259 323.159 202.33 320.911 206.62 319.696C210.91 318.482 252.518 324.994 268.838 324.594C268.838 324.62 282.819 308.235 259.819 301.257Z" fill="white" stroke="#263238" stroke-linecap="round" stroke-linejoin="round"/>
<path d="M260.375 164.804C260.375 164.804 250.865 168.513 245.231 158.253C242.788 153.808 237.852 144.543 237.852 144.543C236.444 148.174 238.175 153.705 238.175 153.705C234.945 152.296 228.717 151.96 228.717 151.96C226.507 148.265 225.861 139.866 225.861 139.866C222.799 145.034 223.677 152.322 223.677 152.322C218.679 152.803 213.948 154.806 210.123 158.059C210.937 161.354 211.221 166.497 210.95 177.183C210.601 191.126 217.307 194.951 223.871 200.171C230.435 205.391 248.306 208.079 254.483 180.788C254.483 180.788 267.404 175.969 261.098 165.851L260.375 164.804Z" fill="white" stroke="#263238" stroke-linecap="round" stroke-linejoin="round"/>
<path d="M249.779 148.006C251.703 152.161 254.509 155.847 258.001 158.808C261.493 161.769 265.588 163.934 270.001 165.153" stroke="#BFBFBF" stroke-miterlimit="10"/>
<path d="M246.38 137.669C246.683 139.366 247.115 141.038 247.673 142.67" stroke="#BFBFBF" stroke-miterlimit="10"/>
<path d="M252.841 138.302C252.841 138.302 260.181 152.309 271.655 152.645" stroke="#BFBFBF" stroke-miterlimit="10"/>
<path d="M275.338 173.927C275.338 173.927 294.01 204.164 294.01 221.737" stroke="#BFBFBF" stroke-miterlimit="10"/>
<path d="M270.402 181.99C270.402 181.99 275.015 198.853 282.445 207.317" stroke="#BFBFBF" stroke-miterlimit="10"/>
<path d="M211.725 138.147C211.166 140.635 210.799 143.162 210.626 145.706" stroke="#BFBFBF" stroke-miterlimit="10"/>
<path d="M227.011 122.305C227.011 122.305 218.315 123.933 212.642 134.18" stroke="#BFBFBF" stroke-miterlimit="10"/>
<path d="M216.001 200.598C216.001 200.598 215.717 214.165 222.643 221.789" stroke="#BFBFBF" stroke-miterlimit="10"/>
<path d="M228.29 159.08C237.71 157.232 241.832 162.026 241.832 162.026" stroke="#263238" stroke-linecap="round" stroke-linejoin="round"/>
<path d="M212.603 163.047C213.642 161.998 214.887 161.174 216.258 160.628C217.63 160.081 219.1 159.822 220.576 159.868" stroke="#263238" stroke-linecap="round" stroke-linejoin="round"/>
<path d="M234.428 190.648C237.335 188.994 238.95 184.678 238.95 184.678L238.343 185.014C234.553 187.04 230.423 188.354 226.158 188.891C227.154 190.048 228.503 190.847 229.996 191.164C231.49 191.482 233.047 191.3 234.428 190.648V190.648Z" stroke="#263238" stroke-linecap="round" stroke-linejoin="round"/>
<path d="M222.902 181.68C221.674 181.525 218.172 179.871 217.875 177.493C217.785 176.783 218.302 176.137 219.064 175.568C220.573 174.509 221.786 173.081 222.589 171.421C223.392 169.762 223.757 167.924 223.651 166.084C223.651 165.825 223.651 165.67 223.651 165.67" stroke="#263238" stroke-linecap="round" stroke-linejoin="round"/>
<path d="M234.945 162.866C235.836 162.75 236.754 164.236 236.986 166.161C237.219 168.086 236.702 169.728 235.798 169.844C234.893 169.96 234.001 168.474 233.756 166.549C233.51 164.623 234.053 162.97 234.945 162.866Z" fill="#263238"/>
<path d="M219.413 168.435C219.646 170.322 219.129 171.937 218.25 172.041C217.371 172.144 216.48 170.748 216.247 168.823C216.014 166.898 216.531 165.308 217.41 165.205C218.289 165.102 219.18 166.536 219.413 168.435Z" fill="#263238"/>
<path d="M248.332 164.481C248.332 164.481 247.13 161.07 248.5 159.313" stroke="#263238" stroke-linecap="round" stroke-linejoin="round"/>
<path d="M292.136 320.472C287.349 323.926 281.421 325.415 275.57 324.633C275.57 324.633 280.17 300.766 264.251 299.784L271.603 297.445L285.068 244.635" stroke="#263238" stroke-linecap="round" stroke-linejoin="round"/>
<path d="M275.571 297.445C275.571 297.445 284.099 299.694 286.489 307.033" stroke="#263238" stroke-linecap="round" stroke-linejoin="round"/>
<path d="M240.773 212.46C248.887 212.404 256.9 210.643 264.29 207.291" stroke="#263238" stroke-linecap="round" stroke-linejoin="round"/>
<path d="M229.789 211.193C231.612 211.668 233.47 211.997 235.345 212.175" stroke="#263238" stroke-linecap="round" stroke-linejoin="round"/>
<path d="M266.125 226.337C268.425 225.528 270.837 224.576 273.361 223.482" stroke="#263238" stroke-linecap="round" stroke-linejoin="round"/>
<path d="M226.21 226.531C226.21 226.531 234.88 234.762 257.816 228.883" stroke="#263238" stroke-linecap="round" stroke-linejoin="round"/>
<path d="M233.704 267.441C233.704 267.441 234.996 287.302 249.779 294.706" stroke="#263238" stroke-linecap="round" stroke-linejoin="round"/>
<path d="M259.457 301.567C259.457 301.567 262.352 295.184 271.009 298.337C271.009 298.337 279.189 301.154 281.644 309.566C284.099 317.978 281.024 325.485 275.054 325.795C269.084 326.105 267.998 325.64 269.006 323.805C270.066 321.802 270.658 319.585 270.738 317.32C270.819 315.056 270.386 312.802 269.472 310.729C265.763 301.852 259.457 301.567 259.457 301.567Z" fill="#6692D8"/>
<g opacity="0.2">
<path opacity="0.2" d="M259.457 301.567C259.457 301.567 262.352 295.184 271.009 298.337C271.009 298.337 279.189 301.154 281.644 309.566C284.099 317.978 281.024 325.485 275.054 325.795C269.084 326.105 267.998 325.64 269.006 323.805C270.066 321.802 270.658 319.585 270.738 317.32C270.819 315.056 270.386 312.802 269.472 310.729C265.763 301.852 259.457 301.567 259.457 301.567Z" fill="black"/>
</g>
<path d="M259.457 301.567C259.457 301.567 262.352 295.184 271.009 298.337C271.009 298.337 279.189 301.154 281.644 309.566C284.099 317.978 281.024 325.485 275.054 325.795C269.084 326.105 267.998 325.64 269.006 323.805C270.066 321.802 270.658 319.585 270.738 317.32C270.819 315.056 270.386 312.802 269.472 310.729C265.763 301.852 259.457 301.567 259.457 301.567Z" stroke="#263238" stroke-linecap="round" stroke-linejoin="round"/>
<path d="M226.212 286.698L214.454 190.948C214.23 189.451 213.488 188.079 212.357 187.073C211.226 186.067 209.777 185.49 208.264 185.443H194.8L210.383 292.163H221.406C222.098 292.177 222.785 292.039 223.419 291.759C224.053 291.48 224.619 291.065 225.076 290.545C225.534 290.025 225.872 289.411 226.069 288.747C226.265 288.082 226.314 287.383 226.212 286.698V286.698Z" fill="#6692D8" stroke="#263238" stroke-linecap="round" stroke-linejoin="round"/>
<path d="M218.46 292.163H82.9889C81.478 292.113 80.0325 291.535 78.9039 290.529C77.7753 289.523 77.0352 288.154 76.8123 286.659L65.0536 190.909C64.9498 190.223 64.9972 189.523 65.1925 188.858C65.3879 188.192 65.7264 187.578 66.1844 187.057C66.6424 186.536 67.2087 186.122 67.8438 185.843C68.4788 185.564 69.1671 185.428 69.8604 185.443H205.383C206.894 185.493 208.339 186.071 209.468 187.077C210.596 188.083 211.336 189.453 211.559 190.948L223.318 286.697C223.42 287.387 223.37 288.091 223.171 288.759C222.972 289.427 222.629 290.044 222.165 290.565C221.702 291.086 221.13 291.499 220.49 291.775C219.85 292.052 219.157 292.184 218.46 292.163V292.163Z" fill="#263238"/>
<path opacity="0.1" d="M218.46 292.163H82.9889C81.478 292.113 80.0325 291.535 78.9039 290.529C77.7753 289.523 77.0352 288.154 76.8123 286.659L65.0536 190.909C64.9498 190.223 64.9972 189.523 65.1925 188.858C65.3879 188.192 65.7264 187.578 66.1844 187.057C66.6424 186.536 67.2087 186.122 67.8438 185.843C68.4788 185.564 69.1671 185.428 69.8604 185.443H205.383C206.894 185.493 208.339 186.071 209.468 187.077C210.596 188.083 211.336 189.453 211.559 190.948L223.318 286.697C223.42 287.387 223.37 288.091 223.171 288.759C222.972 289.427 222.629 290.044 222.165 290.565C221.702 291.086 221.13 291.499 220.49 291.775C219.85 292.052 219.157 292.184 218.46 292.163V292.163Z" fill="white"/>
<path d="M218.46 292.163H82.9889C81.478 292.113 80.0325 291.535 78.9039 290.529C77.7753 289.523 77.0352 288.154 76.8123 286.659L65.0536 190.909C64.9498 190.223 64.9972 189.523 65.1925 188.858C65.3879 188.192 65.7264 187.578 66.1844 187.057C66.6424 186.536 67.2087 186.122 67.8438 185.843C68.4788 185.564 69.1671 185.428 69.8604 185.443H205.383C206.894 185.493 208.339 186.071 209.468 187.077C210.596 188.083 211.336 189.453 211.559 190.948L223.318 286.697C223.42 287.387 223.37 288.091 223.171 288.759C222.972 289.427 222.629 290.044 222.165 290.565C221.702 291.086 221.13 291.499 220.49 291.775C219.85 292.052 219.157 292.184 218.46 292.163V292.163Z" stroke="#263238" stroke-linecap="round" stroke-linejoin="round"/>
<path d="M155.311 313.962L160.725 252.287C160.748 251.934 160.698 251.58 160.579 251.246C160.459 250.913 160.273 250.608 160.03 250.35C159.788 250.092 159.495 249.886 159.17 249.746C158.845 249.606 158.495 249.534 158.141 249.535H123.989C123.348 249.531 122.729 249.766 122.251 250.193C121.774 250.621 121.472 251.21 121.405 251.848L115.512 319.04C115.489 319.393 115.539 319.748 115.659 320.081C115.778 320.414 115.965 320.719 116.207 320.977C116.449 321.235 116.742 321.441 117.067 321.581C117.392 321.721 117.743 321.793 118.097 321.792H185.858C186.543 321.792 187.201 321.52 187.685 321.036C188.17 320.551 188.442 319.894 188.442 319.208C188.442 318.523 188.17 317.865 187.685 317.381C187.201 316.896 186.543 316.624 185.858 316.624H157.831C157.49 316.615 157.155 316.54 156.843 316.401C156.532 316.263 156.251 316.064 156.017 315.817C155.783 315.57 155.6 315.278 155.479 314.96C155.358 314.642 155.301 314.302 155.311 313.962V313.962Z" fill="#263238" stroke="#263238" stroke-linecap="round" stroke-linejoin="round"/>
<path d="M188.391 319.299C188.391 318.613 188.118 317.956 187.634 317.471C187.149 316.987 186.492 316.715 185.806 316.715H157.831C157.476 316.715 157.124 316.643 156.798 316.502C156.472 316.361 156.179 316.154 155.937 315.895C155.694 315.635 155.508 315.329 155.389 314.994C155.27 314.659 155.222 314.304 155.247 313.949L160.661 252.274C160.772 251.906 160.8 251.518 160.742 251.138C160.685 250.758 160.543 250.396 160.327 250.077C160.112 249.759 159.828 249.493 159.497 249.298C159.165 249.103 158.795 248.985 158.412 248.951C158.029 248.918 157.643 248.97 157.283 249.105C156.923 249.239 156.597 249.453 156.33 249.729C156.063 250.005 155.86 250.337 155.738 250.702C155.615 251.066 155.575 251.453 155.621 251.835L149.729 319.028C149.706 319.375 149.754 319.724 149.87 320.053C149.985 320.382 150.166 320.684 150.402 320.941C150.637 321.198 150.922 321.405 151.24 321.549C151.557 321.693 151.9 321.772 152.249 321.78H185.845C186.506 321.77 187.139 321.508 187.612 321.046C188.086 320.585 188.364 319.96 188.391 319.299Z" fill="#6692D8" stroke="#263238" stroke-linecap="round" stroke-linejoin="round"/>
</svg>
