<svg width="449" height="449" viewBox="0 0 449 449" fill="none" xmlns="http://www.w3.org/2000/svg">
<path d="M121.553 121.158C121.872 119.798 122.031 118.406 122.029 117.009C122.029 112.119 120.087 107.429 116.63 103.97C113.173 100.511 108.484 98.5669 103.593 98.5645C101.967 98.5634 100.348 98.7809 98.7801 99.2111C96.9091 95.8871 94.0133 93.2573 90.525 91.7142C87.0367 90.1712 83.1429 89.7975 79.4248 90.649C75.7067 91.5005 72.3636 93.5315 69.8945 96.4389C67.4254 99.3463 65.9628 102.974 65.7248 106.781C64.8368 106.611 63.9349 106.524 63.0308 106.521C59.4769 106.518 56.0468 107.826 53.3961 110.193C50.7455 112.56 49.0603 115.822 48.6628 119.353C46.6612 119.563 44.8098 120.512 43.4708 122.014C42.1317 123.517 41.4015 125.464 41.4228 127.477C41.4442 129.489 42.2156 131.421 43.5861 132.895C44.9567 134.369 46.8278 135.278 48.8334 135.445H116.471C118.123 135.426 119.73 134.901 121.074 133.94C122.419 132.979 123.436 131.63 123.99 130.073C124.544 128.516 124.608 126.827 124.172 125.233C123.736 123.639 122.822 122.217 121.553 121.158V121.158Z" stroke="#263238" stroke-linecap="round" stroke-linejoin="round"/>
<path d="M72.3789 149.122V167.755" stroke="#263238" stroke-linecap="round" stroke-linejoin="round"/>
<path d="M72.3789 137.942V145.395" stroke="#263238" stroke-linecap="round" stroke-linejoin="round"/>
<path d="M72.3789 130.982V134.969" stroke="#263238" stroke-linecap="round" stroke-linejoin="round"/>
<path d="M68.8589 165.573L72.3701 169.929L75.8902 165.573" stroke="#263238" stroke-linecap="round" stroke-linejoin="round"/>
<path d="M84.3853 157.105V175.739" stroke="#263238" stroke-linecap="round" stroke-linejoin="round"/>
<path d="M84.3853 145.925V153.378" stroke="#263238" stroke-linecap="round" stroke-linejoin="round"/>
<path d="M84.3853 138.966V142.953" stroke="#263238" stroke-linecap="round" stroke-linejoin="round"/>
<path d="M80.8652 173.556L84.3854 177.912L87.9056 173.556" stroke="#263238" stroke-linecap="round" stroke-linejoin="round"/>
<path d="M95.6011 141.444V160.077" stroke="#263238" stroke-linecap="round" stroke-linejoin="round"/>
<path d="M95.6011 130.264V137.717" stroke="#263238" stroke-linecap="round" stroke-linejoin="round"/>
<path d="M95.6011 123.304V127.292" stroke="#263238" stroke-linecap="round" stroke-linejoin="round"/>
<path d="M92.0811 157.895L95.6012 162.251L99.1214 157.895" stroke="#263238" stroke-linecap="round" stroke-linejoin="round"/>
<path d="M273.998 247.031C273.283 243.927 273.384 240.69 274.292 237.637C275.199 234.584 276.882 231.817 279.176 229.607C281.47 227.397 284.297 225.819 287.382 225.026C290.467 224.234 293.705 224.253 296.78 225.084C298.652 221.759 301.548 219.129 305.037 217.587C308.527 216.044 312.421 215.671 316.14 216.524C319.858 217.376 323.201 219.409 325.669 222.317C328.138 225.226 329.599 228.855 329.836 232.663C330.724 232.493 331.626 232.406 332.53 232.402C336.082 232.4 339.511 233.706 342.162 236.071C344.812 238.437 346.498 241.696 346.898 245.226C348.899 245.435 350.751 246.384 352.09 247.887C353.429 249.389 354.159 251.337 354.138 253.35C354.116 255.362 353.345 257.294 351.974 258.768C350.604 260.242 348.733 261.151 346.727 261.318H279.09C277.437 261.3 275.829 260.776 274.483 259.816C273.137 258.856 272.118 257.507 271.563 255.95C271.008 254.392 270.944 252.702 271.379 251.108C271.815 249.513 272.729 248.09 273.998 247.031V247.031Z" stroke="#263238" stroke-linecap="round" stroke-linejoin="round"/>
<path d="M320.308 268.17V249.536" stroke="#263238" stroke-linecap="round" stroke-linejoin="round"/>
<path d="M320.308 279.35V271.896" stroke="#263238" stroke-linecap="round" stroke-linejoin="round"/>
<path d="M320.308 286.309V282.331" stroke="#263238" stroke-linecap="round" stroke-linejoin="round"/>
<path d="M323.828 251.718L320.308 247.363L316.788 251.718" stroke="#263238" stroke-linecap="round" stroke-linejoin="round"/>
<path d="M308.302 260.187V241.562" stroke="#263238" stroke-linecap="round" stroke-linejoin="round"/>
<path d="M308.302 271.367V263.913" stroke="#263238" stroke-linecap="round" stroke-linejoin="round"/>
<path d="M308.302 278.335V274.348" stroke="#263238" stroke-linecap="round" stroke-linejoin="round"/>
<path d="M311.822 243.735L308.301 239.38L304.781 243.735" stroke="#263238" stroke-linecap="round" stroke-linejoin="round"/>
<path d="M297.076 275.848V257.214" stroke="#263238" stroke-linecap="round" stroke-linejoin="round"/>
<path d="M297.076 287.028V279.574" stroke="#263238" stroke-linecap="round" stroke-linejoin="round"/>
<path d="M297.076 293.987V290" stroke="#263238" stroke-linecap="round" stroke-linejoin="round"/>
<path d="M300.597 259.396L297.077 255.041L293.565 259.396" stroke="#263238" stroke-linecap="round" stroke-linejoin="round"/>
<path d="M30.8281 400.041H420.533" stroke="#263238" stroke-miterlimit="10"/>
<path d="M325.785 344.832C325.785 344.832 341.267 346.053 341.949 357.467C341.913 357.467 326.234 364.687 325.785 344.832Z" fill="#6692D8" stroke="#263238" stroke-linecap="round" stroke-linejoin="round"/>
<path d="M356.407 347.661C356.407 347.661 365.055 335.987 379.028 341.967C379.028 341.967 370.497 356.102 356.407 347.661Z" fill="#6692D8" stroke="#263238" stroke-linecap="round" stroke-linejoin="round"/>
<path d="M377.842 310.753C377.842 310.753 380.33 333.203 359.882 327.052C359.855 327.052 366.384 310.51 377.842 310.753Z" fill="#6692D8" stroke="#263238" stroke-linecap="round" stroke-linejoin="round"/>
<path d="M352.708 298.226C352.708 298.226 368.872 306.963 356.991 320.209C356.991 320.209 345.631 310.708 352.708 298.226Z" fill="#6692D8" stroke="#263238" stroke-linecap="round" stroke-linejoin="round"/>
<path d="M332.781 318.332C332.781 318.332 350.391 316.536 350.391 332.853C350.391 332.853 332.781 333.544 332.781 318.332Z" fill="#6692D8" stroke="#263238" stroke-linecap="round" stroke-linejoin="round"/>
<path d="M349.385 380.752C349.385 380.752 341.357 363.906 349.062 346.754C356.766 329.602 359.371 315.144 355.348 304.961" stroke="#263238" stroke-linecap="round" stroke-linejoin="round"/>
<path d="M338.546 322.705C338.546 322.705 349.097 326.899 352.689 337.774" stroke="#263238" stroke-linecap="round" stroke-linejoin="round"/>
<path d="M372.275 319.751C372.275 319.751 366.177 328.057 355.85 327.159" stroke="#263238" stroke-linecap="round" stroke-linejoin="round"/>
<path d="M372.275 344.356C372.275 344.356 355.383 349.223 348.675 347.634" stroke="#263238" stroke-linecap="round" stroke-linejoin="round"/>
<path d="M330.832 349.969C330.832 349.969 338.384 358.257 345.972 358.131" stroke="#263238" stroke-linecap="round" stroke-linejoin="round"/>
<path d="M329.979 367.39H365.423L361.714 399.781H333.697L329.979 367.39Z" fill="#263238"/>
<path d="M366.061 366.671H329.35C328.859 366.671 328.461 367.069 328.461 367.56V370.353C328.461 370.844 328.859 371.242 329.35 371.242H366.061C366.552 371.242 366.95 370.844 366.95 370.353V367.56C366.95 367.069 366.552 366.671 366.061 366.671Z" fill="#263238"/>
<path d="M332.781 371.242H354.126" stroke="white" stroke-linecap="round" stroke-linejoin="round"/>
<path d="M358.158 371.242H361.364" stroke="white" stroke-linecap="round" stroke-linejoin="round"/>
<path d="M413.466 95.8974V227.005C413.466 228.601 412.833 230.131 411.704 231.26C410.576 232.388 409.046 233.022 407.45 233.022H153.558C151.962 233.022 150.431 232.388 149.301 231.26C148.171 230.132 147.535 228.602 147.533 227.005V95.8974C147.535 94.3009 148.171 92.7705 149.301 91.6425C150.431 90.5144 151.962 89.8808 153.558 89.8808H407.45C409.046 89.8808 410.576 90.5147 411.704 91.643C412.833 92.7714 413.466 94.3017 413.466 95.8974Z" fill="white"/>
<path opacity="0.2" d="M413.466 102.866V227.032C413.466 228.628 412.833 230.158 411.704 231.287C410.576 232.415 409.046 233.049 407.45 233.049H247.705V102.839L413.466 102.866Z" fill="#6692D8"/>
<path d="M413.466 95.8974V227.005C413.466 228.601 412.833 230.131 411.704 231.26C410.576 232.388 409.046 233.022 407.45 233.022H153.558C151.962 233.022 150.431 232.388 149.301 231.26C148.171 230.132 147.535 228.602 147.533 227.005V95.8974C147.535 94.3009 148.171 92.7705 149.301 91.6425C150.431 90.5144 151.962 89.8808 153.558 89.8808H407.45C409.046 89.8808 410.576 90.5147 411.704 91.643C412.833 92.7714 413.466 94.3017 413.466 95.8974V95.8974Z" stroke="#263238" stroke-linecap="round" stroke-linejoin="round"/>
<path d="M391.223 155.92H358.186C356.416 155.92 354.719 156.623 353.468 157.874C352.216 159.125 351.513 160.822 351.513 162.592C351.516 164.36 352.22 166.055 353.471 167.304C354.722 168.553 356.418 169.255 358.186 169.255H391.223C392.099 169.256 392.966 169.085 393.776 168.75C394.585 168.416 395.321 167.925 395.94 167.307C396.56 166.688 397.052 165.953 397.387 165.144C397.722 164.335 397.895 163.468 397.895 162.592C397.896 161.715 397.725 160.847 397.39 160.037C397.055 159.227 396.563 158.491 395.944 157.871C395.324 157.252 394.588 156.76 393.778 156.425C392.968 156.09 392.1 155.919 391.223 155.92Z" fill="#6692D8" stroke="#263238" stroke-linecap="round" stroke-linejoin="round"/>
<path d="M413.466 95.8974V108.182H147.515V95.8974C147.517 94.3009 148.153 92.7705 149.283 91.6425C150.412 90.5144 151.944 89.8808 153.54 89.8808H407.45C409.045 89.8808 410.576 90.5147 411.704 91.643C412.832 92.7714 413.466 94.3017 413.466 95.8974Z" fill="#999999" stroke="#263238" stroke-linecap="round" stroke-linejoin="round"/>
<path d="M158.766 102.866C161.058 102.866 162.915 101.008 162.915 98.7171C162.915 96.4258 161.058 94.5684 158.766 94.5684C156.475 94.5684 154.618 96.4258 154.618 98.7171C154.618 101.008 156.475 102.866 158.766 102.866Z" fill="#6692D8" stroke="#263238" stroke-linecap="round" stroke-linejoin="round"/>
<path d="M169.992 102.866C172.283 102.866 174.14 101.008 174.14 98.7171C174.14 96.4258 172.283 94.5684 169.992 94.5684C167.7 94.5684 165.843 96.4258 165.843 98.7171C165.843 101.008 167.7 102.866 169.992 102.866Z" fill="#757575" stroke="#263238" stroke-linecap="round" stroke-linejoin="round"/>
<path d="M181.217 102.866C183.508 102.866 185.365 101.008 185.365 98.7171C185.365 96.4258 183.508 94.5684 181.217 94.5684C178.925 94.5684 177.068 96.4258 177.068 98.7171C177.068 101.008 178.925 102.866 181.217 102.866Z" fill="white" stroke="#263238" stroke-linecap="round" stroke-linejoin="round"/>
<path d="M247.705 108.182V233.166" stroke="#263238" stroke-linecap="round" stroke-linejoin="round"/>
<path d="M404.414 102.866H346.269C345.17 102.863 344.117 102.425 343.341 101.648C342.565 100.87 342.129 99.8159 342.129 98.7171C342.132 97.6199 342.568 96.5683 343.344 95.7925C344.12 95.0166 345.172 94.5797 346.269 94.5773H404.414C405.513 94.5773 406.567 95.0132 407.345 95.7893C408.123 96.5654 408.561 97.6183 408.563 98.7171C408.563 99.2619 408.456 99.8014 408.247 100.305C408.039 100.808 407.733 101.265 407.348 101.651C406.963 102.036 406.505 102.342 406.002 102.55C405.499 102.759 404.959 102.866 404.414 102.866Z" fill="white" stroke="#263238" stroke-linecap="round" stroke-linejoin="round"/>
<path d="M393.809 146.679H267.981C266.898 146.679 265.859 146.249 265.092 145.483C264.326 144.716 263.896 143.677 263.896 142.593C263.896 142.057 264.001 141.526 264.207 141.03C264.412 140.534 264.713 140.084 265.092 139.704C265.472 139.325 265.922 139.024 266.418 138.819C266.914 138.613 267.445 138.508 267.981 138.508H393.809C394.346 138.508 394.877 138.613 395.373 138.819C395.869 139.024 396.319 139.325 396.698 139.704C397.078 140.084 397.379 140.534 397.584 141.03C397.789 141.526 397.895 142.057 397.895 142.593C397.895 143.677 397.465 144.716 396.698 145.483C395.932 146.249 394.893 146.679 393.809 146.679Z" fill="#BFBFBF" stroke="#263238" stroke-miterlimit="10"/>
<path d="M335.439 146.679H267.981C266.898 146.679 265.859 146.249 265.092 145.483C264.326 144.716 263.896 143.677 263.896 142.593C263.896 142.057 264.001 141.526 264.207 141.03C264.412 140.534 264.713 140.084 265.092 139.704C265.472 139.325 265.922 139.024 266.418 138.819C266.914 138.613 267.445 138.508 267.981 138.508H335.439C335.976 138.508 336.507 138.613 337.003 138.819C337.499 139.024 337.949 139.325 338.328 139.704C338.708 140.084 339.009 140.534 339.214 141.03C339.419 141.526 339.525 142.057 339.525 142.593C339.525 143.677 339.095 144.716 338.328 145.483C337.562 146.249 336.523 146.679 335.439 146.679Z" fill="#6692D8" stroke="#263238" stroke-linecap="round" stroke-linejoin="round"/>
<path d="M273.154 204.708H267.613V210.249H273.154V204.708Z" stroke="#263238" stroke-linecap="round" stroke-linejoin="round"/>
<path d="M269.302 207.097L270.119 208.21L271.475 206.28" stroke="#263238" stroke-linecap="round" stroke-linejoin="round"/>
<path opacity="0.3" d="M321.206 205.866H283.472C282.579 205.866 281.855 206.588 281.855 207.478C281.855 208.369 282.579 209.09 283.472 209.09H321.206C322.099 209.09 322.822 208.369 322.822 207.478C322.822 206.588 322.099 205.866 321.206 205.866Z" fill="black"/>
<path d="M185.724 210.788L186.622 204.636H187.709L186.542 212.17H184.746L183.578 204.636H184.772L185.724 210.788Z" fill="#263238"/>
<path d="M189.478 207.815H191.104V208.893H189.478V211.102H191.526V212.17H188.293V204.636H191.526V205.714H189.478V207.815Z" fill="#263238"/>
<path d="M194.723 212.17C194.628 211.881 194.591 211.576 194.615 211.272V210.087C194.615 209.396 194.372 209.135 193.834 209.135H193.429V212.197H192.244V204.663H194.04C195.27 204.663 195.836 205.238 195.836 206.396V206.989C195.878 207.292 195.826 207.6 195.686 207.872C195.546 208.143 195.326 208.365 195.055 208.507C195.648 208.749 195.845 209.306 195.845 210.096V211.263C195.825 211.568 195.868 211.874 195.971 212.161L194.723 212.17ZM193.429 205.714V208.031H193.887C194.336 208.031 194.606 207.833 194.606 207.231V206.486C194.606 205.947 194.417 205.714 193.995 205.714H193.429Z" fill="#263238"/>
<path d="M197.722 211.03V212.17H196.572V211.03H197.722Z" fill="#263238"/>
<path d="M201.988 205.642C201.61 205.642 201.368 205.849 201.368 206.387V207.196H200.254V206.459C200.254 205.256 200.856 204.564 202.05 204.564C203.245 204.564 203.846 205.256 203.846 206.459C203.822 207.032 203.679 207.593 203.427 208.107C203.175 208.622 202.819 209.079 202.383 209.45C201.682 210.204 201.485 210.554 201.485 210.958C201.48 211.012 201.48 211.066 201.485 211.12H203.73V212.188H200.254V211.29C200.27 210.83 200.383 210.379 200.586 209.966C200.789 209.552 201.077 209.187 201.431 208.893C201.783 208.605 202.069 208.246 202.271 207.839C202.472 207.431 202.584 206.985 202.598 206.531C202.598 205.813 202.365 205.642 201.988 205.642Z" fill="#263238"/>
<path d="M205.642 211.03V212.17H204.502V211.03H205.642Z" fill="#263238"/>
<path d="M206.423 206.441C206.423 205.965 206.613 205.508 206.949 205.171C207.286 204.834 207.743 204.645 208.219 204.645C208.696 204.645 209.152 204.834 209.489 205.171C209.826 205.508 210.015 205.965 210.015 206.441V210.365C210.015 210.842 209.826 211.299 209.489 211.635C209.152 211.972 208.696 212.161 208.219 212.161C207.743 212.161 207.286 211.972 206.949 211.635C206.613 211.299 206.423 210.842 206.423 210.365V206.441ZM207.609 210.437C207.609 210.976 207.851 211.183 208.219 211.183C208.588 211.183 208.839 210.976 208.839 210.437V206.369C208.839 205.831 208.597 205.624 208.219 205.624C207.842 205.624 207.609 205.831 207.609 206.369V210.437Z" fill="#263238"/>
<path d="M211.856 209.737V210.437C211.856 210.976 212.09 211.174 212.467 211.174C212.844 211.174 213.087 210.976 213.087 210.437V208.785C213.087 208.246 212.844 208.04 212.467 208.04C212.09 208.04 211.856 208.246 211.856 208.785V209.009H210.734L210.949 204.636H214.075V205.714H212.009L211.91 207.51C212.015 207.334 212.165 207.19 212.346 207.093C212.526 206.997 212.73 206.951 212.934 206.962C213.832 206.962 214.254 207.573 214.254 208.686V210.365C214.292 210.614 214.273 210.869 214.198 211.109C214.123 211.35 213.993 211.57 213.82 211.753C213.647 211.935 213.434 212.076 213.198 212.164C212.962 212.252 212.709 212.285 212.458 212.26C211.291 212.26 210.662 211.569 210.662 210.365V209.737H211.856Z" fill="#263238"/>
<path d="M179.6 182.114C176.784 179.437 174.55 176.209 173.036 172.632" stroke="#263238" stroke-linecap="round" stroke-linejoin="round"/>
<path d="M205.472 134.125C209.949 135.173 214.104 137.297 217.576 140.312C221.048 143.327 223.733 147.143 225.398 151.43" stroke="#263238" stroke-linecap="round" stroke-linejoin="round"/>
<path d="M207.86 154.456V146.374L201.826 145.853C201.473 144.601 200.973 143.395 200.335 142.261L204.232 137.636L198.539 132.006L193.914 135.894C192.778 135.261 191.573 134.761 190.322 134.404L189.801 128.378H181.719L181.199 134.404C179.947 134.758 178.741 135.258 177.607 135.894L172.973 132.006L167.289 137.699L171.177 142.324C170.543 143.46 170.042 144.665 169.686 145.916L163.661 146.437V154.519L169.686 155.04C170.042 156.291 170.543 157.496 171.177 158.632L167.289 163.256L172.973 168.95L177.607 165.061C178.741 165.697 179.947 166.198 181.199 166.552L181.719 172.578H189.801L190.322 166.552C191.573 166.194 192.778 165.694 193.914 165.061L198.539 168.95L204.232 163.256L200.335 158.632C200.973 157.498 201.473 156.292 201.826 155.04L207.86 154.456ZM185.76 159.844C183.912 159.844 182.104 159.296 180.567 158.269C179.03 157.241 177.831 155.781 177.124 154.073C176.416 152.365 176.231 150.485 176.592 148.672C176.953 146.859 177.843 145.193 179.15 143.886C180.458 142.578 182.123 141.688 183.937 141.327C185.75 140.967 187.63 141.152 189.338 141.859C191.046 142.567 192.506 143.765 193.533 145.302C194.56 146.84 195.109 148.647 195.109 150.496C195.106 152.974 194.121 155.351 192.368 157.103C190.615 158.856 188.239 159.842 185.76 159.844Z" fill="#6692D8" stroke="#263238" stroke-linecap="round" stroke-linejoin="round"/>
<path d="M234.486 172.416V166.696L230.194 166.328C229.94 165.431 229.584 164.566 229.134 163.75L231.9 160.464L227.85 156.414L224.563 159.179C223.747 158.729 222.883 158.374 221.986 158.12L221.618 153.836H215.898L215.52 158.138C214.627 158.393 213.766 158.749 212.952 159.197L209.665 156.432L205.642 160.482L208.408 163.768C207.958 164.584 207.603 165.449 207.349 166.346L203.056 166.714V172.416L207.349 172.793C207.604 173.686 207.96 174.548 208.408 175.361L205.642 178.702L209.692 182.752L212.979 179.986C213.791 180.438 214.653 180.794 215.547 181.046L215.924 185.338H221.645L222.013 181.046C222.911 180.796 223.776 180.44 224.59 179.986L227.877 182.752L231.927 178.702L229.161 175.415C229.61 174.602 229.965 173.74 230.221 172.847L234.486 172.416ZM218.753 176.215C217.437 176.215 216.151 175.824 215.056 175.093C213.962 174.362 213.109 173.323 212.606 172.107C212.102 170.891 211.97 169.553 212.227 168.262C212.484 166.971 213.117 165.786 214.048 164.855C214.979 163.925 216.164 163.291 217.455 163.034C218.746 162.777 220.084 162.909 221.3 163.413C222.516 163.916 223.555 164.769 224.286 165.863C225.017 166.958 225.407 168.244 225.407 169.56C225.41 170.436 225.239 171.303 224.906 172.112C224.573 172.922 224.083 173.657 223.465 174.277C222.847 174.897 222.112 175.389 221.304 175.724C220.495 176.06 219.629 176.232 218.753 176.232V176.215Z" fill="#6692D8"/>
<path opacity="0.3" d="M234.486 172.416V166.696L230.194 166.328C229.94 165.431 229.584 164.566 229.134 163.75L231.9 160.464L227.85 156.414L224.563 159.179C223.747 158.729 222.883 158.374 221.986 158.12L221.618 153.836H215.898L215.52 158.138C214.627 158.393 213.766 158.749 212.952 159.197L209.665 156.432L205.642 160.482L208.408 163.768C207.958 164.584 207.603 165.449 207.349 166.346L203.056 166.714V172.416L207.349 172.793C207.604 173.686 207.96 174.548 208.408 175.361L205.642 178.702L209.692 182.752L212.979 179.986C213.791 180.438 214.653 180.794 215.547 181.046L215.924 185.338H221.645L222.013 181.046C222.911 180.796 223.776 180.44 224.59 179.986L227.877 182.752L231.927 178.702L229.161 175.415C229.61 174.602 229.965 173.74 230.221 172.847L234.486 172.416ZM218.753 176.215C217.437 176.215 216.151 175.824 215.056 175.093C213.962 174.362 213.109 173.323 212.606 172.107C212.102 170.891 211.97 169.553 212.227 168.262C212.484 166.971 213.117 165.786 214.048 164.855C214.979 163.925 216.164 163.291 217.455 163.034C218.746 162.777 220.084 162.909 221.3 163.413C222.516 163.916 223.555 164.769 224.286 165.863C225.017 166.958 225.407 168.244 225.407 169.56C225.41 170.436 225.239 171.303 224.906 172.112C224.573 172.922 224.083 173.657 223.465 174.277C222.847 174.897 222.112 175.389 221.304 175.724C220.495 176.06 219.629 176.232 218.753 176.232V176.215Z" fill="white"/>
<path d="M234.486 172.416V166.696L230.194 166.328C229.94 165.431 229.584 164.566 229.134 163.75L231.9 160.464L227.85 156.414L224.563 159.179C223.747 158.729 222.883 158.374 221.986 158.12L221.618 153.836H215.898L215.52 158.138C214.627 158.393 213.766 158.749 212.952 159.197L209.665 156.432L205.642 160.482L208.408 163.768C207.958 164.584 207.603 165.449 207.349 166.346L203.056 166.714V172.416L207.349 172.793C207.604 173.686 207.96 174.548 208.408 175.361L205.642 178.702L209.692 182.752L212.979 179.986C213.791 180.438 214.653 180.794 215.547 181.046L215.924 185.338H221.645L222.013 181.046C222.911 180.796 223.776 180.44 224.59 179.986L227.877 182.752L231.927 178.702L229.161 175.415C229.61 174.602 229.965 173.74 230.221 172.847L234.486 172.416ZM218.753 176.215C217.437 176.215 216.151 175.824 215.056 175.093C213.962 174.362 213.109 173.323 212.606 172.107C212.102 170.891 211.97 169.553 212.227 168.262C212.484 166.971 213.117 165.786 214.048 164.855C214.979 163.925 216.164 163.291 217.455 163.034C218.746 162.777 220.084 162.909 221.3 163.413C222.516 163.916 223.555 164.769 224.286 165.863C225.017 166.958 225.407 168.244 225.407 169.56C225.41 170.436 225.239 171.303 224.906 172.112C224.573 172.922 224.083 173.657 223.465 174.277C222.847 174.897 222.112 175.389 221.304 175.724C220.495 176.06 219.629 176.232 218.753 176.232V176.215Z" stroke="#263238" stroke-linecap="round" stroke-linejoin="round"/>
<path d="M206.468 185.778V181.701L203.415 181.441C203.236 180.814 202.983 180.211 202.661 179.645L204.637 177.301L201.754 174.419L199.41 176.394C198.844 176.072 198.241 175.819 197.614 175.64L197.354 172.587H193.277L193.016 175.64C192.39 175.819 191.787 176.072 191.22 176.394L188.886 174.419L186.003 177.301L187.97 179.645C187.648 180.211 187.394 180.814 187.215 181.441L184.162 181.701V185.778L187.215 186.039C187.394 186.665 187.648 187.268 187.97 187.835L186.003 190.169L188.886 193.052L191.22 191.085C191.787 191.407 192.39 191.661 193.016 191.84L193.277 194.893H197.354L197.614 191.84C198.241 191.661 198.844 191.407 199.41 191.085L201.754 193.052L204.637 190.169L202.661 187.835C202.983 187.268 203.236 186.665 203.415 186.039L206.468 185.778ZM195.279 188.472C194.343 188.472 193.428 188.195 192.65 187.675C191.872 187.155 191.265 186.416 190.907 185.551C190.549 184.686 190.455 183.735 190.638 182.817C190.82 181.899 191.271 181.055 191.933 180.393C192.595 179.732 193.438 179.281 194.356 179.098C195.274 178.916 196.226 179.009 197.09 179.368C197.955 179.726 198.694 180.332 199.214 181.111C199.734 181.889 200.012 182.804 200.012 183.74C200.012 184.361 199.889 184.977 199.652 185.551C199.414 186.125 199.065 186.647 198.626 187.086C198.186 187.526 197.665 187.874 197.09 188.112C196.516 188.35 195.901 188.472 195.279 188.472Z" fill="#6692D8"/>
<path opacity="0.5" d="M206.468 185.778V181.701L203.415 181.441C203.236 180.814 202.983 180.211 202.661 179.645L204.637 177.301L201.754 174.419L199.41 176.394C198.844 176.072 198.241 175.819 197.614 175.64L197.354 172.587H193.277L193.016 175.64C192.39 175.819 191.787 176.072 191.22 176.394L188.886 174.419L186.003 177.301L187.97 179.645C187.648 180.211 187.394 180.814 187.215 181.441L184.162 181.701V185.778L187.215 186.039C187.394 186.665 187.648 187.268 187.97 187.835L186.003 190.169L188.886 193.052L191.22 191.085C191.787 191.407 192.39 191.661 193.016 191.84L193.277 194.893H197.354L197.614 191.84C198.241 191.661 198.844 191.407 199.41 191.085L201.754 193.052L204.637 190.169L202.661 187.835C202.983 187.268 203.236 186.665 203.415 186.039L206.468 185.778ZM195.279 188.472C194.343 188.472 193.428 188.195 192.65 187.675C191.872 187.155 191.265 186.416 190.907 185.551C190.549 184.686 190.455 183.735 190.638 182.817C190.82 181.899 191.271 181.055 191.933 180.393C192.595 179.732 193.438 179.281 194.356 179.098C195.274 178.916 196.226 179.009 197.09 179.368C197.955 179.726 198.694 180.332 199.214 181.111C199.734 181.889 200.012 182.804 200.012 183.74C200.012 184.361 199.889 184.977 199.652 185.551C199.414 186.125 199.065 186.647 198.626 187.086C198.186 187.526 197.665 187.874 197.09 188.112C196.516 188.35 195.901 188.472 195.279 188.472Z" fill="white"/>
<path d="M206.468 185.778V181.701L203.415 181.441C203.236 180.814 202.983 180.211 202.661 179.645L204.637 177.301L201.754 174.419L199.41 176.394C198.844 176.072 198.241 175.819 197.614 175.64L197.354 172.587H193.277L193.016 175.64C192.39 175.819 191.787 176.072 191.22 176.394L188.886 174.419L186.003 177.301L187.97 179.645C187.648 180.211 187.394 180.814 187.215 181.441L184.162 181.701V185.778L187.215 186.039C187.394 186.665 187.648 187.268 187.97 187.835L186.003 190.169L188.886 193.052L191.22 191.085C191.787 191.407 192.39 191.661 193.016 191.84L193.277 194.893H197.354L197.614 191.84C198.241 191.661 198.844 191.407 199.41 191.085L201.754 193.052L204.637 190.169L202.661 187.835C202.983 187.268 203.236 186.665 203.415 186.039L206.468 185.778ZM195.279 188.472C194.343 188.472 193.428 188.195 192.65 187.675C191.872 187.155 191.265 186.416 190.907 185.551C190.549 184.686 190.455 183.735 190.638 182.817C190.82 181.899 191.271 181.055 191.933 180.393C192.595 179.732 193.438 179.281 194.356 179.098C195.274 178.916 196.226 179.009 197.09 179.368C197.955 179.726 198.694 180.332 199.214 181.111C199.734 181.889 200.012 182.804 200.012 183.74C200.012 184.361 199.889 184.977 199.652 185.551C199.414 186.125 199.065 186.647 198.626 187.086C198.186 187.526 197.665 187.874 197.09 188.112C196.516 188.35 195.901 188.472 195.279 188.472V188.472Z" stroke="#263238" stroke-linecap="round" stroke-linejoin="round"/>
<path d="M223.252 150.451L225.416 151.43L226.269 149.481" stroke="#263238" stroke-linecap="round" stroke-linejoin="round"/>
<path d="M175.164 173.53L172.991 172.551L172.138 174.508" stroke="#263238" stroke-linecap="round" stroke-linejoin="round"/>
<path d="M265.081 128.414V132.823C265.081 133.236 265.26 133.38 265.548 133.38C265.835 133.38 266.015 133.236 266.015 132.823V128.414H266.868V132.769C266.896 132.957 266.881 133.148 266.824 133.329C266.768 133.509 266.671 133.675 266.541 133.813C266.412 133.951 266.253 134.058 266.076 134.126C265.899 134.194 265.71 134.222 265.521 134.206C264.623 134.206 264.183 133.685 264.183 132.769V128.414H265.081Z" fill="#263238"/>
<path d="M270.137 129.815V130.56C270.137 131.458 269.697 131.979 268.799 131.979H268.377V134.125H267.479V128.414H268.799C269.697 128.414 270.137 128.908 270.137 129.815ZM268.341 129.222V131.162H268.763C269.05 131.162 269.203 131.027 269.203 130.623V129.725C269.203 129.321 269.05 129.186 268.763 129.186L268.341 129.222Z" fill="#263238"/>
<path d="M273.351 134.125H272.453L272.301 133.084H271.196L271.043 134.125H270.217L271.115 128.405H272.426L273.351 134.125ZM271.304 132.329H272.202L271.78 129.438L271.304 132.329Z" fill="#263238"/>
<path d="M273.764 128.414H275.192C276.09 128.414 276.53 128.917 276.53 129.824V132.715C276.53 133.613 276.09 134.134 275.192 134.134H273.764V128.414ZM274.662 129.231V133.317H275.174C275.462 133.317 275.632 133.164 275.632 132.76V129.788C275.632 129.375 275.462 129.231 275.174 129.231H274.662Z" fill="#263238"/>
<path d="M279.997 134.125H279.099L278.946 133.084H277.841L277.689 134.125H276.863L277.761 128.405H279.072L279.997 134.125ZM277.949 132.329H278.847L278.425 129.438L277.949 132.329Z" fill="#263238"/>
<path d="M279.844 128.414H282.619V129.231H281.676V134.134H280.778V129.222H279.88L279.844 128.414Z" fill="#263238"/>
<path d="M283.005 128.414H283.903V134.134H283.005V128.414Z" fill="#263238"/>
<path d="M285.376 129.986V134.125H284.567V128.414H285.699L286.597 131.835V128.414H287.36V134.134H286.462L285.376 129.986Z" fill="#263238"/>
<path d="M289.39 130.937H290.647V132.733C290.647 133.631 290.189 134.17 289.309 134.17C288.429 134.17 287.971 133.649 287.971 132.733V129.761C287.971 128.863 288.429 128.324 289.309 128.324C290.189 128.324 290.647 128.845 290.647 129.761V130.318H289.749V129.707C289.749 129.294 289.569 129.141 289.291 129.141C289.012 129.141 288.824 129.294 288.824 129.707V132.787C288.824 133.2 289.003 133.344 289.291 133.344C289.578 133.344 289.749 133.2 289.749 132.787V131.737H289.345L289.39 130.937Z" fill="#263238"/>
<path d="M405.977 172.928L391.052 162.287L395.3 180.112L398.362 175.568L401.182 179.762L403.436 178.244L400.616 174.05L405.977 172.928Z" fill="#263238"/>
<path d="M228.092 252.913C229.933 250.317 242.056 257.537 240.565 262.665C239.074 267.793 234.225 267.236 231.387 264.515C228.55 261.794 226.125 255.688 228.092 252.913Z" fill="#6692D8"/>
<path opacity="0.3" d="M228.092 252.913C229.933 250.317 242.056 257.537 240.565 262.665C239.074 267.793 234.225 267.236 231.387 264.515C228.55 261.794 226.125 255.688 228.092 252.913Z" fill="black" fill-opacity="0.7"/>
<path d="M228.092 252.913C229.933 250.317 242.056 257.537 240.565 262.665C239.074 267.793 234.225 267.236 231.387 264.515C228.55 261.794 226.125 255.688 228.092 252.913Z" stroke="#263238" stroke-linecap="round" stroke-linejoin="round"/>
<path d="M233.848 233.004C233.848 233.004 235.644 233.004 238.626 239.928C239.868 242.953 240.18 246.279 239.524 249.482L235.15 270.558L224.5 264.156L230.687 248.692C230.687 248.692 227.445 238.697 233.848 233.004Z" fill="white" stroke="#263238" stroke-linecap="round" stroke-linejoin="round"/>
<path d="M229.537 246.564L222.713 248.827C221.985 249.015 220.557 247.812 220.62 247.031L222.65 223.162C222.69 222.692 222.875 222.247 223.179 221.887C223.483 221.527 223.891 221.269 224.347 221.15L231.917 219.507C232.635 219.319 234.458 220.181 234.395 220.926L231.244 244.516C231.208 244.993 231.025 245.447 230.719 245.814C230.413 246.181 230 246.443 229.537 246.564Z" fill="#6692D8"/>
<path opacity="0.3" d="M229.537 246.564L222.713 248.827C221.985 249.015 220.557 247.812 220.62 247.031L222.65 223.162C222.69 222.692 222.875 222.247 223.179 221.887C223.483 221.527 223.891 221.269 224.347 221.15L231.917 219.507C232.635 219.319 234.458 220.181 234.395 220.926L231.244 244.516C231.208 244.993 231.025 245.447 230.719 245.814C230.413 246.181 230 246.443 229.537 246.564Z" fill="black" fill-opacity="0.7"/>
<path d="M229.537 246.564L222.713 248.827C221.985 249.015 220.557 247.812 220.62 247.031L222.65 223.162C222.69 222.692 222.875 222.247 223.179 221.887C223.483 221.527 223.891 221.269 224.347 221.15L231.917 219.507C232.635 219.319 234.458 220.181 234.395 220.926L231.244 244.516C231.208 244.993 231.025 245.447 230.719 245.814C230.413 246.181 230 246.443 229.537 246.564V246.564Z" stroke="#263238" stroke-linecap="round" stroke-linejoin="round"/>
<path d="M230.66 247.157L223.099 248.8C222.932 248.842 222.757 248.843 222.589 248.804C222.421 248.765 222.265 248.687 222.133 248.575C222.001 248.464 221.898 248.322 221.832 248.163C221.766 248.004 221.738 247.831 221.752 247.659L223.772 223.782C223.813 223.311 224 222.865 224.305 222.504C224.611 222.144 225.021 221.887 225.479 221.77L233.04 220.127C233.207 220.085 233.382 220.083 233.55 220.122C233.718 220.162 233.874 220.24 234.006 220.352C234.137 220.463 234.241 220.604 234.307 220.763C234.373 220.923 234.401 221.095 234.387 221.267L232.366 245.154C232.324 245.623 232.137 246.067 231.831 246.426C231.526 246.785 231.116 247.04 230.66 247.157Z" fill="#6692D8" stroke="#263238" stroke-linecap="round" stroke-linejoin="round"/>
<path opacity="0.3" d="M226.467 228.2L225.245 228.469C225.218 228.475 225.19 228.474 225.163 228.467C225.136 228.46 225.112 228.447 225.091 228.428C225.07 228.41 225.053 228.387 225.043 228.362C225.032 228.336 225.028 228.308 225.03 228.281L225.362 224.437C225.367 224.361 225.395 224.287 225.444 224.228C225.492 224.168 225.557 224.125 225.631 224.105L226.853 223.844C226.879 223.837 226.907 223.836 226.934 223.842C226.961 223.848 226.986 223.86 227.007 223.878C227.029 223.895 227.045 223.918 227.056 223.943C227.066 223.969 227.071 223.997 227.068 224.024L226.745 227.876C226.737 227.952 226.706 228.024 226.656 228.081C226.606 228.139 226.54 228.18 226.467 228.2Z" fill="black" fill-opacity="0.7"/>
<path d="M237.072 240.17C237.368 236.821 234.324 231.801 232.294 231.801C230.265 231.801 224.096 236.551 224.096 236.551C221.716 238.284 222.892 239.928 222.892 239.928C221.492 240.826 221.096 242.11 221.743 242.693C222.39 243.277 224.437 242.693 224.437 242.693C224.437 242.693 222.39 244.193 222.901 244.921C224.105 246.663 228.074 244.373 228.074 244.373C228.074 244.373 225.775 245.89 225.901 246.169C226.799 248.064 230.534 245.854 230.534 245.854L233.175 247.21C233.173 247.52 233.235 247.828 233.357 248.113C233.479 248.398 233.659 248.654 233.884 248.867C234.11 249.079 234.378 249.243 234.67 249.347C234.961 249.451 235.272 249.494 235.581 249.473" fill="white"/>
<path d="M237.072 240.17C237.368 236.821 234.324 231.801 232.294 231.801C230.265 231.801 224.096 236.551 224.096 236.551C221.716 238.284 222.892 239.928 222.892 239.928C221.492 240.826 221.096 242.11 221.743 242.693C222.39 243.277 224.437 242.693 224.437 242.693C224.437 242.693 222.39 244.193 222.901 244.921C224.105 246.663 228.074 244.373 228.074 244.373C228.074 244.373 225.775 245.89 225.901 246.169C226.799 248.064 230.534 245.854 230.534 245.854L233.175 247.21C233.173 247.52 233.235 247.828 233.357 248.113C233.479 248.398 233.659 248.654 233.884 248.867C234.11 249.079 234.378 249.243 234.67 249.347C234.961 249.451 235.272 249.494 235.581 249.473" stroke="#263238" stroke-linecap="round" stroke-linejoin="round"/>
<path d="M222.928 239.928C222.928 239.928 228.702 236.192 229.439 236.093C230.175 235.994 232.842 235.411 232.842 235.411" fill="white"/>
<path d="M222.928 239.928C222.928 239.928 228.702 236.192 229.439 236.093C230.175 235.994 232.842 235.411 232.842 235.411" stroke="#263238" stroke-linecap="round" stroke-linejoin="round"/>
<path d="M224.5 242.693C224.5 242.693 229.197 240.269 230.059 240.269C231.346 240.128 232.623 239.909 233.884 239.613" fill="white"/>
<path d="M224.5 242.693C224.5 242.693 229.197 240.269 230.059 240.269C231.346 240.128 232.623 239.909 233.884 239.613" stroke="#263238" stroke-linecap="round" stroke-linejoin="round"/>
<path d="M228.092 244.373C228.638 243.981 229.218 243.638 229.825 243.349C230.946 243.267 232.071 243.267 233.192 243.349" fill="white"/>
<path d="M228.092 244.373C228.638 243.981 229.218 243.638 229.825 243.349C230.946 243.267 232.071 243.267 233.192 243.349" stroke="#263238" stroke-linecap="round" stroke-linejoin="round"/>
<path d="M181.89 244.256C190.87 244.391 211.524 276.584 211.524 276.584L224.5 260.42L228.092 252.931C228.092 252.931 229.888 266.401 240.565 262.683C240.565 262.683 231.163 298.046 220.612 302.312C210.06 306.577 180.803 276.584 180.803 276.584L181.89 244.256Z" fill="#6692D8"/>
<path opacity="0.2" d="M182.626 278.38C186.335 282.017 195.117 290.332 203.675 296.232C201.161 287.818 194.273 278.856 194.273 278.856C192.136 278.147 189.119 271.744 189.119 271.744C187.7 272.283 185.688 267.837 185.688 267.837C184.036 269.238 183.111 273.378 182.626 278.38Z" fill="black" fill-opacity="0.7"/>
<path opacity="0.2" d="M210.904 284.801C210.559 281.966 210.813 279.09 211.649 276.36L211.497 276.557C211.497 276.557 210.096 274.375 207.905 271.169C207.285 275.336 206.989 282.322 210.904 284.801Z" fill="black" fill-opacity="0.7"/>
<path d="M181.89 244.256C190.87 244.391 211.524 276.584 211.524 276.584L224.5 260.42L228.092 252.931C228.092 252.931 229.888 266.401 240.565 262.683C240.565 262.683 231.163 298.046 220.612 302.312C210.06 306.577 180.803 276.584 180.803 276.584L181.89 244.256Z" stroke="#263238" stroke-linecap="round" stroke-linejoin="round"/>
<path d="M88.8209 382.773C88.8209 382.773 83.1366 394.222 83.1366 396.916C83.1366 399.61 82.1847 400.822 77.2098 400.822C72.2349 400.822 59.9233 400.93 58.0285 400.05H46.5161C43.8221 400.05 42.7266 397.464 44.3789 397.814C46.0312 398.164 58.253 394.788 61.5756 393.423C64.8982 392.058 70.358 390.441 73.3035 387.595C76.2489 384.748 79.814 374.125 79.814 374.125L88.8209 382.773Z" fill="white" stroke="#263238" stroke-linecap="round" stroke-linejoin="round"/>
<path d="M58.0283 400.041C58.0283 396.7 61.6203 398.299 67.0083 396.907C70.4836 396.009 70.8518 394.797 70.8518 394.797" stroke="#263238" stroke-linecap="round" stroke-linejoin="round"/>
<path d="M185.545 264.91C185.904 271.447 186.057 278.236 186.317 283.301C186.964 295.541 195.153 331.317 195.153 331.317C195.153 331.317 204.133 336.705 204.582 346.583C205.031 356.461 150.155 384.299 135.436 376.361C120.718 368.422 122.694 345.362 122.694 345.362C122.694 345.362 100.908 257.358 109.825 250.282C118.742 243.205 121.751 244.085 144.578 240.924C167.405 237.763 181.89 244.256 181.89 244.256C183.186 245.509 184.093 247.108 184.503 248.863" fill="#6692D8"/>
<path opacity="0.2" d="M122.685 345.308C122.685 345.308 120.7 368.369 135.427 376.307C150.154 384.245 205.058 356.398 204.573 346.529C204.088 336.66 195.153 331.263 195.153 331.263C195.153 331.263 194.345 327.716 193.205 322.481C185.419 327.528 167.674 337.998 156.126 336.849C156.126 336.849 175.352 343.665 187.646 337.81C199.94 331.955 182.536 345.514 178.989 345.299C175.442 345.083 148.969 340.297 144.174 342.785C139.378 345.272 128.719 363.564 128.719 363.564C128.719 363.564 122.254 349.035 123.69 340.117C123.69 340.117 123.879 312.351 120.79 296.115C120.79 296.115 128.18 283.364 120.009 273.459C116.991 269.804 113.723 277.329 110.741 288.276C115.141 314.821 122.685 345.308 122.685 345.308Z" fill="black" fill-opacity="0.7"/>
<path d="M185.545 264.91C185.904 271.447 186.057 278.236 186.317 283.301C186.964 295.541 195.153 331.317 195.153 331.317C195.153 331.317 204.133 336.705 204.582 346.583C205.031 356.461 150.155 384.299 135.436 376.361C120.718 368.422 122.694 345.362 122.694 345.362C122.694 345.362 100.908 257.358 109.825 250.282C118.742 243.205 121.751 244.085 144.578 240.924C167.405 237.763 181.89 244.256 181.89 244.256C183.186 245.509 184.093 247.108 184.503 248.863" stroke="#263238" stroke-linecap="round" stroke-linejoin="round"/>
<path d="M196.581 339.713C197.964 339.534 201.709 341.905 201.709 341.905C201.709 341.905 262.27 326.351 271.375 331.29C289.65 341.168 279.906 360.718 276.117 366.312C272.327 371.907 216.418 398.389 197.012 398.892C177.606 399.395 142.01 394.033 135.05 382.602C128.091 371.17 135.212 358.491 144.928 349.187C154.806 339.713 174.185 348.002 180.848 346.107C189.361 343.665 192.351 340.243 196.581 339.713Z" fill="#263238"/>
<path d="M145.925 392.92L145.027 396.826C145.027 396.826 147.407 403.588 157.886 404.684C168.366 405.779 174.562 408.114 179.591 408.41C182.244 408.617 184.911 408.574 187.556 408.285L188.58 406.794L145.925 392.92Z" fill="white" stroke="#263238" stroke-linecap="round" stroke-linejoin="round"/>
<path d="M206.728 392.507L188.58 406.794C179.825 406.05 171.127 404.752 162.538 402.906C153.944 400.912 146.437 398.056 146.023 394.15C145.395 388.196 151.744 386.571 159.305 386.805C160.715 386.805 162.161 386.939 163.624 387.092C175.72 388.394 191.085 381.704 191.085 381.704L206.728 392.507Z" fill="#6692D8"/>
<path opacity="0.2" d="M146.041 393.962C149.565 395.273 152.946 396.936 156.135 398.928C156.135 398.928 172.99 407.602 198.889 398.667L206.737 392.507L191.112 381.65C191.112 381.65 175.747 388.331 163.651 387.038C162.187 386.885 160.742 386.778 159.332 386.751C151.833 386.517 145.52 388.116 146.041 393.962Z" fill="black" fill-opacity="0.7"/>
<path d="M206.728 392.507L188.58 406.794C179.825 406.05 171.127 404.752 162.538 402.906V402.906C153.944 400.912 146.437 398.056 146.023 394.15C145.395 388.196 151.744 386.571 159.305 386.805C160.715 386.805 162.161 386.939 163.624 387.092C175.72 388.394 191.085 381.704 191.085 381.704L206.728 392.507Z" stroke="#263238" stroke-linecap="round" stroke-linejoin="round"/>
<path d="M189.819 398.119C193.088 398.649 189.496 405.348 185.06 403.31C180.623 401.271 186.541 397.59 189.819 398.119Z" fill="white"/>
<path opacity="0.2" d="M183.677 402.232C186.046 401.943 188.399 401.532 190.726 401.002C191.355 399.691 191.211 398.308 189.828 398.119C187.071 397.67 182.455 400.203 183.677 402.232Z" fill="black" fill-opacity="0.7"/>
<path d="M189.819 398.119C193.088 398.649 189.496 405.348 185.06 403.31C180.623 401.271 186.541 397.59 189.819 398.119Z" stroke="#263238" stroke-linecap="round" stroke-linejoin="round"/>
<path d="M162.538 402.852C153.944 400.858 146.437 398.003 146.023 394.096C145.395 388.143 151.744 386.517 159.305 386.751C159.664 387.038 167.028 394.15 162.538 402.852Z" fill="white"/>
<path opacity="0.2" d="M146.041 393.962C149.565 395.273 152.946 396.936 156.135 398.928C158.405 399.977 160.784 400.772 163.229 401.298C166.13 393.324 159.637 387.047 159.332 386.751C151.833 386.517 145.52 388.116 146.041 393.962Z" fill="black" fill-opacity="0.7"/>
<path d="M162.538 402.852C153.944 400.858 146.437 398.003 146.023 394.096C145.395 388.143 151.744 386.517 159.305 386.751C159.664 387.038 167.028 394.15 162.538 402.852Z" stroke="#263238" stroke-linecap="round" stroke-linejoin="round"/>
<path d="M168.698 395.461H168.644C168.414 395.462 168.192 395.373 168.025 395.214C167.858 395.055 167.758 394.838 167.746 394.608C167.567 390.854 164.675 387.81 164.648 387.774C164.504 387.6 164.431 387.377 164.444 387.15C164.458 386.924 164.556 386.711 164.72 386.554C164.883 386.398 165.1 386.309 165.327 386.305C165.553 386.301 165.773 386.384 165.941 386.535C166.085 386.679 169.327 390.082 169.533 394.518C169.546 394.754 169.465 394.984 169.309 395.161C169.153 395.337 168.933 395.445 168.698 395.461Z" fill="white" stroke="#263238" stroke-linecap="round" stroke-linejoin="round"/>
<path d="M172.29 395.677H172.218C171.98 395.677 171.752 395.582 171.583 395.414C171.415 395.245 171.32 395.017 171.32 394.779C171.239 390.989 168.626 387.711 168.572 387.676C168.438 387.491 168.38 387.261 168.409 387.035C168.438 386.808 168.552 386.601 168.728 386.456C168.904 386.31 169.129 386.238 169.357 386.252C169.585 386.267 169.799 386.368 169.955 386.535C171.808 388.892 172.91 391.752 173.116 394.743C173.126 394.975 173.046 395.202 172.892 395.377C172.738 395.551 172.522 395.658 172.29 395.677Z" fill="white" stroke="#263238" stroke-linecap="round" stroke-linejoin="round"/>
<path d="M176.592 395.228C176.355 395.248 176.119 395.173 175.938 395.02C175.756 394.866 175.642 394.647 175.622 394.411C175.343 391.268 172.667 387.227 172.64 387.227C172.567 387.129 172.514 387.017 172.485 386.899C172.457 386.78 172.452 386.657 172.473 386.536C172.493 386.416 172.538 386.301 172.604 386.199C172.671 386.096 172.757 386.008 172.859 385.94C172.96 385.872 173.075 385.826 173.195 385.804C173.315 385.782 173.438 385.784 173.557 385.811C173.676 385.838 173.789 385.889 173.887 385.961C173.986 386.033 174.069 386.125 174.131 386.23C174.257 386.409 177.094 390.666 177.409 394.312C177.414 394.54 177.333 394.761 177.181 394.931C177.029 395.101 176.819 395.207 176.592 395.228Z" fill="white" stroke="#263238" stroke-linecap="round" stroke-linejoin="round"/>
<path d="M180.65 394.797C180.57 394.81 180.488 394.81 180.408 394.797C180.173 394.757 179.964 394.626 179.826 394.433C179.688 394.239 179.633 393.999 179.672 393.764C180.309 389.948 176.771 386.679 176.735 386.652C176.558 386.492 176.451 386.269 176.438 386.03C176.426 385.792 176.508 385.559 176.668 385.381C176.827 385.204 177.051 385.097 177.289 385.084C177.527 385.072 177.761 385.154 177.938 385.314C178.109 385.475 182.249 389.265 181.45 394.06C181.415 394.254 181.318 394.43 181.174 394.563C181.03 394.696 180.846 394.778 180.65 394.797Z" fill="white" stroke="#263238" stroke-linecap="round" stroke-linejoin="round"/>
<path d="M185.069 393.737C184.97 393.75 184.871 393.75 184.772 393.737C184.657 393.711 184.549 393.662 184.453 393.593C184.357 393.525 184.275 393.438 184.212 393.338C184.15 393.238 184.108 393.126 184.088 393.01C184.069 392.894 184.072 392.774 184.099 392.659C184.88 389.256 181.531 385.413 181.495 385.377C181.409 385.29 181.342 385.187 181.297 385.074C181.252 384.96 181.231 384.839 181.235 384.717C181.239 384.595 181.267 384.475 181.318 384.365C181.37 384.254 181.443 384.156 181.534 384.074C181.625 383.993 181.732 383.931 181.847 383.893C181.963 383.854 182.085 383.839 182.207 383.849C182.328 383.86 182.446 383.894 182.554 383.952C182.662 384.009 182.756 384.087 182.833 384.182C183.003 384.371 186.838 388.753 185.85 393.064C185.805 393.243 185.706 393.403 185.566 393.524C185.426 393.644 185.252 393.719 185.069 393.737Z" fill="white" stroke="#263238" stroke-linecap="round" stroke-linejoin="round"/>
<path d="M278.38 387.038L279.682 390.828C279.682 390.828 278.02 397.805 267.72 400.005C257.42 402.205 251.493 405.16 246.519 405.986C243.904 406.472 241.249 406.709 238.589 406.695L237.404 405.276L278.38 387.038Z" fill="white" stroke="#263238" stroke-linecap="round" stroke-linejoin="round"/>
<path d="M217.891 393.055L237.431 405.312C246.051 403.653 254.557 401.448 262.898 398.712C271.241 395.829 278.407 392.201 278.407 388.268C278.407 382.288 271.914 381.336 264.425 382.359C263.024 382.539 261.596 382.799 260.16 383.105C248.27 385.664 232.321 380.635 232.321 380.635L217.891 393.055Z" fill="#6692D8"/>
<path opacity="0.2" d="M217.891 393.055L229.385 400.239C238.705 397.352 246.875 391.598 252.733 383.796C245.808 383.648 238.934 382.572 232.295 380.599L217.891 393.055Z" fill="black" fill-opacity="0.7"/>
<path d="M217.891 393.055L237.431 405.312C246.051 403.653 254.557 401.448 262.898 398.712V398.712C271.241 395.829 278.407 392.202 278.407 388.268C278.407 382.288 271.914 381.336 264.425 382.359C263.024 382.539 261.596 382.799 260.16 383.105C248.27 385.664 232.321 380.635 232.321 380.635L217.891 393.055Z" stroke="#263238" stroke-linecap="round" stroke-linejoin="round"/>
<path d="M262.898 398.712C271.241 395.829 278.407 392.202 278.407 388.268C278.407 382.288 271.914 381.336 264.425 382.359C264.129 382.701 257.591 390.513 262.898 398.712Z" fill="white" stroke="#263238" stroke-linecap="round" stroke-linejoin="round"/>
<path d="M256.02 392.004H256.073C256.191 391.997 256.307 391.967 256.413 391.915C256.52 391.864 256.615 391.792 256.693 391.703C256.772 391.615 256.832 391.512 256.87 391.4C256.909 391.288 256.925 391.17 256.918 391.052C256.702 387.307 259.252 383.967 259.279 383.94C259.352 383.847 259.405 383.74 259.437 383.626C259.468 383.513 259.477 383.394 259.462 383.276C259.447 383.159 259.41 383.046 259.352 382.944C259.293 382.841 259.215 382.751 259.122 382.678C259.029 382.606 258.922 382.552 258.809 382.521C258.695 382.49 258.576 382.481 258.459 382.495C258.342 382.51 258.229 382.548 258.126 382.606C258.023 382.664 257.933 382.742 257.86 382.835C257.735 382.988 254.87 386.724 255.167 391.151C255.177 391.374 255.271 391.584 255.428 391.742C255.586 391.9 255.797 391.993 256.02 392.004Z" fill="white" stroke="#263238" stroke-linecap="round" stroke-linejoin="round"/>
<path d="M252.473 392.597H252.544C252.781 392.576 253 392.462 253.153 392.281C253.307 392.099 253.381 391.864 253.362 391.627C253.292 389.036 253.985 386.481 255.355 384.281C255.42 384.182 255.466 384.071 255.488 383.955C255.51 383.838 255.509 383.719 255.485 383.603C255.461 383.487 255.414 383.377 255.347 383.279C255.28 383.181 255.194 383.097 255.095 383.033C254.896 382.904 254.654 382.859 254.421 382.908C254.189 382.956 253.986 383.095 253.855 383.293C252.259 385.828 251.464 388.786 251.575 391.779C251.595 392.003 251.698 392.211 251.865 392.363C252.031 392.514 252.248 392.598 252.473 392.597Z" fill="white" stroke="#263238" stroke-linecap="round" stroke-linejoin="round"/>
<path d="M248.144 392.597C248.382 392.597 248.611 392.502 248.779 392.334C248.948 392.165 249.042 391.937 249.042 391.699C248.988 388.538 251.224 384.254 251.251 384.209C251.309 384.105 251.346 383.989 251.359 383.87C251.372 383.751 251.361 383.631 251.327 383.516C251.293 383.402 251.236 383.295 251.16 383.203C251.084 383.11 250.99 383.034 250.884 382.978C250.778 382.922 250.662 382.889 250.543 382.878C250.423 382.868 250.303 382.882 250.189 382.919C250.076 382.956 249.97 383.015 249.88 383.093C249.789 383.171 249.715 383.267 249.662 383.374C249.563 383.563 247.183 388.107 247.246 391.726C247.253 391.959 247.351 392.181 247.518 392.343C247.686 392.506 247.911 392.597 248.144 392.597Z" fill="white" stroke="#263238" stroke-linecap="round" stroke-linejoin="round"/>
<path d="M244.058 392.597C244.139 392.605 244.22 392.605 244.301 392.597C244.414 392.565 244.521 392.512 244.614 392.44C244.707 392.367 244.785 392.277 244.844 392.175C244.902 392.072 244.94 391.959 244.954 391.842C244.969 391.725 244.96 391.606 244.929 391.492C243.896 387.765 247.075 384.146 247.102 384.11C247.261 383.934 247.344 383.702 247.332 383.464C247.321 383.227 247.215 383.004 247.039 382.844C246.952 382.764 246.849 382.702 246.738 382.662C246.626 382.622 246.507 382.604 246.389 382.61C246.27 382.616 246.154 382.645 246.047 382.696C245.94 382.747 245.844 382.819 245.764 382.907C245.612 383.087 241.894 387.289 243.196 391.968C243.254 392.151 243.368 392.311 243.524 392.424C243.679 392.537 243.866 392.598 244.058 392.597Z" fill="white" stroke="#263238" stroke-linecap="round" stroke-linejoin="round"/>
<path d="M239.559 392.004C239.66 392.003 239.761 391.985 239.856 391.95C240.081 391.873 240.266 391.709 240.37 391.495C240.474 391.281 240.49 391.035 240.412 390.81C239.281 387.514 242.208 383.338 242.208 383.293C242.323 383.1 242.361 382.871 242.315 382.651C242.268 382.431 242.141 382.236 241.959 382.106C241.776 381.975 241.551 381.917 241.328 381.944C241.105 381.971 240.9 382.081 240.754 382.252C240.61 382.458 237.251 387.218 238.688 391.393C238.749 391.575 238.867 391.732 239.024 391.841C239.18 391.951 239.368 392.008 239.559 392.004Z" fill="white" stroke="#263238" stroke-linecap="round" stroke-linejoin="round"/>
<path d="M235.276 396.862C232.079 397.76 236.353 404.046 240.547 401.523C244.74 398.999 238.499 396.018 235.276 396.862Z" fill="white" stroke="#263238" stroke-linecap="round" stroke-linejoin="round"/>
<path d="M149.966 344.446C161.801 342.371 193.24 358.913 212.502 369.931C214.393 368.883 216.195 367.681 217.89 366.339C222.326 362.388 239.254 340.629 250.928 335.654L272.246 363.546C267.442 370.272 253.227 377.699 239.02 383.823C236.489 388.006 233.508 391.9 230.13 395.434C221.411 404.414 217.854 399.377 217.854 399.377C217.854 399.377 212.341 398.757 204.205 397.643C203.873 398.431 203.289 399.086 202.545 399.506C201.8 399.925 200.937 400.085 200.092 399.96C199.032 399.79 196.994 398.281 194.704 396.278C174.158 393.189 146.284 388.035 138.75 381.964C126.474 372.068 139.468 346.278 149.966 344.446Z" fill="#263238"/>
<path d="M118.195 264.91C120.422 272.094 120.601 282.385 118.778 290.413C118.778 290.413 110.804 325.687 109.798 333.365C108.793 341.042 95.3317 370.874 94.6222 380.626L88.4171 389.552C88.4171 389.552 79.3472 388.87 73.3037 381.991L77.5692 372.535C77.5692 372.535 81.4755 357.997 82.8944 355.976C84.3132 353.956 88.9828 326.531 90.5543 322.05C92.1258 317.569 101.573 257.843 109.816 250.21C109.816 250.21 112.016 250.03 112.914 251.763" fill="#6692D8"/>
<path d="M118.195 264.91C120.422 272.094 120.601 282.385 118.778 290.413C118.778 290.413 110.804 325.687 109.798 333.365C108.793 341.042 95.3317 370.874 94.6222 380.626L88.4171 389.552C88.4171 389.552 79.3473 388.87 73.3037 381.991L77.5692 372.535C77.5692 372.535 81.4755 357.997 82.8943 355.976C84.3132 353.956 88.9828 326.531 90.5543 322.05C92.1258 317.569 101.573 257.843 109.816 250.21C109.816 250.21 112.016 250.03 112.914 251.763" stroke="#263238" stroke-linecap="round" stroke-linejoin="round"/>
<path d="M238.078 378.462C233.875 376.72 227.84 378.462 227.84 378.462C227.84 378.462 208.022 369.832 194.444 361.616C180.866 353.399 161.406 347.248 161.406 347.248C153.944 346.718 150.397 346.888 146.841 350.84" stroke="white" stroke-linecap="round" stroke-linejoin="round"/>
<path d="M137.78 374.116C137.78 374.116 137.681 380.132 146.212 384.308" stroke="white" stroke-linecap="round" stroke-linejoin="round"/>
<path d="M231.926 349.008C231.926 349.008 218.456 358.751 215.762 365.172C213.113 366.285 210.555 367.603 208.111 369.114" stroke="white" stroke-linecap="round" stroke-linejoin="round"/>
<path d="M214.783 357.108C213.788 359.905 213.623 362.93 214.307 365.818" stroke="white" stroke-linecap="round" stroke-linejoin="round"/>
<path d="M217.891 350.786C217.157 351.854 216.512 352.98 215.96 354.153" stroke="white" stroke-linecap="round" stroke-linejoin="round"/>
<path d="M198.709 349.897C198.709 349.897 194.219 355.913 193.079 360.807" stroke="white" stroke-linecap="round" stroke-linejoin="round"/>
<path d="M173.61 386.311C171.932 386.215 170.261 386.011 168.608 385.7" stroke="white" stroke-linecap="round" stroke-linejoin="round"/>
<path d="M215.879 381.991C203.112 384.534 190.159 386.036 177.148 386.481" stroke="white" stroke-linecap="round" stroke-linejoin="round"/>
<path d="M211.497 276.584C210.729 278.062 210.328 279.704 210.328 281.37C210.328 283.036 210.729 284.678 211.497 286.157" stroke="#263238" stroke-linecap="round" stroke-linejoin="round"/>
<path d="M140.321 249.644C146.517 253.487 155.21 256.738 161.712 251.745" stroke="#263238" stroke-linecap="round" stroke-linejoin="round"/>
<path d="M135.427 246.16C136.271 246.878 137.151 247.543 138.049 248.18" stroke="#263238" stroke-linecap="round" stroke-linejoin="round"/>
<path d="M188.724 270.118C188.355 273.54 188.041 277.617 186.2 280.616" stroke="#263238" stroke-linecap="round" stroke-linejoin="round"/>
<path d="M189.119 265.17C189.119 266.068 189.002 267.029 188.93 267.963" stroke="#263238" stroke-linecap="round" stroke-linejoin="round"/>
<path d="M192.459 280.616C192.459 280.616 190.313 282.888 186.254 281.846" stroke="#263238" stroke-linecap="round" stroke-linejoin="round"/>
<path d="M123.394 271.735C123.394 271.735 123.124 286.48 118.194 292.964" stroke="#263238" stroke-linecap="round" stroke-linejoin="round"/>
<path d="M151.456 335.852L147.954 335.017" stroke="#263238" stroke-linecap="round" stroke-linejoin="round"/>
<path d="M195.153 331.29C190.115 331.362 185.625 334.954 181.135 338.546C172.155 343.934 163.175 336.75 153.836 336.346" stroke="#263238" stroke-linecap="round" stroke-linejoin="round"/>
<path d="M125.522 328.452C124.741 334.101 123.879 339.74 122.685 345.308" stroke="#263238" stroke-linecap="round" stroke-linejoin="round"/>
<path d="M126.411 321.484C126.258 322.849 126.088 324.178 125.908 325.57" stroke="#263238" stroke-linecap="round" stroke-linejoin="round"/>
<path d="M175.667 301.827C170 311.453 161.864 322.436 150.397 325.175" stroke="#263238" stroke-linecap="round" stroke-linejoin="round"/>
<path d="M181.836 289.497C180.436 292.899 178.832 296.213 177.031 299.42" stroke="#263238" stroke-linecap="round" stroke-linejoin="round"/>
<path d="M108.371 284.019C104.069 294.544 99.6779 307.116 91.9551 315.719" stroke="#263238" stroke-linecap="round" stroke-linejoin="round"/>
<path d="M111.352 276.584C110.759 278.155 110.139 279.727 109.556 281.298" stroke="#263238" stroke-linecap="round" stroke-linejoin="round"/>
<path d="M97.4596 347.014C97.4596 347.014 87.1595 355.482 82.894 355.994" stroke="#263238" stroke-linecap="round" stroke-linejoin="round"/>
<path d="M80.1284 382.97C78.1797 381.901 75.8809 380.554 74.8931 378.48" stroke="#263238" stroke-linecap="round" stroke-linejoin="round"/>
<path d="M87.2223 386.086C85.6777 385.547 84.1601 384.928 82.6694 384.245" stroke="#263238" stroke-linecap="round" stroke-linejoin="round"/>
<path d="M229.07 267.119C230.186 268.272 231.627 269.059 233.201 269.373" stroke="#263238" stroke-linecap="round" stroke-linejoin="round"/>
<path d="M224.5 260.42C225.203 261.946 226.054 263.398 227.041 264.757" stroke="#263238" stroke-linecap="round" stroke-linejoin="round"/>
<path d="M136.756 242.289C136.756 242.289 143.042 251.35 153.818 250.111C159.763 249.419 159.152 244.84 159.152 244.84C158.309 244.301 157.675 243.49 157.356 242.541C156.719 240.915 156.458 238.266 157.958 234.127C157.958 234.01 158.039 233.884 158.084 233.767C159.772 229.277 139.432 222.928 139.432 222.928C139.432 222.928 141.884 234.656 136.756 242.289Z" fill="white" stroke="#263238" stroke-linecap="round" stroke-linejoin="round"/>
<path d="M146.607 231.002C146.607 231.002 150.379 240.404 157.383 242.541C156.746 240.915 156.485 238.266 157.985 234.127L146.607 231.002Z" fill="#263238"/>
<path d="M144.748 228.792C144.272 232.824 154.545 238.922 160.562 238.904C163.31 238.904 167.117 233.597 168.734 225.775C169.542 221.824 167.126 217.954 169.084 212.449C170.754 207.743 167.486 193.708 153.629 192.558C133.829 190.915 131.521 212.144 140.294 226.467" fill="white"/>
<path d="M144.748 228.792C144.272 232.824 154.545 238.922 160.562 238.904C163.31 238.904 167.117 233.597 168.734 225.775C169.542 221.824 167.126 217.954 169.084 212.449C170.754 207.743 167.486 193.708 153.629 192.558C133.829 190.915 131.521 212.144 140.294 226.467" stroke="#263238" stroke-linecap="round" stroke-linejoin="round"/>
<path d="M169.488 211.389C168.949 210.645 168.201 210.078 167.34 209.758C166.479 209.438 165.542 209.381 164.648 209.593" stroke="#263238" stroke-linecap="round" stroke-linejoin="round"/>
<path d="M158.048 209.485C158.048 209.485 153.962 209.072 151.475 211.389" stroke="#263238" stroke-linecap="round" stroke-linejoin="round"/>
<path d="M163.579 212.269C163.22 216.355 167.845 223.198 166.686 224.177C165.528 225.156 162.78 223.818 161.711 223.279" stroke="#263238" stroke-linecap="round" stroke-linejoin="round"/>
<path d="M156.387 216.984C156.828 216.984 157.186 216.485 157.186 215.87C157.186 215.255 156.828 214.757 156.387 214.757C155.945 214.757 155.587 215.255 155.587 215.87C155.587 216.485 155.945 216.984 156.387 216.984Z" fill="#263238"/>
<path d="M166.076 216.984C166.517 216.984 166.875 216.485 166.875 215.87C166.875 215.255 166.517 214.757 166.076 214.757C165.635 214.757 165.277 215.255 165.277 215.87C165.277 216.485 165.635 216.984 166.076 216.984Z" fill="#263238"/>
<path d="M163.489 228.523C163.489 228.523 158.784 229.152 156.386 226.664" stroke="#263238" stroke-linecap="round" stroke-linejoin="round"/>
<path d="M157.15 227.329C157.273 228.027 157.599 228.673 158.088 229.186C158.577 229.699 159.206 230.055 159.898 230.211C162.385 230.831 162.295 228.595 162.295 228.595" stroke="#263238" stroke-linecap="round" stroke-linejoin="round"/>
<path d="M150.163 201.619C150.163 201.619 172.191 207.654 174.499 198.332C174.499 198.332 170.494 198.808 166.076 193.977C160.688 188.05 151.941 186.515 144.569 189.182C137.196 191.849 137.645 195.71 137.645 195.71C137.645 195.71 133.29 196.285 131.359 201.529C129.429 206.773 132.491 225.299 139.881 229.232L141.929 226.664C141.929 226.664 141.112 221.375 144.623 217.424L146.58 217.927C146.58 217.927 144.452 213.347 146.67 210.85C148.993 208.346 150.246 205.034 150.163 201.619Z" fill="#263238"/>
<path d="M144.578 216.984C144.578 216.984 142.36 210.59 139.522 212.269C136.684 213.948 139.782 226.215 144.578 223.467" fill="white"/>
<path d="M144.578 216.984C144.578 216.984 142.36 210.59 139.522 212.269C136.684 213.948 139.782 226.215 144.578 223.467" stroke="#263238" stroke-linecap="round" stroke-linejoin="round"/>
<path opacity="0.3" d="M144.578 196.429C144.578 196.429 158.272 198.736 162.34 193.232" stroke="white" stroke-linecap="round" stroke-linejoin="round"/>
<path opacity="0.3" d="M153.45 199.625C153.45 199.625 162.969 202.822 169.488 199.625" stroke="white" stroke-linecap="round" stroke-linejoin="round"/>
<path opacity="0.3" d="M141.498 201.044C141.498 201.044 141.363 208.938 134.08 211.389" stroke="white" stroke-linecap="round" stroke-linejoin="round"/>
</svg>
